<?xml version="1.0" standalone="no"?>
<!DOCTYPE svg PUBLIC "-//W3C//DTD SVG 1.1//EN" "http://www.w3.org/Graphics/SVG/1.1/DTD/svg11.dtd" >
<svg xmlns="http://www.w3.org/2000/svg" xmlns:xlink="http://www.w3.org/1999/xlink" version="1.1">
<metadata></metadata>
<defs>
<font id="sf_pro_textheavy" horiz-adv-x="1626" >
<font-face units-per-em="2048" ascent="1638" descent="-410" />
<missing-glyph horiz-adv-x="502" />
<glyph horiz-adv-x="0" />
<glyph unicode="&#xd;" horiz-adv-x="0" />
<glyph unicode=" "  horiz-adv-x="502" />
<glyph unicode="&#x09;" horiz-adv-x="502" />
<glyph unicode="&#xa0;" horiz-adv-x="502" />
<glyph unicode="!" horiz-adv-x="778" d="M185 147q0 87 53.5 135t150.5 48t151 -48t54 -135q0 -86 -54 -134t-151 -48t-150.5 48t-53.5 134zM197 1443h384l-32 -970h-320z" />
<glyph unicode="&#x22;" horiz-adv-x="1079" d="M137 802v641h298v-641h-298zM645 802v641h297v-641h-297z" />
<glyph unicode="#" horiz-adv-x="1394" d="M27 368l48 253h222l44 221h-222l48 251h223l70 351h262l-68 -351h222l70 351h264l-70 -351h230l-48 -251h-232l-44 -221h231l-48 -253h-233l-72 -368h-264l74 368h-224l-73 -368h-262l72 368h-220zM533 594h264l57 274h-266z" />
<glyph unicode="$" horiz-adv-x="1461" d="M136 416h347q4 -65 55.5 -111t129.5 -54v316l-119 25q-190 42 -288.5 147t-98.5 268q0 193 132.5 309t373.5 133v135h143v-136q221 -21 351.5 -137t132.5 -293h-336q-2 58 -44 103.5t-104 55.5v-305l119 -22q395 -75 395 -411q0 -196 -133.5 -312.5t-380.5 -136.5v-125 h-143v123q-252 13 -391.5 125.5t-140.5 302.5zM514 1042q0 -109 154 -141v277q-68 -4 -111 -42t-43 -94zM811 251q80 7 125.5 46t45.5 101q0 113 -171 144v-291z" />
<glyph unicode="%" horiz-adv-x="1748" d="M57 1106q0 169 97 271t257 102q161 0 257.5 -102t96.5 -271t-97 -271t-257 -102t-257 102t-97 271zM243 0l542 757l396 686h333l-551 -761l-386 -682h-334zM313 1107q0 -73 26 -115t72 -42q45 0 71 42t26 115q0 75 -25.5 116t-71.5 41t-72 -41.5t-26 -115.5zM985 338 q0 169 96.5 270.5t256.5 101.5t256.5 -101.5t96.5 -270.5t-96.5 -271.5t-256.5 -102.5t-256.5 102.5t-96.5 271.5zM1240 338q0 -73 26 -115t72 -42q45 0 71 42t26 115q0 75 -25.5 116t-71.5 41t-72 -41.5t-26 -115.5z" />
<glyph unicode="&#x26;" horiz-adv-x="1560" d="M102 374q0 122 61.5 211.5t198.5 165.5q21 14 69 38q-98 100 -138.5 174.5t-40.5 153.5q0 149 123 246.5t311 97.5q187 0 304.5 -93t117.5 -241q0 -223 -284 -379l232 -249q42 72 42 214v89h285v-114q0 -115 -33 -220.5t-91 -180.5l276 -287h-379l-100 106 q-74 -63 -190 -98.5t-249 -35.5q-239 0 -377 108t-138 294zM425 404q0 -84 63 -135.5t166 -51.5q69 0 129.5 22.5t94.5 60.5l-291 311q-25 -10 -37 -18q-125 -76 -125 -189zM546 1100q0 -45 27 -89t96 -108q156 82 156 196q0 62 -38.5 101t-99.5 39t-101 -39.5t-40 -99.5z " />
<glyph unicode="'" horiz-adv-x="571" d="M137 802v641h298v-641h-298z" />
<glyph unicode="(" horiz-adv-x="929" d="M213 609q0 573 303 921h333q-115 -144 -192.5 -401.5t-77.5 -517.5q0 -259 77.5 -517.5t192.5 -405.5h-333q-303 354 -303 921z" />
<glyph unicode=")" horiz-adv-x="929" d="M79 -312q115 147 192.5 405.5t77.5 517.5q0 260 -77.5 518t-192.5 401h334q303 -348 303 -921q0 -566 -303 -921h-334z" />
<glyph unicode="*" horiz-adv-x="1032" d="M109 973l277 100l-277 99l117 203l226 -192l-54 292h236l-54 -292l226 192l117 -203l-277 -99l277 -100l-117 -203l-223 188l51 -288h-236l51 288l-223 -188z" />
<glyph unicode="+" horiz-adv-x="1461" d="M174 436v301h401v397h311v-397h401v-301h-401v-400h-311v400h-401z" />
<glyph unicode="," horiz-adv-x="767" d="M140 -400l90 646h336l-196 -646h-230z" />
<glyph unicode="-" horiz-adv-x="1006" d="M174 425v316h658v-316h-658z" />
<glyph unicode="." horiz-adv-x="767" d="M182 157q0 86 54 138.5t147 52.5q94 0 148 -52.5t54 -138.5q0 -85 -54 -137.5t-148 -52.5q-93 0 -147 52.5t-54 137.5z" />
<glyph unicode="/" horiz-adv-x="852" d="M0 -312l518 1842h334l-518 -1842h-334z" />
<glyph unicode="0" horiz-adv-x="1460" d="M124 725q0 356 162.5 556.5t443.5 200.5t443.5 -200.5t162.5 -557.5q0 -356 -162.5 -559.5t-443.5 -203.5q-282 0 -444 203t-162 561zM497 725q0 -234 62.5 -358t170.5 -124t171 124t63 358q0 232 -63 353.5t-171 121.5t-170.5 -121.5t-62.5 -353.5z" />
<glyph unicode="1" horiz-adv-x="1101" d="M122 877v316l367 250h367v-1443h-367v1112h-19z" />
<glyph unicode="2" horiz-adv-x="1361" d="M117 995v6q0 215 154 348t405 133q242 0 390.5 -118t148.5 -310q0 -120 -79 -239.5t-271 -290.5l-238 -219v-19h608v-286h-1097v245l456 429q158 146 212 218t54 136q0 80 -54 128.5t-143 48.5q-93 0 -151.5 -57t-58.5 -146v-7h-336z" />
<glyph unicode="3" horiz-adv-x="1415" d="M118 428h350q4 -83 66.5 -130.5t166.5 -47.5q98 0 159 50.5t61 131.5q0 83 -60 131t-165 48h-177v253h177q92 0 148 47.5t56 126.5t-55.5 124.5t-151.5 45.5q-94 0 -153 -51.5t-62 -136.5h-333q4 212 154.5 337t401.5 125q240 0 390 -109.5t150 -284.5q0 -124 -75.5 -214 t-197.5 -113v-19q149 -16 237.5 -107.5t88.5 -230.5q0 -196 -167 -319.5t-432 -123.5q-253 0 -410 127.5t-167 339.5z" />
<glyph unicode="4" horiz-adv-x="1459" d="M112 234v307q184 352 546 902h509v-923h180v-286h-180v-234h-347v234h-708zM429 507h400v674h-18q-176 -271 -382 -656v-18z" />
<glyph unicode="5" horiz-adv-x="1408" d="M155 420h333q13 -79 78 -127.5t156 -48.5q101 0 165 64t64 169q0 107 -64.5 173.5t-165.5 66.5q-145 0 -220 -119h-323l68 845h960v-286h-677l-27 -335h19q92 148 306 148q205 0 337.5 -136.5t132.5 -347.5q0 -235 -159 -380t-419 -145q-248 0 -404 130t-160 329z" />
<glyph unicode="6" horiz-adv-x="1451" d="M123 716q0 355 168 560.5t458 205.5q218 0 373.5 -115.5t184.5 -297.5h-359q-17 59 -71.5 94.5t-128.5 35.5q-133 0 -210.5 -125.5t-67.5 -325.5h19q48 101 142 155.5t219 54.5q205 0 340 -135.5t135 -341.5q0 -228 -162 -373.5t-415 -145.5q-154 0 -276.5 60t-200.5 174 q-148 195 -148 520zM518 472q0 -96 65.5 -162t161.5 -66t162 65.5t66 160.5q0 96 -65.5 160.5t-162.5 64.5t-162 -64t-65 -159z" />
<glyph unicode="7" horiz-adv-x="1277" d="M96 1161v283h1074v-284l-583 -1160h-384l599 1142v19h-706z" />
<glyph unicode="8" horiz-adv-x="1481" d="M124 385q0 133 89.5 233.5t238.5 135.5v19q-122 26 -196 111.5t-74 199.5q0 173 157 285.5t401 112.5t401 -112.5t157 -285.5q0 -114 -74 -199.5t-196 -111.5v-19q148 -27 238.5 -127.5t90.5 -238.5q0 -191 -170.5 -309t-447.5 -118q-276 0 -445.5 117t-169.5 307z M508 419q0 -89 64.5 -144.5t167.5 -55.5t167 55.5t64 144.5t-64.5 145t-166.5 56q-103 0 -167.5 -56t-64.5 -145zM543 1050q0 -78 56 -129t141 -51t140.5 51t55.5 129t-55.5 129.5t-140.5 51.5q-86 0 -141.5 -51.5t-55.5 -129.5z" />
<glyph unicode="9" horiz-adv-x="1451" d="M126 962q0 228 162 374t415 146q153 0 275 -60t202 -174q148 -198 148 -521q0 -355 -168 -560t-459 -205q-143 0 -263.5 52t-197.5 146t-96 215h359q17 -60 71.5 -95.5t128.5 -35.5q133 0 210.5 125.5t67.5 325.5h-10h-9q-49 -101 -142.5 -155t-218.5 -54 q-205 0 -340 135.5t-135 340.5zM478 973q0 -96 65 -160t163 -64q97 0 162 64t65 159q0 96 -65.5 161.5t-161.5 65.5t-162 -65.5t-66 -160.5z" />
<glyph unicode=":" horiz-adv-x="767" d="M182 157q0 86 54 138.5t147 52.5q94 0 148 -52.5t54 -138.5q0 -85 -54 -137.5t-148 -52.5q-93 0 -147 52.5t-54 137.5zM182 883q0 85 54 137.5t147 52.5q94 0 148 -52.5t54 -137.5t-54 -137.5t-148 -52.5q-93 0 -147 52.5t-54 137.5z" />
<glyph unicode=";" horiz-adv-x="767" d="M124 -400l97 646h336l-189 -646h-244zM182 883q0 85 54 137.5t147 52.5q94 0 148 -52.5t54 -137.5t-54 -137.5t-148 -52.5q-93 0 -147 52.5t-54 137.5z" />
<glyph unicode="&#x3c;" horiz-adv-x="1461" d="M235 454v271l991 490v-345l-630 -271v-19l630 -271v-345z" />
<glyph unicode="=" horiz-adv-x="1461" d="M177 178v302h1107v-302h-1107zM177 692v302h1107v-302h-1107z" />
<glyph unicode="&#x3e;" horiz-adv-x="1461" d="M235 -36v345l630 271v19l-630 271v345l991 -490v-271z" />
<glyph unicode="?" horiz-adv-x="1189" d="M76 1023q2 198 138.5 315.5t374.5 117.5q227 0 364.5 -110t137.5 -290q0 -110 -52.5 -190.5t-163.5 -144.5q-103 -60 -139 -104t-36 -114v-47h-312l-3 40q-14 127 25 203.5t145 137.5q102 60 136.5 102t34.5 108q0 61 -44.5 99t-115.5 38q-72 0 -117.5 -44t-47.5 -117 h-325zM348 147q0 87 54 135t151 48t150.5 -48t53.5 -135q0 -86 -53.5 -134t-150.5 -48t-151 48t-54 134z" />
<glyph unicode="@" horiz-adv-x="1908" d="M118 622q0 244 108 434t303 295t445 105q238 0 422.5 -93.5t285.5 -263t101 -389.5q0 -236 -107.5 -373t-294.5 -137q-97 0 -162.5 40t-85.5 111h-19q-62 -152 -234 -152q-156 0 -251 116t-95 306q0 182 91.5 294.5t239.5 112.5q81 0 142 -37t91 -105h19v118h230v-508 q0 -53 22.5 -83t63.5 -30q66 0 105 82t39 221q0 271 -164.5 432.5t-441.5 161.5q-288 0 -467.5 -184t-179.5 -479q0 -299 185 -473t503 -174q148 0 239 28v-178q-114 -30 -261 -30q-259 0 -457 103.5t-306.5 292.5t-108.5 436zM797 614q0 -98 38.5 -153t106.5 -55 q69 0 108.5 55.5t39.5 152.5t-40 152.5t-108 55.5t-106.5 -55t-38.5 -153z" />
<glyph unicode="A" horiz-adv-x="1563" d="M73 0l484 1443h449l485 -1443h-400l-90 317h-471l-93 -317h-364zM600 581h332l-155 537h-19z" />
<glyph unicode="B" horiz-adv-x="1459" d="M170 0v1443h673q215 0 336.5 -96t121.5 -264q0 -116 -77 -203.5t-192 -103.5v-19q142 -8 238.5 -105.5t96.5 -235.5q0 -190 -136.5 -303t-367.5 -113h-693zM537 259h222q114 0 174.5 48.5t60.5 140.5q0 89 -61.5 136.5t-175.5 47.5h-220v-373zM537 855h194 q100 0 156 43.5t56 120.5t-52.5 121t-145.5 44h-208v-329z" />
<glyph unicode="C" horiz-adv-x="1545" d="M102 722q0 353 186.5 556.5t511.5 203.5q179 0 325.5 -73.5t232.5 -204t91 -291.5h-353q-14 118 -96 190.5t-200 72.5q-151 0 -237.5 -121t-86.5 -332q0 -212 87 -334t238 -122q119 0 200 70.5t97 186.5h352q-9 -248 -191 -405.5t-459 -157.5q-324 0 -511 204t-187 557z " />
<glyph unicode="D" horiz-adv-x="1553" d="M170 0v1444h606q322 0 498.5 -185t176.5 -523q0 -355 -174.5 -545.5t-500.5 -190.5h-606zM537 295h173q179 0 273 110t94 324q0 201 -96.5 310.5t-270.5 109.5h-173v-854z" />
<glyph unicode="E" horiz-adv-x="1302" d="M170 0v1443h989v-295h-622v-288h585v-270h-585v-295h622v-295h-989z" />
<glyph unicode="F" horiz-adv-x="1251" d="M170 0v1443h982v-295h-615v-329h558v-281h-558v-538h-367z" />
<glyph unicode="G" horiz-adv-x="1572" d="M102 723q0 352 188 555.5t513 203.5q264 0 443.5 -140.5t206.5 -369.5h-362q-27 95 -103.5 149.5t-184.5 54.5q-154 0 -240.5 -119t-86.5 -330q0 -213 93.5 -336.5t251.5 -123.5q125 0 205 67t87 177l1 24h-264v252h618v-186q0 -298 -174.5 -469t-480.5 -171 q-333 0 -522 203t-189 559z" />
<glyph unicode="H" horiz-adv-x="1648" d="M170 0v1443h367v-566h575v566h366v-1443h-366v582h-575v-582h-367z" />
<glyph unicode="I" horiz-adv-x="707" d="M170 0v1443h367v-1443h-367z" />
<glyph unicode="J" horiz-adv-x="1299" d="M70 458h352q1 -85 48 -135.5t126 -50.5q81 0 123.5 50t42.5 146v975h367v-978q0 -241 -139.5 -372.5t-387.5 -131.5q-244 0 -388 133.5t-144 363.5z" />
<glyph unicode="K" horiz-adv-x="1507" d="M170 0v1443h367v-620h19l480 620h394l-499 -637l528 -806h-431l-364 569l-127 -161v-408h-367z" />
<glyph unicode="L" horiz-adv-x="1247" d="M170 0v1443h367v-1140h613v-303h-980z" />
<glyph unicode="M" horiz-adv-x="1924" d="M170 0v1443h433l350 -882h19l349 882h433v-1443h-339v911h-18l-321 -800h-227l-322 800h-18v-911h-339z" />
<glyph unicode="N" horiz-adv-x="1601" d="M170 0v1443h293l601 -812h19v812h348v-1443h-291l-603 820h-19v-820h-348z" />
<glyph unicode="O" d="M102 722q0 351 193 555.5t519 204.5t518 -204.5t192 -555.5q0 -352 -192 -556.5t-518 -204.5q-328 0 -520 204.5t-192 556.5zM476 722q0 -209 92 -333t246 -124q153 0 245 124t92 333q0 208 -92.5 332t-244.5 124q-153 0 -245.5 -124t-92.5 -332z" />
<glyph unicode="P" horiz-adv-x="1421" d="M170 0v1443h632q233 0 376.5 -140t143.5 -372q0 -229 -150 -368.5t-392 -139.5h-243v-423h-367zM537 700h166q118 0 183 59t65 171q0 113 -64 172t-182 59h-168v-461z" />
<glyph unicode="Q" d="M102 722q0 351 193 555.5t519 204.5t518 -204.5t192 -555.5q0 -185 -54.5 -331.5t-156.5 -243.5l177 -279h-341l-85 130q-117 -37 -250 -37q-328 0 -520 204t-192 557zM476 722q0 -209 92.5 -332.5t245.5 -123.5q40 0 78 9l-150 232h312l33 -44q64 98 64 259 q0 208 -92.5 331.5t-244.5 123.5q-153 0 -245.5 -123.5t-92.5 -331.5z" />
<glyph unicode="R" horiz-adv-x="1466" d="M170 0v1443h635q253 0 396 -126.5t143 -349.5q0 -136 -65 -246.5t-181 -161.5l288 -559h-412l-247 505h-190v-505h-367zM537 764h217q101 0 158 53t57 147q0 92 -59 147t-157 55h-216v-402z" />
<glyph unicode="S" horiz-adv-x="1423" d="M107 411h350q7 -79 79.5 -125.5t186.5 -46.5q103 0 167 45t64 116q0 60 -52 95.5t-176 60.5l-190 38q-198 37 -299 144t-101 277q0 212 156.5 339.5t417.5 127.5q253 0 413 -125t165 -325h-339q-6 76 -71.5 124.5t-162.5 48.5t-155.5 -42.5t-58.5 -114.5q0 -59 51 -96 t165 -59l186 -36q214 -41 313.5 -141t99.5 -272q0 -226 -162 -354.5t-446 -128.5q-274 0 -435.5 121t-165.5 329z" />
<glyph unicode="T" horiz-adv-x="1381" d="M91 1148v295h1199v-295h-417v-1148h-366v1148h-416z" />
<glyph unicode="U" horiz-adv-x="1585" d="M171 498v945h367v-906q0 -126 66.5 -196.5t188.5 -70.5t188 70t66 197v906h367v-945q0 -243 -170 -390t-451 -147t-451.5 147t-170.5 390z" />
<glyph unicode="V" horiz-adv-x="1528" d="M73 1443h421l277 -1062h19l269 1062h396l-453 -1443h-464z" />
<glyph unicode="W" horiz-adv-x="2112" d="M86 1443h381l192 -957h18l231 957h294l239 -957h18l189 957h378l-377 -1443h-344l-241 884h-18l-237 -884h-346z" />
<glyph unicode="X" horiz-adv-x="1549" d="M87 0l443 728l-442 715h428l259 -478h19l261 478h408l-461 -719l457 -724h-413l-274 457h-19l-276 -457h-390z" />
<glyph unicode="Y" horiz-adv-x="1507" d="M73 1443h391l281 -589h19l279 589h391l-497 -947v-496h-366v496z" />
<glyph unicode="Z" horiz-adv-x="1399" d="M130 0v233l677 896v19h-666v295h1106v-233l-677 -896v-19h698v-295h-1138z" />
<glyph unicode="[" horiz-adv-x="929" d="M243 -312v1842h617v-256h-277v-1329h277v-257h-617z" />
<glyph unicode="\" horiz-adv-x="852" d="M0 1530h341l511 -1842h-342z" />
<glyph unicode="]" horiz-adv-x="929" d="M69 -55h277v1329h-277v256h617v-1842h-617v257z" />
<glyph unicode="^" horiz-adv-x="1109" d="M76 769l331 635h295l332 -635h-307l-163 375h-19l-163 -375h-306z" />
<glyph unicode="_" horiz-adv-x="960" d="M2 -107h956v-266h-956v266z" />
<glyph unicode="`" horiz-adv-x="1101" d="M248 1647h356l245 -359h-309z" />
<glyph unicode="a" horiz-adv-x="1248" d="M81 320q0 152 114.5 238.5t330.5 99.5l243 14v87q0 57 -40.5 88.5t-113.5 31.5q-141 0 -176 -90h-318q12 162 150 256t364 94q230 0 356 -100t126 -280v-759h-344v138h-19q-37 -71 -122 -113t-191 -42q-161 0 -260.5 92.5t-99.5 244.5zM422 345q0 -53 40.5 -84t107.5 -31 q84 0 141.5 49t57.5 121v73l-187 -12q-78 -6 -119 -36t-41 -80z" />
<glyph unicode="b" horiz-adv-x="1374" d="M148 0v1530h353v-596h19q41 93 126.5 144.5t200.5 51.5q211 0 327.5 -150.5t116.5 -422.5q0 -271 -117.5 -422.5t-326.5 -151.5q-119 0 -207.5 50.5t-128.5 140.5h-19v-174h-344zM499 556q1 -137 58.5 -216t157.5 -79q99 0 156 79.5t57 216.5q0 136 -57.5 215.5 t-155.5 79.5q-99 0 -157 -79.5t-59 -216.5z" />
<glyph unicode="c" horiz-adv-x="1233" d="M83 558q0 284 144 432.5t419 148.5q228 0 361.5 -116t150.5 -322h-325q-11 79 -59 122.5t-128 43.5q-208 0 -208 -309q0 -312 208 -312q163 0 187 158h325q-16 -201 -151.5 -315.5t-360.5 -114.5q-275 0 -419 149.5t-144 434.5z" />
<glyph unicode="d" horiz-adv-x="1374" d="M83 559q0 266 119.5 418.5t327.5 152.5q112 0 197.5 -52t126.5 -144h19v596h354v-1530h-345v174h-19q-41 -90 -129 -140.5t-204 -50.5q-209 0 -328 153.5t-119 422.5zM446 557q0 -139 56.5 -217.5t157.5 -78.5t158 78.5t57 216.5t-57.5 217t-157.5 79t-157 -78.5 t-57 -216.5z" />
<glyph unicode="e" horiz-adv-x="1262" d="M83 549q0 275 147.5 432.5t406.5 157.5q257 0 400 -148.5t143 -414.5v-98h-749v-18q2 -109 61 -172t160 -63q77 0 128.5 27t69.5 76h323q-29 -163 -172 -258.5t-359 -95.5q-266 0 -412.5 150.5t-146.5 424.5zM433 681h404q-4 97 -56.5 152t-141.5 55q-87 0 -143 -56.5 t-63 -150.5z" />
<glyph unicode="f" horiz-adv-x="885" d="M51 835v263h178v108q0 170 96.5 252.5t315.5 82.5q97 0 168 -11v-233q-34 6 -90 6q-79 0 -112.5 -30t-33.5 -95v-80h227v-263h-218v-835h-353v835h-178z" />
<glyph unicode="g" horiz-adv-x="1360" d="M79 563q0 263 120.5 415t330.5 152q111 0 199 -52.5t130 -143.5h19v179h345v-1100q0 -199 -156 -315.5t-422 -116.5q-232 0 -377 91.5t-156 241.5h344q10 -45 63 -71.5t136 -26.5q102 0 158 45.5t56 128.5v201h-19q-87 -175 -328 -175q-204 0 -323.5 147.5t-119.5 399.5z M442 564q0 -134 56 -211t157 -77q102 0 159 76.5t57 210.5q0 135 -57.5 212t-158.5 77q-100 0 -156.5 -77t-56.5 -211z" />
<glyph unicode="h" horiz-adv-x="1355" d="M148 0v1530h346v-602h19q37 96 125 151t208 55q182 0 281.5 -108.5t99.5 -310.5v-715h-353v635q0 103 -46 157t-134 54q-90 0 -141.5 -59t-51.5 -156v-631h-353z" />
<glyph unicode="i" horiz-adv-x="631" d="M116 1399q0 72 53.5 115t145.5 43q93 0 146.5 -43t53.5 -115q0 -71 -53.5 -114t-146.5 -43q-92 0 -145.5 43t-53.5 114zM138 0v1113h354v-1113h-354z" />
<glyph unicode="j" horiz-adv-x="631" d="M-33 -120q18 -2 42 -2q69 0 99 25.5t30 82.5v1127h354v-1140q0 -170 -109 -260.5t-313 -90.5q-55 0 -103 5v253zM116 1399q0 72 53.5 115t145.5 43q93 0 146.5 -43t53.5 -115q0 -71 -53.5 -114t-146.5 -43q-92 0 -145.5 43t-53.5 114z" />
<glyph unicode="k" horiz-adv-x="1295" d="M148 0v1530h353v-833h19l316 416h396l-397 -478l424 -635h-412l-278 426l-68 -77v-349h-353z" />
<glyph unicode="l" horiz-adv-x="649" d="M148 0v1530h353v-1530h-353z" />
<glyph unicode="m" horiz-adv-x="1960" d="M138 0v1113h344v-184h19q32 97 115 153.5t192 56.5q119 0 198 -54.5t111 -155.5h19q35 95 125.5 152.5t207.5 57.5q164 0 263.5 -103.5t99.5 -274.5v-761h-353v671q0 179 -161 179q-75 0 -119.5 -50t-44.5 -132v-668h-338v677q0 84 -41 128.5t-118 44.5q-74 0 -120 -52 t-46 -136v-662h-353z" />
<glyph unicode="n" horiz-adv-x="1332" d="M138 0v1113h344v-181h19q37 96 122 151.5t204 55.5q184 0 280.5 -109t96.5 -311v-719h-354v640q0 210 -175 210q-85 0 -134.5 -58.5t-49.5 -155.5v-636h-353z" />
<glyph unicode="o" horiz-adv-x="1300" d="M83 557q0 270 152 426t415 156q264 0 415.5 -155.5t151.5 -426.5q0 -275 -149.5 -429t-417.5 -154q-267 0 -417 154t-150 429zM446 557q0 -149 53.5 -231t150.5 -82t150.5 82t53.5 231q0 146 -54 229t-150 83t-150 -83t-54 -229z" />
<glyph unicode="p" horiz-adv-x="1364" d="M138 -368v1481h344v-181h19q41 93 129 145.5t203 52.5q211 0 329.5 -150.5t118.5 -422.5t-116 -423t-324 -151q-120 0 -206 49.5t-125 138.5h-19v-539h-353zM489 556q0 -139 57 -217t158 -78t157.5 78.5t56.5 217.5q0 138 -57 216.5t-157 78.5t-157.5 -79t-57.5 -217z " />
<glyph unicode="q" horiz-adv-x="1364" d="M83 559q0 266 120.5 418.5t330.5 152.5q112 0 199.5 -53.5t129.5 -144.5h19v181h345v-1481h-355v539h-19q-41 -89 -126 -138.5t-202 -49.5q-208 0 -325 153.5t-117 422.5zM446 557q0 -139 56.5 -217.5t156.5 -78.5q101 0 158.5 78.5t57.5 216.5q0 137 -58 216.5 t-158 79.5t-156.5 -79t-56.5 -216z" />
<glyph unicode="r" horiz-adv-x="950" d="M138 0v1113h344v-183h19q21 86 96.5 143t177.5 57q88 0 128 -17v-301q-49 20 -152 20q-119 0 -189.5 -64t-70.5 -179v-589h-353z" />
<glyph unicode="s" horiz-adv-x="1206" d="M86 319h341q28 -106 185 -106q73 0 116.5 27t43.5 72q0 35 -27.5 56t-94.5 35l-207 44q-330 70 -330 331q0 166 132 263.5t357 97.5q231 0 355.5 -87.5t134.5 -255.5h-322q-8 49 -51 76.5t-114 27.5q-69 0 -112.5 -27.5t-43.5 -72.5q0 -35 30.5 -57.5t97.5 -36.5l230 -47 q165 -35 239.5 -107.5t74.5 -198.5q0 -173 -140 -276t-374 -103q-239 0 -372.5 88.5t-148.5 256.5z" />
<glyph unicode="t" horiz-adv-x="898" d="M55 835v263h171v270h353v-270h224v-263h-224v-451q0 -125 135 -125q46 0 89 5v-252q-65 -14 -169 -14q-219 0 -313.5 71.5t-94.5 235.5v530h-171z" />
<glyph unicode="u" horiz-adv-x="1340" d="M128 386v727h353v-640q0 -101 47.5 -154.5t133.5 -53.5q89 0 137.5 56.5t48.5 155.5v636h354v-1113h-344v180h-19q-82 -206 -316 -206q-179 0 -287 110.5t-108 301.5z" />
<glyph unicode="v" horiz-adv-x="1238" d="M42 1113h381l193 -796h19l189 796h372l-371 -1113h-408z" />
<glyph unicode="w" horiz-adv-x="1814" d="M57 1113h358l139 -763h19l168 763h337l170 -763h19l139 763h350l-288 -1113h-381l-174 733h-19l-172 -733h-375z" />
<glyph unicode="x" horiz-adv-x="1250" d="M58 1113h403l163 -347h19l165 347h383l-337 -551l338 -562h-387l-179 341h-19l-178 -341h-369l333 547z" />
<glyph unicode="y" horiz-adv-x="1282" d="M50 1113h391l199 -816h19l199 816h374l-358 -1111q-71 -222 -203.5 -314.5t-372.5 -92.5q-124 0 -129 1v269q10 -2 62 -2q176 0 194 97l5 31z" />
<glyph unicode="z" horiz-adv-x="1190" d="M112 0v189l524 639v19h-512v266h936v-217l-477 -611v-19h495v-266h-966z" />
<glyph unicode="{" horiz-adv-x="929" d="M69 451v324q131 2 188 48t57 151v168q0 207 107.5 297.5t354.5 90.5h84v-250h-46q-89 0 -125 -40t-36 -138v-214q0 -109 -74 -175.5t-211 -81.5v-36q137 -15 211 -81.5t74 -175.5v-222q0 -98 36 -138t125 -40h46v-250h-84q-246 0 -354 93t-108 303v168q0 105 -57 151 t-188 48z" />
<glyph unicode="|" horiz-adv-x="852" d="M256 -312v1842h340v-1842h-340z" />
<glyph unicode="}" horiz-adv-x="929" d="M69 -62h46q89 0 125 40t36 138v222q0 109 74 175.5t211 81.5v36q-137 15 -211 81.5t-74 175.5v214q0 98 -36 138t-125 40h-46v250h84q247 0 354.5 -90.5t107.5 -297.5v-168q0 -105 57 -151.5t188 -47.5v-324q-132 -2 -188.5 -48t-56.5 -151v-168q0 -210 -108 -303 t-354 -93h-84v250z" />
<glyph unicode="~" horiz-adv-x="1236" d="M74 512q0 233 78.5 349.5t250.5 116.5q70 0 130 -29.5t137 -103.5q72 -71 122 -71q104 0 107 178h264q0 -242 -77 -354t-249 -112q-72 0 -132.5 29.5t-134.5 101.5q-41 41 -68 57t-57 16q-106 0 -107 -178h-264z" />
<glyph unicode="&#xa2;" horiz-adv-x="1461" d="M156 691q0 223 120.5 372.5t322.5 191.5v196h279v-191q177 -32 291.5 -146t128.5 -281h-324q-17 74 -76.5 120t-139.5 46q-108 0 -177.5 -82.5t-69.5 -225.5q0 -146 69.5 -229t176.5 -83q86 0 143.5 42t73.5 115h324q-14 -168 -127.5 -278t-292.5 -141v-189h-279v195 q-203 42 -323 191.5t-120 376.5z" />
<glyph unicode="&#xa3;" horiz-adv-x="1461" d="M148 0v274q135 15 217 101t82 213q0 12 -2 36h-291v240h218q-57 141 -57 234q0 183 151.5 283.5t427.5 100.5q92 0 192.5 -14.5t153.5 -35.5v-276q-54 22 -135.5 36t-156.5 14q-129 0 -198.5 -46.5t-69.5 -130.5q0 -65 37 -165h385v-240h-315v-11q0 -95 -44 -178 t-115 -117v-20h676v-298h-1156z" />
<glyph unicode="&#xa5;" horiz-adv-x="1461" d="M50 1443h391l281 -589h19l279 589h391l-410 -777h181v-182h-268v-120h268v-182h-268v-182h-367v182h-268v182h268v120h-268v182h181z" />
<glyph unicode="&#xa8;" horiz-adv-x="1220" d="M186 1432q0 72 48.5 118t124.5 46t124.5 -46t48.5 -118t-48.5 -118t-124.5 -46t-124.5 46t-48.5 118zM688 1432q0 72 48.5 118t124.5 46t125 -46t49 -118t-49 -118t-125 -46t-124.5 46t-48.5 118z" />
<glyph unicode="&#xa9;" horiz-adv-x="1742" d="M85 663q0 160 62 305.5t167.5 251t251 167.5t305.5 62t305.5 -62t251 -167.5t167.5 -251t62 -305.5q0 -161 -62 -306.5t-167.5 -251t-251 -167.5t-305.5 -62t-305.5 62t-251 167.5t-167.5 251t-62 306.5zM261 663q0 -167 81.5 -307.5t222 -222t306.5 -81.5q125 0 238 48 t194.5 130t129.5 195t48 238t-48 238t-129.5 194.5t-194.5 129.5t-238 48t-238 -48t-194.5 -129.5t-129.5 -194.5t-48 -238zM511 664q0 178 100.5 281.5t272.5 103.5q147 0 241.5 -79.5t106.5 -213.5h-214q-8 53 -43 83.5t-87 30.5q-68 0 -106.5 -54.5t-38.5 -151.5 q0 -100 38 -154t107 -54q54 0 88 28t42 79h214q-12 -133 -104.5 -209.5t-241.5 -76.5q-175 0 -275 103.5t-100 283.5z" />
<glyph unicode="&#xab;" horiz-adv-x="1476" d="M146 562v8l349 409h306l-345 -408v-8l345 -410h-313zM675 562v8l348 409h307l-345 -408v-8l345 -410h-314z" />
<glyph unicode="&#xad;" horiz-adv-x="1006" d="M174 425v316h658v-316h-658z" />
<glyph unicode="&#xae;" horiz-adv-x="1260" d="M96 968q0 145 71.5 268t194.5 194.5t268 71.5t268 -71.5t194.5 -194.5t71.5 -268t-71.5 -268t-194.5 -194.5t-268 -71.5t-268 71.5t-194.5 194.5t-71.5 268zM244 968q0 -160 113 -273t273 -113t273 113t113 273t-113 273t-273 113t-273 -113t-113 -273zM416 733v482h260 q83 0 133.5 -43.5t50.5 -113.5q0 -53 -26.5 -92.5t-70.5 -54.5l121 -178h-164l-102 158h-63v-158h-139zM555 992h86q71 0 71 56q0 58 -69 58h-88v-114z" />
<glyph unicode="&#xb4;" horiz-adv-x="1101" d="M246 1288l245 359h356l-292 -359h-309z" />
<glyph unicode="&#xb8;" horiz-adv-x="1101" d="M370 -330q40 -14 113 -14q108 0 108 53q0 28 -28.5 40.5t-91.5 12.5h-61v128l61 139h182v-29l-42 -99q91 -7 138.5 -53.5t47.5 -128.5q0 -101 -72.5 -156t-206.5 -55q-92 0 -148 18v144z" />
<glyph unicode="&#xbb;" horiz-adv-x="1476" d="M146 153l345 410v8l-345 408h307l348 -409v-8l-341 -409h-314zM675 153l345 410v8l-345 408h306l349 -409v-8l-342 -409h-313z" />
<glyph unicode="&#xc2;" horiz-adv-x="1563" d="M73 0l484 1443h449l485 -1443h-400l-90 317h-471l-93 -317h-364zM342 1596l275 350h330l275 -350h-298l-132 190h-20l-132 -190h-298zM600 581h332l-155 537h-19z" />
<glyph unicode="&#xc7;" horiz-adv-x="1545" d="M102 722q0 353 186.5 556.5t511.5 203.5q179 0 325.5 -73.5t232.5 -204t91 -291.5h-353q-14 118 -96 190.5t-200 72.5q-151 0 -237.5 -121t-86.5 -332q0 -212 87 -334t238 -122q119 0 200 70.5t97 186.5h352q-8 -226 -162.5 -379t-396.5 -179l-27 -64q91 -7 138.5 -53.5 t47.5 -128.5q0 -101 -72.5 -156t-206.5 -55q-92 0 -148 18v144q40 -14 113 -14q108 0 108 53q0 28 -28.5 40.5t-91.5 12.5h-61v128l33 76q-278 32 -436 232t-158 523z" />
<glyph unicode="&#xce;" horiz-adv-x="707" d="M-87 1596l275 350h330l275 -350h-298l-132 190h-20l-132 -190h-298zM170 0v1443h367v-1443h-367z" />
<glyph unicode="&#xd6;" d="M102 722q0 351 193 555.5t519 204.5t518 -204.5t192 -555.5q0 -352 -192 -556.5t-518 -204.5q-328 0 -520 204.5t-192 556.5zM390 1745q0 72 48.5 118t124.5 46t124.5 -46t48.5 -118t-48.5 -118t-124.5 -46t-124.5 46t-48.5 118zM476 722q0 -209 92 -333t246 -124 q153 0 245 124t92 333q0 208 -92.5 332t-244.5 124q-153 0 -245.5 -124t-92.5 -332zM892 1745q0 72 48.5 118t124.5 46t125 -46t49 -118t-49 -118t-125 -46t-124.5 46t-48.5 118z" />
<glyph unicode="&#xdb;" horiz-adv-x="1586" d="M171 498v945h367v-906q0 -126 66.5 -196.5t188.5 -70.5t188 70t66 197v906h367v-945q0 -243 -170 -390t-451 -147t-451.5 147t-170.5 390zM353 1596l275 350h330l275 -350h-298l-132 190h-20l-132 -190h-298z" />
<glyph unicode="&#xdc;" horiz-adv-x="1586" d="M171 498v945h367v-906q0 -126 66.5 -196.5t188.5 -70.5t188 70t66 197v906h367v-945q0 -243 -170 -390t-451 -147t-451.5 147t-170.5 390zM369 1745q0 72 48.5 118t124.5 46t124.5 -46t48.5 -118t-48.5 -118t-124.5 -46t-124.5 46t-48.5 118zM871 1745q0 72 48.5 118 t124.5 46t125 -46t49 -118t-49 -118t-125 -46t-124.5 46t-48.5 118z" />
<glyph unicode="&#xe2;" horiz-adv-x="1248" d="M81 320q0 152 114.5 238.5t330.5 99.5l243 14v87q0 57 -40.5 88.5t-113.5 31.5q-141 0 -176 -90h-318q12 162 150 256t364 94q230 0 356 -100t126 -280v-759h-344v138h-19q-37 -71 -122 -113t-191 -42q-161 0 -260.5 92.5t-99.5 244.5zM196 1260l271 359h338l271 -359 h-297l-134 202h-19l-133 -202h-297zM422 345q0 -53 40.5 -84t107.5 -31q84 0 141.5 49t57.5 121v73l-187 -12q-78 -6 -119 -36t-41 -80z" />
<glyph unicode="&#xe7;" horiz-adv-x="1233" d="M83 558q0 284 144 432.5t419 148.5q228 0 361.5 -116t150.5 -322h-325q-11 79 -59 122.5t-128 43.5q-208 0 -208 -309q0 -312 208 -312q163 0 187 158h325q-14 -177 -123 -288.5t-292 -135.5l-33 -78q91 -7 138.5 -53.5t47.5 -128.5q0 -101 -72.5 -156t-206.5 -55 q-92 0 -148 18v144q40 -14 113 -14q108 0 108 53q0 28 -28.5 40.5t-91.5 12.5h-61v128l39 88q-228 26 -346.5 173.5t-118.5 405.5z" />
<glyph unicode="&#xee;" horiz-adv-x="631" d="M-125 1260l271 359h338l271 -359h-297l-134 202h-19l-133 -202h-297zM138 0v1113h354v-1113h-354z" />
<glyph unicode="&#xf6;" horiz-adv-x="1300" d="M83 557q0 270 152 426t415 156q264 0 415.5 -155.5t151.5 -426.5q0 -275 -149.5 -429t-417.5 -154q-267 0 -417 154t-150 429zM226 1424q0 72 48.5 118t124.5 46t124.5 -46t48.5 -118t-48.5 -118t-124.5 -46t-124.5 46t-48.5 118zM446 557q0 -149 53.5 -231t150.5 -82 t150.5 82t53.5 231q0 146 -54 229t-150 83t-150 -83t-54 -229zM728 1424q0 72 48.5 118t124.5 46t125 -46t49 -118t-49 -118t-125 -46t-124.5 46t-48.5 118z" />
<glyph unicode="&#xfb;" horiz-adv-x="1340" d="M128 386v727h353v-640q0 -101 47.5 -154.5t133.5 -53.5q89 0 137.5 56.5t48.5 155.5v636h354v-1113h-344v180h-19q-82 -206 -316 -206q-179 0 -287 110.5t-108 301.5zM225 1260l271 359h338l271 -359h-297l-134 202h-19l-133 -202h-297z" />
<glyph unicode="&#xfc;" horiz-adv-x="1340" d="M128 386v727h353v-640q0 -101 47.5 -154.5t133.5 -53.5q89 0 137.5 56.5t48.5 155.5v636h354v-1113h-344v180h-19q-82 -206 -316 -206q-179 0 -287 110.5t-108 301.5zM241 1424q0 72 48.5 118t124.5 46t124.5 -46t48.5 -118t-48.5 -118t-124.5 -46t-124.5 46t-48.5 118z M743 1424q0 72 48.5 118t124.5 46t125 -46t49 -118t-49 -118t-125 -46t-124.5 46t-48.5 118z" />
<glyph unicode="&#x100;" horiz-adv-x="1563" d="M73 0l484 1443h449l485 -1443h-400l-90 317h-471l-93 -317h-364zM391 1637v198h782v-198h-782zM600 581h332l-155 537h-19z" />
<glyph unicode="&#x101;" horiz-adv-x="1248" d="M81 320q0 152 114.5 238.5t330.5 99.5l243 14v87q0 57 -40.5 88.5t-113.5 31.5q-141 0 -176 -90h-318q12 162 150 256t364 94q230 0 356 -100t126 -280v-759h-344v138h-19q-37 -71 -122 -113t-191 -42q-161 0 -260.5 92.5t-99.5 244.5zM252 1327v198h768v-198h-768z M422 345q0 -53 40.5 -84t107.5 -31q84 0 141.5 49t57.5 121v73l-187 -12q-78 -6 -119 -36t-41 -80z" />
<glyph unicode="&#x102;" horiz-adv-x="1563" d="M73 0l484 1443h449l485 -1443h-400l-90 317h-471l-93 -317h-364zM364 1932h236q2 -74 51 -117.5t131 -43.5t131 43.5t51 117.5h236q0 -157 -113.5 -254t-304.5 -97t-304.5 97t-113.5 254zM600 581h332l-155 537h-19z" />
<glyph unicode="&#x103;" horiz-adv-x="1248" d="M81 320q0 152 114.5 238.5t330.5 99.5l243 14v87q0 57 -40.5 88.5t-113.5 31.5q-141 0 -176 -90h-318q12 162 150 256t364 94q230 0 356 -100t126 -280v-759h-344v138h-19q-37 -71 -122 -113t-191 -42q-161 0 -260.5 92.5t-99.5 244.5zM218 1620h236q2 -78 51 -123.5 t131 -45.5t131 45.5t51 123.5h236q0 -160 -113 -260t-305 -100t-305 100t-113 260zM422 345q0 -53 40.5 -84t107.5 -31q84 0 141.5 49t57.5 121v73l-187 -12q-78 -6 -119 -36t-41 -80z" />
<glyph unicode="&#x104;" horiz-adv-x="1563" d="M73 0l484 1443h449l485 -1443l-71 -6q-82 -12 -150.5 -66t-68.5 -118q0 -44 31.5 -69.5t89.5 -25.5q51 0 71 8v-179q-59 -23 -156 -23q-130 0 -211 65t-81 166q0 68 41.5 132.5t108.5 102.5l-94 330h-471l-93 -317h-364zM600 581h332l-155 537h-19z" />
<glyph unicode="&#x105;" horiz-adv-x="1248" d="M81 320q0 151 114.5 238t330.5 100l243 14v87q0 57 -40.5 88.5t-113.5 31.5q-141 0 -176 -90h-318q12 162 150 256t364 94q229 0 355.5 -99.5t126.5 -280.5v-759l-49 -7q-81 -16 -137.5 -67.5t-56.5 -115.5q0 -43 31 -69t91 -26q50 0 70 8v-179q-57 -23 -156 -23 q-129 0 -210 64.5t-81 166.5q0 70 43 135t111 101v150h-19q-37 -71 -122 -113t-191 -42q-162 0 -261 92.5t-99 244.5zM422 345q0 -52 40 -83.5t108 -31.5q84 0 141.5 49t57.5 121v73l-187 -12q-160 -12 -160 -116z" />
<glyph unicode="&#x106;" horiz-adv-x="1545" d="M102 722q0 353 186.5 556.5t511.5 203.5q179 0 325.5 -73.5t232.5 -204t91 -291.5h-353q-14 118 -96 190.5t-200 72.5q-151 0 -237.5 -121t-86.5 -332q0 -212 87 -334t238 -122q119 0 200 70.5t97 186.5h352q-9 -248 -191 -405.5t-459 -157.5q-324 0 -511 204t-187 557z M641 1597l258 326h362l-304 -326h-316z" />
<glyph unicode="&#x107;" horiz-adv-x="1233" d="M83 558q0 284 144 432.5t419 148.5q228 0 361.5 -116t150.5 -322h-325q-11 79 -59 122.5t-128 43.5q-208 0 -208 -309q0 -312 208 -312q163 0 187 158h325q-16 -201 -151.5 -315.5t-360.5 -114.5q-275 0 -419 149.5t-144 434.5zM469 1288l245 359h356l-292 -359h-309z " />
<glyph unicode="&#x108;" horiz-adv-x="1545" d="M102 722q0 353 186.5 556.5t511.5 203.5q179 0 325.5 -73.5t232.5 -204t91 -291.5h-353q-14 118 -96 190.5t-200 72.5q-151 0 -237.5 -121t-86.5 -332q0 -212 87 -334t238 -122q119 0 200 70.5t97 186.5h352q-9 -248 -191 -405.5t-459 -157.5q-324 0 -511 204t-187 557z M360 1597l275 350h330l275 -350h-298l-132 190h-20l-132 -190h-298z" />
<glyph unicode="&#x109;" horiz-adv-x="1233" d="M83 558q0 284 144 432.5t419 148.5q228 0 361.5 -116t150.5 -322h-325q-11 79 -59 122.5t-128 43.5q-208 0 -208 -309q0 -312 208 -312q163 0 187 158h325q-16 -201 -151.5 -315.5t-360.5 -114.5q-275 0 -419 149.5t-144 434.5zM205 1260l271 359h338l271 -359h-297 l-134 202h-19l-133 -202h-297z" />
<glyph unicode="&#x10a;" horiz-adv-x="1545" d="M102 722q0 353 186.5 556.5t511.5 203.5q179 0 325.5 -73.5t232.5 -204t91 -291.5h-353q-14 118 -96 190.5t-200 72.5q-151 0 -237.5 -121t-86.5 -332q0 -212 87 -334t238 -122q119 0 200 70.5t97 186.5h352q-9 -248 -191 -405.5t-459 -157.5q-324 0 -511 204t-187 557z M623 1754q0 75 49 123.5t128 48.5q78 0 127 -48.5t49 -123.5t-49 -123.5t-127 -48.5q-79 0 -128 48.5t-49 123.5z" />
<glyph unicode="&#x10b;" horiz-adv-x="1233" d="M83 558q0 284 144 432.5t419 148.5q228 0 361.5 -116t150.5 -322h-325q-11 79 -59 122.5t-128 43.5q-208 0 -208 -309q0 -312 208 -312q163 0 187 158h325q-16 -201 -151.5 -315.5t-360.5 -114.5q-275 0 -419 149.5t-144 434.5zM467 1447q0 76 49.5 125t128.5 49 t128.5 -49t49.5 -125q0 -75 -49.5 -124t-128.5 -49t-128.5 49t-49.5 124z" />
<glyph unicode="&#x10c;" horiz-adv-x="1545" d="M102 722q0 353 186.5 556.5t511.5 203.5q179 0 325.5 -73.5t232.5 -204t91 -291.5h-353q-14 118 -96 190.5t-200 72.5q-151 0 -237.5 -121t-86.5 -332q0 -212 87 -334t238 -122q119 0 200 70.5t97 186.5h352q-9 -248 -191 -405.5t-459 -157.5q-324 0 -511 204t-187 557z M378 1923h280l131 -173h22l131 173h280l-271 -326h-302z" />
<glyph unicode="&#x10d;" horiz-adv-x="1233" d="M83 558q0 284 144 432.5t419 148.5q228 0 361.5 -116t150.5 -322h-325q-11 79 -59 122.5t-128 43.5q-208 0 -208 -309q0 -312 208 -312q163 0 187 158h325q-16 -201 -151.5 -315.5t-360.5 -114.5q-275 0 -419 149.5t-144 434.5zM205 1619h297l133 -202h19l134 202h297 l-271 -359h-338z" />
<glyph unicode="&#x10e;" horiz-adv-x="1553" d="M170 0v1444h606q322 0 498.5 -185t176.5 -523q0 -355 -174.5 -545.5t-500.5 -190.5h-606zM241 1922h280l131 -173h22l131 173h280l-271 -326h-302zM537 295h173q179 0 273 110t94 324q0 201 -96.5 310.5t-270.5 109.5h-173v-854z" />
<glyph unicode="&#x10f;" horiz-adv-x="1613" d="M83 559q0 266 119.5 418.5t327.5 152.5q112 0 197.5 -52t126.5 -144h19v596h354v-1530h-345v174h-19q-41 -90 -129 -140.5t-204 -50.5q-209 0 -328 153.5t-119 422.5zM446 557q0 -139 56.5 -217.5t157.5 -78.5t158 78.5t57 216.5t-57.5 217t-157.5 79t-157 -78.5 t-57 -216.5zM1355 1020v510h293l-50 -510h-243z" />
<glyph unicode="&#x110;" horiz-adv-x="1554" d="M63 600v252h108v592h606q322 0 498.5 -185t176.5 -523q0 -355 -174.5 -545.5t-500.5 -190.5h-606v600h-108zM538 295h173q179 0 273 110t94 324q0 201 -96.5 310.5t-270.5 109.5h-173v-297h215v-252h-215v-305z" />
<glyph unicode="&#x111;" horiz-adv-x="1392" d="M101 559q0 266 119.5 418.5t328.5 152.5q111 0 196.5 -52t126.5 -144h19v312h-219v164h219v120h354v-120h144v-164h-144v-1246h-344v174h-19q-41 -90 -129.5 -140.5t-204.5 -50.5q-208 0 -327.5 153.5t-119.5 422.5zM464 557q0 -139 57 -217.5t157 -78.5 q101 0 158.5 78.5t57.5 216.5q0 137 -58 216.5t-158 79.5t-157 -79t-57 -216z" />
<glyph unicode="&#x112;" horiz-adv-x="1302" d="M170 0v1443h989v-295h-622v-288h585v-270h-585v-295h622v-295h-989zM274 1637v198h782v-198h-782z" />
<glyph unicode="&#x113;" horiz-adv-x="1262" d="M83 549q0 275 147.5 432.5t406.5 157.5q257 0 400 -148.5t143 -414.5v-98h-749v-18q2 -109 61 -172t160 -63q77 0 128.5 27t69.5 76h323q-29 -163 -172 -258.5t-359 -95.5q-266 0 -412.5 150.5t-146.5 424.5zM253 1327v198h768v-198h-768zM433 681h404q-4 97 -56.5 152 t-141.5 55q-87 0 -143 -56.5t-63 -150.5z" />
<glyph unicode="&#x114;" horiz-adv-x="1302" d="M170 0v1443h989v-295h-622v-288h585v-270h-585v-295h622v-295h-989zM247 1932h236q2 -74 51 -117.5t131 -43.5t131 43.5t51 117.5h236q0 -157 -113.5 -254t-304.5 -97t-304.5 97t-113.5 254z" />
<glyph unicode="&#x115;" horiz-adv-x="1262" d="M83 549q0 275 147.5 432.5t406.5 157.5q257 0 400 -148.5t143 -414.5v-98h-749v-18q2 -109 61 -172t160 -63q77 0 128.5 27t69.5 76h323q-29 -163 -172 -258.5t-359 -95.5q-266 0 -412.5 150.5t-146.5 424.5zM219 1620h236q2 -78 51 -123.5t131 -45.5t131 45.5t51 123.5 h236q0 -160 -113 -260t-305 -100t-305 100t-113 260zM433 681h404q-4 97 -56.5 152t-141.5 55q-87 0 -143 -56.5t-63 -150.5z" />
<glyph unicode="&#x116;" horiz-adv-x="1302" d="M170 0v1443h989v-295h-622v-288h585v-270h-585v-295h622v-295h-989zM488 1753q0 75 49 123.5t128 48.5q78 0 127 -48.5t49 -123.5t-49 -123.5t-127 -48.5q-79 0 -128 48.5t-49 123.5z" />
<glyph unicode="&#x117;" horiz-adv-x="1262" d="M83 549q0 275 147.5 432.5t406.5 157.5q257 0 400 -148.5t143 -414.5v-98h-749v-18q2 -109 61 -172t160 -63q77 0 128.5 27t69.5 76h323q-29 -163 -172 -258.5t-359 -95.5q-266 0 -412.5 150.5t-146.5 424.5zM433 681h404q-4 97 -56.5 152t-141.5 55q-87 0 -143 -56.5 t-63 -150.5zM459 1447q0 76 49.5 125t128.5 49t128.5 -49t49.5 -125q0 -75 -49.5 -124t-128.5 -49t-128.5 49t-49.5 124z" />
<glyph unicode="&#x118;" horiz-adv-x="1302" d="M170 0v1443h989v-295h-622v-288h585v-270h-585v-295h622v-292l-48 -10q-73 -16 -134.5 -68t-61.5 -115q0 -44 31.5 -69.5t89.5 -25.5q52 0 70 8v-179q-59 -23 -156 -23q-130 0 -210.5 65t-80.5 166q0 68 39 130.5t103 98.5v19h-631z" />
<glyph unicode="&#x119;" horiz-adv-x="1262" d="M83 549q0 275 147.5 432.5t406.5 157.5q257 0 400 -148.5t143 -414.5v-98h-749v-18q2 -109 61 -172t160 -63q77 0 128.5 27t69.5 76h323q-9 -70 -60 -151.5t-122 -137.5q-153 -122 -153 -221q0 -50 31 -76.5t90 -26.5q51 0 71 8v-179q-59 -23 -156 -23q-130 0 -211 65 t-81 166q0 62 37 119.5t95 88.5v19q-28 -5 -72 -5q-266 0 -412.5 150.5t-146.5 424.5zM433 681h404q-4 97 -56.5 152t-141.5 55q-87 0 -143 -56.5t-63 -150.5z" />
<glyph unicode="&#x11a;" horiz-adv-x="1302" d="M170 0v1443h989v-295h-622v-288h585v-270h-585v-295h622v-295h-989zM243 1922h280l131 -173h22l131 173h280l-271 -326h-302z" />
<glyph unicode="&#x11b;" horiz-adv-x="1262" d="M83 549q0 275 147.5 432.5t406.5 157.5q257 0 400 -148.5t143 -414.5v-98h-749v-18q2 -109 61 -172t160 -63q77 0 128.5 27t69.5 76h323q-29 -163 -172 -258.5t-359 -95.5q-266 0 -412.5 150.5t-146.5 424.5zM197 1619h297l133 -202h19l134 202h297l-271 -359h-338z M433 681h404q-4 97 -56.5 152t-141.5 55q-87 0 -143 -56.5t-63 -150.5z" />
<glyph unicode="&#x11c;" horiz-adv-x="1572" d="M102 723q0 352 188 555.5t513 203.5q264 0 443.5 -140.5t206.5 -369.5h-362q-27 95 -103.5 149.5t-184.5 54.5q-154 0 -240.5 -119t-86.5 -330q0 -213 93.5 -336.5t251.5 -123.5q125 0 205 67t87 177l1 24h-264v252h618v-186q0 -298 -174.5 -469t-480.5 -171 q-333 0 -522 203t-189 559zM363 1598l275 350h330l275 -350h-298l-132 190h-20l-132 -190h-298z" />
<glyph unicode="&#x11d;" horiz-adv-x="1360" d="M79 563q0 263 120.5 415t330.5 152q111 0 199 -52.5t130 -143.5h19v179h345v-1100q0 -199 -156 -315.5t-422 -116.5q-232 0 -377 91.5t-156 241.5h344q10 -45 63 -71.5t136 -26.5q102 0 158 45.5t56 128.5v201h-19q-87 -175 -328 -175q-204 0 -323.5 147.5t-119.5 399.5z M230 1260l271 359h338l271 -359h-297l-134 202h-19l-133 -202h-297zM442 564q0 -134 56 -211t157 -77q102 0 159 76.5t57 210.5q0 135 -57.5 212t-158.5 77q-100 0 -156.5 -77t-56.5 -211z" />
<glyph unicode="&#x11e;" horiz-adv-x="1572" d="M102 723q0 352 188 555.5t513 203.5q264 0 443.5 -140.5t206.5 -369.5h-362q-27 95 -103.5 149.5t-184.5 54.5q-154 0 -240.5 -119t-86.5 -330q0 -213 93.5 -336.5t251.5 -123.5q125 0 205 67t87 177l1 24h-264v252h618v-186q0 -298 -174.5 -469t-480.5 -171 q-333 0 -522 203t-189 559zM385 1934h236q2 -74 51 -117.5t131 -43.5t131 43.5t51 117.5h236q0 -157 -113.5 -254t-304.5 -97t-304.5 97t-113.5 254z" />
<glyph unicode="&#x11f;" horiz-adv-x="1360" d="M79 563q0 263 120.5 415t330.5 152q111 0 199 -52.5t130 -143.5h19v179h345v-1100q0 -199 -156 -315.5t-422 -116.5q-232 0 -377 91.5t-156 241.5h344q10 -45 63 -71.5t136 -26.5q102 0 158 45.5t56 128.5v201h-19q-87 -175 -328 -175q-204 0 -323.5 147.5t-119.5 399.5z M252 1620h236q2 -78 51 -123.5t131 -45.5t131 45.5t51 123.5h236q0 -160 -113 -260t-305 -100t-305 100t-113 260zM442 564q0 -134 56 -211t157 -77q102 0 159 76.5t57 210.5q0 135 -57.5 212t-158.5 77q-100 0 -156.5 -77t-56.5 -211z" />
<glyph unicode="&#x120;" horiz-adv-x="1572" d="M102 723q0 352 188 555.5t513 203.5q264 0 443.5 -140.5t206.5 -369.5h-362q-27 95 -103.5 149.5t-184.5 54.5q-154 0 -240.5 -119t-86.5 -330q0 -213 93.5 -336.5t251.5 -123.5q125 0 205 67t87 177l1 24h-264v252h618v-186q0 -298 -174.5 -469t-480.5 -171 q-333 0 -522 203t-189 559zM626 1755q0 75 49 123.5t128 48.5q78 0 127 -48.5t49 -123.5t-49 -123.5t-127 -48.5q-79 0 -128 48.5t-49 123.5z" />
<glyph unicode="&#x121;" horiz-adv-x="1360" d="M79 563q0 263 120.5 415t330.5 152q111 0 199 -52.5t130 -143.5h19v179h345v-1100q0 -199 -156 -315.5t-422 -116.5q-232 0 -377 91.5t-156 241.5h344q10 -45 63 -71.5t136 -26.5q102 0 158 45.5t56 128.5v201h-19q-87 -175 -328 -175q-204 0 -323.5 147.5t-119.5 399.5z M442 564q0 -134 56 -211t157 -77q102 0 159 76.5t57 210.5q0 135 -57.5 212t-158.5 77q-100 0 -156.5 -77t-56.5 -211zM492 1447q0 76 49.5 125t128.5 49t128.5 -49t49.5 -125q0 -75 -49.5 -124t-128.5 -49t-128.5 49t-49.5 124z" />
<glyph unicode="&#x122;" horiz-adv-x="1572" d="M102 723q0 352 188 555.5t513 203.5q264 0 443.5 -140.5t206.5 -369.5h-362q-27 95 -103.5 149.5t-184.5 54.5q-154 0 -240.5 -119t-86.5 -330q0 -213 93.5 -336.5t251.5 -123.5q125 0 205 67t87 177l1 24h-264v252h618v-186q0 -298 -174.5 -469t-480.5 -171 q-333 0 -522 203t-189 559zM512 -505l148 350h351l-193 -350h-306z" />
<glyph unicode="&#x123;" horiz-adv-x="1360" d="M79 563q0 263 120.5 415t330.5 152q111 0 199 -52.5t130 -143.5h19v179h345v-1100q0 -199 -156 -315.5t-422 -116.5q-232 0 -377 91.5t-156 241.5h344q10 -45 63 -71.5t136 -26.5q102 0 158 45.5t56 128.5v201h-19q-87 -175 -328 -175q-204 0 -323.5 147.5t-119.5 399.5z M442 564q0 -134 56 -211t157 -77q102 0 159 76.5t57 210.5q0 135 -57.5 212t-158.5 77q-100 0 -156.5 -77t-56.5 -211zM511 1293l193 350h306l-148 -350h-351z" />
<glyph unicode="&#x124;" horiz-adv-x="1648" d="M170 0v1443h367v-566h575v566h366v-1443h-366v582h-575v-582h-367zM384 1596l275 350h330l275 -350h-298l-132 190h-20l-132 -190h-298z" />
<glyph unicode="&#x125;" horiz-adv-x="1355" d="M-119 1683l275 350h330l275 -350h-298l-132 190h-20l-132 -190h-298zM148 0v1530h346v-602h19q37 96 125 151t208 55q182 0 281.5 -108.5t99.5 -310.5v-715h-353v635q0 103 -46 157t-134 54q-90 0 -141.5 -59t-51.5 -156v-631h-353z" />
<glyph unicode="&#x126;" horiz-adv-x="1648" d="M46 1047v231h124v165h367v-165h575v165h366v-165h124v-231h-124v-1047h-366v582h-575v-582h-367v1047h-124zM537 877h575v170h-575v-170z" />
<glyph unicode="&#x127;" horiz-adv-x="1355" d="M4 1246v164h144v120h346v-120h218v-164h-218v-318h19q37 96 125 151t208 55q182 0 281.5 -108.5t99.5 -310.5v-715h-353v635q0 103 -46 157t-134 54q-90 0 -141.5 -59t-51.5 -156v-631h-353v1246h-144z" />
<glyph unicode="&#x128;" horiz-adv-x="707" d="M-68 1572q0 149 76.5 241t200.5 92q40 0 76.5 -14.5t61.5 -35t47.5 -40.5t45 -34.5t43.5 -14.5q38 0 60 34t23 97h210q0 -147 -76 -238t-200 -91q-49 0 -93.5 22t-70 48t-55.5 48t-55 22q-38 0 -60 -36t-24 -100h-210zM170 0v1443h367v-1443h-367z" />
<glyph unicode="&#x129;" horiz-adv-x="631" d="M-100 1264q0 149 76.5 241t200.5 92q40 0 76.5 -14.5t61.5 -35t47.5 -40.5t45 -34.5t43.5 -14.5q38 0 60 34t23 97h210q0 -147 -76 -238t-200 -91q-49 0 -93.5 22t-70 48t-55.5 48t-55 22q-38 0 -60 -36t-24 -100h-210zM138 0v1113h354v-1113h-354z" />
<glyph unicode="&#x12a;" horiz-adv-x="707" d="M-38 1637v198h782v-198h-782zM170 0v1443h367v-1443h-367z" />
<glyph unicode="&#x12b;" horiz-adv-x="631" d="M-11 1327v198h652v-198h-652zM138 0v1113h354v-1113h-354z" />
<glyph unicode="&#x12c;" horiz-adv-x="707" d="M-65 1932h236q2 -74 51 -117.5t131 -43.5t131 43.5t51 117.5h236q0 -157 -113.5 -254t-304.5 -97t-304.5 97t-113.5 254zM170 0v1443h367v-1443h-367z" />
<glyph unicode="&#x12d;" horiz-adv-x="631" d="M-103 1620h236q2 -78 51 -123.5t131 -45.5t131 45.5t51 123.5h236q0 -160 -113 -260t-305 -100t-305 100t-113 260zM138 0v1113h354v-1113h-354z" />
<glyph unicode="&#x12e;" horiz-adv-x="707" d="M67 -248q0 63 28.5 115.5t74.5 86.5v1489h367v-1443l-32 -7q-74 -22 -128.5 -69t-54.5 -106q0 -48 33 -75.5t96 -27.5q34 0 70 8v-179q-57 -23 -163 -23q-130 0 -210.5 64.5t-80.5 166.5z" />
<glyph unicode="&#x12f;" horiz-adv-x="631" d="M22 -240q0 59 31 114.5t85 95.5v1143h354v-1113l-47 -7q-70 -18 -118.5 -66t-48.5 -109q0 -49 33.5 -76t94.5 -27q36 0 71 7v-178q-56 -23 -151 -23q-139 0 -221.5 66t-82.5 173zM116 1399q0 72 53.5 115t145.5 43q93 0 146.5 -43t53.5 -115q0 -71 -53.5 -114t-146.5 -43 q-92 0 -145.5 43t-53.5 114z" />
<glyph unicode="&#x130;" horiz-adv-x="707" d="M170 0v1443h367v-1443h-367zM176 1753q0 75 49 123.5t128 48.5q78 0 127 -48.5t49 -123.5t-49 -123.5t-127 -48.5q-79 0 -128 48.5t-49 123.5z" />
<glyph unicode="&#x131;" horiz-adv-x="631" d="M138 0v1113h354v-1113h-354z" />
<glyph unicode="&#x132;" horiz-adv-x="2006" d="M170 0v1443h367v-1443h-367zM777 458h352q1 -85 48 -135.5t126 -50.5q81 0 123.5 50t42.5 146v975h367v-978q0 -241 -139.5 -372.5t-387.5 -131.5q-244 0 -388 133.5t-144 363.5z" />
<glyph unicode="&#x133;" horiz-adv-x="1280" d="M116 1399q0 72 53.5 115t145.5 43q93 0 146.5 -43t53.5 -115q0 -71 -53.5 -114t-146.5 -43q-92 0 -145.5 43t-53.5 114zM138 0v1113h354v-1113h-354zM607 -120q18 -2 42 -2q69 0 99 25.5t30 82.5v1127h354v-1140q0 -170 -109 -260.5t-313 -90.5q-56 0 -103 5v253z M756 1399q0 72 53.5 115t145.5 43q93 0 146.5 -43t53.5 -115q0 -71 -53.5 -114t-146.5 -43q-92 0 -145.5 43t-53.5 114z" />
<glyph unicode="&#x134;" horiz-adv-x="1299" d="M70 458h352q1 -85 48 -135.5t126 -50.5q81 0 123.5 50t42.5 146v975h367v-978q0 -241 -139.5 -372.5t-387.5 -131.5q-244 0 -388 133.5t-144 363.5zM506 1596l275 350h330l275 -350h-298l-132 190h-20l-132 -190h-298z" />
<glyph unicode="&#x135;" horiz-adv-x="631" d="M-124 1260l271 359h338l271 -359h-297l-134 202h-19l-133 -202h-297zM-34 -120q18 -2 42 -2q69 0 99 25.5t30 82.5v1127h354v-1140q0 -170 -109 -260.5t-313 -90.5q-55 0 -103 5v253z" />
<glyph unicode="&#x136;" horiz-adv-x="1507" d="M170 0v1443h367v-620h19l480 620h394l-499 -637l528 -806h-431l-364 569l-127 -161v-408h-367zM410 -505l148 350h351l-193 -350h-306z" />
<glyph unicode="&#x137;" horiz-adv-x="1295" d="M148 0v1530h353v-833h19l316 416h396l-397 -478l424 -635h-412l-278 426l-68 -77v-349h-353zM359 -505l148 350h351l-193 -350h-306z" />
<glyph unicode="&#x139;" horiz-adv-x="1247" d="M170 0v1443h367v-1140h613v-303h-980zM194 1596l258 326h362l-304 -326h-316z" />
<glyph unicode="&#x13a;" horiz-adv-x="649" d="M148 0v1530h353v-1530h-353zM165 1683l258 326h362l-304 -326h-316z" />
<glyph unicode="&#x13b;" horiz-adv-x="1247" d="M170 0v1443h367v-1140h613v-303h-980zM336 -505l148 350h351l-193 -350h-306z" />
<glyph unicode="&#x13c;" horiz-adv-x="649" d="M7 -505l148 350h351l-193 -350h-306zM148 0v1530h353v-1530h-353z" />
<glyph unicode="&#x13d;" horiz-adv-x="1247" d="M170 0v1443h367v-1140h613v-303h-980zM720 932v511h286l-50 -511h-236z" />
<glyph unicode="&#x13e;" horiz-adv-x="888" d="M148 0v1530h353v-1530h-353zM629 1020v510h294l-50 -510h-244z" />
<glyph unicode="&#x141;" horiz-adv-x="1247" d="M26 560v229l144 76v578h367v-385l209 110v-229l-209 -110v-526h613v-303h-980v636z" />
<glyph unicode="&#x142;" horiz-adv-x="649" d="M26 585v229l122 65v651h353v-462l122 65v-229l-122 -65v-839h-353v650z" />
<glyph unicode="&#x143;" horiz-adv-x="1601" d="M170 0v1443h293l601 -812h19v812h348v-1443h-291l-603 820h-19v-820h-348zM635 1596l258 326h362l-304 -326h-316z" />
<glyph unicode="&#x144;" horiz-adv-x="1332" d="M138 0v1113h344v-181h19q37 96 122 151.5t204 55.5q184 0 280.5 -109t96.5 -311v-719h-354v640q0 210 -175 210q-85 0 -134.5 -58.5t-49.5 -155.5v-636h-353zM506 1288l245 359h356l-292 -359h-309z" />
<glyph unicode="&#x145;" horiz-adv-x="1601" d="M170 0v1443h293l601 -812h19v812h348v-1443h-291l-603 820h-19v-820h-348zM477 -505l148 350h351l-193 -350h-306z" />
<glyph unicode="&#x146;" horiz-adv-x="1332" d="M138 0v1113h344v-181h19q37 96 122 151.5t204 55.5q184 0 280.5 -109t96.5 -311v-719h-354v640q0 210 -175 210q-85 0 -134.5 -58.5t-49.5 -155.5v-636h-353zM365 -505l148 350h351l-193 -350h-306z" />
<glyph unicode="&#x147;" horiz-adv-x="1601" d="M170 0v1443h293l601 -812h19v812h348v-1443h-291l-603 820h-19v-820h-348zM372 1922h280l131 -173h22l131 173h280l-271 -326h-302z" />
<glyph unicode="&#x148;" horiz-adv-x="1332" d="M138 0v1113h344v-181h19q37 96 122 151.5t204 55.5q184 0 280.5 -109t96.5 -311v-719h-354v640q0 210 -175 210q-85 0 -134.5 -58.5t-49.5 -155.5v-636h-353zM242 1619h297l133 -202h19l134 202h297l-271 -359h-338z" />
<glyph unicode="&#x14c;" d="M102 722q0 351 193 555.5t519 204.5t518 -204.5t192 -555.5q0 -352 -192 -556.5t-518 -204.5q-328 0 -520 204.5t-192 556.5zM423 1637v198h782v-198h-782zM476 722q0 -209 92 -333t246 -124q153 0 245 124t92 333q0 208 -92.5 332t-244.5 124q-153 0 -245.5 -124 t-92.5 -332z" />
<glyph unicode="&#x14d;" horiz-adv-x="1300" d="M83 557q0 270 152 426t415 156q264 0 415.5 -155.5t151.5 -426.5q0 -275 -149.5 -429t-417.5 -154q-267 0 -417 154t-150 429zM266 1327v198h768v-198h-768zM446 557q0 -149 53.5 -231t150.5 -82t150.5 82t53.5 231q0 146 -54 229t-150 83t-150 -83t-54 -229z" />
<glyph unicode="&#x14e;" d="M102 722q0 351 193 555.5t519 204.5t518 -204.5t192 -555.5q0 -352 -192 -556.5t-518 -204.5q-328 0 -520 204.5t-192 556.5zM396 1932h236q2 -74 51 -117.5t131 -43.5t131 43.5t51 117.5h236q0 -157 -113.5 -254t-304.5 -97t-304.5 97t-113.5 254zM476 722 q0 -209 92 -333t246 -124q153 0 245 124t92 333q0 208 -92.5 332t-244.5 124q-153 0 -245.5 -124t-92.5 -332z" />
<glyph unicode="&#x14f;" horiz-adv-x="1300" d="M83 557q0 270 152 426t415 156q264 0 415.5 -155.5t151.5 -426.5q0 -275 -149.5 -429t-417.5 -154q-267 0 -417 154t-150 429zM232 1620h236q2 -78 51 -123.5t131 -45.5t131 45.5t51 123.5h236q0 -160 -113 -260t-305 -100t-305 100t-113 260zM446 557q0 -149 53.5 -231 t150.5 -82t150.5 82t53.5 231q0 146 -54 229t-150 83t-150 -83t-54 -229z" />
<glyph unicode="&#x150;" d="M102 722q0 351 193 555.5t519 204.5t518 -204.5t192 -555.5q0 -352 -192 -556.5t-518 -204.5q-328 0 -520 204.5t-192 556.5zM444 1596l220 326h294l-249 -326h-265zM476 722q0 -209 92 -333t246 -124q153 0 245 124t92 333q0 208 -92.5 332t-244.5 124 q-153 0 -245.5 -124t-92.5 -332zM893 1596l221 326h293l-249 -326h-265z" />
<glyph unicode="&#x151;" horiz-adv-x="1300" d="M83 557q0 270 152 426t415 156q264 0 415.5 -155.5t151.5 -426.5q0 -275 -149.5 -429t-417.5 -154q-267 0 -417 154t-150 429zM279 1288l191 359h284l-221 -359h-254zM446 557q0 -149 53.5 -231t150.5 -82t150.5 82t53.5 231q0 146 -54 229t-150 83t-150 -83t-54 -229z M734 1288l191 359h284l-221 -359h-254z" />
<glyph unicode="&#x152;" horiz-adv-x="2242" d="M117 722q0 362 170 561t479 199q152 0 279 -73t171 -186h20v220h927v-295h-626v-288h589v-270h-589v-295h626v-295h-927v226h-20q-49 -119 -173 -192t-277 -73q-307 0 -478 200.5t-171 560.5zM491 722q0 -209 92.5 -333t248.5 -124q152 0 243 124.5t91 332.5t-91 332 t-243 124q-155 0 -248 -124t-93 -332z" />
<glyph unicode="&#x153;" horiz-adv-x="2033" d="M90 554q0 271 147 428t401 157t385 -174h19q60 82 161.5 128t229.5 46q235 0 377 -153.5t142 -409.5v-97h-748v-19q2 -109 61 -171.5t160 -62.5q159 0 198 102h320q-29 -161 -168.5 -257.5t-339.5 -96.5q-126 0 -228.5 45t-166.5 125h-19q-62 -81 -160.5 -125.5 t-223.5 -44.5q-253 0 -400 155.5t-147 424.5zM453 555q0 -147 54 -229t151 -82t150.5 82t53.5 229q0 148 -54 231t-150 83t-150.5 -83t-54.5 -231zM1206 682h404q-5 97 -57.5 151.5t-141.5 54.5q-86 0 -142 -56t-63 -150z" />
<glyph unicode="&#x154;" horiz-adv-x="1466" d="M170 0v1443h635q253 0 396 -126.5t143 -349.5q0 -136 -65 -246.5t-181 -161.5l288 -559h-412l-247 505h-190v-505h-367zM516 1596l258 326h362l-304 -326h-316zM537 764h217q101 0 158 53t57 147q0 92 -59 147t-157 55h-216v-402z" />
<glyph unicode="&#x155;" horiz-adv-x="950" d="M138 0v1113h344v-183h19q21 86 96.5 143t177.5 57q88 0 128 -17v-301q-49 20 -152 20q-119 0 -189.5 -64t-70.5 -179v-589h-353zM309 1288l245 359h356l-292 -359h-309z" />
<glyph unicode="&#x156;" horiz-adv-x="1466" d="M170 0v1443h635q253 0 396 -126.5t143 -349.5q0 -136 -65 -246.5t-181 -161.5l288 -559h-412l-247 505h-190v-505h-367zM358 -505l148 350h351l-193 -350h-306zM537 764h217q101 0 158 53t57 147q0 92 -59 147t-157 55h-216v-402z" />
<glyph unicode="&#x157;" horiz-adv-x="950" d="M-7 -505l148 350h351l-193 -350h-306zM138 0v1113h344v-183h19q21 86 96.5 143t177.5 57q88 0 128 -17v-301q-49 20 -152 20q-119 0 -189.5 -64t-70.5 -179v-589h-353z" />
<glyph unicode="&#x158;" horiz-adv-x="1466" d="M170 0v1443h635q253 0 396 -126.5t143 -349.5q0 -136 -65 -246.5t-181 -161.5l288 -559h-412l-247 505h-190v-505h-367zM253 1922h280l131 -173h22l131 173h280l-271 -326h-302zM537 764h217q101 0 158 53t57 147q0 92 -59 147t-157 55h-216v-402z" />
<glyph unicode="&#x159;" horiz-adv-x="950" d="M45 1619h297l133 -202h19l134 202h297l-271 -359h-338zM138 0v1113h344v-183h19q21 86 96.5 143t177.5 57q88 0 128 -17v-301q-49 20 -152 20q-119 0 -189.5 -64t-70.5 -179v-589h-353z" />
<glyph unicode="&#x15a;" horiz-adv-x="1423" d="M107 411h350q7 -79 79.5 -125.5t186.5 -46.5q103 0 167 45t64 116q0 60 -52 95.5t-176 60.5l-190 38q-198 37 -299 144t-101 277q0 212 156.5 339.5t417.5 127.5q253 0 413 -125t165 -325h-339q-6 76 -71.5 124.5t-162.5 48.5t-155.5 -42.5t-58.5 -114.5q0 -59 51 -96 t165 -59l186 -36q214 -41 313.5 -141t99.5 -272q0 -226 -162 -354.5t-446 -128.5q-274 0 -435.5 121t-165.5 329zM552 1596l258 326h362l-304 -326h-316z" />
<glyph unicode="&#x15b;" horiz-adv-x="1206" d="M86 319h341q28 -106 185 -106q73 0 116.5 27t43.5 72q0 35 -27.5 56t-94.5 35l-207 44q-330 70 -330 331q0 166 132 263.5t357 97.5q231 0 355.5 -87.5t134.5 -255.5h-322q-8 49 -51 76.5t-114 27.5q-69 0 -112.5 -27.5t-43.5 -72.5q0 -35 30.5 -57.5t97.5 -36.5l230 -47 q165 -35 239.5 -107.5t74.5 -198.5q0 -173 -140 -276t-374 -103q-239 0 -372.5 88.5t-148.5 256.5zM426 1288l245 359h356l-292 -359h-309z" />
<glyph unicode="&#x15c;" horiz-adv-x="1423" d="M107 411h350q7 -79 79.5 -125.5t186.5 -46.5q103 0 167 45t64 116q0 60 -52 95.5t-176 60.5l-190 38q-198 37 -299 144t-101 277q0 212 156.5 339.5t417.5 127.5q253 0 413 -125t165 -325h-339q-6 76 -71.5 124.5t-162.5 48.5t-155.5 -42.5t-58.5 -114.5q0 -59 51 -96 t165 -59l186 -36q214 -41 313.5 -141t99.5 -272q0 -226 -162 -354.5t-446 -128.5q-274 0 -435.5 121t-165.5 329zM271 1596l275 350h330l275 -350h-298l-132 190h-20l-132 -190h-298z" />
<glyph unicode="&#x15d;" horiz-adv-x="1206" d="M86 319h341q28 -106 185 -106q73 0 116.5 27t43.5 72q0 35 -27.5 56t-94.5 35l-207 44q-330 70 -330 331q0 166 132 263.5t357 97.5q231 0 355.5 -87.5t134.5 -255.5h-322q-8 49 -51 76.5t-114 27.5q-69 0 -112.5 -27.5t-43.5 -72.5q0 -35 30.5 -57.5t97.5 -36.5l230 -47 q165 -35 239.5 -107.5t74.5 -198.5q0 -173 -140 -276t-374 -103q-239 0 -372.5 88.5t-148.5 256.5zM162 1260l271 359h338l271 -359h-297l-134 202h-19l-133 -202h-297z" />
<glyph unicode="&#x15e;" horiz-adv-x="1423" d="M107 411h350q7 -79 79.5 -125.5t186.5 -46.5q103 0 167 45t64 116q0 60 -52 95.5t-176 60.5l-190 38q-198 37 -299 144t-101 277q0 212 156.5 339.5t417.5 127.5q253 0 413 -125t165 -325h-339q-6 76 -71.5 124.5t-162.5 48.5t-155.5 -42.5t-58.5 -114.5q0 -59 51 -96 t165 -59l186 -36q214 -41 313.5 -141t99.5 -272q0 -206 -136.5 -332.5t-380.5 -146.5l-27 -64q91 -7 138.5 -53.5t47.5 -128.5q0 -101 -72.5 -156t-206.5 -55q-92 0 -148 18v144q40 -14 113 -14q108 0 108 53q0 28 -28.5 40.5t-91.5 12.5h-61v128l33 76q-229 23 -361 140.5 t-136 304.5z" />
<glyph unicode="&#x15f;" horiz-adv-x="1206" d="M86 319h341q28 -106 185 -106q73 0 116.5 27t43.5 72q0 35 -27.5 56t-94.5 35l-207 44q-330 70 -330 331q0 166 132 263.5t357 97.5q231 0 355.5 -87.5t134.5 -255.5h-322q-8 49 -51 76.5t-114 27.5q-69 0 -112.5 -27.5t-43.5 -72.5q0 -35 30.5 -57.5t97.5 -36.5l230 -47 q165 -35 239.5 -107.5t74.5 -198.5q0 -154 -112.5 -253.5t-304.5 -120.5l-33 -77q91 -7 138.5 -53.5t47.5 -128.5q0 -101 -72.5 -156t-206.5 -55q-92 0 -148 18v144q40 -14 113 -14q108 0 108 53q0 28 -28.5 40.5t-91.5 12.5h-61v128l38 87q-193 17 -301 104t-121 237z" />
<glyph unicode="&#x160;" horiz-adv-x="1423" d="M107 411h350q7 -79 79.5 -125.5t186.5 -46.5q103 0 167 45t64 116q0 60 -52 95.5t-176 60.5l-190 38q-198 37 -299 144t-101 277q0 212 156.5 339.5t417.5 127.5q253 0 413 -125t165 -325h-339q-6 76 -71.5 124.5t-162.5 48.5t-155.5 -42.5t-58.5 -114.5q0 -59 51 -96 t165 -59l186 -36q214 -41 313.5 -141t99.5 -272q0 -226 -162 -354.5t-446 -128.5q-274 0 -435.5 121t-165.5 329zM289 1922h280l131 -173h22l131 173h280l-271 -326h-302z" />
<glyph unicode="&#x161;" horiz-adv-x="1206" d="M86 319h341q28 -106 185 -106q73 0 116.5 27t43.5 72q0 35 -27.5 56t-94.5 35l-207 44q-330 70 -330 331q0 166 132 263.5t357 97.5q231 0 355.5 -87.5t134.5 -255.5h-322q-8 49 -51 76.5t-114 27.5q-69 0 -112.5 -27.5t-43.5 -72.5q0 -35 30.5 -57.5t97.5 -36.5l230 -47 q165 -35 239.5 -107.5t74.5 -198.5q0 -173 -140 -276t-374 -103q-239 0 -372.5 88.5t-148.5 256.5zM162 1619h297l133 -202h19l134 202h297l-271 -359h-338z" />
<glyph unicode="&#x162;" horiz-adv-x="1381" d="M91 1148v295h1199v-295h-417v-1118h1v-29l-42 -99q91 -7 138.5 -53.5t47.5 -128.5q0 -101 -72.5 -156t-206.5 -55q-92 0 -148 18v144q40 -14 113 -14q108 0 108 53q0 28 -28.5 40.5t-91.5 12.5h-61v128l48 109h-172v1148h-416z" />
<glyph unicode="&#x163;" horiz-adv-x="898" d="M55 835v263h171v270h353v-270h224v-263h-224v-451q0 -125 135 -125q46 0 89 5v-252q-65 -14 -169 -14h-14l-41 -96q91 -7 138.5 -53.5t47.5 -128.5q0 -101 -72.5 -156t-206.5 -55q-92 0 -148 18v144q40 -14 113 -14q108 0 108 53q0 28 -28.5 40.5t-91.5 12.5h-61v128 l56 127q-109 28 -158.5 97.5t-49.5 189.5v530h-171z" />
<glyph unicode="&#x164;" horiz-adv-x="1381" d="M91 1148v295h1199v-295h-417v-1148h-366v1148h-416zM264 1922h280l131 -173h22l131 173h280l-271 -326h-302z" />
<glyph unicode="&#x165;" horiz-adv-x="898" d="M55 835v263h171v270h353v-270h224v-263h-224v-451q0 -125 135 -125q46 0 89 5v-252q-65 -14 -169 -14q-219 0 -313.5 71.5t-94.5 235.5v530h-171zM667 1230v511h294l-50 -511h-244z" />
<glyph unicode="&#x166;" horiz-adv-x="1381" d="M91 1148v295h1199v-295h-417v-344h268v-247h-268v-557h-366v557h-277v247h277v344h-416z" />
<glyph unicode="&#x167;" horiz-adv-x="898" d="M55 491v169h171v175h-171v263h171v270h353v-270h224v-263h-224v-175h241v-169h-241v-107q0 -125 135 -125q46 0 89 5v-252q-65 -14 -169 -14q-219 0 -313.5 71.5t-94.5 235.5v186h-171z" />
<glyph unicode="&#x168;" horiz-adv-x="1586" d="M171 498v945h367v-906q0 -126 66.5 -196.5t188.5 -70.5t188 70t66 197v906h367v-945q0 -243 -170 -390t-451 -147t-451.5 147t-170.5 390zM372 1572q0 149 76.5 241t200.5 92q40 0 76.5 -14.5t61.5 -35t47.5 -40.5t45 -34.5t43.5 -14.5q38 0 60 34t23 97h210 q0 -147 -76 -238t-200 -91q-49 0 -93.5 22t-70 48t-55.5 48t-55 22q-38 0 -60 -36t-24 -100h-210z" />
<glyph unicode="&#x169;" horiz-adv-x="1340" d="M128 386v727h353v-640q0 -101 47.5 -154.5t133.5 -53.5q89 0 137.5 56.5t48.5 155.5v636h354v-1113h-344v180h-19q-82 -206 -316 -206q-179 0 -287 110.5t-108 301.5zM250 1264q0 149 76.5 241t200.5 92q40 0 76.5 -14.5t61.5 -35t47.5 -40.5t45 -34.5t43.5 -14.5 q38 0 60 34t23 97h210q0 -147 -76 -238t-200 -91q-49 0 -93.5 22t-70 48t-55.5 48t-55 22q-38 0 -60 -36t-24 -100h-210z" />
<glyph unicode="&#x16a;" horiz-adv-x="1586" d="M171 498v945h367v-906q0 -126 66.5 -196.5t188.5 -70.5t188 70t66 197v906h367v-945q0 -243 -170 -390t-451 -147t-451.5 147t-170.5 390zM402 1637v198h782v-198h-782z" />
<glyph unicode="&#x16b;" horiz-adv-x="1340" d="M128 386v727h353v-640q0 -101 47.5 -154.5t133.5 -53.5q89 0 137.5 56.5t48.5 155.5v636h354v-1113h-344v180h-19q-82 -206 -316 -206q-179 0 -287 110.5t-108 301.5zM281 1327v198h768v-198h-768z" />
<glyph unicode="&#x16c;" horiz-adv-x="1586" d="M171 498v945h367v-906q0 -126 66.5 -196.5t188.5 -70.5t188 70t66 197v906h367v-945q0 -243 -170 -390t-451 -147t-451.5 147t-170.5 390zM375 1932h236q2 -74 51 -117.5t131 -43.5t131 43.5t51 117.5h236q0 -157 -113.5 -254t-304.5 -97t-304.5 97t-113.5 254z" />
<glyph unicode="&#x16d;" horiz-adv-x="1340" d="M128 386v727h353v-640q0 -101 47.5 -154.5t133.5 -53.5q89 0 137.5 56.5t48.5 155.5v636h354v-1113h-344v180h-19q-82 -206 -316 -206q-179 0 -287 110.5t-108 301.5zM247 1620h236q2 -78 51 -123.5t131 -45.5t131 45.5t51 123.5h236q0 -160 -113 -260t-305 -100 t-305 100t-113 260z" />
<glyph unicode="&#x16e;" horiz-adv-x="1586" d="M171 498v945h367v-906q0 -126 66.5 -196.5t188.5 -70.5t188 70t66 197v906h367v-945q0 -243 -170 -390t-451 -147t-451.5 147t-170.5 390zM585 1746q0 87 59 143t150 56q90 0 148.5 -56t58.5 -143q0 -88 -58.5 -145.5t-148.5 -57.5q-91 0 -150 57.5t-59 145.5zM703 1744 q0 -38 26 -63.5t64 -25.5q39 0 64.5 25.5t25.5 63.5t-26 63.5t-64 25.5t-64 -25.5t-26 -63.5z" />
<glyph unicode="&#x16f;" horiz-adv-x="1340" d="M128 386v727h353v-640q0 -101 47.5 -154.5t133.5 -53.5q89 0 137.5 56.5t48.5 155.5v636h354v-1113h-344v180h-19q-82 -206 -316 -206q-179 0 -287 110.5t-108 301.5zM412 1505q0 106 71.5 174t182.5 68q110 0 180.5 -68t70.5 -174q0 -107 -71 -176t-180 -69 q-110 0 -182 69t-72 176zM568 1504q0 -43 27.5 -70t69.5 -27q43 0 70 27.5t27 69.5q0 41 -28 68.5t-69 27.5q-42 -1 -69.5 -28t-27.5 -68z" />
<glyph unicode="&#x170;" horiz-adv-x="1586" d="M171 498v945h367v-906q0 -126 66.5 -196.5t188.5 -70.5t188 70t66 197v906h367v-945q0 -243 -170 -390t-451 -147t-451.5 147t-170.5 390zM423 1596l220 326h294l-249 -326h-265zM872 1596l221 326h293l-249 -326h-265z" />
<glyph unicode="&#x171;" horiz-adv-x="1340" d="M128 386v727h353v-640q0 -101 47.5 -154.5t133.5 -53.5q89 0 137.5 56.5t48.5 155.5v636h354v-1113h-344v180h-19q-82 -206 -316 -206q-179 0 -287 110.5t-108 301.5zM294 1288l191 359h284l-221 -359h-254zM749 1288l191 359h284l-221 -359h-254z" />
<glyph unicode="&#x172;" horiz-adv-x="1585" d="M171 498v945h367v-906q0 -127 67 -197t188 -70t187.5 70t66.5 197v906h367v-945q0 -262 -234 -459q-143 -118 -143 -221q0 -47 31.5 -75t89.5 -28q51 0 71 8v-179q-59 -23 -156 -23q-130 0 -210.5 62.5t-80.5 160.5q0 69 39 127.5t92 87.5v19q-49 -17 -120 -17 q-280 0 -451 146.5t-171 390.5z" />
<glyph unicode="&#x173;" horiz-adv-x="1340" d="M128 386v727h353v-640q0 -101 47.5 -154.5t133.5 -53.5q89 0 137.5 56.5t48.5 155.5v636h354v-1113l-49 -7q-81 -16 -137 -67.5t-56 -115.5q0 -44 30.5 -69.5t90.5 -25.5q50 0 70 8v-179q-57 -23 -156 -23q-129 0 -210 64.5t-81 166.5q0 71 43.5 136t110.5 98v194h-19 q-82 -206 -316 -206q-179 0 -287 110.5t-108 301.5z" />
<glyph unicode="&#x174;" horiz-adv-x="2112" d="M86 1443h381l192 -957h18l231 957h294l239 -957h18l189 957h378l-377 -1443h-344l-241 884h-18l-237 -884h-346zM616 1596l275 350h330l275 -350h-298l-132 190h-20l-132 -190h-298z" />
<glyph unicode="&#x175;" horiz-adv-x="1814" d="M57 1113h358l139 -763h19l168 763h337l170 -763h19l139 763h350l-288 -1113h-381l-174 733h-19l-172 -733h-375zM470 1260l271 359h338l271 -359h-297l-134 202h-19l-133 -202h-297z" />
<glyph unicode="&#x176;" horiz-adv-x="1508" d="M73 1443h391l281 -589h19l279 589h391l-497 -947v-496h-366v496zM315 1596l275 350h330l275 -350h-298l-132 190h-20l-132 -190h-298z" />
<glyph unicode="&#x177;" horiz-adv-x="1282" d="M50 1113h391l199 -816h19l199 816h374l-358 -1111q-71 -222 -203.5 -314.5t-372.5 -92.5q-124 0 -129 1v269q10 -2 62 -2q176 0 194 97l5 31zM210 1260l271 359h338l271 -359h-297l-134 202h-19l-133 -202h-297z" />
<glyph unicode="&#x178;" horiz-adv-x="1508" d="M73 1443h391l281 -589h19l279 589h391l-497 -947v-496h-366v496zM331 1745q0 72 48.5 118t124.5 46t124.5 -46t48.5 -118t-48.5 -118t-124.5 -46t-124.5 46t-48.5 118zM833 1745q0 72 48.5 118t124.5 46t125 -46t49 -118t-49 -118t-125 -46t-124.5 46t-48.5 118z" />
<glyph unicode="&#x179;" horiz-adv-x="1399" d="M130 0v233l677 896v19h-666v295h1106v-233l-677 -896v-19h698v-295h-1138zM540 1596l258 326h362l-304 -326h-316z" />
<glyph unicode="&#x17a;" horiz-adv-x="1190" d="M112 0v189l524 639v19h-512v266h936v-217l-477 -611v-19h495v-266h-966zM417 1288l245 359h356l-292 -359h-309z" />
<glyph unicode="&#x17b;" horiz-adv-x="1399" d="M130 0v233l677 896v19h-666v295h1106v-233l-677 -896v-19h698v-295h-1138zM522 1753q0 75 49 123.5t128 48.5q78 0 127 -48.5t49 -123.5t-49 -123.5t-127 -48.5q-79 0 -128 48.5t-49 123.5z" />
<glyph unicode="&#x17c;" horiz-adv-x="1190" d="M112 0v189l524 639v19h-512v266h936v-217l-477 -611v-19h495v-266h-966zM415 1447q0 76 49.5 125t128.5 49t128.5 -49t49.5 -125q0 -75 -49.5 -124t-128.5 -49t-128.5 49t-49.5 124z" />
<glyph unicode="&#x17d;" horiz-adv-x="1399" d="M130 0v233l677 896v19h-666v295h1106v-233l-677 -896v-19h698v-295h-1138zM277 1922h280l131 -173h22l131 173h280l-271 -326h-302z" />
<glyph unicode="&#x17e;" horiz-adv-x="1190" d="M112 0v189l524 639v19h-512v266h936v-217l-477 -611v-19h495v-266h-966zM153 1619h297l133 -202h19l134 202h297l-271 -359h-338z" />
<glyph unicode="&#x18f;" horiz-adv-x="1574" d="M107 691l4 121h969v11q1 157 -86.5 258.5t-222.5 101.5q-213 0 -281 -180h-370q50 222 225.5 350.5t425.5 128.5q313 0 502 -208.5t189 -553.5q0 -342 -186.5 -550.5t-488.5 -208.5q-213 0 -368 93t-233 256.5t-79 380.5zM489 559q10 -136 91 -217.5t208 -81.5 q115 0 196 82.5t94 216.5h-589z" />
<glyph unicode="&#x192;" horiz-adv-x="1461" d="M122 -3v277q79 -22 167 -22q85 0 138.5 44t66.5 128l32 202h-307v245h346l28 173q67 412 542 412q115 0 196 -13v-279q-59 16 -157 16q-188 0 -217 -177l-21 -132h339v-245h-378l-35 -218q-37 -222 -165 -327t-359 -105q-130 0 -216 21z" />
<glyph unicode="&#x1a0;" horiz-adv-x="1698" d="M102 722q0 351 193 555.5t519 204.5q96 0 228 -28t212 -28q108 0 108 88v174h269v-251q0 -108 -56.5 -166t-163.5 -58h-62v-18q77 -62 126 -192t49 -281q0 -352 -192 -556.5t-518 -204.5q-328 0 -520 204.5t-192 556.5zM476 722q0 -209 92 -333t246 -124q153 0 245 124 t92 333q0 208 -92.5 332t-244.5 124q-153 0 -245.5 -124t-92.5 -332z" />
<glyph unicode="&#x1a1;" horiz-adv-x="1428" d="M83 557q0 270 152 426t415 156q82 0 170.5 -21.5t133.5 -21.5q60 0 85.5 19t25.5 63v149h269v-237q0 -204 -200 -204h-41v-17q53 -36 88.5 -125.5t35.5 -186.5q0 -275 -149.5 -429t-417.5 -154q-267 0 -417 154t-150 429zM446 557q0 -149 53.5 -231t150.5 -82t150.5 82 t53.5 231q0 146 -54 229t-150 83t-150 -83t-54 -229z" />
<glyph unicode="&#x1af;" horiz-adv-x="1798" d="M171 498v945h367v-906q0 -127 67 -197t188 -70t187.5 70t66.5 197v906h382q74 0 74 71v194h269v-266q0 -108 -64 -167.5t-176 -59.5h-118v-717q0 -243 -170 -390t-451 -147t-451.5 147t-170.5 390z" />
<glyph unicode="&#x1b0;" horiz-adv-x="1609" d="M128 386v727h353v-640q0 -100 47 -154t134 -54q88 0 137 56t49 156v636h368q35 0 54.5 18.5t19.5 52.5v162h269v-234q0 -108 -64.5 -167.5t-176.5 -59.5h-116v-885h-344v180h-19q-41 -105 -118.5 -155.5t-197.5 -50.5q-181 0 -288 112t-107 300z" />
<glyph unicode="&#x1c4;" horiz-adv-x="2967" d="M170 0v1444h606q322 0 498.5 -185t176.5 -523q0 -355 -174.5 -545.5t-500.5 -190.5h-606zM537 295h173q179 0 273 110t94 324q0 201 -96.5 310.5t-270.5 109.5h-173v-854zM1698 0v233l677 896v19h-666v295h1106v-233l-677 -896v-19h698v-295h-1138zM1845 1922h280 l131 -173h22l131 173h280l-271 -326h-302z" />
<glyph unicode="&#x1c5;" horiz-adv-x="2758" d="M170 0v1444h606q322 0 498.5 -185t176.5 -523q0 -355 -174.5 -545.5t-500.5 -190.5h-606zM537 295h173q179 0 273 110t94 324q0 201 -96.5 310.5t-270.5 109.5h-173v-854zM1680 0v189l524 639v19h-512v266h936v-217l-477 -611v-19h495v-266h-966zM1721 1619h297l133 -202 h19l134 202h297l-271 -359h-338z" />
<glyph unicode="&#x1c6;" horiz-adv-x="2577" d="M83 559q0 266 119.5 418.5t327.5 152.5q112 0 197.5 -52t126.5 -144h19v596h354v-1530h-345v174h-19q-41 -90 -129 -140.5t-204 -50.5q-209 0 -328 153.5t-119 422.5zM446 557q0 -139 56.5 -217.5t157.5 -78.5t158 78.5t57 216.5t-57.5 217t-157.5 79t-157 -78.5 t-57 -216.5zM1500 0v189l524 639v19h-512v266h936v-217l-477 -611v-19h495v-266h-966zM1541 1619h297l133 -202h19l134 202h297l-271 -359h-338z" />
<glyph unicode="&#x1c7;" horiz-adv-x="2539" d="M170 0v1443h367v-1140h613v-303h-980zM1309 458h352q1 -85 48 -135.5t126 -50.5q81 0 123.5 50t42.5 146v975h367v-978q0 -241 -139.5 -372.5t-387.5 -131.5q-244 0 -388 133.5t-144 363.5z" />
<glyph unicode="&#x1c8;" horiz-adv-x="1879" d="M170 0v1443h367v-1140h613v-303h-980zM1206 -120q18 -2 42 -2q69 0 99 25.5t30 82.5v1127h354v-1140q0 -170 -109 -260.5t-313 -90.5q-55 0 -103 5v253zM1355 1399q0 72 53.5 115t145.5 43q93 0 146.5 -43t53.5 -115q0 -71 -53.5 -114t-146.5 -43q-92 0 -145.5 43 t-53.5 114z" />
<glyph unicode="&#x1c9;" horiz-adv-x="1280" d="M148 0v1530h353v-1530h-353zM607 -120q18 -2 42 -2q69 0 99 25.5t30 82.5v1127h354v-1140q0 -170 -109 -260.5t-313 -90.5q-56 0 -103 5v253zM756 1399q0 72 53.5 115t145.5 43q93 0 146.5 -43t53.5 -115q0 -71 -53.5 -114t-146.5 -43q-92 0 -145.5 43t-53.5 114z" />
<glyph unicode="&#x1ca;" horiz-adv-x="2900" d="M170 0v1443h293l601 -812h19v812h348v-1443h-291l-603 820h-19v-820h-348zM1671 458h352q1 -85 48 -135.5t126 -50.5q81 0 123.5 50t42.5 146v975h367v-978q0 -241 -139.5 -372.5t-387.5 -131.5q-244 0 -388 133.5t-144 363.5z" />
<glyph unicode="&#x1cb;" horiz-adv-x="2241" d="M170 0v1443h293l601 -812h19v812h348v-1443h-291l-603 820h-19v-820h-348zM1568 -120q18 -2 42 -2q69 0 99 25.5t30 82.5v1127h354v-1140q0 -170 -109 -260.5t-313 -90.5q-55 0 -103 5v253zM1717 1399q0 72 53.5 115t145.5 43q93 0 146.5 -43t53.5 -115q0 -71 -53.5 -114 t-146.5 -43q-92 0 -145.5 43t-53.5 114z" />
<glyph unicode="&#x1cc;" horiz-adv-x="1963" d="M138 0v1113h344v-181h19q37 96 122 151.5t204 55.5q184 0 280.5 -109t96.5 -311v-719h-354v640q0 210 -175 210q-85 0 -134.5 -58.5t-49.5 -155.5v-636h-353zM1299 -120q18 -2 42 -2q69 0 99 25.5t30 82.5v1127h354v-1140q0 -170 -109 -260.5t-313 -90.5q-56 0 -103 5 v253zM1448 1399q0 72 53.5 115t145.5 43q93 0 146.5 -43t53.5 -115q0 -71 -53.5 -114t-146.5 -43q-92 0 -145.5 43t-53.5 114z" />
<glyph unicode="&#x1cd;" horiz-adv-x="1563" d="M73 0l484 1443h449l485 -1443h-400l-90 317h-471l-93 -317h-364zM360 1922h280l131 -173h22l131 173h280l-271 -326h-302zM600 581h332l-155 537h-19z" />
<glyph unicode="&#x1ce;" horiz-adv-x="1248" d="M81 320q0 152 114.5 238.5t330.5 99.5l243 14v87q0 57 -40.5 88.5t-113.5 31.5q-141 0 -176 -90h-318q12 162 150 256t364 94q230 0 356 -100t126 -280v-759h-344v138h-19q-37 -71 -122 -113t-191 -42q-161 0 -260.5 92.5t-99.5 244.5zM196 1619h297l133 -202h19l134 202 h297l-271 -359h-338zM422 345q0 -53 40.5 -84t107.5 -31q84 0 141.5 49t57.5 121v73l-187 -12q-78 -6 -119 -36t-41 -80z" />
<glyph unicode="&#x1cf;" horiz-adv-x="707" d="M-69 1922h280l131 -173h22l131 173h280l-271 -326h-302zM170 0v1443h367v-1443h-367z" />
<glyph unicode="&#x1d0;" horiz-adv-x="631" d="M-125 1619h297l133 -202h19l134 202h297l-271 -359h-338zM138 0v1113h354v-1113h-354z" />
<glyph unicode="&#x1d1;" d="M102 722q0 351 193 555.5t519 204.5t518 -204.5t192 -555.5q0 -352 -192 -556.5t-518 -204.5q-328 0 -520 204.5t-192 556.5zM392 1922h280l131 -173h22l131 173h280l-271 -326h-302zM476 722q0 -209 92 -333t246 -124q153 0 245 124t92 333q0 208 -92.5 332t-244.5 124 q-153 0 -245.5 -124t-92.5 -332z" />
<glyph unicode="&#x1d2;" horiz-adv-x="1300" d="M83 557q0 270 152 426t415 156q264 0 415.5 -155.5t151.5 -426.5q0 -275 -149.5 -429t-417.5 -154q-267 0 -417 154t-150 429zM210 1619h297l133 -202h19l134 202h297l-271 -359h-338zM446 557q0 -149 53.5 -231t150.5 -82t150.5 82t53.5 231q0 146 -54 229t-150 83 t-150 -83t-54 -229z" />
<glyph unicode="&#x1d3;" horiz-adv-x="1586" d="M171 498v945h367v-906q0 -126 66.5 -196.5t188.5 -70.5t188 70t66 197v906h367v-945q0 -243 -170 -390t-451 -147t-451.5 147t-170.5 390zM371 1922h280l131 -173h22l131 173h280l-271 -326h-302z" />
<glyph unicode="&#x1d4;" horiz-adv-x="1340" d="M128 386v727h353v-640q0 -101 47.5 -154.5t133.5 -53.5q89 0 137.5 56.5t48.5 155.5v636h354v-1113h-344v180h-19q-82 -206 -316 -206q-179 0 -287 110.5t-108 301.5zM225 1619h297l133 -202h19l134 202h297l-271 -359h-338z" />
<glyph unicode="&#x1d5;" horiz-adv-x="1586" d="M171 498v945h367v-906q0 -126 66.5 -196.5t188.5 -70.5t188 70t66 197v906h367v-945q0 -243 -170 -390t-451 -147t-451.5 147t-170.5 390zM369 1744q0 72 48.5 117.5t124.5 45.5t124 -45.5t48 -117.5t-48 -117.5t-124 -45.5t-124.5 45.5t-48.5 117.5zM402 2021v183h782 v-183h-782zM872 1744q0 72 48 117.5t124 45.5t124.5 -45.5t48.5 -117.5t-48.5 -117.5t-124.5 -45.5t-124 45.5t-48 117.5z" />
<glyph unicode="&#x1d6;" horiz-adv-x="1340" d="M128 386v727h353v-640q0 -101 47.5 -154.5t133.5 -53.5q89 0 137.5 56.5t48.5 155.5v636h354v-1113h-344v180h-19q-82 -206 -316 -206q-179 0 -287 110.5t-108 301.5zM272 1415q0 68 45.5 112.5t116.5 44.5t116 -44.5t45 -112.5q0 -66 -45 -110.5t-116 -44.5t-116.5 44.5 t-45.5 110.5zM281 1699v198h768v-198h-768zM735 1415q0 68 45 112.5t116 44.5t116.5 -44.5t45.5 -112.5q0 -66 -45.5 -110.5t-116.5 -44.5t-116 44.5t-45 110.5z" />
<glyph unicode="&#x1d7;" horiz-adv-x="1586" d="M171 498v945h367v-906q0 -126 66.5 -196.5t188.5 -70.5t188 70t66 197v906h367v-945q0 -243 -170 -390t-451 -147t-451.5 147t-170.5 390zM368 1745q0 72 49 118t125 46t124.5 -46t48.5 -118t-48.5 -118t-124.5 -46t-125 46t-49 118zM656 1962l132 250h327l-185 -250 h-274zM871 1745q0 72 48.5 118t124.5 46t125 -46t49 -118t-49 -118t-125 -46t-124.5 46t-48.5 118z" />
<glyph unicode="&#x1d8;" horiz-adv-x="1340" d="M128 386v727h353v-640q0 -101 47.5 -154.5t133.5 -53.5q89 0 137.5 56.5t48.5 155.5v636h354v-1113h-344v180h-19q-82 -206 -316 -206q-179 0 -287 110.5t-108 301.5zM241 1428q0 72 48.5 118t124.5 46t124.5 -46t48.5 -118t-48.5 -118t-124.5 -46t-124.5 46t-48.5 118z M523 1666l215 326h324l-262 -326h-277zM743 1428q0 72 48.5 118t124.5 46t125 -46t49 -118t-49 -118t-125 -46t-124.5 46t-48.5 118z" />
<glyph unicode="&#x1d9;" horiz-adv-x="1586" d="M171 498v945h367v-906q0 -126 66.5 -196.5t188.5 -70.5t188 70t66 197v906h367v-945q0 -243 -170 -390t-451 -147t-451.5 147t-170.5 390zM369 2255h285l128 -178h22l128 178h285l-269 -326h-310zM372 1715q0 67 47.5 111t122.5 44t122.5 -44t47.5 -111 q0 -68 -47.5 -111.5t-122.5 -43.5t-122.5 43.5t-47.5 111.5zM874 1715q0 67 47.5 111t122.5 44t122.5 -44t47.5 -111q0 -68 -47.5 -111.5t-122.5 -43.5t-122.5 43.5t-47.5 111.5z" />
<glyph unicode="&#x1da;" horiz-adv-x="1340" d="M128 386v727h353v-640q0 -101 47.5 -154.5t133.5 -53.5q89 0 137.5 56.5t48.5 155.5v636h354v-1113h-344v180h-19q-82 -206 -316 -206q-179 0 -287 110.5t-108 301.5zM243 1997h279l133 -208h20l133 208h279l-267 -356h-310zM272 1415q0 68 45.5 112.5t116.5 44.5 t116 -44.5t45 -112.5q0 -66 -45 -110.5t-116 -44.5t-116.5 44.5t-45.5 110.5zM735 1415q0 68 45 112.5t116 44.5t116.5 -44.5t45.5 -112.5q0 -66 -45.5 -110.5t-116.5 -44.5t-116 44.5t-45 110.5z" />
<glyph unicode="&#x1db;" horiz-adv-x="1586" d="M171 498v945h367v-906q0 -126 66.5 -196.5t188.5 -70.5t188 70t66 197v906h367v-945q0 -243 -170 -390t-451 -147t-451.5 147t-170.5 390zM368 1745q0 72 49 118t125 46t124.5 -46t48.5 -118t-48.5 -118t-124.5 -46t-125 46t-49 118zM476 2212h326l132 -250h-274z M871 1745q0 72 48.5 118t124.5 46t125 -46t49 -118t-49 -118t-125 -46t-124.5 46t-48.5 118z" />
<glyph unicode="&#x1dc;" horiz-adv-x="1340" d="M128 386v727h353v-640q0 -101 47.5 -154.5t133.5 -53.5q89 0 137.5 56.5t48.5 155.5v636h354v-1113h-344v180h-19q-82 -206 -316 -206q-179 0 -287 110.5t-108 301.5zM241 1433q0 72 48.5 118t124.5 46t124.5 -46t48.5 -118t-48.5 -118t-124.5 -46t-124.5 46t-48.5 118z M268 1992h324l215 -326h-277zM743 1433q0 72 48.5 118t124.5 46t125 -46t49 -118t-49 -118t-125 -46t-124.5 46t-48.5 118z" />
<glyph unicode="&#x1dd;" horiz-adv-x="1282" d="M89 576l3 66h749v12q0 108 -59 171t-160 63q-71 0 -123.5 -27t-73.5 -76h-323q37 162 178.5 258t350.5 96q259 0 409 -153t150 -416q0 -281 -145.5 -438.5t-408.5 -157.5q-264 0 -405.5 156t-141.5 446zM431 439q2 -100 57 -157t147 -57q87 0 144 58.5t61 155.5h-409z " />
<glyph unicode="&#x1de;" horiz-adv-x="1563" d="M73 0l484 1443h449l485 -1443h-400l-90 317h-471l-93 -317h-364zM358 1744q0 72 48.5 117.5t124.5 45.5t124 -45.5t48 -117.5t-48 -117.5t-124 -45.5t-124.5 45.5t-48.5 117.5zM391 2021v183h782v-183h-782zM600 581h332l-155 537h-19zM861 1744q0 72 48 117.5t124 45.5 t124.5 -45.5t48.5 -117.5t-48.5 -117.5t-124.5 -45.5t-124 45.5t-48 117.5z" />
<glyph unicode="&#x1df;" horiz-adv-x="1248" d="M81 320q0 152 114.5 238.5t330.5 99.5l243 14v87q0 57 -40.5 88.5t-113.5 31.5q-141 0 -176 -90h-318q12 162 150 256t364 94q230 0 356 -100t126 -280v-759h-344v138h-19q-37 -71 -122 -113t-191 -42q-161 0 -260.5 92.5t-99.5 244.5zM243 1415q0 68 45.5 112.5 t116.5 44.5t116 -44.5t45 -112.5q0 -66 -45 -110.5t-116 -44.5t-116.5 44.5t-45.5 110.5zM252 1699v198h768v-198h-768zM422 345q0 -53 40.5 -84t107.5 -31q84 0 141.5 49t57.5 121v73l-187 -12q-78 -6 -119 -36t-41 -80zM706 1415q0 68 45 112.5t116 44.5t116.5 -44.5 t45.5 -112.5q0 -66 -45.5 -110.5t-116.5 -44.5t-116 44.5t-45 110.5z" />
<glyph unicode="&#x1e0;" horiz-adv-x="1563" d="M73 0l484 1443h449l485 -1443h-400l-90 317h-471l-93 -317h-364zM391 2021v183h782v-183h-782zM600 581h332l-155 537h-19zM606 1736q0 69 49 114.5t127 45.5t127 -45.5t49 -114.5q0 -70 -49 -115.5t-127 -45.5t-127 45.5t-49 115.5z" />
<glyph unicode="&#x1e1;" horiz-adv-x="1248" d="M81 320q0 152 114.5 238.5t330.5 99.5l243 14v87q0 57 -40.5 88.5t-113.5 31.5q-141 0 -176 -90h-318q12 162 150 256t364 94q230 0 356 -100t126 -280v-759h-344v138h-19q-37 -71 -122 -113t-191 -42q-161 0 -260.5 92.5t-99.5 244.5zM252 1699v198h768v-198h-768z M422 345q0 -53 40.5 -84t107.5 -31q84 0 141.5 49t57.5 121v73l-187 -12q-78 -6 -119 -36t-41 -80zM469 1420q0 71 46.5 117.5t120.5 46.5t120.5 -46.5t46.5 -117.5q0 -69 -46.5 -114.5t-120.5 -45.5t-120.5 45.5t-46.5 114.5z" />
<glyph unicode="&#x1e2;" horiz-adv-x="2108" d="M73 0l566 1443h1326v-295h-646v-290h609v-270h-609v-293h646v-295h-973v327h-432l-125 -327h-362zM655 592h337v575h-120zM1176 1637v198h782v-198h-782z" />
<glyph unicode="&#x1e3;" horiz-adv-x="1929" d="M81 320q0 152 114.5 238.5t330.5 99.5l243 14v63q0 71 -42.5 107.5t-111.5 36.5q-141 0 -176 -90h-318q11 153 141.5 251.5t325.5 98.5q249 0 362 -148h19q63 69 154.5 108.5t200.5 39.5q235 0 373 -151t138 -406v-104h-735v-29q2 -101 63 -162t160 -61q134 0 185 102 h320q-29 -161 -164.5 -257.5t-333.5 -96.5q-131 0 -235 49t-160 136h-19q-68 -86 -173.5 -135.5t-232.5 -49.5q-196 0 -312.5 96.5t-116.5 249.5zM422 342q0 -54 41 -85.5t110 -31.5q89 0 142.5 49.5t53.5 117.5v81l-187 -12q-78 -6 -119 -36.5t-41 -82.5zM621 1327v198h768 v-198h-768zM1100 680h395q-5 94 -58 151t-135 57q-87 0 -143 -57.5t-59 -150.5z" />
<glyph unicode="&#x1e6;" horiz-adv-x="1572" d="M102 723q0 352 188 555.5t513 203.5q264 0 443.5 -140.5t206.5 -369.5h-362q-27 95 -103.5 149.5t-184.5 54.5q-154 0 -240.5 -119t-86.5 -330q0 -213 93.5 -336.5t251.5 -123.5q125 0 205 67t87 177l1 24h-264v252h618v-186q0 -298 -174.5 -469t-480.5 -171 q-333 0 -522 203t-189 559zM381 1924h280l131 -173h22l131 173h280l-271 -326h-302z" />
<glyph unicode="&#x1e7;" horiz-adv-x="1360" d="M79 563q0 263 120.5 415t330.5 152q111 0 199 -52.5t130 -143.5h19v179h345v-1100q0 -199 -156 -315.5t-422 -116.5q-232 0 -377 91.5t-156 241.5h344q10 -45 63 -71.5t136 -26.5q102 0 158 45.5t56 128.5v201h-19q-87 -175 -328 -175q-204 0 -323.5 147.5t-119.5 399.5z M230 1619h297l133 -202h19l134 202h297l-271 -359h-338zM442 564q0 -134 56 -211t157 -77q102 0 159 76.5t57 210.5q0 135 -57.5 212t-158.5 77q-100 0 -156.5 -77t-56.5 -211z" />
<glyph unicode="&#x1e8;" horiz-adv-x="1507" d="M170 0v1443h367v-620h19l480 620h394l-499 -637l528 -806h-431l-364 569l-127 -161v-408h-367zM305 1922h280l131 -173h22l131 173h280l-271 -326h-302z" />
<glyph unicode="&#x1e9;" horiz-adv-x="1295" d="M-98 2009h280l131 -173h22l131 173h280l-271 -326h-302zM148 0v1530h353v-833h19l316 416h396l-397 -478l424 -635h-412l-278 426l-68 -77v-349h-353z" />
<glyph unicode="&#x1ea;" d="M102 722q0 349 192.5 554.5t519.5 205.5t518.5 -205t191.5 -555q0 -443 -344 -691q-150 -109 -150 -213q0 -47 31 -75t90 -28q49 0 71 8v-179q-58 -23 -156 -23q-130 0 -210.5 62t-80.5 161q0 67 38 126t93 89v19q-10 -6 -40 -11.5t-52 -5.5q-329 0 -520.5 204.5 t-191.5 556.5zM476 722q0 -209 92 -333t246 -124q153 0 245 124.5t92 332.5q0 207 -92 331.5t-245 124.5t-245.5 -124.5t-92.5 -331.5z" />
<glyph unicode="&#x1eb;" horiz-adv-x="1300" d="M83 557q0 270 152 426t415 156q264 0 415.5 -155.5t151.5 -426.5q0 -157 -62.5 -293.5t-176.5 -229.5q-146 -119 -146 -216q0 -50 31.5 -76.5t90.5 -26.5q52 0 70 8v-179q-59 -23 -156 -23q-130 0 -210.5 65t-80.5 166q0 63 36.5 120t95.5 88v19q-25 -5 -59 -5 q-267 0 -417 154t-150 429zM446 557q0 -149 53.5 -231t150.5 -82t150.5 82t53.5 231q0 146 -54 229t-150 83t-150 -83t-54 -229z" />
<glyph unicode="&#x1ec;" d="M102 722q0 349 192.5 554.5t519.5 205.5t518.5 -205t191.5 -555q0 -443 -344 -691q-150 -109 -150 -213q0 -47 31 -75t90 -28q49 0 71 8v-179q-58 -23 -156 -23q-130 0 -210.5 62t-80.5 161q0 67 38 126t93 89v19q-10 -6 -40 -11.5t-52 -5.5q-329 0 -520.5 204.5 t-191.5 556.5zM423 1637v198h782v-198h-782zM476 722q0 -209 92 -333t246 -124q153 0 245 124.5t92 332.5q0 207 -92 331.5t-245 124.5t-245.5 -124.5t-92.5 -331.5z" />
<glyph unicode="&#x1ed;" horiz-adv-x="1300" d="M83 557q0 270 152 426t415 156q264 0 415.5 -155.5t151.5 -426.5q0 -157 -62.5 -293.5t-176.5 -229.5q-146 -119 -146 -216q0 -50 31.5 -76.5t90.5 -26.5q52 0 70 8v-179q-59 -23 -156 -23q-130 0 -210.5 65t-80.5 166q0 63 36.5 120t95.5 88v19q-25 -5 -59 -5 q-267 0 -417 154t-150 429zM266 1327v198h768v-198h-768zM446 557q0 -149 53.5 -231t150.5 -82t150.5 82t53.5 231q0 146 -54 229t-150 83t-150 -83t-54 -229z" />
<glyph unicode="&#x1f1;" horiz-adv-x="2967" d="M170 0v1444h606q322 0 498.5 -185t176.5 -523q0 -355 -174.5 -545.5t-500.5 -190.5h-606zM537 295h173q179 0 273 110t94 324q0 201 -96.5 310.5t-270.5 109.5h-173v-854zM1698 0v233l677 896v19h-666v295h1106v-233l-677 -896v-19h698v-295h-1138z" />
<glyph unicode="&#x1f2;" horiz-adv-x="2758" d="M170 0v1444h606q322 0 498.5 -185t176.5 -523q0 -355 -174.5 -545.5t-500.5 -190.5h-606zM537 295h173q179 0 273 110t94 324q0 201 -96.5 310.5t-270.5 109.5h-173v-854zM1680 0v189l524 639v19h-512v266h936v-217l-477 -611v-19h495v-266h-966z" />
<glyph unicode="&#x1f3;" horiz-adv-x="2577" d="M83 559q0 266 119.5 418.5t327.5 152.5q112 0 197.5 -52t126.5 -144h19v596h354v-1530h-345v174h-19q-41 -90 -129 -140.5t-204 -50.5q-209 0 -328 153.5t-119 422.5zM446 557q0 -139 56.5 -217.5t157.5 -78.5t158 78.5t57 216.5t-57.5 217t-157.5 79t-157 -78.5 t-57 -216.5zM1500 0v189l524 639v19h-512v266h936v-217l-477 -611v-19h495v-266h-966z" />
<glyph unicode="&#x1f4;" horiz-adv-x="1572" d="M102 723q0 352 188 555.5t513 203.5q264 0 443.5 -140.5t206.5 -369.5h-362q-27 95 -103.5 149.5t-184.5 54.5q-154 0 -240.5 -119t-86.5 -330q0 -213 93.5 -336.5t251.5 -123.5q125 0 205 67t87 177l1 24h-264v252h618v-186q0 -298 -174.5 -469t-480.5 -171 q-333 0 -522 203t-189 559zM644 1598l258 326h362l-304 -326h-316z" />
<glyph unicode="&#x1f5;" horiz-adv-x="1360" d="M79 563q0 263 120.5 415t330.5 152q111 0 199 -52.5t130 -143.5h19v179h345v-1100q0 -199 -156 -315.5t-422 -116.5q-232 0 -377 91.5t-156 241.5h344q10 -45 63 -71.5t136 -26.5q102 0 158 45.5t56 128.5v201h-19q-87 -175 -328 -175q-204 0 -323.5 147.5t-119.5 399.5z M442 564q0 -134 56 -211t157 -77q102 0 159 76.5t57 210.5q0 135 -57.5 212t-158.5 77q-100 0 -156.5 -77t-56.5 -211zM494 1288l245 359h356l-292 -359h-309z" />
<glyph unicode="&#x1f8;" horiz-adv-x="1601" d="M170 0v1443h293l601 -812h19v812h348v-1443h-291l-603 820h-19v-820h-348zM351 1922h362l258 -326h-314z" />
<glyph unicode="&#x1f9;" horiz-adv-x="1332" d="M138 0v1113h344v-181h19q37 96 122 151.5t204 55.5q184 0 280.5 -109t96.5 -311v-719h-354v640q0 210 -175 210q-85 0 -134.5 -58.5t-49.5 -155.5v-636h-353zM259 1647h356l245 -359h-309z" />
<glyph unicode="&#x1fa;" horiz-adv-x="1563" d="M73 0l484 1443h449l485 -1443h-400l-90 317h-471l-93 -317h-364zM559 1746q0 93 63 152.5t161 59.5q96 0 159 -59.5t63 -152.5q0 -94 -63 -155t-159 -61q-97 0 -160.5 61t-63.5 155zM600 581h332l-155 537h-19zM644 2035l87 195h305l-115 -195h-277zM703 1744 q0 -34 22.5 -56t56.5 -22t56.5 22t22.5 56t-22.5 56t-56.5 22t-56.5 -22.5t-22.5 -55.5z" />
<glyph unicode="&#x1fb;" horiz-adv-x="1248" d="M81 320q0 152 114.5 238.5t330.5 99.5l243 14v87q0 57 -40.5 88.5t-113.5 31.5q-141 0 -176 -90h-318q12 162 150 256t364 94q230 0 356 -100t126 -280v-759h-344v138h-19q-37 -71 -122 -113t-191 -42q-161 0 -260.5 92.5t-99.5 244.5zM396 1453q0 101 67.5 166.5 t172.5 65.5t172.5 -65.5t67.5 -166.5t-67.5 -166.5t-172.5 -65.5t-172.5 65.5t-67.5 166.5zM422 345q0 -53 40.5 -84t107.5 -31q84 0 141.5 49t57.5 121v73l-187 -12q-78 -6 -119 -36t-41 -80zM519 1760l156 241h279l-201 -241h-234zM549 1453q0 -38 24.5 -62.5t62.5 -24.5 t62.5 24.5t24.5 62.5q0 37 -24.5 61.5t-62.5 24.5t-62.5 -24.5t-24.5 -61.5z" />
<glyph unicode="&#x1fc;" horiz-adv-x="2108" d="M73 0l566 1443h1326v-295h-646v-290h609v-270h-609v-293h646v-295h-973v327h-432l-125 -327h-362zM655 592h337v575h-120zM1408 1596l258 326h362l-304 -326h-316z" />
<glyph unicode="&#x1fd;" horiz-adv-x="1929" d="M81 320q0 152 114.5 238.5t330.5 99.5l243 14v63q0 71 -42.5 107.5t-111.5 36.5q-141 0 -176 -90h-318q11 153 141.5 251.5t325.5 98.5q249 0 362 -148h19q63 69 154.5 108.5t200.5 39.5q235 0 373 -151t138 -406v-104h-735v-29q2 -101 63 -162t160 -61q134 0 185 102 h320q-29 -161 -164.5 -257.5t-333.5 -96.5q-131 0 -235 49t-160 136h-19q-68 -86 -173.5 -135.5t-232.5 -49.5q-196 0 -312.5 96.5t-116.5 249.5zM422 342q0 -54 41 -85.5t110 -31.5q89 0 142.5 49.5t53.5 117.5v81l-187 -12q-78 -6 -119 -36.5t-41 -82.5zM829 1288l245 359 h356l-292 -359h-309zM1100 680h395q-5 94 -58 151t-135 57q-87 0 -143 -57.5t-59 -150.5z" />
<glyph unicode="&#x1fe;" horiz-adv-x="1614" d="M102 722q0 351 193 555.5t519 204.5q192 0 340 -73l65 106l113 -56l-71 -116q127 -99 195 -257.5t68 -363.5q0 -352 -192 -556.5t-518 -204.5q-201 0 -353 79l-72 -117l-103 62l73 120q-124 99 -190.5 256.5t-66.5 360.5zM476 722q0 -185 73 -305l434 711q-75 50 -169 50 q-153 0 -245.5 -124t-92.5 -332zM634 322q77 -57 180 -57q153 0 245 124t92 333q0 190 -79 313zM683 1596l258 326h362l-304 -326h-316z" />
<glyph unicode="&#x1ff;" horiz-adv-x="1300" d="M83 557q0 270 152 426t415 156q149 0 267 -52l64 107l108 -57l-68 -113q196 -156 196 -467q0 -275 -149.5 -429t-417.5 -154q-131 0 -239 40l-61 -101l-103 61l57 95q-107 73 -164 197.5t-57 290.5zM446 557q0 -117 34 -196l282 469q-48 39 -112 39q-96 0 -150 -83 t-54 -229zM469 1288l245 359h356l-292 -359h-309zM563 265q37 -21 87 -21q97 0 150.5 82t53.5 231q0 90 -21 156z" />
<glyph unicode="&#x200;" horiz-adv-x="1563" d="M73 0l484 1443h449l485 -1443h-400l-90 317h-471l-93 -317h-364zM180 1922h293l221 -326h-266zM600 581h332l-155 537h-19zM629 1922h293l221 -326h-265z" />
<glyph unicode="&#x201;" horiz-adv-x="1248" d="M73 1647h284l191 -359h-254zM81 320q0 152 114.5 238.5t330.5 99.5l243 14v87q0 57 -40.5 88.5t-113.5 31.5q-141 0 -176 -90h-318q12 162 150 256t364 94q230 0 356 -100t126 -280v-759h-344v138h-19q-37 -71 -122 -113t-191 -42q-161 0 -260.5 92.5t-99.5 244.5z M422 345q0 -53 40.5 -84t107.5 -31q84 0 141.5 49t57.5 121v73l-187 -12q-78 -6 -119 -36t-41 -80zM528 1647h284l191 -359h-254z" />
<glyph unicode="&#x202;" horiz-adv-x="1563" d="M73 0l484 1443h449l485 -1443h-400l-90 317h-471l-93 -317h-364zM364 1581q0 157 113.5 254t304.5 97t304.5 -97t113.5 -254h-236q-2 74 -51 117.5t-131 43.5t-131 -43.5t-51 -117.5h-236zM600 581h332l-155 537h-19z" />
<glyph unicode="&#x203;" horiz-adv-x="1248" d="M81 320q0 152 114.5 238.5t330.5 99.5l243 14v87q0 57 -40.5 88.5t-113.5 31.5q-141 0 -176 -90h-318q12 162 150 256t364 94q230 0 356 -100t126 -280v-759h-344v138h-19q-37 -71 -122 -113t-191 -42q-161 0 -260.5 92.5t-99.5 244.5zM218 1260q0 160 113 260t305 100 t305 -100t113 -260h-236q-2 78 -51 124t-131 46t-131 -46t-51 -124h-236zM422 345q0 -53 40.5 -84t107.5 -31q84 0 141.5 49t57.5 121v73l-187 -12q-78 -6 -119 -36t-41 -80z" />
<glyph unicode="&#x204;" horiz-adv-x="1302" d="M63 1922h293l221 -326h-266zM170 0v1443h989v-295h-622v-288h585v-270h-585v-295h622v-295h-989zM512 1922h293l221 -326h-265z" />
<glyph unicode="&#x205;" horiz-adv-x="1262" d="M74 1647h284l191 -359h-254zM83 549q0 275 147.5 432.5t406.5 157.5q257 0 400 -148.5t143 -414.5v-98h-749v-18q2 -109 61 -172t160 -63q77 0 128.5 27t69.5 76h323q-29 -163 -172 -258.5t-359 -95.5q-266 0 -412.5 150.5t-146.5 424.5zM433 681h404q-4 97 -56.5 152 t-141.5 55q-87 0 -143 -56.5t-63 -150.5zM529 1647h284l191 -359h-254z" />
<glyph unicode="&#x206;" horiz-adv-x="1302" d="M170 0v1443h989v-295h-622v-288h585v-270h-585v-295h622v-295h-989zM247 1581q0 157 113.5 254t304.5 97t304.5 -97t113.5 -254h-236q-2 74 -51 117.5t-131 43.5t-131 -43.5t-51 -117.5h-236z" />
<glyph unicode="&#x207;" horiz-adv-x="1262" d="M83 549q0 275 147.5 432.5t406.5 157.5q257 0 400 -148.5t143 -414.5v-98h-749v-18q2 -109 61 -172t160 -63q77 0 128.5 27t69.5 76h323q-29 -163 -172 -258.5t-359 -95.5q-266 0 -412.5 150.5t-146.5 424.5zM219 1260q0 160 113 260t305 100t305 -100t113 -260h-236 q-2 78 -51 124t-131 46t-131 -46t-51 -124h-236zM433 681h404q-4 97 -56.5 152t-141.5 55q-87 0 -143 -56.5t-63 -150.5z" />
<glyph unicode="&#x208;" horiz-adv-x="707" d="M-249 1922h293l221 -326h-266zM170 0v1443h367v-1443h-367zM200 1922h293l221 -326h-265z" />
<glyph unicode="&#x209;" horiz-adv-x="631" d="M-248 1647h284l191 -359h-254zM138 0v1113h354v-1113h-354zM207 1647h284l191 -359h-254z" />
<glyph unicode="&#x20a;" horiz-adv-x="707" d="M-65 1581q0 157 113.5 254t304.5 97t304.5 -97t113.5 -254h-236q-2 74 -51 117.5t-131 43.5t-131 -43.5t-51 -117.5h-236zM170 0v1443h367v-1443h-367z" />
<glyph unicode="&#x20b;" horiz-adv-x="631" d="M-103 1260q0 160 113 260t305 100t305 -100t113 -260h-236q-2 78 -51 124t-131 46t-131 -46t-51 -124h-236zM138 0v1113h354v-1113h-354z" />
<glyph unicode="&#x20c;" d="M102 722q0 351 193 555.5t519 204.5t518 -204.5t192 -555.5q0 -352 -192 -556.5t-518 -204.5q-328 0 -520 204.5t-192 556.5zM212 1922h293l221 -326h-266zM476 722q0 -209 92 -333t246 -124q153 0 245 124t92 333q0 208 -92.5 332t-244.5 124q-153 0 -245.5 -124 t-92.5 -332zM661 1922h293l221 -326h-265z" />
<glyph unicode="&#x20d;" horiz-adv-x="1300" d="M83 557q0 270 152 426t415 156q264 0 415.5 -155.5t151.5 -426.5q0 -275 -149.5 -429t-417.5 -154q-267 0 -417 154t-150 429zM87 1647h284l191 -359h-254zM446 557q0 -149 53.5 -231t150.5 -82t150.5 82t53.5 231q0 146 -54 229t-150 83t-150 -83t-54 -229zM542 1647 h284l191 -359h-254z" />
<glyph unicode="&#x20e;" d="M102 722q0 351 193 555.5t519 204.5t518 -204.5t192 -555.5q0 -352 -192 -556.5t-518 -204.5q-328 0 -520 204.5t-192 556.5zM396 1581q0 157 113.5 254t304.5 97t304.5 -97t113.5 -254h-236q-2 74 -51 117.5t-131 43.5t-131 -43.5t-51 -117.5h-236zM476 722 q0 -209 92 -333t246 -124q153 0 245 124t92 333q0 208 -92.5 332t-244.5 124q-153 0 -245.5 -124t-92.5 -332z" />
<glyph unicode="&#x20f;" horiz-adv-x="1300" d="M83 557q0 270 152 426t415 156q264 0 415.5 -155.5t151.5 -426.5q0 -275 -149.5 -429t-417.5 -154q-267 0 -417 154t-150 429zM232 1260q0 160 113 260t305 100t305 -100t113 -260h-236q-2 78 -51 124t-131 46t-131 -46t-51 -124h-236zM446 557q0 -149 53.5 -231 t150.5 -82t150.5 82t53.5 231q0 146 -54 229t-150 83t-150 -83t-54 -229z" />
<glyph unicode="&#x210;" horiz-adv-x="1466" d="M73 1922h293l221 -326h-266zM170 0v1443h635q253 0 396 -126.5t143 -349.5q0 -136 -65 -246.5t-181 -161.5l288 -559h-412l-247 505h-190v-505h-367zM522 1922h293l221 -326h-265zM537 764h217q101 0 158 53t57 147q0 92 -59 147t-157 55h-216v-402z" />
<glyph unicode="&#x211;" horiz-adv-x="950" d="M-78 1647h284l191 -359h-254zM138 0v1113h344v-183h19q21 86 96.5 143t177.5 57q88 0 128 -17v-301q-49 20 -152 20q-119 0 -189.5 -64t-70.5 -179v-589h-353zM377 1647h284l191 -359h-254z" />
<glyph unicode="&#x212;" horiz-adv-x="1466" d="M170 0v1443h635q253 0 396 -126.5t143 -349.5q0 -136 -65 -246.5t-181 -161.5l288 -559h-412l-247 505h-190v-505h-367zM257 1581q0 157 113.5 254t304.5 97t304.5 -97t113.5 -254h-236q-2 74 -51 117.5t-131 43.5t-131 -43.5t-51 -117.5h-236zM537 764h217q101 0 158 53 t57 147q0 92 -59 147t-157 55h-216v-402z" />
<glyph unicode="&#x213;" horiz-adv-x="950" d="M67 1260q0 160 113 260t305 100t305 -100t113 -260h-236q-2 78 -51 124t-131 46t-131 -46t-51 -124h-236zM138 0v1113h344v-183h19q21 86 96.5 143t177.5 57q88 0 128 -17v-301q-49 20 -152 20q-119 0 -189.5 -64t-70.5 -179v-589h-353z" />
<glyph unicode="&#x214;" horiz-adv-x="1586" d="M171 498v945h367v-906q0 -126 66.5 -196.5t188.5 -70.5t188 70t66 197v906h367v-945q0 -243 -170 -390t-451 -147t-451.5 147t-170.5 390zM191 1922h293l221 -326h-266zM640 1922h293l221 -326h-265z" />
<glyph unicode="&#x215;" horiz-adv-x="1340" d="M102 1647h284l191 -359h-254zM128 386v727h353v-640q0 -101 47.5 -154.5t133.5 -53.5q89 0 137.5 56.5t48.5 155.5v636h354v-1113h-344v180h-19q-82 -206 -316 -206q-179 0 -287 110.5t-108 301.5zM557 1647h284l191 -359h-254z" />
<glyph unicode="&#x216;" horiz-adv-x="1586" d="M171 498v945h367v-906q0 -126 66.5 -196.5t188.5 -70.5t188 70t66 197v906h367v-945q0 -243 -170 -390t-451 -147t-451.5 147t-170.5 390zM375 1581q0 157 113.5 254t304.5 97t304.5 -97t113.5 -254h-236q-2 74 -51 117.5t-131 43.5t-131 -43.5t-51 -117.5h-236z" />
<glyph unicode="&#x217;" horiz-adv-x="1340" d="M128 386v727h353v-640q0 -101 47.5 -154.5t133.5 -53.5q89 0 137.5 56.5t48.5 155.5v636h354v-1113h-344v180h-19q-82 -206 -316 -206q-179 0 -287 110.5t-108 301.5zM247 1260q0 160 113 260t305 100t305 -100t113 -260h-236q-2 78 -51 124t-131 46t-131 -46t-51 -124 h-236z" />
<glyph unicode="&#x218;" horiz-adv-x="1423" d="M107 411h350q7 -79 79.5 -125.5t186.5 -46.5q103 0 167 45t64 116q0 60 -52 95.5t-176 60.5l-190 38q-198 37 -299 144t-101 277q0 212 156.5 339.5t417.5 127.5q253 0 413 -125t165 -325h-339q-6 76 -71.5 124.5t-162.5 48.5t-155.5 -42.5t-58.5 -114.5q0 -59 51 -96 t165 -59l186 -36q214 -41 313.5 -141t99.5 -272q0 -226 -162 -354.5t-446 -128.5q-274 0 -435.5 121t-165.5 329zM391 -505l148 350h351l-193 -350h-306z" />
<glyph unicode="&#x219;" horiz-adv-x="1206" d="M86 319h341q28 -106 185 -106q73 0 116.5 27t43.5 72q0 35 -27.5 56t-94.5 35l-207 44q-330 70 -330 331q0 166 132 263.5t357 97.5q231 0 355.5 -87.5t134.5 -255.5h-322q-8 49 -51 76.5t-114 27.5q-69 0 -112.5 -27.5t-43.5 -72.5q0 -35 30.5 -57.5t97.5 -36.5l230 -47 q165 -35 239.5 -107.5t74.5 -198.5q0 -173 -140 -276t-374 -103q-239 0 -372.5 88.5t-148.5 256.5zM290 -505l148 350h351l-193 -350h-306z" />
<glyph unicode="&#x21a;" horiz-adv-x="1381" d="M91 1148v295h1199v-295h-417v-1148h-366v1148h-416zM369 -505l148 350h351l-193 -350h-306z" />
<glyph unicode="&#x21b;" horiz-adv-x="898" d="M55 835v263h171v270h353v-270h224v-263h-224v-451q0 -125 135 -125q46 0 89 5v-252q-65 -14 -169 -14q-219 0 -313.5 71.5t-94.5 235.5v530h-171zM203 -505l148 350h351l-193 -350h-306z" />
<glyph unicode="&#x21e;" horiz-adv-x="1648" d="M170 0v1443h367v-566h575v566h366v-1443h-366v582h-575v-582h-367zM402 1922h280l131 -173h22l131 173h280l-271 -326h-302z" />
<glyph unicode="&#x21f;" horiz-adv-x="1355" d="M-101 2009h280l131 -173h22l131 173h280l-271 -326h-302zM148 0v1530h346v-602h19q37 96 125 151t208 55q182 0 281.5 -108.5t99.5 -310.5v-715h-353v635q0 103 -46 157t-134 54q-90 0 -141.5 -59t-51.5 -156v-631h-353z" />
<glyph unicode="&#x226;" horiz-adv-x="1563" d="M73 0l484 1443h449l485 -1443h-400l-90 317h-471l-93 -317h-364zM600 581h332l-155 537h-19zM605 1753q0 75 49 123.5t128 48.5q78 0 127 -48.5t49 -123.5t-49 -123.5t-127 -48.5q-79 0 -128 48.5t-49 123.5z" />
<glyph unicode="&#x227;" horiz-adv-x="1248" d="M81 320q0 152 114.5 238.5t330.5 99.5l243 14v87q0 57 -40.5 88.5t-113.5 31.5q-141 0 -176 -90h-318q12 162 150 256t364 94q230 0 356 -100t126 -280v-759h-344v138h-19q-37 -71 -122 -113t-191 -42q-161 0 -260.5 92.5t-99.5 244.5zM422 345q0 -53 40.5 -84t107.5 -31 q84 0 141.5 49t57.5 121v73l-187 -12q-78 -6 -119 -36t-41 -80zM458 1447q0 76 49.5 125t128.5 49t128.5 -49t49.5 -125q0 -75 -49.5 -124t-128.5 -49t-128.5 49t-49.5 124z" />
<glyph unicode="&#x228;" horiz-adv-x="1302" d="M170 0v1443h989v-295h-622v-288h585v-270h-585v-295h622v-295h-388l-42 -98q91 -7 138.5 -53.5t47.5 -128.5q0 -101 -72.5 -156t-206.5 -55q-92 0 -148 18v144q40 -14 113 -14q108 0 108 53q0 28 -28.5 40.5t-91.5 12.5h-61v128l48 109h-406z" />
<glyph unicode="&#x229;" horiz-adv-x="1262" d="M83 549q0 275 147.5 432.5t406.5 157.5q257 0 400 -148.5t143 -414.5v-98h-749v-18q2 -109 61 -172t160 -63q77 0 128.5 27t69.5 76h323q-25 -143 -140.5 -235.5t-293.5 -113.5l-33 -77q91 -7 138.5 -53.5t47.5 -128.5q0 -101 -72.5 -156t-206.5 -55q-92 0 -148 18v144 q40 -14 113 -14q108 0 108 53q0 28 -28.5 40.5t-91.5 12.5h-61v128l39 89q-221 27 -341 174.5t-120 394.5zM433 681h404q-4 97 -56.5 152t-141.5 55q-87 0 -143 -56.5t-63 -150.5z" />
<glyph unicode="&#x22a;" d="M102 722q0 351 193 555.5t519 204.5t518 -204.5t192 -555.5q0 -352 -192 -556.5t-518 -204.5q-328 0 -520 204.5t-192 556.5zM390 1744q0 72 48.5 117.5t124.5 45.5t124 -45.5t48 -117.5t-48 -117.5t-124 -45.5t-124.5 45.5t-48.5 117.5zM423 2021v183h782v-183h-782z M476 722q0 -209 92 -333t246 -124q153 0 245 124t92 333q0 208 -92.5 332t-244.5 124q-153 0 -245.5 -124t-92.5 -332zM893 1744q0 72 48 117.5t124 45.5t124.5 -45.5t48.5 -117.5t-48.5 -117.5t-124.5 -45.5t-124 45.5t-48 117.5z" />
<glyph unicode="&#x22b;" horiz-adv-x="1300" d="M83 557q0 270 152 426t415 156q264 0 415.5 -155.5t151.5 -426.5q0 -275 -149.5 -429t-417.5 -154q-267 0 -417 154t-150 429zM257 1415q0 68 45.5 112.5t116.5 44.5t116 -44.5t45 -112.5q0 -66 -45 -110.5t-116 -44.5t-116.5 44.5t-45.5 110.5zM266 1699v198h768v-198 h-768zM446 557q0 -149 53.5 -231t150.5 -82t150.5 82t53.5 231q0 146 -54 229t-150 83t-150 -83t-54 -229zM720 1415q0 68 45 112.5t116 44.5t116.5 -44.5t45.5 -112.5q0 -66 -45.5 -110.5t-116.5 -44.5t-116 44.5t-45 110.5z" />
<glyph unicode="&#x22c;" d="M102 722q0 351 193 555.5t519 204.5t518 -204.5t192 -555.5q0 -352 -192 -556.5t-518 -204.5q-328 0 -520 204.5t-192 556.5zM395 1589q0 143 72 222t186 79q53 0 98 -18.5t71 -40t58 -40t62 -18.5q78 0 82 105h209q0 -140 -72 -218.5t-186 -78.5q-53 0 -98 18.5t-71 40 t-58 40t-62 18.5q-78 0 -82 -109h-209zM423 2008v196h782v-196h-782zM476 722q0 -209 92 -333t246 -124q153 0 245 124t92 333q0 208 -92.5 332t-244.5 124q-153 0 -245.5 -124t-92.5 -332z" />
<glyph unicode="&#x22d;" horiz-adv-x="1300" d="M83 557q0 270 152 426t415 156q264 0 415.5 -155.5t151.5 -426.5q0 -275 -149.5 -429t-417.5 -154q-267 0 -417 154t-150 429zM217 1264q0 149 76.5 241t200.5 92q40 0 76.5 -14.5t61.5 -35t47.5 -40.5t45 -34.5t43.5 -14.5q38 0 60 34t23 97h210q0 -147 -76 -238 t-200 -91q-49 0 -93.5 22t-70 48t-55.5 48t-55 22q-38 0 -60 -36t-24 -100h-210zM266 1701v198h768v-198h-768zM446 557q0 -149 53.5 -231t150.5 -82t150.5 82t53.5 231q0 146 -54 229t-150 83t-150 -83t-54 -229z" />
<glyph unicode="&#x22e;" d="M102 722q0 351 193 555.5t519 204.5t518 -204.5t192 -555.5q0 -352 -192 -556.5t-518 -204.5q-328 0 -520 204.5t-192 556.5zM476 722q0 -209 92 -333t246 -124q153 0 245 124t92 333q0 208 -92.5 332t-244.5 124q-153 0 -245.5 -124t-92.5 -332zM637 1753q0 75 49 123.5 t128 48.5q78 0 127 -48.5t49 -123.5t-49 -123.5t-127 -48.5q-79 0 -128 48.5t-49 123.5z" />
<glyph unicode="&#x22f;" horiz-adv-x="1300" d="M83 557q0 270 152 426t415 156q264 0 415.5 -155.5t151.5 -426.5q0 -275 -149.5 -429t-417.5 -154q-267 0 -417 154t-150 429zM446 557q0 -149 53.5 -231t150.5 -82t150.5 82t53.5 231q0 146 -54 229t-150 83t-150 -83t-54 -229zM472 1447q0 76 49.5 125t128.5 49 t128.5 -49t49.5 -125q0 -75 -49.5 -124t-128.5 -49t-128.5 49t-49.5 124z" />
<glyph unicode="&#x230;" d="M102 722q0 351 193 555.5t519 204.5t518 -204.5t192 -555.5q0 -352 -192 -556.5t-518 -204.5q-328 0 -520 204.5t-192 556.5zM423 2021v183h782v-183h-782zM476 722q0 -209 92 -333t246 -124q153 0 245 124t92 333q0 208 -92.5 332t-244.5 124q-153 0 -245.5 -124 t-92.5 -332zM638 1736q0 69 49 114.5t127 45.5t127 -45.5t49 -114.5q0 -70 -49 -115.5t-127 -45.5t-127 45.5t-49 115.5z" />
<glyph unicode="&#x2c6;" horiz-adv-x="1102" d="M111 1260l271 359h338l271 -359h-297l-134 202h-19l-133 -202h-297z" />
<glyph unicode="&#x2da;" horiz-adv-x="1102" d="M298 1505q0 106 71.5 174t182.5 68q110 0 180.5 -68t70.5 -174q0 -107 -71 -176t-180 -69q-110 0 -182 69t-72 176zM454 1504q0 -43 27.5 -70t69.5 -27q43 0 70 27.5t27 69.5q0 41 -28 68.5t-69 27.5q-42 -1 -69.5 -28t-27.5 -68z" />
<glyph unicode="&#x2dc;" horiz-adv-x="1101" d="M128 1272q0 149 76.5 241t200.5 92q40 0 76.5 -14.5t61.5 -35t47.5 -40.5t45 -34.5t43.5 -14.5q38 0 60 34t23 97h210q0 -147 -76 -238t-200 -91q-49 0 -93.5 22t-70 48t-55.5 48t-55 22q-38 0 -60 -36t-24 -100h-210z" />
<glyph unicode="&#x1e00;" horiz-adv-x="1563" d="M73 0l484 1443h449l485 -1443h-400l-90 317h-471l-93 -317h-364zM511 -324q0 106 71.5 174t182.5 68q110 0 180.5 -68t70.5 -174q0 -107 -71 -176t-180 -69q-110 0 -182 69t-72 176zM600 581h332l-155 537h-19zM667 -325q0 -43 27.5 -70t69.5 -27q43 0 70 27.5t27 69.5 q0 41 -28 68.5t-69 27.5q-42 -1 -69.5 -28t-27.5 -68z" />
<glyph unicode="&#x1e01;" horiz-adv-x="1248" d="M81 320q0 152 114.5 238.5t330.5 99.5l243 14v87q0 57 -40.5 88.5t-113.5 31.5q-141 0 -176 -90h-318q12 162 150 256t364 94q230 0 356 -100t126 -280v-759h-344v138h-19q-37 -71 -122 -113t-191 -42q-161 0 -260.5 92.5t-99.5 244.5zM377 -324q0 106 71.5 174t182.5 68 q110 0 180.5 -68t70.5 -174q0 -107 -71 -176t-180 -69q-110 0 -182 69t-72 176zM422 345q0 -53 40.5 -84t107.5 -31q84 0 141.5 49t57.5 121v73l-187 -12q-78 -6 -119 -36t-41 -80zM533 -325q0 -43 27.5 -70t69.5 -27q43 0 70 27.5t27 69.5q0 41 -28 68.5t-69 27.5 q-42 -1 -69.5 -28t-27.5 -68z" />
<glyph unicode="&#x1e02;" horiz-adv-x="1459" d="M170 0v1443h673q215 0 336.5 -96t121.5 -264q0 -116 -77 -203.5t-192 -103.5v-19q142 -8 238.5 -105.5t96.5 -235.5q0 -190 -136.5 -303t-367.5 -113h-693zM486 1753q0 75 49 123.5t128 48.5q78 0 127 -48.5t49 -123.5t-49 -123.5t-127 -48.5q-79 0 -128 48.5t-49 123.5z M537 259h222q114 0 174.5 48.5t60.5 140.5q0 89 -61.5 136.5t-175.5 47.5h-220v-373zM537 855h194q100 0 156 43.5t56 120.5t-52.5 121t-145.5 44h-208v-329z" />
<glyph unicode="&#x1e03;" horiz-adv-x="1374" d="M147 1840q0 75 49 123.5t128 48.5q78 0 127 -48.5t49 -123.5t-49 -123.5t-127 -48.5q-79 0 -128 48.5t-49 123.5zM148 0v1530h353v-596h19q41 93 126.5 144.5t200.5 51.5q211 0 327.5 -150.5t116.5 -422.5q0 -271 -117.5 -422.5t-326.5 -151.5q-119 0 -207.5 50.5 t-128.5 140.5h-19v-174h-344zM499 556q1 -137 58.5 -216t157.5 -79q99 0 156 79.5t57 216.5q0 136 -57.5 215.5t-155.5 79.5q-99 0 -157 -79.5t-59 -216.5z" />
<glyph unicode="&#x1e04;" horiz-adv-x="1459" d="M170 0v1443h673q215 0 336.5 -96t121.5 -264q0 -116 -77 -203.5t-192 -103.5v-19q142 -8 238.5 -105.5t96.5 -235.5q0 -190 -136.5 -303t-367.5 -113h-693zM486 -275q0 75 49 123.5t128 48.5q78 0 127 -48.5t49 -123.5t-49 -123.5t-127 -48.5q-79 0 -128 48.5t-49 123.5z M537 259h222q114 0 174.5 48.5t60.5 140.5q0 89 -61.5 136.5t-175.5 47.5h-220v-373zM537 855h194q100 0 156 43.5t56 120.5t-52.5 121t-145.5 44h-208v-329z" />
<glyph unicode="&#x1e05;" horiz-adv-x="1374" d="M148 0v1530h353v-596h19q41 93 126.5 144.5t200.5 51.5q211 0 327.5 -150.5t116.5 -422.5q0 -271 -117.5 -422.5t-326.5 -151.5q-119 0 -207.5 50.5t-128.5 140.5h-19v-174h-344zM474 -275q0 75 49 123.5t128 48.5q78 0 127 -48.5t49 -123.5t-49 -123.5t-127 -48.5 q-79 0 -128 48.5t-49 123.5zM499 556q1 -137 58.5 -216t157.5 -79q99 0 156 79.5t57 216.5q0 136 -57.5 215.5t-155.5 79.5q-99 0 -157 -79.5t-59 -216.5z" />
<glyph unicode="&#x1e06;" horiz-adv-x="1459" d="M170 0v1443h673q215 0 336.5 -96t121.5 -264q0 -116 -77 -203.5t-192 -103.5v-19q142 -8 238.5 -105.5t96.5 -235.5q0 -190 -136.5 -303t-367.5 -113h-693zM272 -224h782v-198h-782v198zM537 259h222q114 0 174.5 48.5t60.5 140.5q0 89 -61.5 136.5t-175.5 47.5h-220 v-373zM537 855h194q100 0 156 43.5t56 120.5t-52.5 121t-145.5 44h-208v-329z" />
<glyph unicode="&#x1e07;" horiz-adv-x="1374" d="M148 0v1530h353v-596h19q41 93 126.5 144.5t200.5 51.5q211 0 327.5 -150.5t116.5 -422.5q0 -271 -117.5 -422.5t-326.5 -151.5q-119 0 -207.5 50.5t-128.5 140.5h-19v-174h-344zM260 -224h782v-198h-782v198zM499 556q1 -137 58.5 -216t157.5 -79q99 0 156 79.5 t57 216.5q0 136 -57.5 215.5t-155.5 79.5q-99 0 -157 -79.5t-59 -216.5z" />
<glyph unicode="&#x1e08;" horiz-adv-x="1545" d="M102 722q0 353 186.5 556.5t511.5 203.5q179 0 325.5 -73.5t232.5 -204t91 -291.5h-353q-14 118 -96 190.5t-200 72.5q-151 0 -237.5 -121t-86.5 -332q0 -212 87 -334t238 -122q119 0 200 70.5t97 186.5h352q-8 -226 -162.5 -379t-396.5 -179l-27 -64q91 -7 138.5 -53.5 t47.5 -128.5q0 -101 -72.5 -156t-206.5 -55q-92 0 -148 18v144q40 -14 113 -14q108 0 108 53q0 28 -28.5 40.5t-91.5 12.5h-61v128l33 76q-278 32 -436 232t-158 523zM641 1597l258 326h362l-304 -326h-316z" />
<glyph unicode="&#x1e09;" horiz-adv-x="1233" d="M83 558q0 284 144 432.5t419 148.5q228 0 361.5 -116t150.5 -322h-325q-11 79 -59 122.5t-128 43.5q-208 0 -208 -309q0 -312 208 -312q163 0 187 158h325q-14 -177 -123 -288.5t-292 -135.5l-33 -78q91 -7 138.5 -53.5t47.5 -128.5q0 -101 -72.5 -156t-206.5 -55 q-92 0 -148 18v144q40 -14 113 -14q108 0 108 53q0 28 -28.5 40.5t-91.5 12.5h-61v128l39 88q-228 26 -346.5 173.5t-118.5 405.5zM469 1288l245 359h356l-292 -359h-309z" />
<glyph unicode="&#x1e0a;" horiz-adv-x="1553" d="M170 0v1444h606q322 0 498.5 -185t176.5 -523q0 -355 -174.5 -545.5t-500.5 -190.5h-606zM486 1753q0 75 49 123.5t128 48.5q78 0 127 -48.5t49 -123.5t-49 -123.5t-127 -48.5q-79 0 -128 48.5t-49 123.5zM537 295h173q179 0 273 110t94 324q0 201 -96.5 310.5 t-270.5 109.5h-173v-854z" />
<glyph unicode="&#x1e0b;" horiz-adv-x="1374" d="M83 559q0 266 119.5 418.5t327.5 152.5q112 0 197.5 -52t126.5 -144h19v596h354v-1530h-345v174h-19q-41 -90 -129 -140.5t-204 -50.5q-209 0 -328 153.5t-119 422.5zM446 557q0 -139 56.5 -217.5t157.5 -78.5t158 78.5t57 216.5t-57.5 217t-157.5 79t-157 -78.5 t-57 -216.5zM873 1840q0 75 49 123.5t128 48.5q78 0 127 -48.5t49 -123.5t-49 -123.5t-127 -48.5q-79 0 -128 48.5t-49 123.5z" />
<glyph unicode="&#x1e0c;" horiz-adv-x="1553" d="M170 0v1444h606q322 0 498.5 -185t176.5 -523q0 -355 -174.5 -545.5t-500.5 -190.5h-606zM486 -275q0 75 49 123.5t128 48.5q78 0 127 -48.5t49 -123.5t-49 -123.5t-127 -48.5q-79 0 -128 48.5t-49 123.5zM537 295h173q179 0 273 110t94 324q0 201 -96.5 310.5 t-270.5 109.5h-173v-854z" />
<glyph unicode="&#x1e0d;" horiz-adv-x="1374" d="M83 559q0 266 119.5 418.5t327.5 152.5q112 0 197.5 -52t126.5 -144h19v596h354v-1530h-345v174h-19q-41 -90 -129 -140.5t-204 -50.5q-209 0 -328 153.5t-119 422.5zM446 557q0 -139 56.5 -217.5t157.5 -78.5t158 78.5t57 216.5t-57.5 217t-157.5 79t-157 -78.5 t-57 -216.5zM532 -275q0 75 49 123.5t128 48.5q78 0 127 -48.5t49 -123.5t-49 -123.5t-127 -48.5q-79 0 -128 48.5t-49 123.5z" />
<glyph unicode="&#x1e0e;" horiz-adv-x="1553" d="M170 0v1444h606q322 0 498.5 -185t176.5 -523q0 -355 -174.5 -545.5t-500.5 -190.5h-606zM272 -224h782v-198h-782v198zM537 295h173q179 0 273 110t94 324q0 201 -96.5 310.5t-270.5 109.5h-173v-854z" />
<glyph unicode="&#x1e0f;" horiz-adv-x="1374" d="M83 559q0 266 119.5 418.5t327.5 152.5q112 0 197.5 -52t126.5 -144h19v596h354v-1530h-345v174h-19q-41 -90 -129 -140.5t-204 -50.5q-209 0 -328 153.5t-119 422.5zM318 -224h782v-198h-782v198zM446 557q0 -139 56.5 -217.5t157.5 -78.5t158 78.5t57 216.5t-57.5 217 t-157.5 79t-157 -78.5t-57 -216.5z" />
<glyph unicode="&#x1e10;" horiz-adv-x="1553" d="M170 0v1444h606q322 0 498.5 -185t176.5 -523q0 -355 -174.5 -545.5t-500.5 -190.5h-606zM346 -505l148 350h351l-193 -350h-306zM537 295h173q179 0 273 110t94 324q0 201 -96.5 310.5t-270.5 109.5h-173v-854z" />
<glyph unicode="&#x1e11;" horiz-adv-x="1374" d="M83 559q0 266 119.5 418.5t327.5 152.5q112 0 197.5 -52t126.5 -144h19v596h354v-1530h-345v174h-19q-41 -90 -129 -140.5t-204 -50.5q-209 0 -328 153.5t-119 422.5zM392 -505l148 350h351l-193 -350h-306zM446 557q0 -139 56.5 -217.5t157.5 -78.5t158 78.5t57 216.5 t-57.5 217t-157.5 79t-157 -78.5t-57 -216.5z" />
<glyph unicode="&#x1e12;" horiz-adv-x="1553" d="M170 0v1444h606q322 0 498.5 -185t176.5 -523q0 -355 -174.5 -545.5t-500.5 -190.5h-606zM223 -481l275 350h330l275 -350h-298l-132 190h-20l-132 -190h-298zM537 295h173q179 0 273 110t94 324q0 201 -96.5 310.5t-270.5 109.5h-173v-854z" />
<glyph unicode="&#x1e13;" horiz-adv-x="1374" d="M83 559q0 266 119.5 418.5t327.5 152.5q112 0 197.5 -52t126.5 -144h19v596h354v-1530h-345v174h-19q-41 -90 -129 -140.5t-204 -50.5q-209 0 -328 153.5t-119 422.5zM269 -481l275 350h330l275 -350h-298l-132 190h-20l-132 -190h-298zM446 557q0 -139 56.5 -217.5 t157.5 -78.5t158 78.5t57 216.5t-57.5 217t-157.5 79t-157 -78.5t-57 -216.5z" />
<glyph unicode="&#x1e14;" horiz-adv-x="1302" d="M170 0v1443h989v-295h-622v-288h585v-270h-585v-295h622v-295h-989zM274 1607v196h782v-196h-782zM349 2212h320l126 -280h-288z" />
<glyph unicode="&#x1e15;" horiz-adv-x="1262" d="M83 549q0 275 147.5 432.5t406.5 157.5q257 0 400 -148.5t143 -414.5v-98h-749v-18q2 -109 61 -172t160 -63q77 0 128.5 27t69.5 76h323q-29 -163 -172 -258.5t-359 -95.5q-266 0 -412.5 150.5t-146.5 424.5zM238 1985h329l217 -316h-282zM253 1322v198h768v-198h-768z M433 681h404q-4 97 -56.5 152t-141.5 55q-87 0 -143 -56.5t-63 -150.5z" />
<glyph unicode="&#x1e16;" horiz-adv-x="1302" d="M170 0v1443h989v-295h-622v-288h585v-270h-585v-295h622v-295h-989zM274 1607v196h782v-196h-782zM535 1932l126 280h320l-158 -280h-288z" />
<glyph unicode="&#x1e17;" horiz-adv-x="1262" d="M83 549q0 275 147.5 432.5t406.5 157.5q257 0 400 -148.5t143 -414.5v-98h-749v-18q2 -109 61 -172t160 -63q77 0 128.5 27t69.5 76h323q-29 -163 -172 -258.5t-359 -95.5q-266 0 -412.5 150.5t-146.5 424.5zM253 1322v198h768v-198h-768zM433 681h404q-4 97 -56.5 152 t-141.5 55q-87 0 -143 -56.5t-63 -150.5zM490 1669l217 316h329l-264 -316h-282z" />
<glyph unicode="&#x1e18;" horiz-adv-x="1302" d="M170 0v1443h989v-295h-622v-288h585v-270h-585v-295h622v-295h-989zM225 -481l275 350h330l275 -350h-298l-132 190h-20l-132 -190h-298z" />
<glyph unicode="&#x1e19;" horiz-adv-x="1262" d="M83 549q0 275 147.5 432.5t406.5 157.5q257 0 400 -148.5t143 -414.5v-98h-749v-18q2 -109 61 -172t160 -63q77 0 128.5 27t69.5 76h323q-29 -163 -172 -258.5t-359 -95.5q-266 0 -412.5 150.5t-146.5 424.5zM202 -481l275 350h330l275 -350h-298l-132 190h-20l-132 -190 h-298zM433 681h404q-4 97 -56.5 152t-141.5 55q-87 0 -143 -56.5t-63 -150.5z" />
<glyph unicode="&#x1e1a;" horiz-adv-x="1302" d="M170 0v1443h989v-295h-622v-288h585v-270h-585v-295h622v-295h-989zM244 -438q0 149 76.5 241t200.5 92q40 0 76.5 -14.5t61.5 -34.5t47.5 -40.5t45 -35t43.5 -14.5q38 0 60 34t23 97h210q0 -147 -76 -238t-200 -91q-49 0 -93.5 22t-70 48t-55.5 48t-55 22q-38 0 -60 -36 t-24 -100h-210z" />
<glyph unicode="&#x1e1b;" horiz-adv-x="1262" d="M83 549q0 275 147.5 432.5t406.5 157.5q257 0 400 -148.5t143 -414.5v-98h-749v-18q2 -109 61 -172t160 -63q77 0 128.5 27t69.5 76h323q-29 -163 -172 -258.5t-359 -95.5q-266 0 -412.5 150.5t-146.5 424.5zM221 -438q0 149 76.5 241t200.5 92q40 0 76.5 -14.5 t61.5 -34.5t47.5 -40.5t45 -35t43.5 -14.5q38 0 60 34t23 97h210q0 -147 -76 -238t-200 -91q-49 0 -93.5 22t-70 48t-55.5 48t-55 22q-38 0 -60 -36t-24 -100h-210zM433 681h404q-4 97 -56.5 152t-141.5 55q-87 0 -143 -56.5t-63 -150.5z" />
<glyph unicode="&#x1e1c;" horiz-adv-x="1302" d="M170 0v1443h989v-295h-622v-288h585v-270h-585v-295h622v-295h-388l-42 -98q91 -7 138.5 -53.5t47.5 -128.5q0 -101 -72.5 -156t-206.5 -55q-92 0 -148 18v144q40 -14 113 -14q108 0 108 53q0 28 -28.5 40.5t-91.5 12.5h-61v128l48 109h-406zM247 1932h236 q2 -74 51 -117.5t131 -43.5t131 43.5t51 117.5h236q0 -157 -113.5 -254t-304.5 -97t-304.5 97t-113.5 254z" />
<glyph unicode="&#x1e1d;" horiz-adv-x="1262" d="M83 549q0 275 147.5 432.5t406.5 157.5q257 0 400 -148.5t143 -414.5v-98h-749v-18q2 -109 61 -172t160 -63q77 0 128.5 27t69.5 76h323q-25 -143 -140.5 -235.5t-293.5 -113.5l-33 -77q91 -7 138.5 -53.5t47.5 -128.5q0 -101 -72.5 -156t-206.5 -55q-92 0 -148 18v144 q40 -14 113 -14q108 0 108 53q0 28 -28.5 40.5t-91.5 12.5h-61v128l39 89q-221 27 -341 174.5t-120 394.5zM219 1620h236q2 -78 51 -123.5t131 -45.5t131 45.5t51 123.5h236q0 -160 -113 -260t-305 -100t-305 100t-113 260zM433 681h404q-4 97 -56.5 152t-141.5 55 q-87 0 -143 -56.5t-63 -150.5z" />
<glyph unicode="&#x1e1e;" horiz-adv-x="1251" d="M170 0v1443h982v-295h-615v-329h558v-281h-558v-538h-367zM484 1753q0 75 49 123.5t128 48.5q78 0 127 -48.5t49 -123.5t-49 -123.5t-127 -48.5q-79 0 -128 48.5t-49 123.5z" />
<glyph unicode="&#x1e1f;" horiz-adv-x="882" d="M51 835v263h178v108q0 170 96.5 252.5t315.5 82.5q97 0 168 -11v-233q-34 6 -90 6q-79 0 -112.5 -30t-33.5 -95v-80h227v-263h-218v-835h-353v835h-178zM302 1803q0 75 49 123.5t128 48.5q78 0 127 -48.5t49 -123.5t-49 -123.5t-127 -48.5q-79 0 -128 48.5t-49 123.5z " />
<glyph unicode="&#x1e20;" horiz-adv-x="1572" d="M102 723q0 352 188 555.5t513 203.5q264 0 443.5 -140.5t206.5 -369.5h-362q-27 95 -103.5 149.5t-184.5 54.5q-154 0 -240.5 -119t-86.5 -330q0 -213 93.5 -336.5t251.5 -123.5q125 0 205 67t87 177l1 24h-264v252h618v-186q0 -298 -174.5 -469t-480.5 -171 q-333 0 -522 203t-189 559zM412 1639v198h782v-198h-782z" />
<glyph unicode="&#x1e21;" horiz-adv-x="1360" d="M79 563q0 263 120.5 415t330.5 152q111 0 199 -52.5t130 -143.5h19v179h345v-1100q0 -199 -156 -315.5t-422 -116.5q-232 0 -377 91.5t-156 241.5h344q10 -45 63 -71.5t136 -26.5q102 0 158 45.5t56 128.5v201h-19q-87 -175 -328 -175q-204 0 -323.5 147.5t-119.5 399.5z M286 1327v198h768v-198h-768zM442 564q0 -134 56 -211t157 -77q102 0 159 76.5t57 210.5q0 135 -57.5 212t-158.5 77q-100 0 -156.5 -77t-56.5 -211z" />
<glyph unicode="&#x1e22;" horiz-adv-x="1648" d="M170 0v1443h367v-566h575v566h366v-1443h-366v582h-575v-582h-367zM647 1753q0 75 49 123.5t128 48.5q78 0 127 -48.5t49 -123.5t-49 -123.5t-127 -48.5q-79 0 -128 48.5t-49 123.5z" />
<glyph unicode="&#x1e23;" horiz-adv-x="1355" d="M144 1840q0 75 49 123.5t128 48.5q78 0 127 -48.5t49 -123.5t-49 -123.5t-127 -48.5q-79 0 -128 48.5t-49 123.5zM148 0v1530h346v-602h19q37 96 125 151t208 55q182 0 281.5 -108.5t99.5 -310.5v-715h-353v635q0 103 -46 157t-134 54q-90 0 -141.5 -59t-51.5 -156v-631 h-353z" />
<glyph unicode="&#x1e24;" horiz-adv-x="1648" d="M170 0v1443h367v-566h575v566h366v-1443h-366v582h-575v-582h-367zM647 -275q0 75 49 123.5t128 48.5q78 0 127 -48.5t49 -123.5t-49 -123.5t-127 -48.5q-79 0 -128 48.5t-49 123.5z" />
<glyph unicode="&#x1e25;" horiz-adv-x="1355" d="M148 0v1530h346v-602h19q37 96 125 151t208 55q182 0 281.5 -108.5t99.5 -310.5v-715h-353v635q0 103 -46 157t-134 54q-90 0 -141.5 -59t-51.5 -156v-631h-353zM522 -275q0 75 49 123.5t128 48.5q78 0 127 -48.5t49 -123.5t-49 -123.5t-127 -48.5q-79 0 -128 48.5 t-49 123.5z" />
<glyph unicode="&#x1e26;" horiz-adv-x="1648" d="M170 0v1443h367v-566h575v566h366v-1443h-366v582h-575v-582h-367zM400 1745q0 72 48.5 118t124.5 46t124.5 -46t48.5 -118t-48.5 -118t-124.5 -46t-124.5 46t-48.5 118zM902 1745q0 72 48.5 118t124.5 46t125 -46t49 -118t-49 -118t-125 -46t-124.5 46t-48.5 118z" />
<glyph unicode="&#x1e27;" horiz-adv-x="1355" d="M-103 1832q0 72 48.5 118t124.5 46t124.5 -46t48.5 -118t-48.5 -118t-124.5 -46t-124.5 46t-48.5 118zM148 0v1530h346v-602h19q37 96 125 151t208 55q182 0 281.5 -108.5t99.5 -310.5v-715h-353v635q0 103 -46 157t-134 54q-90 0 -141.5 -59t-51.5 -156v-631h-353z M399 1832q0 72 48.5 118t124.5 46t125 -46t49 -118t-49 -118t-125 -46t-124.5 46t-48.5 118z" />
<glyph unicode="&#x1e28;" horiz-adv-x="1648" d="M170 0v1443h367v-566h575v566h366v-1443h-366v582h-575v-553v-29l-42 -99q91 -7 138.5 -53.5t47.5 -128.5q0 -101 -72.5 -156t-206.5 -55q-92 0 -148 18v144q40 -14 113 -14q108 0 108 53q0 28 -28.5 40.5t-91.5 12.5h-61v128l48 110h-172z" />
<glyph unicode="&#x1e29;" horiz-adv-x="1355" d="M148 0v1530h346v-602h19q37 96 125 151t208 55q182 0 281.5 -108.5t99.5 -310.5v-715h-353v635q0 103 -46 157t-134 54q-90 0 -141.5 -59t-51.5 -156v-601h1v-29l-42 -99q91 -7 138.5 -53.5t47.5 -128.5q0 -101 -72.5 -156t-206.5 -55q-92 0 -148 18v144q40 -14 113 -14 q108 0 108 53q0 28 -28.5 40.5t-91.5 12.5h-61v128l48 109h-159z" />
<glyph unicode="&#x1e2a;" horiz-adv-x="1648" d="M170 0v1443h367v-566h575v566h366v-1443h-366v582h-575v-582h-367zM406 -84h236q2 -74 51 -117.5t131 -43.5t131 43.5t51 117.5h236q0 -157 -113.5 -254t-304.5 -97t-304.5 97t-113.5 254z" />
<glyph unicode="&#x1e2b;" horiz-adv-x="1355" d="M148 0v1530h346v-602h19q37 96 125 151t208 55q182 0 281.5 -108.5t99.5 -310.5v-715h-353v635q0 103 -46 157t-134 54q-90 0 -141.5 -59t-51.5 -156v-631h-353zM281 -84h236q2 -74 51 -117.5t131 -43.5t131 43.5t51 117.5h236q0 -157 -113.5 -254t-304.5 -97t-304.5 97 t-113.5 254z" />
<glyph unicode="&#x1e2c;" horiz-adv-x="707" d="M-68 -438q0 149 76.5 241t200.5 92q40 0 76.5 -14.5t61.5 -34.5t47.5 -40.5t45 -35t43.5 -14.5q38 0 60 34t23 97h210q0 -147 -76 -238t-200 -91q-49 0 -93.5 22t-70 48t-55.5 48t-55 22q-38 0 -60 -36t-24 -100h-210zM170 0v1443h367v-1443h-367z" />
<glyph unicode="&#x1e2d;" horiz-adv-x="631" d="M-106 -438q0 149 76.5 241t200.5 92q40 0 76.5 -14.5t61.5 -34.5t47.5 -40.5t45 -35t43.5 -14.5q38 0 60 34t23 97h210q0 -147 -76 -238t-200 -91q-49 0 -93.5 22t-70 48t-55.5 48t-55 22q-38 0 -60 -36t-24 -100h-210zM116 1399q0 72 53.5 115t145.5 43q93 0 146.5 -43 t53.5 -115q0 -71 -53.5 -114t-146.5 -43q-92 0 -145.5 43t-53.5 114zM138 0v1113h354v-1113h-354z" />
<glyph unicode="&#x1e2e;" horiz-adv-x="707" d="M-72 1745q0 72 49 118t125 46t124.5 -46t48.5 -118t-48.5 -118t-124.5 -46t-125 46t-49 118zM170 0v1443h367v-1443h-367zM216 1962l132 250h327l-185 -250h-274zM431 1745q0 72 48.5 118t124.5 46t125 -46t49 -118t-49 -118t-125 -46t-124.5 46t-48.5 118z" />
<glyph unicode="&#x1e2f;" horiz-adv-x="631" d="M-109 1428q0 72 48.5 118t124.5 46t124.5 -46t48.5 -118t-48.5 -118t-124.5 -46t-124.5 46t-48.5 118zM138 0v1113h354v-1113h-354zM173 1666l215 326h324l-262 -326h-277zM393 1428q0 72 48.5 118t124.5 46t125 -46t49 -118t-49 -118t-125 -46t-124.5 46t-48.5 118z" />
<glyph unicode="&#x1e30;" horiz-adv-x="1507" d="M170 0v1443h367v-620h19l480 620h394l-499 -637l528 -806h-431l-364 569l-127 -161v-408h-367zM568 1596l258 326h362l-304 -326h-316z" />
<glyph unicode="&#x1e31;" horiz-adv-x="1295" d="M148 0v1530h353v-833h19l316 416h396l-397 -478l424 -635h-412l-278 426l-68 -77v-349h-353zM165 1683l258 326h362l-304 -326h-316z" />
<glyph unicode="&#x1e32;" horiz-adv-x="1507" d="M170 0v1443h367v-620h19l480 620h394l-499 -637l528 -806h-431l-364 569l-127 -161v-408h-367zM550 -275q0 75 49 123.5t128 48.5q78 0 127 -48.5t49 -123.5t-49 -123.5t-127 -48.5q-79 0 -128 48.5t-49 123.5z" />
<glyph unicode="&#x1e33;" horiz-adv-x="1295" d="M148 0v1530h353v-833h19l316 416h396l-397 -478l424 -635h-412l-278 426l-68 -77v-349h-353zM499 -275q0 75 49 123.5t128 48.5q78 0 127 -48.5t49 -123.5t-49 -123.5t-127 -48.5q-79 0 -128 48.5t-49 123.5z" />
<glyph unicode="&#x1e34;" horiz-adv-x="1507" d="M170 0v1443h367v-620h19l480 620h394l-499 -637l528 -806h-431l-364 569l-127 -161v-408h-367zM336 -224h782v-198h-782v198z" />
<glyph unicode="&#x1e35;" horiz-adv-x="1295" d="M148 0v1530h353v-833h19l316 416h396l-397 -478l424 -635h-412l-278 426l-68 -77v-349h-353zM285 -224h782v-198h-782v198z" />
<glyph unicode="&#x1e36;" horiz-adv-x="1247" d="M170 0v1443h367v-1140h613v-303h-980zM476 -275q0 75 49 123.5t128 48.5q78 0 127 -48.5t49 -123.5t-49 -123.5t-127 -48.5q-79 0 -128 48.5t-49 123.5z" />
<glyph unicode="&#x1e37;" horiz-adv-x="649" d="M147 -275q0 75 49 123.5t128 48.5q78 0 127 -48.5t49 -123.5t-49 -123.5t-127 -48.5q-79 0 -128 48.5t-49 123.5zM148 0v1530h353v-1530h-353z" />
<glyph unicode="&#x1e38;" horiz-adv-x="1247" d="M-38 1637v198h782v-198h-782zM170 0v1443h367v-1140h613v-303h-980zM476 -275q0 75 49 123.5t128 48.5q78 0 127 -48.5t49 -123.5t-49 -123.5t-127 -48.5q-79 0 -128 48.5t-49 123.5z" />
<glyph unicode="&#x1e39;" horiz-adv-x="649" d="M-67 1724v198h782v-198h-782zM147 -275q0 75 49 123.5t128 48.5q78 0 127 -48.5t49 -123.5t-49 -123.5t-127 -48.5q-79 0 -128 48.5t-49 123.5zM148 0v1530h353v-1530h-353z" />
<glyph unicode="&#x1e3a;" horiz-adv-x="1247" d="M170 0v1443h367v-1140h613v-303h-980zM262 -224h782v-198h-782v198z" />
<glyph unicode="&#x1e3b;" horiz-adv-x="649" d="M-67 -224h782v-198h-782v198zM148 0v1530h353v-1530h-353z" />
<glyph unicode="&#x1e3c;" horiz-adv-x="1247" d="M170 0v1443h367v-1140h613v-303h-980zM213 -481l275 350h330l275 -350h-298l-132 190h-20l-132 -190h-298z" />
<glyph unicode="&#x1e3d;" horiz-adv-x="649" d="M-116 -481l275 350h330l275 -350h-298l-132 190h-20l-132 -190h-298zM148 0v1530h353v-1530h-353z" />
<glyph unicode="&#x1e3e;" horiz-adv-x="1924" d="M170 0v1443h433l350 -882h19l349 882h433v-1443h-339v911h-18l-321 -800h-227l-322 800h-18v-911h-339zM804 1596l258 326h362l-304 -326h-316z" />
<glyph unicode="&#x1e3f;" horiz-adv-x="1961" d="M138 0v1113h344v-184h19q32 97 115 153.5t192 56.5q119 0 198 -54.5t111 -155.5h19q35 95 125.5 152.5t207.5 57.5q164 0 263.5 -103.5t99.5 -274.5v-761h-353v671q0 179 -161 179q-75 0 -119.5 -50t-44.5 -132v-668h-338v677q0 84 -41 128.5t-118 44.5q-74 0 -120 -52 t-46 -136v-662h-353zM809 1288l245 359h356l-292 -359h-309z" />
<glyph unicode="&#x1e40;" horiz-adv-x="1924" d="M170 0v1443h433l350 -882h19l349 882h433v-1443h-339v911h-18l-321 -800h-227l-322 800h-18v-911h-339zM786 1753q0 75 49 123.5t128 48.5q78 0 127 -48.5t49 -123.5t-49 -123.5t-127 -48.5q-79 0 -128 48.5t-49 123.5z" />
<glyph unicode="&#x1e41;" horiz-adv-x="1961" d="M138 0v1113h344v-184h19q32 97 115 153.5t192 56.5q119 0 198 -54.5t111 -155.5h19q35 95 125.5 152.5t207.5 57.5q164 0 263.5 -103.5t99.5 -274.5v-761h-353v671q0 179 -161 179q-75 0 -119.5 -50t-44.5 -132v-668h-338v677q0 84 -41 128.5t-118 44.5q-74 0 -120 -52 t-46 -136v-662h-353zM807 1447q0 76 49.5 125t128.5 49t128.5 -49t49.5 -125q0 -75 -49.5 -124t-128.5 -49t-128.5 49t-49.5 124z" />
<glyph unicode="&#x1e42;" horiz-adv-x="1924" d="M170 0v1443h433l350 -882h19l349 882h433v-1443h-339v911h-18l-321 -800h-227l-322 800h-18v-911h-339zM786 -275q0 75 49 123.5t128 48.5q78 0 127 -48.5t49 -123.5t-49 -123.5t-127 -48.5q-79 0 -128 48.5t-49 123.5z" />
<glyph unicode="&#x1e43;" horiz-adv-x="1961" d="M138 0v1113h344v-184h19q32 97 115 153.5t192 56.5q119 0 198 -54.5t111 -155.5h19q35 95 125.5 152.5t207.5 57.5q164 0 263.5 -103.5t99.5 -274.5v-761h-353v671q0 179 -161 179q-75 0 -119.5 -50t-44.5 -132v-668h-338v677q0 84 -41 128.5t-118 44.5q-74 0 -120 -52 t-46 -136v-662h-353zM808 -275q0 75 49 123.5t128 48.5q78 0 127 -48.5t49 -123.5t-49 -123.5t-127 -48.5q-79 0 -128 48.5t-49 123.5z" />
<glyph unicode="&#x1e44;" horiz-adv-x="1601" d="M170 0v1443h293l601 -812h19v812h348v-1443h-291l-603 820h-19v-820h-348zM617 1753q0 75 49 123.5t128 48.5q78 0 127 -48.5t49 -123.5t-49 -123.5t-127 -48.5q-79 0 -128 48.5t-49 123.5z" />
<glyph unicode="&#x1e45;" horiz-adv-x="1332" d="M138 0v1113h344v-181h19q37 96 122 151.5t204 55.5q184 0 280.5 -109t96.5 -311v-719h-354v640q0 210 -175 210q-85 0 -134.5 -58.5t-49.5 -155.5v-636h-353zM504 1447q0 76 49.5 125t128.5 49t128.5 -49t49.5 -125q0 -75 -49.5 -124t-128.5 -49t-128.5 49t-49.5 124z " />
<glyph unicode="&#x1e46;" horiz-adv-x="1601" d="M170 0v1443h293l601 -812h19v812h348v-1443h-291l-603 820h-19v-820h-348zM617 -275q0 75 49 123.5t128 48.5q78 0 127 -48.5t49 -123.5t-49 -123.5t-127 -48.5q-79 0 -128 48.5t-49 123.5z" />
<glyph unicode="&#x1e47;" horiz-adv-x="1332" d="M138 0v1113h344v-181h19q37 96 122 151.5t204 55.5q184 0 280.5 -109t96.5 -311v-719h-354v640q0 210 -175 210q-85 0 -134.5 -58.5t-49.5 -155.5v-636h-353zM505 -275q0 75 49 123.5t128 48.5q78 0 127 -48.5t49 -123.5t-49 -123.5t-127 -48.5q-79 0 -128 48.5 t-49 123.5z" />
<glyph unicode="&#x1e48;" horiz-adv-x="1601" d="M170 0v1443h293l601 -812h19v812h348v-1443h-291l-603 820h-19v-820h-348zM403 -224h782v-198h-782v198z" />
<glyph unicode="&#x1e49;" horiz-adv-x="1332" d="M138 0v1113h344v-181h19q37 96 122 151.5t204 55.5q184 0 280.5 -109t96.5 -311v-719h-354v640q0 210 -175 210q-85 0 -134.5 -58.5t-49.5 -155.5v-636h-353zM291 -224h782v-198h-782v198z" />
<glyph unicode="&#x1e4a;" horiz-adv-x="1601" d="M170 0v1443h293l601 -812h19v812h348v-1443h-291l-603 820h-19v-820h-348zM354 -481l275 350h330l275 -350h-298l-132 190h-20l-132 -190h-298z" />
<glyph unicode="&#x1e4b;" horiz-adv-x="1332" d="M138 0v1113h344v-181h19q37 96 122 151.5t204 55.5q184 0 280.5 -109t96.5 -311v-719h-354v640q0 210 -175 210q-85 0 -134.5 -58.5t-49.5 -155.5v-636h-353zM242 -481l275 350h330l275 -350h-298l-132 190h-20l-132 -190h-298z" />
<glyph unicode="&#x1e4c;" d="M102 722q0 351 193 555.5t519 204.5t518 -204.5t192 -555.5q0 -352 -192 -556.5t-518 -204.5q-328 0 -520 204.5t-192 556.5zM395 1589q0 143 72 222t186 79q53 0 98 -18.5t71 -40t58 -40t62 -18.5q78 0 82 105h209q0 -140 -72 -218.5t-186 -78.5q-53 0 -98 18.5t-71 40 t-58 40t-62 18.5q-78 0 -82 -109h-209zM476 722q0 -209 92 -333t246 -124q153 0 245 124t92 333q0 208 -92.5 332t-244.5 124q-153 0 -245.5 -124t-92.5 -332zM681 1962l127 250h319l-158 -250h-288z" />
<glyph unicode="&#x1e4d;" horiz-adv-x="1300" d="M83 557q0 270 152 426t415 156q264 0 415.5 -155.5t151.5 -426.5q0 -275 -149.5 -429t-417.5 -154q-267 0 -417 154t-150 429zM217 1259q0 149 76.5 241t200.5 92q40 0 76.5 -14.5t61.5 -35t47.5 -40.5t45 -34.5t43.5 -14.5q38 0 60 34t23 97h210q0 -147 -76 -238 t-200 -91q-49 0 -93.5 22t-70 48t-55.5 48t-55 22q-38 0 -60 -36t-24 -100h-210zM446 557q0 -149 53.5 -231t150.5 -82t150.5 82t53.5 231q0 146 -54 229t-150 83t-150 -83t-54 -229zM530 1685l164 307h283l-209 -307h-238z" />
<glyph unicode="&#x1e4e;" d="M102 722q0 351 193 555.5t519 204.5t518 -204.5t192 -555.5q0 -352 -192 -556.5t-518 -204.5q-328 0 -520 204.5t-192 556.5zM395 1587q0 143 72 222t186 79q53 0 98 -18.5t71 -40t58 -40t62 -18.5q78 0 82 105h209q0 -140 -72 -218.5t-186 -78.5q-53 0 -98 18.5t-71 40 t-58 40t-62 18.5q-78 0 -82 -109h-209zM438 2091q0 58 40.5 93.5t107.5 35.5t108 -35.5t41 -93.5t-41 -94t-108 -36t-107.5 36t-40.5 94zM476 722q0 -209 92 -333t246 -124q153 0 245 124t92 333q0 208 -92.5 332t-244.5 124q-153 0 -245.5 -124t-92.5 -332zM893 2091 q0 58 41 93.5t108 35.5t107.5 -35.5t40.5 -93.5t-40.5 -94t-107.5 -36t-108 36t-41 94z" />
<glyph unicode="&#x1e4f;" horiz-adv-x="1300" d="M83 557q0 270 152 426t415 156q264 0 415.5 -155.5t151.5 -426.5q0 -275 -149.5 -429t-417.5 -154q-267 0 -417 154t-150 429zM217 1264q0 149 76.5 241t200.5 92q40 0 76.5 -14.5t61.5 -35t47.5 -40.5t45 -34.5t43.5 -14.5q38 0 60 34t23 97h210q0 -147 -76 -238 t-200 -91q-49 0 -93.5 22t-70 48t-55.5 48t-55 22q-38 0 -60 -36t-24 -100h-210zM257 1822q0 68 45.5 112.5t116.5 44.5t116 -44.5t45 -112.5q0 -66 -45 -110.5t-116 -44.5t-116.5 44.5t-45.5 110.5zM446 557q0 -149 53.5 -231t150.5 -82t150.5 82t53.5 231q0 146 -54 229 t-150 83t-150 -83t-54 -229zM720 1822q0 68 45 112.5t116 44.5t116.5 -44.5t45.5 -112.5q0 -66 -45.5 -110.5t-116.5 -44.5t-116 44.5t-45 110.5z" />
<glyph unicode="&#x1e50;" d="M102 722q0 351 193 555.5t519 204.5t518 -204.5t192 -555.5q0 -352 -192 -556.5t-518 -204.5q-328 0 -520 204.5t-192 556.5zM423 1607v196h782v-196h-782zM476 722q0 -209 92 -333t246 -124q153 0 245 124t92 333q0 208 -92.5 332t-244.5 124q-153 0 -245.5 -124 t-92.5 -332zM498 2212h320l126 -280h-288z" />
<glyph unicode="&#x1e51;" horiz-adv-x="1300" d="M83 557q0 270 152 426t415 156q264 0 415.5 -155.5t151.5 -426.5q0 -275 -149.5 -429t-417.5 -154q-267 0 -417 154t-150 429zM251 1980h329l217 -316h-282zM266 1317v198h768v-198h-768zM446 557q0 -149 53.5 -231t150.5 -82t150.5 82t53.5 231q0 146 -54 229t-150 83 t-150 -83t-54 -229z" />
<glyph unicode="&#x1e52;" d="M102 722q0 351 193 555.5t519 204.5t518 -204.5t192 -555.5q0 -352 -192 -556.5t-518 -204.5q-328 0 -520 204.5t-192 556.5zM423 1607v196h782v-196h-782zM476 722q0 -209 92 -333t246 -124q153 0 245 124t92 333q0 208 -92.5 332t-244.5 124q-153 0 -245.5 -124 t-92.5 -332zM684 1932l126 280h320l-158 -280h-288z" />
<glyph unicode="&#x1e53;" horiz-adv-x="1300" d="M83 557q0 270 152 426t415 156q264 0 415.5 -155.5t151.5 -426.5q0 -275 -149.5 -429t-417.5 -154q-267 0 -417 154t-150 429zM266 1317v198h768v-198h-768zM446 557q0 -149 53.5 -231t150.5 -82t150.5 82t53.5 231q0 146 -54 229t-150 83t-150 -83t-54 -229zM503 1664 l217 316h329l-264 -316h-282z" />
<glyph unicode="&#x1e54;" horiz-adv-x="1421" d="M170 0v1443h632q233 0 376.5 -140t143.5 -372q0 -229 -150 -368.5t-392 -139.5h-243v-423h-367zM454 1596l258 326h362l-304 -326h-316zM537 700h166q118 0 183 59t65 171q0 113 -64 172t-182 59h-168v-461z" />
<glyph unicode="&#x1e55;" horiz-adv-x="1364" d="M138 -368v1481h344v-181h19q41 93 129 145.5t203 52.5q211 0 329.5 -150.5t118.5 -422.5t-116 -423t-324 -151q-120 0 -206 49.5t-125 138.5h-19v-539h-353zM444 1288l245 359h356l-292 -359h-309zM489 556q0 -139 57 -217t158 -78t157.5 78.5t56.5 217.5 q0 138 -57 216.5t-157 78.5t-157.5 -79t-57.5 -217z" />
<glyph unicode="&#x1e56;" horiz-adv-x="1421" d="M170 0v1443h632q233 0 376.5 -140t143.5 -372q0 -229 -150 -368.5t-392 -139.5h-243v-423h-367zM436 1753q0 75 49 123.5t128 48.5q78 0 127 -48.5t49 -123.5t-49 -123.5t-127 -48.5q-79 0 -128 48.5t-49 123.5zM537 700h166q118 0 183 59t65 171q0 113 -64 172t-182 59 h-168v-461z" />
<glyph unicode="&#x1e57;" horiz-adv-x="1364" d="M138 -368v1481h344v-181h19q41 93 129 145.5t203 52.5q211 0 329.5 -150.5t118.5 -422.5t-116 -423t-324 -151q-120 0 -206 49.5t-125 138.5h-19v-539h-353zM442 1447q0 76 49.5 125t128.5 49t128.5 -49t49.5 -125q0 -75 -49.5 -124t-128.5 -49t-128.5 49t-49.5 124z M489 556q0 -139 57 -217t158 -78t157.5 78.5t56.5 217.5q0 138 -57 216.5t-157 78.5t-157.5 -79t-57.5 -217z" />
<glyph unicode="&#x1e58;" horiz-adv-x="1466" d="M170 0v1443h635q253 0 396 -126.5t143 -349.5q0 -136 -65 -246.5t-181 -161.5l288 -559h-412l-247 505h-190v-505h-367zM498 1753q0 75 49 123.5t128 48.5q78 0 127 -48.5t49 -123.5t-49 -123.5t-127 -48.5q-79 0 -128 48.5t-49 123.5zM537 764h217q101 0 158 53t57 147 q0 92 -59 147t-157 55h-216v-402z" />
<glyph unicode="&#x1e59;" horiz-adv-x="950" d="M138 0v1113h344v-183h19q21 86 96.5 143t177.5 57q88 0 128 -17v-301q-49 20 -152 20q-119 0 -189.5 -64t-70.5 -179v-589h-353zM307 1447q0 76 49.5 125t128.5 49t128.5 -49t49.5 -125q0 -75 -49.5 -124t-128.5 -49t-128.5 49t-49.5 124z" />
<glyph unicode="&#x1e5a;" horiz-adv-x="1466" d="M170 0v1443h635q253 0 396 -126.5t143 -349.5q0 -136 -65 -246.5t-181 -161.5l288 -559h-412l-247 505h-190v-505h-367zM498 -275q0 75 49 123.5t128 48.5q78 0 127 -48.5t49 -123.5t-49 -123.5t-127 -48.5q-79 0 -128 48.5t-49 123.5zM537 764h217q101 0 158 53t57 147 q0 92 -59 147t-157 55h-216v-402z" />
<glyph unicode="&#x1e5b;" horiz-adv-x="950" d="M133 -275q0 75 49 123.5t128 48.5q78 0 127 -48.5t49 -123.5t-49 -123.5t-127 -48.5q-79 0 -128 48.5t-49 123.5zM138 0v1113h344v-183h19q21 86 96.5 143t177.5 57q88 0 128 -17v-301q-49 20 -152 20q-119 0 -189.5 -64t-70.5 -179v-589h-353z" />
<glyph unicode="&#x1e5c;" horiz-adv-x="1466" d="M170 0v1443h635q253 0 396 -126.5t143 -349.5q0 -136 -65 -246.5t-181 -161.5l288 -559h-412l-247 505h-190v-505h-367zM284 1637v198h782v-198h-782zM498 -275q0 75 49 123.5t128 48.5q78 0 127 -48.5t49 -123.5t-49 -123.5t-127 -48.5q-79 0 -128 48.5t-49 123.5z M537 764h217q101 0 158 53t57 147q0 92 -59 147t-157 55h-216v-402z" />
<glyph unicode="&#x1e5d;" horiz-adv-x="950" d="M101 1327v198h768v-198h-768zM133 -275q0 75 49 123.5t128 48.5q78 0 127 -48.5t49 -123.5t-49 -123.5t-127 -48.5q-79 0 -128 48.5t-49 123.5zM138 0v1113h344v-183h19q21 86 96.5 143t177.5 57q88 0 128 -17v-301q-49 20 -152 20q-119 0 -189.5 -64t-70.5 -179v-589 h-353z" />
<glyph unicode="&#x1e5e;" horiz-adv-x="1466" d="M170 0v1443h635q253 0 396 -126.5t143 -349.5q0 -136 -65 -246.5t-181 -161.5l288 -559h-412l-247 505h-190v-505h-367zM284 -224h782v-198h-782v198zM537 764h217q101 0 158 53t57 147q0 92 -59 147t-157 55h-216v-402z" />
<glyph unicode="&#x1e5f;" horiz-adv-x="950" d="M-81 -224h782v-198h-782v198zM138 0v1113h344v-183h19q21 86 96.5 143t177.5 57q88 0 128 -17v-301q-49 20 -152 20q-119 0 -189.5 -64t-70.5 -179v-589h-353z" />
<glyph unicode="&#x1e60;" horiz-adv-x="1423" d="M107 411h350q7 -79 79.5 -125.5t186.5 -46.5q103 0 167 45t64 116q0 60 -52 95.5t-176 60.5l-190 38q-198 37 -299 144t-101 277q0 212 156.5 339.5t417.5 127.5q253 0 413 -125t165 -325h-339q-6 76 -71.5 124.5t-162.5 48.5t-155.5 -42.5t-58.5 -114.5q0 -59 51 -96 t165 -59l186 -36q214 -41 313.5 -141t99.5 -272q0 -226 -162 -354.5t-446 -128.5q-274 0 -435.5 121t-165.5 329zM534 1753q0 75 49 123.5t128 48.5q78 0 127 -48.5t49 -123.5t-49 -123.5t-127 -48.5q-79 0 -128 48.5t-49 123.5z" />
<glyph unicode="&#x1e61;" horiz-adv-x="1206" d="M86 319h341q28 -106 185 -106q73 0 116.5 27t43.5 72q0 35 -27.5 56t-94.5 35l-207 44q-330 70 -330 331q0 166 132 263.5t357 97.5q231 0 355.5 -87.5t134.5 -255.5h-322q-8 49 -51 76.5t-114 27.5q-69 0 -112.5 -27.5t-43.5 -72.5q0 -35 30.5 -57.5t97.5 -36.5l230 -47 q165 -35 239.5 -107.5t74.5 -198.5q0 -173 -140 -276t-374 -103q-239 0 -372.5 88.5t-148.5 256.5zM424 1447q0 76 49.5 125t128.5 49t128.5 -49t49.5 -125q0 -75 -49.5 -124t-128.5 -49t-128.5 49t-49.5 124z" />
<glyph unicode="&#x1e62;" horiz-adv-x="1423" d="M107 411h350q7 -79 79.5 -125.5t186.5 -46.5q103 0 167 45t64 116q0 60 -52 95.5t-176 60.5l-190 38q-198 37 -299 144t-101 277q0 212 156.5 339.5t417.5 127.5q253 0 413 -125t165 -325h-339q-6 76 -71.5 124.5t-162.5 48.5t-155.5 -42.5t-58.5 -114.5q0 -59 51 -96 t165 -59l186 -36q214 -41 313.5 -141t99.5 -272q0 -226 -162 -354.5t-446 -128.5q-274 0 -435.5 121t-165.5 329zM531 -275q0 75 49 123.5t128 48.5q78 0 127 -48.5t49 -123.5t-49 -123.5t-127 -48.5q-79 0 -128 48.5t-49 123.5z" />
<glyph unicode="&#x1e63;" horiz-adv-x="1206" d="M86 319h341q28 -106 185 -106q73 0 116.5 27t43.5 72q0 35 -27.5 56t-94.5 35l-207 44q-330 70 -330 331q0 166 132 263.5t357 97.5q231 0 355.5 -87.5t134.5 -255.5h-322q-8 49 -51 76.5t-114 27.5q-69 0 -112.5 -27.5t-43.5 -72.5q0 -35 30.5 -57.5t97.5 -36.5l230 -47 q165 -35 239.5 -107.5t74.5 -198.5q0 -173 -140 -276t-374 -103q-239 0 -372.5 88.5t-148.5 256.5zM430 -275q0 75 49 123.5t128 48.5q78 0 127 -48.5t49 -123.5t-49 -123.5t-127 -48.5q-79 0 -128 48.5t-49 123.5z" />
<glyph unicode="&#x1e64;" horiz-adv-x="1423" d="M107 411h350q7 -79 79.5 -125.5t186.5 -46.5q103 0 167 45t64 116q0 60 -52 95.5t-176 60.5l-190 38q-198 37 -299 144t-101 277q0 212 156.5 339.5t417.5 127.5q253 0 413 -125t165 -325h-339q-6 76 -71.5 124.5t-162.5 48.5t-155.5 -42.5t-58.5 -114.5q0 -59 51 -96 t165 -59l186 -36q214 -41 313.5 -141t99.5 -272q0 -226 -162 -354.5t-446 -128.5q-274 0 -435.5 121t-165.5 329zM281 1769q0 75 49 123.5t128 48.5q78 0 127 -48.5t49 -123.5t-49 -123.5t-127 -48.5q-79 0 -128 48.5t-49 123.5zM679 1596l258 326h362l-304 -326h-316z" />
<glyph unicode="&#x1e65;" horiz-adv-x="1206" d="M86 319h341q28 -106 185 -106q73 0 116.5 27t43.5 72q0 35 -27.5 56t-94.5 35l-207 44q-330 70 -330 331q0 166 132 263.5t357 97.5q231 0 355.5 -87.5t134.5 -255.5h-322q-8 49 -51 76.5t-114 27.5q-69 0 -112.5 -27.5t-43.5 -72.5q0 -35 30.5 -57.5t97.5 -36.5l230 -47 q165 -35 239.5 -107.5t74.5 -198.5q0 -173 -140 -276t-374 -103q-239 0 -372.5 88.5t-148.5 256.5zM191 1443q0 76 49.5 125t128.5 49t128.5 -49t49.5 -125q0 -75 -49.5 -124t-128.5 -49t-128.5 49t-49.5 124zM577 1280l245 359h356l-292 -359h-309z" />
<glyph unicode="&#x1e66;" horiz-adv-x="1423" d="M107 411h350q7 -79 79.5 -125.5t186.5 -46.5q103 0 167 45t64 116q0 60 -52 95.5t-176 60.5l-190 38q-198 37 -299 144t-101 277q0 212 156.5 339.5t417.5 127.5q253 0 413 -125t165 -325h-339q-6 76 -71.5 124.5t-162.5 48.5t-155.5 -42.5t-58.5 -114.5q0 -59 51 -96 t165 -59l186 -36q214 -41 313.5 -141t99.5 -272q0 -226 -162 -354.5t-446 -128.5q-274 0 -435.5 121t-165.5 329zM272 1864h298l130 -146h22l130 146h298l-269 -283h-340zM535 2095q0 70 49 115t127 45t127 -45t49 -115t-49 -115.5t-127 -45.5t-127 45.5t-49 115.5z" />
<glyph unicode="&#x1e67;" horiz-adv-x="1206" d="M86 319h341q28 -106 185 -106q73 0 116.5 27t43.5 72q0 35 -27.5 56t-94.5 35l-207 44q-330 70 -330 331q0 166 132 263.5t357 97.5q231 0 355.5 -87.5t134.5 -255.5h-322q-8 49 -51 76.5t-114 27.5q-69 0 -112.5 -27.5t-43.5 -72.5q0 -35 30.5 -57.5t97.5 -36.5l230 -47 q165 -35 239.5 -107.5t74.5 -198.5q0 -173 -140 -276t-374 -103q-239 0 -372.5 88.5t-148.5 256.5zM162 1614h297l133 -197h20l133 197h297l-271 -354h-338zM435 1867q0 71 46.5 117t120.5 46t120.5 -46t46.5 -117q0 -69 -46.5 -115t-120.5 -46t-120.5 46t-46.5 115z" />
<glyph unicode="&#x1e68;" horiz-adv-x="1423" d="M107 411h350q7 -79 79.5 -125.5t186.5 -46.5q103 0 167 45t64 116q0 60 -52 95.5t-176 60.5l-190 38q-198 37 -299 144t-101 277q0 212 156.5 339.5t417.5 127.5q253 0 413 -125t165 -325h-339q-6 76 -71.5 124.5t-162.5 48.5t-155.5 -42.5t-58.5 -114.5q0 -59 51 -96 t165 -59l186 -36q214 -41 313.5 -141t99.5 -272q0 -226 -162 -354.5t-446 -128.5q-274 0 -435.5 121t-165.5 329zM531 -275q0 75 49 123.5t128 48.5q78 0 127 -48.5t49 -123.5t-49 -123.5t-127 -48.5q-79 0 -128 48.5t-49 123.5zM534 1753q0 75 49 123.5t128 48.5 q78 0 127 -48.5t49 -123.5t-49 -123.5t-127 -48.5q-79 0 -128 48.5t-49 123.5z" />
<glyph unicode="&#x1e69;" horiz-adv-x="1206" d="M86 319h341q28 -106 185 -106q73 0 116.5 27t43.5 72q0 35 -27.5 56t-94.5 35l-207 44q-330 70 -330 331q0 166 132 263.5t357 97.5q231 0 355.5 -87.5t134.5 -255.5h-322q-8 49 -51 76.5t-114 27.5q-69 0 -112.5 -27.5t-43.5 -72.5q0 -35 30.5 -57.5t97.5 -36.5l230 -47 q165 -35 239.5 -107.5t74.5 -198.5q0 -173 -140 -276t-374 -103q-239 0 -372.5 88.5t-148.5 256.5zM424 1447q0 76 49.5 125t128.5 49t128.5 -49t49.5 -125q0 -75 -49.5 -124t-128.5 -49t-128.5 49t-49.5 124zM430 -275q0 75 49 123.5t128 48.5q78 0 127 -48.5t49 -123.5 t-49 -123.5t-127 -48.5q-79 0 -128 48.5t-49 123.5z" />
<glyph unicode="&#x1e6a;" horiz-adv-x="1381" d="M91 1148v295h1199v-295h-417v-1148h-366v1148h-416zM509 1753q0 75 49 123.5t128 48.5q78 0 127 -48.5t49 -123.5t-49 -123.5t-127 -48.5q-79 0 -128 48.5t-49 123.5z" />
<glyph unicode="&#x1e6b;" horiz-adv-x="898" d="M55 835v263h171v270h353v-270h224v-263h-224v-451q0 -125 135 -125q46 0 89 5v-252q-65 -14 -169 -14q-219 0 -313.5 71.5t-94.5 235.5v530h-171zM225 1640q0 76 49.5 125t128.5 49t128.5 -49t49.5 -125q0 -75 -49.5 -124t-128.5 -49t-128.5 49t-49.5 124z" />
<glyph unicode="&#x1e6c;" horiz-adv-x="1381" d="M91 1148v295h1199v-295h-417v-1148h-366v1148h-416zM509 -275q0 75 49 123.5t128 48.5q78 0 127 -48.5t49 -123.5t-49 -123.5t-127 -48.5q-79 0 -128 48.5t-49 123.5z" />
<glyph unicode="&#x1e6d;" horiz-adv-x="898" d="M55 835v263h171v270h353v-270h224v-263h-224v-451q0 -125 135 -125q46 0 89 5v-252q-65 -14 -169 -14q-219 0 -313.5 71.5t-94.5 235.5v530h-171zM343 -275q0 75 49 123.5t128 48.5q78 0 127 -48.5t49 -123.5t-49 -123.5t-127 -48.5q-79 0 -128 48.5t-49 123.5z" />
<glyph unicode="&#x1e6e;" horiz-adv-x="1381" d="M91 1148v295h1199v-295h-417v-1148h-366v1148h-416zM295 -224h782v-198h-782v198z" />
<glyph unicode="&#x1e6f;" horiz-adv-x="898" d="M55 835v263h171v270h353v-270h224v-263h-224v-451q0 -125 135 -125q46 0 89 5v-252q-65 -14 -169 -14q-219 0 -313.5 71.5t-94.5 235.5v530h-171zM129 -224h782v-198h-782v198z" />
<glyph unicode="&#x1e70;" horiz-adv-x="1381" d="M91 1148v295h1199v-295h-417v-1148h-366v1148h-416zM246 -481l275 350h330l275 -350h-298l-132 190h-20l-132 -190h-298z" />
<glyph unicode="&#x1e71;" horiz-adv-x="898" d="M55 835v263h171v270h353v-270h224v-263h-224v-451q0 -125 135 -125q46 0 89 5v-252q-65 -14 -169 -14q-219 0 -313.5 71.5t-94.5 235.5v530h-171zM80 -481l275 350h330l275 -350h-298l-132 190h-20l-132 -190h-298z" />
<glyph unicode="&#x1e72;" horiz-adv-x="1586" d="M171 498v945h367v-906q0 -126 66.5 -196.5t188.5 -70.5t188 70t66 197v906h367v-945q0 -243 -170 -390t-451 -147t-451.5 147t-170.5 390zM369 -286q0 72 48.5 118t124.5 46t124.5 -46t48.5 -118t-48.5 -118t-124.5 -46t-124.5 46t-48.5 118zM871 -286q0 72 48.5 118 t124.5 46t125 -46t49 -118t-49 -118t-125 -46t-124.5 46t-48.5 118z" />
<glyph unicode="&#x1e73;" horiz-adv-x="1340" d="M128 386v727h353v-640q0 -101 47.5 -154.5t133.5 -53.5q89 0 137.5 56.5t48.5 155.5v636h354v-1113h-344v180h-19q-82 -206 -316 -206q-179 0 -287 110.5t-108 301.5zM234 -286q0 72 48.5 118t124.5 46t124.5 -46t48.5 -118t-48.5 -118t-124.5 -46t-124.5 46t-48.5 118z M736 -286q0 72 48.5 118t124.5 46t125 -46t49 -118t-49 -118t-125 -46t-124.5 46t-48.5 118z" />
<glyph unicode="&#x1e74;" horiz-adv-x="1586" d="M171 498v945h367v-906q0 -126 66.5 -196.5t188.5 -70.5t188 70t66 197v906h367v-945q0 -243 -170 -390t-451 -147t-451.5 147t-170.5 390zM372 -438q0 149 76.5 241t200.5 92q40 0 76.5 -14.5t61.5 -34.5t47.5 -40.5t45 -35t43.5 -14.5q38 0 60 34t23 97h210 q0 -147 -76 -238t-200 -91q-49 0 -93.5 22t-70 48t-55.5 48t-55 22q-38 0 -60 -36t-24 -100h-210z" />
<glyph unicode="&#x1e75;" horiz-adv-x="1340" d="M128 386v727h353v-640q0 -101 47.5 -154.5t133.5 -53.5q89 0 137.5 56.5t48.5 155.5v636h354v-1113h-344v180h-19q-82 -206 -316 -206q-179 0 -287 110.5t-108 301.5zM237 -438q0 149 76.5 241t200.5 92q40 0 76.5 -14.5t61.5 -34.5t47.5 -40.5t45 -35t43.5 -14.5 q38 0 60 34t23 97h210q0 -147 -76 -238t-200 -91q-49 0 -93.5 22t-70 48t-55.5 48t-55 22q-38 0 -60 -36t-24 -100h-210z" />
<glyph unicode="&#x1e76;" horiz-adv-x="1586" d="M171 498v945h367v-906q0 -126 66.5 -196.5t188.5 -70.5t188 70t66 197v906h367v-945q0 -243 -170 -390t-451 -147t-451.5 147t-170.5 390zM353 -481l275 350h330l275 -350h-298l-132 190h-20l-132 -190h-298z" />
<glyph unicode="&#x1e77;" horiz-adv-x="1340" d="M128 386v727h353v-640q0 -101 47.5 -154.5t133.5 -53.5q89 0 137.5 56.5t48.5 155.5v636h354v-1113h-344v180h-19q-82 -206 -316 -206q-179 0 -287 110.5t-108 301.5zM218 -481l275 350h330l275 -350h-298l-132 190h-20l-132 -190h-298z" />
<glyph unicode="&#x1e78;" horiz-adv-x="1586" d="M171 498v945h367v-906q0 -126 66.5 -196.5t188.5 -70.5t188 70t66 197v906h367v-945q0 -243 -170 -390t-451 -147t-451.5 147t-170.5 390zM374 1589q0 143 72 222t186 79q53 0 98 -18.5t71 -40t58 -40t62 -18.5q78 0 82 105h209q0 -140 -72 -218.5t-186 -78.5 q-53 0 -98 18.5t-71 40t-58 40t-62 18.5q-78 0 -82 -109h-209zM660 1962l127 250h319l-158 -250h-288z" />
<glyph unicode="&#x1e79;" horiz-adv-x="1340" d="M128 386v727h353v-640q0 -101 47.5 -154.5t133.5 -53.5q89 0 137.5 56.5t48.5 155.5v636h354v-1113h-344v180h-19q-82 -206 -316 -206q-179 0 -287 110.5t-108 301.5zM232 1259q0 149 76.5 241t200.5 92q40 0 76.5 -14.5t61.5 -35t47.5 -40.5t45 -34.5t43.5 -14.5 q38 0 60 34t23 97h210q0 -147 -76 -238t-200 -91q-49 0 -93.5 22t-70 48t-55.5 48t-55 22q-38 0 -60 -36t-24 -100h-210zM545 1685l164 307h283l-209 -307h-238z" />
<glyph unicode="&#x1e7a;" horiz-adv-x="1586" d="M171 498v945h367v-906q0 -126 66.5 -196.5t188.5 -70.5t188 70t66 197v906h367v-945q0 -243 -170 -390t-451 -147t-451.5 147t-170.5 390zM400 2064q0 67 45.5 111.5t116.5 44.5t116 -44.5t45 -111.5t-45 -111.5t-116 -44.5t-116.5 44.5t-45.5 111.5zM402 1607v196h782 v-196h-782zM863 2064q0 67 45 111.5t116 44.5t116.5 -44.5t45.5 -111.5t-45.5 -111.5t-116.5 -44.5t-116 44.5t-45 111.5z" />
<glyph unicode="&#x1e7b;" horiz-adv-x="1340" d="M128 386v727h353v-640q0 -101 47.5 -154.5t133.5 -53.5q89 0 137.5 56.5t48.5 155.5v636h354v-1113h-344v180h-19q-82 -206 -316 -206q-179 0 -287 110.5t-108 301.5zM272 1807q0 68 45.5 112.5t116.5 44.5t116 -44.5t45 -112.5q0 -66 -45 -110.5t-116 -44.5t-116.5 44.5 t-45.5 110.5zM281 1322v198h768v-198h-768zM735 1807q0 68 45 112.5t116 44.5t116.5 -44.5t45.5 -112.5q0 -66 -45.5 -110.5t-116.5 -44.5t-116 44.5t-45 110.5z" />
<glyph unicode="&#x1e7c;" horiz-adv-x="1528" d="M73 1443h421l277 -1062h19l269 1062h396l-453 -1443h-464zM342 1572q0 149 76.5 241t200.5 92q40 0 76.5 -14.5t61.5 -35t47.5 -40.5t45 -34.5t43.5 -14.5q38 0 60 34t23 97h210q0 -147 -76 -238t-200 -91q-49 0 -93.5 22t-70 48t-55.5 48t-55 22q-38 0 -60 -36t-24 -100 h-210z" />
<glyph unicode="&#x1e7d;" horiz-adv-x="1238" d="M42 1113h381l193 -796h19l189 796h372l-371 -1113h-408zM209 1264q0 149 76.5 241t200.5 92q40 0 76.5 -14.5t61.5 -35t47.5 -40.5t45 -34.5t43.5 -14.5q38 0 60 34t23 97h210q0 -147 -76 -238t-200 -91q-49 0 -93.5 22t-70 48t-55.5 48t-55 22q-38 0 -60 -36t-24 -100 h-210z" />
<glyph unicode="&#x1e7e;" horiz-adv-x="1528" d="M73 1443h421l277 -1062h19l269 1062h396l-453 -1443h-464zM586 -275q0 75 49 123.5t128 48.5q78 0 127 -48.5t49 -123.5t-49 -123.5t-127 -48.5q-79 0 -128 48.5t-49 123.5z" />
<glyph unicode="&#x1e7f;" horiz-adv-x="1238" d="M42 1113h381l193 -796h19l189 796h372l-371 -1113h-408zM443 -275q0 75 49 123.5t128 48.5q78 0 127 -48.5t49 -123.5t-49 -123.5t-127 -48.5q-79 0 -128 48.5t-49 123.5z" />
<glyph unicode="&#x1e80;" horiz-adv-x="2112" d="M86 1443h381l192 -957h18l231 957h294l239 -957h18l189 957h378l-377 -1443h-344l-241 884h-18l-237 -884h-346zM613 1922h362l258 -326h-314z" />
<glyph unicode="&#x1e81;" horiz-adv-x="1814" d="M57 1113h358l139 -763h19l168 763h337l170 -763h19l139 763h350l-288 -1113h-381l-174 733h-19l-172 -733h-375zM487 1647h356l245 -359h-309z" />
<glyph unicode="&#x1e82;" horiz-adv-x="2112" d="M86 1443h381l192 -957h18l231 957h294l239 -957h18l189 957h378l-377 -1443h-344l-241 884h-18l-237 -884h-346zM897 1596l258 326h362l-304 -326h-316z" />
<glyph unicode="&#x1e83;" horiz-adv-x="1814" d="M57 1113h358l139 -763h19l168 763h337l170 -763h19l139 763h350l-288 -1113h-381l-174 733h-19l-172 -733h-375zM734 1288l245 359h356l-292 -359h-309z" />
<glyph unicode="&#x1e84;" horiz-adv-x="2112" d="M86 1443h381l192 -957h18l231 957h294l239 -957h18l189 957h378l-377 -1443h-344l-241 884h-18l-237 -884h-346zM632 1745q0 72 48.5 118t124.5 46t124.5 -46t48.5 -118t-48.5 -118t-124.5 -46t-124.5 46t-48.5 118zM1134 1745q0 72 48.5 118t124.5 46t125 -46t49 -118 t-49 -118t-125 -46t-124.5 46t-48.5 118z" />
<glyph unicode="&#x1e85;" horiz-adv-x="1814" d="M57 1113h358l139 -763h19l168 763h337l170 -763h19l139 763h350l-288 -1113h-381l-174 733h-19l-172 -733h-375zM486 1424q0 72 48.5 118t124.5 46t124.5 -46t48.5 -118t-48.5 -118t-124.5 -46t-124.5 46t-48.5 118zM988 1424q0 72 48.5 118t124.5 46t125 -46t49 -118 t-49 -118t-125 -46t-124.5 46t-48.5 118z" />
<glyph unicode="&#x1e86;" horiz-adv-x="2112" d="M86 1443h381l192 -957h18l231 957h294l239 -957h18l189 957h378l-377 -1443h-344l-241 884h-18l-237 -884h-346zM879 1753q0 75 49 123.5t128 48.5q78 0 127 -48.5t49 -123.5t-49 -123.5t-127 -48.5q-79 0 -128 48.5t-49 123.5z" />
<glyph unicode="&#x1e87;" horiz-adv-x="1814" d="M57 1113h358l139 -763h19l168 763h337l170 -763h19l139 763h350l-288 -1113h-381l-174 733h-19l-172 -733h-375zM732 1447q0 76 49.5 125t128.5 49t128.5 -49t49.5 -125q0 -75 -49.5 -124t-128.5 -49t-128.5 49t-49.5 124z" />
<glyph unicode="&#x1e88;" horiz-adv-x="2112" d="M86 1443h381l192 -957h18l231 957h294l239 -957h18l189 957h378l-377 -1443h-344l-241 884h-18l-237 -884h-346zM879 -275q0 75 49 123.5t128 48.5q78 0 127 -48.5t49 -123.5t-49 -123.5t-127 -48.5q-79 0 -128 48.5t-49 123.5z" />
<glyph unicode="&#x1e89;" horiz-adv-x="1814" d="M57 1113h358l139 -763h19l168 763h337l170 -763h19l139 763h350l-288 -1113h-381l-174 733h-19l-172 -733h-375zM728 -275q0 75 49 123.5t128 48.5q78 0 127 -48.5t49 -123.5t-49 -123.5t-127 -48.5q-79 0 -128 48.5t-49 123.5z" />
<glyph unicode="&#x1e8a;" horiz-adv-x="1549" d="M87 0l443 728l-442 715h428l259 -478h19l261 478h408l-461 -719l457 -724h-413l-274 457h-19l-276 -457h-390zM607 1753q0 75 49 123.5t128 48.5q78 0 127 -48.5t49 -123.5t-49 -123.5t-127 -48.5q-79 0 -128 48.5t-49 123.5z" />
<glyph unicode="&#x1e8b;" horiz-adv-x="1250" d="M58 1113h403l163 -347h19l165 347h383l-337 -551l338 -562h-387l-179 341h-19l-178 -341h-369l333 547zM456 1447q0 76 49.5 125t128.5 49t128.5 -49t49.5 -125q0 -75 -49.5 -124t-128.5 -49t-128.5 49t-49.5 124z" />
<glyph unicode="&#x1e8c;" horiz-adv-x="1549" d="M87 0l443 728l-442 715h428l259 -478h19l261 478h408l-461 -719l457 -724h-413l-274 457h-19l-276 -457h-390zM360 1745q0 72 48.5 118t124.5 46t124.5 -46t48.5 -118t-48.5 -118t-124.5 -46t-124.5 46t-48.5 118zM862 1745q0 72 48.5 118t124.5 46t125 -46t49 -118 t-49 -118t-125 -46t-124.5 46t-48.5 118z" />
<glyph unicode="&#x1e8d;" horiz-adv-x="1250" d="M58 1113h403l163 -347h19l165 347h383l-337 -551l338 -562h-387l-179 341h-19l-178 -341h-369l333 547zM210 1424q0 72 48.5 118t124.5 46t124.5 -46t48.5 -118t-48.5 -118t-124.5 -46t-124.5 46t-48.5 118zM712 1424q0 72 48.5 118t124.5 46t125 -46t49 -118t-49 -118 t-125 -46t-124.5 46t-48.5 118z" />
<glyph unicode="&#x1e8e;" horiz-adv-x="1508" d="M73 1443h391l281 -589h19l279 589h391l-497 -947v-496h-366v496zM578 1753q0 75 49 123.5t128 48.5q78 0 127 -48.5t49 -123.5t-49 -123.5t-127 -48.5q-79 0 -128 48.5t-49 123.5z" />
<glyph unicode="&#x1e8f;" horiz-adv-x="1282" d="M50 1113h391l199 -816h19l199 816h374l-358 -1111q-71 -222 -203.5 -314.5t-372.5 -92.5q-124 0 -129 1v269q10 -2 62 -2q176 0 194 97l5 31zM472 1447q0 76 49.5 125t128.5 49t128.5 -49t49.5 -125q0 -75 -49.5 -124t-128.5 -49t-128.5 49t-49.5 124z" />
<glyph unicode="&#x1e90;" horiz-adv-x="1399" d="M130 0v233l677 896v19h-666v295h1106v-233l-677 -896v-19h698v-295h-1138zM259 1596l275 350h330l275 -350h-298l-132 190h-20l-132 -190h-298z" />
<glyph unicode="&#x1e91;" horiz-adv-x="1190" d="M112 0v189l524 639v19h-512v266h936v-217l-477 -611v-19h495v-266h-966zM153 1260l271 359h338l271 -359h-297l-134 202h-19l-133 -202h-297z" />
<glyph unicode="&#x1e92;" horiz-adv-x="1399" d="M130 0v233l677 896v19h-666v295h1106v-233l-677 -896v-19h698v-295h-1138zM522 -275q0 75 49 123.5t128 48.5q78 0 127 -48.5t49 -123.5t-49 -123.5t-127 -48.5q-79 0 -128 48.5t-49 123.5z" />
<glyph unicode="&#x1e93;" horiz-adv-x="1190" d="M112 0v189l524 639v19h-512v266h936v-217l-477 -611v-19h495v-266h-966zM416 -275q0 75 49 123.5t128 48.5q78 0 127 -48.5t49 -123.5t-49 -123.5t-127 -48.5q-79 0 -128 48.5t-49 123.5z" />
<glyph unicode="&#x1e94;" horiz-adv-x="1399" d="M130 0v233l677 896v19h-666v295h1106v-233l-677 -896v-19h698v-295h-1138zM308 -224h782v-198h-782v198z" />
<glyph unicode="&#x1e95;" horiz-adv-x="1190" d="M112 0v189l524 639v19h-512v266h936v-217l-477 -611v-19h495v-266h-966zM202 -224h782v-198h-782v198z" />
<glyph unicode="&#x1e96;" horiz-adv-x="1355" d="M148 0v1530h346v-602h19q37 96 125 151t208 55q182 0 281.5 -108.5t99.5 -310.5v-715h-353v635q0 103 -46 157t-134 54q-90 0 -141.5 -59t-51.5 -156v-631h-353zM308 -224h782v-198h-782v198z" />
<glyph unicode="&#x1e97;" horiz-adv-x="898" d="M-21 1617q0 72 48.5 118t124.5 46t124.5 -46t48.5 -118t-48.5 -118t-124.5 -46t-124.5 46t-48.5 118zM55 835v263h171v270h353v-270h224v-263h-224v-451q0 -125 135 -125q46 0 89 5v-252q-65 -14 -169 -14q-219 0 -313.5 71.5t-94.5 235.5v530h-171zM481 1617 q0 72 48.5 118t124.5 46t125 -46t49 -118t-49 -118t-125 -46t-124.5 46t-48.5 118z" />
<glyph unicode="&#x1e98;" horiz-adv-x="1814" d="M57 1113h358l139 -763h19l168 763h337l170 -763h19l139 763h350l-288 -1113h-381l-174 733h-19l-172 -733h-375zM657 1505q0 106 71.5 174t182.5 68q110 0 180.5 -68t70.5 -174q0 -107 -71 -176t-180 -69q-110 0 -182 69t-72 176zM813 1504q0 -43 27.5 -70t69.5 -27 q43 0 70 27.5t27 69.5q0 41 -28 68.5t-69 27.5q-42 -1 -69.5 -28t-27.5 -68z" />
<glyph unicode="&#x1e99;" horiz-adv-x="1282" d="M50 1113h391l199 -816h19l199 816h374l-358 -1111q-71 -222 -203.5 -314.5t-372.5 -92.5q-124 0 -129 1v269q10 -2 62 -2q176 0 194 97l5 31zM397 1505q0 106 71.5 174t182.5 68q110 0 180.5 -68t70.5 -174q0 -107 -71 -176t-180 -69q-110 0 -182 69t-72 176zM553 1504 q0 -43 27.5 -70t69.5 -27q43 0 70 27.5t27 69.5q0 41 -28 68.5t-69 27.5q-42 -1 -69.5 -28t-27.5 -68z" />
<glyph unicode="&#x1e9e;" horiz-adv-x="2847" d="M107 411h350q7 -79 79.5 -125.5t186.5 -46.5q103 0 167 45t64 116q0 60 -52 95.5t-176 60.5l-190 38q-198 37 -299 144t-101 277q0 212 156.5 339.5t417.5 127.5q253 0 413 -125t165 -325h-339q-6 76 -71.5 124.5t-162.5 48.5t-155.5 -42.5t-58.5 -114.5q0 -59 51 -96 t165 -59l186 -36q214 -41 313.5 -141t99.5 -272q0 -226 -162 -354.5t-446 -128.5q-274 0 -435.5 121t-165.5 329zM1530 411h350q7 -79 79.5 -125.5t186.5 -46.5q103 0 167 45t64 116q0 60 -52 95.5t-176 60.5l-190 38q-198 37 -299 144t-101 277q0 212 156.5 339.5 t417.5 127.5q253 0 413 -125t165 -325h-339q-6 76 -71.5 124.5t-162.5 48.5t-155.5 -42.5t-58.5 -114.5q0 -59 51 -96t165 -59l186 -36q214 -41 313.5 -141t99.5 -272q0 -226 -162 -354.5t-446 -128.5q-274 0 -435.5 121t-165.5 329z" />
<glyph unicode="&#x1ea0;" horiz-adv-x="1563" d="M73 0l484 1443h449l485 -1443h-400l-90 317h-471l-93 -317h-364zM587 -275q0 75 49 123.5t128 48.5q78 0 127 -48.5t49 -123.5t-49 -123.5t-127 -48.5q-79 0 -128 48.5t-49 123.5zM600 581h332l-155 537h-19z" />
<glyph unicode="&#x1ea1;" horiz-adv-x="1248" d="M81 320q0 152 114.5 238.5t330.5 99.5l243 14v87q0 57 -40.5 88.5t-113.5 31.5q-141 0 -176 -90h-318q12 162 150 256t364 94q230 0 356 -100t126 -280v-759h-344v138h-19q-37 -71 -122 -113t-191 -42q-161 0 -260.5 92.5t-99.5 244.5zM422 345q0 -53 40.5 -84t107.5 -31 q84 0 141.5 49t57.5 121v73l-187 -12q-78 -6 -119 -36t-41 -80zM453 -275q0 75 49 123.5t128 48.5q78 0 127 -48.5t49 -123.5t-49 -123.5t-127 -48.5q-79 0 -128 48.5t-49 123.5z" />
<glyph unicode="&#x1ea2;" horiz-adv-x="1563" d="M73 0l484 1443h449l485 -1443h-400l-90 317h-471l-93 -317h-364zM559 1843v168q78 26 168 26q115 0 189 -61t74 -160q0 -88 -54 -155t-155 -106l-103 121q49 19 77.5 46.5t28.5 59.5q0 36 -30.5 58t-83.5 22q-68 0 -111 -19zM600 581h332l-155 537h-19z" />
<glyph unicode="&#x1ea3;" horiz-adv-x="1248" d="M81 320q0 152 114.5 238.5t330.5 99.5l243 14v87q0 57 -40.5 88.5t-113.5 31.5q-141 0 -176 -90h-318q12 162 150 256t364 94q230 0 356 -100t126 -280v-759h-344v138h-19q-37 -71 -122 -113t-191 -42q-161 0 -260.5 92.5t-99.5 244.5zM422 345q0 -53 40.5 -84t107.5 -31 q84 0 141.5 49t57.5 121v73l-187 -12q-78 -6 -119 -36t-41 -80zM439 1516v168q77 27 169 27q115 0 189.5 -61.5t74.5 -160.5q0 -89 -54 -156t-155 -107l-104 122q49 19 77.5 47t28.5 59q0 37 -30 59t-83 22q-68 0 -113 -19z" />
<glyph unicode="&#x1ea4;" horiz-adv-x="1563" d="M73 0l484 1443h449l485 -1443h-400l-90 317h-471l-93 -317h-364zM343 1581l269 283h340l269 -283h-298l-130 146h-22l-130 -146h-298zM600 581h332l-155 537h-19zM1040 1897l162 315h303l-194 -315h-271z" />
<glyph unicode="&#x1ea5;" horiz-adv-x="1248" d="M81 320q0 152 114.5 238.5t330.5 99.5l243 14v87q0 57 -40.5 88.5t-113.5 31.5q-141 0 -176 -90h-318q12 162 150 256t364 94q230 0 356 -100t126 -280v-759h-344v138h-19q-37 -71 -122 -113t-191 -42q-161 0 -260.5 92.5t-99.5 244.5zM214 1280l267 354h310l267 -354 h-279l-133 197h-20l-133 -197h-279zM422 345q0 -53 40.5 -84t107.5 -31q84 0 141.5 49t57.5 121v73l-187 -12q-78 -6 -119 -36t-41 -80zM869 1641l192 351h309l-239 -351h-262z" />
<glyph unicode="&#x1ea6;" horiz-adv-x="1563" d="M73 0l484 1443h449l485 -1443h-400l-90 317h-471l-93 -317h-364zM343 1581l269 283h340l269 -283h-298l-130 146h-22l-130 -146h-298zM600 581h332l-155 537h-19zM893 2212h302l163 -315h-271z" />
<glyph unicode="&#x1ea7;" horiz-adv-x="1248" d="M81 320q0 152 114.5 238.5t330.5 99.5l243 14v87q0 57 -40.5 88.5t-113.5 31.5q-141 0 -176 -90h-318q12 162 150 256t364 94q230 0 356 -100t126 -280v-759h-344v138h-19q-37 -71 -122 -113t-191 -42q-161 0 -260.5 92.5t-99.5 244.5zM196 1260l271 354h338l271 -354 h-297l-133 197h-20l-133 -197h-297zM422 345q0 -53 40.5 -84t107.5 -31q84 0 141.5 49t57.5 121v73l-187 -12q-78 -6 -119 -36t-41 -80zM709 1992h309l192 -351h-262z" />
<glyph unicode="&#x1ea8;" horiz-adv-x="1563" d="M73 0l484 1443h449l485 -1443h-400l-90 317h-471l-93 -317h-364zM343 1581l269 283h340l269 -283h-298l-130 146h-22l-130 -146h-298zM600 581h332l-155 537h-19zM944 2048v165q53 20 138 20q120 0 190.5 -57.5t70.5 -155.5q0 -177 -188 -252l-109 115q92 37 92 104 q0 35 -27.5 55.5t-74.5 20.5q-54 0 -92 -15z" />
<glyph unicode="&#x1ea9;" horiz-adv-x="1248" d="M81 320q0 152 114.5 238.5t330.5 99.5l243 14v87q0 57 -40.5 88.5t-113.5 31.5q-141 0 -176 -90h-318q12 162 150 256t364 94q230 0 356 -100t126 -280v-759h-344v138h-19q-37 -71 -122 -113t-191 -42q-161 0 -260.5 92.5t-99.5 244.5zM196 1260l271 354h338l271 -354 h-297l-133 197h-20l-133 -197h-297zM422 345q0 -53 40.5 -84t107.5 -31q84 0 141.5 49t57.5 121v73l-187 -12q-78 -6 -119 -36t-41 -80zM838 1809v170q58 21 138 21q126 0 199 -59t73 -160q0 -182 -202 -262l-103 122q47 18 72.5 46t25.5 60q0 37 -28.5 57.5t-77.5 20.5 q-55 0 -97 -16z" />
<glyph unicode="&#x1eaa;" horiz-adv-x="1563" d="M73 0l484 1443h449l485 -1443h-400l-90 317h-471l-93 -317h-364zM343 1581l269 275h340l269 -275h-298l-130 146h-22l-130 -146h-298zM379 1931q0 139 68.5 216t180.5 77q53 0 97 -19t68.5 -41.5t55.5 -41.5t61 -19q36 0 58 27t24 82h193q0 -141 -68.5 -219t-180.5 -78 q-53 0 -97 19t-68.5 41.5t-55.5 41.5t-61 19q-36 0 -58 -27t-24 -78h-193zM600 581h332l-155 537h-19z" />
<glyph unicode="&#x1eab;" horiz-adv-x="1248" d="M81 320q0 152 114.5 238.5t330.5 99.5l243 14v87q0 57 -40.5 88.5t-113.5 31.5q-141 0 -176 -90h-318q12 162 150 256t364 94q230 0 356 -100t126 -280v-759h-344v138h-19q-37 -71 -122 -113t-191 -42q-161 0 -260.5 92.5t-99.5 244.5zM196 1260l271 354h338l271 -354 h-297l-133 197h-20l-133 -197h-297zM214 1696q0 150 72 234t187 84q55 0 102 -20t73 -43.5t57.5 -43.5t58.5 -20q80 0 84 118h210q0 -148 -72 -230.5t-187 -82.5q-55 0 -102 20t-73 44t-57.5 44t-58.5 20q-80 0 -84 -124h-210zM422 345q0 -53 40.5 -84t107.5 -31 q84 0 141.5 49t57.5 121v73l-187 -12q-78 -6 -119 -36t-41 -80z" />
<glyph unicode="&#x1eac;" horiz-adv-x="1563" d="M73 0l484 1443h449l485 -1443h-400l-90 317h-471l-93 -317h-364zM342 1596l275 350h330l275 -350h-298l-132 190h-20l-132 -190h-298zM587 -275q0 75 49 123.5t128 48.5q78 0 127 -48.5t49 -123.5t-49 -123.5t-127 -48.5q-79 0 -128 48.5t-49 123.5zM600 581h332 l-155 537h-19z" />
<glyph unicode="&#x1ead;" horiz-adv-x="1248" d="M81 320q0 152 114.5 238.5t330.5 99.5l243 14v87q0 57 -40.5 88.5t-113.5 31.5q-141 0 -176 -90h-318q12 162 150 256t364 94q230 0 356 -100t126 -280v-759h-344v138h-19q-37 -71 -122 -113t-191 -42q-161 0 -260.5 92.5t-99.5 244.5zM196 1260l271 359h338l271 -359 h-297l-134 202h-19l-133 -202h-297zM422 345q0 -53 40.5 -84t107.5 -31q84 0 141.5 49t57.5 121v73l-187 -12q-78 -6 -119 -36t-41 -80zM453 -275q0 75 49 123.5t128 48.5q78 0 127 -48.5t49 -123.5t-49 -123.5t-127 -48.5q-79 0 -128 48.5t-49 123.5z" />
<glyph unicode="&#x1eae;" horiz-adv-x="1563" d="M73 0l484 1443h449l485 -1443h-400l-90 317h-471l-93 -317h-364zM364 1924h236q2 -69 51.5 -111t130.5 -42t130.5 42t51.5 111h236q0 -152 -113.5 -247.5t-304.5 -95.5t-304.5 95.5t-113.5 247.5zM600 581h332l-155 537h-19zM647 1945l165 267h297l-219 -267h-243z" />
<glyph unicode="&#x1eaf;" horiz-adv-x="1248" d="M81 320q0 152 114.5 238.5t330.5 99.5l243 14v87q0 57 -40.5 88.5t-113.5 31.5q-141 0 -176 -90h-318q12 162 150 256t364 94q230 0 356 -100t126 -280v-759h-344v138h-19q-37 -71 -122 -113t-191 -42q-161 0 -260.5 92.5t-99.5 244.5zM218 1620h236q2 -78 51 -123.5 t131 -45.5t131 45.5t51 123.5h236q0 -159 -113.5 -259.5t-304.5 -100.5t-304.5 100.5t-113.5 259.5zM422 345q0 -53 40.5 -84t107.5 -31q84 0 141.5 49t57.5 121v73l-187 -12q-78 -6 -119 -36t-41 -80zM510 1641l179 351h278l-240 -351h-217z" />
<glyph unicode="&#x1eb0;" horiz-adv-x="1563" d="M73 0l484 1443h449l485 -1443h-400l-90 317h-471l-93 -317h-364zM364 1924h236q2 -69 51.5 -111t130.5 -42t130.5 42t51.5 111h236q0 -152 -113.5 -247.5t-304.5 -95.5t-304.5 95.5t-113.5 247.5zM455 2212h297l165 -267h-243zM600 581h332l-155 537h-19z" />
<glyph unicode="&#x1eb1;" horiz-adv-x="1248" d="M81 320q0 152 114.5 238.5t330.5 99.5l243 14v87q0 57 -40.5 88.5t-113.5 31.5q-141 0 -176 -90h-318q12 162 150 256t364 94q230 0 356 -100t126 -280v-759h-344v138h-19q-37 -71 -122 -113t-191 -42q-161 0 -260.5 92.5t-99.5 244.5zM218 1620h236q2 -78 51 -123.5 t131 -45.5t131 45.5t51 123.5h236q0 -159 -113.5 -259.5t-304.5 -100.5t-304.5 100.5t-113.5 259.5zM303 1992h278l180 -351h-218zM422 345q0 -53 40.5 -84t107.5 -31q84 0 141.5 49t57.5 121v73l-187 -12q-78 -6 -119 -36t-41 -80z" />
<glyph unicode="&#x1eb2;" horiz-adv-x="1563" d="M73 0l484 1443h449l485 -1443h-400l-90 317h-471l-93 -317h-364zM381 1882h205q6 -67 57.5 -104.5t138.5 -37.5t138.5 37.5t57.5 104.5h205q0 -146 -109 -234t-292 -88t-292 88t-109 234zM567 2075v155q61 21 135 21q120 0 191 -55t71 -149q0 -168 -194 -243l-99 112 q93 36 93 101q0 34 -27.5 54t-75.5 20q-52 0 -94 -16zM600 581h332l-155 537h-19z" />
<glyph unicode="&#x1eb3;" horiz-adv-x="1248" d="M81 320q0 152 114.5 238.5t330.5 99.5l243 14v87q0 57 -40.5 88.5t-113.5 31.5q-141 0 -176 -90h-318q12 162 150 256t364 94q230 0 356 -100t126 -280v-759h-344v138h-19q-37 -71 -122 -113t-191 -42q-161 0 -260.5 92.5t-99.5 244.5zM218 1618h236q2 -76 51 -121.5 t131 -45.5t131 45.5t51 121.5h236q0 -157 -113.5 -257.5t-304.5 -100.5t-304.5 100.5t-113.5 257.5zM422 345q0 -53 40.5 -84t107.5 -31q84 0 141.5 49t57.5 121v73l-187 -12q-78 -6 -119 -36t-41 -80zM429 1829v157q52 21 128 21q119 0 188 -55t69 -150q0 -163 -188 -238 l-97 113q90 35 90 93q0 34 -26.5 54.5t-73.5 20.5q-52 0 -90 -16z" />
<glyph unicode="&#x1eb4;" horiz-adv-x="1563" d="M73 0l484 1443h449l485 -1443h-400l-90 317h-471l-93 -317h-364zM390 1875h220q2 -47 50 -82t122 -35t122 35t50 82h220q0 -123 -108 -208.5t-284 -85.5t-284 85.5t-108 208.5zM390 1955q0 125 66.5 197t171.5 72q49 0 92 -17.5t68 -38t56 -38t59 -17.5q33 0 54 23.5 t23 71.5h194q0 -128 -66.5 -200.5t-171.5 -72.5q-49 0 -92 17.5t-68 38t-56 38t-59 17.5q-34 0 -54.5 -23.5t-22.5 -67.5h-194zM600 581h332l-155 537h-19z" />
<glyph unicode="&#x1eb5;" horiz-adv-x="1248" d="M81 320q0 152 114.5 238.5t330.5 99.5l243 14v87q0 57 -40.5 88.5t-113.5 31.5q-141 0 -176 -90h-318q12 162 150 256t364 94q230 0 356 -100t126 -280v-759h-344v138h-19q-37 -71 -122 -113t-191 -42q-161 0 -260.5 92.5t-99.5 244.5zM214 1718q0 135 72.5 215.5 t186.5 80.5q55 0 102 -20t73 -43.5t57.5 -43.5t58.5 -20q80 0 84 118h210q0 -148 -72 -230.5t-187 -82.5q-55 0 -102 20t-73 44t-57.5 44t-58.5 20q-37 0 -59.5 -27t-24.5 -75h-210zM218 1620h236q2 -78 51 -123.5t131 -45.5t131 45.5t51 123.5h236q0 -159 -113.5 -259.5 t-304.5 -100.5t-304.5 100.5t-113.5 259.5zM422 345q0 -53 40.5 -84t107.5 -31q84 0 141.5 49t57.5 121v73l-187 -12q-78 -6 -119 -36t-41 -80z" />
<glyph unicode="&#x1eb6;" horiz-adv-x="1563" d="M73 0l484 1443h449l485 -1443h-400l-90 317h-471l-93 -317h-364zM364 1932h236q2 -74 51 -117.5t131 -43.5t131 43.5t51 117.5h236q0 -157 -113.5 -254t-304.5 -97t-304.5 97t-113.5 254zM587 -275q0 75 49 123.5t128 48.5q78 0 127 -48.5t49 -123.5t-49 -123.5 t-127 -48.5q-79 0 -128 48.5t-49 123.5zM600 581h332l-155 537h-19z" />
<glyph unicode="&#x1eb7;" horiz-adv-x="1248" d="M81 320q0 152 114.5 238.5t330.5 99.5l243 14v87q0 57 -40.5 88.5t-113.5 31.5q-141 0 -176 -90h-318q12 162 150 256t364 94q230 0 356 -100t126 -280v-759h-344v138h-19q-37 -71 -122 -113t-191 -42q-161 0 -260.5 92.5t-99.5 244.5zM218 1620h236q2 -78 51 -123.5 t131 -45.5t131 45.5t51 123.5h236q0 -160 -113 -260t-305 -100t-305 100t-113 260zM422 345q0 -53 40.5 -84t107.5 -31q84 0 141.5 49t57.5 121v73l-187 -12q-78 -6 -119 -36t-41 -80zM453 -275q0 75 49 123.5t128 48.5q78 0 127 -48.5t49 -123.5t-49 -123.5t-127 -48.5 q-79 0 -128 48.5t-49 123.5z" />
<glyph unicode="&#x1eb8;" horiz-adv-x="1302" d="M170 0v1443h989v-295h-622v-288h585v-270h-585v-295h622v-295h-989zM488 -275q0 75 49 123.5t128 48.5q78 0 127 -48.5t49 -123.5t-49 -123.5t-127 -48.5q-79 0 -128 48.5t-49 123.5z" />
<glyph unicode="&#x1eb9;" horiz-adv-x="1262" d="M83 549q0 275 147.5 432.5t406.5 157.5q257 0 400 -148.5t143 -414.5v-98h-749v-18q2 -109 61 -172t160 -63q77 0 128.5 27t69.5 76h323q-29 -163 -172 -258.5t-359 -95.5q-266 0 -412.5 150.5t-146.5 424.5zM433 681h404q-4 97 -56.5 152t-141.5 55q-87 0 -143 -56.5 t-63 -150.5zM465 -275q0 75 49 123.5t128 48.5q78 0 127 -48.5t49 -123.5t-49 -123.5t-127 -48.5q-79 0 -128 48.5t-49 123.5z" />
<glyph unicode="&#x1eba;" horiz-adv-x="1302" d="M170 0v1443h989v-295h-622v-288h585v-270h-585v-295h622v-295h-989zM442 1843v168q78 26 168 26q115 0 189 -61t74 -160q0 -88 -54 -155t-155 -106l-103 121q49 19 77.5 46.5t28.5 59.5q0 36 -30.5 58t-83.5 22q-68 0 -111 -19z" />
<glyph unicode="&#x1ebb;" horiz-adv-x="1262" d="M83 549q0 275 147.5 432.5t406.5 157.5q257 0 400 -148.5t143 -414.5v-98h-749v-18q2 -109 61 -172t160 -63q77 0 128.5 27t69.5 76h323q-29 -163 -172 -258.5t-359 -95.5q-266 0 -412.5 150.5t-146.5 424.5zM433 681h404q-4 97 -56.5 152t-141.5 55q-87 0 -143 -56.5 t-63 -150.5zM440 1514v168q77 27 169 27q115 0 189.5 -61.5t74.5 -160.5q0 -89 -54 -156t-155 -107l-104 122q49 19 77.5 47t28.5 59q0 37 -30 59t-83 22q-68 0 -113 -19z" />
<glyph unicode="&#x1ebc;" horiz-adv-x="1302" d="M170 0v1443h989v-295h-622v-288h585v-270h-585v-295h622v-295h-989zM244 1572q0 149 76.5 241t200.5 92q40 0 76.5 -14.5t61.5 -35t47.5 -40.5t45 -34.5t43.5 -14.5q38 0 60 34t23 97h210q0 -147 -76 -238t-200 -91q-49 0 -93.5 22t-70 48t-55.5 48t-55 22q-38 0 -60 -36 t-24 -100h-210z" />
<glyph unicode="&#x1ebd;" horiz-adv-x="1262" d="M83 549q0 275 147.5 432.5t406.5 157.5q257 0 400 -148.5t143 -414.5v-98h-749v-18q2 -109 61 -172t160 -63q77 0 128.5 27t69.5 76h323q-29 -163 -172 -258.5t-359 -95.5q-266 0 -412.5 150.5t-146.5 424.5zM222 1264q0 149 76.5 241t200.5 92q40 0 76.5 -14.5t61.5 -35 t47.5 -40.5t45 -34.5t43.5 -14.5q38 0 60 34t23 97h210q0 -147 -76 -238t-200 -91q-49 0 -93.5 22t-70 48t-55.5 48t-55 22q-38 0 -60 -36t-24 -100h-210zM433 681h404q-4 97 -56.5 152t-141.5 55q-87 0 -143 -56.5t-63 -150.5z" />
<glyph unicode="&#x1ebe;" horiz-adv-x="1302" d="M170 0v1443h989v-295h-622v-288h585v-270h-585v-295h622v-295h-989zM226 1581l269 283h340l269 -283h-298l-130 146h-22l-130 -146h-298zM923 1897l162 315h303l-194 -315h-271z" />
<glyph unicode="&#x1ebf;" horiz-adv-x="1262" d="M83 549q0 275 147.5 432.5t406.5 157.5q257 0 400 -148.5t143 -414.5v-98h-749v-18q2 -109 61 -172t160 -63q77 0 128.5 27t69.5 76h323q-29 -163 -172 -258.5t-359 -95.5q-266 0 -412.5 150.5t-146.5 424.5zM215 1280l267 354h310l267 -354h-279l-133 197h-20l-133 -197 h-279zM433 681h404q-4 97 -56.5 152t-141.5 55q-87 0 -143 -56.5t-63 -150.5zM870 1641l192 351h309l-239 -351h-262z" />
<glyph unicode="&#x1ec0;" horiz-adv-x="1302" d="M170 0v1443h989v-295h-622v-288h585v-270h-585v-295h622v-295h-989zM226 1581l269 283h340l269 -283h-298l-130 146h-22l-130 -146h-298zM776 2212h302l163 -315h-271z" />
<glyph unicode="&#x1ec1;" horiz-adv-x="1262" d="M83 549q0 275 147.5 432.5t406.5 157.5q257 0 400 -148.5t143 -414.5v-98h-749v-18q2 -109 61 -172t160 -63q77 0 128.5 27t69.5 76h323q-29 -163 -172 -258.5t-359 -95.5q-266 0 -412.5 150.5t-146.5 424.5zM197 1260l271 354h338l271 -354h-297l-133 197h-20l-133 -197 h-297zM433 681h404q-4 97 -56.5 152t-141.5 55q-87 0 -143 -56.5t-63 -150.5zM710 1992h309l192 -351h-262z" />
<glyph unicode="&#x1ec2;" horiz-adv-x="1302" d="M170 0v1443h989v-295h-622v-288h585v-270h-585v-295h622v-295h-989zM226 1581l269 283h340l269 -283h-298l-130 146h-22l-130 -146h-298zM827 2048v165q53 20 138 20q120 0 190.5 -57.5t70.5 -155.5q0 -177 -188 -252l-109 115q92 37 92 104q0 35 -27.5 55.5t-74.5 20.5 q-54 0 -92 -15z" />
<glyph unicode="&#x1ec3;" horiz-adv-x="1262" d="M83 549q0 275 147.5 432.5t406.5 157.5q257 0 400 -148.5t143 -414.5v-98h-749v-18q2 -109 61 -172t160 -63q77 0 128.5 27t69.5 76h323q-29 -163 -172 -258.5t-359 -95.5q-266 0 -412.5 150.5t-146.5 424.5zM197 1260l271 354h338l271 -354h-297l-133 197h-20l-133 -197 h-297zM433 681h404q-4 97 -56.5 152t-141.5 55q-87 0 -143 -56.5t-63 -150.5zM839 1809v170q58 21 138 21q126 0 199 -59t73 -160q0 -182 -202 -262l-103 122q47 18 72.5 46t25.5 60q0 37 -28.5 57.5t-77.5 20.5q-55 0 -97 -16z" />
<glyph unicode="&#x1ec4;" horiz-adv-x="1302" d="M170 0v1443h989v-295h-622v-288h585v-270h-585v-295h622v-295h-989zM226 1581l269 275h340l269 -275h-298l-130 146h-22l-130 -146h-298zM262 1931q0 139 68.5 216t180.5 77q53 0 97 -19t68.5 -41.5t55.5 -41.5t61 -19q36 0 58 27t24 82h193q0 -141 -68.5 -219 t-180.5 -78q-53 0 -97 19t-68.5 41.5t-55.5 41.5t-61 19q-36 0 -58 -27t-24 -78h-193z" />
<glyph unicode="&#x1ec5;" horiz-adv-x="1262" d="M83 549q0 275 147.5 432.5t406.5 157.5q257 0 400 -148.5t143 -414.5v-98h-749v-18q2 -109 61 -172t160 -63q77 0 128.5 27t69.5 76h323q-29 -163 -172 -258.5t-359 -95.5q-266 0 -412.5 150.5t-146.5 424.5zM197 1260l271 354h338l271 -354h-297l-133 197h-20l-133 -197 h-297zM215 1696q0 150 72 234t187 84q55 0 102 -20t73 -43.5t57.5 -43.5t58.5 -20q80 0 84 118h210q0 -148 -72 -230.5t-187 -82.5q-55 0 -102 20t-73 44t-57.5 44t-58.5 20q-80 0 -84 -124h-210zM433 681h404q-4 97 -56.5 152t-141.5 55q-87 0 -143 -56.5t-63 -150.5z" />
<glyph unicode="&#x1ec6;" horiz-adv-x="1302" d="M170 0v1443h989v-295h-622v-288h585v-270h-585v-295h622v-295h-989zM225 1596l275 350h330l275 -350h-298l-132 190h-20l-132 -190h-298zM488 -275q0 75 49 123.5t128 48.5q78 0 127 -48.5t49 -123.5t-49 -123.5t-127 -48.5q-79 0 -128 48.5t-49 123.5z" />
<glyph unicode="&#x1ec7;" horiz-adv-x="1262" d="M83 549q0 275 147.5 432.5t406.5 157.5q257 0 400 -148.5t143 -414.5v-98h-749v-18q2 -109 61 -172t160 -63q77 0 128.5 27t69.5 76h323q-29 -163 -172 -258.5t-359 -95.5q-266 0 -412.5 150.5t-146.5 424.5zM197 1260l271 359h338l271 -359h-297l-134 202h-19l-133 -202 h-297zM433 681h404q-4 97 -56.5 152t-141.5 55q-87 0 -143 -56.5t-63 -150.5zM465 -275q0 75 49 123.5t128 48.5q78 0 127 -48.5t49 -123.5t-49 -123.5t-127 -48.5q-79 0 -128 48.5t-49 123.5z" />
<glyph unicode="&#x1ec8;" horiz-adv-x="707" d="M130 1843v168q78 26 168 26q115 0 189 -61t74 -160q0 -88 -54 -155t-155 -106l-103 121q49 19 77.5 46.5t28.5 59.5q0 36 -30.5 58t-83.5 22q-68 0 -111 -19zM170 0v1443h367v-1443h-367z" />
<glyph unicode="&#x1ec9;" horiz-adv-x="631" d="M119 1516v168q77 27 169 27q115 0 189.5 -61.5t74.5 -160.5q0 -89 -54 -156t-155 -107l-104 122q49 19 77.5 47t28.5 59q0 37 -30 59t-83 22q-68 0 -113 -19zM138 0v1113h354v-1113h-354z" />
<glyph unicode="&#x1eca;" horiz-adv-x="707" d="M170 0v1443h367v-1443h-367zM176 -275q0 75 49 123.5t128 48.5q78 0 127 -48.5t49 -123.5t-49 -123.5t-127 -48.5q-79 0 -128 48.5t-49 123.5z" />
<glyph unicode="&#x1ecb;" horiz-adv-x="631" d="M116 1399q0 72 53.5 115t145.5 43q93 0 146.5 -43t53.5 -115q0 -71 -53.5 -114t-146.5 -43q-92 0 -145.5 43t-53.5 114zM138 0v1113h354v-1113h-354zM138 -275q0 75 49 123.5t128 48.5q78 0 127 -48.5t49 -123.5t-49 -123.5t-127 -48.5q-79 0 -128 48.5t-49 123.5z" />
<glyph unicode="&#x1ecc;" d="M102 722q0 351 193 555.5t519 204.5t518 -204.5t192 -555.5q0 -352 -192 -556.5t-518 -204.5q-328 0 -520 204.5t-192 556.5zM476 722q0 -209 92 -333t246 -124q153 0 245 124t92 333q0 208 -92.5 332t-244.5 124q-153 0 -245.5 -124t-92.5 -332zM637 -275q0 75 49 123.5 t128 48.5q78 0 127 -48.5t49 -123.5t-49 -123.5t-127 -48.5q-79 0 -128 48.5t-49 123.5z" />
<glyph unicode="&#x1ecd;" horiz-adv-x="1300" d="M83 557q0 270 152 426t415 156q264 0 415.5 -155.5t151.5 -426.5q0 -275 -149.5 -429t-417.5 -154q-267 0 -417 154t-150 429zM446 557q0 -149 53.5 -231t150.5 -82t150.5 82t53.5 231q0 146 -54 229t-150 83t-150 -83t-54 -229zM473 -275q0 75 49 123.5t128 48.5 q78 0 127 -48.5t49 -123.5t-49 -123.5t-127 -48.5q-79 0 -128 48.5t-49 123.5z" />
<glyph unicode="&#x1ece;" d="M102 722q0 351 193 555.5t519 204.5t518 -204.5t192 -555.5q0 -352 -192 -556.5t-518 -204.5q-328 0 -520 204.5t-192 556.5zM476 722q0 -209 92 -333t246 -124q153 0 245 124t92 333q0 208 -92.5 332t-244.5 124q-153 0 -245.5 -124t-92.5 -332zM591 1843v168 q78 26 168 26q115 0 189 -61t74 -160q0 -88 -54 -155t-155 -106l-103 121q49 19 77.5 46.5t28.5 59.5q0 36 -30.5 58t-83.5 22q-68 0 -111 -19z" />
<glyph unicode="&#x1ecf;" horiz-adv-x="1300" d="M83 557q0 270 152 426t415 156q264 0 415.5 -155.5t151.5 -426.5q0 -275 -149.5 -429t-417.5 -154q-267 0 -417 154t-150 429zM446 557q0 -149 53.5 -231t150.5 -82t150.5 82t53.5 231q0 146 -54 229t-150 83t-150 -83t-54 -229zM453 1514v168q77 27 169 27 q115 0 189.5 -61.5t74.5 -160.5q0 -89 -54 -156t-155 -107l-104 122q49 19 77.5 47t28.5 59q0 37 -30 59t-83 22q-68 0 -113 -19z" />
<glyph unicode="&#x1ed0;" d="M102 722q0 351 193 555.5t519 204.5t518 -204.5t192 -555.5q0 -352 -192 -556.5t-518 -204.5q-328 0 -520 204.5t-192 556.5zM375 1581l269 283h340l269 -283h-298l-130 146h-22l-130 -146h-298zM476 722q0 -209 92 -333t246 -124q153 0 245 124t92 333q0 208 -92.5 332 t-244.5 124q-153 0 -245.5 -124t-92.5 -332zM1072 1897l162 315h303l-194 -315h-271z" />
<glyph unicode="&#x1ed1;" horiz-adv-x="1300" d="M83 557q0 270 152 426t415 156q264 0 415.5 -155.5t151.5 -426.5q0 -275 -149.5 -429t-417.5 -154q-267 0 -417 154t-150 429zM228 1280l267 354h310l267 -354h-279l-133 197h-20l-133 -197h-279zM446 557q0 -149 53.5 -231t150.5 -82t150.5 82t53.5 231q0 146 -54 229 t-150 83t-150 -83t-54 -229zM883 1641l192 351h309l-239 -351h-262z" />
<glyph unicode="&#x1ed2;" d="M102 722q0 351 193 555.5t519 204.5t518 -204.5t192 -555.5q0 -352 -192 -556.5t-518 -204.5q-328 0 -520 204.5t-192 556.5zM375 1581l269 283h340l269 -283h-298l-130 146h-22l-130 -146h-298zM476 722q0 -209 92 -333t246 -124q153 0 245 124t92 333q0 208 -92.5 332 t-244.5 124q-153 0 -245.5 -124t-92.5 -332zM925 2212h302l163 -315h-271z" />
<glyph unicode="&#x1ed3;" horiz-adv-x="1300" d="M83 557q0 270 152 426t415 156q264 0 415.5 -155.5t151.5 -426.5q0 -275 -149.5 -429t-417.5 -154q-267 0 -417 154t-150 429zM210 1260l271 354h338l271 -354h-297l-133 197h-20l-133 -197h-297zM446 557q0 -149 53.5 -231t150.5 -82t150.5 82t53.5 231q0 146 -54 229 t-150 83t-150 -83t-54 -229zM723 1992h309l192 -351h-262z" />
<glyph unicode="&#x1ed4;" d="M102 722q0 351 193 555.5t519 204.5t518 -204.5t192 -555.5q0 -352 -192 -556.5t-518 -204.5q-328 0 -520 204.5t-192 556.5zM375 1581l269 283h340l269 -283h-298l-130 146h-22l-130 -146h-298zM476 722q0 -209 92 -333t246 -124q153 0 245 124t92 333q0 208 -92.5 332 t-244.5 124q-153 0 -245.5 -124t-92.5 -332zM976 2048v165q53 20 138 20q120 0 190.5 -57.5t70.5 -155.5q0 -177 -188 -252l-109 115q92 37 92 104q0 35 -27.5 55.5t-74.5 20.5q-54 0 -92 -15z" />
<glyph unicode="&#x1ed5;" horiz-adv-x="1300" d="M83 557q0 270 152 426t415 156q264 0 415.5 -155.5t151.5 -426.5q0 -275 -149.5 -429t-417.5 -154q-267 0 -417 154t-150 429zM210 1260l271 354h338l271 -354h-297l-133 197h-20l-133 -197h-297zM446 557q0 -149 53.5 -231t150.5 -82t150.5 82t53.5 231q0 146 -54 229 t-150 83t-150 -83t-54 -229zM852 1809v170q58 21 138 21q126 0 199 -59t73 -160q0 -182 -202 -262l-103 122q47 18 72.5 46t25.5 60q0 37 -28.5 57.5t-77.5 20.5q-55 0 -97 -16z" />
<glyph unicode="&#x1ed6;" d="M102 722q0 351 193 555.5t519 204.5t518 -204.5t192 -555.5q0 -352 -192 -556.5t-518 -204.5q-328 0 -520 204.5t-192 556.5zM375 1581l269 275h340l269 -275h-298l-130 146h-22l-130 -146h-298zM411 1931q0 139 68.5 216t180.5 77q53 0 97 -19t68.5 -41.5t55.5 -41.5 t61 -19q36 0 58 27t24 82h193q0 -141 -68.5 -219t-180.5 -78q-53 0 -97 19t-68.5 41.5t-55.5 41.5t-61 19q-36 0 -58 -27t-24 -78h-193zM476 722q0 -209 92 -333t246 -124q153 0 245 124t92 333q0 208 -92.5 332t-244.5 124q-153 0 -245.5 -124t-92.5 -332z" />
<glyph unicode="&#x1ed7;" horiz-adv-x="1300" d="M83 557q0 270 152 426t415 156q264 0 415.5 -155.5t151.5 -426.5q0 -275 -149.5 -429t-417.5 -154q-267 0 -417 154t-150 429zM210 1260l271 354h338l271 -354h-297l-133 197h-20l-133 -197h-297zM228 1696q0 150 72 234t187 84q55 0 102 -20t73 -43.5t57.5 -43.5 t58.5 -20q80 0 84 118h210q0 -148 -72 -230.5t-187 -82.5q-55 0 -102 20t-73 44t-57.5 44t-58.5 20q-80 0 -84 -124h-210zM446 557q0 -149 53.5 -231t150.5 -82t150.5 82t53.5 231q0 146 -54 229t-150 83t-150 -83t-54 -229z" />
<glyph unicode="&#x1ed8;" d="M102 722q0 351 193 555.5t519 204.5t518 -204.5t192 -555.5q0 -352 -192 -556.5t-518 -204.5q-328 0 -520 204.5t-192 556.5zM374 1596l275 350h330l275 -350h-298l-132 190h-20l-132 -190h-298zM476 722q0 -209 92 -333t246 -124q153 0 245 124t92 333q0 208 -92.5 332 t-244.5 124q-153 0 -245.5 -124t-92.5 -332zM637 -275q0 75 49 123.5t128 48.5q78 0 127 -48.5t49 -123.5t-49 -123.5t-127 -48.5q-79 0 -128 48.5t-49 123.5z" />
<glyph unicode="&#x1ed9;" horiz-adv-x="1300" d="M83 557q0 270 152 426t415 156q264 0 415.5 -155.5t151.5 -426.5q0 -275 -149.5 -429t-417.5 -154q-267 0 -417 154t-150 429zM210 1260l271 359h338l271 -359h-297l-134 202h-19l-133 -202h-297zM446 557q0 -149 53.5 -231t150.5 -82t150.5 82t53.5 231q0 146 -54 229 t-150 83t-150 -83t-54 -229zM473 -275q0 75 49 123.5t128 48.5q78 0 127 -48.5t49 -123.5t-49 -123.5t-127 -48.5q-79 0 -128 48.5t-49 123.5z" />
<glyph unicode="&#x1eda;" horiz-adv-x="1699" d="M102 722q0 351 193 555.5t519 204.5q96 0 228 -28t212 -28q108 0 108 88v174h269v-251q0 -108 -56.5 -166t-163.5 -58h-62v-18q77 -62 126 -192t49 -281q0 -352 -192 -556.5t-518 -204.5q-328 0 -520 204.5t-192 556.5zM476 722q0 -209 92 -333t246 -124q153 0 245 124 t92 333q0 208 -92.5 332t-244.5 124q-153 0 -245.5 -124t-92.5 -332zM646 1596l258 326h362l-304 -326h-316z" />
<glyph unicode="&#x1edb;" horiz-adv-x="1428" d="M83 557q0 270 152 426t415 156q82 0 170.5 -21.5t133.5 -21.5q60 0 85.5 19t25.5 63v149h269v-237q0 -204 -200 -204h-41v-17q53 -36 88.5 -125.5t35.5 -186.5q0 -275 -149.5 -429t-417.5 -154q-267 0 -417 154t-150 429zM446 557q0 -149 53.5 -231t150.5 -82t150.5 82 t53.5 231q0 146 -54 229t-150 83t-150 -83t-54 -229zM461 1288l245 359h356l-292 -359h-309z" />
<glyph unicode="&#x1edc;" horiz-adv-x="1699" d="M102 722q0 351 193 555.5t519 204.5q96 0 228 -28t212 -28q108 0 108 88v174h269v-251q0 -108 -56.5 -166t-163.5 -58h-62v-18q77 -62 126 -192t49 -281q0 -352 -192 -556.5t-518 -204.5q-328 0 -520 204.5t-192 556.5zM362 1922h362l258 -326h-314zM476 722 q0 -209 92 -333t246 -124q153 0 245 124t92 333q0 208 -92.5 332t-244.5 124q-153 0 -245.5 -124t-92.5 -332z" />
<glyph unicode="&#x1edd;" horiz-adv-x="1428" d="M83 557q0 270 152 426t415 156q82 0 170.5 -21.5t133.5 -21.5q60 0 85.5 19t25.5 63v149h269v-237q0 -204 -200 -204h-41v-17q53 -36 88.5 -125.5t35.5 -186.5q0 -275 -149.5 -429t-417.5 -154q-267 0 -417 154t-150 429zM214 1647h356l245 -359h-309zM446 557 q0 -149 53.5 -231t150.5 -82t150.5 82t53.5 231q0 146 -54 229t-150 83t-150 -83t-54 -229z" />
<glyph unicode="&#x1ede;" horiz-adv-x="1699" d="M102 722q0 351 193 555.5t519 204.5q96 0 228 -28t212 -28q108 0 108 88v174h269v-251q0 -108 -56.5 -166t-163.5 -58h-62v-18q77 -62 126 -192t49 -281q0 -352 -192 -556.5t-518 -204.5q-328 0 -520 204.5t-192 556.5zM476 722q0 -209 92 -333t246 -124q153 0 245 124 t92 333q0 208 -92.5 332t-244.5 124q-153 0 -245.5 -124t-92.5 -332zM582 1843v168q78 26 168 26q115 0 189 -61t74 -160q0 -88 -54 -155t-155 -106l-103 121q49 19 77.5 46.5t28.5 59.5q0 36 -30.5 58t-83.5 22q-68 0 -111 -19z" />
<glyph unicode="&#x1edf;" horiz-adv-x="1428" d="M83 557q0 270 152 426t415 156q82 0 170.5 -21.5t133.5 -21.5q60 0 85.5 19t25.5 63v149h269v-237q0 -204 -200 -204h-41v-17q53 -36 88.5 -125.5t35.5 -186.5q0 -275 -149.5 -429t-417.5 -154q-267 0 -417 154t-150 429zM440 1514v168q77 27 169 27q115 0 189.5 -61.5 t74.5 -160.5q0 -89 -54 -156t-155 -107l-104 122q49 19 77.5 47t28.5 59q0 37 -30 59t-83 22q-68 0 -113 -19zM446 557q0 -149 53.5 -231t150.5 -82t150.5 82t53.5 231q0 146 -54 229t-150 83t-150 -83t-54 -229z" />
<glyph unicode="&#x1ee0;" horiz-adv-x="1699" d="M102 722q0 351 193 555.5t519 204.5q96 0 228 -28t212 -28q108 0 108 88v174h269v-251q0 -108 -56.5 -166t-163.5 -58h-62v-18q77 -62 126 -192t49 -281q0 -352 -192 -556.5t-518 -204.5q-328 0 -520 204.5t-192 556.5zM384 1572q0 149 76.5 241t200.5 92 q40 0 76.5 -14.5t61.5 -35t47.5 -40.5t45 -34.5t43.5 -14.5q38 0 60 34t23 97h210q0 -147 -76 -238t-200 -91q-49 0 -93.5 22t-70 48t-55.5 48t-55 22q-38 0 -60 -36t-24 -100h-210zM476 722q0 -209 92 -333t246 -124q153 0 245 124t92 333q0 208 -92.5 332t-244.5 124 q-153 0 -245.5 -124t-92.5 -332z" />
<glyph unicode="&#x1ee1;" horiz-adv-x="1428" d="M83 557q0 270 152 426t415 156q82 0 170.5 -21.5t133.5 -21.5q60 0 85.5 19t25.5 63v149h269v-237q0 -204 -200 -204h-41v-17q53 -36 88.5 -125.5t35.5 -186.5q0 -275 -149.5 -429t-417.5 -154q-267 0 -417 154t-150 429zM182 1264q0 149 76.5 241t200.5 92 q40 0 76.5 -14.5t61.5 -35t47.5 -40.5t45 -34.5t43.5 -14.5q38 0 60 34t23 97h210q0 -147 -76 -238t-200 -91q-49 0 -93.5 22t-70 48t-55.5 48t-55 22q-38 0 -60 -36t-24 -100h-210zM446 557q0 -149 53.5 -231t150.5 -82t150.5 82t53.5 231q0 146 -54 229t-150 83t-150 -83 t-54 -229z" />
<glyph unicode="&#x1ee2;" horiz-adv-x="1699" d="M102 722q0 351 193 555.5t519 204.5q96 0 228 -28t212 -28q108 0 108 88v174h269v-251q0 -108 -56.5 -166t-163.5 -58h-62v-18q77 -62 126 -192t49 -281q0 -352 -192 -556.5t-518 -204.5q-328 0 -520 204.5t-192 556.5zM476 722q0 -209 92 -333t246 -124q153 0 245 124 t92 333q0 208 -92.5 332t-244.5 124q-153 0 -245.5 -124t-92.5 -332zM628 -275q0 75 49 123.5t128 48.5q78 0 127 -48.5t49 -123.5t-49 -123.5t-127 -48.5q-79 0 -128 48.5t-49 123.5z" />
<glyph unicode="&#x1ee3;" horiz-adv-x="1428" d="M83 557q0 270 152 426t415 156q82 0 170.5 -21.5t133.5 -21.5q60 0 85.5 19t25.5 63v149h269v-237q0 -204 -200 -204h-41v-17q53 -36 88.5 -125.5t35.5 -186.5q0 -275 -149.5 -429t-417.5 -154q-267 0 -417 154t-150 429zM446 557q0 -149 53.5 -231t150.5 -82t150.5 82 t53.5 231q0 146 -54 229t-150 83t-150 -83t-54 -229zM460 -275q0 75 49 123.5t128 48.5q78 0 127 -48.5t49 -123.5t-49 -123.5t-127 -48.5q-79 0 -128 48.5t-49 123.5z" />
<glyph unicode="&#x1ee4;" horiz-adv-x="1586" d="M171 498v945h367v-906q0 -126 66.5 -196.5t188.5 -70.5t188 70t66 197v906h367v-945q0 -243 -170 -390t-451 -147t-451.5 147t-170.5 390zM616 -275q0 75 49 123.5t128 48.5q78 0 127 -48.5t49 -123.5t-49 -123.5t-127 -48.5q-79 0 -128 48.5t-49 123.5z" />
<glyph unicode="&#x1ee5;" horiz-adv-x="1340" d="M128 386v727h353v-640q0 -101 47.5 -154.5t133.5 -53.5q89 0 137.5 56.5t48.5 155.5v636h354v-1113h-344v180h-19q-82 -206 -316 -206q-179 0 -287 110.5t-108 301.5zM481 -275q0 75 49 123.5t128 48.5q78 0 127 -48.5t49 -123.5t-49 -123.5t-127 -48.5q-79 0 -128 48.5 t-49 123.5z" />
<glyph unicode="&#x1ee6;" horiz-adv-x="1586" d="M171 498v945h367v-906q0 -126 66.5 -196.5t188.5 -70.5t188 70t66 197v906h367v-945q0 -243 -170 -390t-451 -147t-451.5 147t-170.5 390zM570 1843v168q78 26 168 26q115 0 189 -61t74 -160q0 -88 -54 -155t-155 -106l-103 121q49 19 77.5 46.5t28.5 59.5q0 36 -30.5 58 t-83.5 22q-68 0 -111 -19z" />
<glyph unicode="&#x1ee7;" horiz-adv-x="1340" d="M128 386v727h353v-640q0 -101 47.5 -154.5t133.5 -53.5q89 0 137.5 56.5t48.5 155.5v636h354v-1113h-344v180h-19q-82 -206 -316 -206q-179 0 -287 110.5t-108 301.5zM468 1516v168q77 27 169 27q115 0 189.5 -61.5t74.5 -160.5q0 -89 -54 -156t-155 -107l-104 122 q49 19 77.5 47t28.5 59q0 37 -30 59t-83 22q-68 0 -113 -19z" />
<glyph unicode="&#x1ee8;" horiz-adv-x="1798" d="M171 498v945h367v-906q0 -127 67 -197t188 -70t187.5 70t66.5 197v906h382q74 0 74 71v194h269v-266q0 -108 -64 -167.5t-176 -59.5h-118v-717q0 -243 -170 -390t-451 -147t-451.5 147t-170.5 390zM634 1596l258 326h362l-304 -326h-316z" />
<glyph unicode="&#x1ee9;" horiz-adv-x="1609" d="M128 386v727h353v-640q0 -100 47 -154t134 -54q88 0 137 56t49 156v636h368q35 0 54.5 18.5t19.5 52.5v162h269v-234q0 -108 -64.5 -167.5t-176.5 -59.5h-116v-885h-344v180h-19q-41 -105 -118.5 -155.5t-197.5 -50.5q-181 0 -288 112t-107 300zM503 1288l245 359h356 l-292 -359h-309z" />
<glyph unicode="&#x1eea;" horiz-adv-x="1798" d="M171 498v945h367v-906q0 -127 67 -197t188 -70t187.5 70t66.5 197v906h382q74 0 74 71v194h269v-266q0 -108 -64 -167.5t-176 -59.5h-118v-717q0 -243 -170 -390t-451 -147t-451.5 147t-170.5 390zM350 1922h362l258 -326h-314z" />
<glyph unicode="&#x1eeb;" horiz-adv-x="1609" d="M128 386v727h353v-640q0 -100 47 -154t134 -54q88 0 137 56t49 156v636h368q35 0 54.5 18.5t19.5 52.5v162h269v-234q0 -108 -64.5 -167.5t-176.5 -59.5h-116v-885h-344v180h-19q-41 -105 -118.5 -155.5t-197.5 -50.5q-181 0 -288 112t-107 300zM256 1647h356l245 -359 h-309z" />
<glyph unicode="&#x1eec;" horiz-adv-x="1798" d="M171 498v945h367v-906q0 -127 67 -197t188 -70t187.5 70t66.5 197v906h382q74 0 74 71v194h269v-266q0 -108 -64 -167.5t-176 -59.5h-118v-717q0 -243 -170 -390t-451 -147t-451.5 147t-170.5 390zM570 1843v168q78 26 168 26q115 0 189 -61t74 -160q0 -88 -54 -155 t-155 -106l-103 121q49 19 77.5 46.5t28.5 59.5q0 36 -30.5 58t-83.5 22q-68 0 -111 -19z" />
<glyph unicode="&#x1eed;" horiz-adv-x="1609" d="M128 386v727h353v-640q0 -100 47 -154t134 -54q88 0 137 56t49 156v636h368q35 0 54.5 18.5t19.5 52.5v162h269v-234q0 -108 -64.5 -167.5t-176.5 -59.5h-116v-885h-344v180h-19q-41 -105 -118.5 -155.5t-197.5 -50.5q-181 0 -288 112t-107 300zM482 1516v168 q77 27 169 27q115 0 189.5 -61.5t74.5 -160.5q0 -89 -54 -156t-155 -107l-104 122q49 19 77.5 47t28.5 59q0 37 -30 59t-83 22q-68 0 -113 -19z" />
<glyph unicode="&#x1eee;" horiz-adv-x="1798" d="M171 498v945h367v-906q0 -127 67 -197t188 -70t187.5 70t66.5 197v906h382q74 0 74 71v194h269v-266q0 -108 -64 -167.5t-176 -59.5h-118v-717q0 -243 -170 -390t-451 -147t-451.5 147t-170.5 390zM372 1572q0 149 76.5 241t200.5 92q40 0 76.5 -14.5t61.5 -35 t47.5 -40.5t45 -34.5t43.5 -14.5q38 0 60 34t23 97h210q0 -147 -76 -238t-200 -91q-49 0 -93.5 22t-70 48t-55.5 48t-55 22q-38 0 -60 -36t-24 -100h-210z" />
<glyph unicode="&#x1eef;" horiz-adv-x="1609" d="M128 386v727h353v-640q0 -100 47 -154t134 -54q88 0 137 56t49 156v636h368q35 0 54.5 18.5t19.5 52.5v162h269v-234q0 -108 -64.5 -167.5t-176.5 -59.5h-116v-885h-344v180h-19q-41 -105 -118.5 -155.5t-197.5 -50.5q-181 0 -288 112t-107 300zM264 1264q0 149 76.5 241 t200.5 92q40 0 76.5 -14.5t61.5 -35t47.5 -40.5t45 -34.5t43.5 -14.5q38 0 60 34t23 97h210q0 -147 -76 -238t-200 -91q-49 0 -93.5 22t-70 48t-55.5 48t-55 22q-38 0 -60 -36t-24 -100h-210z" />
<glyph unicode="&#x1ef0;" horiz-adv-x="1798" d="M171 498v945h367v-906q0 -127 67 -197t188 -70t187.5 70t66.5 197v906h382q74 0 74 71v194h269v-266q0 -108 -64 -167.5t-176 -59.5h-118v-717q0 -243 -170 -390t-451 -147t-451.5 147t-170.5 390zM616 -275q0 75 49 123.5t128 48.5q78 0 127 -48.5t49 -123.5t-49 -123.5 t-127 -48.5q-79 0 -128 48.5t-49 123.5z" />
<glyph unicode="&#x1ef1;" horiz-adv-x="1609" d="M128 386v727h353v-640q0 -100 47 -154t134 -54q88 0 137 56t49 156v636h368q35 0 54.5 18.5t19.5 52.5v162h269v-234q0 -108 -64.5 -167.5t-176.5 -59.5h-116v-885h-344v180h-19q-41 -105 -118.5 -155.5t-197.5 -50.5q-181 0 -288 112t-107 300zM498 -275q0 75 49 123.5 t128 48.5q78 0 127 -48.5t49 -123.5t-49 -123.5t-127 -48.5q-79 0 -128 48.5t-49 123.5z" />
<glyph unicode="&#x1ef2;" horiz-adv-x="1508" d="M73 1443h391l281 -589h19l279 589h391l-497 -947v-496h-366v496zM312 1922h362l258 -326h-314z" />
<glyph unicode="&#x1ef3;" horiz-adv-x="1282" d="M50 1113h391l199 -816h19l199 816h374l-358 -1111q-71 -222 -203.5 -314.5t-372.5 -92.5q-124 0 -129 1v269q10 -2 62 -2q176 0 194 97l5 31zM227 1647h356l245 -359h-309z" />
<glyph unicode="&#x1ef4;" horiz-adv-x="1508" d="M73 1443h391l281 -589h19l279 589h391l-497 -947v-496h-366v496zM578 -275q0 75 49 123.5t128 48.5q78 0 127 -48.5t49 -123.5t-49 -123.5t-127 -48.5q-79 0 -128 48.5t-49 123.5z" />
<glyph unicode="&#x1ef5;" horiz-adv-x="1282" d="M50 1113h391l199 -816h19l199 816h374l-358 -1111q-71 -222 -203.5 -314.5t-372.5 -92.5q-124 0 -129 1v269q10 -2 62 -2q176 0 194 97l5 31zM872 -275q0 75 49 123.5t128 48.5q78 0 127 -48.5t49 -123.5t-49 -123.5t-127 -48.5q-79 0 -128 48.5t-49 123.5z" />
<glyph unicode="&#x1ef6;" horiz-adv-x="1508" d="M73 1443h391l281 -589h19l279 589h391l-497 -947v-496h-366v496zM532 1843v168q78 26 168 26q115 0 189 -61t74 -160q0 -88 -54 -155t-155 -106l-103 121q49 19 77.5 46.5t28.5 59.5q0 36 -30.5 58t-83.5 22q-68 0 -111 -19z" />
<glyph unicode="&#x1ef7;" horiz-adv-x="1282" d="M50 1113h391l199 -816h19l199 816h374l-358 -1111q-71 -222 -203.5 -314.5t-372.5 -92.5q-124 0 -129 1v269q10 -2 62 -2q176 0 194 97l5 31zM453 1514v168q77 27 169 27q115 0 189.5 -61.5t74.5 -160.5q0 -89 -54 -156t-155 -107l-104 122q49 19 77.5 47t28.5 59 q0 37 -30 59t-83 22q-68 0 -113 -19z" />
<glyph unicode="&#x1ef8;" horiz-adv-x="1508" d="M73 1443h391l281 -589h19l279 589h391l-497 -947v-496h-366v496zM334 1572q0 149 76.5 241t200.5 92q40 0 76.5 -14.5t61.5 -35t47.5 -40.5t45 -34.5t43.5 -14.5q38 0 60 34t23 97h210q0 -147 -76 -238t-200 -91q-49 0 -93.5 22t-70 48t-55.5 48t-55 22q-38 0 -60 -36 t-24 -100h-210z" />
<glyph unicode="&#x1ef9;" horiz-adv-x="1282" d="M50 1113h391l199 -816h19l199 816h374l-358 -1111q-71 -222 -203.5 -314.5t-372.5 -92.5q-124 0 -129 1v269q10 -2 62 -2q176 0 194 97l5 31zM235 1264q0 149 76.5 241t200.5 92q40 0 76.5 -14.5t61.5 -35t47.5 -40.5t45 -34.5t43.5 -14.5q38 0 60 34t23 97h210 q0 -147 -76 -238t-200 -91q-49 0 -93.5 22t-70 48t-55.5 48t-55 22q-38 0 -60 -36t-24 -100h-210z" />
<glyph unicode="&#x2000;" horiz-adv-x="1127" />
<glyph unicode="&#x2001;" horiz-adv-x="2255" />
<glyph unicode="&#x2002;" horiz-adv-x="1127" />
<glyph unicode="&#x2003;" horiz-adv-x="2255" />
<glyph unicode="&#x2004;" horiz-adv-x="751" />
<glyph unicode="&#x2005;" horiz-adv-x="563" />
<glyph unicode="&#x2006;" horiz-adv-x="375" />
<glyph unicode="&#x2007;" horiz-adv-x="375" />
<glyph unicode="&#x2008;" horiz-adv-x="281" />
<glyph unicode="&#x2009;" horiz-adv-x="451" />
<glyph unicode="&#x200a;" horiz-adv-x="125" />
<glyph unicode="&#x2010;" horiz-adv-x="1006" d="M174 425v316h658v-316h-658z" />
<glyph unicode="&#x2011;" horiz-adv-x="1006" d="M174 425v316h658v-316h-658z" />
<glyph unicode="&#x2012;" horiz-adv-x="1006" d="M174 425v316h658v-316h-658z" />
<glyph unicode="&#x2013;" horiz-adv-x="1024" d="M0 425v316h1024v-316h-1024z" />
<glyph unicode="&#x2014;" horiz-adv-x="2048" d="M0 425v316h2048v-316h-2048z" />
<glyph unicode="&#x2018;" horiz-adv-x="675" d="M109 804l201 639h244l-109 -639h-336z" />
<glyph unicode="&#x2019;" horiz-adv-x="675" d="M138 804l96 639h337l-190 -639h-243z" />
<glyph unicode="&#x201a;" horiz-adv-x="675" d="M133 -400l97 646h335l-188 -646h-244z" />
<glyph unicode="&#x201c;" horiz-adv-x="1191" d="M106 795l193 648h260l-117 -648h-336zM618 795l180 648h260l-105 -648h-335z" />
<glyph unicode="&#x201d;" horiz-adv-x="1191" d="M134 795l105 648h335l-181 -648h-259zM633 795l117 648h336l-194 -648h-259z" />
<glyph unicode="&#x201e;" horiz-adv-x="1191" d="M134 -400l97 646h335l-188 -646h-244zM633 -400l109 646h336l-201 -646h-244z" />
<glyph unicode="&#x2026;" horiz-adv-x="1952" d="M182 157q0 86 54 138.5t147 52.5q94 0 148 -52.5t54 -138.5q0 -85 -54 -137.5t-148 -52.5q-93 0 -147 52.5t-54 137.5zM775 157q0 86 54 138.5t147 52.5q94 0 148 -52.5t54 -138.5q0 -85 -54 -137.5t-148 -52.5q-93 0 -147 52.5t-54 137.5zM1365 157q0 86 54 138.5 t147 52.5q94 0 148 -52.5t54 -138.5q0 -85 -54 -137.5t-148 -52.5q-93 0 -147 52.5t-54 137.5z" />
<glyph unicode="&#x202f;" horiz-adv-x="451" />
<glyph unicode="&#x2039;" horiz-adv-x="948" d="M147 562v8l348 409h306l-344 -408v-8l344 -410h-313z" />
<glyph unicode="&#x203a;" horiz-adv-x="948" d="M147 153l344 410v8l-344 408h306l348 -409v-8l-341 -409h-313z" />
<glyph unicode="&#x205f;" horiz-adv-x="563" />
<glyph unicode="&#x20ac;" horiz-adv-x="1461" d="M126 484v170h142q-2 44 -2 68q0 20 2 56h-142v169h167q64 249 269.5 387t519.5 138q117 0 205 -25v-293q-90 18 -196 18q-145 0 -251.5 -58t-160.5 -167h530v-169h-576q-2 -36 -2 -56q0 -39 4 -68h574v-170h-524q54 -103 157 -158t242 -55q149 0 209 15v-299 q-87 -16 -210 -16q-310 0 -514.5 134.5t-272.5 378.5h-170z" />
<glyph unicode="&#x2122;" horiz-adv-x="2112" d="M50 1205v238h803v-238h-257v-662h-289v662h-257zM999 543v900h342l146 -424h12l145 424h343v-900h-266v491h-14l-133 -381h-162l-133 381h-13v-491h-267z" />
<glyph unicode="&#x25fc;" horiz-adv-x="1115" d="M0 0v1115h1115v-1115h-1115z" />
</font>
</defs>
</svg>
