<?xml version="1.0" standalone="no"?>
<!DOCTYPE svg PUBLIC "-//W3C//DTD SVG 1.1//EN" "http://www.w3.org/Graphics/SVG/1.1/DTD/svg11.dtd" >
<svg xmlns="http://www.w3.org/2000/svg" xmlns:xlink="http://www.w3.org/1999/xlink" version="1.1">
<metadata></metadata>
<defs>
<font id="sf_pro_textsemibold" horiz-adv-x="1456" >
<font-face units-per-em="2048" ascent="1638" descent="-410" />
<missing-glyph horiz-adv-x="546" />
<glyph horiz-adv-x="0" />
<glyph unicode="&#xd;" horiz-adv-x="0" />
<glyph unicode=" "  horiz-adv-x="546" />
<glyph unicode="&#x09;" horiz-adv-x="546" />
<glyph unicode="&#xa0;" horiz-adv-x="546" />
<glyph unicode="!" horiz-adv-x="696" d="M182 133q0 73 45 116.5t121 43.5t121 -43.5t45 -116.5q0 -72 -45 -115.5t-121 -43.5t-121 43.5t-45 115.5zM209 1444h277l-23 -967h-231z" />
<glyph unicode="&#x22;" horiz-adv-x="972" d="M162 857v586h217v-586h-217zM593 857v586h217v-586h-217z" />
<glyph unicode="#" horiz-adv-x="1337" d="M35 387l36 194h231l60 299h-236l37 192h237l77 371h191l-74 -371h283l77 371h193l-76 -371h241l-36 -192h-243l-62 -299h248l-36 -194h-250l-78 -387h-193l78 387h-284l-79 -387h-192l78 387h-228zM482 567h302l68 325h-304z" />
<glyph unicode="$" horiz-adv-x="1383" d="M144 405h244q7 -84 71 -140t168 -67v426l-96 23q-174 43 -265 143t-91 250q0 177 120 287t332 128v138h138v-138q200 -18 321 -129t125 -280h-239q-2 77 -59.5 133t-147.5 68v-405l99 -21q190 -44 282.5 -142.5t92.5 -256.5q0 -186 -124 -297.5t-350 -130.5v-130h-138 v129q-223 13 -352.5 124t-130.5 288zM422 1061q0 -72 52.5 -120.5t152.5 -69.5v377q-89 -5 -147 -58t-58 -129zM765 196q110 7 170 59.5t60 140.5q0 80 -56 129.5t-174 72.5v-402z" />
<glyph unicode="%" horiz-adv-x="1668" d="M70 1114q0 160 91 259.5t237 99.5t236 -99.5t90 -259.5t-90.5 -260t-235.5 -100q-146 0 -237 100t-91 260zM211 0l547 754l460 689h245l-556 -764l-450 -679h-246zM271 1115q0 -88 34.5 -140t92.5 -52q57 0 91.5 52t34.5 140q0 89 -33.5 139.5t-92.5 50.5t-93 -51 t-34 -139zM944 330q0 160 90.5 259.5t236.5 99.5q145 0 235.5 -99.5t90.5 -259.5q0 -161 -90.5 -260.5t-235.5 -99.5q-146 0 -236.5 100t-90.5 260zM1144 330q0 -88 34.5 -139.5t92.5 -51.5q57 0 91.5 52t34.5 139q0 89 -33.5 140t-92.5 51q-58 0 -92.5 -51.5t-34.5 -139.5z " />
<glyph unicode="&#x26;" horiz-adv-x="1500" d="M110 380q0 125 67 220t208 171q4 2 29.5 16t31.5 17q-98 102 -139 178t-41 155q0 144 112.5 238.5t282.5 94.5q171 0 281 -92.5t110 -237.5q0 -111 -72 -201.5t-228 -173.5l307 -325q57 106 57 309v54h217v-66q0 -286 -121 -460l261 -277h-290l-119 127 q-85 -73 -204 -113.5t-251 -40.5q-225 0 -362 111.5t-137 295.5zM349 400q0 -104 78.5 -168.5t206.5 -64.5q86 0 165.5 30t128.5 81l-359 385q-19 -7 -45 -22q-175 -93 -175 -241zM489 1124q0 -53 31.5 -105t109.5 -128q111 56 158.5 110t47.5 123q0 74 -48.5 120t-125.5 46 q-76 0 -124.5 -46.5t-48.5 -119.5z" />
<glyph unicode="'" horiz-adv-x="540" d="M162 857v586h217v-586h-217z" />
<glyph unicode="(" horiz-adv-x="843" d="M230 604q0 549 292 913h224q-110 -140 -185 -398.5t-75 -513.5q0 -256 74.5 -514.5t185.5 -399.5h-224q-292 365 -292 913z" />
<glyph unicode=")" horiz-adv-x="843" d="M97 -309q111 141 185.5 399.5t74.5 514.5q0 255 -75 513.5t-185 398.5h224q292 -364 292 -913q0 -548 -292 -913h-224z" />
<glyph unicode="*" horiz-adv-x="1032" d="M135 950l267 117l-267 117l88 157l236 -177l-32 294h178l-32 -294l236 177l88 -157l-266 -117l266 -117l-88 -156l-235 172l31 -288h-178l31 289l-235 -173z" />
<glyph unicode="+" horiz-adv-x="1383" d="M163 474v218h421v418h216v-418h420v-218h-420v-419h-216v419h-421z" />
<glyph unicode="," horiz-adv-x="674" d="M141 -382l93 604h251l-173 -604h-171z" />
<glyph unicode="-" horiz-adv-x="983" d="M163 465v233h657v-233h-657z" />
<glyph unicode="." horiz-adv-x="674" d="M177 137q0 69 45 113.5t115 44.5q71 0 115.5 -44.5t44.5 -113.5q0 -68 -44.5 -113t-115.5 -45q-70 0 -115 45t-45 113z" />
<glyph unicode="/" horiz-adv-x="753" d="M0 -309l525 1826h228l-525 -1826h-228z" />
<glyph unicode="0" horiz-adv-x="1361" d="M130 723q0 357 146.5 556.5t404.5 199.5t404 -200t146 -558q0 -357 -145.5 -557t-404.5 -200q-260 0 -405.5 200t-145.5 559zM391 723q0 -264 76 -404.5t214 -140.5t213.5 140.5t75.5 404.5q0 262 -76 401.5t-213 139.5t-213.5 -140t-76.5 -401z" />
<glyph unicode="1" horiz-adv-x="1016" d="M123 931v248l377 264h257v-1443h-258v1183h-17z" />
<glyph unicode="2" horiz-adv-x="1289" d="M137 1017v4q0 202 140.5 330t362.5 128q214 0 352.5 -117t138.5 -298q0 -116 -70 -229.5t-254 -295.5l-302 -303v-17h648v-219h-1002v179l481 492q148 150 197 225.5t49 151.5q0 95 -69.5 157t-176.5 62q-113 0 -183 -68t-70 -178v-4h-242z" />
<glyph unicode="3" horiz-adv-x="1339" d="M131 400h247q8 -100 87 -159.5t204 -59.5q124 0 202.5 64.5t78.5 166.5q0 106 -77 167t-210 61h-181v200h176q110 0 179 60.5t69 157.5q0 96 -67.5 153.5t-180.5 57.5q-112 0 -181.5 -59t-76.5 -161h-241q10 199 146 314.5t361 115.5q210 0 349.5 -109.5t139.5 -275.5 q0 -127 -70.5 -217t-190.5 -115v-17q148 -17 233.5 -111t85.5 -238q0 -186 -155.5 -309t-390.5 -123q-233 0 -379.5 119t-156.5 317z" />
<glyph unicode="4" horiz-adv-x="1377" d="M115 269v230q176 324 588 944h364v-956h195v-218h-195v-269h-247v269h-705zM354 481h470v752h-14q-234 -346 -456 -737v-15z" />
<glyph unicode="5" horiz-adv-x="1326" d="M153 400h242q12 -99 89 -160t189 -61q127 0 205.5 78.5t78.5 207.5t-78.5 209.5t-203.5 80.5q-88 0 -156.5 -37t-108.5 -105h-234l75 830h869v-218h-669l-35 -405h17q100 135 305 135t336.5 -136t131.5 -348q0 -226 -147.5 -366.5t-387.5 -140.5q-223 0 -366 122 t-152 314z" />
<glyph unicode="6" horiz-adv-x="1366" d="M126 706q0 364 154.5 568.5t430.5 204.5q197 0 336.5 -107.5t171.5 -285.5h-258q-24 82 -91.5 129.5t-160.5 47.5q-158 0 -247 -139.5t-89 -387.5h17q51 103 149 159.5t225 56.5q206 0 340.5 -136t134.5 -344q0 -223 -150.5 -365t-385.5 -142q-159 0 -281 73t-194 212 q-102 180 -102 456zM416 468q0 -123 81.5 -205.5t202.5 -82.5q122 0 204 81.5t82 202.5q0 124 -80 203.5t-204 79.5t-205 -79t-81 -200z" />
<glyph unicode="7" horiz-adv-x="1213" d="M97 1226v217h1004v-220l-617 -1223h-270l627 1210v16h-744z" />
<glyph unicode="8" horiz-adv-x="1380" d="M130 386q0 137 85 237.5t227 130.5v17q-115 28 -184.5 114.5t-69.5 202.5q0 171 141 281t361 110t360.5 -110t140.5 -281q0 -116 -68.5 -202t-184.5 -115v-17q141 -26 226.5 -126.5t85.5 -240.5q0 -188 -155.5 -305.5t-405.5 -117.5q-248 0 -403.5 117.5t-155.5 304.5z M396 408q0 -108 81.5 -175.5t212.5 -67.5q130 0 211.5 67.5t81.5 175.5t-81.5 175.5t-211.5 67.5q-131 0 -212.5 -67.5t-81.5 -175.5zM442 1063q0 -95 69 -154.5t179 -59.5t178.5 59.5t68.5 154.5q0 97 -68.5 157.5t-178.5 60.5q-111 0 -179.5 -60.5t-68.5 -157.5z" />
<glyph unicode="9" horiz-adv-x="1366" d="M127 972q0 222 150.5 364.5t385.5 142.5q158 0 280 -73t195 -212q102 -181 102 -456q0 -364 -155 -568.5t-430 -204.5q-198 0 -337 107.5t-171 285.5h257q25 -82 92.5 -129.5t160.5 -47.5q158 0 247 139.5t89 387.5h-9h-5h-3q-51 -103 -149 -159.5t-225 -56.5 q-206 0 -340.5 136t-134.5 344zM380 980q0 -124 80 -203.5t204 -79.5t205 79t81 200q0 122 -82 205t-203 83t-203 -81.5t-82 -202.5z" />
<glyph unicode=":" horiz-adv-x="674" d="M177 137q0 69 45 113.5t115 44.5q71 0 115.5 -44.5t44.5 -113.5q0 -68 -44.5 -113t-115.5 -45q-70 0 -115 45t-45 113zM177 886q0 69 45 113.5t115 44.5q71 0 115.5 -44.5t44.5 -113.5q0 -68 -44.5 -112.5t-115.5 -44.5q-70 0 -115 44.5t-45 112.5z" />
<glyph unicode=";" horiz-adv-x="674" d="M120 -382l96 604h251l-170 -604h-177zM177 886q0 69 45 113.5t115 44.5q71 0 115.5 -44.5t44.5 -113.5q0 -68 -44.5 -112.5t-115.5 -44.5q-70 0 -115 44.5t-45 112.5z" />
<glyph unicode="&#x3c;" horiz-adv-x="1383" d="M228 493v201l927 501v-260l-676 -333v-17l676 -333v-260z" />
<glyph unicode="=" horiz-adv-x="1383" d="M167 251v219h1049v-219h-1049zM167 697v219h1049v-219h-1049z" />
<glyph unicode="&#x3e;" horiz-adv-x="1383" d="M228 -8v260l676 333v17l-676 333v260l927 -501v-201z" />
<glyph unicode="?" horiz-adv-x="1108" d="M78 1046q6 183 128.5 296t339.5 113q204 0 330.5 -106t126.5 -273q0 -215 -212 -341q-98 -58 -133 -105.5t-35 -121.5v-57h-232l-1 68q-7 111 37.5 185t149.5 136q94 57 130 105.5t36 121.5q0 79 -58 129t-152 50q-96 0 -155 -54t-65 -146h-235zM352 133q0 73 45.5 116.5 t120.5 43.5q76 0 121 -43.5t45 -116.5q0 -72 -45 -115.5t-121 -43.5q-75 0 -120.5 43.5t-45.5 115.5z" />
<glyph unicode="@" horiz-adv-x="1892" d="M133 610q0 245 105.5 435t296 295t436.5 105q177 0 327 -54.5t255 -151t164 -234.5t59 -301q0 -241 -104.5 -382t-282.5 -141q-91 0 -154 44t-77 117h-18q-64 -156 -243 -156q-156 0 -251.5 116.5t-95.5 306.5q0 182 95 296.5t246 114.5q80 0 142 -37.5t91 -104.5h18v121 h183v-551q0 -53 26.5 -82.5t75.5 -29.5q83 0 132 97t49 261q0 271 -177.5 436.5t-468.5 165.5t-476 -193.5t-185 -497.5q0 -310 188.5 -493.5t508.5 -183.5q197 0 295 39v-150q-133 -40 -305 -40q-257 0 -451 102.5t-299 291.5t-105 439zM752 604q0 -115 49 -181t135 -66 q89 0 141 66.5t52 180.5t-51.5 180.5t-140.5 66.5q-87 0 -136 -65.5t-49 -181.5z" />
<glyph unicode="A" d="M71 0l512 1443h290l513 -1443h-277l-122 369h-531l-124 -369h-261zM516 573h411l-196 595h-17z" />
<glyph unicode="B" horiz-adv-x="1393" d="M178 0v1443h603q205 0 322 -96.5t117 -263.5q0 -114 -74 -203t-183 -106v-18q146 -14 237 -109.5t91 -236.5q0 -190 -132.5 -300t-363.5 -110h-617zM436 205h300q143 0 217 57.5t74 167.5q0 108 -76.5 164t-224.5 56h-290v-445zM436 836h249q137 0 208.5 51.5t71.5 149.5 q0 95 -65 148t-182 53h-282v-402z" />
<glyph unicode="C" horiz-adv-x="1499" d="M117 721q0 352 177.5 555t484.5 203q246 0 417 -144.5t194 -370.5h-254q-27 130 -124 207.5t-233 77.5q-184 0 -291 -141.5t-107 -385.5t107 -386t292 -142q137 0 234 71.5t123 192.5h254q-26 -222 -194 -358t-417 -136q-307 0 -485 203.5t-178 553.5z" />
<glyph unicode="D" horiz-adv-x="1514" d="M178 0v1443h541q322 0 500.5 -187.5t178.5 -527.5q0 -347 -177.5 -537.5t-501.5 -190.5h-541zM436 223h249q216 0 333 130t117 371q0 236 -118.5 366t-331.5 130h-249v-997z" />
<glyph unicode="E" horiz-adv-x="1254" d="M178 0v1443h934v-223h-676v-383h639v-210h-639v-404h676v-223h-934z" />
<glyph unicode="F" horiz-adv-x="1205" d="M178 0v1443h920v-223h-662v-420h605v-215h-605v-585h-258z" />
<glyph unicode="G" horiz-adv-x="1547" d="M117 722q0 346 183 551.5t491 205.5q250 0 419 -132t204 -353h-257q-39 123 -133.5 189t-232.5 66q-189 0 -299.5 -141t-110.5 -384q0 -246 112.5 -388t305.5 -142q165 0 268 92t106 241l1 30h-347v202h599v-181q0 -281 -171 -447.5t-460 -166.5q-314 0 -496 203.5 t-182 554.5z" />
<glyph unicode="H" horiz-adv-x="1573" d="M178 0v1443h258v-597h702v597h257v-1443h-257v623h-702v-623h-258z" />
<glyph unicode="I" horiz-adv-x="614" d="M178 0v1443h258v-1443h-258z" />
<glyph unicode="J" horiz-adv-x="1184" d="M79 393h252q1 -89 58 -143t149 -54q102 0 156 60.5t54 176.5v1010h258v-1012q0 -222 -123 -344.5t-342 -122.5q-208 0 -335 117t-127 312z" />
<glyph unicode="K" horiz-adv-x="1415" d="M178 0v1443h258v-664h17l569 664h296l-545 -629l588 -814h-315l-456 637l-154 -177v-460h-258z" />
<glyph unicode="L" horiz-adv-x="1198" d="M178 0v1443h258v-1217h662v-226h-920z" />
<glyph unicode="M" horiz-adv-x="1846" d="M178 0v1443h302l434 -1051h18l434 1051h302v-1443h-240v1015h-14l-399 -959h-184l-399 959h-14v-1015h-240z" />
<glyph unicode="N" horiz-adv-x="1554" d="M178 0v1443h224l708 -981h17v981h248v-1443h-223l-708 982h-17v-982h-249z" />
<glyph unicode="O" horiz-adv-x="1599" d="M117 722q0 349 184.5 553t499.5 204q314 0 497.5 -204t183.5 -553t-183 -553.5t-498 -204.5q-317 0 -500.5 204t-183.5 554zM381 722q0 -243 112.5 -386t307.5 -143q192 0 304.5 143.5t112.5 385.5t-112.5 385t-304.5 143q-193 0 -306.5 -143t-113.5 -385z" />
<glyph unicode="P" horiz-adv-x="1351" d="M178 0v1443h582q216 0 350.5 -135t134.5 -353q0 -214 -138.5 -348t-357.5 -134h-313v-473h-258zM436 687h255q139 0 215.5 70t76.5 198q0 132 -75.5 202t-215.5 70h-256v-540z" />
<glyph unicode="Q" horiz-adv-x="1599" d="M117 721q0 350 184.5 554t499.5 204q313 0 497 -204t184 -554q0 -201 -61.5 -356.5t-176.5 -247.5l180 -266h-259l-110 153q-117 -40 -254 -40q-317 0 -500.5 203t-183.5 554zM381 721q0 -243 113.5 -385.5t306.5 -142.5q62 0 122 17l-173 246h248l91 -114 q129 120 129 379q0 243 -113 386t-304 143q-193 0 -306.5 -142.5t-113.5 -386.5z" />
<glyph unicode="R" horiz-adv-x="1391" d="M178 0v1443h586q227 0 360 -121.5t133 -329.5q0 -144 -72 -254.5t-200 -156.5l315 -581h-295l-283 541h-286v-541h-258zM436 746h298q123 0 190.5 63t67.5 178q0 113 -70.5 177.5t-193.5 64.5h-292v-483z" />
<glyph unicode="S" horiz-adv-x="1354" d="M112 392h252q12 -97 101 -154.5t226 -57.5q128 0 210.5 58.5t82.5 149.5q0 78 -62.5 127t-201.5 81l-187 43q-196 44 -290.5 143.5t-94.5 260.5q0 197 147.5 316.5t389.5 119.5q227 0 376 -118t158 -304h-247q-13 95 -91 151t-197 56q-125 0 -200.5 -55.5t-75.5 -147.5 q0 -73 59 -118.5t193 -76.5l166 -38q219 -49 317.5 -146t98.5 -262q0 -211 -152.5 -333.5t-414.5 -122.5q-248 0 -400.5 116t-162.5 312z" />
<glyph unicode="T" horiz-adv-x="1332" d="M93 1220v223h1147v-223h-445v-1220h-258v1220h-444z" />
<glyph unicode="U" horiz-adv-x="1549" d="M182 497v946h257v-922q0 -149 89 -237.5t247 -88.5t246.5 88.5t88.5 237.5v922h258v-946q0 -239 -161 -386t-432 -147t-432 147t-161 386z" />
<glyph unicode="V" horiz-adv-x="1442" d="M71 1443h285l363 -1142h17l360 1142h275l-499 -1443h-297z" />
<glyph unicode="W" horiz-adv-x="2036" d="M88 1443h269l247 -1074h15l284 1074h229l288 -1074h14l247 1074h267l-387 -1443h-242l-294 1022h-15l-292 -1022h-243z" />
<glyph unicode="X" d="M89 0l472 727l-468 716h305l329 -530h17l334 530h290l-484 -722l476 -721h-298l-335 518h-17l-340 -518h-281z" />
<glyph unicode="Y" horiz-adv-x="1412" d="M71 1443h283l344 -617h17l343 617h283l-506 -879v-564h-258v564z" />
<glyph unicode="Z" horiz-adv-x="1373" d="M138 0v176l759 1027v17h-738v223h1057v-176l-756 -1027v-17h775v-223h-1097z" />
<glyph unicode="[" horiz-adv-x="843" d="M258 -309v1826h510v-191h-271v-1444h271v-191h-510z" />
<glyph unicode="\" horiz-adv-x="753" d="M0 1517h231l522 -1826h-231z" />
<glyph unicode="]" horiz-adv-x="843" d="M75 -118h271v1444h-271v191h511v-1826h-511v191z" />
<glyph unicode="^" horiz-adv-x="1036" d="M91 775l310 637h234l311 -637h-223l-196 443h-18l-196 -443h-222z" />
<glyph unicode="_" horiz-adv-x="934" d="M-5 -107h944v-191h-944v191z" />
<glyph unicode="`" horiz-adv-x="1096" d="M284 1622h277l249 -347h-242z" />
<glyph unicode="a" horiz-adv-x="1179" d="M91 310q0 148 107.5 232t307.5 96l282 17v92q0 81 -53 124t-153 43q-86 0 -142 -29.5t-73 -84.5h-234q15 145 140.5 230.5t320.5 85.5q210 0 324.5 -97t114.5 -272v-747h-239v150h-17q-46 -79 -131.5 -123.5t-192.5 -44.5q-160 0 -261 90t-101 238zM337 324 q0 -68 52.5 -107.5t136.5 -39.5q112 0 187 64.5t75 159.5v87l-247 -16q-204 -13 -204 -148z" />
<glyph unicode="b" horiz-adv-x="1306" d="M162 0v1517h248v-597h17q43 89 132 140.5t201 51.5q208 0 328.5 -151.5t120.5 -413.5q0 -261 -121 -413t-328 -152q-115 0 -205 50.5t-137 140.5h-17v-173h-239zM406 547q0 -164 74.5 -259t201.5 -95t199.5 94.5t72.5 259.5t-72.5 259.5t-199.5 94.5t-201.5 -95.5 t-74.5 -258.5z" />
<glyph unicode="c" horiz-adv-x="1182" d="M98 550q0 267 138 416.5t384 149.5q206 0 331.5 -106.5t145.5 -283.5h-236q-18 83 -80 132.5t-161 49.5q-128 0 -199.5 -94t-71.5 -264q0 -172 72 -268t199 -96q97 0 159.5 45t81.5 130h236q-21 -175 -146.5 -279t-329.5 -104q-247 0 -385 151t-138 421z" />
<glyph unicode="d" horiz-adv-x="1306" d="M98 548q0 259 121.5 411.5t328.5 152.5q112 0 200 -51t132 -141h17v597h248v-1517h-240v173h-17q-47 -90 -136.5 -140.5t-203.5 -50.5q-208 0 -329 152.5t-121 413.5zM352 547q0 -166 72.5 -260t200.5 -94t201.5 94.5t73.5 259.5q0 164 -74 259t-201 95t-200 -94.5 t-73 -259.5z" />
<glyph unicode="e" horiz-adv-x="1208" d="M98 543q0 264 138 418.5t376 154.5q234 0 366.5 -146.5t132.5 -405.5v-80h-764v-13q5 -137 78.5 -216.5t195.5 -79.5q188 0 244 126h235q-35 -150 -164.5 -236.5t-321.5 -86.5q-241 0 -378.5 150.5t-137.5 414.5zM348 653h515q-4 122 -72 194t-180 72q-111 0 -183 -73 t-80 -193z" />
<glyph unicode="f" horiz-adv-x="801" d="M53 889v198h179v115q0 164 86.5 245t267.5 81q75 0 138 -11v-182q-33 5 -85 5q-86 0 -124.5 -37.5t-38.5 -116.5v-99h238v-198h-235v-889h-247v889h-179z" />
<glyph unicode="g" horiz-adv-x="1295" d="M96 559q0 252 122 402.5t330 150.5q112 0 203 -52t136 -141h17v175h239v-1098q0 -190 -141 -301t-380 -111q-209 0 -339.5 85t-145.5 227h249q12 -57 75.5 -90t164.5 -33q127 0 198 57t71 160v207h-17q-47 -88 -133.5 -134.5t-200.5 -46.5q-206 0 -327 147.5t-121 395.5z M351 559q0 -158 71 -249.5t200 -91.5t203 92t74 249t-74 249.5t-203 92.5q-128 0 -199.5 -92t-71.5 -250z" />
<glyph unicode="h" horiz-adv-x="1274" d="M162 0v1517h244v-600h18q39 93 125 145t207 52q177 0 276.5 -107t99.5 -301v-706h-248v647q0 124 -56 187.5t-164 63.5q-120 0 -187 -71.5t-67 -191.5v-635h-248z" />
<glyph unicode="i" horiz-adv-x="557" d="M125 1409q0 60 43 98.5t110 38.5q68 0 110.5 -38.5t42.5 -98.5t-42.5 -98.5t-110.5 -38.5q-67 0 -110 38.5t-43 98.5zM155 0v1094h247v-1094h-247z" />
<glyph unicode="j" horiz-adv-x="557" d="M-26 -176q1 0 15 -0.5t17 -0.5q82 0 115.5 32.5t33.5 107.5v1131h247v-1135q0 -333 -368 -333q-39 0 -60 3v195zM125 1409q0 60 43 98.5t110 38.5q68 0 110.5 -38.5t42.5 -98.5t-42.5 -98.5t-110.5 -38.5q-67 0 -110 38.5t-43 98.5z" />
<glyph unicode="k" horiz-adv-x="1188" d="M162 0v1517h248v-869h17l404 446h288l-436 -469l466 -625h-300l-351 469l-88 -88v-381h-248z" />
<glyph unicode="l" horiz-adv-x="571" d="M162 0v1517h248v-1517h-248z" />
<glyph unicode="m" horiz-adv-x="1856" d="M152 0v1094h239v-177h17q35 94 115 146.5t189 52.5q111 0 189 -52.5t113 -146.5h17q41 91 130 145t202 54q164 0 257.5 -97t93.5 -267v-752h-247v689q0 211 -200 211q-96 0 -155 -62t-59 -157v-681h-241v707q0 90 -53 141.5t-145 51.5t-153 -67t-61 -168v-665h-248z" />
<glyph unicode="n" horiz-adv-x="1252" d="M152 0v1094h239v-175h17q40 94 122.5 145.5t202.5 51.5q182 0 279.5 -106t97.5 -302v-708h-248v649q0 251 -221 251q-111 0 -176 -71t-65 -192v-637h-248z" />
<glyph unicode="o" horiz-adv-x="1248" d="M98 547q0 264 141 416.5t385 152.5q245 0 385.5 -152t140.5 -417q0 -266 -140.5 -417.5t-385.5 -151.5q-246 0 -386 151.5t-140 417.5zM352 547q0 -172 71 -266.5t201 -94.5t200.5 94.5t70.5 266.5q0 171 -71 266t-200 95q-130 0 -201 -95t-71 -266z" />
<glyph unicode="p" horiz-adv-x="1296" d="M152 -364v1458h239v-181h17q47 93 137.5 146t202.5 53q208 0 329.5 -151t121.5 -414q0 -262 -120.5 -413.5t-327.5 -151.5q-117 0 -204.5 48.5t-129.5 135.5h-17v-530h-248zM395 547q1 -164 74.5 -259t200.5 -95q129 0 201.5 94t72.5 260t-72.5 260t-200.5 94 q-127 0 -201 -95t-75 -259z" />
<glyph unicode="q" horiz-adv-x="1296" d="M98 548q0 259 122 411.5t329 152.5q111 0 202 -53.5t136 -145.5h17v181h241v-1458h-250v530h-17q-48 -89 -133 -136.5t-200 -47.5q-207 0 -327 152.5t-120 413.5zM352 547q0 -167 72 -260.5t199 -93.5q128 0 202.5 95t74.5 259q0 163 -74.5 258.5t-201.5 95.5t-199.5 -94 t-72.5 -260z" />
<glyph unicode="r" horiz-adv-x="851" d="M152 0v1094h239v-170h17q23 82 103.5 135t185.5 53q67 0 103 -11v-230q-38 14 -127 14q-121 0 -197 -69.5t-76 -183.5v-632h-248z" />
<glyph unicode="s" horiz-adv-x="1128" d="M99 295h245q18 -62 75.5 -95.5t149.5 -33.5q94 0 153 37.5t59 98.5q0 91 -151 124l-194 45q-158 36 -233.5 111.5t-75.5 198.5q0 148 122 241.5t316 93.5q195 0 311.5 -82.5t129.5 -231.5h-233q-14 59 -67.5 92.5t-139.5 33.5t-142 -37t-56 -96q0 -46 39.5 -76t122.5 -49 l193 -44q158 -36 232 -107t74 -191q0 -157 -130 -253.5t-336 -96.5q-205 0 -327.5 84t-136.5 233z" />
<glyph unicode="t" horiz-adv-x="808" d="M58 889v198h173v275h247v-275h234v-198h-234v-537q0 -81 36 -118.5t114 -37.5q34 0 84 5v-194q-62 -12 -130 -12q-188 0 -269.5 69t-81.5 228v597h-173z" />
<glyph unicode="u" horiz-adv-x="1256" d="M142 383v711h248v-649q0 -126 53 -187.5t164 -61.5q120 0 184.5 69t64.5 192v637h248v-1094h-239v174h-17q-83 -196 -327 -196q-179 0 -279 106.5t-100 298.5z" />
<glyph unicode="v" horiz-adv-x="1163" d="M57 1094h266l253 -846h17l251 846h262l-387 -1094h-273z" />
<glyph unicode="w" horiz-adv-x="1681" d="M64 1094h250l182 -817h17l210 817h237l212 -817h17l181 817h247l-296 -1094h-261l-213 788h-17l-212 -788h-258z" />
<glyph unicode="x" horiz-adv-x="1149" d="M67 1094h287l218 -376h17l216 376h273l-353 -541l357 -553h-280l-224 377h-17l-224 -377h-267l354 543z" />
<glyph unicode="y" horiz-adv-x="1183" d="M60 1094h272l256 -854h17l255 854h262l-395 -1129q-69 -203 -169.5 -282.5t-285.5 -79.5q-77 0 -98 4v203q19 -4 68 -4q79 0 125.5 33t70.5 108l13 48z" />
<glyph unicode="z" horiz-adv-x="1140" d="M127 0v155l581 722v17h-576v200h872v-169l-560 -708v-17h569v-200h-886z" />
<glyph unicode="{" horiz-adv-x="843" d="M75 480v252q127 0 179 46.5t52 159.5v215q0 190 94.5 277t300.5 87h67v-191h-43q-98 0 -140 -46.5t-42 -156.5v-258q0 -108 -62.5 -169.5t-184.5 -74.5v-30q122 -13 184.5 -74.5t62.5 -169.5v-262q0 -110 42 -156.5t140 -46.5h43v-191h-67q-206 0 -300.5 88t-94.5 279 v215q0 113 -52 159.5t-179 47.5z" />
<glyph unicode="|" horiz-adv-x="753" d="M263 -309v1826h227v-1826h-227z" />
<glyph unicode="}" horiz-adv-x="843" d="M75 -118h43q98 0 140.5 47t42.5 156v262q0 218 246 244v30q-246 26 -246 244v258q0 110 -42 156.5t-141 46.5h-43v191h67q206 0 300.5 -87t94.5 -277v-215q0 -113 52 -159.5t179 -46.5v-252q-127 -1 -179 -47.5t-52 -159.5v-215q0 -191 -94.5 -279t-300.5 -88h-67v191z " />
<glyph unicode="~" horiz-adv-x="1216" d="M87 537q-1 193 78 296.5t237 103.5q67 0 125.5 -30t129.5 -99q48 -48 80 -67.5t63 -19.5q119 0 127 179h203q0 -400 -311 -400q-69 0 -128.5 29.5t-128.5 97.5q-49 49 -81 68.5t-64 19.5q-120 0 -127 -178h-203z" />
<glyph unicode="&#xa2;" horiz-adv-x="1383" d="M159 709q0 224 120 372.5t318 182.5v183h217v-179q166 -27 277.5 -129t129.5 -253h-236q-25 84 -97 132.5t-172 48.5q-132 0 -218.5 -97t-86.5 -261q0 -166 86.5 -264.5t217.5 -98.5q109 0 179.5 46t90.5 129h236q-18 -153 -127.5 -252.5t-279.5 -123.5v-178h-217v182 q-198 35 -318 184.5t-120 375.5z" />
<glyph unicode="&#xa3;" horiz-adv-x="1383" d="M136 0v208q134 23 219.5 116.5t85.5 216.5q0 51 -12 99h-290v188h228q-60 157 -60 250q0 189 143.5 295t399.5 106q90 0 178.5 -14.5t140.5 -36.5v-213q-46 22 -128.5 37t-163.5 15q-147 0 -229 -57.5t-82 -161.5q0 -84 51 -220h435v-188h-375q9 -42 9 -84 q0 -106 -53.5 -192.5t-135.5 -126.5v-17h740v-220h-1101z" />
<glyph unicode="&#xa5;" horiz-adv-x="1383" d="M57 1443h283l343 -617h18l343 617h282l-438 -755h206v-157h-274v-145h274v-157h-274v-229h-257v229h-273v157h273v145h-273v157h205z" />
<glyph unicode="&#xa8;" horiz-adv-x="1145" d="M207 1406q0 60 41 100.5t102 40.5t102 -40.5t41 -100.5t-41 -100.5t-102 -40.5t-102 40.5t-41 100.5zM652 1406q0 60 41 100.5t102 40.5t102 -40.5t41 -100.5t-41 -100.5t-102 -40.5t-102 40.5t-41 100.5z" />
<glyph unicode="&#xa9;" horiz-adv-x="1742" d="M81 643q0 218 104.5 399.5t286 286t399.5 104.5q164 0 310.5 -61.5t251.5 -166.5t166.5 -251.5t61.5 -310.5q0 -219 -104.5 -400.5t-286 -286t-399.5 -104.5q-163 0 -309.5 62t-252 167t-167 252t-61.5 310zM236 643q0 -175 84 -321t230 -229.5t321 -83.5 q132 0 249.5 49.5t202 134t134 202t49.5 248.5q0 176 -83.5 321.5t-229.5 229t-322 83.5q-132 0 -249.5 -49.5t-202 -134t-134 -202t-49.5 -248.5zM500 644q0 186 104.5 295t281.5 109q145 0 242 -78t114 -208h-170q-14 63 -64 100t-120 37q-96 0 -152 -68t-56 -187 q0 -120 55.5 -189t152.5 -69q74 0 122 34.5t62 97.5h170q-16 -130 -111.5 -205.5t-242.5 -75.5q-179 0 -283.5 110t-104.5 297z" />
<glyph unicode="&#xab;" horiz-adv-x="1426" d="M165 561v8l350 413h246l-348 -410v-12l348 -411h-249zM664 561v8l350 413h247l-348 -410v-12l348 -411h-250z" />
<glyph unicode="&#xad;" horiz-adv-x="983" d="M163 465v233h657v-233h-657z" />
<glyph unicode="&#xae;" horiz-adv-x="1260" d="M103 970q0 108 41.5 205.5t112 168t168 112t205.5 41.5t205.5 -41.5t168 -112t112 -168t41.5 -205.5q0 -144 -70 -265.5t-191.5 -192t-265.5 -70.5t-265.5 70.5t-191.5 192t-70 265.5zM225 970q0 -169 118 -286.5t287 -117.5t287 117.5t118 286.5t-117.5 286t-287.5 117 q-169 0 -287 -117t-118 -286zM424 733v491h253q78 0 128 -43.5t50 -111.5q0 -57 -28 -95.5t-80 -52.5l131 -188h-138l-118 171h-83v-171h-115zM539 997h108q83 0 83 65q0 64 -80 64h-111v-129z" />
<glyph unicode="&#xb4;" horiz-adv-x="1096" d="M269 1275l249 347h277l-284 -347h-242z" />
<glyph unicode="&#xb8;" horiz-adv-x="1096" d="M365 -345q44 -14 118 -14q114 0 114 64q0 31 -32 45t-105 14h-59v104l66 157h147v-25l-47 -117q97 -3 150 -47.5t53 -124.5q0 -92 -68.5 -145.5t-190.5 -53.5q-84 0 -146 18v125z" />
<glyph unicode="&#xbb;" horiz-adv-x="1426" d="M165 149l349 411v12l-349 410h247l350 -413v-8l-347 -412h-250zM665 149l348 411v12l-348 410h247l349 -413v-8l-347 -412h-249z" />
<glyph unicode="&#xc2;" d="M71 0l512 1443h290l513 -1443h-277l-122 369h-531l-124 -369h-261zM322 1585l290 321h232l290 -321h-242l-155 183h-18l-155 -183h-242zM516 573h411l-196 595h-17z" />
<glyph unicode="&#xc7;" horiz-adv-x="1499" d="M117 721q0 352 177.5 555t484.5 203q246 0 417 -144.5t194 -370.5h-254q-27 130 -124 207.5t-233 77.5q-184 0 -291 -141.5t-107 -385.5t107 -386t292 -142q137 0 234 71.5t123 192.5h254q-23 -204 -169.5 -337.5t-368.5 -153.5l-34 -84q97 -3 150 -47.5t53 -124.5 q0 -92 -68.5 -145.5t-190.5 -53.5q-84 0 -146 18v125q44 -14 118 -14q114 0 114 64q0 31 -32 45t-105 14h-59v104l42 100q-270 29 -424 228.5t-154 524.5z" />
<glyph unicode="&#xce;" horiz-adv-x="614" d="M-99 1585l290 321h232l290 -321h-242l-155 183h-18l-155 -183h-242zM178 0v1443h258v-1443h-258z" />
<glyph unicode="&#xd6;" horiz-adv-x="1599" d="M117 722q0 349 184.5 553t499.5 204q314 0 497.5 -204t183.5 -553t-183 -553.5t-498 -204.5q-317 0 -500.5 204t-183.5 554zM381 722q0 -243 112.5 -386t307.5 -143q192 0 304.5 143.5t112.5 385.5t-112.5 385t-304.5 143q-193 0 -306.5 -143t-113.5 -385zM435 1718 q0 60 41 100.5t102 40.5t102 -40.5t41 -100.5t-41 -100.5t-102 -40.5t-102 40.5t-41 100.5zM880 1718q0 60 41 100.5t102 40.5t102 -40.5t41 -100.5t-41 -100.5t-102 -40.5t-102 40.5t-41 100.5z" />
<glyph unicode="&#xdb;" horiz-adv-x="1550" d="M182 497v946h257v-922q0 -149 89 -237.5t247 -88.5t246.5 88.5t88.5 237.5v922h258v-946q0 -239 -161 -386t-432 -147t-432 147t-161 386zM369 1585l290 321h232l290 -321h-242l-155 183h-18l-155 -183h-242z" />
<glyph unicode="&#xdc;" horiz-adv-x="1550" d="M182 497v946h257v-922q0 -149 89 -237.5t247 -88.5t246.5 88.5t88.5 237.5v922h258v-946q0 -239 -161 -386t-432 -147t-432 147t-161 386zM409 1718q0 60 41 100.5t102 40.5t102 -40.5t41 -100.5t-41 -100.5t-102 -40.5t-102 40.5t-41 100.5zM854 1718q0 60 41 100.5 t102 40.5t102 -40.5t41 -100.5t-41 -100.5t-102 -40.5t-102 40.5t-41 100.5z" />
<glyph unicode="&#xe2;" horiz-adv-x="1179" d="M91 310q0 148 107.5 232t307.5 96l282 17v92q0 81 -53 124t-153 43q-86 0 -142 -29.5t-73 -84.5h-234q15 145 140.5 230.5t320.5 85.5q210 0 324.5 -97t114.5 -272v-747h-239v150h-17q-46 -79 -131.5 -123.5t-192.5 -44.5q-160 0 -261 90t-101 238zM187 1243l277 348h259 l277 -348h-239l-159 215h-17l-159 -215h-239zM337 324q0 -68 52.5 -107.5t136.5 -39.5q112 0 187 64.5t75 159.5v87l-247 -16q-204 -13 -204 -148z" />
<glyph unicode="&#xe7;" horiz-adv-x="1182" d="M98 550q0 267 138 416.5t384 149.5q206 0 331.5 -106.5t145.5 -283.5h-236q-18 83 -80 132.5t-161 49.5q-128 0 -199.5 -94t-71.5 -264q0 -172 72 -268t199 -96q97 0 159.5 45t81.5 130h236q-18 -156 -122 -257t-274 -121l-40 -100q97 -3 150 -47.5t53 -124.5 q0 -92 -68.5 -145.5t-190.5 -53.5q-84 0 -146 18v125q44 -14 118 -14q114 0 114 64q0 31 -32 45t-105 14h-59v104l48 114q-211 24 -328 172.5t-117 395.5z" />
<glyph unicode="&#xee;" horiz-adv-x="557" d="M-129 1243l277 348h259l277 -348h-239l-159 215h-17l-159 -215h-239zM155 0v1094h247v-1094h-247z" />
<glyph unicode="&#xf6;" horiz-adv-x="1248" d="M98 547q0 264 141 416.5t385 152.5q245 0 385.5 -152t140.5 -417q0 -266 -140.5 -417.5t-385.5 -151.5q-246 0 -386 151.5t-140 417.5zM258 1383q0 60 41 100.5t102 40.5t102 -40.5t41 -100.5t-41 -100.5t-102 -40.5t-102 40.5t-41 100.5zM352 547q0 -172 71 -266.5 t201 -94.5t200.5 94.5t70.5 266.5q0 171 -71 266t-200 95q-130 0 -201 -95t-71 -266zM703 1383q0 60 41 100.5t102 40.5t102 -40.5t41 -100.5t-41 -100.5t-102 -40.5t-102 40.5t-41 100.5z" />
<glyph unicode="&#xfb;" horiz-adv-x="1256" d="M142 383v711h248v-649q0 -126 53 -187.5t164 -61.5q120 0 184.5 69t64.5 192v637h248v-1094h-239v174h-17q-83 -196 -327 -196q-179 0 -279 106.5t-100 298.5zM216 1243l277 348h259l277 -348h-239l-159 215h-17l-159 -215h-239z" />
<glyph unicode="&#xfc;" horiz-adv-x="1256" d="M142 383v711h248v-649q0 -126 53 -187.5t164 -61.5q120 0 184.5 69t64.5 192v637h248v-1094h-239v174h-17q-83 -196 -327 -196q-179 0 -279 106.5t-100 298.5zM257 1383q0 60 41 100.5t102 40.5t102 -40.5t41 -100.5t-41 -100.5t-102 -40.5t-102 40.5t-41 100.5z M702 1383q0 60 41 100.5t102 40.5t102 -40.5t41 -100.5t-41 -100.5t-102 -40.5t-102 40.5t-41 100.5z" />
<glyph unicode="&#x100;" d="M71 0l512 1443h290l513 -1443h-277l-122 369h-531l-124 -369h-261zM368 1628v164h720v-164h-720zM516 573h411l-196 595h-17z" />
<glyph unicode="&#x101;" horiz-adv-x="1179" d="M91 310q0 148 107.5 232t307.5 96l282 17v92q0 81 -53 124t-153 43q-86 0 -142 -29.5t-73 -84.5h-234q15 145 140.5 230.5t320.5 85.5q210 0 324.5 -97t114.5 -272v-747h-239v150h-17q-46 -79 -131.5 -123.5t-192.5 -44.5q-160 0 -261 90t-101 238zM238 1305v164h712 v-164h-712zM337 324q0 -68 52.5 -107.5t136.5 -39.5q112 0 187 64.5t75 159.5v87l-247 -16q-204 -13 -204 -148z" />
<glyph unicode="&#x102;" d="M71 0l512 1443h290l513 -1443h-277l-122 369h-531l-124 -369h-261zM341 1900h188q2 -77 55.5 -122t143.5 -45t143.5 45t55.5 122h188q0 -145 -104.5 -233.5t-282.5 -88.5t-282.5 88.5t-104.5 233.5zM516 573h411l-196 595h-17z" />
<glyph unicode="&#x103;" horiz-adv-x="1179" d="M91 310q0 148 107.5 232t307.5 96l282 17v92q0 81 -53 124t-153 43q-86 0 -142 -29.5t-73 -84.5h-234q15 145 140.5 230.5t320.5 85.5q210 0 324.5 -97t114.5 -272v-747h-239v150h-17q-46 -79 -131.5 -123.5t-192.5 -44.5q-160 0 -261 90t-101 238zM206 1585h188 q2 -84 54.5 -135t144.5 -51t144.5 51t54.5 135h188q0 -152 -104.5 -247t-282.5 -95t-282.5 95t-104.5 247zM337 324q0 -68 52.5 -107.5t136.5 -39.5q112 0 187 64.5t75 159.5v87l-247 -16q-204 -13 -204 -148z" />
<glyph unicode="&#x104;" d="M71 0l512 1443h290l513 -1443l-36 -5q-81 -25 -140 -74.5t-59 -110.5q0 -45 32.5 -71t83.5 -26q42 0 68 7v-154q-51 -20 -126 -20q-118 0 -190.5 61.5t-72.5 155.5q0 69 45.5 133t118.5 102l-123 371h-531l-124 -369h-261zM516 573h411l-196 595h-17z" />
<glyph unicode="&#x105;" horiz-adv-x="1179" d="M91 310q0 147 107 231.5t308 96.5l282 17v92q0 81 -53 124t-153 43q-87 0 -142.5 -29.5t-72.5 -84.5h-234q15 145 140 230.5t321 85.5q209 0 324 -97t115 -272v-747l-27 -6q-81 -26 -131.5 -76t-50.5 -108q0 -43 31 -70t85 -27q45 0 68 7v-154q-53 -20 -126 -20 q-116 0 -189.5 61t-73.5 156q0 76 49.5 140.5t125.5 97.5v149h-17q-46 -79 -131.5 -123.5t-192.5 -44.5q-162 0 -262 90.5t-100 237.5zM337 324q0 -67 51.5 -107t137.5 -40q112 0 187 64t75 160v87l-247 -16q-204 -13 -204 -148z" />
<glyph unicode="&#x106;" horiz-adv-x="1499" d="M117 721q0 352 177.5 555t484.5 203q246 0 417 -144.5t194 -370.5h-254q-27 130 -124 207.5t-233 77.5q-184 0 -291 -141.5t-107 -385.5t107 -386t292 -142q137 0 234 71.5t123 192.5h254q-26 -222 -194 -358t-417 -136q-307 0 -485 203.5t-178 553.5zM651 1587l288 310 h283l-321 -310h-250z" />
<glyph unicode="&#x107;" horiz-adv-x="1182" d="M98 550q0 267 138 416.5t384 149.5q206 0 331.5 -106.5t145.5 -283.5h-236q-18 83 -80 132.5t-161 49.5q-128 0 -199.5 -94t-71.5 -264q0 -172 72 -268t199 -96q97 0 159.5 45t81.5 130h236q-21 -175 -146.5 -279t-329.5 -104q-247 0 -385 151t-138 421zM479 1275 l249 347h277l-284 -347h-242z" />
<glyph unicode="&#x108;" horiz-adv-x="1499" d="M117 721q0 352 177.5 555t484.5 203q246 0 417 -144.5t194 -370.5h-254q-27 130 -124 207.5t-233 77.5q-184 0 -291 -141.5t-107 -385.5t107 -386t292 -142q137 0 234 71.5t123 192.5h254q-26 -222 -194 -358t-417 -136q-307 0 -485 203.5t-178 553.5zM373 1587l290 321 h232l290 -321h-242l-155 183h-18l-155 -183h-242z" />
<glyph unicode="&#x109;" horiz-adv-x="1182" d="M98 550q0 267 138 416.5t384 149.5q206 0 331.5 -106.5t145.5 -283.5h-236q-18 83 -80 132.5t-161 49.5q-128 0 -199.5 -94t-71.5 -264q0 -172 72 -268t199 -96q97 0 159.5 45t81.5 130h236q-21 -175 -146.5 -279t-329.5 -104q-247 0 -385 151t-138 421zM212 1243 l277 348h259l277 -348h-239l-159 215h-17l-159 -215h-239z" />
<glyph unicode="&#x10a;" horiz-adv-x="1499" d="M117 721q0 352 177.5 555t484.5 203q246 0 417 -144.5t194 -370.5h-254q-27 130 -124 207.5t-233 77.5q-184 0 -291 -141.5t-107 -385.5t107 -386t292 -142q137 0 234 71.5t123 192.5h254q-26 -222 -194 -358t-417 -136q-307 0 -485 203.5t-178 553.5zM635 1724 q0 62 40.5 103.5t103.5 41.5q62 0 103 -41.5t41 -103.5q0 -61 -41 -102.5t-103 -41.5t-103 41.5t-41 102.5z" />
<glyph unicode="&#x10b;" horiz-adv-x="1182" d="M98 550q0 267 138 416.5t384 149.5q206 0 331.5 -106.5t145.5 -283.5h-236q-18 83 -80 132.5t-161 49.5q-128 0 -199.5 -94t-71.5 -264q0 -172 72 -268t199 -96q97 0 159.5 45t81.5 130h236q-21 -175 -146.5 -279t-329.5 -104q-247 0 -385 151t-138 421zM470 1430 q0 63 42.5 105.5t106.5 42.5q63 0 106 -43t43 -105q0 -63 -42.5 -106t-106.5 -43t-106.5 43t-42.5 106z" />
<glyph unicode="&#x10c;" horiz-adv-x="1499" d="M117 721q0 352 177.5 555t484.5 203q246 0 417 -144.5t194 -370.5h-254q-27 130 -124 207.5t-233 77.5q-184 0 -291 -141.5t-107 -385.5t107 -386t292 -142q137 0 234 71.5t123 192.5h254q-26 -222 -194 -358t-417 -136q-307 0 -485 203.5t-178 553.5zM380 1897h235 l155 -174h18l155 174h235l-288 -310h-222z" />
<glyph unicode="&#x10d;" horiz-adv-x="1182" d="M98 550q0 267 138 416.5t384 149.5q206 0 331.5 -106.5t145.5 -283.5h-236q-18 83 -80 132.5t-161 49.5q-128 0 -199.5 -94t-71.5 -264q0 -172 72 -268t199 -96q97 0 159.5 45t81.5 130h236q-21 -175 -146.5 -279t-329.5 -104q-247 0 -385 151t-138 421zM212 1591h239 l159 -215h17l159 215h239l-277 -348h-259z" />
<glyph unicode="&#x10e;" horiz-adv-x="1514" d="M178 0v1443h541q322 0 500.5 -187.5t178.5 -527.5q0 -347 -177.5 -537.5t-501.5 -190.5h-541zM224 1895h235l155 -174h18l155 174h235l-288 -310h-222zM436 223h249q216 0 333 130t117 371q0 236 -118.5 366t-331.5 130h-249v-997z" />
<glyph unicode="&#x10f;" horiz-adv-x="1481" d="M98 548q0 259 121.5 411.5t328.5 152.5q112 0 200 -51t132 -141h17v597h248v-1517h-240v173h-17q-47 -90 -136.5 -140.5t-203.5 -50.5q-208 0 -329 152.5t-121 413.5zM352 547q0 -166 72.5 -260t200.5 -94t201.5 94.5t73.5 259.5q0 164 -74 259t-201 95t-200 -94.5 t-73 -259.5zM1286 1019v498h221l-50 -498h-171z" />
<glyph unicode="&#x110;" horiz-adv-x="1518" d="M41 634v204h140v605h541q322 0 500.5 -187.5t178.5 -527.5q0 -347 -177.5 -537.5t-501.5 -190.5h-541v634h-140zM439 223h249q216 0 333 130t117 371q0 236 -118.5 366t-331.5 130h-249v-382h232v-204h-232v-411z" />
<glyph unicode="&#x111;" horiz-adv-x="1314" d="M105 548q0 259 122 411.5t329 152.5q112 0 200 -51t132 -141h16v343h-242v142h242v112h248v-112h144v-142h-144v-1263h-239v173h-17q-47 -90 -137 -140.5t-203 -50.5q-208 0 -329.5 152.5t-121.5 413.5zM360 547q0 -166 72.5 -260t200.5 -94t201.5 94.5t73.5 259.5 q0 164 -74 259t-201 95t-200 -94.5t-73 -259.5z" />
<glyph unicode="&#x112;" horiz-adv-x="1254" d="M178 0v1443h934v-223h-676v-383h639v-210h-639v-404h676v-223h-934zM285 1628v164h720v-164h-720z" />
<glyph unicode="&#x113;" horiz-adv-x="1208" d="M98 543q0 264 138 418.5t376 154.5q234 0 366.5 -146.5t132.5 -405.5v-80h-764v-13q5 -137 78.5 -216.5t195.5 -79.5q188 0 244 126h235q-35 -150 -164.5 -236.5t-321.5 -86.5q-241 0 -378.5 150.5t-137.5 414.5zM256 1305v164h712v-164h-712zM348 653h515 q-4 122 -72 194t-180 72q-111 0 -183 -73t-80 -193z" />
<glyph unicode="&#x114;" horiz-adv-x="1254" d="M178 0v1443h934v-223h-676v-383h639v-210h-639v-404h676v-223h-934zM258 1900h188q2 -77 55.5 -122t143.5 -45t143.5 45t55.5 122h188q0 -145 -104.5 -233.5t-282.5 -88.5t-282.5 88.5t-104.5 233.5z" />
<glyph unicode="&#x115;" horiz-adv-x="1208" d="M98 543q0 264 138 418.5t376 154.5q234 0 366.5 -146.5t132.5 -405.5v-80h-764v-13q5 -137 78.5 -216.5t195.5 -79.5q188 0 244 126h235q-35 -150 -164.5 -236.5t-321.5 -86.5q-241 0 -378.5 150.5t-137.5 414.5zM224 1585h188q2 -84 54.5 -135t144.5 -51t144.5 51 t54.5 135h188q0 -152 -104.5 -247t-282.5 -95t-282.5 95t-104.5 247zM348 653h515q-4 122 -72 194t-180 72q-111 0 -183 -73t-80 -193z" />
<glyph unicode="&#x116;" horiz-adv-x="1254" d="M178 0v1443h934v-223h-676v-383h639v-210h-639v-404h676v-223h-934zM501 1722q0 62 40.5 103.5t103.5 41.5q62 0 103 -41.5t41 -103.5q0 -61 -41 -102.5t-103 -41.5t-103 41.5t-41 102.5z" />
<glyph unicode="&#x117;" horiz-adv-x="1208" d="M98 543q0 264 138 418.5t376 154.5q234 0 366.5 -146.5t132.5 -405.5v-80h-764v-13q5 -137 78.5 -216.5t195.5 -79.5q188 0 244 126h235q-35 -150 -164.5 -236.5t-321.5 -86.5q-241 0 -378.5 150.5t-137.5 414.5zM348 653h515q-4 122 -72 194t-180 72q-111 0 -183 -73 t-80 -193zM463 1430q0 63 42.5 105.5t106.5 42.5t106.5 -43t42.5 -105q0 -63 -42.5 -106t-106.5 -43t-106.5 43t-42.5 106z" />
<glyph unicode="&#x118;" horiz-adv-x="1254" d="M178 0v1443h934v-223h-676v-383h639v-210h-639v-404h676v-215l-45 -13q-76 -24 -132.5 -74t-56.5 -111q0 -45 32.5 -71t83.5 -26q42 0 68 7v-154q-51 -20 -126 -20q-118 0 -190.5 61.5t-72.5 155.5q0 67 38.5 126t102.5 94v17h-636z" />
<glyph unicode="&#x119;" horiz-adv-x="1208" d="M98 543q0 264 138 418.5t376 154.5q234 0 366.5 -146.5t132.5 -405.5v-80h-764v-13q5 -137 78.5 -216.5t195.5 -79.5q188 0 244 126h235q-11 -59 -59 -132.5t-114 -126.5q-83 -68 -122 -121.5t-39 -107.5q0 -47 32 -73.5t83 -26.5q42 0 68 7v-154q-51 -20 -125 -20 q-118 0 -190.5 61.5t-72.5 155.5q0 61 34.5 116t96.5 92v17q-28 -10 -78 -10q-241 0 -378.5 150.5t-137.5 414.5zM348 653h515q-4 122 -72 194t-180 72q-111 0 -183 -73t-80 -193z" />
<glyph unicode="&#x11a;" horiz-adv-x="1254" d="M178 0v1443h934v-223h-676v-383h639v-210h-639v-404h676v-223h-934zM246 1895h235l155 -174h18l155 174h235l-288 -310h-222z" />
<glyph unicode="&#x11b;" horiz-adv-x="1208" d="M98 543q0 264 138 418.5t376 154.5q234 0 366.5 -146.5t132.5 -405.5v-80h-764v-13q5 -137 78.5 -216.5t195.5 -79.5q188 0 244 126h235q-35 -150 -164.5 -236.5t-321.5 -86.5q-241 0 -378.5 150.5t-137.5 414.5zM205 1591h239l159 -215h17l159 215h239l-277 -348h-259z M348 653h515q-4 122 -72 194t-180 72q-111 0 -183 -73t-80 -193z" />
<glyph unicode="&#x11c;" horiz-adv-x="1547" d="M117 722q0 346 183 551.5t491 205.5q250 0 419 -132t204 -353h-257q-39 123 -133.5 189t-232.5 66q-189 0 -299.5 -141t-110.5 -384q0 -246 112.5 -388t305.5 -142q165 0 268 92t106 241l1 30h-347v202h599v-181q0 -281 -171 -447.5t-460 -166.5q-314 0 -496 203.5 t-182 554.5zM385 1586l290 321h232l290 -321h-242l-155 183h-18l-155 -183h-242z" />
<glyph unicode="&#x11d;" horiz-adv-x="1295" d="M96 559q0 252 122 402.5t330 150.5q112 0 203 -52t136 -141h17v175h239v-1098q0 -190 -141 -301t-380 -111q-209 0 -339.5 85t-145.5 227h249q12 -57 75.5 -90t164.5 -33q127 0 198 57t71 160v207h-17q-47 -88 -133.5 -134.5t-200.5 -46.5q-206 0 -327 147.5t-121 395.5z M218 1243l277 348h259l277 -348h-239l-159 215h-17l-159 -215h-239zM351 559q0 -158 71 -249.5t200 -91.5t203 92t74 249t-74 249.5t-203 92.5q-128 0 -199.5 -92t-71.5 -250z" />
<glyph unicode="&#x11e;" horiz-adv-x="1547" d="M117 722q0 346 183 551.5t491 205.5q250 0 419 -132t204 -353h-257q-39 123 -133.5 189t-232.5 66q-189 0 -299.5 -141t-110.5 -384q0 -246 112.5 -388t305.5 -142q165 0 268 92t106 241l1 30h-347v202h599v-181q0 -281 -171 -447.5t-460 -166.5q-314 0 -496 203.5 t-182 554.5zM404 1901h188q2 -77 55.5 -122t143.5 -45t143.5 45t55.5 122h188q0 -145 -104.5 -233.5t-282.5 -88.5t-282.5 88.5t-104.5 233.5z" />
<glyph unicode="&#x11f;" horiz-adv-x="1295" d="M96 559q0 252 122 402.5t330 150.5q112 0 203 -52t136 -141h17v175h239v-1098q0 -190 -141 -301t-380 -111q-209 0 -339.5 85t-145.5 227h249q12 -57 75.5 -90t164.5 -33q127 0 198 57t71 160v207h-17q-47 -88 -133.5 -134.5t-200.5 -46.5q-206 0 -327 147.5t-121 395.5z M237 1585h188q2 -84 54.5 -135t144.5 -51t144.5 51t54.5 135h188q0 -152 -104.5 -247t-282.5 -95t-282.5 95t-104.5 247zM351 559q0 -158 71 -249.5t200 -91.5t203 92t74 249t-74 249.5t-203 92.5q-128 0 -199.5 -92t-71.5 -250z" />
<glyph unicode="&#x120;" horiz-adv-x="1547" d="M117 722q0 346 183 551.5t491 205.5q250 0 419 -132t204 -353h-257q-39 123 -133.5 189t-232.5 66q-189 0 -299.5 -141t-110.5 -384q0 -246 112.5 -388t305.5 -142q165 0 268 92t106 241l1 30h-347v202h599v-181q0 -281 -171 -447.5t-460 -166.5q-314 0 -496 203.5 t-182 554.5zM647 1723q0 62 40.5 103.5t103.5 41.5q62 0 103 -41.5t41 -103.5q0 -61 -41 -102.5t-103 -41.5t-103 41.5t-41 102.5z" />
<glyph unicode="&#x121;" horiz-adv-x="1295" d="M96 559q0 252 122 402.5t330 150.5q112 0 203 -52t136 -141h17v175h239v-1098q0 -190 -141 -301t-380 -111q-209 0 -339.5 85t-145.5 227h249q12 -57 75.5 -90t164.5 -33q127 0 198 57t71 160v207h-17q-47 -88 -133.5 -134.5t-200.5 -46.5q-206 0 -327 147.5t-121 395.5z M351 559q0 -158 71 -249.5t200 -91.5t203 92t74 249t-74 249.5t-203 92.5q-128 0 -199.5 -92t-71.5 -250zM476 1430q0 63 42.5 105.5t106.5 42.5q63 0 106 -43t43 -105q0 -63 -42.5 -106t-106.5 -43t-106.5 43t-42.5 106z" />
<glyph unicode="&#x122;" horiz-adv-x="1547" d="M117 722q0 346 183 551.5t491 205.5q250 0 419 -132t204 -353h-257q-39 123 -133.5 189t-232.5 66q-189 0 -299.5 -141t-110.5 -384q0 -246 112.5 -388t305.5 -142q165 0 268 92t106 241l1 30h-347v202h599v-181q0 -281 -171 -447.5t-460 -166.5q-314 0 -496 203.5 t-182 554.5zM573 -512l121 364h253l-149 -364h-225z" />
<glyph unicode="&#x123;" horiz-adv-x="1295" d="M96 559q0 252 122 402.5t330 150.5q112 0 203 -52t136 -141h17v175h239v-1098q0 -190 -141 -301t-380 -111q-209 0 -339.5 85t-145.5 227h249q12 -57 75.5 -90t164.5 -33q127 0 198 57t71 160v207h-17q-47 -88 -133.5 -134.5t-200.5 -46.5q-206 0 -327 147.5t-121 395.5z M351 559q0 -158 71 -249.5t200 -91.5t203 92t74 249t-74 249.5t-203 92.5q-128 0 -199.5 -92t-71.5 -250zM497 1290l149 364h225l-121 -364h-253z" />
<glyph unicode="&#x124;" horiz-adv-x="1573" d="M178 0v1443h258v-597h702v597h257v-1443h-257v623h-702v-623h-258zM381 1585l290 321h232l290 -321h-242l-155 183h-18l-155 -183h-242z" />
<glyph unicode="&#x125;" horiz-adv-x="1274" d="M-122 1659l290 321h232l290 -321h-242l-155 183h-18l-155 -183h-242zM162 0v1517h244v-600h18q39 93 125 145t207 52q177 0 276.5 -107t99.5 -301v-706h-248v647q0 124 -56 187.5t-164 63.5q-120 0 -187 -71.5t-67 -191.5v-635h-248z" />
<glyph unicode="&#x126;" horiz-adv-x="1573" d="M47 1062v184h131v197h258v-197h702v197h257v-197h131v-184h-131v-1062h-257v623h-702v-623h-258v1062h-131zM436 846h702v216h-702v-216z" />
<glyph unicode="&#x127;" horiz-adv-x="1274" d="M18 1263v142h144v112h244v-112h243v-142h-243v-346h18q39 93 125 145t207 52q177 0 276.5 -107t99.5 -301v-706h-248v647q0 124 -56 187.5t-164 63.5q-120 0 -187 -71.5t-67 -191.5v-635h-248v1263h-144z" />
<glyph unicode="&#x128;" horiz-adv-x="614" d="M-90 1576q0 142 68 226t183 84q43 0 80 -15t63 -37t48 -44t45 -37t44 -15q91 0 92 145h170q0 -142 -67.5 -225.5t-182.5 -83.5q-52 0 -97.5 23.5t-71.5 51t-56 51t-55 23.5q-91 0 -92 -147h-171zM178 0v1443h258v-1443h-258z" />
<glyph unicode="&#x129;" horiz-adv-x="557" d="M-116 1246q0 142 68 226t183 84q43 0 80 -15t63 -37t48 -44t45 -37t44 -15q91 0 92 145h170q0 -142 -67.5 -225.5t-182.5 -83.5q-52 0 -97.5 23.5t-71.5 51t-56 51t-55 23.5q-91 0 -92 -147h-171zM155 0v1094h247v-1094h-247z" />
<glyph unicode="&#x12a;" horiz-adv-x="614" d="M-53 1628v164h720v-164h-720zM178 0v1443h258v-1443h-258z" />
<glyph unicode="&#x12b;" horiz-adv-x="557" d="M-25 1305v164h606v-164h-606zM155 0v1094h247v-1094h-247z" />
<glyph unicode="&#x12c;" horiz-adv-x="614" d="M-80 1900h188q2 -77 55.5 -122t143.5 -45t143.5 45t55.5 122h188q0 -145 -104.5 -233.5t-282.5 -88.5t-282.5 88.5t-104.5 233.5zM178 0v1443h258v-1443h-258z" />
<glyph unicode="&#x12d;" horiz-adv-x="557" d="M-110 1585h188q2 -84 54.5 -135t144.5 -51t144.5 51t54.5 135h188q0 -152 -104.5 -247t-282.5 -95t-282.5 95t-104.5 247zM155 0v1094h247v-1094h-247z" />
<glyph unicode="&#x12e;" horiz-adv-x="614" d="M53 -237q0 66 33 122.5t92 93.5v1464h258v-1443l-16 -5q-74 -34 -118 -81t-44 -101q0 -45 32 -72.5t87 -27.5q38 0 68 7v-154q-53 -20 -129 -20q-116 0 -189.5 61t-73.5 156z" />
<glyph unicode="&#x12f;" horiz-adv-x="557" d="M19 -234q0 135 136 223v1105h247v-1094l-22 -5q-72 -32 -114 -79.5t-42 -102.5q0 -47 33.5 -73.5t85.5 -26.5q38 0 68 7v-154q-49 -20 -124 -20q-121 0 -194.5 62t-73.5 158zM125 1409q0 60 43 98.5t110 38.5q68 0 110.5 -38.5t42.5 -98.5t-42.5 -98.5t-110.5 -38.5 q-67 0 -110 38.5t-43 98.5z" />
<glyph unicode="&#x130;" horiz-adv-x="614" d="M163 1722q0 62 40.5 103.5t103.5 41.5q62 0 103 -41.5t41 -103.5q0 -61 -41 -102.5t-103 -41.5t-103 41.5t-41 102.5zM178 0v1443h258v-1443h-258z" />
<glyph unicode="&#x131;" horiz-adv-x="557" d="M155 0v1094h247v-1094h-247z" />
<glyph unicode="&#x132;" horiz-adv-x="1798" d="M178 0v1443h258v-1443h-258zM693 393h252q1 -89 58 -143t149 -54q102 0 156 60.5t54 176.5v1010h258v-1012q0 -222 -123 -344.5t-342 -122.5q-208 0 -335 117t-127 312z" />
<glyph unicode="&#x133;" horiz-adv-x="1135" d="M125 1409q0 60 43 98.5t110 38.5q68 0 110.5 -38.5t42.5 -98.5t-42.5 -98.5t-110.5 -38.5q-67 0 -110 38.5t-43 98.5zM155 0v1094h247v-1094h-247zM542 -176q1 0 15 -0.5t17 -0.5q82 0 115.5 32.5t33.5 107.5v1131h247v-1135q0 -333 -368 -333q-39 0 -60 3v195zM693 1409 q0 60 43 98.5t110 38.5q68 0 110.5 -38.5t42.5 -98.5t-42.5 -98.5t-110.5 -38.5q-67 0 -110 38.5t-43 98.5z" />
<glyph unicode="&#x134;" horiz-adv-x="1184" d="M79 393h252q1 -89 58 -143t149 -54q102 0 156 60.5t54 176.5v1010h258v-1012q0 -222 -123 -344.5t-342 -122.5q-208 0 -335 117t-127 312zM471 1585l290 321h232l290 -321h-242l-155 183h-18l-155 -183h-242z" />
<glyph unicode="&#x135;" horiz-adv-x="557" d="M-127 1243l277 348h259l277 -348h-239l-159 215h-17l-159 -215h-239zM-30 -176q1 0 15 -0.5t17 -0.5q82 0 115.5 32.5t33.5 107.5v1131h247v-1135q0 -333 -368 -333q-39 0 -60 3v195z" />
<glyph unicode="&#x136;" horiz-adv-x="1415" d="M178 0v1443h258v-664h17l569 664h296l-545 -629l588 -814h-315l-456 637l-154 -177v-460h-258zM456 -512l121 364h253l-149 -364h-225z" />
<glyph unicode="&#x137;" horiz-adv-x="1188" d="M162 0v1517h248v-869h17l404 446h288l-436 -469l466 -625h-300l-351 469l-88 -88v-381h-248zM405 -512l121 364h253l-149 -364h-225z" />
<glyph unicode="&#x139;" horiz-adv-x="1198" d="M178 0v1443h258v-1217h662v-226h-920zM179 1585l288 310h283l-321 -310h-250z" />
<glyph unicode="&#x13a;" horiz-adv-x="571" d="M158 1659l288 310h283l-321 -310h-250zM162 0v1517h248v-1517h-248z" />
<glyph unicode="&#x13b;" horiz-adv-x="1198" d="M178 0v1443h258v-1217h662v-226h-920zM407 -512l121 364h253l-149 -364h-225z" />
<glyph unicode="&#x13c;" horiz-adv-x="571" d="M58 -512l121 364h253l-149 -364h-225zM162 0v1517h248v-1517h-248z" />
<glyph unicode="&#x13d;" horiz-adv-x="1198" d="M178 0v1443h258v-1217h662v-226h-920zM643 945v498h219l-50 -498h-169z" />
<glyph unicode="&#x13e;" horiz-adv-x="746" d="M162 0v1517h248v-1517h-248zM551 1019v498h221l-50 -498h-171z" />
<glyph unicode="&#x141;" horiz-adv-x="1198" d="M21 605v182l157 77v579h258v-451l258 127v-183l-258 -127v-583h662v-226h-920v682z" />
<glyph unicode="&#x142;" horiz-adv-x="571" d="M36 618v183l126 65v651h248v-523l125 64v-183l-125 -64v-811h-248v683z" />
<glyph unicode="&#x143;" horiz-adv-x="1554" d="M178 0v1443h224l708 -981h17v981h248v-1443h-223l-708 982h-17v-982h-249zM646 1585l288 310h283l-321 -310h-250z" />
<glyph unicode="&#x144;" horiz-adv-x="1252" d="M152 0v1094h239v-175h17q40 94 122.5 145.5t202.5 51.5q182 0 279.5 -106t97.5 -302v-708h-248v649q0 251 -221 251q-111 0 -176 -71t-65 -192v-637h-248zM496 1275l249 347h277l-284 -347h-242z" />
<glyph unicode="&#x145;" horiz-adv-x="1554" d="M178 0v1443h224l708 -981h17v981h248v-1443h-223l-708 982h-17v-982h-249zM546 -512l121 364h253l-149 -364h-225z" />
<glyph unicode="&#x146;" horiz-adv-x="1252" d="M152 0v1094h239v-175h17q40 94 122.5 145.5t202.5 51.5q182 0 279.5 -106t97.5 -302v-708h-248v649q0 251 -221 251q-111 0 -176 -71t-65 -192v-637h-248zM408 -512l121 364h253l-149 -364h-225z" />
<glyph unicode="&#x147;" horiz-adv-x="1554" d="M178 0v1443h224l708 -981h17v981h248v-1443h-223l-708 982h-17v-982h-249zM375 1895h235l155 -174h18l155 174h235l-288 -310h-222z" />
<glyph unicode="&#x148;" horiz-adv-x="1252" d="M152 0v1094h239v-175h17q40 94 122.5 145.5t202.5 51.5q182 0 279.5 -106t97.5 -302v-708h-248v649q0 251 -221 251q-111 0 -176 -71t-65 -192v-637h-248zM229 1591h239l159 -215h17l159 215h239l-277 -348h-259z" />
<glyph unicode="&#x14c;" horiz-adv-x="1599" d="M117 722q0 349 184.5 553t499.5 204q314 0 497.5 -204t183.5 -553t-183 -553.5t-498 -204.5q-317 0 -500.5 204t-183.5 554zM381 722q0 -243 112.5 -386t307.5 -143q192 0 304.5 143.5t112.5 385.5t-112.5 385t-304.5 143q-193 0 -306.5 -143t-113.5 -385zM441 1628v164 h720v-164h-720z" />
<glyph unicode="&#x14d;" horiz-adv-x="1248" d="M98 547q0 264 141 416.5t385 152.5q245 0 385.5 -152t140.5 -417q0 -266 -140.5 -417.5t-385.5 -151.5q-246 0 -386 151.5t-140 417.5zM268 1305v164h712v-164h-712zM352 547q0 -172 71 -266.5t201 -94.5t200.5 94.5t70.5 266.5q0 171 -71 266t-200 95q-130 0 -201 -95 t-71 -266z" />
<glyph unicode="&#x14e;" horiz-adv-x="1599" d="M117 722q0 349 184.5 553t499.5 204q314 0 497.5 -204t183.5 -553t-183 -553.5t-498 -204.5q-317 0 -500.5 204t-183.5 554zM381 722q0 -243 112.5 -386t307.5 -143q192 0 304.5 143.5t112.5 385.5t-112.5 385t-304.5 143q-193 0 -306.5 -143t-113.5 -385zM414 1900h188 q2 -77 55.5 -122t143.5 -45t143.5 45t55.5 122h188q0 -145 -104.5 -233.5t-282.5 -88.5t-282.5 88.5t-104.5 233.5z" />
<glyph unicode="&#x14f;" horiz-adv-x="1248" d="M98 547q0 264 141 416.5t385 152.5q245 0 385.5 -152t140.5 -417q0 -266 -140.5 -417.5t-385.5 -151.5q-246 0 -386 151.5t-140 417.5zM236 1585h188q2 -84 54.5 -135t144.5 -51t144.5 51t54.5 135h188q0 -152 -104.5 -247t-282.5 -95t-282.5 95t-104.5 247zM352 547 q0 -172 71 -266.5t201 -94.5t200.5 94.5t70.5 266.5q0 171 -71 266t-200 95q-130 0 -201 -95t-71 -266z" />
<glyph unicode="&#x150;" horiz-adv-x="1599" d="M117 722q0 349 184.5 553t499.5 204q314 0 497.5 -204t183.5 -553t-183 -553.5t-498 -204.5q-317 0 -500.5 204t-183.5 554zM381 722q0 -243 112.5 -386t307.5 -143q192 0 304.5 143.5t112.5 385.5t-112.5 385t-304.5 143q-193 0 -306.5 -143t-113.5 -385zM434 1585 l273 310h254l-297 -310h-230zM863 1585l273 310h254l-297 -310h-230z" />
<glyph unicode="&#x151;" horiz-adv-x="1248" d="M98 547q0 264 141 416.5t385 152.5q245 0 385.5 -152t140.5 -417q0 -266 -140.5 -417.5t-385.5 -151.5q-246 0 -386 151.5t-140 417.5zM274 1275l227 347h241l-256 -347h-212zM352 547q0 -172 71 -266.5t201 -94.5t200.5 94.5t70.5 266.5q0 171 -71 266t-200 95 q-130 0 -201 -95t-71 -266zM697 1275l227 347h241l-256 -347h-212z" />
<glyph unicode="&#x152;" horiz-adv-x="2291" d="M124 722q0 353 173.5 555t477.5 202q152 0 284.5 -74t189.5 -191h18v229h908v-223h-688v-383h651v-210h-651v-404h688v-223h-908v238h-18q-59 -123 -189.5 -198.5t-284.5 -75.5q-304 0 -477.5 202t-173.5 556zM387 722q0 -245 114.5 -387t312.5 -142q190 0 301 142.5 t111 386.5t-111 386t-301 142q-197 0 -312 -142.5t-115 -385.5z" />
<glyph unicode="&#x153;" horiz-adv-x="2006" d="M101 546q0 265 138.5 417.5t379.5 152.5q131 0 233.5 -53.5t160.5 -151.5h17q57 96 159.5 150.5t230.5 54.5q225 0 357.5 -148.5t132.5 -402.5v-80h-764v-13q4 -137 77.5 -216.5t195.5 -79.5q189 0 245 125h233q-35 -150 -163 -236.5t-313 -86.5q-131 0 -236.5 54 t-155.5 147h-17q-51 -92 -156 -146.5t-238 -54.5q-240 0 -378.5 152.5t-138.5 415.5zM356 546q0 -171 70.5 -265.5t200.5 -94.5q129 0 200 94.5t71 265.5q0 172 -71 267t-200 95t-200 -95t-71 -267zM1146 653h515q-4 122 -71.5 194t-179.5 72q-111 0 -183 -72.5t-81 -193.5z " />
<glyph unicode="&#x154;" horiz-adv-x="1391" d="M178 0v1443h586q227 0 360 -121.5t133 -329.5q0 -144 -72 -254.5t-200 -156.5l315 -581h-295l-283 541h-286v-541h-258zM436 746h298q123 0 190.5 63t67.5 178q0 113 -70.5 177.5t-193.5 64.5h-292v-483zM508 1585l288 310h283l-321 -310h-250z" />
<glyph unicode="&#x155;" horiz-adv-x="851" d="M152 0v1094h239v-170h17q23 82 103.5 135t185.5 53q67 0 103 -11v-230q-38 14 -127 14q-121 0 -197 -69.5t-76 -183.5v-632h-248zM283 1275l249 347h277l-284 -347h-242z" />
<glyph unicode="&#x156;" horiz-adv-x="1391" d="M178 0v1443h586q227 0 360 -121.5t133 -329.5q0 -144 -72 -254.5t-200 -156.5l315 -581h-295l-283 541h-286v-541h-258zM408 -512l121 364h253l-149 -364h-225zM436 746h298q123 0 190.5 63t67.5 178q0 113 -70.5 177.5t-193.5 64.5h-292v-483z" />
<glyph unicode="&#x157;" horiz-adv-x="851" d="M46 -512l121 364h253l-149 -364h-225zM152 0v1094h239v-170h17q23 82 103.5 135t185.5 53q67 0 103 -11v-230q-38 14 -127 14q-121 0 -197 -69.5t-76 -183.5v-632h-248z" />
<glyph unicode="&#x158;" horiz-adv-x="1391" d="M178 0v1443h586q227 0 360 -121.5t133 -329.5q0 -144 -72 -254.5t-200 -156.5l315 -581h-295l-283 541h-286v-541h-258zM237 1895h235l155 -174h18l155 174h235l-288 -310h-222zM436 746h298q123 0 190.5 63t67.5 178q0 113 -70.5 177.5t-193.5 64.5h-292v-483z" />
<glyph unicode="&#x159;" horiz-adv-x="851" d="M16 1591h239l159 -215h17l159 215h239l-277 -348h-259zM152 0v1094h239v-170h17q23 82 103.5 135t185.5 53q67 0 103 -11v-230q-38 14 -127 14q-121 0 -197 -69.5t-76 -183.5v-632h-248z" />
<glyph unicode="&#x15a;" horiz-adv-x="1354" d="M112 392h252q12 -97 101 -154.5t226 -57.5q128 0 210.5 58.5t82.5 149.5q0 78 -62.5 127t-201.5 81l-187 43q-196 44 -290.5 143.5t-94.5 260.5q0 197 147.5 316.5t389.5 119.5q227 0 376 -118t158 -304h-247q-13 95 -91 151t-197 56q-125 0 -200.5 -55.5t-75.5 -147.5 q0 -73 59 -118.5t193 -76.5l166 -38q219 -49 317.5 -146t98.5 -262q0 -211 -152.5 -333.5t-414.5 -122.5q-248 0 -400.5 116t-162.5 312zM557 1585l288 310h283l-321 -310h-250z" />
<glyph unicode="&#x15b;" horiz-adv-x="1128" d="M99 295h245q18 -62 75.5 -95.5t149.5 -33.5q94 0 153 37.5t59 98.5q0 91 -151 124l-194 45q-158 36 -233.5 111.5t-75.5 198.5q0 148 122 241.5t316 93.5q195 0 311.5 -82.5t129.5 -231.5h-233q-14 59 -67.5 92.5t-139.5 33.5t-142 -37t-56 -96q0 -46 39.5 -76t122.5 -49 l193 -44q158 -36 232 -107t74 -191q0 -157 -130 -253.5t-336 -96.5q-205 0 -327.5 84t-136.5 233zM425 1275l249 347h277l-284 -347h-242z" />
<glyph unicode="&#x15c;" horiz-adv-x="1354" d="M112 392h252q12 -97 101 -154.5t226 -57.5q128 0 210.5 58.5t82.5 149.5q0 78 -62.5 127t-201.5 81l-187 43q-196 44 -290.5 143.5t-94.5 260.5q0 197 147.5 316.5t389.5 119.5q227 0 376 -118t158 -304h-247q-13 95 -91 151t-197 56q-125 0 -200.5 -55.5t-75.5 -147.5 q0 -73 59 -118.5t193 -76.5l166 -38q219 -49 317.5 -146t98.5 -262q0 -211 -152.5 -333.5t-414.5 -122.5q-248 0 -400.5 116t-162.5 312zM279 1585l290 321h232l290 -321h-242l-155 183h-18l-155 -183h-242z" />
<glyph unicode="&#x15d;" horiz-adv-x="1128" d="M99 295h245q18 -62 75.5 -95.5t149.5 -33.5q94 0 153 37.5t59 98.5q0 91 -151 124l-194 45q-158 36 -233.5 111.5t-75.5 198.5q0 148 122 241.5t316 93.5q195 0 311.5 -82.5t129.5 -231.5h-233q-14 59 -67.5 92.5t-139.5 33.5t-142 -37t-56 -96q0 -46 39.5 -76t122.5 -49 l193 -44q158 -36 232 -107t74 -191q0 -157 -130 -253.5t-336 -96.5q-205 0 -327.5 84t-136.5 233zM158 1243l277 348h259l277 -348h-239l-159 215h-17l-159 -215h-239z" />
<glyph unicode="&#x15e;" horiz-adv-x="1354" d="M112 392h252q12 -97 101 -154.5t226 -57.5q128 0 210.5 58.5t82.5 149.5q0 78 -62.5 127t-201.5 81l-187 43q-196 44 -290.5 143.5t-94.5 260.5q0 197 147.5 316.5t389.5 119.5q227 0 376 -118t158 -304h-247q-13 95 -91 151t-197 56q-125 0 -200.5 -55.5t-75.5 -147.5 q0 -73 59 -118.5t193 -76.5l166 -38q219 -49 317.5 -146t98.5 -262q0 -195 -131.5 -315.5t-361.5 -137.5l-34 -84q97 -3 150 -47.5t53 -124.5q0 -92 -68.5 -145.5t-190.5 -53.5q-84 0 -146 18v125q44 -14 118 -14q114 0 114 64q0 31 -32 45t-105 14h-59v104l42 100 q-214 20 -342 132.5t-137 291.5z" />
<glyph unicode="&#x15f;" horiz-adv-x="1128" d="M99 295h245q18 -62 75.5 -95.5t149.5 -33.5q94 0 153 37.5t59 98.5q0 91 -151 124l-194 45q-158 36 -233.5 111.5t-75.5 198.5q0 148 122 241.5t316 93.5q195 0 311.5 -82.5t129.5 -231.5h-233q-14 59 -67.5 92.5t-139.5 33.5t-142 -37t-56 -96q0 -46 39.5 -76t122.5 -49 l193 -44q158 -36 232 -107t74 -191q0 -140 -106 -233.5t-280 -112.5l-40 -99q97 -3 150 -47.5t53 -124.5q0 -92 -68.5 -145.5t-190.5 -53.5q-84 0 -146 18v125q44 -14 118 -14q114 0 114 64q0 31 -32 45t-105 14h-59v104l48 113q-171 16 -272 98t-114 216z" />
<glyph unicode="&#x160;" horiz-adv-x="1354" d="M112 392h252q12 -97 101 -154.5t226 -57.5q128 0 210.5 58.5t82.5 149.5q0 78 -62.5 127t-201.5 81l-187 43q-196 44 -290.5 143.5t-94.5 260.5q0 197 147.5 316.5t389.5 119.5q227 0 376 -118t158 -304h-247q-13 95 -91 151t-197 56q-125 0 -200.5 -55.5t-75.5 -147.5 q0 -73 59 -118.5t193 -76.5l166 -38q219 -49 317.5 -146t98.5 -262q0 -211 -152.5 -333.5t-414.5 -122.5q-248 0 -400.5 116t-162.5 312zM286 1895h235l155 -174h18l155 174h235l-288 -310h-222z" />
<glyph unicode="&#x161;" horiz-adv-x="1128" d="M99 295h245q18 -62 75.5 -95.5t149.5 -33.5q94 0 153 37.5t59 98.5q0 91 -151 124l-194 45q-158 36 -233.5 111.5t-75.5 198.5q0 148 122 241.5t316 93.5q195 0 311.5 -82.5t129.5 -231.5h-233q-14 59 -67.5 92.5t-139.5 33.5t-142 -37t-56 -96q0 -46 39.5 -76t122.5 -49 l193 -44q158 -36 232 -107t74 -191q0 -157 -130 -253.5t-336 -96.5q-205 0 -327.5 84t-136.5 233zM158 1591h239l159 -215h17l159 215h239l-277 -348h-259z" />
<glyph unicode="&#x162;" horiz-adv-x="1332" d="M93 1220v223h1147v-223h-445v-1220h-1l-47 -117q97 -3 150 -47.5t53 -124.5q0 -92 -68.5 -145.5t-190.5 -53.5q-84 0 -146 18v125q44 -14 118 -14q114 0 114 64q0 31 -32 45t-105 14h-59v104l55 132h-99v1220h-444z" />
<glyph unicode="&#x163;" horiz-adv-x="808" d="M58 889v198h173v275h247v-275h234v-198h-234v-537q0 -81 36 -118.5t114 -37.5q34 0 84 5v-194q-62 -12 -130 -12q-27 0 -40 1l-45 -113q97 -3 150 -47.5t53 -124.5q0 -92 -68.5 -145.5t-190.5 -53.5q-84 0 -146 18v125q44 -14 118 -14q114 0 114 64q0 31 -32 45t-105 14 h-59v104l64 151q-86 29 -125 95t-39 178v597h-173z" />
<glyph unicode="&#x164;" horiz-adv-x="1332" d="M93 1220v223h1147v-223h-445v-1220h-258v1220h-444zM265 1895h235l155 -174h18l155 174h235l-288 -310h-222z" />
<glyph unicode="&#x165;" horiz-adv-x="808" d="M58 889v198h173v275h247v-275h234v-198h-234v-537q0 -81 36 -118.5t114 -37.5q34 0 84 5v-194q-62 -12 -130 -12q-188 0 -269.5 69t-81.5 228v597h-173zM592 1231v499h222l-50 -499h-172z" />
<glyph unicode="&#x166;" horiz-adv-x="1332" d="M93 1220v223h1147v-223h-445v-422h289v-191h-289v-607h-258v607h-293v191h293v422h-444z" />
<glyph unicode="&#x167;" horiz-adv-x="805" d="M56 493v155h175v241h-173v198h173v275h247v-275h234v-198h-234v-241h246v-155h-246v-141q0 -81 36 -118.5t114 -37.5q34 0 84 5v-194q-62 -12 -130 -12q-188 0 -269.5 69t-81.5 228v201h-175z" />
<glyph unicode="&#x168;" horiz-adv-x="1550" d="M182 497v946h257v-922q0 -149 89 -237.5t247 -88.5t246.5 88.5t88.5 237.5v922h258v-946q0 -239 -161 -386t-432 -147t-432 147t-161 386zM378 1576q0 142 68 226t183 84q43 0 80 -15t63 -37t48 -44t45 -37t44 -15q91 0 92 145h170q0 -142 -67.5 -225.5t-182.5 -83.5 q-52 0 -97.5 23.5t-71.5 51t-56 51t-55 23.5q-91 0 -92 -147h-171z" />
<glyph unicode="&#x169;" horiz-adv-x="1256" d="M142 383v711h248v-649q0 -126 53 -187.5t164 -61.5q120 0 184.5 69t64.5 192v637h248v-1094h-239v174h-17q-83 -196 -327 -196q-179 0 -279 106.5t-100 298.5zM229 1246q0 142 68 226t183 84q43 0 80 -15t63 -37t48 -44t45 -37t44 -15q91 0 92 145h170 q0 -142 -67.5 -225.5t-182.5 -83.5q-52 0 -97.5 23.5t-71.5 51t-56 51t-55 23.5q-91 0 -92 -147h-171z" />
<glyph unicode="&#x16a;" horiz-adv-x="1550" d="M182 497v946h257v-922q0 -149 89 -237.5t247 -88.5t246.5 88.5t88.5 237.5v922h258v-946q0 -239 -161 -386t-432 -147t-432 147t-161 386zM415 1628v164h720v-164h-720z" />
<glyph unicode="&#x16b;" horiz-adv-x="1256" d="M142 383v711h248v-649q0 -126 53 -187.5t164 -61.5q120 0 184.5 69t64.5 192v637h248v-1094h-239v174h-17q-83 -196 -327 -196q-179 0 -279 106.5t-100 298.5zM267 1305v164h712v-164h-712z" />
<glyph unicode="&#x16c;" horiz-adv-x="1550" d="M182 497v946h257v-922q0 -149 89 -237.5t247 -88.5t246.5 88.5t88.5 237.5v922h258v-946q0 -239 -161 -386t-432 -147t-432 147t-161 386zM388 1900h188q2 -77 55.5 -122t143.5 -45t143.5 45t55.5 122h188q0 -145 -104.5 -233.5t-282.5 -88.5t-282.5 88.5t-104.5 233.5z " />
<glyph unicode="&#x16d;" horiz-adv-x="1256" d="M142 383v711h248v-649q0 -126 53 -187.5t164 -61.5q120 0 184.5 69t64.5 192v637h248v-1094h-239v174h-17q-83 -196 -327 -196q-179 0 -279 106.5t-100 298.5zM235 1585h188q2 -84 54.5 -135t144.5 -51t144.5 51t54.5 135h188q0 -152 -104.5 -247t-282.5 -95t-282.5 95 t-104.5 247z" />
<glyph unicode="&#x16e;" horiz-adv-x="1550" d="M182 497v946h257v-922q0 -149 89 -237.5t247 -88.5t246.5 88.5t88.5 237.5v922h258v-946q0 -239 -161 -386t-432 -147t-432 147t-161 386zM572 1747q0 84 58.5 141t144.5 57t144.5 -57t58.5 -141q0 -85 -58.5 -142t-144.5 -57t-144.5 57t-58.5 142zM676 1746 q0 -42 28 -69.5t71 -27.5t71 27.5t28 69.5q0 43 -28 70.5t-71 27.5t-71 -27.5t-28 -70.5z" />
<glyph unicode="&#x16f;" horiz-adv-x="1256" d="M142 383v711h248v-649q0 -126 53 -187.5t164 -61.5q120 0 184.5 69t64.5 192v637h248v-1094h-239v174h-17q-83 -196 -327 -196q-179 0 -279 106.5t-100 298.5zM382 1479q0 101 69.5 168t171.5 67t171 -67t69 -168t-69 -168.5t-171 -67.5t-171.5 67.5t-69.5 168.5z M511 1478q0 -47 31.5 -78.5t80.5 -31.5q48 0 79.5 31.5t31.5 78.5q0 48 -31.5 79.5t-79.5 31.5q-49 0 -80.5 -31.5t-31.5 -79.5z" />
<glyph unicode="&#x170;" horiz-adv-x="1550" d="M182 497v946h257v-922q0 -149 89 -237.5t247 -88.5t246.5 88.5t88.5 237.5v922h258v-946q0 -239 -161 -386t-432 -147t-432 147t-161 386zM408 1585l273 310h254l-297 -310h-230zM837 1585l273 310h254l-297 -310h-230z" />
<glyph unicode="&#x171;" horiz-adv-x="1256" d="M142 383v711h248v-649q0 -126 53 -187.5t164 -61.5q120 0 184.5 69t64.5 192v637h248v-1094h-239v174h-17q-83 -196 -327 -196q-179 0 -279 106.5t-100 298.5zM273 1275l227 347h241l-256 -347h-212zM696 1275l227 347h241l-256 -347h-212z" />
<glyph unicode="&#x172;" horiz-adv-x="1549" d="M182 497v946h257v-922q0 -151 90.5 -238.5t245.5 -87.5t245 87.5t90 238.5v922h258v-946q0 -136 -59.5 -248.5t-185.5 -222.5q-137 -119 -137 -213q0 -46 32 -73t83 -27q42 0 68 7v-154q-51 -20 -125 -20q-118 0 -190.5 60.5t-72.5 152.5q0 68 37.5 123t93.5 88v18 q-48 -24 -137 -24q-268 0 -430.5 145.5t-162.5 387.5z" />
<glyph unicode="&#x173;" horiz-adv-x="1256" d="M142 383v711h248v-649q0 -126 53 -187.5t164 -61.5q120 0 184.5 69t64.5 192v637h248v-1094l-27 -6q-82 -26 -132.5 -76t-50.5 -108q0 -43 31.5 -70t84.5 -27q45 0 68 7v-154q-51 -20 -125 -20q-117 0 -190.5 61t-73.5 156q0 76 50 140.5t126 96.5v174h-17 q-83 -196 -327 -196q-179 0 -279 106.5t-100 298.5z" />
<glyph unicode="&#x174;" horiz-adv-x="2036" d="M88 1443h269l247 -1074h15l284 1074h229l288 -1074h14l247 1074h267l-387 -1443h-242l-294 1022h-15l-292 -1022h-243zM612 1585l290 321h232l290 -321h-242l-155 183h-18l-155 -183h-242z" />
<glyph unicode="&#x175;" horiz-adv-x="1681" d="M64 1094h250l182 -817h17l210 817h237l212 -817h17l181 817h247l-296 -1094h-261l-213 788h-17l-212 -788h-258zM435 1243l277 348h259l277 -348h-239l-159 215h-17l-159 -215h-239z" />
<glyph unicode="&#x176;" horiz-adv-x="1412" d="M71 1443h283l344 -617h17l343 617h283l-506 -879v-564h-258v564zM300 1585l290 321h232l290 -321h-242l-155 183h-18l-155 -183h-242z" />
<glyph unicode="&#x177;" horiz-adv-x="1183" d="M60 1094h272l256 -854h17l255 854h262l-395 -1129q-69 -203 -169.5 -282.5t-285.5 -79.5q-77 0 -98 4v203q19 -4 68 -4q79 0 125.5 33t70.5 108l13 48zM185 1243l277 348h259l277 -348h-239l-159 215h-17l-159 -215h-239z" />
<glyph unicode="&#x178;" horiz-adv-x="1412" d="M71 1443h283l344 -617h17l343 617h283l-506 -879v-564h-258v564zM340 1718q0 60 41 100.5t102 40.5t102 -40.5t41 -100.5t-41 -100.5t-102 -40.5t-102 40.5t-41 100.5zM785 1718q0 60 41 100.5t102 40.5t102 -40.5t41 -100.5t-41 -100.5t-102 -40.5t-102 40.5t-41 100.5z " />
<glyph unicode="&#x179;" horiz-adv-x="1373" d="M138 0v176l759 1027v17h-738v223h1057v-176l-756 -1027v-17h775v-223h-1097zM559 1585l288 310h283l-321 -310h-250z" />
<glyph unicode="&#x17a;" horiz-adv-x="1140" d="M127 0v155l581 722v17h-576v200h872v-169l-560 -708v-17h569v-200h-886zM425 1275l249 347h277l-284 -347h-242z" />
<glyph unicode="&#x17b;" horiz-adv-x="1373" d="M138 0v176l759 1027v17h-738v223h1057v-176l-756 -1027v-17h775v-223h-1097zM543 1722q0 62 40.5 103.5t103.5 41.5q62 0 103 -41.5t41 -103.5q0 -61 -41 -102.5t-103 -41.5t-103 41.5t-41 102.5z" />
<glyph unicode="&#x17c;" horiz-adv-x="1140" d="M127 0v155l581 722v17h-576v200h872v-169l-560 -708v-17h569v-200h-886zM416 1430q0 63 42.5 105.5t106.5 42.5q63 0 106 -43t43 -105q0 -63 -42.5 -106t-106.5 -43t-106.5 43t-42.5 106z" />
<glyph unicode="&#x17d;" horiz-adv-x="1373" d="M138 0v176l759 1027v17h-738v223h1057v-176l-756 -1027v-17h775v-223h-1097zM288 1895h235l155 -174h18l155 174h235l-288 -310h-222z" />
<glyph unicode="&#x17e;" horiz-adv-x="1140" d="M127 0v155l581 722v17h-576v200h872v-169l-560 -708v-17h569v-200h-886zM158 1591h239l159 -215h17l159 215h239l-277 -348h-259z" />
<glyph unicode="&#x18f;" horiz-adv-x="1534" d="M114 685l1 98h1021v20q1 197 -111 323.5t-287 126.5q-254 0 -344 -209h-262q58 204 220.5 319.5t387.5 115.5q304 0 485.5 -206.5t181.5 -552.5q0 -340 -178.5 -548t-470.5 -208q-298 0 -470 195t-174 526zM388 581q14 -182 113.5 -286.5t259.5 -104.5q150 0 251 106.5 t120 284.5h-744z" />
<glyph unicode="&#x192;" horiz-adv-x="1383" d="M96 0v218q87 -29 187 -29q195 0 223 187l46 306h-323v191h352l31 202q29 191 146 289t316 98q125 0 206 -17v-213q-70 19 -176 19q-210 0 -240 -201l-27 -177h356v-191h-385l-48 -320q-30 -200 -140.5 -293t-306.5 -93q-121 0 -217 24z" />
<glyph unicode="&#x1a0;" horiz-adv-x="1642" d="M117 722q0 349 184.5 553t499.5 204q83 0 215.5 -23.5t209.5 -23.5q59 0 84 22t25 69v155h205v-219q0 -92 -54 -143.5t-144 -51.5h-60v-15q89 -65 144.5 -211t55.5 -316q0 -349 -183 -553.5t-498 -204.5q-317 0 -500.5 204t-183.5 554zM381 722q0 -243 112.5 -386 t307.5 -143q192 0 304.5 143.5t112.5 385.5t-112.5 385t-304.5 143q-193 0 -306.5 -143t-113.5 -385z" />
<glyph unicode="&#x1a1;" horiz-adv-x="1327" d="M98 547q0 265 140.5 417t385.5 152q72 0 154.5 -16.5t131.5 -16.5q62 0 85.5 20t23.5 68v143h205v-211q0 -86 -46 -133.5t-121 -47.5h-50v-11q64 -43 103.5 -142.5t39.5 -221.5q0 -266 -140 -417.5t-386 -151.5t-386 151.5t-140 417.5zM352 547q0 -172 71 -266.5 t201 -94.5q129 0 200 94.5t71 266.5t-71 266.5t-200 94.5t-200.5 -94.5t-71.5 -266.5z" />
<glyph unicode="&#x1af;" horiz-adv-x="1717" d="M182 497v946h257v-922q0 -151 90.5 -238.5t245.5 -87.5t245 87.5t90 238.5v922h265q84 0 84 80v175h205v-224q0 -98 -59 -151.5t-159 -53.5h-78v-772q0 -241 -162.5 -387t-430.5 -146q-269 0 -431 146t-162 387z" />
<glyph unicode="&#x1b0;" horiz-adv-x="1438" d="M142 383v711h248v-649q0 -125 53 -187t164 -62q119 0 184 69t65 192v637h237q84 0 84 80v157h205v-206q0 -98 -59 -151.5t-159 -53.5h-60v-920h-239v174h-17q-84 -196 -327 -196q-181 0 -280 107t-99 298z" />
<glyph unicode="&#x1c4;" horiz-adv-x="2894" d="M178 0v1443h541q322 0 500.5 -187.5t178.5 -527.5q0 -347 -177.5 -537.5t-501.5 -190.5h-541zM436 223h249q216 0 333 130t117 371q0 236 -118.5 366t-331.5 130h-249v-997zM1659 0v176l759 1027v17h-738v223h1057v-176l-756 -1027v-17h775v-223h-1097zM1809 1895h235 l155 -174h18l155 174h235l-288 -310h-222z" />
<glyph unicode="&#x1c5;" horiz-adv-x="2660" d="M178 0v1443h541q322 0 500.5 -187.5t178.5 -527.5q0 -347 -177.5 -537.5t-501.5 -190.5h-541zM436 223h249q216 0 333 130t117 371q0 236 -118.5 366t-331.5 130h-249v-997zM1648 0v155l581 722v17h-576v200h872v-169l-560 -708v-17h569v-200h-886zM1679 1591h239 l159 -215h17l159 215h239l-277 -348h-259z" />
<glyph unicode="&#x1c6;" horiz-adv-x="2452" d="M98 548q0 259 121.5 411.5t328.5 152.5q112 0 200 -51t132 -141h17v597h248v-1517h-240v173h-17q-47 -90 -136.5 -140.5t-203.5 -50.5q-208 0 -329 152.5t-121 413.5zM352 547q0 -166 72.5 -260t200.5 -94t201.5 94.5t73.5 259.5q0 164 -74 259t-201 95t-200 -94.5 t-73 -259.5zM1439 0v155l581 722v17h-576v200h872v-169l-560 -708v-17h569v-200h-886zM1470 1591h239l159 -215h17l159 215h239l-277 -348h-259z" />
<glyph unicode="&#x1c7;" horiz-adv-x="2379" d="M178 0v1443h258v-1217h662v-226h-920zM1274 393h252q1 -89 58 -143t149 -54q102 0 156 60.5t54 176.5v1010h258v-1012q0 -222 -123 -344.5t-342 -122.5q-208 0 -335 117t-127 312z" />
<glyph unicode="&#x1c8;" horiz-adv-x="1762" d="M178 0v1443h258v-1217h662v-226h-920zM1169 -176q1 0 15 -0.5t17 -0.5q82 0 115.5 32.5t33.5 107.5v1131h247v-1135q0 -333 -368 -333q-39 0 -60 3v195zM1320 1409q0 60 43 98.5t110 38.5q68 0 110.5 -38.5t42.5 -98.5t-42.5 -98.5t-110.5 -38.5q-67 0 -110 38.5 t-43 98.5z" />
<glyph unicode="&#x1c9;" horiz-adv-x="1135" d="M162 0v1517h248v-1517h-248zM542 -176q1 0 15 -0.5t17 -0.5q82 0 115.5 32.5t33.5 107.5v1131h247v-1135q0 -333 -368 -333q-39 0 -60 3v195zM693 1409q0 60 43 98.5t110 38.5q68 0 110.5 -38.5t42.5 -98.5t-42.5 -98.5t-110.5 -38.5q-67 0 -110 38.5t-43 98.5z" />
<glyph unicode="&#x1ca;" horiz-adv-x="2738" d="M178 0v1443h224l708 -981h17v981h248v-1443h-223l-708 982h-17v-982h-249zM1633 393h252q1 -89 58 -143t149 -54q102 0 156 60.5t54 176.5v1010h258v-1012q0 -222 -123 -344.5t-342 -122.5q-208 0 -335 117t-127 312z" />
<glyph unicode="&#x1cb;" horiz-adv-x="2121" d="M178 0v1443h224l708 -981h17v981h248v-1443h-223l-708 982h-17v-982h-249zM1528 -176q1 0 15 -0.5t17 -0.5q82 0 115.5 32.5t33.5 107.5v1131h247v-1135q0 -333 -368 -333q-39 0 -60 3v195zM1679 1409q0 60 43 98.5t110 38.5q68 0 110.5 -38.5t42.5 -98.5t-42.5 -98.5 t-110.5 -38.5q-67 0 -110 38.5t-43 98.5z" />
<glyph unicode="&#x1cc;" horiz-adv-x="1809" d="M152 0v1094h239v-175h17q40 94 122.5 145.5t202.5 51.5q182 0 279.5 -106t97.5 -302v-708h-248v649q0 251 -221 251q-111 0 -176 -71t-65 -192v-637h-248zM1226 -176q1 0 15 -0.5t17 -0.5q82 0 115.5 32.5t33.5 107.5v1131h247v-1135q0 -333 -368 -333q-39 0 -60 3v195z M1377 1409q0 60 43 98.5t110 38.5q68 0 110.5 -38.5t42.5 -98.5t-42.5 -98.5t-110.5 -38.5q-67 0 -110 38.5t-43 98.5z" />
<glyph unicode="&#x1cd;" d="M71 0l512 1443h290l513 -1443h-277l-122 369h-531l-124 -369h-261zM329 1895h235l155 -174h18l155 174h235l-288 -310h-222zM516 573h411l-196 595h-17z" />
<glyph unicode="&#x1ce;" horiz-adv-x="1179" d="M91 310q0 148 107.5 232t307.5 96l282 17v92q0 81 -53 124t-153 43q-86 0 -142 -29.5t-73 -84.5h-234q15 145 140.5 230.5t320.5 85.5q210 0 324.5 -97t114.5 -272v-747h-239v150h-17q-46 -79 -131.5 -123.5t-192.5 -44.5q-160 0 -261 90t-101 238zM187 1591h239 l159 -215h17l159 215h239l-277 -348h-259zM337 324q0 -68 52.5 -107.5t136.5 -39.5q112 0 187 64.5t75 159.5v87l-247 -16q-204 -13 -204 -148z" />
<glyph unicode="&#x1cf;" horiz-adv-x="614" d="M-92 1895h235l155 -174h18l155 174h235l-288 -310h-222zM178 0v1443h258v-1443h-258z" />
<glyph unicode="&#x1d0;" horiz-adv-x="557" d="M-129 1591h239l159 -215h17l159 215h239l-277 -348h-259zM155 0v1094h247v-1094h-247z" />
<glyph unicode="&#x1d1;" horiz-adv-x="1599" d="M117 722q0 349 184.5 553t499.5 204q314 0 497.5 -204t183.5 -553t-183 -553.5t-498 -204.5q-317 0 -500.5 204t-183.5 554zM381 722q0 -243 112.5 -386t307.5 -143q192 0 304.5 143.5t112.5 385.5t-112.5 385t-304.5 143q-193 0 -306.5 -143t-113.5 -385zM402 1895h235 l155 -174h18l155 174h235l-288 -310h-222z" />
<glyph unicode="&#x1d2;" horiz-adv-x="1248" d="M98 547q0 264 141 416.5t385 152.5q245 0 385.5 -152t140.5 -417q0 -266 -140.5 -417.5t-385.5 -151.5q-246 0 -386 151.5t-140 417.5zM217 1591h239l159 -215h17l159 215h239l-277 -348h-259zM352 547q0 -172 71 -266.5t201 -94.5t200.5 94.5t70.5 266.5q0 171 -71 266 t-200 95q-130 0 -201 -95t-71 -266z" />
<glyph unicode="&#x1d3;" horiz-adv-x="1550" d="M182 497v946h257v-922q0 -149 89 -237.5t247 -88.5t246.5 88.5t88.5 237.5v922h258v-946q0 -239 -161 -386t-432 -147t-432 147t-161 386zM376 1895h235l155 -174h18l155 174h235l-288 -310h-222z" />
<glyph unicode="&#x1d4;" horiz-adv-x="1256" d="M142 383v711h248v-649q0 -126 53 -187.5t164 -61.5q120 0 184.5 69t64.5 192v637h248v-1094h-239v174h-17q-83 -196 -327 -196q-179 0 -279 106.5t-100 298.5zM216 1591h239l159 -215h17l159 215h239l-277 -348h-259z" />
<glyph unicode="&#x1d5;" horiz-adv-x="1550" d="M182 497v946h257v-922q0 -149 89 -237.5t247 -88.5t246.5 88.5t88.5 237.5v922h258v-946q0 -239 -161 -386t-432 -147t-432 147t-161 386zM412 1716q0 59 40 98.5t101 39.5q60 0 100 -39.5t40 -98.5t-40 -98.5t-100 -39.5q-61 0 -101 39.5t-40 98.5zM415 1973v154h720 v-154h-720zM857 1716q0 59 40 98.5t100 39.5q61 0 101 -39.5t40 -98.5t-40 -98.5t-101 -39.5q-60 0 -100 39.5t-40 98.5z" />
<glyph unicode="&#x1d6;" horiz-adv-x="1256" d="M142 383v711h248v-649q0 -126 53 -187.5t164 -61.5q120 0 184.5 69t64.5 192v637h248v-1094h-239v174h-17q-83 -196 -327 -196q-179 0 -279 106.5t-100 298.5zM267 1657v164h712v-164h-712zM273 1377q0 57 39 96t97 39t96.5 -39t38.5 -96t-38.5 -95.5t-96.5 -38.5 t-97 38.5t-39 95.5zM702 1377q0 57 38.5 96t96.5 39t97 -39t39 -96t-39 -95.5t-97 -38.5t-96.5 38.5t-38.5 95.5z" />
<glyph unicode="&#x1d7;" horiz-adv-x="1550" d="M182 497v946h257v-922q0 -149 89 -237.5t247 -88.5t246.5 88.5t88.5 237.5v922h258v-946q0 -239 -161 -386t-432 -147t-432 147t-161 386zM410 1718q0 61 40.5 101t102.5 40q61 0 101.5 -40t40.5 -101q0 -60 -40.5 -100t-101.5 -40t-102 40t-41 100zM667 1914l189 235 h268l-241 -235h-216zM855 1718q0 61 40.5 101t101.5 40q62 0 102.5 -40t40.5 -101q0 -60 -41 -100t-102 -40t-101.5 40t-40.5 100z" />
<glyph unicode="&#x1d8;" horiz-adv-x="1256" d="M142 383v711h248v-649q0 -126 53 -187.5t164 -61.5q120 0 184.5 69t64.5 192v637h248v-1094h-239v174h-17q-83 -196 -327 -196q-179 0 -279 106.5t-100 298.5zM257 1385q0 60 41 100.5t102 40.5t102 -40.5t41 -100.5t-41 -100.5t-102 -40.5t-102 40.5t-41 100.5z M506 1617l200 311h250l-236 -311h-214zM702 1385q0 60 41 100.5t102 40.5t102 -40.5t41 -100.5t-41 -100.5t-102 -40.5t-102 40.5t-41 100.5z" />
<glyph unicode="&#x1d9;" horiz-adv-x="1550" d="M182 497v946h257v-922q0 -149 89 -237.5t247 -88.5t246.5 88.5t88.5 237.5v922h258v-946q0 -239 -161 -386t-432 -147t-432 147t-161 386zM370 2168h248l148 -154h18l148 154h248l-283 -275h-244zM414 1703q0 57 39.5 95.5t99.5 38.5t99.5 -38.5t39.5 -95.5 q0 -58 -39.5 -96.5t-99.5 -38.5t-99.5 38.5t-39.5 96.5zM858 1703q0 57 39.5 95.5t99.5 38.5t99.5 -38.5t39.5 -95.5q0 -58 -39.5 -96.5t-99.5 -38.5t-99.5 38.5t-39.5 96.5z" />
<glyph unicode="&#x1da;" horiz-adv-x="1256" d="M142 383v711h248v-649q0 -126 53 -187.5t164 -61.5q120 0 184.5 69t64.5 192v637h248v-1094h-239v174h-17q-83 -196 -327 -196q-179 0 -279 106.5t-100 298.5zM224 1942h233l157 -208h18l157 208h233l-275 -337h-248zM273 1377q0 57 39 96t97 39t96.5 -39t38.5 -96 t-38.5 -95.5t-96.5 -38.5t-97 38.5t-39 95.5zM702 1377q0 57 38.5 96t96.5 39t97 -39t39 -96t-39 -95.5t-97 -38.5t-96.5 38.5t-38.5 95.5z" />
<glyph unicode="&#x1db;" horiz-adv-x="1550" d="M182 497v946h257v-922q0 -149 89 -237.5t247 -88.5t246.5 88.5t88.5 237.5v922h258v-946q0 -239 -161 -386t-432 -147t-432 147t-161 386zM410 1718q0 61 40.5 101t102.5 40q61 0 101.5 -40t40.5 -101q0 -60 -40.5 -100t-101.5 -40t-102 40t-41 100zM438 2149h268 l190 -235h-217zM855 1718q0 61 40.5 101t101.5 40q62 0 102.5 -40t40.5 -101q0 -60 -41 -100t-102 -40t-101.5 40t-40.5 100z" />
<glyph unicode="&#x1dc;" horiz-adv-x="1256" d="M142 383v711h248v-649q0 -126 53 -187.5t164 -61.5q120 0 184.5 69t64.5 192v637h248v-1094h-239v174h-17q-83 -196 -327 -196q-179 0 -279 106.5t-100 298.5zM257 1387q0 60 41 100.5t102 40.5t102 -40.5t41 -100.5t-41 -100.5t-102 -40.5t-102 40.5t-41 100.5z M290 1928h250l200 -311h-214zM702 1387q0 60 41 100.5t102 40.5t102 -40.5t41 -100.5t-41 -100.5t-102 -40.5t-102 40.5t-41 100.5z" />
<glyph unicode="&#x1dd;" horiz-adv-x="1228" d="M106 547l3 67h762v9q0 135 -75 215.5t-197 80.5q-182 0 -245 -126h-234q38 147 166.5 235t315.5 88q240 0 379.5 -151.5t139.5 -410.5q0 -267 -137.5 -421.5t-376.5 -154.5q-237 0 -369 150t-132 419zM354 445q2 -123 71 -196.5t182 -73.5q112 0 184.5 74t79.5 196h-517z " />
<glyph unicode="&#x1de;" d="M71 0l512 1443h290l513 -1443h-277l-122 369h-531l-124 -369h-261zM365 1716q0 59 40 98.5t101 39.5q60 0 100 -39.5t40 -98.5t-40 -98.5t-100 -39.5q-61 0 -101 39.5t-40 98.5zM368 1973v154h720v-154h-720zM516 573h411l-196 595h-17zM810 1716q0 59 40 98.5t100 39.5 q61 0 101 -39.5t40 -98.5t-40 -98.5t-101 -39.5q-60 0 -100 39.5t-40 98.5z" />
<glyph unicode="&#x1df;" horiz-adv-x="1179" d="M91 310q0 148 107.5 232t307.5 96l282 17v92q0 81 -53 124t-153 43q-86 0 -142 -29.5t-73 -84.5h-234q15 145 140.5 230.5t320.5 85.5q210 0 324.5 -97t114.5 -272v-747h-239v150h-17q-46 -79 -131.5 -123.5t-192.5 -44.5q-160 0 -261 90t-101 238zM238 1657v164h712 v-164h-712zM244 1377q0 57 39 96t97 39t96.5 -39t38.5 -96t-38.5 -95.5t-96.5 -38.5t-97 38.5t-39 95.5zM337 324q0 -68 52.5 -107.5t136.5 -39.5q112 0 187 64.5t75 159.5v87l-247 -16q-204 -13 -204 -148zM673 1377q0 57 38.5 96t96.5 39t97 -39t39 -96t-39 -95.5 t-97 -38.5t-96.5 38.5t-38.5 95.5z" />
<glyph unicode="&#x1e0;" d="M71 0l512 1443h290l513 -1443h-277l-122 369h-531l-124 -369h-261zM368 1973v154h720v-154h-720zM516 573h411l-196 595h-17zM585 1714q0 59 41 98.5t102 39.5t102 -39.5t41 -98.5t-41 -98.5t-102 -39.5t-102 39.5t-41 98.5z" />
<glyph unicode="&#x1e1;" horiz-adv-x="1179" d="M91 310q0 148 107.5 232t307.5 96l282 17v92q0 81 -53 124t-153 43q-86 0 -142 -29.5t-73 -84.5h-234q15 145 140.5 230.5t320.5 85.5q210 0 324.5 -97t114.5 -272v-747h-239v150h-17q-46 -79 -131.5 -123.5t-192.5 -44.5q-160 0 -261 90t-101 238zM238 1657v164h712 v-164h-712zM337 324q0 -68 52.5 -107.5t136.5 -39.5q112 0 187 64.5t75 159.5v87l-247 -16q-204 -13 -204 -148zM455 1381q0 60 39.5 99.5t99.5 39.5t99.5 -39.5t39.5 -99.5q0 -59 -39.5 -98.5t-99.5 -39.5t-99.5 39.5t-39.5 98.5z" />
<glyph unicode="&#x1e2;" horiz-adv-x="2025" d="M71 0l615 1443h1197v-223h-653v-389h616v-211h-616v-397h653v-223h-894v398h-488l-174 -398h-256zM581 603h408v632h-136zM1132 1628v164h720v-164h-720z" />
<glyph unicode="&#x1e3;" horiz-adv-x="1882" d="M91 310q0 148 107.5 232t307.5 96l282 17v82q0 87 -53.5 132t-152.5 45q-180 0 -215 -114h-234q14 141 136.5 228.5t304.5 87.5q127 0 216.5 -45t137.5 -123h17q54 76 149 122t207 46q223 0 351 -145.5t128 -396.5v-84h-754v-23q5 -132 80.5 -211.5t197.5 -79.5 q170 0 231 125h234q-36 -151 -159.5 -237t-304.5 -86q-129 0 -235.5 57.5t-154.5 152.5h-17q-60 -99 -165 -154.5t-241 -55.5q-181 0 -291 91.5t-110 240.5zM337 322q0 -68 53.5 -107.5t142.5 -39.5q112 0 183.5 66.5t71.5 160.5v86l-247 -16q-204 -13 -204 -150zM611 1305 v164h712v-164h-712zM1026 658h507q-4 116 -72.5 188.5t-173.5 72.5q-113 0 -183.5 -71t-77.5 -190z" />
<glyph unicode="&#x1e6;" horiz-adv-x="1547" d="M117 722q0 346 183 551.5t491 205.5q250 0 419 -132t204 -353h-257q-39 123 -133.5 189t-232.5 66q-189 0 -299.5 -141t-110.5 -384q0 -246 112.5 -388t305.5 -142q165 0 268 92t106 241l1 30h-347v202h599v-181q0 -281 -171 -447.5t-460 -166.5q-314 0 -496 203.5 t-182 554.5zM392 1896h235l155 -174h18l155 174h235l-288 -310h-222z" />
<glyph unicode="&#x1e7;" horiz-adv-x="1295" d="M96 559q0 252 122 402.5t330 150.5q112 0 203 -52t136 -141h17v175h239v-1098q0 -190 -141 -301t-380 -111q-209 0 -339.5 85t-145.5 227h249q12 -57 75.5 -90t164.5 -33q127 0 198 57t71 160v207h-17q-47 -88 -133.5 -134.5t-200.5 -46.5q-206 0 -327 147.5t-121 395.5z M218 1591h239l159 -215h17l159 215h239l-277 -348h-259zM351 559q0 -158 71 -249.5t200 -91.5t203 92t74 249t-74 249.5t-203 92.5q-128 0 -199.5 -92t-71.5 -250z" />
<glyph unicode="&#x1e8;" horiz-adv-x="1415" d="M178 0v1443h258v-664h17l569 664h296l-545 -629l588 -814h-315l-456 637l-154 -177v-460h-258zM285 1895h235l155 -174h18l155 174h235l-288 -310h-222z" />
<glyph unicode="&#x1e9;" horiz-adv-x="1188" d="M-113 1969h235l155 -174h18l155 174h235l-288 -310h-222zM162 0v1517h248v-869h17l404 446h288l-436 -469l466 -625h-300l-351 469l-88 -88v-381h-248z" />
<glyph unicode="&#x1ea;" horiz-adv-x="1599" d="M117 722q0 349 184.5 553t499.5 204q314 0 497.5 -204t183.5 -553q0 -220 -81.5 -388.5t-257.5 -311.5q-140 -114 -140 -209q0 -44 31.5 -72t84.5 -28q45 0 68 7v-154q-53 -20 -126 -20q-116 0 -189.5 60t-73.5 153q0 64 35.5 119.5t95.5 91.5v18q-15 -10 -53.5 -17 t-74.5 -7q-317 0 -500.5 203.5t-183.5 554.5zM381 722q0 -243 113.5 -386t306.5 -143q191 0 304 143.5t113 385.5t-112.5 385t-304.5 143q-193 0 -306.5 -143t-113.5 -385z" />
<glyph unicode="&#x1eb;" horiz-adv-x="1248" d="M98 547q0 265 140.5 417t385.5 152t385.5 -152t140.5 -417q0 -320 -243 -526q-138 -120 -138 -208q0 -47 32.5 -73.5t83.5 -26.5q42 0 68 7v-154q-51 -20 -126 -20q-118 0 -190.5 61.5t-72.5 155.5q0 61 35 116t97 92v17q-26 -10 -72 -10q-246 0 -386 151.5t-140 417.5z M352 547q0 -172 71 -266.5t201 -94.5q129 0 200 94.5t71 266.5t-71 266.5t-200 94.5t-200.5 -94.5t-71.5 -266.5z" />
<glyph unicode="&#x1ec;" horiz-adv-x="1599" d="M117 722q0 349 184.5 553t499.5 204q314 0 497.5 -204t183.5 -553q0 -220 -81.5 -388.5t-257.5 -311.5q-140 -114 -140 -209q0 -44 31.5 -72t84.5 -28q45 0 68 7v-154q-53 -20 -126 -20q-116 0 -189.5 60t-73.5 153q0 64 35.5 119.5t95.5 91.5v18q-15 -10 -53.5 -17 t-74.5 -7q-317 0 -500.5 203.5t-183.5 554.5zM381 722q0 -243 113.5 -386t306.5 -143q191 0 304 143.5t113 385.5t-112.5 385t-304.5 143q-193 0 -306.5 -143t-113.5 -385zM441 1628v164h720v-164h-720z" />
<glyph unicode="&#x1ed;" horiz-adv-x="1248" d="M98 547q0 265 140.5 417t385.5 152t385.5 -152t140.5 -417q0 -320 -243 -526q-138 -120 -138 -208q0 -47 32.5 -73.5t83.5 -26.5q42 0 68 7v-154q-51 -20 -126 -20q-118 0 -190.5 61.5t-72.5 155.5q0 61 35 116t97 92v17q-26 -10 -72 -10q-246 0 -386 151.5t-140 417.5z M268 1305v164h712v-164h-712zM352 547q0 -172 71 -266.5t201 -94.5q129 0 200 94.5t71 266.5t-71 266.5t-200 94.5t-200.5 -94.5t-71.5 -266.5z" />
<glyph unicode="&#x1f1;" horiz-adv-x="2894" d="M178 0v1443h541q322 0 500.5 -187.5t178.5 -527.5q0 -347 -177.5 -537.5t-501.5 -190.5h-541zM436 223h249q216 0 333 130t117 371q0 236 -118.5 366t-331.5 130h-249v-997zM1659 0v176l759 1027v17h-738v223h1057v-176l-756 -1027v-17h775v-223h-1097z" />
<glyph unicode="&#x1f2;" horiz-adv-x="2660" d="M178 0v1443h541q322 0 500.5 -187.5t178.5 -527.5q0 -347 -177.5 -537.5t-501.5 -190.5h-541zM436 223h249q216 0 333 130t117 371q0 236 -118.5 366t-331.5 130h-249v-997zM1648 0v155l581 722v17h-576v200h872v-169l-560 -708v-17h569v-200h-886z" />
<glyph unicode="&#x1f3;" horiz-adv-x="2452" d="M98 548q0 259 121.5 411.5t328.5 152.5q112 0 200 -51t132 -141h17v597h248v-1517h-240v173h-17q-47 -90 -136.5 -140.5t-203.5 -50.5q-208 0 -329 152.5t-121 413.5zM352 547q0 -166 72.5 -260t200.5 -94t201.5 94.5t73.5 259.5q0 164 -74 259t-201 95t-200 -94.5 t-73 -259.5zM1439 0v155l581 722v17h-576v200h872v-169l-560 -708v-17h569v-200h-886z" />
<glyph unicode="&#x1f4;" horiz-adv-x="1547" d="M117 722q0 346 183 551.5t491 205.5q250 0 419 -132t204 -353h-257q-39 123 -133.5 189t-232.5 66q-189 0 -299.5 -141t-110.5 -384q0 -246 112.5 -388t305.5 -142q165 0 268 92t106 241l1 30h-347v202h599v-181q0 -281 -171 -447.5t-460 -166.5q-314 0 -496 203.5 t-182 554.5zM663 1586l288 310h283l-321 -310h-250z" />
<glyph unicode="&#x1f5;" horiz-adv-x="1295" d="M96 559q0 252 122 402.5t330 150.5q112 0 203 -52t136 -141h17v175h239v-1098q0 -190 -141 -301t-380 -111q-209 0 -339.5 85t-145.5 227h249q12 -57 75.5 -90t164.5 -33q127 0 198 57t71 160v207h-17q-47 -88 -133.5 -134.5t-200.5 -46.5q-206 0 -327 147.5t-121 395.5z M351 559q0 -158 71 -249.5t200 -91.5t203 92t74 249t-74 249.5t-203 92.5q-128 0 -199.5 -92t-71.5 -250zM485 1275l249 347h277l-284 -347h-242z" />
<glyph unicode="&#x1f8;" horiz-adv-x="1554" d="M178 0v1443h224l708 -981h17v981h248v-1443h-223l-708 982h-17v-982h-249zM334 1895h283l288 -310h-250z" />
<glyph unicode="&#x1f9;" horiz-adv-x="1252" d="M152 0v1094h239v-175h17q40 94 122.5 145.5t202.5 51.5q182 0 279.5 -106t97.5 -302v-708h-248v649q0 251 -221 251q-111 0 -176 -71t-65 -192v-637h-248zM256 1622h277l249 -347h-242z" />
<glyph unicode="&#x1fa;" d="M71 0l512 1443h290l513 -1443h-277l-122 369h-531l-124 -369h-261zM516 573h411l-196 595h-17zM517 1738q0 87 61 146t150 59t150 -58.5t61 -146.5q0 -87 -61 -146.5t-150 -59.5t-150 59.5t-61 146.5zM625 2012l123 188h236l-150 -188h-209zM637 1737q0 -39 26 -65 t65 -26t65 26.5t26 64.5t-26 64.5t-65 26.5t-65 -26.5t-26 -64.5z" />
<glyph unicode="&#x1fb;" horiz-adv-x="1179" d="M91 310q0 148 107.5 232t307.5 96l282 17v92q0 81 -53 124t-153 43q-86 0 -142 -29.5t-73 -84.5h-234q15 145 140.5 230.5t320.5 85.5q210 0 324.5 -97t114.5 -272v-747h-239v150h-17q-46 -79 -131.5 -123.5t-192.5 -44.5q-160 0 -261 90t-101 238zM337 324 q0 -68 52.5 -107.5t136.5 -39.5q112 0 187 64.5t75 159.5v87l-247 -16q-204 -13 -204 -148zM376 1423q0 91 63 152.5t155 61.5t155 -61.5t63 -152.5t-63 -152t-155 -61t-155 61t-63 152zM496 1718l162 233h232l-197 -233h-197zM499 1423q0 -41 27.5 -68t67.5 -27t67.5 27 t27.5 68q0 40 -27.5 67.5t-67.5 27.5t-67.5 -27.5t-27.5 -67.5z" />
<glyph unicode="&#x1fc;" horiz-adv-x="2025" d="M71 0l615 1443h1197v-223h-653v-389h616v-211h-616v-397h653v-223h-894v398h-488l-174 -398h-256zM581 603h408v632h-136zM1364 1585l288 310h283l-321 -310h-250z" />
<glyph unicode="&#x1fd;" horiz-adv-x="1882" d="M91 310q0 148 107.5 232t307.5 96l282 17v82q0 87 -53.5 132t-152.5 45q-180 0 -215 -114h-234q14 141 136.5 228.5t304.5 87.5q127 0 216.5 -45t137.5 -123h17q54 76 149 122t207 46q223 0 351 -145.5t128 -396.5v-84h-754v-23q5 -132 80.5 -211.5t197.5 -79.5 q170 0 231 125h234q-36 -151 -159.5 -237t-304.5 -86q-129 0 -235.5 57.5t-154.5 152.5h-17q-60 -99 -165 -154.5t-241 -55.5q-181 0 -291 91.5t-110 240.5zM337 322q0 -68 53.5 -107.5t142.5 -39.5q112 0 183.5 66.5t71.5 160.5v86l-247 -16q-204 -13 -204 -150zM827 1275 l249 347h277l-284 -347h-242zM1026 658h507q-4 116 -72.5 188.5t-173.5 72.5q-113 0 -183.5 -71t-77.5 -190z" />
<glyph unicode="&#x1fe;" horiz-adv-x="1577" d="M117 722q0 349 184.5 553t499.5 204q216 0 372 -98l84 119l104 -62l-92 -132q103 -99 158 -248t55 -336q0 -349 -183 -553.5t-498 -204.5q-231 0 -394 111l-95 -136l-101 70l102 145q-196 205 -196 568zM381 722q0 -211 86 -348l565 805q-99 71 -231 71 q-193 0 -306.5 -143t-113.5 -385zM550 279q101 -86 251 -86q192 0 304.5 143.5t112.5 385.5q0 227 -100 369zM675 1585l288 310h283l-321 -310h-250z" />
<glyph unicode="&#x1ff;" horiz-adv-x="1248" d="M98 547q0 264 141 416.5t385 152.5q147 0 259 -57l61 94l104 -61l-65 -101q167 -155 167 -444q0 -266 -140.5 -417.5t-385.5 -151.5q-146 0 -256 55l-60 -93l-103 65l62 96q-169 152 -169 446zM352 547q0 -142 51 -235l359 559q-59 37 -138 37q-130 0 -201 -95t-71 -266z M468 1275l249 347h277l-284 -347h-242zM488 221q58 -35 136 -35q130 0 200.5 94.5t70.5 266.5q0 141 -49 231z" />
<glyph unicode="&#x200;" d="M71 0l512 1443h290l513 -1443h-277l-122 369h-531l-124 -369h-261zM112 1895h254l273 -310h-230zM516 573h411l-196 595h-17zM540 1895h254l273 -310h-229z" />
<glyph unicode="&#x201;" horiz-adv-x="1179" d="M42 1622h241l227 -347h-212zM91 310q0 148 107.5 232t307.5 96l282 17v92q0 81 -53 124t-153 43q-86 0 -142 -29.5t-73 -84.5h-234q15 145 140.5 230.5t320.5 85.5q210 0 324.5 -97t114.5 -272v-747h-239v150h-17q-46 -79 -131.5 -123.5t-192.5 -44.5q-160 0 -261 90 t-101 238zM337 324q0 -68 52.5 -107.5t136.5 -39.5q112 0 187 64.5t75 159.5v87l-247 -16q-204 -13 -204 -148zM465 1622h241l227 -347h-212z" />
<glyph unicode="&#x202;" d="M71 0l512 1443h290l513 -1443h-277l-122 369h-531l-124 -369h-261zM341 1578q0 145 104.5 233.5t282.5 88.5t282.5 -88.5t104.5 -233.5h-188q-2 77 -55.5 122t-143.5 45t-143.5 -45t-55.5 -122h-188zM516 573h411l-196 595h-17z" />
<glyph unicode="&#x203;" horiz-adv-x="1179" d="M91 310q0 148 107.5 232t307.5 96l282 17v92q0 81 -53 124t-153 43q-86 0 -142 -29.5t-73 -84.5h-234q15 145 140.5 230.5t320.5 85.5q210 0 324.5 -97t114.5 -272v-747h-239v150h-17q-46 -79 -131.5 -123.5t-192.5 -44.5q-160 0 -261 90t-101 238zM207 1243 q0 152 104.5 247t282.5 95t282.5 -95t104.5 -247h-188q-2 84 -54.5 135t-144.5 51t-144.5 -51t-54.5 -135h-188zM337 324q0 -68 52.5 -107.5t136.5 -39.5q112 0 187 64.5t75 159.5v87l-247 -16q-204 -13 -204 -148z" />
<glyph unicode="&#x204;" horiz-adv-x="1254" d="M29 1895h254l273 -310h-230zM178 0v1443h934v-223h-676v-383h639v-210h-639v-404h676v-223h-934zM457 1895h254l273 -310h-229z" />
<glyph unicode="&#x205;" horiz-adv-x="1208" d="M60 1622h241l227 -347h-212zM98 543q0 264 138 418.5t376 154.5q234 0 366.5 -146.5t132.5 -405.5v-80h-764v-13q5 -137 78.5 -216.5t195.5 -79.5q188 0 244 126h235q-35 -150 -164.5 -236.5t-321.5 -86.5q-241 0 -378.5 150.5t-137.5 414.5zM348 653h515q-4 122 -72 194 t-180 72q-111 0 -183 -73t-80 -193zM483 1622h241l227 -347h-212z" />
<glyph unicode="&#x206;" horiz-adv-x="1254" d="M178 0v1443h934v-223h-676v-383h639v-210h-639v-404h676v-223h-934zM258 1578q0 145 104.5 233.5t282.5 88.5t282.5 -88.5t104.5 -233.5h-188q-2 77 -55.5 122t-143.5 45t-143.5 -45t-55.5 -122h-188z" />
<glyph unicode="&#x207;" horiz-adv-x="1208" d="M98 543q0 264 138 418.5t376 154.5q234 0 366.5 -146.5t132.5 -405.5v-80h-764v-13q5 -137 78.5 -216.5t195.5 -79.5q188 0 244 126h235q-35 -150 -164.5 -236.5t-321.5 -86.5q-241 0 -378.5 150.5t-137.5 414.5zM225 1243q0 152 104.5 247t282.5 95t282.5 -95 t104.5 -247h-188q-2 84 -54.5 135t-144.5 51t-144.5 -51t-54.5 -135h-188zM348 653h515q-4 122 -72 194t-180 72q-111 0 -183 -73t-80 -193z" />
<glyph unicode="&#x208;" horiz-adv-x="614" d="M-309 1895h254l273 -310h-230zM119 1895h254l273 -310h-229zM178 0v1443h258v-1443h-258z" />
<glyph unicode="&#x209;" horiz-adv-x="557" d="M-274 1622h241l227 -347h-212zM149 1622h241l227 -347h-212zM155 0v1094h247v-1094h-247z" />
<glyph unicode="&#x20a;" horiz-adv-x="614" d="M-80 1578q0 145 104.5 233.5t282.5 88.5t282.5 -88.5t104.5 -233.5h-188q-2 77 -55.5 122t-143.5 45t-143.5 -45t-55.5 -122h-188zM178 0v1443h258v-1443h-258z" />
<glyph unicode="&#x20b;" horiz-adv-x="557" d="M-109 1243q0 152 104.5 247t282.5 95t282.5 -95t104.5 -247h-188q-2 84 -54.5 135t-144.5 51t-144.5 -51t-54.5 -135h-188zM155 0v1094h247v-1094h-247z" />
<glyph unicode="&#x20c;" horiz-adv-x="1599" d="M117 722q0 349 184.5 553t499.5 204q314 0 497.5 -204t183.5 -553t-183 -553.5t-498 -204.5q-317 0 -500.5 204t-183.5 554zM185 1895h254l273 -310h-230zM381 722q0 -243 112.5 -386t307.5 -143q192 0 304.5 143.5t112.5 385.5t-112.5 385t-304.5 143 q-193 0 -306.5 -143t-113.5 -385zM613 1895h254l273 -310h-229z" />
<glyph unicode="&#x20d;" horiz-adv-x="1248" d="M72 1622h241l227 -347h-212zM98 547q0 264 141 416.5t385 152.5q245 0 385.5 -152t140.5 -417q0 -266 -140.5 -417.5t-385.5 -151.5q-246 0 -386 151.5t-140 417.5zM352 547q0 -172 71 -266.5t201 -94.5t200.5 94.5t70.5 266.5q0 171 -71 266t-200 95q-130 0 -201 -95 t-71 -266zM495 1622h241l227 -347h-212z" />
<glyph unicode="&#x20e;" horiz-adv-x="1599" d="M117 722q0 349 184.5 553t499.5 204q314 0 497.5 -204t183.5 -553t-183 -553.5t-498 -204.5q-317 0 -500.5 204t-183.5 554zM381 722q0 -243 112.5 -386t307.5 -143q192 0 304.5 143.5t112.5 385.5t-112.5 385t-304.5 143q-193 0 -306.5 -143t-113.5 -385zM414 1578 q0 145 104.5 233.5t282.5 88.5t282.5 -88.5t104.5 -233.5h-188q-2 77 -55.5 122t-143.5 45t-143.5 -45t-55.5 -122h-188z" />
<glyph unicode="&#x20f;" horiz-adv-x="1248" d="M98 547q0 264 141 416.5t385 152.5q245 0 385.5 -152t140.5 -417q0 -266 -140.5 -417.5t-385.5 -151.5q-246 0 -386 151.5t-140 417.5zM237 1243q0 152 104.5 247t282.5 95t282.5 -95t104.5 -247h-188q-2 84 -54.5 135t-144.5 51t-144.5 -51t-54.5 -135h-188zM352 547 q0 -172 71 -266.5t201 -94.5t200.5 94.5t70.5 266.5q0 171 -71 266t-200 95q-130 0 -201 -95t-71 -266z" />
<glyph unicode="&#x210;" horiz-adv-x="1391" d="M20 1895h254l273 -310h-230zM178 0v1443h586q227 0 360 -121.5t133 -329.5q0 -144 -72 -254.5t-200 -156.5l315 -581h-295l-283 541h-286v-541h-258zM436 746h298q123 0 190.5 63t67.5 178q0 113 -70.5 177.5t-193.5 64.5h-292v-483zM448 1895h254l273 -310h-229z" />
<glyph unicode="&#x211;" horiz-adv-x="851" d="M-129 1622h241l227 -347h-212zM152 0v1094h239v-170h17q23 82 103.5 135t185.5 53q67 0 103 -11v-230q-38 14 -127 14q-121 0 -197 -69.5t-76 -183.5v-632h-248zM294 1622h241l227 -347h-212z" />
<glyph unicode="&#x212;" horiz-adv-x="1391" d="M178 0v1443h586q227 0 360 -121.5t133 -329.5q0 -144 -72 -254.5t-200 -156.5l315 -581h-295l-283 541h-286v-541h-258zM249 1578q0 145 104.5 233.5t282.5 88.5t282.5 -88.5t104.5 -233.5h-188q-2 77 -55.5 122t-143.5 45t-143.5 -45t-55.5 -122h-188zM436 746h298 q123 0 190.5 63t67.5 178q0 113 -70.5 177.5t-193.5 64.5h-292v-483z" />
<glyph unicode="&#x213;" horiz-adv-x="851" d="M36 1243q0 152 104.5 247t282.5 95t282.5 -95t104.5 -247h-188q-2 84 -54.5 135t-144.5 51t-144.5 -51t-54.5 -135h-188zM152 0v1094h239v-170h17q23 82 103.5 135t185.5 53q67 0 103 -11v-230q-38 14 -127 14q-121 0 -197 -69.5t-76 -183.5v-632h-248z" />
<glyph unicode="&#x214;" horiz-adv-x="1550" d="M159 1895h254l273 -310h-230zM182 497v946h257v-922q0 -149 89 -237.5t247 -88.5t246.5 88.5t88.5 237.5v922h258v-946q0 -239 -161 -386t-432 -147t-432 147t-161 386zM587 1895h254l273 -310h-229z" />
<glyph unicode="&#x215;" horiz-adv-x="1256" d="M71 1622h241l227 -347h-212zM142 383v711h248v-649q0 -126 53 -187.5t164 -61.5q120 0 184.5 69t64.5 192v637h248v-1094h-239v174h-17q-83 -196 -327 -196q-179 0 -279 106.5t-100 298.5zM494 1622h241l227 -347h-212z" />
<glyph unicode="&#x216;" horiz-adv-x="1550" d="M182 497v946h257v-922q0 -149 89 -237.5t247 -88.5t246.5 88.5t88.5 237.5v922h258v-946q0 -239 -161 -386t-432 -147t-432 147t-161 386zM388 1578q0 145 104.5 233.5t282.5 88.5t282.5 -88.5t104.5 -233.5h-188q-2 77 -55.5 122t-143.5 45t-143.5 -45t-55.5 -122h-188z " />
<glyph unicode="&#x217;" horiz-adv-x="1256" d="M142 383v711h248v-649q0 -126 53 -187.5t164 -61.5q120 0 184.5 69t64.5 192v637h248v-1094h-239v174h-17q-83 -196 -327 -196q-179 0 -279 106.5t-100 298.5zM236 1243q0 152 104.5 247t282.5 95t282.5 -95t104.5 -247h-188q-2 84 -54.5 135t-144.5 51t-144.5 -51 t-54.5 -135h-188z" />
<glyph unicode="&#x218;" horiz-adv-x="1354" d="M112 392h252q12 -97 101 -154.5t226 -57.5q128 0 210.5 58.5t82.5 149.5q0 78 -62.5 127t-201.5 81l-187 43q-196 44 -290.5 143.5t-94.5 260.5q0 197 147.5 316.5t389.5 119.5q227 0 376 -118t158 -304h-247q-13 95 -91 151t-197 56q-125 0 -200.5 -55.5t-75.5 -147.5 q0 -73 59 -118.5t193 -76.5l166 -38q219 -49 317.5 -146t98.5 -262q0 -211 -152.5 -333.5t-414.5 -122.5q-248 0 -400.5 116t-162.5 312zM447 -512l121 364h253l-149 -364h-225z" />
<glyph unicode="&#x219;" horiz-adv-x="1128" d="M99 295h245q18 -62 75.5 -95.5t149.5 -33.5q94 0 153 37.5t59 98.5q0 91 -151 124l-194 45q-158 36 -233.5 111.5t-75.5 198.5q0 148 122 241.5t316 93.5q195 0 311.5 -82.5t129.5 -231.5h-233q-14 59 -67.5 92.5t-139.5 33.5t-142 -37t-56 -96q0 -46 39.5 -76t122.5 -49 l193 -44q158 -36 232 -107t74 -191q0 -157 -130 -253.5t-336 -96.5q-205 0 -327.5 84t-136.5 233zM335 -512l121 364h253l-149 -364h-225z" />
<glyph unicode="&#x21a;" horiz-adv-x="1332" d="M93 1220v223h1147v-223h-445v-1220h-258v1220h-444zM436 -512l121 364h253l-149 -364h-225z" />
<glyph unicode="&#x21b;" horiz-adv-x="808" d="M58 889v198h173v275h247v-275h234v-198h-234v-537q0 -81 36 -118.5t114 -37.5q34 0 84 5v-194q-62 -12 -130 -12q-188 0 -269.5 69t-81.5 228v597h-173zM231 -512l121 364h253l-149 -364h-225z" />
<glyph unicode="&#x21e;" horiz-adv-x="1573" d="M178 0v1443h258v-597h702v597h257v-1443h-257v623h-702v-623h-258zM388 1895h235l155 -174h18l155 174h235l-288 -310h-222z" />
<glyph unicode="&#x21f;" horiz-adv-x="1274" d="M-115 1969h235l155 -174h18l155 174h235l-288 -310h-222zM162 0v1517h244v-600h18q39 93 125 145t207 52q177 0 276.5 -107t99.5 -301v-706h-248v647q0 124 -56 187.5t-164 63.5q-120 0 -187 -71.5t-67 -191.5v-635h-248z" />
<glyph unicode="&#x226;" d="M71 0l512 1443h290l513 -1443h-277l-122 369h-531l-124 -369h-261zM516 573h411l-196 595h-17zM584 1722q0 62 40.5 103.5t103.5 41.5q62 0 103 -41.5t41 -103.5q0 -61 -41 -102.5t-103 -41.5t-103 41.5t-41 102.5z" />
<glyph unicode="&#x227;" horiz-adv-x="1179" d="M91 310q0 148 107.5 232t307.5 96l282 17v92q0 81 -53 124t-153 43q-86 0 -142 -29.5t-73 -84.5h-234q15 145 140.5 230.5t320.5 85.5q210 0 324.5 -97t114.5 -272v-747h-239v150h-17q-46 -79 -131.5 -123.5t-192.5 -44.5q-160 0 -261 90t-101 238zM337 324 q0 -68 52.5 -107.5t136.5 -39.5q112 0 187 64.5t75 159.5v87l-247 -16q-204 -13 -204 -148zM445 1430q0 63 42.5 105.5t106.5 42.5t106.5 -43t42.5 -105q0 -63 -42.5 -106t-106.5 -43t-106.5 43t-42.5 106z" />
<glyph unicode="&#x228;" horiz-adv-x="1254" d="M178 0v1443h934v-223h-676v-383h639v-210h-639v-404h676v-223h-380l-47 -117q97 -3 150 -47.5t53 -124.5q0 -92 -68.5 -145.5t-190.5 -53.5q-84 0 -146 18v125q44 -14 118 -14q114 0 114 64q0 31 -32 45t-105 14h-59v104l55 132h-396z" />
<glyph unicode="&#x229;" horiz-adv-x="1208" d="M98 543q0 264 138 418.5t376 154.5q234 0 366.5 -146.5t132.5 -405.5v-80h-764v-13q5 -137 78.5 -216.5t195.5 -79.5q188 0 244 126h235q-32 -133 -138 -217t-267 -102l-40 -99q97 -3 150 -47.5t53 -124.5q0 -92 -68.5 -145.5t-190.5 -53.5q-84 0 -146 18v125 q44 -14 118 -14q114 0 114 64q0 31 -32 45t-105 14h-59v104l48 114q-207 24 -323 171.5t-116 389.5zM348 653h515q-4 122 -72 194t-180 72q-111 0 -183 -73t-80 -193z" />
<glyph unicode="&#x22a;" horiz-adv-x="1599" d="M117 722q0 349 184.5 553t499.5 204q314 0 497.5 -204t183.5 -553t-183 -553.5t-498 -204.5q-317 0 -500.5 204t-183.5 554zM381 722q0 -243 112.5 -386t307.5 -143q192 0 304.5 143.5t112.5 385.5t-112.5 385t-304.5 143q-193 0 -306.5 -143t-113.5 -385zM438 1716 q0 59 40 98.5t101 39.5q60 0 100 -39.5t40 -98.5t-40 -98.5t-100 -39.5q-61 0 -101 39.5t-40 98.5zM441 1973v154h720v-154h-720zM883 1716q0 59 40 98.5t100 39.5q61 0 101 -39.5t40 -98.5t-40 -98.5t-101 -39.5q-60 0 -100 39.5t-40 98.5z" />
<glyph unicode="&#x22b;" horiz-adv-x="1248" d="M98 547q0 264 141 416.5t385 152.5q245 0 385.5 -152t140.5 -417q0 -266 -140.5 -417.5t-385.5 -151.5q-246 0 -386 151.5t-140 417.5zM268 1657v164h712v-164h-712zM274 1377q0 57 39 96t97 39t96.5 -39t38.5 -96t-38.5 -95.5t-96.5 -38.5t-97 38.5t-39 95.5zM352 547 q0 -172 71 -266.5t201 -94.5t200.5 94.5t70.5 266.5q0 171 -71 266t-200 95q-130 0 -201 -95t-71 -266zM703 1377q0 57 38.5 96t96.5 39t97 -39t39 -96t-39 -95.5t-97 -38.5t-96.5 38.5t-38.5 95.5z" />
<glyph unicode="&#x22c;" horiz-adv-x="1599" d="M117 722q0 349 184.5 553t499.5 204q314 0 497.5 -204t183.5 -553t-183 -553.5t-498 -204.5q-317 0 -500.5 204t-183.5 554zM381 722q0 -243 112.5 -386t307.5 -143q192 0 304.5 143.5t112.5 385.5t-112.5 385t-304.5 143q-193 0 -306.5 -143t-113.5 -385zM413 1591 q0 123 66.5 195.5t172.5 72.5q45 0 81.5 -12.5t60 -30.5t44 -36.5t45 -31t51.5 -12.5q37 0 61 26.5t28 81.5h166q0 -119 -67 -192.5t-172 -73.5q-45 0 -81.5 12.5t-60 31t-44 36.5t-45 30.5t-51.5 12.5q-83 0 -89 -110h-166zM441 1967v160h720v-160h-720z" />
<glyph unicode="&#x22d;" horiz-adv-x="1248" d="M98 547q0 264 141 416.5t385 152.5q245 0 385.5 -152t140.5 -417q0 -266 -140.5 -417.5t-385.5 -151.5q-246 0 -386 151.5t-140 417.5zM222 1246q0 142 68 226t183 84q43 0 80 -15t63 -37t48 -44t45 -37t44 -15q91 0 92 145h170q0 -142 -67.5 -225.5t-182.5 -83.5 q-52 0 -97.5 23.5t-71.5 51t-56 51t-55 23.5q-91 0 -92 -147h-171zM268 1660v164h712v-164h-712zM352 547q0 -172 71 -266.5t201 -94.5t200.5 94.5t70.5 266.5q0 171 -71 266t-200 95q-130 0 -201 -95t-71 -266z" />
<glyph unicode="&#x22e;" horiz-adv-x="1599" d="M117 722q0 349 184.5 553t499.5 204q314 0 497.5 -204t183.5 -553t-183 -553.5t-498 -204.5q-317 0 -500.5 204t-183.5 554zM381 722q0 -243 112.5 -386t307.5 -143q192 0 304.5 143.5t112.5 385.5t-112.5 385t-304.5 143q-193 0 -306.5 -143t-113.5 -385zM657 1722 q0 62 40.5 103.5t103.5 41.5q62 0 103 -41.5t41 -103.5q0 -61 -41 -102.5t-103 -41.5t-103 41.5t-41 102.5z" />
<glyph unicode="&#x22f;" horiz-adv-x="1248" d="M98 547q0 264 141 416.5t385 152.5q245 0 385.5 -152t140.5 -417q0 -266 -140.5 -417.5t-385.5 -151.5q-246 0 -386 151.5t-140 417.5zM352 547q0 -172 71 -266.5t201 -94.5t200.5 94.5t70.5 266.5q0 171 -71 266t-200 95q-130 0 -201 -95t-71 -266zM475 1430 q0 63 42.5 105.5t106.5 42.5t106.5 -43t42.5 -105q0 -63 -42.5 -106t-106.5 -43t-106.5 43t-42.5 106z" />
<glyph unicode="&#x230;" horiz-adv-x="1599" d="M117 722q0 349 184.5 553t499.5 204q314 0 497.5 -204t183.5 -553t-183 -553.5t-498 -204.5q-317 0 -500.5 204t-183.5 554zM381 722q0 -243 112.5 -386t307.5 -143q192 0 304.5 143.5t112.5 385.5t-112.5 385t-304.5 143q-193 0 -306.5 -143t-113.5 -385zM441 1973v154 h720v-154h-720zM658 1714q0 59 41 98.5t102 39.5t102 -39.5t41 -98.5t-41 -98.5t-102 -39.5t-102 39.5t-41 98.5z" />
<glyph unicode="&#x2c6;" horiz-adv-x="1097" d="M142 1243l277 348h259l277 -348h-239l-159 215h-17l-159 -215h-239z" />
<glyph unicode="&#x2da;" horiz-adv-x="1097" d="M308 1479q0 101 69.5 168t171.5 67t171 -67t69 -168t-69 -168.5t-171 -67.5t-171.5 67.5t-69.5 168.5zM437 1478q0 -47 31.5 -78.5t80.5 -31.5q48 0 79.5 31.5t31.5 78.5q0 48 -31.5 79.5t-79.5 31.5q-49 0 -80.5 -31.5t-31.5 -79.5z" />
<glyph unicode="&#x2dc;" horiz-adv-x="1096" d="M151 1267q0 142 68 226t183 84q43 0 80 -15t63 -37t48 -44t45 -37t44 -15q91 0 92 145h170q0 -142 -67.5 -225.5t-182.5 -83.5q-52 0 -97.5 23.5t-71.5 51t-56 51t-55 23.5q-91 0 -92 -147h-171z" />
<glyph unicode="&#x1e00;" d="M71 0l512 1443h290l513 -1443h-277l-122 369h-531l-124 -369h-261zM480 -335q0 101 69.5 168t171.5 67t171 -67t69 -168t-69 -168.5t-171 -67.5t-171.5 67.5t-69.5 168.5zM516 573h411l-196 595h-17zM609 -336q0 -47 31.5 -78.5t80.5 -31.5q48 0 79.5 31.5t31.5 78.5 q0 48 -31.5 79.5t-79.5 31.5q-49 0 -80.5 -31.5t-31.5 -79.5z" />
<glyph unicode="&#x1e01;" horiz-adv-x="1179" d="M91 310q0 148 107.5 232t307.5 96l282 17v92q0 81 -53 124t-153 43q-86 0 -142 -29.5t-73 -84.5h-234q15 145 140.5 230.5t320.5 85.5q210 0 324.5 -97t114.5 -272v-747h-239v150h-17q-46 -79 -131.5 -123.5t-192.5 -44.5q-160 0 -261 90t-101 238zM334 -335 q0 101 69.5 168t171.5 67t171 -67t69 -168t-69 -168.5t-171 -67.5t-171.5 67.5t-69.5 168.5zM337 324q0 -68 52.5 -107.5t136.5 -39.5q112 0 187 64.5t75 159.5v87l-247 -16q-204 -13 -204 -148zM463 -336q0 -47 31.5 -78.5t80.5 -31.5q48 0 79.5 31.5t31.5 78.5 q0 48 -31.5 79.5t-79.5 31.5q-49 0 -80.5 -31.5t-31.5 -79.5z" />
<glyph unicode="&#x1e02;" horiz-adv-x="1393" d="M178 0v1443h603q205 0 322 -96.5t117 -263.5q0 -114 -74 -203t-183 -106v-18q146 -14 237 -109.5t91 -236.5q0 -190 -132.5 -300t-363.5 -110h-617zM436 205h300q143 0 217 57.5t74 167.5q0 108 -76.5 164t-224.5 56h-290v-445zM436 836h249q137 0 208.5 51.5t71.5 149.5 q0 95 -65 148t-182 53h-282v-402zM484 1722q0 62 40.5 103.5t103.5 41.5q62 0 103 -41.5t41 -103.5q0 -61 -41 -102.5t-103 -41.5t-103 41.5t-41 102.5z" />
<glyph unicode="&#x1e03;" horiz-adv-x="1306" d="M142 1796q0 62 40.5 103.5t103.5 41.5q62 0 103 -41.5t41 -103.5q0 -61 -41 -102.5t-103 -41.5t-103 41.5t-41 102.5zM162 0v1517h248v-597h17q43 89 132 140.5t201 51.5q208 0 328.5 -151.5t120.5 -413.5q0 -261 -121 -413t-328 -152q-115 0 -205 50.5t-137 140.5h-17 v-173h-239zM406 547q0 -164 74.5 -259t201.5 -95t199.5 94.5t72.5 259.5t-72.5 259.5t-199.5 94.5t-201.5 -95.5t-74.5 -258.5z" />
<glyph unicode="&#x1e04;" horiz-adv-x="1393" d="M178 0v1443h603q205 0 322 -96.5t117 -263.5q0 -114 -74 -203t-183 -106v-18q146 -14 237 -109.5t91 -236.5q0 -190 -132.5 -300t-363.5 -110h-617zM436 205h300q143 0 217 57.5t74 167.5q0 108 -76.5 164t-224.5 56h-290v-445zM436 836h249q137 0 208.5 51.5t71.5 149.5 q0 95 -65 148t-182 53h-282v-402zM485 -278q0 62 40.5 103.5t103.5 41.5q62 0 103 -41.5t41 -103.5q0 -61 -41 -102.5t-103 -41.5t-103 41.5t-41 102.5z" />
<glyph unicode="&#x1e05;" horiz-adv-x="1306" d="M162 0v1517h248v-597h17q43 89 132 140.5t201 51.5q208 0 328.5 -151.5t120.5 -413.5q0 -261 -121 -413t-328 -152q-115 0 -205 50.5t-137 140.5h-17v-173h-239zM406 547q0 -164 74.5 -259t201.5 -95t199.5 94.5t72.5 259.5t-72.5 259.5t-199.5 94.5t-201.5 -95.5 t-74.5 -258.5zM513 -278q0 62 40.5 103.5t103.5 41.5q62 0 103 -41.5t41 -103.5q0 -61 -41 -102.5t-103 -41.5t-103 41.5t-41 102.5z" />
<glyph unicode="&#x1e06;" horiz-adv-x="1393" d="M178 0v1443h603q205 0 322 -96.5t117 -263.5q0 -114 -74 -203t-183 -106v-18q146 -14 237 -109.5t91 -236.5q0 -190 -132.5 -300t-363.5 -110h-617zM269 -218h720v-164h-720v164zM436 205h300q143 0 217 57.5t74 167.5q0 108 -76.5 164t-224.5 56h-290v-445zM436 836h249 q137 0 208.5 51.5t71.5 149.5q0 95 -65 148t-182 53h-282v-402z" />
<glyph unicode="&#x1e07;" horiz-adv-x="1306" d="M162 0v1517h248v-597h17q43 89 132 140.5t201 51.5q208 0 328.5 -151.5t120.5 -413.5q0 -261 -121 -413t-328 -152q-115 0 -205 50.5t-137 140.5h-17v-173h-239zM297 -218h720v-164h-720v164zM406 547q0 -164 74.5 -259t201.5 -95t199.5 94.5t72.5 259.5t-72.5 259.5 t-199.5 94.5t-201.5 -95.5t-74.5 -258.5z" />
<glyph unicode="&#x1e08;" horiz-adv-x="1499" d="M117 721q0 352 177.5 555t484.5 203q246 0 417 -144.5t194 -370.5h-254q-27 130 -124 207.5t-233 77.5q-184 0 -291 -141.5t-107 -385.5t107 -386t292 -142q137 0 234 71.5t123 192.5h254q-23 -204 -169.5 -337.5t-368.5 -153.5l-34 -84q97 -3 150 -47.5t53 -124.5 q0 -92 -68.5 -145.5t-190.5 -53.5q-84 0 -146 18v125q44 -14 118 -14q114 0 114 64q0 31 -32 45t-105 14h-59v104l42 100q-270 29 -424 228.5t-154 524.5zM651 1587l288 310h283l-321 -310h-250z" />
<glyph unicode="&#x1e09;" horiz-adv-x="1182" d="M98 550q0 267 138 416.5t384 149.5q206 0 331.5 -106.5t145.5 -283.5h-236q-18 83 -80 132.5t-161 49.5q-128 0 -199.5 -94t-71.5 -264q0 -172 72 -268t199 -96q97 0 159.5 45t81.5 130h236q-18 -156 -122 -257t-274 -121l-40 -100q97 -3 150 -47.5t53 -124.5 q0 -92 -68.5 -145.5t-190.5 -53.5q-84 0 -146 18v125q44 -14 118 -14q114 0 114 64q0 31 -32 45t-105 14h-59v104l48 114q-211 24 -328 172.5t-117 395.5zM479 1275l249 347h277l-284 -347h-242z" />
<glyph unicode="&#x1e0a;" horiz-adv-x="1514" d="M178 0v1443h541q322 0 500.5 -187.5t178.5 -527.5q0 -347 -177.5 -537.5t-501.5 -190.5h-541zM436 223h249q216 0 333 130t117 371q0 236 -118.5 366t-331.5 130h-249v-997zM479 1722q0 62 40.5 103.5t103.5 41.5q62 0 103 -41.5t41 -103.5q0 -61 -41 -102.5t-103 -41.5 t-103 41.5t-41 102.5z" />
<glyph unicode="&#x1e0b;" horiz-adv-x="1306" d="M98 548q0 259 121.5 411.5t328.5 152.5q112 0 200 -51t132 -141h17v597h248v-1517h-240v173h-17q-47 -90 -136.5 -140.5t-203.5 -50.5q-208 0 -329 152.5t-121 413.5zM352 547q0 -166 72.5 -260t200.5 -94t201.5 94.5t73.5 259.5q0 164 -74 259t-201 95t-200 -94.5 t-73 -259.5zM877 1796q0 62 40.5 103.5t103.5 41.5q62 0 103 -41.5t41 -103.5q0 -61 -41 -102.5t-103 -41.5t-103 41.5t-41 102.5z" />
<glyph unicode="&#x1e0c;" horiz-adv-x="1514" d="M178 0v1443h541q322 0 500.5 -187.5t178.5 -527.5q0 -347 -177.5 -537.5t-501.5 -190.5h-541zM436 223h249q216 0 333 130t117 371q0 236 -118.5 366t-331.5 130h-249v-997zM479 -278q0 62 40.5 103.5t103.5 41.5q62 0 103 -41.5t41 -103.5q0 -61 -41 -102.5t-103 -41.5 t-103 41.5t-41 102.5z" />
<glyph unicode="&#x1e0d;" horiz-adv-x="1306" d="M98 548q0 259 121.5 411.5t328.5 152.5q112 0 200 -51t132 -141h17v597h248v-1517h-240v173h-17q-47 -90 -136.5 -140.5t-203.5 -50.5q-208 0 -329 152.5t-121 413.5zM352 547q0 -166 72.5 -260t200.5 -94t201.5 94.5t73.5 259.5q0 164 -74 259t-201 95t-200 -94.5 t-73 -259.5zM544 -278q0 62 40.5 103.5t103.5 41.5q62 0 103 -41.5t41 -103.5q0 -61 -41 -102.5t-103 -41.5t-103 41.5t-41 102.5z" />
<glyph unicode="&#x1e0e;" horiz-adv-x="1514" d="M178 0v1443h541q322 0 500.5 -187.5t178.5 -527.5q0 -347 -177.5 -537.5t-501.5 -190.5h-541zM263 -218h720v-164h-720v164zM436 223h249q216 0 333 130t117 371q0 236 -118.5 366t-331.5 130h-249v-997z" />
<glyph unicode="&#x1e0f;" horiz-adv-x="1306" d="M98 548q0 259 121.5 411.5t328.5 152.5q112 0 200 -51t132 -141h17v597h248v-1517h-240v173h-17q-47 -90 -136.5 -140.5t-203.5 -50.5q-208 0 -329 152.5t-121 413.5zM328 -218h720v-164h-720v164zM352 547q0 -166 72.5 -260t200.5 -94t201.5 94.5t73.5 259.5 q0 164 -74 259t-201 95t-200 -94.5t-73 -259.5z" />
<glyph unicode="&#x1e10;" horiz-adv-x="1514" d="M178 0v1443h541q322 0 500.5 -187.5t178.5 -527.5q0 -347 -177.5 -537.5t-501.5 -190.5h-541zM395 -512l121 364h253l-149 -364h-225zM436 223h249q216 0 333 130t117 371q0 236 -118.5 366t-331.5 130h-249v-997z" />
<glyph unicode="&#x1e11;" horiz-adv-x="1306" d="M98 548q0 259 121.5 411.5t328.5 152.5q112 0 200 -51t132 -141h17v597h248v-1517h-240v173h-17q-47 -90 -136.5 -140.5t-203.5 -50.5q-208 0 -329 152.5t-121 413.5zM352 547q0 -166 72.5 -260t200.5 -94t201.5 94.5t73.5 259.5q0 164 -74 259t-201 95t-200 -94.5 t-73 -259.5zM460 -512l121 364h253l-149 -364h-225z" />
<glyph unicode="&#x1e12;" horiz-adv-x="1514" d="M178 0v1443h541q322 0 500.5 -187.5t178.5 -527.5q0 -347 -177.5 -537.5t-501.5 -190.5h-541zM217 -457l290 321h232l290 -321h-242l-155 183h-18l-155 -183h-242zM436 223h249q216 0 333 130t117 371q0 236 -118.5 366t-331.5 130h-249v-997z" />
<glyph unicode="&#x1e13;" horiz-adv-x="1306" d="M98 548q0 259 121.5 411.5t328.5 152.5q112 0 200 -51t132 -141h17v597h248v-1517h-240v173h-17q-47 -90 -136.5 -140.5t-203.5 -50.5q-208 0 -329 152.5t-121 413.5zM282 -457l290 321h232l290 -321h-242l-155 183h-18l-155 -183h-242zM352 547q0 -166 72.5 -260 t200.5 -94t201.5 94.5t73.5 259.5q0 164 -74 259t-201 95t-200 -94.5t-73 -259.5z" />
<glyph unicode="&#x1e14;" horiz-adv-x="1254" d="M178 0v1443h934v-223h-676v-383h639v-210h-639v-404h676v-223h-934zM285 1614v161h720v-161h-720zM320 2149h260l181 -249h-232z" />
<glyph unicode="&#x1e15;" horiz-adv-x="1208" d="M98 543q0 264 138 418.5t376 154.5q234 0 366.5 -146.5t132.5 -405.5v-80h-764v-13q5 -137 78.5 -216.5t195.5 -79.5q188 0 244 126h235q-35 -150 -164.5 -236.5t-321.5 -86.5q-241 0 -378.5 150.5t-137.5 414.5zM256 1290v164h712v-164h-712zM273 1908h264l207 -301 h-229zM348 653h515q-4 122 -72 194t-180 72q-111 0 -183 -73t-80 -193z" />
<glyph unicode="&#x1e16;" horiz-adv-x="1254" d="M178 0v1443h934v-223h-676v-383h639v-210h-639v-404h676v-223h-934zM285 1613v161h720v-161h-720zM529 1899l181 249h260l-209 -249h-232z" />
<glyph unicode="&#x1e17;" horiz-adv-x="1208" d="M98 543q0 264 138 418.5t376 154.5q234 0 366.5 -146.5t132.5 -405.5v-80h-764v-13q5 -137 78.5 -216.5t195.5 -79.5q188 0 244 126h235q-35 -150 -164.5 -236.5t-321.5 -86.5q-241 0 -378.5 150.5t-137.5 414.5zM256 1290v164h712v-164h-712zM348 653h515 q-4 122 -72 194t-180 72q-111 0 -183 -73t-80 -193zM480 1607l207 301h264l-242 -301h-229z" />
<glyph unicode="&#x1e18;" horiz-adv-x="1254" d="M178 0v1443h934v-223h-676v-383h639v-210h-639v-404h676v-223h-934zM239 -457l290 321h232l290 -321h-242l-155 183h-18l-155 -183h-242z" />
<glyph unicode="&#x1e19;" horiz-adv-x="1208" d="M98 543q0 264 138 418.5t376 154.5q234 0 366.5 -146.5t132.5 -405.5v-80h-764v-13q5 -137 78.5 -216.5t195.5 -79.5q188 0 244 126h235q-35 -150 -164.5 -236.5t-321.5 -86.5q-241 0 -378.5 150.5t-137.5 414.5zM209 -457l290 321h232l290 -321h-242l-155 183h-18 l-155 -183h-242zM348 653h515q-4 122 -72 194t-180 72q-111 0 -183 -73t-80 -193z" />
<glyph unicode="&#x1e1a;" horiz-adv-x="1254" d="M178 0v1443h934v-223h-676v-383h639v-210h-639v-404h676v-223h-934zM248 -428q0 142 68 226t183 84q43 0 80 -15t63 -37t48 -44t45 -37t44 -15q91 0 92 145h170q0 -142 -67.5 -225.5t-182.5 -83.5q-52 0 -97.5 23.5t-71.5 51t-56 51t-55 23.5q-91 0 -92 -147h-171z" />
<glyph unicode="&#x1e1b;" horiz-adv-x="1208" d="M98 543q0 264 138 418.5t376 154.5q234 0 366.5 -146.5t132.5 -405.5v-80h-764v-13q5 -137 78.5 -216.5t195.5 -79.5q188 0 244 126h235q-35 -150 -164.5 -236.5t-321.5 -86.5q-241 0 -378.5 150.5t-137.5 414.5zM218 -428q0 142 68 226t183 84q43 0 80 -15t63 -37 t48 -44t45 -37t44 -15q91 0 92 145h170q0 -142 -67.5 -225.5t-182.5 -83.5q-52 0 -97.5 23.5t-71.5 51t-56 51t-55 23.5q-91 0 -92 -147h-171zM348 653h515q-4 122 -72 194t-180 72q-111 0 -183 -73t-80 -193z" />
<glyph unicode="&#x1e1c;" horiz-adv-x="1254" d="M178 0v1443h934v-223h-676v-383h639v-210h-639v-404h676v-223h-380l-47 -117q97 -3 150 -47.5t53 -124.5q0 -92 -68.5 -145.5t-190.5 -53.5q-84 0 -146 18v125q44 -14 118 -14q114 0 114 64q0 31 -32 45t-105 14h-59v104l55 132h-396zM258 1900h188q2 -77 55.5 -122 t143.5 -45t143.5 45t55.5 122h188q0 -145 -104.5 -233.5t-282.5 -88.5t-282.5 88.5t-104.5 233.5z" />
<glyph unicode="&#x1e1d;" horiz-adv-x="1208" d="M98 543q0 264 138 418.5t376 154.5q234 0 366.5 -146.5t132.5 -405.5v-80h-764v-13q5 -137 78.5 -216.5t195.5 -79.5q188 0 244 126h235q-32 -133 -138 -217t-267 -102l-40 -99q97 -3 150 -47.5t53 -124.5q0 -92 -68.5 -145.5t-190.5 -53.5q-84 0 -146 18v125 q44 -14 118 -14q114 0 114 64q0 31 -32 45t-105 14h-59v104l48 114q-207 24 -323 171.5t-116 389.5zM224 1585h188q2 -84 54.5 -135t144.5 -51t144.5 51t54.5 135h188q0 -152 -104.5 -247t-282.5 -95t-282.5 95t-104.5 247zM348 653h515q-4 122 -72 194t-180 72 q-111 0 -183 -73t-80 -193z" />
<glyph unicode="&#x1e1e;" horiz-adv-x="1205" d="M178 0v1443h920v-223h-662v-420h605v-215h-605v-585h-258zM494 1722q0 62 40.5 103.5t103.5 41.5q62 0 103 -41.5t41 -103.5q0 -61 -41 -102.5t-103 -41.5t-103 41.5t-41 102.5z" />
<glyph unicode="&#x1e1f;" horiz-adv-x="791" d="M53 889v198h179v115q0 164 86.5 245t267.5 81q75 0 138 -11v-182q-33 5 -85 5q-86 0 -124.5 -37.5t-38.5 -116.5v-99h238v-198h-235v-889h-247v889h-179zM306 1772q0 62 40.5 103.5t103.5 41.5q62 0 103 -41.5t41 -103.5q0 -61 -41 -102.5t-103 -41.5t-103 41.5 t-41 102.5z" />
<glyph unicode="&#x1e20;" horiz-adv-x="1547" d="M117 722q0 346 183 551.5t491 205.5q250 0 419 -132t204 -353h-257q-39 123 -133.5 189t-232.5 66q-189 0 -299.5 -141t-110.5 -384q0 -246 112.5 -388t305.5 -142q165 0 268 92t106 241l1 30h-347v202h599v-181q0 -281 -171 -447.5t-460 -166.5q-314 0 -496 203.5 t-182 554.5zM431 1629v164h720v-164h-720z" />
<glyph unicode="&#x1e21;" horiz-adv-x="1295" d="M96 559q0 252 122 402.5t330 150.5q112 0 203 -52t136 -141h17v175h239v-1098q0 -190 -141 -301t-380 -111q-209 0 -339.5 85t-145.5 227h249q12 -57 75.5 -90t164.5 -33q127 0 198 57t71 160v207h-17q-47 -88 -133.5 -134.5t-200.5 -46.5q-206 0 -327 147.5t-121 395.5z M269 1305v164h712v-164h-712zM351 559q0 -158 71 -249.5t200 -91.5t203 92t74 249t-74 249.5t-203 92.5q-128 0 -199.5 -92t-71.5 -250z" />
<glyph unicode="&#x1e22;" horiz-adv-x="1573" d="M178 0v1443h258v-597h702v597h257v-1443h-257v623h-702v-623h-258zM643 1722q0 62 40.5 103.5t103.5 41.5q62 0 103 -41.5t41 -103.5q0 -61 -41 -102.5t-103 -41.5t-103 41.5t-41 102.5z" />
<glyph unicode="&#x1e23;" horiz-adv-x="1274" d="M140 1796q0 62 40.5 103.5t103.5 41.5q62 0 103 -41.5t41 -103.5q0 -61 -41 -102.5t-103 -41.5t-103 41.5t-41 102.5zM162 0v1517h244v-600h18q39 93 125 145t207 52q177 0 276.5 -107t99.5 -301v-706h-248v647q0 124 -56 187.5t-164 63.5q-120 0 -187 -71.5t-67 -191.5 v-635h-248z" />
<glyph unicode="&#x1e24;" horiz-adv-x="1573" d="M178 0v1443h258v-597h702v597h257v-1443h-257v623h-702v-623h-258zM643 -278q0 62 40.5 103.5t103.5 41.5q62 0 103 -41.5t41 -103.5q0 -61 -41 -102.5t-103 -41.5t-103 41.5t-41 102.5z" />
<glyph unicode="&#x1e25;" horiz-adv-x="1274" d="M162 0v1517h244v-600h18q39 93 125 145t207 52q177 0 276.5 -107t99.5 -301v-706h-248v647q0 124 -56 187.5t-164 63.5q-120 0 -187 -71.5t-67 -191.5v-635h-248zM508 -278q0 62 40.5 103.5t103.5 41.5q62 0 103 -41.5t41 -103.5q0 -61 -41 -102.5t-103 -41.5t-103 41.5 t-41 102.5z" />
<glyph unicode="&#x1e26;" horiz-adv-x="1573" d="M178 0v1443h258v-597h702v597h257v-1443h-257v623h-702v-623h-258zM421 1718q0 60 41 100.5t102 40.5t102 -40.5t41 -100.5t-41 -100.5t-102 -40.5t-102 40.5t-41 100.5zM866 1718q0 60 41 100.5t102 40.5t102 -40.5t41 -100.5t-41 -100.5t-102 -40.5t-102 40.5 t-41 100.5z" />
<glyph unicode="&#x1e27;" horiz-adv-x="1274" d="M-82 1792q0 60 41 100.5t102 40.5t102 -40.5t41 -100.5t-41 -100.5t-102 -40.5t-102 40.5t-41 100.5zM162 0v1517h244v-600h18q39 93 125 145t207 52q177 0 276.5 -107t99.5 -301v-706h-248v647q0 124 -56 187.5t-164 63.5q-120 0 -187 -71.5t-67 -191.5v-635h-248z M363 1792q0 60 41 100.5t102 40.5t102 -40.5t41 -100.5t-41 -100.5t-102 -40.5t-102 40.5t-41 100.5z" />
<glyph unicode="&#x1e28;" horiz-adv-x="1573" d="M178 0v1443h258v-597h702v597h257v-1443h-257v623h-702v-623h-1l-47 -117q97 -3 150 -47.5t53 -124.5q0 -92 -68.5 -145.5t-190.5 -53.5q-84 0 -146 18v125q44 -14 118 -14q114 0 114 64q0 31 -32 45t-105 14h-59v104l55 132h-99z" />
<glyph unicode="&#x1e29;" horiz-adv-x="1274" d="M160 -345q44 -14 118 -14q114 0 114 64q0 31 -32 45t-105 14h-59v104l55 132h-89v1517h244v-600h18q39 93 125 145t207 52q177 0 276.5 -107t99.5 -301v-706h-248v647q0 124 -56 187.5t-164 63.5q-120 0 -187 -71.5t-67 -191.5v-635h-1l-47 -117q97 -3 150 -47.5 t53 -124.5q0 -92 -68.5 -145.5t-190.5 -53.5q-84 0 -146 18v125z" />
<glyph unicode="&#x1e2a;" horiz-adv-x="1573" d="M178 0v1443h258v-597h702v597h257v-1443h-257v623h-702v-623h-258zM400 -107h188q2 -77 55.5 -122t143.5 -45t143.5 45t55.5 122h188q0 -145 -104.5 -233.5t-282.5 -88.5t-282.5 88.5t-104.5 233.5z" />
<glyph unicode="&#x1e2b;" horiz-adv-x="1274" d="M162 0v1517h244v-600h18q39 93 125 145t207 52q177 0 276.5 -107t99.5 -301v-706h-248v647q0 124 -56 187.5t-164 63.5q-120 0 -187 -71.5t-67 -191.5v-635h-248zM265 -107h188q2 -77 55.5 -122t143.5 -45t143.5 45t55.5 122h188q0 -145 -104.5 -233.5t-282.5 -88.5 t-282.5 88.5t-104.5 233.5z" />
<glyph unicode="&#x1e2c;" horiz-adv-x="614" d="M-90 -428q0 142 68 226t183 84q43 0 80 -15t63 -37t48 -44t45 -37t44 -15q91 0 92 145h170q0 -142 -67.5 -225.5t-182.5 -83.5q-52 0 -97.5 23.5t-71.5 51t-56 51t-55 23.5q-91 0 -92 -147h-171zM178 0v1443h258v-1443h-258z" />
<glyph unicode="&#x1e2d;" horiz-adv-x="557" d="M-119 -428q0 142 68 226t183 84q43 0 80 -15t63 -37t48 -44t45 -37t44 -15q91 0 92 145h170q0 -142 -67.5 -225.5t-182.5 -83.5q-52 0 -97.5 23.5t-71.5 51t-56 51t-55 23.5q-91 0 -92 -147h-171zM125 1409q0 60 43 98.5t110 38.5q68 0 110.5 -38.5t42.5 -98.5 t-42.5 -98.5t-110.5 -38.5q-67 0 -110 38.5t-43 98.5zM155 0v1094h247v-1094h-247z" />
<glyph unicode="&#x1e2e;" horiz-adv-x="614" d="M-58 1718q0 61 40.5 101t102.5 40q61 0 101.5 -40t40.5 -101q0 -60 -40.5 -100t-101.5 -40t-102 40t-41 100zM178 0v1443h258v-1443h-258zM199 1914l189 235h268l-241 -235h-216zM387 1718q0 61 40.5 101t101.5 40q62 0 102.5 -40t40.5 -101q0 -60 -41 -100t-102 -40 t-101.5 40t-40.5 100z" />
<glyph unicode="&#x1e2f;" horiz-adv-x="557" d="M-88 1385q0 60 41 100.5t102 40.5t102 -40.5t41 -100.5t-41 -100.5t-102 -40.5t-102 40.5t-41 100.5zM155 0v1094h247v-1094h-247zM161 1617l200 311h250l-236 -311h-214zM357 1385q0 60 41 100.5t102 40.5t102 -40.5t41 -100.5t-41 -100.5t-102 -40.5t-102 40.5 t-41 100.5z" />
<glyph unicode="&#x1e30;" horiz-adv-x="1415" d="M178 0v1443h258v-664h17l569 664h296l-545 -629l588 -814h-315l-456 637l-154 -177v-460h-258zM556 1585l288 310h283l-321 -310h-250z" />
<glyph unicode="&#x1e31;" horiz-adv-x="1188" d="M158 1659l288 310h283l-321 -310h-250zM162 0v1517h248v-869h17l404 446h288l-436 -469l466 -625h-300l-351 469l-88 -88v-381h-248z" />
<glyph unicode="&#x1e32;" horiz-adv-x="1415" d="M178 0v1443h258v-664h17l569 664h296l-545 -629l588 -814h-315l-456 637l-154 -177v-460h-258zM540 -278q0 62 40.5 103.5t103.5 41.5q62 0 103 -41.5t41 -103.5q0 -61 -41 -102.5t-103 -41.5t-103 41.5t-41 102.5z" />
<glyph unicode="&#x1e33;" horiz-adv-x="1188" d="M162 0v1517h248v-869h17l404 446h288l-436 -469l466 -625h-300l-351 469l-88 -88v-381h-248zM489 -278q0 62 40.5 103.5t103.5 41.5q62 0 103 -41.5t41 -103.5q0 -61 -41 -102.5t-103 -41.5t-103 41.5t-41 102.5z" />
<glyph unicode="&#x1e34;" horiz-adv-x="1415" d="M178 0v1443h258v-664h17l569 664h296l-545 -629l588 -814h-315l-456 637l-154 -177v-460h-258zM324 -218h720v-164h-720v164z" />
<glyph unicode="&#x1e35;" horiz-adv-x="1188" d="M162 0v1517h248v-869h17l404 446h288l-436 -469l466 -625h-300l-351 469l-88 -88v-381h-248zM273 -218h720v-164h-720v164z" />
<glyph unicode="&#x1e36;" horiz-adv-x="1198" d="M178 0v1443h258v-1217h662v-226h-920zM491 -278q0 62 40.5 103.5t103.5 41.5q62 0 103 -41.5t41 -103.5q0 -61 -41 -102.5t-103 -41.5t-103 41.5t-41 102.5z" />
<glyph unicode="&#x1e37;" horiz-adv-x="571" d="M142 -278q0 62 40.5 103.5t103.5 41.5q62 0 103 -41.5t41 -103.5q0 -61 -41 -102.5t-103 -41.5t-103 41.5t-41 102.5zM162 0v1517h248v-1517h-248z" />
<glyph unicode="&#x1e38;" horiz-adv-x="1198" d="M-53 1628v164h720v-164h-720zM178 0v1443h258v-1217h662v-226h-920zM491 -278q0 62 40.5 103.5t103.5 41.5q62 0 103 -41.5t41 -103.5q0 -61 -41 -102.5t-103 -41.5t-103 41.5t-41 102.5z" />
<glyph unicode="&#x1e39;" horiz-adv-x="571" d="M-74 1702v164h720v-164h-720zM142 -278q0 62 40.5 103.5t103.5 41.5q62 0 103 -41.5t41 -103.5q0 -61 -41 -102.5t-103 -41.5t-103 41.5t-41 102.5zM162 0v1517h248v-1517h-248z" />
<glyph unicode="&#x1e3a;" horiz-adv-x="1198" d="M178 0v1443h258v-1217h662v-226h-920zM275 -218h720v-164h-720v164z" />
<glyph unicode="&#x1e3b;" horiz-adv-x="571" d="M-74 -218h720v-164h-720v164zM162 0v1517h248v-1517h-248z" />
<glyph unicode="&#x1e3c;" horiz-adv-x="1198" d="M178 0v1443h258v-1217h662v-226h-920zM229 -457l290 321h232l290 -321h-242l-155 183h-18l-155 -183h-242z" />
<glyph unicode="&#x1e3d;" horiz-adv-x="571" d="M-120 -457l290 321h232l290 -321h-242l-155 183h-18l-155 -183h-242zM162 0v1517h248v-1517h-248z" />
<glyph unicode="&#x1e3e;" horiz-adv-x="1846" d="M178 0v1443h302l434 -1051h18l434 1051h302v-1443h-240v1015h-14l-399 -959h-184l-399 959h-14v-1015h-240zM795 1585l288 310h283l-321 -310h-250z" />
<glyph unicode="&#x1e3f;" horiz-adv-x="1860" d="M152 0v1094h239v-177h17q35 94 115 146.5t189 52.5q111 0 189 -52.5t113 -146.5h17q41 91 130 145t202 54q164 0 257.5 -97t93.5 -267v-752h-247v689q0 211 -200 211q-96 0 -155 -62t-59 -157v-681h-241v707q0 90 -53 141.5t-145 51.5t-153 -67t-61 -168v-665h-248z M793 1275l249 347h277l-284 -347h-242z" />
<glyph unicode="&#x1e40;" horiz-adv-x="1846" d="M178 0v1443h302l434 -1051h18l434 1051h302v-1443h-240v1015h-14l-399 -959h-184l-399 959h-14v-1015h-240zM779 1722q0 62 40.5 103.5t103.5 41.5q62 0 103 -41.5t41 -103.5q0 -61 -41 -102.5t-103 -41.5t-103 41.5t-41 102.5z" />
<glyph unicode="&#x1e41;" horiz-adv-x="1860" d="M152 0v1094h239v-177h17q35 94 115 146.5t189 52.5q111 0 189 -52.5t113 -146.5h17q41 91 130 145t202 54q164 0 257.5 -97t93.5 -267v-752h-247v689q0 211 -200 211q-96 0 -155 -62t-59 -157v-681h-241v707q0 90 -53 141.5t-145 51.5t-153 -67t-61 -168v-665h-248z M784 1430q0 63 42.5 105.5t106.5 42.5q63 0 106 -43t43 -105q0 -63 -42.5 -106t-106.5 -43t-106.5 43t-42.5 106z" />
<glyph unicode="&#x1e42;" horiz-adv-x="1846" d="M178 0v1443h302l434 -1051h18l434 1051h302v-1443h-240v1015h-14l-399 -959h-184l-399 959h-14v-1015h-240zM779 -278q0 62 40.5 103.5t103.5 41.5q62 0 103 -41.5t41 -103.5q0 -61 -41 -102.5t-103 -41.5t-103 41.5t-41 102.5z" />
<glyph unicode="&#x1e43;" horiz-adv-x="1860" d="M152 0v1094h239v-177h17q35 94 115 146.5t189 52.5q111 0 189 -52.5t113 -146.5h17q41 91 130 145t202 54q164 0 257.5 -97t93.5 -267v-752h-247v689q0 211 -200 211q-96 0 -155 -62t-59 -157v-681h-241v707q0 90 -53 141.5t-145 51.5t-153 -67t-61 -168v-665h-248z M789 -278q0 62 40.5 103.5t103.5 41.5q62 0 103 -41.5t41 -103.5q0 -61 -41 -102.5t-103 -41.5t-103 41.5t-41 102.5z" />
<glyph unicode="&#x1e44;" horiz-adv-x="1554" d="M178 0v1443h224l708 -981h17v981h248v-1443h-223l-708 982h-17v-982h-249zM630 1722q0 62 40.5 103.5t103.5 41.5q62 0 103 -41.5t41 -103.5q0 -61 -41 -102.5t-103 -41.5t-103 41.5t-41 102.5z" />
<glyph unicode="&#x1e45;" horiz-adv-x="1252" d="M152 0v1094h239v-175h17q40 94 122.5 145.5t202.5 51.5q182 0 279.5 -106t97.5 -302v-708h-248v649q0 251 -221 251q-111 0 -176 -71t-65 -192v-637h-248zM487 1430q0 63 42.5 105.5t106.5 42.5t106.5 -43t42.5 -105q0 -63 -42.5 -106t-106.5 -43t-106.5 43t-42.5 106z " />
<glyph unicode="&#x1e46;" horiz-adv-x="1554" d="M178 0v1443h224l708 -981h17v981h248v-1443h-223l-708 982h-17v-982h-249zM630 -278q0 62 40.5 103.5t103.5 41.5q62 0 103 -41.5t41 -103.5q0 -61 -41 -102.5t-103 -41.5t-103 41.5t-41 102.5z" />
<glyph unicode="&#x1e47;" horiz-adv-x="1252" d="M152 0v1094h239v-175h17q40 94 122.5 145.5t202.5 51.5q182 0 279.5 -106t97.5 -302v-708h-248v649q0 251 -221 251q-111 0 -176 -71t-65 -192v-637h-248zM492 -278q0 62 40.5 103.5t103.5 41.5q62 0 103 -41.5t41 -103.5q0 -61 -41 -102.5t-103 -41.5t-103 41.5 t-41 102.5z" />
<glyph unicode="&#x1e48;" horiz-adv-x="1554" d="M178 0v1443h224l708 -981h17v981h248v-1443h-223l-708 982h-17v-982h-249zM414 -218h720v-164h-720v164z" />
<glyph unicode="&#x1e49;" horiz-adv-x="1252" d="M152 0v1094h239v-175h17q40 94 122.5 145.5t202.5 51.5q182 0 279.5 -106t97.5 -302v-708h-248v649q0 251 -221 251q-111 0 -176 -71t-65 -192v-637h-248zM276 -218h720v-164h-720v164z" />
<glyph unicode="&#x1e4a;" horiz-adv-x="1554" d="M178 0v1443h224l708 -981h17v981h248v-1443h-223l-708 982h-17v-982h-249zM368 -457l290 321h232l290 -321h-242l-155 183h-18l-155 -183h-242z" />
<glyph unicode="&#x1e4b;" horiz-adv-x="1252" d="M152 0v1094h239v-175h17q40 94 122.5 145.5t202.5 51.5q182 0 279.5 -106t97.5 -302v-708h-248v649q0 251 -221 251q-111 0 -176 -71t-65 -192v-637h-248zM230 -457l290 321h232l290 -321h-242l-155 183h-18l-155 -183h-242z" />
<glyph unicode="&#x1e4c;" horiz-adv-x="1599" d="M117 722q0 349 184.5 553t499.5 204q314 0 497.5 -204t183.5 -553t-183 -553.5t-498 -204.5q-317 0 -500.5 204t-183.5 554zM381 722q0 -243 112.5 -386t307.5 -143q192 0 304.5 143.5t112.5 385.5t-112.5 385t-304.5 143q-193 0 -306.5 -143t-113.5 -385zM413 1591 q0 123 66.5 195.5t172.5 72.5q45 0 81.5 -12.5t60 -30.5t44 -36.5t45 -31t51.5 -12.5q37 0 61 26.5t28 81.5h166q0 -119 -67 -192.5t-172 -73.5q-45 0 -81.5 12.5t-60 31t-44 36.5t-45 30.5t-51.5 12.5q-83 0 -89 -110h-166zM730 1914l182 235h260l-211 -235h-231z" />
<glyph unicode="&#x1e4d;" horiz-adv-x="1248" d="M98 547q0 264 141 416.5t385 152.5q245 0 385.5 -152t140.5 -417q0 -266 -140.5 -417.5t-385.5 -151.5q-246 0 -386 151.5t-140 417.5zM222 1233q0 142 68 226t183 84q43 0 80 -15t63 -37t48 -44t45 -37t44 -15q91 0 92 145h170q0 -142 -67.5 -225.5t-182.5 -83.5 q-52 0 -97.5 23.5t-71.5 51t-56 51t-55 23.5q-91 0 -92 -147h-171zM352 547q0 -172 71 -266.5t201 -94.5t200.5 94.5t70.5 266.5q0 171 -71 266t-200 95q-130 0 -201 -95t-71 -266zM518 1653l185 275h243l-222 -275h-206z" />
<glyph unicode="&#x1e4e;" horiz-adv-x="1599" d="M117 722q0 349 184.5 553t499.5 204q314 0 497.5 -204t183.5 -553t-183 -553.5t-498 -204.5q-317 0 -500.5 204t-183.5 554zM381 722q0 -243 112.5 -386t307.5 -143q192 0 304.5 143.5t112.5 385.5t-112.5 385t-304.5 143q-193 0 -306.5 -143t-113.5 -385zM413 1585 q0 123 66.5 195.5t172.5 72.5q45 0 81.5 -12.5t60 -30.5t44 -36.5t45 -31t51.5 -12.5q38 0 61.5 26.5t27.5 82.5h166q0 -119 -67 -193t-172 -74q-45 0 -81.5 12.5t-60 31t-44 36.5t-45 30.5t-51.5 12.5q-83 0 -89 -110h-166zM458 2037q0 51 36 83t94 32t94.5 -32t36.5 -83 t-36.5 -83t-94.5 -32t-94 32t-36 83zM883 2037q0 51 36.5 83t94.5 32t94 -32t36 -83t-36 -83t-94 -32t-94.5 32t-36.5 83z" />
<glyph unicode="&#x1e4f;" horiz-adv-x="1248" d="M98 547q0 264 141 416.5t385 152.5q245 0 385.5 -152t140.5 -417q0 -266 -140.5 -417.5t-385.5 -151.5q-246 0 -386 151.5t-140 417.5zM222 1246q0 142 68 226t183 84q43 0 80 -15t63 -37t48 -44t45 -37t44 -15q91 0 92 145h170q0 -142 -67.5 -225.5t-182.5 -83.5 q-52 0 -97.5 23.5t-71.5 51t-56 51t-55 23.5q-91 0 -92 -147h-171zM274 1786q0 58 39 97t97 39t96.5 -39t38.5 -97q0 -57 -38.5 -95.5t-96.5 -38.5t-97 38.5t-39 95.5zM352 547q0 -172 71 -266.5t201 -94.5t200.5 94.5t70.5 266.5q0 171 -71 266t-200 95q-130 0 -201 -95 t-71 -266zM703 1786q0 58 38.5 97t96.5 39t97 -39t39 -97q0 -57 -39 -95.5t-97 -38.5t-96.5 38.5t-38.5 95.5z" />
<glyph unicode="&#x1e50;" horiz-adv-x="1599" d="M117 722q0 349 184.5 553t499.5 204q314 0 497.5 -204t183.5 -553t-183 -553.5t-498 -204.5q-317 0 -500.5 204t-183.5 554zM381 722q0 -243 112.5 -386t307.5 -143q192 0 304.5 143.5t112.5 385.5t-112.5 385t-304.5 143q-193 0 -306.5 -143t-113.5 -385zM441 1614v161 h720v-161h-720zM476 2149h260l181 -249h-232z" />
<glyph unicode="&#x1e51;" horiz-adv-x="1248" d="M98 547q0 264 141 416.5t385 152.5q245 0 385.5 -152t140.5 -417q0 -266 -140.5 -417.5t-385.5 -151.5q-246 0 -386 151.5t-140 417.5zM268 1275v164h712v-164h-712zM285 1893h264l207 -301h-229zM352 547q0 -172 71 -266.5t201 -94.5t200.5 94.5t70.5 266.5 q0 171 -71 266t-200 95q-130 0 -201 -95t-71 -266z" />
<glyph unicode="&#x1e52;" horiz-adv-x="1599" d="M117 722q0 349 184.5 553t499.5 204q314 0 497.5 -204t183.5 -553t-183 -553.5t-498 -204.5q-317 0 -500.5 204t-183.5 554zM381 722q0 -243 112.5 -386t307.5 -143q192 0 304.5 143.5t112.5 385.5t-112.5 385t-304.5 143q-193 0 -306.5 -143t-113.5 -385zM441 1613v161 h720v-161h-720zM685 1899l181 249h260l-209 -249h-232z" />
<glyph unicode="&#x1e53;" horiz-adv-x="1248" d="M98 547q0 264 141 416.5t385 152.5q245 0 385.5 -152t140.5 -417q0 -266 -140.5 -417.5t-385.5 -151.5q-246 0 -386 151.5t-140 417.5zM268 1275v164h712v-164h-712zM352 547q0 -172 71 -266.5t201 -94.5t200.5 94.5t70.5 266.5q0 171 -71 266t-200 95q-130 0 -201 -95 t-71 -266zM492 1592l207 301h264l-242 -301h-229z" />
<glyph unicode="&#x1e54;" horiz-adv-x="1351" d="M178 0v1443h582q216 0 350.5 -135t134.5 -353q0 -214 -138.5 -348t-357.5 -134h-313v-473h-258zM436 687h255q139 0 215.5 70t76.5 198q0 132 -75.5 202t-215.5 70h-256v-540zM465 1585l288 310h283l-321 -310h-250z" />
<glyph unicode="&#x1e55;" horiz-adv-x="1296" d="M152 -364v1458h239v-181h17q47 93 137.5 146t202.5 53q208 0 329.5 -151t121.5 -414q0 -262 -120.5 -413.5t-327.5 -151.5q-117 0 -204.5 48.5t-129.5 135.5h-17v-530h-248zM395 547q1 -164 74.5 -259t200.5 -95q129 0 201.5 94t72.5 260t-72.5 260t-200.5 94 q-127 0 -201 -95t-75 -259zM498 1275l249 347h277l-284 -347h-242z" />
<glyph unicode="&#x1e56;" horiz-adv-x="1351" d="M178 0v1443h582q216 0 350.5 -135t134.5 -353q0 -214 -138.5 -348t-357.5 -134h-313v-473h-258zM436 687h255q139 0 215.5 70t76.5 198q0 132 -75.5 202t-215.5 70h-256v-540zM449 1722q0 62 40.5 103.5t103.5 41.5q62 0 103 -41.5t41 -103.5q0 -61 -41 -102.5 t-103 -41.5t-103 41.5t-41 102.5z" />
<glyph unicode="&#x1e57;" horiz-adv-x="1296" d="M152 -364v1458h239v-181h17q47 93 137.5 146t202.5 53q208 0 329.5 -151t121.5 -414q0 -262 -120.5 -413.5t-327.5 -151.5q-117 0 -204.5 48.5t-129.5 135.5h-17v-530h-248zM395 547q1 -164 74.5 -259t200.5 -95q129 0 201.5 94t72.5 260t-72.5 260t-200.5 94 q-127 0 -201 -95t-75 -259zM489 1430q0 63 42.5 105.5t106.5 42.5t106.5 -43t42.5 -105q0 -63 -42.5 -106t-106.5 -43t-106.5 43t-42.5 106z" />
<glyph unicode="&#x1e58;" horiz-adv-x="1391" d="M178 0v1443h586q227 0 360 -121.5t133 -329.5q0 -144 -72 -254.5t-200 -156.5l315 -581h-295l-283 541h-286v-541h-258zM436 746h298q123 0 190.5 63t67.5 178q0 113 -70.5 177.5t-193.5 64.5h-292v-483zM492 1722q0 62 40.5 103.5t103.5 41.5q62 0 103 -41.5t41 -103.5 q0 -61 -41 -102.5t-103 -41.5t-103 41.5t-41 102.5z" />
<glyph unicode="&#x1e59;" horiz-adv-x="851" d="M152 0v1094h239v-170h17q23 82 103.5 135t185.5 53q67 0 103 -11v-230q-38 14 -127 14q-121 0 -197 -69.5t-76 -183.5v-632h-248zM274 1430q0 63 42.5 105.5t106.5 42.5q63 0 106 -43t43 -105q0 -63 -42.5 -106t-106.5 -43t-106.5 43t-42.5 106z" />
<glyph unicode="&#x1e5a;" horiz-adv-x="1391" d="M178 0v1443h586q227 0 360 -121.5t133 -329.5q0 -144 -72 -254.5t-200 -156.5l315 -581h-295l-283 541h-286v-541h-258zM436 746h298q123 0 190.5 63t67.5 178q0 113 -70.5 177.5t-193.5 64.5h-292v-483zM492 -278q0 62 40.5 103.5t103.5 41.5q62 0 103 -41.5t41 -103.5 q0 -61 -41 -102.5t-103 -41.5t-103 41.5t-41 102.5z" />
<glyph unicode="&#x1e5b;" horiz-adv-x="851" d="M130 -278q0 62 40.5 103.5t103.5 41.5q62 0 103 -41.5t41 -103.5q0 -61 -41 -102.5t-103 -41.5t-103 41.5t-41 102.5zM152 0v1094h239v-170h17q23 82 103.5 135t185.5 53q67 0 103 -11v-230q-38 14 -127 14q-121 0 -197 -69.5t-76 -183.5v-632h-248z" />
<glyph unicode="&#x1e5c;" horiz-adv-x="1391" d="M178 0v1443h586q227 0 360 -121.5t133 -329.5q0 -144 -72 -254.5t-200 -156.5l315 -581h-295l-283 541h-286v-541h-258zM276 1628v164h720v-164h-720zM436 746h298q123 0 190.5 63t67.5 178q0 113 -70.5 177.5t-193.5 64.5h-292v-483zM492 -278q0 62 40.5 103.5 t103.5 41.5q62 0 103 -41.5t41 -103.5q0 -61 -41 -102.5t-103 -41.5t-103 41.5t-41 102.5z" />
<glyph unicode="&#x1e5d;" horiz-adv-x="851" d="M67 1305v164h712v-164h-712zM130 -278q0 62 40.5 103.5t103.5 41.5q62 0 103 -41.5t41 -103.5q0 -61 -41 -102.5t-103 -41.5t-103 41.5t-41 102.5zM152 0v1094h239v-170h17q23 82 103.5 135t185.5 53q67 0 103 -11v-230q-38 14 -127 14q-121 0 -197 -69.5t-76 -183.5 v-632h-248z" />
<glyph unicode="&#x1e5e;" horiz-adv-x="1391" d="M178 0v1443h586q227 0 360 -121.5t133 -329.5q0 -144 -72 -254.5t-200 -156.5l315 -581h-295l-283 541h-286v-541h-258zM276 -218h720v-164h-720v164zM436 746h298q123 0 190.5 63t67.5 178q0 113 -70.5 177.5t-193.5 64.5h-292v-483z" />
<glyph unicode="&#x1e5f;" horiz-adv-x="851" d="M-86 -218h720v-164h-720v164zM152 0v1094h239v-170h17q23 82 103.5 135t185.5 53q67 0 103 -11v-230q-38 14 -127 14q-121 0 -197 -69.5t-76 -183.5v-632h-248z" />
<glyph unicode="&#x1e60;" horiz-adv-x="1354" d="M112 392h252q12 -97 101 -154.5t226 -57.5q128 0 210.5 58.5t82.5 149.5q0 78 -62.5 127t-201.5 81l-187 43q-196 44 -290.5 143.5t-94.5 260.5q0 197 147.5 316.5t389.5 119.5q227 0 376 -118t158 -304h-247q-13 95 -91 151t-197 56q-125 0 -200.5 -55.5t-75.5 -147.5 q0 -73 59 -118.5t193 -76.5l166 -38q219 -49 317.5 -146t98.5 -262q0 -211 -152.5 -333.5t-414.5 -122.5q-248 0 -400.5 116t-162.5 312zM541 1722q0 62 40.5 103.5t103.5 41.5q62 0 103 -41.5t41 -103.5q0 -61 -41 -102.5t-103 -41.5t-103 41.5t-41 102.5z" />
<glyph unicode="&#x1e61;" horiz-adv-x="1128" d="M99 295h245q18 -62 75.5 -95.5t149.5 -33.5q94 0 153 37.5t59 98.5q0 91 -151 124l-194 45q-158 36 -233.5 111.5t-75.5 198.5q0 148 122 241.5t316 93.5q195 0 311.5 -82.5t129.5 -231.5h-233q-14 59 -67.5 92.5t-139.5 33.5t-142 -37t-56 -96q0 -46 39.5 -76t122.5 -49 l193 -44q158 -36 232 -107t74 -191q0 -157 -130 -253.5t-336 -96.5q-205 0 -327.5 84t-136.5 233zM416 1430q0 63 42.5 105.5t106.5 42.5q63 0 106 -43t43 -105q0 -63 -42.5 -106t-106.5 -43t-106.5 43t-42.5 106z" />
<glyph unicode="&#x1e62;" horiz-adv-x="1354" d="M112 392h252q12 -97 101 -154.5t226 -57.5q128 0 210.5 58.5t82.5 149.5q0 78 -62.5 127t-201.5 81l-187 43q-196 44 -290.5 143.5t-94.5 260.5q0 197 147.5 316.5t389.5 119.5q227 0 376 -118t158 -304h-247q-13 95 -91 151t-197 56q-125 0 -200.5 -55.5t-75.5 -147.5 q0 -73 59 -118.5t193 -76.5l166 -38q219 -49 317.5 -146t98.5 -262q0 -211 -152.5 -333.5t-414.5 -122.5q-248 0 -400.5 116t-162.5 312zM531 -278q0 62 40.5 103.5t103.5 41.5q62 0 103 -41.5t41 -103.5q0 -61 -41 -102.5t-103 -41.5t-103 41.5t-41 102.5z" />
<glyph unicode="&#x1e63;" horiz-adv-x="1128" d="M99 295h245q18 -62 75.5 -95.5t149.5 -33.5q94 0 153 37.5t59 98.5q0 91 -151 124l-194 45q-158 36 -233.5 111.5t-75.5 198.5q0 148 122 241.5t316 93.5q195 0 311.5 -82.5t129.5 -231.5h-233q-14 59 -67.5 92.5t-139.5 33.5t-142 -37t-56 -96q0 -46 39.5 -76t122.5 -49 l193 -44q158 -36 232 -107t74 -191q0 -157 -130 -253.5t-336 -96.5q-205 0 -327.5 84t-136.5 233zM419 -278q0 62 40.5 103.5t103.5 41.5q62 0 103 -41.5t41 -103.5q0 -61 -41 -102.5t-103 -41.5t-103 41.5t-41 102.5z" />
<glyph unicode="&#x1e64;" horiz-adv-x="1354" d="M112 392h252q12 -97 101 -154.5t226 -57.5q128 0 210.5 58.5t82.5 149.5q0 78 -62.5 127t-201.5 81l-187 43q-196 44 -290.5 143.5t-94.5 260.5q0 197 147.5 316.5t389.5 119.5q227 0 376 -118t158 -304h-247q-13 95 -91 151t-197 56q-125 0 -200.5 -55.5t-75.5 -147.5 q0 -73 59 -118.5t193 -76.5l166 -38q219 -49 317.5 -146t98.5 -262q0 -211 -152.5 -333.5t-414.5 -122.5q-248 0 -400.5 116t-162.5 312zM333 1761q0 62 40.5 103.5t103.5 41.5q62 0 103 -41.5t41 -103.5q0 -61 -41 -102.5t-103 -41.5t-103 41.5t-41 102.5zM670 1585 l288 310h283l-321 -310h-250z" />
<glyph unicode="&#x1e65;" horiz-adv-x="1128" d="M99 295h245q18 -62 75.5 -95.5t149.5 -33.5q94 0 153 37.5t59 98.5q0 91 -151 124l-194 45q-158 36 -233.5 111.5t-75.5 198.5q0 148 122 241.5t316 93.5q195 0 311.5 -82.5t129.5 -231.5h-233q-14 59 -67.5 92.5t-139.5 33.5t-142 -37t-56 -96q0 -46 39.5 -76t122.5 -49 l193 -44q158 -36 232 -107t74 -191q0 -157 -130 -253.5t-336 -96.5q-205 0 -327.5 84t-136.5 233zM224 1409q0 63 42.5 105.5t106.5 42.5q63 0 106 -42.5t43 -105.5t-42.5 -106t-106.5 -43t-106.5 43t-42.5 106zM564 1252l249 347h277l-284 -347h-242z" />
<glyph unicode="&#x1e66;" horiz-adv-x="1354" d="M112 392h252q12 -97 101 -154.5t226 -57.5q128 0 210.5 58.5t82.5 149.5q0 78 -62.5 127t-201.5 81l-187 43q-196 44 -290.5 143.5t-94.5 260.5q0 197 147.5 316.5t389.5 119.5q227 0 376 -118t158 -304h-247q-13 95 -91 151t-197 56q-125 0 -200.5 -55.5t-75.5 -147.5 q0 -73 59 -118.5t193 -76.5l166 -38q219 -49 317.5 -146t98.5 -262q0 -211 -152.5 -333.5t-414.5 -122.5q-248 0 -400.5 116t-162.5 312zM273 1834h254l149 -140h18l149 140h254l-284 -256h-256zM542 2031q0 59 41 98.5t102 39.5t102 -39.5t41 -98.5t-41 -99t-102 -40 t-102 40t-41 99z" />
<glyph unicode="&#x1e67;" horiz-adv-x="1128" d="M99 295h245q18 -62 75.5 -95.5t149.5 -33.5q94 0 153 37.5t59 98.5q0 91 -151 124l-194 45q-158 36 -233.5 111.5t-75.5 198.5q0 148 122 241.5t316 93.5q195 0 311.5 -82.5t129.5 -231.5h-233q-14 59 -67.5 92.5t-139.5 33.5t-142 -37t-56 -96q0 -46 39.5 -76t122.5 -49 l193 -44q158 -36 232 -107t74 -191q0 -157 -130 -253.5t-336 -96.5q-205 0 -327.5 84t-136.5 233zM158 1578h241l157 -202h18l157 202h241l-278 -335h-258zM426 1799q0 60 39.5 99.5t99.5 39.5t99.5 -39.5t39.5 -99.5q0 -58 -39.5 -98t-99.5 -40t-99.5 40t-39.5 98z" />
<glyph unicode="&#x1e68;" horiz-adv-x="1354" d="M112 392h252q12 -97 101 -154.5t226 -57.5q128 0 210.5 58.5t82.5 149.5q0 78 -62.5 127t-201.5 81l-187 43q-196 44 -290.5 143.5t-94.5 260.5q0 197 147.5 316.5t389.5 119.5q227 0 376 -118t158 -304h-247q-13 95 -91 151t-197 56q-125 0 -200.5 -55.5t-75.5 -147.5 q0 -73 59 -118.5t193 -76.5l166 -38q219 -49 317.5 -146t98.5 -262q0 -211 -152.5 -333.5t-414.5 -122.5q-248 0 -400.5 116t-162.5 312zM531 -278q0 62 40.5 103.5t103.5 41.5q62 0 103 -41.5t41 -103.5q0 -61 -41 -102.5t-103 -41.5t-103 41.5t-41 102.5zM541 1722 q0 62 40.5 103.5t103.5 41.5q62 0 103 -41.5t41 -103.5q0 -61 -41 -102.5t-103 -41.5t-103 41.5t-41 102.5z" />
<glyph unicode="&#x1e69;" horiz-adv-x="1128" d="M99 295h245q18 -62 75.5 -95.5t149.5 -33.5q94 0 153 37.5t59 98.5q0 91 -151 124l-194 45q-158 36 -233.5 111.5t-75.5 198.5q0 148 122 241.5t316 93.5q195 0 311.5 -82.5t129.5 -231.5h-233q-14 59 -67.5 92.5t-139.5 33.5t-142 -37t-56 -96q0 -46 39.5 -76t122.5 -49 l193 -44q158 -36 232 -107t74 -191q0 -157 -130 -253.5t-336 -96.5q-205 0 -327.5 84t-136.5 233zM416 1430q0 63 42.5 105.5t106.5 42.5q63 0 106 -43t43 -105q0 -63 -42.5 -106t-106.5 -43t-106.5 43t-42.5 106zM419 -278q0 62 40.5 103.5t103.5 41.5q62 0 103 -41.5 t41 -103.5q0 -61 -41 -102.5t-103 -41.5t-103 41.5t-41 102.5z" />
<glyph unicode="&#x1e6a;" horiz-adv-x="1332" d="M93 1220v223h1147v-223h-445v-1220h-258v1220h-444zM520 1722q0 62 40.5 103.5t103.5 41.5q62 0 103 -41.5t41 -103.5q0 -61 -41 -102.5t-103 -41.5t-103 41.5t-41 102.5z" />
<glyph unicode="&#x1e6b;" horiz-adv-x="808" d="M58 889v198h173v275h247v-275h234v-198h-234v-537q0 -81 36 -118.5t114 -37.5q34 0 84 5v-194q-62 -12 -130 -12q-188 0 -269.5 69t-81.5 228v597h-173zM205 1642q0 63 42.5 105.5t106.5 42.5t106.5 -43t42.5 -105q0 -63 -42.5 -106t-106.5 -43t-106.5 43t-42.5 106z" />
<glyph unicode="&#x1e6c;" horiz-adv-x="1332" d="M93 1220v223h1147v-223h-445v-1220h-258v1220h-444zM520 -278q0 62 40.5 103.5t103.5 41.5q62 0 103 -41.5t41 -103.5q0 -61 -41 -102.5t-103 -41.5t-103 41.5t-41 102.5z" />
<glyph unicode="&#x1e6d;" horiz-adv-x="808" d="M58 889v198h173v275h247v-275h234v-198h-234v-537q0 -81 36 -118.5t114 -37.5q34 0 84 5v-194q-62 -12 -130 -12q-188 0 -269.5 69t-81.5 228v597h-173zM315 -278q0 62 40.5 103.5t103.5 41.5q62 0 103 -41.5t41 -103.5q0 -61 -41 -102.5t-103 -41.5t-103 41.5t-41 102.5 z" />
<glyph unicode="&#x1e6e;" horiz-adv-x="1332" d="M93 1220v223h1147v-223h-445v-1220h-258v1220h-444zM304 -218h720v-164h-720v164z" />
<glyph unicode="&#x1e6f;" horiz-adv-x="808" d="M58 889v198h173v275h247v-275h234v-198h-234v-537q0 -81 36 -118.5t114 -37.5q34 0 84 5v-194q-62 -12 -130 -12q-188 0 -269.5 69t-81.5 228v597h-173zM99 -218h720v-164h-720v164z" />
<glyph unicode="&#x1e70;" horiz-adv-x="1332" d="M93 1220v223h1147v-223h-445v-1220h-258v1220h-444zM258 -457l290 321h232l290 -321h-242l-155 183h-18l-155 -183h-242z" />
<glyph unicode="&#x1e71;" horiz-adv-x="808" d="M53 -457l290 321h232l290 -321h-242l-155 183h-18l-155 -183h-242zM58 889v198h173v275h247v-275h234v-198h-234v-537q0 -81 36 -118.5t114 -37.5q34 0 84 5v-194q-62 -12 -130 -12q-188 0 -269.5 69t-81.5 228v597h-173z" />
<glyph unicode="&#x1e72;" horiz-adv-x="1550" d="M182 497v946h257v-922q0 -149 89 -237.5t247 -88.5t246.5 88.5t88.5 237.5v922h258v-946q0 -239 -161 -386t-432 -147t-432 147t-161 386zM409 -300q0 60 41 100.5t102 40.5t102 -40.5t41 -100.5t-41 -100.5t-102 -40.5t-102 40.5t-41 100.5zM854 -300q0 60 41 100.5 t102 40.5t102 -40.5t41 -100.5t-41 -100.5t-102 -40.5t-102 40.5t-41 100.5z" />
<glyph unicode="&#x1e73;" horiz-adv-x="1256" d="M142 383v711h248v-649q0 -126 53 -187.5t164 -61.5q120 0 184.5 69t64.5 192v637h248v-1094h-239v174h-17q-83 -196 -327 -196q-179 0 -279 106.5t-100 298.5zM254 -300q0 60 41 100.5t102 40.5t102 -40.5t41 -100.5t-41 -100.5t-102 -40.5t-102 40.5t-41 100.5z M699 -300q0 60 41 100.5t102 40.5t102 -40.5t41 -100.5t-41 -100.5t-102 -40.5t-102 40.5t-41 100.5z" />
<glyph unicode="&#x1e74;" horiz-adv-x="1550" d="M182 497v946h257v-922q0 -149 89 -237.5t247 -88.5t246.5 88.5t88.5 237.5v922h258v-946q0 -239 -161 -386t-432 -147t-432 147t-161 386zM378 -428q0 142 68 226t183 84q43 0 80 -15t63 -37t48 -44t45 -37t44 -15q91 0 92 145h170q0 -142 -67.5 -225.5t-182.5 -83.5 q-52 0 -97.5 23.5t-71.5 51t-56 51t-55 23.5q-91 0 -92 -147h-171z" />
<glyph unicode="&#x1e75;" horiz-adv-x="1256" d="M142 383v711h248v-649q0 -126 53 -187.5t164 -61.5q120 0 184.5 69t64.5 192v637h248v-1094h-239v174h-17q-83 -196 -327 -196q-179 0 -279 106.5t-100 298.5zM223 -428q0 142 68 226t183 84q43 0 80 -15t63 -37t48 -44t45 -37t44 -15q91 0 92 145h170 q0 -142 -67.5 -225.5t-182.5 -83.5q-52 0 -97.5 23.5t-71.5 51t-56 51t-55 23.5q-91 0 -92 -147h-171z" />
<glyph unicode="&#x1e76;" horiz-adv-x="1550" d="M182 497v946h257v-922q0 -149 89 -237.5t247 -88.5t246.5 88.5t88.5 237.5v922h258v-946q0 -239 -161 -386t-432 -147t-432 147t-161 386zM369 -457l290 321h232l290 -321h-242l-155 183h-18l-155 -183h-242z" />
<glyph unicode="&#x1e77;" horiz-adv-x="1256" d="M142 383v711h248v-649q0 -126 53 -187.5t164 -61.5q120 0 184.5 69t64.5 192v637h248v-1094h-239v174h-17q-83 -196 -327 -196q-179 0 -279 106.5t-100 298.5zM214 -457l290 321h232l290 -321h-242l-155 183h-18l-155 -183h-242z" />
<glyph unicode="&#x1e78;" horiz-adv-x="1550" d="M182 497v946h257v-922q0 -149 89 -237.5t247 -88.5t246.5 88.5t88.5 237.5v922h258v-946q0 -239 -161 -386t-432 -147t-432 147t-161 386zM387 1591q0 123 66.5 195.5t172.5 72.5q45 0 81.5 -12.5t60 -30.5t44 -36.5t45 -31t51.5 -12.5q37 0 61 26.5t28 81.5h166 q0 -119 -67 -192.5t-172 -73.5q-45 0 -81.5 12.5t-60 31t-44 36.5t-45 30.5t-51.5 12.5q-83 0 -89 -110h-166zM704 1914l182 235h260l-211 -235h-231z" />
<glyph unicode="&#x1e79;" horiz-adv-x="1256" d="M142 383v711h248v-649q0 -126 53 -187.5t164 -61.5q120 0 184.5 69t64.5 192v637h248v-1094h-239v174h-17q-83 -196 -327 -196q-179 0 -279 106.5t-100 298.5zM221 1233q0 142 68 226t183 84q43 0 80 -15t63 -37t48 -44t45 -37t44 -15q91 0 92 145h170 q0 -142 -67.5 -225.5t-182.5 -83.5q-52 0 -97.5 23.5t-71.5 51t-56 51t-55 23.5q-91 0 -92 -147h-171zM517 1653l185 275h243l-222 -275h-206z" />
<glyph unicode="&#x1e7a;" horiz-adv-x="1550" d="M182 497v946h257v-922q0 -149 89 -237.5t247 -88.5t246.5 88.5t88.5 237.5v922h258v-946q0 -239 -161 -386t-432 -147t-432 147t-161 386zM415 1614v161h720v-161h-720zM425 2017q0 57 39 96t97 39t96.5 -39t38.5 -96t-38.5 -95.5t-96.5 -38.5t-97 38.5t-39 95.5z M854 2017q0 57 38.5 96t96.5 39t97 -39t39 -96t-39 -95.5t-97 -38.5t-96.5 38.5t-38.5 95.5z" />
<glyph unicode="&#x1e7b;" horiz-adv-x="1256" d="M142 383v711h248v-649q0 -126 53 -187.5t164 -61.5q120 0 184.5 69t64.5 192v637h248v-1094h-239v174h-17q-83 -196 -327 -196q-179 0 -279 106.5t-100 298.5zM267 1290v164h712v-164h-712zM273 1745q0 57 39 96t97 39t96.5 -39t38.5 -96t-38.5 -96t-96.5 -39t-97 39 t-39 96zM702 1745q0 57 38.5 96t96.5 39t97 -39t39 -96t-39 -96t-97 -39t-96.5 39t-38.5 96z" />
<glyph unicode="&#x1e7c;" horiz-adv-x="1442" d="M71 1443h285l363 -1142h17l360 1142h275l-499 -1443h-297zM321 1576q0 142 68 226t183 84q43 0 80 -15t63 -37t48 -44t45 -37t44 -15q91 0 92 145h170q0 -142 -67.5 -225.5t-182.5 -83.5q-52 0 -97.5 23.5t-71.5 51t-56 51t-55 23.5q-91 0 -92 -147h-171z" />
<glyph unicode="&#x1e7d;" horiz-adv-x="1163" d="M57 1094h266l253 -846h17l251 846h262l-387 -1094h-273zM189 1246q0 142 68 226t183 84q43 0 80 -15t63 -37t48 -44t45 -37t44 -15q91 0 92 145h170q0 -142 -67.5 -225.5t-182.5 -83.5q-52 0 -97.5 23.5t-71.5 51t-56 51t-55 23.5q-91 0 -92 -147h-171z" />
<glyph unicode="&#x1e7e;" horiz-adv-x="1442" d="M71 1443h285l363 -1142h17l360 1142h275l-499 -1443h-297zM574 -278q0 62 40.5 103.5t103.5 41.5q62 0 103 -41.5t41 -103.5q0 -61 -41 -102.5t-103 -41.5t-103 41.5t-41 102.5z" />
<glyph unicode="&#x1e7f;" horiz-adv-x="1163" d="M57 1094h266l253 -846h17l251 846h262l-387 -1094h-273zM438 -278q0 62 40.5 103.5t103.5 41.5q62 0 103 -41.5t41 -103.5q0 -61 -41 -102.5t-103 -41.5t-103 41.5t-41 102.5z" />
<glyph unicode="&#x1e80;" horiz-adv-x="2036" d="M88 1443h269l247 -1074h15l284 1074h229l288 -1074h14l247 1074h267l-387 -1443h-242l-294 1022h-15l-292 -1022h-243zM578 1895h283l288 -310h-250z" />
<glyph unicode="&#x1e81;" horiz-adv-x="1681" d="M64 1094h250l182 -817h17l210 817h237l212 -817h17l181 817h247l-296 -1094h-261l-213 788h-17l-212 -788h-258zM462 1622h277l249 -347h-242z" />
<glyph unicode="&#x1e82;" horiz-adv-x="2036" d="M88 1443h269l247 -1074h15l284 1074h229l288 -1074h14l247 1074h267l-387 -1443h-242l-294 1022h-15l-292 -1022h-243zM890 1585l288 310h283l-321 -310h-250z" />
<glyph unicode="&#x1e83;" horiz-adv-x="1681" d="M64 1094h250l182 -817h17l210 817h237l212 -817h17l181 817h247l-296 -1094h-261l-213 788h-17l-212 -788h-258zM702 1275l249 347h277l-284 -347h-242z" />
<glyph unicode="&#x1e84;" horiz-adv-x="2036" d="M88 1443h269l247 -1074h15l284 1074h229l288 -1074h14l247 1074h267l-387 -1443h-242l-294 1022h-15l-292 -1022h-243zM652 1718q0 60 41 100.5t102 40.5t102 -40.5t41 -100.5t-41 -100.5t-102 -40.5t-102 40.5t-41 100.5zM1097 1718q0 60 41 100.5t102 40.5t102 -40.5 t41 -100.5t-41 -100.5t-102 -40.5t-102 40.5t-41 100.5z" />
<glyph unicode="&#x1e85;" horiz-adv-x="1681" d="M64 1094h250l182 -817h17l210 817h237l212 -817h17l181 817h247l-296 -1094h-261l-213 788h-17l-212 -788h-258zM476 1383q0 60 41 100.5t102 40.5t102 -40.5t41 -100.5t-41 -100.5t-102 -40.5t-102 40.5t-41 100.5zM921 1383q0 60 41 100.5t102 40.5t102 -40.5 t41 -100.5t-41 -100.5t-102 -40.5t-102 40.5t-41 100.5z" />
<glyph unicode="&#x1e86;" horiz-adv-x="2036" d="M88 1443h269l247 -1074h15l284 1074h229l288 -1074h14l247 1074h267l-387 -1443h-242l-294 1022h-15l-292 -1022h-243zM874 1722q0 62 40.5 103.5t103.5 41.5q62 0 103 -41.5t41 -103.5q0 -61 -41 -102.5t-103 -41.5t-103 41.5t-41 102.5z" />
<glyph unicode="&#x1e87;" horiz-adv-x="1681" d="M64 1094h250l182 -817h17l210 817h237l212 -817h17l181 817h247l-296 -1094h-261l-213 788h-17l-212 -788h-258zM693 1430q0 63 42.5 105.5t106.5 42.5t106.5 -43t42.5 -105q0 -63 -42.5 -106t-106.5 -43t-106.5 43t-42.5 106z" />
<glyph unicode="&#x1e88;" horiz-adv-x="2036" d="M88 1443h269l247 -1074h15l284 1074h229l288 -1074h14l247 1074h267l-387 -1443h-242l-294 1022h-15l-292 -1022h-243zM874 -278q0 62 40.5 103.5t103.5 41.5q62 0 103 -41.5t41 -103.5q0 -61 -41 -102.5t-103 -41.5t-103 41.5t-41 102.5z" />
<glyph unicode="&#x1e89;" horiz-adv-x="1681" d="M64 1094h250l182 -817h17l210 817h237l212 -817h17l181 817h247l-296 -1094h-261l-213 788h-17l-212 -788h-258zM695 -278q0 62 40.5 103.5t103.5 41.5q62 0 103 -41.5t41 -103.5q0 -61 -41 -102.5t-103 -41.5t-103 41.5t-41 102.5z" />
<glyph unicode="&#x1e8a;" d="M89 0l472 727l-468 716h305l329 -530h17l334 530h290l-484 -722l476 -721h-298l-335 518h-17l-340 -518h-281zM588 1722q0 62 40.5 103.5t103.5 41.5q62 0 103 -41.5t41 -103.5q0 -61 -41 -102.5t-103 -41.5t-103 41.5t-41 102.5z" />
<glyph unicode="&#x1e8b;" horiz-adv-x="1149" d="M67 1094h287l218 -376h17l216 376h273l-353 -541l357 -553h-280l-224 377h-17l-224 -377h-267l354 543zM429 1430q0 63 42.5 105.5t106.5 42.5t106.5 -43t42.5 -105q0 -63 -42.5 -106t-106.5 -43t-106.5 43t-42.5 106z" />
<glyph unicode="&#x1e8c;" d="M89 0l472 727l-468 716h305l329 -530h17l334 530h290l-484 -722l476 -721h-298l-335 518h-17l-340 -518h-281zM366 1718q0 60 41 100.5t102 40.5t102 -40.5t41 -100.5t-41 -100.5t-102 -40.5t-102 40.5t-41 100.5zM811 1718q0 60 41 100.5t102 40.5t102 -40.5t41 -100.5 t-41 -100.5t-102 -40.5t-102 40.5t-41 100.5z" />
<glyph unicode="&#x1e8d;" horiz-adv-x="1149" d="M67 1094h287l218 -376h17l216 376h273l-353 -541l357 -553h-280l-224 377h-17l-224 -377h-267l354 543zM212 1383q0 60 41 100.5t102 40.5t102 -40.5t41 -100.5t-41 -100.5t-102 -40.5t-102 40.5t-41 100.5zM657 1383q0 60 41 100.5t102 40.5t102 -40.5t41 -100.5 t-41 -100.5t-102 -40.5t-102 40.5t-41 100.5z" />
<glyph unicode="&#x1e8e;" horiz-adv-x="1412" d="M71 1443h283l344 -617h17l343 617h283l-506 -879v-564h-258v564zM562 1722q0 62 40.5 103.5t103.5 41.5q62 0 103 -41.5t41 -103.5q0 -61 -41 -102.5t-103 -41.5t-103 41.5t-41 102.5z" />
<glyph unicode="&#x1e8f;" horiz-adv-x="1183" d="M60 1094h272l256 -854h17l255 854h262l-395 -1129q-69 -203 -169.5 -282.5t-285.5 -79.5q-77 0 -98 4v203q19 -4 68 -4q79 0 125.5 33t70.5 108l13 48zM443 1430q0 63 42.5 105.5t106.5 42.5t106.5 -43t42.5 -105q0 -63 -42.5 -106t-106.5 -43t-106.5 43t-42.5 106z" />
<glyph unicode="&#x1e90;" horiz-adv-x="1373" d="M138 0v176l759 1027v17h-738v223h1057v-176l-756 -1027v-17h775v-223h-1097zM281 1585l290 321h232l290 -321h-242l-155 183h-18l-155 -183h-242z" />
<glyph unicode="&#x1e91;" horiz-adv-x="1140" d="M127 0v155l581 722v17h-576v200h872v-169l-560 -708v-17h569v-200h-886zM158 1243l277 348h259l277 -348h-239l-159 215h-17l-159 -215h-239z" />
<glyph unicode="&#x1e92;" horiz-adv-x="1373" d="M138 0v176l759 1027v17h-738v223h1057v-176l-756 -1027v-17h775v-223h-1097zM543 -278q0 62 40.5 103.5t103.5 41.5q62 0 103 -41.5t41 -103.5q0 -61 -41 -102.5t-103 -41.5t-103 41.5t-41 102.5z" />
<glyph unicode="&#x1e93;" horiz-adv-x="1140" d="M127 0v155l581 722v17h-576v200h872v-169l-560 -708v-17h569v-200h-886zM421 -278q0 62 40.5 103.5t103.5 41.5q62 0 103 -41.5t41 -103.5q0 -61 -41 -102.5t-103 -41.5t-103 41.5t-41 102.5z" />
<glyph unicode="&#x1e94;" horiz-adv-x="1373" d="M138 0v176l759 1027v17h-738v223h1057v-176l-756 -1027v-17h775v-223h-1097zM327 -218h720v-164h-720v164z" />
<glyph unicode="&#x1e95;" horiz-adv-x="1140" d="M127 0v155l581 722v17h-576v200h872v-169l-560 -708v-17h569v-200h-886zM205 -218h720v-164h-720v164z" />
<glyph unicode="&#x1e96;" horiz-adv-x="1274" d="M162 0v1517h244v-600h18q39 93 125 145t207 52q177 0 276.5 -107t99.5 -301v-706h-248v647q0 124 -56 187.5t-164 63.5q-120 0 -187 -71.5t-67 -191.5v-635h-248zM292 -218h720v-164h-720v164z" />
<glyph unicode="&#x1e97;" horiz-adv-x="808" d="M-12 1595q0 60 41 100.5t102 40.5t102 -40.5t41 -100.5t-41 -100.5t-102 -40.5t-102 40.5t-41 100.5zM58 889v198h173v275h247v-275h234v-198h-234v-537q0 -81 36 -118.5t114 -37.5q34 0 84 5v-194q-62 -12 -130 -12q-188 0 -269.5 69t-81.5 228v597h-173zM433 1595 q0 60 41 100.5t102 40.5t102 -40.5t41 -100.5t-41 -100.5t-102 -40.5t-102 40.5t-41 100.5z" />
<glyph unicode="&#x1e98;" horiz-adv-x="1681" d="M64 1094h250l182 -817h17l210 817h237l212 -817h17l181 817h247l-296 -1094h-261l-213 788h-17l-212 -788h-258zM601 1479q0 101 69.5 168t171.5 67t171 -67t69 -168t-69 -168.5t-171 -67.5t-171.5 67.5t-69.5 168.5zM730 1478q0 -47 31.5 -78.5t80.5 -31.5 q48 0 79.5 31.5t31.5 78.5q0 48 -31.5 79.5t-79.5 31.5t-80 -31.5t-32 -79.5z" />
<glyph unicode="&#x1e99;" horiz-adv-x="1183" d="M60 1094h272l256 -854h17l255 854h262l-395 -1129q-69 -203 -169.5 -282.5t-285.5 -79.5q-77 0 -98 4v203q19 -4 68 -4q79 0 125.5 33t70.5 108l13 48zM351 1479q0 101 69.5 168t171.5 67t171 -67t69 -168t-69 -168.5t-171 -67.5t-171.5 67.5t-69.5 168.5zM480 1478 q0 -47 31.5 -78.5t80.5 -31.5q48 0 79.5 31.5t31.5 78.5q0 48 -31.5 79.5t-79.5 31.5t-80 -31.5t-32 -79.5z" />
<glyph unicode="&#x1e9e;" horiz-adv-x="2709" d="M112 392h252q12 -97 101 -154.5t226 -57.5q128 0 210.5 58.5t82.5 149.5q0 78 -62.5 127t-201.5 81l-187 43q-196 44 -290.5 143.5t-94.5 260.5q0 197 147.5 316.5t389.5 119.5q227 0 376 -118t158 -304h-247q-13 95 -91 151t-197 56q-125 0 -200.5 -55.5t-75.5 -147.5 q0 -73 59 -118.5t193 -76.5l166 -38q219 -49 317.5 -146t98.5 -262q0 -211 -152.5 -333.5t-414.5 -122.5q-248 0 -400.5 116t-162.5 312zM1466 392h252q12 -97 101 -154.5t226 -57.5q128 0 210.5 58.5t82.5 149.5q0 78 -62.5 127t-201.5 81l-187 43q-196 44 -290.5 143.5 t-94.5 260.5q0 197 147.5 316.5t389.5 119.5q227 0 376 -118t158 -304h-247q-13 95 -91 151t-197 56q-125 0 -200.5 -55.5t-75.5 -147.5q0 -73 59 -118.5t193 -76.5l166 -38q219 -49 317.5 -146t98.5 -262q0 -211 -152.5 -333.5t-414.5 -122.5q-248 0 -400.5 116t-162.5 312 z" />
<glyph unicode="&#x1ea0;" d="M71 0l512 1443h290l513 -1443h-277l-122 369h-531l-124 -369h-261zM516 573h411l-196 595h-17zM577 -278q0 62 40.5 103.5t103.5 41.5q62 0 103 -41.5t41 -103.5q0 -61 -41 -102.5t-103 -41.5t-103 41.5t-41 102.5z" />
<glyph unicode="&#x1ea1;" horiz-adv-x="1179" d="M91 310q0 148 107.5 232t307.5 96l282 17v92q0 81 -53 124t-153 43q-86 0 -142 -29.5t-73 -84.5h-234q15 145 140.5 230.5t320.5 85.5q210 0 324.5 -97t114.5 -272v-747h-239v150h-17q-46 -79 -131.5 -123.5t-192.5 -44.5q-160 0 -261 90t-101 238zM337 324 q0 -68 52.5 -107.5t136.5 -39.5q112 0 187 64.5t75 159.5v87l-247 -16q-204 -13 -204 -148zM431 -278q0 62 40.5 103.5t103.5 41.5q62 0 103 -41.5t41 -103.5q0 -61 -41 -102.5t-103 -41.5t-103 41.5t-41 102.5z" />
<glyph unicode="&#x1ea2;" d="M71 0l512 1443h290l513 -1443h-277l-122 369h-531l-124 -369h-261zM516 573h411l-196 595h-17zM533 1809v142q63 23 146 23q109 0 174.5 -54t65.5 -145q0 -77 -52 -139.5t-141 -95.5l-85 108q48 16 77.5 44.5t29.5 60.5q0 34 -29 55t-75 21q-68 0 -111 -20z" />
<glyph unicode="&#x1ea3;" horiz-adv-x="1179" d="M91 310q0 148 107.5 232t307.5 96l282 17v92q0 81 -53 124t-153 43q-86 0 -142 -29.5t-73 -84.5h-234q15 145 140.5 230.5t320.5 85.5q210 0 324.5 -97t114.5 -272v-747h-239v150h-17q-46 -79 -131.5 -123.5t-192.5 -44.5q-160 0 -261 90t-101 238zM337 324 q0 -68 52.5 -107.5t136.5 -39.5q112 0 187 64.5t75 159.5v87l-247 -16q-204 -13 -204 -148zM428 1487v144q65 23 148 23q110 0 177 -54.5t67 -146.5q0 -78 -53 -142t-143 -97l-87 110q49 16 79 45t30 62q0 34 -29 55.5t-76 21.5q-67 0 -113 -21z" />
<glyph unicode="&#x1ea4;" d="M71 0l512 1443h290l513 -1443h-277l-122 369h-531l-124 -369h-261zM316 1578l284 256h256l284 -256h-254l-149 140h-18l-149 -140h-254zM516 573h411l-196 595h-17zM951 1873l196 276h252l-224 -276h-224z" />
<glyph unicode="&#x1ea5;" horiz-adv-x="1179" d="M91 310q0 148 107.5 232t307.5 96l282 17v92q0 81 -53 124t-153 43q-86 0 -142 -29.5t-73 -84.5h-234q15 145 140.5 230.5t320.5 85.5q210 0 324.5 -97t114.5 -272v-747h-239v150h-17q-46 -79 -131.5 -123.5t-192.5 -44.5q-160 0 -261 90t-101 238zM195 1252l275 336h248 l275 -336h-233l-157 202h-18l-157 -202h-233zM337 324q0 -68 52.5 -107.5t136.5 -39.5q112 0 187 64.5t75 159.5v87l-247 -16q-204 -13 -204 -148zM804 1605l191 323h244l-227 -323h-208z" />
<glyph unicode="&#x1ea6;" d="M71 0l512 1443h290l513 -1443h-277l-122 369h-531l-124 -369h-261zM316 1578l284 256h256l284 -256h-254l-149 140h-18l-149 -140h-254zM516 573h411l-196 595h-17zM773 2149h252l196 -276h-224z" />
<glyph unicode="&#x1ea7;" horiz-adv-x="1179" d="M91 310q0 148 107.5 232t307.5 96l282 17v92q0 81 -53 124t-153 43q-86 0 -142 -29.5t-73 -84.5h-234q15 145 140.5 230.5t320.5 85.5q210 0 324.5 -97t114.5 -272v-747h-239v150h-17q-46 -79 -131.5 -123.5t-192.5 -44.5q-160 0 -261 90t-101 238zM187 1243l278 335h258 l278 -335h-241l-157 202h-18l-157 -202h-241zM337 324q0 -68 52.5 -107.5t136.5 -39.5q112 0 187 64.5t75 159.5v87l-247 -16q-204 -13 -204 -148zM644 1928h244l191 -323h-208z" />
<glyph unicode="&#x1ea8;" d="M71 0l512 1443h290l513 -1443h-277l-122 369h-531l-124 -369h-261zM316 1578l284 256h256l284 -256h-254l-149 140h-18l-149 -140h-254zM516 573h411l-196 595h-17zM861 2010v130q47 18 136 18q98 0 157 -50t59 -133q0 -71 -41 -127.5t-113 -83.5l-103 91q42 16 65 43 t23 58t-25 50t-65 19q-58 0 -93 -15z" />
<glyph unicode="&#x1ea9;" horiz-adv-x="1179" d="M91 310q0 148 107.5 232t307.5 96l282 17v92q0 81 -53 124t-153 43q-86 0 -142 -29.5t-73 -84.5h-234q15 145 140.5 230.5t320.5 85.5q210 0 324.5 -97t114.5 -272v-747h-239v150h-17q-46 -79 -131.5 -123.5t-192.5 -44.5q-160 0 -261 90t-101 238zM187 1243l278 335h258 l278 -335h-241l-157 202h-18l-157 -202h-241zM337 324q0 -68 52.5 -107.5t136.5 -39.5q112 0 187 64.5t75 159.5v87l-247 -16q-204 -13 -204 -148zM768 1766v144q55 21 136 21q114 0 180 -53.5t66 -146.5q0 -78 -51.5 -141.5t-141.5 -96.5l-86 110q48 16 77 45t29 61 q0 34 -28.5 55.5t-74.5 21.5q-63 0 -106 -20z" />
<glyph unicode="&#x1eaa;" d="M71 0l512 1443h290l513 -1443h-277l-122 369h-531l-124 -369h-261zM316 1578l284 252h256l284 -252h-254l-149 140h-18l-149 -140h-254zM346 1899q0 120 65.5 192t170.5 72q46 0 82 -13t59 -31t43 -36t44 -31t51 -13q37 0 61 27t28 83h160q0 -120 -65.5 -193.5 t-170.5 -73.5q-46 0 -82 13t-59 31t-43 36.5t-44 31.5t-51 13q-39 0 -62.5 -27.5t-26.5 -80.5h-160zM516 573h411l-196 595h-17z" />
<glyph unicode="&#x1eab;" horiz-adv-x="1179" d="M91 310q0 148 107.5 232t307.5 96l282 17v92q0 81 -53 124t-153 43q-86 0 -142 -29.5t-73 -84.5h-234q15 145 140.5 230.5t320.5 85.5q210 0 324.5 -97t114.5 -272v-747h-239v150h-17q-46 -79 -131.5 -123.5t-192.5 -44.5q-160 0 -261 90t-101 238zM187 1243l278 335h258 l278 -335h-241l-157 202h-18l-157 -202h-241zM198 1663q0 142 65 222.5t178 80.5q45 0 83.5 -14.5t64.5 -36t48.5 -42.5t45.5 -35.5t45 -14.5q47 0 69 32.5t23 106.5h170q0 -141 -65.5 -221t-177.5 -80q-45 0 -83.5 15t-64.5 36t-48.5 42t-45.5 36t-45 15q-47 0 -69 -34 t-23 -108h-170zM337 324q0 -68 52.5 -107.5t136.5 -39.5q112 0 187 64.5t75 159.5v87l-247 -16q-204 -13 -204 -148z" />
<glyph unicode="&#x1eac;" d="M71 0l512 1443h290l513 -1443h-277l-122 369h-531l-124 -369h-261zM322 1585l290 321h232l290 -321h-242l-155 183h-18l-155 -183h-242zM516 573h411l-196 595h-17zM577 -278q0 62 40.5 103.5t103.5 41.5q62 0 103 -41.5t41 -103.5q0 -61 -41 -102.5t-103 -41.5 t-103 41.5t-41 102.5z" />
<glyph unicode="&#x1ead;" horiz-adv-x="1179" d="M91 310q0 148 107.5 232t307.5 96l282 17v92q0 81 -53 124t-153 43q-86 0 -142 -29.5t-73 -84.5h-234q15 145 140.5 230.5t320.5 85.5q210 0 324.5 -97t114.5 -272v-747h-239v150h-17q-46 -79 -131.5 -123.5t-192.5 -44.5q-160 0 -261 90t-101 238zM187 1243l277 348h259 l277 -348h-239l-159 215h-17l-159 -215h-239zM337 324q0 -68 52.5 -107.5t136.5 -39.5q112 0 187 64.5t75 159.5v87l-247 -16q-204 -13 -204 -148zM431 -278q0 62 40.5 103.5t103.5 41.5q62 0 103 -41.5t41 -103.5q0 -61 -41 -102.5t-103 -41.5t-103 41.5t-41 102.5z" />
<glyph unicode="&#x1eae;" d="M71 0l512 1443h290l513 -1443h-277l-122 369h-531l-124 -369h-261zM341 1896h188q2 -74 55.5 -118.5t143.5 -44.5t143.5 44.5t55.5 118.5h188q0 -143 -105 -230.5t-282 -87.5t-282 87.5t-105 230.5zM516 573h411l-196 595h-17zM600 1906l197 243h250l-234 -243h-213z" />
<glyph unicode="&#x1eaf;" horiz-adv-x="1179" d="M91 310q0 148 107.5 232t307.5 96l282 17v92q0 81 -53 124t-153 43q-86 0 -142 -29.5t-73 -84.5h-234q15 145 140.5 230.5t320.5 85.5q210 0 324.5 -97t114.5 -272v-747h-239v150h-17q-46 -79 -131.5 -123.5t-192.5 -44.5q-160 0 -261 90t-101 238zM207 1585h188 q2 -84 54.5 -135t144.5 -51t144.5 51t54.5 135h188q0 -151 -104.5 -246.5t-282.5 -95.5t-282.5 95.5t-104.5 246.5zM337 324q0 -68 52.5 -107.5t136.5 -39.5q112 0 187 64.5t75 159.5v87l-247 -16q-204 -13 -204 -148zM477 1605l186 323h231l-227 -323h-190z" />
<glyph unicode="&#x1eb0;" d="M71 0l512 1443h290l513 -1443h-277l-122 369h-531l-124 -369h-261zM341 1896h188q2 -74 55.5 -118.5t143.5 -44.5t143.5 44.5t55.5 118.5h188q0 -143 -105 -230.5t-282 -87.5t-282 87.5t-105 230.5zM409 2149h250l197 -243h-213zM516 573h411l-196 595h-17z" />
<glyph unicode="&#x1eb1;" horiz-adv-x="1179" d="M91 310q0 148 107.5 232t307.5 96l282 17v92q0 81 -53 124t-153 43q-86 0 -142 -29.5t-73 -84.5h-234q15 145 140.5 230.5t320.5 85.5q210 0 324.5 -97t114.5 -272v-747h-239v150h-17q-46 -79 -131.5 -123.5t-192.5 -44.5q-160 0 -261 90t-101 238zM207 1585h188 q2 -84 54.5 -135t144.5 -51t144.5 51t54.5 135h188q0 -151 -104.5 -246.5t-282.5 -95.5t-282.5 95.5t-104.5 246.5zM293 1928h231l186 -323h-190zM337 324q0 -68 52.5 -107.5t136.5 -39.5q112 0 187 64.5t75 159.5v87l-247 -16q-204 -13 -204 -148z" />
<glyph unicode="&#x1eb2;" d="M71 0l512 1443h290l513 -1443h-277l-122 369h-531l-124 -369h-261zM348 1866h176q2 -67 56 -107t148 -40t148 40t56 107h176q0 -132 -103 -215t-277 -83t-277 83t-103 215zM516 573h411l-196 595h-17zM541 2056v128q55 25 129 25q104 0 167 -52t63 -139q0 -73 -47 -131.5 t-132 -90.5l-77 99q44 15 69.5 43.5t25.5 61.5t-27 54.5t-70 21.5q-58 0 -101 -20z" />
<glyph unicode="&#x1eb3;" horiz-adv-x="1179" d="M91 310q0 148 107.5 232t307.5 96l282 17v92q0 81 -53 124t-153 43q-86 0 -142 -29.5t-73 -84.5h-234q15 145 140.5 230.5t320.5 85.5q210 0 324.5 -97t114.5 -272v-747h-239v150h-17q-46 -79 -131.5 -123.5t-192.5 -44.5q-160 0 -261 90t-101 238zM207 1579h188 q2 -79 55 -129.5t144 -50.5t144 50.5t55 129.5h188q0 -147 -105 -241.5t-282 -94.5t-282 94.5t-105 241.5zM337 324q0 -68 52.5 -107.5t136.5 -39.5q112 0 187 64.5t75 159.5v87l-247 -16q-204 -13 -204 -148zM393 1791v139q52 21 132 21q111 0 175.5 -52t64.5 -142 q0 -75 -50 -135t-137 -92l-84 105q49 16 76 43.5t27 57.5q0 33 -28 54t-72 21q-61 0 -104 -20z" />
<glyph unicode="&#x1eb4;" d="M71 0l512 1443h290l513 -1443h-277l-122 369h-531l-124 -369h-261zM351 1920q0 108 61.5 175.5t162.5 67.5q53 0 96.5 -19t68 -41.5t56.5 -41.5t64 -19q35 0 59 24.5t26 69.5h160q0 -107 -62 -176t-162 -69q-53 0 -96.5 19t-68 41.5t-56.5 41.5t-64 19q-38 0 -60.5 -25 t-24.5 -67h-160zM353 1841h181q1 -44 54.5 -79t139.5 -35t139.5 35t54.5 79h181q0 -108 -103.5 -185.5t-271.5 -77.5t-271.5 77.5t-103.5 185.5zM516 573h411l-196 595h-17z" />
<glyph unicode="&#x1eb5;" horiz-adv-x="1179" d="M91 310q0 148 107.5 232t307.5 96l282 17v92q0 81 -53 124t-153 43q-86 0 -142 -29.5t-73 -84.5h-234q15 145 140.5 230.5t320.5 85.5q210 0 324.5 -97t114.5 -272v-747h-239v150h-17q-46 -79 -131.5 -123.5t-192.5 -44.5q-160 0 -261 90t-101 238zM198 1690 q0 124 66 200t177 76q45 0 83.5 -14.5t64.5 -36t48.5 -42.5t45.5 -35.5t45 -14.5q47 0 69 32.5t23 106.5h170q0 -141 -65.5 -221t-177.5 -80q-45 0 -83.5 15t-64.5 36t-48.5 42t-45.5 36t-45 15q-90 0 -92 -115h-170zM207 1585h188q2 -84 54.5 -135t144.5 -51t144.5 51 t54.5 135h188q0 -151 -104.5 -246.5t-282.5 -95.5t-282.5 95.5t-104.5 246.5zM337 324q0 -68 52.5 -107.5t136.5 -39.5q112 0 187 64.5t75 159.5v87l-247 -16q-204 -13 -204 -148z" />
<glyph unicode="&#x1eb6;" d="M71 0l512 1443h290l513 -1443h-277l-122 369h-531l-124 -369h-261zM341 1900h188q2 -77 55.5 -122t143.5 -45t143.5 45t55.5 122h188q0 -145 -104.5 -233.5t-282.5 -88.5t-282.5 88.5t-104.5 233.5zM516 573h411l-196 595h-17zM577 -278q0 62 40.5 103.5t103.5 41.5 q62 0 103 -41.5t41 -103.5q0 -61 -41 -102.5t-103 -41.5t-103 41.5t-41 102.5z" />
<glyph unicode="&#x1eb7;" horiz-adv-x="1179" d="M91 310q0 148 107.5 232t307.5 96l282 17v92q0 81 -53 124t-153 43q-86 0 -142 -29.5t-73 -84.5h-234q15 145 140.5 230.5t320.5 85.5q210 0 324.5 -97t114.5 -272v-747h-239v150h-17q-46 -79 -131.5 -123.5t-192.5 -44.5q-160 0 -261 90t-101 238zM206 1585h188 q2 -84 54.5 -135t144.5 -51t144.5 51t54.5 135h188q0 -152 -104.5 -247t-282.5 -95t-282.5 95t-104.5 247zM337 324q0 -68 52.5 -107.5t136.5 -39.5q112 0 187 64.5t75 159.5v87l-247 -16q-204 -13 -204 -148zM431 -278q0 62 40.5 103.5t103.5 41.5q62 0 103 -41.5 t41 -103.5q0 -61 -41 -102.5t-103 -41.5t-103 41.5t-41 102.5z" />
<glyph unicode="&#x1eb8;" horiz-adv-x="1254" d="M178 0v1443h934v-223h-676v-383h639v-210h-639v-404h676v-223h-934zM501 -278q0 62 40.5 103.5t103.5 41.5q62 0 103 -41.5t41 -103.5q0 -61 -41 -102.5t-103 -41.5t-103 41.5t-41 102.5z" />
<glyph unicode="&#x1eb9;" horiz-adv-x="1208" d="M98 543q0 264 138 418.5t376 154.5q234 0 366.5 -146.5t132.5 -405.5v-80h-764v-13q5 -137 78.5 -216.5t195.5 -79.5q188 0 244 126h235q-35 -150 -164.5 -236.5t-321.5 -86.5q-241 0 -378.5 150.5t-137.5 414.5zM348 653h515q-4 122 -72 194t-180 72q-111 0 -183 -73 t-80 -193zM471 -278q0 62 40.5 103.5t103.5 41.5q62 0 103 -41.5t41 -103.5q0 -61 -41 -102.5t-103 -41.5t-103 41.5t-41 102.5z" />
<glyph unicode="&#x1eba;" horiz-adv-x="1254" d="M178 0v1443h934v-223h-676v-383h639v-210h-639v-404h676v-223h-934zM450 1809v142q63 23 146 23q109 0 174.5 -54t65.5 -145q0 -77 -52 -139.5t-141 -95.5l-85 108q48 16 77.5 44.5t29.5 60.5q0 34 -29 55t-75 21q-68 0 -111 -20z" />
<glyph unicode="&#x1ebb;" horiz-adv-x="1208" d="M98 543q0 264 138 418.5t376 154.5q234 0 366.5 -146.5t132.5 -405.5v-80h-764v-13q5 -137 78.5 -216.5t195.5 -79.5q188 0 244 126h235q-35 -150 -164.5 -236.5t-321.5 -86.5q-241 0 -378.5 150.5t-137.5 414.5zM348 653h515q-4 122 -72 194t-180 72q-111 0 -183 -73 t-80 -193zM446 1480v144q65 23 148 23q110 0 177 -54.5t67 -146.5q0 -78 -53 -142t-143 -97l-87 110q49 16 79 45t30 62q0 34 -29 55.5t-76 21.5q-67 0 -113 -21z" />
<glyph unicode="&#x1ebc;" horiz-adv-x="1254" d="M178 0v1443h934v-223h-676v-383h639v-210h-639v-404h676v-223h-934zM248 1576q0 142 68 226t183 84q43 0 80 -15t63 -37t48 -44t45 -37t44 -15q91 0 92 145h170q0 -142 -67.5 -225.5t-182.5 -83.5q-52 0 -97.5 23.5t-71.5 51t-56 51t-55 23.5q-91 0 -92 -147h-171z" />
<glyph unicode="&#x1ebd;" horiz-adv-x="1208" d="M98 543q0 264 138 418.5t376 154.5q234 0 366.5 -146.5t132.5 -405.5v-80h-764v-13q5 -137 78.5 -216.5t195.5 -79.5q188 0 244 126h235q-35 -150 -164.5 -236.5t-321.5 -86.5q-241 0 -378.5 150.5t-137.5 414.5zM218 1246q0 142 68 226t183 84q43 0 80 -15t63 -37 t48 -44t45 -37t44 -15q91 0 92 145h170q0 -142 -67.5 -225.5t-182.5 -83.5q-52 0 -97.5 23.5t-71.5 51t-56 51t-55 23.5q-91 0 -92 -147h-171zM348 653h515q-4 122 -72 194t-180 72q-111 0 -183 -73t-80 -193z" />
<glyph unicode="&#x1ebe;" horiz-adv-x="1254" d="M178 0v1443h934v-223h-676v-383h639v-210h-639v-404h676v-223h-934zM233 1578l284 256h256l284 -256h-254l-149 140h-18l-149 -140h-254zM868 1873l196 276h252l-224 -276h-224z" />
<glyph unicode="&#x1ebf;" horiz-adv-x="1208" d="M98 543q0 264 138 418.5t376 154.5q234 0 366.5 -146.5t132.5 -405.5v-80h-764v-13q5 -137 78.5 -216.5t195.5 -79.5q188 0 244 126h235q-35 -150 -164.5 -236.5t-321.5 -86.5q-241 0 -378.5 150.5t-137.5 414.5zM213 1252l275 336h248l275 -336h-233l-157 202h-18 l-157 -202h-233zM348 653h515q-4 122 -72 194t-180 72q-111 0 -183 -73t-80 -193zM822 1605l191 323h244l-227 -323h-208z" />
<glyph unicode="&#x1ec0;" horiz-adv-x="1254" d="M178 0v1443h934v-223h-676v-383h639v-210h-639v-404h676v-223h-934zM233 1578l284 256h256l284 -256h-254l-149 140h-18l-149 -140h-254zM690 2149h252l196 -276h-224z" />
<glyph unicode="&#x1ec1;" horiz-adv-x="1208" d="M98 543q0 264 138 418.5t376 154.5q234 0 366.5 -146.5t132.5 -405.5v-80h-764v-13q5 -137 78.5 -216.5t195.5 -79.5q188 0 244 126h235q-35 -150 -164.5 -236.5t-321.5 -86.5q-241 0 -378.5 150.5t-137.5 414.5zM205 1243l278 335h258l278 -335h-241l-157 202h-18 l-157 -202h-241zM348 653h515q-4 122 -72 194t-180 72q-111 0 -183 -73t-80 -193zM662 1928h244l191 -323h-208z" />
<glyph unicode="&#x1ec2;" horiz-adv-x="1254" d="M178 0v1443h934v-223h-676v-383h639v-210h-639v-404h676v-223h-934zM233 1578l284 256h256l284 -256h-254l-149 140h-18l-149 -140h-254zM778 2010v130q47 18 136 18q98 0 157 -50t59 -133q0 -71 -41 -127.5t-113 -83.5l-103 91q42 16 65 43t23 58t-25 50t-65 19 q-58 0 -93 -15z" />
<glyph unicode="&#x1ec3;" horiz-adv-x="1208" d="M98 543q0 264 138 418.5t376 154.5q234 0 366.5 -146.5t132.5 -405.5v-80h-764v-13q5 -137 78.5 -216.5t195.5 -79.5q188 0 244 126h235q-35 -150 -164.5 -236.5t-321.5 -86.5q-241 0 -378.5 150.5t-137.5 414.5zM205 1243l278 335h258l278 -335h-241l-157 202h-18 l-157 -202h-241zM348 653h515q-4 122 -72 194t-180 72q-111 0 -183 -73t-80 -193zM786 1766v144q55 21 136 21q114 0 180 -53.5t66 -146.5q0 -78 -51.5 -141.5t-141.5 -96.5l-86 110q48 16 77 45t29 61q0 34 -28.5 55.5t-74.5 21.5q-63 0 -106 -20z" />
<glyph unicode="&#x1ec4;" horiz-adv-x="1254" d="M178 0v1443h934v-223h-676v-383h639v-210h-639v-404h676v-223h-934zM233 1578l284 252h256l284 -252h-254l-149 140h-18l-149 -140h-254zM263 1899q0 120 65.5 192t170.5 72q46 0 82 -13t59 -31t43 -36t44 -31t51 -13q37 0 61 27t28 83h160q0 -120 -65.5 -193.5 t-170.5 -73.5q-46 0 -82 13t-59 31t-43 36.5t-44 31.5t-51 13q-39 0 -62.5 -27.5t-26.5 -80.5h-160z" />
<glyph unicode="&#x1ec5;" horiz-adv-x="1208" d="M98 543q0 264 138 418.5t376 154.5q234 0 366.5 -146.5t132.5 -405.5v-80h-764v-13q5 -137 78.5 -216.5t195.5 -79.5q188 0 244 126h235q-35 -150 -164.5 -236.5t-321.5 -86.5q-241 0 -378.5 150.5t-137.5 414.5zM205 1243l278 335h258l278 -335h-241l-157 202h-18 l-157 -202h-241zM216 1663q0 142 65 222.5t178 80.5q45 0 83.5 -14.5t64.5 -36t48.5 -42.5t45.5 -35.5t45 -14.5q47 0 69 32.5t23 106.5h170q0 -141 -65.5 -221t-177.5 -80q-45 0 -83.5 15t-64.5 36t-48.5 42t-45.5 36t-45 15q-47 0 -69 -34t-23 -108h-170zM348 653h515 q-4 122 -72 194t-180 72q-111 0 -183 -73t-80 -193z" />
<glyph unicode="&#x1ec6;" horiz-adv-x="1254" d="M178 0v1443h934v-223h-676v-383h639v-210h-639v-404h676v-223h-934zM239 1585l290 321h232l290 -321h-242l-155 183h-18l-155 -183h-242zM501 -278q0 62 40.5 103.5t103.5 41.5q62 0 103 -41.5t41 -103.5q0 -61 -41 -102.5t-103 -41.5t-103 41.5t-41 102.5z" />
<glyph unicode="&#x1ec7;" horiz-adv-x="1208" d="M98 543q0 264 138 418.5t376 154.5q234 0 366.5 -146.5t132.5 -405.5v-80h-764v-13q5 -137 78.5 -216.5t195.5 -79.5q188 0 244 126h235q-35 -150 -164.5 -236.5t-321.5 -86.5q-241 0 -378.5 150.5t-137.5 414.5zM205 1243l277 348h259l277 -348h-239l-159 215h-17 l-159 -215h-239zM348 653h515q-4 122 -72 194t-180 72q-111 0 -183 -73t-80 -193zM471 -278q0 62 40.5 103.5t103.5 41.5q62 0 103 -41.5t41 -103.5q0 -61 -41 -102.5t-103 -41.5t-103 41.5t-41 102.5z" />
<glyph unicode="&#x1ec8;" horiz-adv-x="614" d="M112 1809v142q63 23 146 23q109 0 174.5 -54t65.5 -145q0 -77 -52 -139.5t-141 -95.5l-85 108q48 16 77.5 44.5t29.5 60.5q0 34 -29 55t-75 21q-68 0 -111 -20zM178 0v1443h258v-1443h-258z" />
<glyph unicode="&#x1ec9;" horiz-adv-x="557" d="M113 1487v144q65 23 148 23q110 0 177 -54.5t67 -146.5q0 -78 -53 -142t-143 -97l-87 110q49 16 79 45t30 62q0 34 -29 55.5t-76 21.5q-68 0 -113 -21zM155 0v1094h247v-1094h-247z" />
<glyph unicode="&#x1eca;" horiz-adv-x="614" d="M163 -278q0 62 40.5 103.5t103.5 41.5q62 0 103 -41.5t41 -103.5q0 -61 -41 -102.5t-103 -41.5t-103 41.5t-41 102.5zM178 0v1443h258v-1443h-258z" />
<glyph unicode="&#x1ecb;" horiz-adv-x="557" d="M125 1409q0 60 43 98.5t110 38.5q68 0 110.5 -38.5t42.5 -98.5t-42.5 -98.5t-110.5 -38.5q-67 0 -110 38.5t-43 98.5zM134 -278q0 62 40.5 103.5t103.5 41.5q62 0 103 -41.5t41 -103.5q0 -61 -41 -102.5t-103 -41.5t-103 41.5t-41 102.5zM155 0v1094h247v-1094h-247z" />
<glyph unicode="&#x1ecc;" horiz-adv-x="1599" d="M117 722q0 349 184.5 553t499.5 204q314 0 497.5 -204t183.5 -553t-183 -553.5t-498 -204.5q-317 0 -500.5 204t-183.5 554zM381 722q0 -243 112.5 -386t307.5 -143q192 0 304.5 143.5t112.5 385.5t-112.5 385t-304.5 143q-193 0 -306.5 -143t-113.5 -385zM657 -278 q0 62 40.5 103.5t103.5 41.5q62 0 103 -41.5t41 -103.5q0 -61 -41 -102.5t-103 -41.5t-103 41.5t-41 102.5z" />
<glyph unicode="&#x1ecd;" horiz-adv-x="1248" d="M98 547q0 264 141 416.5t385 152.5q245 0 385.5 -152t140.5 -417q0 -266 -140.5 -417.5t-385.5 -151.5q-246 0 -386 151.5t-140 417.5zM352 547q0 -172 71 -266.5t201 -94.5t200.5 94.5t70.5 266.5q0 171 -71 266t-200 95q-130 0 -201 -95t-71 -266zM480 -278 q0 62 40.5 103.5t103.5 41.5q62 0 103 -41.5t41 -103.5q0 -61 -41 -102.5t-103 -41.5t-103 41.5t-41 102.5z" />
<glyph unicode="&#x1ece;" horiz-adv-x="1599" d="M117 722q0 349 184.5 553t499.5 204q314 0 497.5 -204t183.5 -553t-183 -553.5t-498 -204.5q-317 0 -500.5 204t-183.5 554zM381 722q0 -243 112.5 -386t307.5 -143q192 0 304.5 143.5t112.5 385.5t-112.5 385t-304.5 143q-193 0 -306.5 -143t-113.5 -385zM606 1809v142 q63 23 146 23q109 0 174.5 -54t65.5 -145q0 -77 -52 -139.5t-141 -95.5l-85 108q48 16 77.5 44.5t29.5 60.5q0 34 -29 55t-75 21q-68 0 -111 -20z" />
<glyph unicode="&#x1ecf;" horiz-adv-x="1248" d="M98 547q0 264 141 416.5t385 152.5q245 0 385.5 -152t140.5 -417q0 -266 -140.5 -417.5t-385.5 -151.5q-246 0 -386 151.5t-140 417.5zM352 547q0 -172 71 -266.5t201 -94.5t200.5 94.5t70.5 266.5q0 171 -71 266t-200 95q-130 0 -201 -95t-71 -266zM458 1480v144 q65 23 148 23q110 0 177 -54.5t67 -146.5q0 -78 -53 -142t-143 -97l-87 110q49 16 79 45t30 62q0 34 -29 55.5t-76 21.5q-67 0 -113 -21z" />
<glyph unicode="&#x1ed0;" horiz-adv-x="1599" d="M117 722q0 349 184.5 553t499.5 204q314 0 497.5 -204t183.5 -553t-183 -553.5t-498 -204.5q-317 0 -500.5 204t-183.5 554zM381 722q0 -243 112.5 -386t307.5 -143q192 0 304.5 143.5t112.5 385.5t-112.5 385t-304.5 143q-193 0 -306.5 -143t-113.5 -385zM389 1578 l284 256h256l284 -256h-254l-149 140h-18l-149 -140h-254zM1024 1873l196 276h252l-224 -276h-224z" />
<glyph unicode="&#x1ed1;" horiz-adv-x="1248" d="M98 547q0 264 141 416.5t385 152.5q245 0 385.5 -152t140.5 -417q0 -266 -140.5 -417.5t-385.5 -151.5q-246 0 -386 151.5t-140 417.5zM225 1252l275 336h248l275 -336h-233l-157 202h-18l-157 -202h-233zM352 547q0 -172 71 -266.5t201 -94.5t200.5 94.5t70.5 266.5 q0 171 -71 266t-200 95q-130 0 -201 -95t-71 -266zM834 1605l191 323h244l-227 -323h-208z" />
<glyph unicode="&#x1ed2;" horiz-adv-x="1599" d="M117 722q0 349 184.5 553t499.5 204q314 0 497.5 -204t183.5 -553t-183 -553.5t-498 -204.5q-317 0 -500.5 204t-183.5 554zM381 722q0 -243 112.5 -386t307.5 -143q192 0 304.5 143.5t112.5 385.5t-112.5 385t-304.5 143q-193 0 -306.5 -143t-113.5 -385zM389 1578 l284 256h256l284 -256h-254l-149 140h-18l-149 -140h-254zM846 2149h252l196 -276h-224z" />
<glyph unicode="&#x1ed3;" horiz-adv-x="1248" d="M98 547q0 264 141 416.5t385 152.5q245 0 385.5 -152t140.5 -417q0 -266 -140.5 -417.5t-385.5 -151.5q-246 0 -386 151.5t-140 417.5zM217 1243l278 335h258l278 -335h-241l-157 202h-18l-157 -202h-241zM352 547q0 -172 71 -266.5t201 -94.5t200.5 94.5t70.5 266.5 q0 171 -71 266t-200 95q-130 0 -201 -95t-71 -266zM674 1928h244l191 -323h-208z" />
<glyph unicode="&#x1ed4;" horiz-adv-x="1599" d="M117 722q0 349 184.5 553t499.5 204q314 0 497.5 -204t183.5 -553t-183 -553.5t-498 -204.5q-317 0 -500.5 204t-183.5 554zM381 722q0 -243 112.5 -386t307.5 -143q192 0 304.5 143.5t112.5 385.5t-112.5 385t-304.5 143q-193 0 -306.5 -143t-113.5 -385zM389 1578 l284 256h256l284 -256h-254l-149 140h-18l-149 -140h-254zM934 2010v130q47 18 136 18q98 0 157 -50t59 -133q0 -71 -41 -127.5t-113 -83.5l-103 91q42 16 65 43t23 58t-25 50t-65 19q-58 0 -93 -15z" />
<glyph unicode="&#x1ed5;" horiz-adv-x="1248" d="M98 547q0 264 141 416.5t385 152.5q245 0 385.5 -152t140.5 -417q0 -266 -140.5 -417.5t-385.5 -151.5q-246 0 -386 151.5t-140 417.5zM217 1243l278 335h258l278 -335h-241l-157 202h-18l-157 -202h-241zM352 547q0 -172 71 -266.5t201 -94.5t200.5 94.5t70.5 266.5 q0 171 -71 266t-200 95q-130 0 -201 -95t-71 -266zM798 1766v144q55 21 136 21q114 0 180 -53.5t66 -146.5q0 -78 -51.5 -141.5t-141.5 -96.5l-86 110q48 16 77 45t29 61q0 34 -28.5 55.5t-74.5 21.5q-63 0 -106 -20z" />
<glyph unicode="&#x1ed6;" horiz-adv-x="1599" d="M117 722q0 349 184.5 553t499.5 204q314 0 497.5 -204t183.5 -553t-183 -553.5t-498 -204.5q-317 0 -500.5 204t-183.5 554zM381 722q0 -243 112.5 -386t307.5 -143q192 0 304.5 143.5t112.5 385.5t-112.5 385t-304.5 143q-193 0 -306.5 -143t-113.5 -385zM389 1578 l284 252h256l284 -252h-254l-149 140h-18l-149 -140h-254zM419 1899q0 120 65.5 192t170.5 72q46 0 82 -13t59 -31t43 -36t44 -31t51 -13q37 0 61 27t28 83h160q0 -120 -65.5 -193.5t-170.5 -73.5q-46 0 -82 13t-59 31t-43 36.5t-44 31.5t-51 13q-39 0 -62.5 -27.5 t-26.5 -80.5h-160z" />
<glyph unicode="&#x1ed7;" horiz-adv-x="1248" d="M98 547q0 264 141 416.5t385 152.5q245 0 385.5 -152t140.5 -417q0 -266 -140.5 -417.5t-385.5 -151.5q-246 0 -386 151.5t-140 417.5zM217 1243l278 335h258l278 -335h-241l-157 202h-18l-157 -202h-241zM228 1663q0 142 65 222.5t178 80.5q45 0 83.5 -14.5t64.5 -36 t48.5 -42.5t45.5 -35.5t45 -14.5q47 0 69 32.5t23 106.5h170q0 -141 -65.5 -221t-177.5 -80q-45 0 -83.5 15t-64.5 36t-48.5 42t-45.5 36t-45 15q-47 0 -69 -34t-23 -108h-170zM352 547q0 -172 71 -266.5t201 -94.5t200.5 94.5t70.5 266.5q0 171 -71 266t-200 95 q-130 0 -201 -95t-71 -266z" />
<glyph unicode="&#x1ed8;" horiz-adv-x="1599" d="M117 722q0 349 184.5 553t499.5 204q314 0 497.5 -204t183.5 -553t-183 -553.5t-498 -204.5q-317 0 -500.5 204t-183.5 554zM381 722q0 -243 112.5 -386t307.5 -143q192 0 304.5 143.5t112.5 385.5t-112.5 385t-304.5 143q-193 0 -306.5 -143t-113.5 -385zM395 1585 l290 321h232l290 -321h-242l-155 183h-18l-155 -183h-242zM657 -278q0 62 40.5 103.5t103.5 41.5q62 0 103 -41.5t41 -103.5q0 -61 -41 -102.5t-103 -41.5t-103 41.5t-41 102.5z" />
<glyph unicode="&#x1ed9;" horiz-adv-x="1248" d="M98 547q0 264 141 416.5t385 152.5q245 0 385.5 -152t140.5 -417q0 -266 -140.5 -417.5t-385.5 -151.5q-246 0 -386 151.5t-140 417.5zM217 1243l277 348h259l277 -348h-239l-159 215h-17l-159 -215h-239zM352 547q0 -172 71 -266.5t201 -94.5t200.5 94.5t70.5 266.5 q0 171 -71 266t-200 95q-130 0 -201 -95t-71 -266zM480 -278q0 62 40.5 103.5t103.5 41.5q62 0 103 -41.5t41 -103.5q0 -61 -41 -102.5t-103 -41.5t-103 41.5t-41 102.5z" />
<glyph unicode="&#x1eda;" horiz-adv-x="1643" d="M117 722q0 349 184.5 553t499.5 204q83 0 215.5 -23.5t209.5 -23.5q59 0 84 22t25 69v155h205v-219q0 -92 -54 -143.5t-144 -51.5h-60v-15q89 -65 144.5 -211t55.5 -316q0 -349 -183 -553.5t-498 -204.5q-317 0 -500.5 204t-183.5 554zM381 722q0 -243 112.5 -386 t307.5 -143q192 0 304.5 143.5t112.5 385.5t-112.5 385t-304.5 143q-193 0 -306.5 -143t-113.5 -385zM669 1585l288 310h283l-321 -310h-250z" />
<glyph unicode="&#x1edb;" horiz-adv-x="1327" d="M98 547q0 265 140.5 417t385.5 152q72 0 154.5 -16.5t131.5 -16.5q62 0 85.5 20t23.5 68v143h205v-211q0 -86 -46 -133.5t-121 -47.5h-50v-11q64 -43 103.5 -142.5t39.5 -221.5q0 -266 -140 -417.5t-386 -151.5t-386 151.5t-140 417.5zM352 547q0 -172 71 -266.5 t201 -94.5q129 0 200 94.5t71 266.5t-71 266.5t-200 94.5t-200.5 -94.5t-71.5 -266.5zM478 1275l249 347h277l-284 -347h-242z" />
<glyph unicode="&#x1edc;" horiz-adv-x="1643" d="M117 722q0 349 184.5 553t499.5 204q83 0 215.5 -23.5t209.5 -23.5q59 0 84 22t25 69v155h205v-219q0 -92 -54 -143.5t-144 -51.5h-60v-15q89 -65 144.5 -211t55.5 -316q0 -349 -183 -553.5t-498 -204.5q-317 0 -500.5 204t-183.5 554zM357 1895h283l288 -310h-250z M381 722q0 -243 112.5 -386t307.5 -143q192 0 304.5 143.5t112.5 385.5t-112.5 385t-304.5 143q-193 0 -306.5 -143t-113.5 -385z" />
<glyph unicode="&#x1edd;" horiz-adv-x="1327" d="M98 547q0 265 140.5 417t385.5 152q72 0 154.5 -16.5t131.5 -16.5q62 0 85.5 20t23.5 68v143h205v-211q0 -86 -46 -133.5t-121 -47.5h-50v-11q64 -43 103.5 -142.5t39.5 -221.5q0 -266 -140 -417.5t-386 -151.5t-386 151.5t-140 417.5zM238 1622h277l249 -347h-242z M352 547q0 -172 71 -266.5t201 -94.5q129 0 200 94.5t71 266.5t-71 266.5t-200 94.5t-200.5 -94.5t-71.5 -266.5z" />
<glyph unicode="&#x1ede;" horiz-adv-x="1643" d="M117 722q0 349 184.5 553t499.5 204q83 0 215.5 -23.5t209.5 -23.5q59 0 84 22t25 69v155h205v-219q0 -92 -54 -143.5t-144 -51.5h-60v-15q89 -65 144.5 -211t55.5 -316q0 -349 -183 -553.5t-498 -204.5q-317 0 -500.5 204t-183.5 554zM381 722q0 -243 112.5 -386 t307.5 -143q192 0 304.5 143.5t112.5 385.5t-112.5 385t-304.5 143q-193 0 -306.5 -143t-113.5 -385zM602 1809v142q63 23 146 23q109 0 174.5 -54t65.5 -145q0 -77 -52 -139.5t-141 -95.5l-85 108q48 16 77.5 44.5t29.5 60.5q0 34 -29 55t-75 21q-68 0 -111 -20z" />
<glyph unicode="&#x1edf;" horiz-adv-x="1327" d="M98 547q0 265 140.5 417t385.5 152q72 0 154.5 -16.5t131.5 -16.5q62 0 85.5 20t23.5 68v143h205v-211q0 -86 -46 -133.5t-121 -47.5h-50v-11q64 -43 103.5 -142.5t39.5 -221.5q0 -266 -140 -417.5t-386 -151.5t-386 151.5t-140 417.5zM352 547q0 -172 71 -266.5 t201 -94.5q129 0 200 94.5t71 266.5t-71 266.5t-200 94.5t-200.5 -94.5t-71.5 -266.5zM452 1480v144q65 23 148 23q110 0 177 -54.5t67 -146.5q0 -78 -53 -142t-143 -97l-87 110q49 16 79 45t30 62q0 34 -29 55.5t-76 21.5q-68 0 -113 -21z" />
<glyph unicode="&#x1ee0;" horiz-adv-x="1643" d="M117 722q0 349 184.5 553t499.5 204q83 0 215.5 -23.5t209.5 -23.5q59 0 84 22t25 69v155h205v-219q0 -92 -54 -143.5t-144 -51.5h-60v-15q89 -65 144.5 -211t55.5 -316q0 -349 -183 -553.5t-498 -204.5q-317 0 -500.5 204t-183.5 554zM381 722q0 -243 112.5 -386 t307.5 -143q192 0 304.5 143.5t112.5 385.5t-112.5 385t-304.5 143q-193 0 -306.5 -143t-113.5 -385zM400 1576q0 142 68 226t183 84q43 0 80 -15t63 -37t48 -44t45 -37t44 -15q91 0 92 145h170q0 -142 -67.5 -225.5t-182.5 -83.5q-52 0 -97.5 23.5t-71.5 51t-56 51 t-55 23.5q-91 0 -92 -147h-171z" />
<glyph unicode="&#x1ee1;" horiz-adv-x="1327" d="M98 547q0 265 140.5 417t385.5 152q72 0 154.5 -16.5t131.5 -16.5q62 0 85.5 20t23.5 68v143h205v-211q0 -86 -46 -133.5t-121 -47.5h-50v-11q64 -43 103.5 -142.5t39.5 -221.5q0 -266 -140 -417.5t-386 -151.5t-386 151.5t-140 417.5zM178 1246q0 142 68 226t183 84 q43 0 80 -15t63 -37t48 -44t45 -37t44 -15q91 0 92 145h170q0 -142 -67.5 -225.5t-182.5 -83.5q-52 0 -97.5 23.5t-71.5 51t-56 51t-55 23.5q-91 0 -92 -147h-171zM352 547q0 -172 71 -266.5t201 -94.5q129 0 200 94.5t71 266.5t-71 266.5t-200 94.5t-200.5 -94.5 t-71.5 -266.5z" />
<glyph unicode="&#x1ee2;" horiz-adv-x="1643" d="M117 722q0 349 184.5 553t499.5 204q83 0 215.5 -23.5t209.5 -23.5q59 0 84 22t25 69v155h205v-219q0 -92 -54 -143.5t-144 -51.5h-60v-15q89 -65 144.5 -211t55.5 -316q0 -349 -183 -553.5t-498 -204.5q-317 0 -500.5 204t-183.5 554zM381 722q0 -243 112.5 -386 t307.5 -143q192 0 304.5 143.5t112.5 385.5t-112.5 385t-304.5 143q-193 0 -306.5 -143t-113.5 -385zM653 -278q0 62 40.5 103.5t103.5 41.5q62 0 103 -41.5t41 -103.5q0 -61 -41 -102.5t-103 -41.5t-103 41.5t-41 102.5z" />
<glyph unicode="&#x1ee3;" horiz-adv-x="1327" d="M98 547q0 265 140.5 417t385.5 152q72 0 154.5 -16.5t131.5 -16.5q62 0 85.5 20t23.5 68v143h205v-211q0 -86 -46 -133.5t-121 -47.5h-50v-11q64 -43 103.5 -142.5t39.5 -221.5q0 -266 -140 -417.5t-386 -151.5t-386 151.5t-140 417.5zM352 547q0 -172 71 -266.5 t201 -94.5q129 0 200 94.5t71 266.5t-71 266.5t-200 94.5t-200.5 -94.5t-71.5 -266.5zM474 -278q0 62 40.5 103.5t103.5 41.5q62 0 103 -41.5t41 -103.5q0 -61 -41 -102.5t-103 -41.5t-103 41.5t-41 102.5z" />
<glyph unicode="&#x1ee4;" horiz-adv-x="1550" d="M182 497v946h257v-922q0 -149 89 -237.5t247 -88.5t246.5 88.5t88.5 237.5v922h258v-946q0 -239 -161 -386t-432 -147t-432 147t-161 386zM631 -278q0 62 40.5 103.5t103.5 41.5q62 0 103 -41.5t41 -103.5q0 -61 -41 -102.5t-103 -41.5t-103 41.5t-41 102.5z" />
<glyph unicode="&#x1ee5;" horiz-adv-x="1256" d="M142 383v711h248v-649q0 -126 53 -187.5t164 -61.5q120 0 184.5 69t64.5 192v637h248v-1094h-239v174h-17q-83 -196 -327 -196q-179 0 -279 106.5t-100 298.5zM476 -278q0 62 40.5 103.5t103.5 41.5q62 0 103 -41.5t41 -103.5q0 -61 -41 -102.5t-103 -41.5t-103 41.5 t-41 102.5z" />
<glyph unicode="&#x1ee6;" horiz-adv-x="1550" d="M182 497v946h257v-922q0 -149 89 -237.5t247 -88.5t246.5 88.5t88.5 237.5v922h258v-946q0 -239 -161 -386t-432 -147t-432 147t-161 386zM580 1809v142q63 23 146 23q109 0 174.5 -54t65.5 -145q0 -77 -52 -139.5t-141 -95.5l-85 108q48 16 77.5 44.5t29.5 60.5 q0 34 -29 55t-75 21q-68 0 -111 -20z" />
<glyph unicode="&#x1ee7;" horiz-adv-x="1256" d="M142 383v711h248v-649q0 -126 53 -187.5t164 -61.5q120 0 184.5 69t64.5 192v637h248v-1094h-239v174h-17q-83 -196 -327 -196q-179 0 -279 106.5t-100 298.5zM457 1487v144q65 23 148 23q110 0 177 -54.5t67 -146.5q0 -78 -53 -142t-143 -97l-87 110q49 16 79 45t30 62 q0 34 -29 55.5t-76 21.5q-68 0 -113 -21z" />
<glyph unicode="&#x1ee8;" horiz-adv-x="1717" d="M182 497v946h257v-922q0 -151 90.5 -238.5t245.5 -87.5t245 87.5t90 238.5v922h265q84 0 84 80v175h205v-224q0 -98 -59 -151.5t-159 -53.5h-78v-772q0 -241 -162.5 -387t-430.5 -146q-269 0 -431 146t-162 387zM647 1585l288 310h283l-321 -310h-250z" />
<glyph unicode="&#x1ee9;" horiz-adv-x="1438" d="M142 383v711h248v-649q0 -125 53 -187t164 -62q119 0 184 69t65 192v637h237q84 0 84 80v157h205v-206q0 -98 -59 -151.5t-159 -53.5h-60v-920h-239v174h-17q-84 -196 -327 -196q-181 0 -280 107t-99 298zM494 1275l249 347h277l-284 -347h-242z" />
<glyph unicode="&#x1eea;" horiz-adv-x="1717" d="M182 497v946h257v-922q0 -151 90.5 -238.5t245.5 -87.5t245 87.5t90 238.5v922h265q84 0 84 80v175h205v-224q0 -98 -59 -151.5t-159 -53.5h-78v-772q0 -241 -162.5 -387t-430.5 -146q-269 0 -431 146t-162 387zM335 1895h283l288 -310h-250z" />
<glyph unicode="&#x1eeb;" horiz-adv-x="1438" d="M142 383v711h248v-649q0 -125 53 -187t164 -62q119 0 184 69t65 192v637h237q84 0 84 80v157h205v-206q0 -98 -59 -151.5t-159 -53.5h-60v-920h-239v174h-17q-84 -196 -327 -196q-181 0 -280 107t-99 298zM254 1622h277l249 -347h-242z" />
<glyph unicode="&#x1eec;" horiz-adv-x="1717" d="M182 497v946h257v-922q0 -151 90.5 -238.5t245.5 -87.5t245 87.5t90 238.5v922h265q84 0 84 80v175h205v-224q0 -98 -59 -151.5t-159 -53.5h-78v-772q0 -241 -162.5 -387t-430.5 -146q-269 0 -431 146t-162 387zM580 1809v142q63 23 146 23q109 0 174.5 -54t65.5 -145 q0 -77 -52 -139.5t-141 -95.5l-85 108q48 16 77.5 44.5t29.5 60.5q0 34 -29 55t-75 21q-68 0 -111 -20z" />
<glyph unicode="&#x1eed;" horiz-adv-x="1438" d="M142 383v711h248v-649q0 -125 53 -187t164 -62q119 0 184 69t65 192v637h237q84 0 84 80v157h205v-206q0 -98 -59 -151.5t-159 -53.5h-60v-920h-239v174h-17q-84 -196 -327 -196q-181 0 -280 107t-99 298zM469 1487v144q65 23 148 23q110 0 177 -54.5t67 -146.5 q0 -78 -53 -142t-143 -97l-87 110q49 16 79 45t30 62q0 34 -29 55.5t-76 21.5q-68 0 -113 -21z" />
<glyph unicode="&#x1eee;" horiz-adv-x="1717" d="M182 497v946h257v-922q0 -151 90.5 -238.5t245.5 -87.5t245 87.5t90 238.5v922h265q84 0 84 80v175h205v-224q0 -98 -59 -151.5t-159 -53.5h-78v-772q0 -241 -162.5 -387t-430.5 -146q-269 0 -431 146t-162 387zM378 1576q0 142 68 226t183 84q43 0 80 -15t63 -37t48 -44 t45 -37t44 -15q91 0 92 145h170q0 -142 -67.5 -225.5t-182.5 -83.5q-52 0 -97.5 23.5t-71.5 51t-56 51t-55 23.5q-91 0 -92 -147h-171z" />
<glyph unicode="&#x1eef;" horiz-adv-x="1438" d="M142 383v711h248v-649q0 -125 53 -187t164 -62q119 0 184 69t65 192v637h237q84 0 84 80v157h205v-206q0 -98 -59 -151.5t-159 -53.5h-60v-920h-239v174h-17q-84 -196 -327 -196q-181 0 -280 107t-99 298zM240 1246q0 142 68 226t183 84q43 0 80 -15t63 -37t48 -44 t45 -37t44 -15q91 0 92 145h170q0 -142 -67.5 -225.5t-182.5 -83.5q-52 0 -97.5 23.5t-71.5 51t-56 51t-55 23.5q-91 0 -92 -147h-171z" />
<glyph unicode="&#x1ef0;" horiz-adv-x="1717" d="M182 497v946h257v-922q0 -151 90.5 -238.5t245.5 -87.5t245 87.5t90 238.5v922h265q84 0 84 80v175h205v-224q0 -98 -59 -151.5t-159 -53.5h-78v-772q0 -241 -162.5 -387t-430.5 -146q-269 0 -431 146t-162 387zM631 -278q0 62 40.5 103.5t103.5 41.5q62 0 103 -41.5 t41 -103.5q0 -61 -41 -102.5t-103 -41.5t-103 41.5t-41 102.5z" />
<glyph unicode="&#x1ef1;" horiz-adv-x="1438" d="M142 383v711h248v-649q0 -125 53 -187t164 -62q119 0 184 69t65 192v637h237q84 0 84 80v157h205v-206q0 -98 -59 -151.5t-159 -53.5h-60v-920h-239v174h-17q-84 -196 -327 -196q-181 0 -280 107t-99 298zM488 -278q0 62 40.5 103.5t103.5 41.5q62 0 103 -41.5t41 -103.5 q0 -61 -41 -102.5t-103 -41.5t-103 41.5t-41 102.5z" />
<glyph unicode="&#x1ef2;" horiz-adv-x="1412" d="M71 1443h283l344 -617h17l343 617h283l-506 -879v-564h-258v564zM266 1895h283l288 -310h-250z" />
<glyph unicode="&#x1ef3;" horiz-adv-x="1183" d="M60 1094h272l256 -854h17l255 854h262l-395 -1129q-69 -203 -169.5 -282.5t-285.5 -79.5q-77 0 -98 4v203q19 -4 68 -4q79 0 125.5 33t70.5 108l13 48zM212 1622h277l249 -347h-242z" />
<glyph unicode="&#x1ef4;" horiz-adv-x="1412" d="M71 1443h283l344 -617h17l343 617h283l-506 -879v-564h-258v564zM562 -278q0 62 40.5 103.5t103.5 41.5q62 0 103 -41.5t41 -103.5q0 -61 -41 -102.5t-103 -41.5t-103 41.5t-41 102.5z" />
<glyph unicode="&#x1ef5;" horiz-adv-x="1183" d="M60 1094h272l256 -854h17l255 854h262l-395 -1129q-69 -203 -169.5 -282.5t-285.5 -79.5q-77 0 -98 4v203q19 -4 68 -4q79 0 125.5 33t70.5 108l13 48zM785 -278q0 62 40.5 103.5t103.5 41.5q62 0 103 -41.5t41 -103.5q0 -61 -41 -102.5t-103 -41.5t-103 41.5t-41 102.5z " />
<glyph unicode="&#x1ef6;" horiz-adv-x="1412" d="M71 1443h283l344 -617h17l343 617h283l-506 -879v-564h-258v564zM511 1809v142q63 23 146 23q109 0 174.5 -54t65.5 -145q0 -77 -52 -139.5t-141 -95.5l-85 108q48 16 77.5 44.5t29.5 60.5q0 34 -29 55t-75 21q-68 0 -111 -20z" />
<glyph unicode="&#x1ef7;" horiz-adv-x="1183" d="M60 1094h272l256 -854h17l255 854h262l-395 -1129q-69 -203 -169.5 -282.5t-285.5 -79.5q-77 0 -98 4v203q19 -4 68 -4q79 0 125.5 33t70.5 108l13 48zM426 1480v144q65 23 148 23q110 0 177 -54.5t67 -146.5q0 -78 -53 -142t-143 -97l-87 110q49 16 79 45t30 62 q0 34 -29 55.5t-76 21.5q-68 0 -113 -21z" />
<glyph unicode="&#x1ef8;" horiz-adv-x="1412" d="M71 1443h283l344 -617h17l343 617h283l-506 -879v-564h-258v564zM309 1576q0 142 68 226t183 84q43 0 80 -15t63 -37t48 -44t45 -37t44 -15q91 0 92 145h170q0 -142 -67.5 -225.5t-182.5 -83.5q-52 0 -97.5 23.5t-71.5 51t-56 51t-55 23.5q-91 0 -92 -147h-171z" />
<glyph unicode="&#x1ef9;" horiz-adv-x="1183" d="M60 1094h272l256 -854h17l255 854h262l-395 -1129q-69 -203 -169.5 -282.5t-285.5 -79.5q-77 0 -98 4v203q19 -4 68 -4q79 0 125.5 33t70.5 108l13 48zM198 1246q0 142 68 226t183 84q43 0 80 -15t63 -37t48 -44t45 -37t44 -15q91 0 92 145h170q0 -142 -67.5 -225.5 t-182.5 -83.5q-52 0 -97.5 23.5t-71.5 51t-56 51t-55 23.5q-91 0 -92 -147h-171z" />
<glyph unicode="&#x2000;" horiz-adv-x="1104" />
<glyph unicode="&#x2001;" horiz-adv-x="2209" />
<glyph unicode="&#x2002;" horiz-adv-x="1104" />
<glyph unicode="&#x2003;" horiz-adv-x="2209" />
<glyph unicode="&#x2004;" horiz-adv-x="736" />
<glyph unicode="&#x2005;" horiz-adv-x="552" />
<glyph unicode="&#x2006;" horiz-adv-x="368" />
<glyph unicode="&#x2007;" horiz-adv-x="368" />
<glyph unicode="&#x2008;" horiz-adv-x="276" />
<glyph unicode="&#x2009;" horiz-adv-x="441" />
<glyph unicode="&#x200a;" horiz-adv-x="122" />
<glyph unicode="&#x2010;" horiz-adv-x="983" d="M163 465v233h657v-233h-657z" />
<glyph unicode="&#x2011;" horiz-adv-x="983" d="M163 465v233h657v-233h-657z" />
<glyph unicode="&#x2012;" horiz-adv-x="983" d="M163 465v233h657v-233h-657z" />
<glyph unicode="&#x2013;" horiz-adv-x="1024" d="M0 465v233h1024v-233h-1024z" />
<glyph unicode="&#x2014;" horiz-adv-x="2048" d="M0 465v233h2048v-233h-2048z" />
<glyph unicode="&#x2018;" horiz-adv-x="634" d="M129 858l190 585h174l-110 -585h-254z" />
<glyph unicode="&#x2019;" horiz-adv-x="634" d="M163 858l93 585h254l-173 -585h-174z" />
<glyph unicode="&#x201a;" horiz-adv-x="634" d="M156 -382l96 604h251l-170 -604h-177z" />
<glyph unicode="&#x201c;" horiz-adv-x="1087" d="M129 838l184 605h184l-116 -605h-252zM578 838l166 605h184l-99 -605h-251z" />
<glyph unicode="&#x201d;" horiz-adv-x="1087" d="M160 838l99 605h251l-167 -605h-183zM591 838l116 605h251l-184 -605h-183z" />
<glyph unicode="&#x201e;" horiz-adv-x="1087" d="M160 -382l96 604h251l-170 -604h-177zM591 -382l113 604h251l-187 -604h-177z" />
<glyph unicode="&#x2026;" horiz-adv-x="1771" d="M177 137q0 69 45 113.5t115 44.5q71 0 115.5 -44.5t44.5 -113.5q0 -68 -44.5 -113t-115.5 -45q-70 0 -115 45t-45 113zM726 137q0 69 45 113.5t115 44.5q71 0 115.5 -44.5t44.5 -113.5q0 -68 -44.5 -113t-115.5 -45q-70 0 -115 45t-45 113zM1267 137q0 69 45 113.5 t115 44.5q71 0 115.5 -44.5t44.5 -113.5q0 -68 -44.5 -113t-115.5 -45q-70 0 -115 45t-45 113z" />
<glyph unicode="&#x202f;" horiz-adv-x="441" />
<glyph unicode="&#x2039;" horiz-adv-x="927" d="M166 561v8l349 413h246l-348 -410v-12l348 -411h-249z" />
<glyph unicode="&#x203a;" horiz-adv-x="927" d="M166 149l348 411v12l-348 410h246l349 -413v-8l-346 -412h-249z" />
<glyph unicode="&#x205f;" horiz-adv-x="552" />
<glyph unicode="&#x20ac;" horiz-adv-x="1383" d="M113 489v152h172q-3 39 -3 80q0 40 3 79h-172v152h196q64 248 258 382.5t471 134.5q130 0 202 -23v-223q-75 18 -199 18q-163 0 -283.5 -74.5t-175.5 -214.5h534v-152h-570q-4 -33 -4 -79q0 -45 4 -80h570v-152h-534q55 -139 174.5 -213.5t281.5 -74.5q145 0 205 16v-225 q-72 -18 -205 -18q-276 0 -470 134t-258 381h-197z" />
<glyph unicode="&#x2122;" horiz-adv-x="2036" d="M46 1261v182h769v-182h-280v-718h-210v718h-279zM967 543v900h249l210 -554h11l210 554h249v-900h-195v571h-10l-193 -503h-132l-193 503h-11v-571h-195z" />
<glyph unicode="&#x25fc;" horiz-adv-x="1095" d="M0 0v1095h1095v-1095h-1095z" />
</font>
</defs>
</svg>
