<?xml version="1.0" standalone="no"?>
<!DOCTYPE svg PUBLIC "-//W3C//DTD SVG 1.1//EN" "http://www.w3.org/Graphics/SVG/1.1/DTD/svg11.dtd" >
<svg xmlns="http://www.w3.org/2000/svg" xmlns:xlink="http://www.w3.org/1999/xlink" version="1.1">
<metadata></metadata>
<defs>
<font id="sf_pro_textmedium" horiz-adv-x="1539" >
<font-face units-per-em="2048" ascent="1638" descent="-410" />
<missing-glyph horiz-adv-x="560" />
<glyph horiz-adv-x="0" />
<glyph unicode="&#xd;" horiz-adv-x="0" />
<glyph unicode=" "  horiz-adv-x="560" />
<glyph unicode="&#x09;" horiz-adv-x="560" />
<glyph unicode="&#xa0;" horiz-adv-x="560" />
<glyph unicode="!" horiz-adv-x="670" d="M181 129q0 70 42.5 112t112.5 42q69 0 111 -42t42 -112q0 -68 -42 -110t-111 -42q-70 0 -112.5 42t-42.5 110zM213 1444h243l-20 -966h-202z" />
<glyph unicode="&#x22;" horiz-adv-x="938" d="M169 872v571h193v-571h-193zM577 872v571h192v-571h-192z" />
<glyph unicode="#" horiz-adv-x="1319" d="M37 392l33 178h233l66 319h-241l34 177h241l79 377h170l-76 -377h302l78 377h171l-77 -377h244l-32 -177h-247l-68 -319h254l-32 -178h-255l-80 -392h-172l80 392h-303l-80 -392h-170l79 392h-231zM466 560h314l71 339h-315z" />
<glyph unicode="$" horiz-adv-x="1359" d="M147 402h212q8 -89 75.5 -147.5t179.5 -71.5v456l-89 23q-168 43 -256.5 141.5t-88.5 244.5q0 173 115.5 281.5t318.5 127.5v138h137v-138q194 -17 312 -127t123 -277h-209q-3 83 -65 141.5t-161 70.5v-431l93 -21q188 -46 278.5 -143t90.5 -252q0 -183 -121 -293.5 t-341 -129.5v-131h-137v130q-215 14 -340.5 124t-126.5 284zM394 1066q0 -77 56 -129t164 -74v403q-96 -5 -158 -61.5t-62 -138.5zM751 181q119 7 184 63t65 151q0 86 -60.5 139t-188.5 79v-432z" />
<glyph unicode="%" horiz-adv-x="1643" d="M75 1116q0 158 88.5 257t229.5 99t229.5 -99t88.5 -257t-88.5 -257t-229.5 -99q-140 0 -229 99.5t-89 256.5zM201 0l549 754l480 689h218l-558 -764l-470 -679h-219zM257 1117q0 -91 37 -146t99 -55t99 55t37 146q0 93 -36.5 146t-99.5 53q-62 0 -99 -54t-37 -145z M931 328q0 157 89 256t230 99t229.5 -99t88.5 -256q0 -158 -88.5 -257.5t-229.5 -99.5t-230 99.5t-89 257.5zM1114 328q0 -91 37 -146t99 -55q61 0 98 54.5t37 146.5q0 93 -36.5 146t-98.5 53t-99 -54t-37 -145z" />
<glyph unicode="&#x26;" horiz-adv-x="1481" d="M112 382q0 126 68.5 222t211.5 172q4 2 28 15.5t31 16.5q-99 103 -140 179t-41 155q0 142 109.5 236t274.5 94q166 0 273.5 -92t107.5 -236q0 -112 -72.5 -201t-233.5 -174l331 -344q62 116 62 333v46h195v-54q0 -302 -120 -475l257 -275h-262l-125 132 q-89 -75 -209.5 -117t-251.5 -42q-221 0 -357.5 113t-136.5 296zM326 399q0 -110 83 -177.5t218 -67.5q92 0 178 32t139 86l-381 404q-24 -10 -47 -22q-190 -99 -190 -255zM471 1130q0 -55 33 -109t114 -133q120 60 170.5 115.5t50.5 127.5q0 77 -51 125t-133 48 q-80 0 -132 -49t-52 -125z" />
<glyph unicode="'" horiz-adv-x="531" d="M169 872v571h193v-571h-193z" />
<glyph unicode="(" horiz-adv-x="817" d="M235 603q0 543 289 911h190q-109 -140 -183 -398t-74 -512q0 -256 73.5 -514.5t183.5 -397.5h-190q-289 368 -289 911z" />
<glyph unicode=")" horiz-adv-x="817" d="M103 -308q109 140 183 398.5t74 513.5q0 254 -74 512t-183 398h190q288 -368 288 -911t-288 -911h-190z" />
<glyph unicode="*" horiz-adv-x="1032" d="M143 944l264 121l-264 122l78 145l240 -172l-25 293h160l-25 -293l240 172l78 -145l-263 -122l263 -121l-78 -143l-240 167l25 -288h-160l25 289l-240 -168z" />
<glyph unicode="+" horiz-adv-x="1359" d="M160 484v196h426v423h187v-423h427v-196h-427v-424h-187v424h-426z" />
<glyph unicode="," horiz-adv-x="645" d="M142 -377l93 593h225l-166 -593h-152z" />
<glyph unicode="-" horiz-adv-x="975" d="M160 476v211h656v-211h-656z" />
<glyph unicode="." horiz-adv-x="645" d="M176 132q0 63 42 106t105 43t105 -43t42 -106t-42 -106t-105 -43t-105 43t-42 106z" />
<glyph unicode="/" horiz-adv-x="722" d="M0 -308l527 1822h195l-527 -1822h-195z" />
<glyph unicode="0" horiz-adv-x="1330" d="M132 723q0 357 141 556t393 199q250 0 391 -199.5t141 -557.5q0 -359 -140 -557.5t-392 -198.5q-253 0 -393.5 199t-140.5 559zM358 723q0 -272 80 -417t228 -145t227 144.5t79 417.5q0 270 -80 414.5t-226 144.5t-227 -145t-81 -414z" />
<glyph unicode="1" horiz-adv-x="989" d="M123 946v229l380 268h223v-1443h-224v1202h-17z" />
<glyph unicode="2" horiz-adv-x="1266" d="M144 1023v3q0 199 136 325.5t349 126.5q206 0 341 -117t135 -295q0 -115 -67.5 -227.5t-248.5 -295.5l-321 -325v-17h660v-201h-972v162l488 508q144 150 192 226.5t48 156.5q0 99 -75 165t-187 66q-119 0 -192.5 -71t-73.5 -187v-3h-212z" />
<glyph unicode="3" horiz-adv-x="1315" d="M135 392h215q11 -105 94.5 -167t214.5 -62q132 0 216 68t84 175q0 112 -82 177t-224 65h-182v185h175q116 0 189 64t73 166q0 101 -71 161.5t-189 60.5t-190.5 -61t-81.5 -168h-213q11 196 143 309t349 113q201 0 337.5 -109.5t136.5 -272.5q0 -127 -69.5 -217 t-188.5 -117v-17q147 -17 232 -111.5t85 -239.5q0 -121 -69 -219t-190.5 -154t-269.5 -56q-227 0 -370.5 117t-153.5 310z" />
<glyph unicode="4" horiz-adv-x="1351" d="M116 279v208q168 307 601 956h319v-964h199v-200h-199v-279h-216v279h-704zM331 474h492v772h-13q-254 -368 -479 -758v-14z" />
<glyph unicode="5" horiz-adv-x="1300" d="M153 395h213q13 -105 93 -169t199 -64q135 0 218 82t83 217t-83 219.5t-215 84.5q-92 0 -165 -39t-115 -109h-205l76 826h842v-200h-667l-38 -423h17q102 131 305 131q206 0 336.5 -135.5t130.5 -348.5q0 -224 -144.5 -363t-377.5 -139q-215 0 -354 120t-149 310z" />
<glyph unicode="6" horiz-adv-x="1339" d="M127 703q0 367 150.5 571t421.5 204q191 0 325 -105.5t167 -282.5h-225q-27 88 -99 139t-170 51q-166 0 -258.5 -143.5t-96.5 -404.5h17q52 104 151.5 161t227.5 57q206 0 340 -136t134 -345q0 -221 -147 -362.5t-376 -141.5q-160 0 -281.5 77t-192.5 222 q-88 173 -88 439zM384 466q0 -129 87 -216.5t216 -87.5t216 86t87 214q0 131 -84.5 215t-217.5 84q-132 0 -218 -83.5t-86 -211.5z" />
<glyph unicode="7" horiz-adv-x="1193" d="M97 1244v199h983v-203l-628 -1240h-235l636 1228v16h-756z" />
<glyph unicode="8" horiz-adv-x="1349" d="M132 386q0 138 83.5 239t222.5 129v17q-113 29 -180.5 115.5t-67.5 202.5q0 171 136 280t348 109t348 -109t136 -280q0 -117 -67 -203t-181 -115v-17q139 -26 223 -126.5t84 -240.5q0 -187 -151 -304.5t-392 -117.5t-391.5 117t-150.5 304zM361 405q0 -113 87 -183.5 t226 -70.5t226 70.5t87 183.5t-87 184t-226 71t-226 -71t-87 -184zM411 1067q0 -100 72.5 -162t190.5 -62t191 62t73 162q0 101 -73 164t-191 63t-190.5 -63t-72.5 -164z" />
<glyph unicode="9" horiz-adv-x="1339" d="M127 974q0 221 146.5 362.5t376.5 141.5q160 0 282 -76.5t192 -221.5q89 -175 89 -439q0 -367 -150.5 -571.5t-421.5 -204.5q-192 0 -326 106t-167 283h226q26 -88 98 -139t171 -51q166 0 258.5 143.5t95.5 404.5h-8h-5h-4q-52 -104 -151 -161.5t-227 -57.5 q-206 0 -340.5 136t-134.5 345zM350 982q0 -131 84 -215t217 -84q132 0 218 83t86 211q0 130 -87 217t-215 87q-129 0 -216 -86t-87 -213z" />
<glyph unicode=":" horiz-adv-x="645" d="M176 132q0 63 42 106t105 43t105 -43t42 -106t-42 -106t-105 -43t-105 43t-42 106zM176 887q0 64 42 106.5t105 42.5q64 0 105.5 -42.5t41.5 -106.5q0 -63 -42 -106t-105 -43t-105 43t-42 106z" />
<glyph unicode=";" horiz-adv-x="645" d="M119 -377l95 593h225l-164 -593h-156zM176 887q0 64 42 106.5t105 42.5q64 0 105.5 -42.5t41.5 -106.5q0 -63 -42 -106t-105 -43t-105 43t-42 106z" />
<glyph unicode="&#x3c;" horiz-adv-x="1359" d="M227 503v183l906 503v-236l-690 -350v-17l690 -350v-236z" />
<glyph unicode="=" horiz-adv-x="1359" d="M164 270v197h1031v-197h-1031zM164 698v197h1031v-197h-1031z" />
<glyph unicode="&#x3e;" horiz-adv-x="1359" d="M227 0v236l689 350v17l-689 350v236l906 -503v-183z" />
<glyph unicode="?" horiz-adv-x="1083" d="M79 1053q7 179 125 290.5t329 111.5q197 0 319.5 -105t122.5 -269q0 -216 -210 -342q-96 -57 -131 -105.5t-35 -124.5v-60h-207l-1 76q-4 106 42 179.5t151 136.5q92 55 128 105.5t36 125.5q0 83 -62 136.5t-164 53.5q-103 0 -166 -56.5t-70 -152.5h-207zM353 129 q0 69 43 111.5t112 42.5t111.5 -42t42.5 -112q0 -68 -42.5 -110t-111.5 -42t-112 42t-43 110z" />
<glyph unicode="@" horiz-adv-x="1887" d="M137 607q0 183 61 338.5t170 265t264 170.5t338 61q235 0 418 -93t284.5 -262t101.5 -385q0 -241 -103 -383t-279 -142q-90 0 -152.5 44.5t-74.5 117.5h-17q-31 -76 -94.5 -116t-151.5 -40q-156 0 -251.5 116.5t-95.5 306.5q0 182 95.5 297t248.5 115q79 0 141.5 -38 t91.5 -104h17v121h170v-562q0 -53 27.5 -82.5t78.5 -29.5q88 0 140.5 101.5t52.5 271.5q0 271 -182 437.5t-477 166.5q-192 0 -344 -88.5t-237 -248t-85 -361.5q0 -313 190.5 -499t510.5 -186q94 0 180.5 11.5t131.5 30.5v-142q-135 -44 -319 -44q-388 0 -619 227t-231 607z M739 602q0 -121 52 -189.5t143 -68.5q95 0 151 69.5t56 188.5q0 118 -55.5 187t-149.5 69q-93 0 -145 -67.5t-52 -188.5z" />
<glyph unicode="A" horiz-adv-x="1423" d="M70 0l521 1443h241l521 -1443h-238l-132 383h-550l-133 -383h-230zM490 571h436l-209 610h-17z" />
<glyph unicode="B" horiz-adv-x="1373" d="M181 0v1443h580q203 0 318.5 -96.5t115.5 -263.5q0 -113 -73 -202.5t-180 -107.5v-17q146 -15 235.5 -110.5t89.5 -236.5q0 -191 -131 -300t-362 -109h-593zM405 190h324q151 0 230 60t79 175q0 113 -82 171.5t-240 58.5h-311v-465zM405 832h266q148 0 224.5 53.5 t76.5 156.5q0 100 -69.5 155.5t-193.5 55.5h-304v-421z" />
<glyph unicode="C" horiz-adv-x="1485" d="M122 721q0 351 174.5 554t475.5 203q238 0 405.5 -139.5t194.5 -360.5h-223q-32 133 -133.5 212t-243.5 79q-194 0 -307.5 -147.5t-113.5 -400.5q0 -252 113.5 -399.5t308.5 -147.5q143 0 244.5 72t131.5 194h223q-30 -214 -194 -344.5t-405 -130.5q-301 0 -476 203 t-175 553z" />
<glyph unicode="D" horiz-adv-x="1502" d="M181 0v1443h521q321 0 500 -188.5t179 -528.5q0 -346 -178 -536t-501 -190h-521zM405 204h272q227 0 351.5 135.5t124.5 383.5q0 244 -125.5 380t-350.5 136h-272v-1035z" />
<glyph unicode="E" horiz-adv-x="1239" d="M181 0v1443h916v-204h-692v-408h655v-194h-655v-433h692v-204h-916z" />
<glyph unicode="F" horiz-adv-x="1191" d="M181 0v1443h901v-204h-677v-443h620v-198h-620v-598h-224z" />
<glyph unicode="G" d="M122 722q0 345 181 550.5t484 205.5q246 0 412 -129.5t203 -348.5h-225q-42 131 -142 200t-248 69q-200 0 -318 -147.5t-118 -397.5q0 -255 118.5 -402.5t322.5 -147.5q177 0 288 99t112 259v31h-372v188h592v-180q0 -277 -169.5 -441.5t-453.5 -164.5q-307 0 -487 204 t-180 553z" />
<glyph unicode="H" horiz-adv-x="1550" d="M181 0v1443h224v-606h741v606h223v-1443h-223v633h-741v-633h-224z" />
<glyph unicode="I" horiz-adv-x="585" d="M181 0v1443h224v-1443h-224z" />
<glyph unicode="J" horiz-adv-x="1148" d="M82 375h220q2 -89 62 -144t156 -55q108 0 166 63.5t58 183.5v1020h224v-1021q0 -217 -118.5 -337t-327.5 -120q-197 0 -318.5 112.5t-121.5 297.5z" />
<glyph unicode="K" horiz-adv-x="1386" d="M181 0v1443h224v-676h16l597 676h265l-558 -627l606 -816h-280l-484 655l-162 -181v-474h-224z" />
<glyph unicode="L" horiz-adv-x="1183" d="M181 0v1443h224v-1237h676v-206h-900z" />
<glyph unicode="M" horiz-adv-x="1822" d="M181 0v1443h262l459 -1096h17l460 1096h262v-1443h-208v1042h-14l-423 -1000h-170l-423 1000h-14v-1042h-208z" />
<glyph unicode="N" d="M181 0v1443h202l741 -1025h16v1025h218v-1443h-202l-741 1025h-16v-1025h-218z" />
<glyph unicode="O" horiz-adv-x="1590" d="M122 722q0 349 181.5 552.5t492.5 203.5q312 0 492 -203.5t180 -552.5t-180 -553t-492 -204q-313 0 -493.5 203.5t-180.5 553.5zM351 722q0 -251 119 -399.5t326 -148.5q205 0 324 148.5t119 399.5q0 252 -119 399.5t-324 147.5q-204 0 -324.5 -148t-120.5 -399z" />
<glyph unicode="P" horiz-adv-x="1329" d="M181 0v1443h565q212 0 344 -133.5t132 -347.5q0 -211 -135 -343.5t-348 -132.5h-334v-486h-224zM405 683h282q145 0 225.5 72.5t80.5 206.5q0 137 -79 210t-227 73h-282v-562z" />
<glyph unicode="Q" horiz-adv-x="1590" d="M122 721q0 350 181.5 553.5t492.5 203.5q310 0 491 -203.5t181 -553.5q0 -206 -63.5 -363.5t-181.5 -248.5l181 -262h-234l-118 159q-115 -41 -256 -41q-312 0 -493 202.5t-181 553.5zM352 721q0 -253 119.5 -400t325.5 -147q70 0 136 18l-181 251h229l108 -134 q72 62 111 168t39 244q0 252 -120 400t-323 148q-204 0 -324 -147.5t-120 -400.5z" />
<glyph unicode="R" horiz-adv-x="1368" d="M181 0v1443h571q218 0 348 -120.5t130 -323.5q0 -146 -74.5 -256.5t-205.5 -155.5l324 -587h-259l-294 550h-316v-550h-224zM405 741h322q130 0 201.5 66t71.5 187q0 118 -74.5 185t-204.5 67h-316v-505z" />
<glyph unicode="S" horiz-adv-x="1333" d="M113 388h222q14 -103 107.5 -163.5t238.5 -60.5q135 0 223.5 62.5t88.5 158.5q0 82 -65.5 134.5t-209.5 86.5l-186 45q-196 46 -288 143t-92 256q0 193 144.5 310.5t380.5 117.5q220 0 365 -116t155 -298h-218q-16 100 -97.5 158t-207.5 58q-133 0 -214 -59t-81 -156 q0 -77 61.5 -125t202.5 -81l159 -39q222 -52 320 -147.5t98 -258.5q0 -207 -150 -328t-406 -121q-240 0 -389.5 115t-161.5 308z" />
<glyph unicode="T" horiz-adv-x="1317" d="M93 1239v204h1131v-204h-453v-1239h-224v1239h-454z" />
<glyph unicode="U" horiz-adv-x="1538" d="M185 497v946h224v-926q0 -154 95.5 -248t264.5 -94q170 0 265.5 94t95.5 248v926h224v-946q0 -238 -158.5 -385t-426.5 -147t-426 147t-158 385z" />
<glyph unicode="V" horiz-adv-x="1415" d="M70 1443h244l389 -1163h17l387 1163h238l-513 -1443h-246z" />
<glyph unicode="W" horiz-adv-x="2013" d="M89 1443h233l265 -1105h14l301 1105h208l303 -1105h14l264 1105h233l-390 -1443h-211l-310 1059h-14l-309 -1059h-212z" />
<glyph unicode="X" horiz-adv-x="1427" d="M89 0l482 726l-477 717h267l351 -544h17l357 544h252l-490 -723l481 -720h-262l-354 534h-17l-359 -534h-248z" />
<glyph unicode="Y" horiz-adv-x="1383" d="M71 1443h249l363 -625h17l363 625h249l-509 -861v-582h-224v582z" />
<glyph unicode="Z" horiz-adv-x="1365" d="M141 0v161l784 1061v17h-760v204h1041v-161l-780 -1061v-17h799v-204h-1084z" />
<glyph unicode="[" horiz-adv-x="817" d="M262 -308v1822h477v-174h-268v-1475h268v-173h-477z" />
<glyph unicode="\" horiz-adv-x="722" d="M0 1514h197l525 -1822h-197z" />
<glyph unicode="]" horiz-adv-x="817" d="M77 -135h269v1475h-269v174h478v-1822h-478v173z" />
<glyph unicode="^" horiz-adv-x="1014" d="M95 776l304 638h215l304 -638h-196l-207 461h-17l-206 -461h-197z" />
<glyph unicode="_" horiz-adv-x="926" d="M-7 -107h941v-171h-941v171z" />
<glyph unicode="`" horiz-adv-x="1095" d="M295 1615h252l251 -344h-221z" />
<glyph unicode="a" horiz-adv-x="1158" d="M94 308q0 146 105 229.5t300 95.5l295 17v94q0 87 -57 133.5t-166 46.5q-90 0 -149.5 -31.5t-77.5 -89.5h-208q16 140 137.5 223.5t307.5 83.5q204 0 315.5 -96.5t111.5 -269.5v-744h-207v153h-17q-49 -82 -134.5 -126.5t-192.5 -44.5q-160 0 -261.5 89.5t-101.5 236.5z M310 318q0 -72 56 -113.5t146 -41.5q121 0 201.5 68t80.5 170v91l-266 -17q-112 -7 -165 -46t-53 -111z" />
<glyph unicode="b" horiz-adv-x="1285" d="M166 0v1514h215v-598h17q43 89 133 140t202 51q207 0 328.5 -151.5t121.5 -410.5t-122 -411t-328 -152q-114 0 -204.5 50t-139.5 140h-16v-172h-207zM377 544q1 -171 79.5 -270t214.5 -99t213.5 98.5t77.5 271.5q0 172 -77.5 270.5t-213.5 98.5q-135 0 -214 -99.5 t-80 -270.5z" />
<glyph unicode="c" horiz-adv-x="1167" d="M102 548q0 262 136 412t374 150q199 0 321.5 -104t144.5 -273h-209q-20 83 -86.5 134t-170.5 51q-135 0 -212.5 -98t-77.5 -272q0 -176 77.5 -276.5t212.5 -100.5q103 0 169.5 46t87.5 133h209q-21 -168 -144 -269.5t-321 -101.5q-238 0 -374.5 151.5t-136.5 417.5z" />
<glyph unicode="d" horiz-adv-x="1285" d="M102 545q0 258 122.5 410t329.5 152q112 0 201 -50.5t133 -140.5h16v598h215v-1514h-206v172h-17q-49 -89 -139.5 -139.5t-202.5 -50.5q-208 0 -330 152t-122 411zM324 545q0 -173 77.5 -271.5t213.5 -98.5t214.5 99t78.5 270q0 170 -79 270t-214 100 q-136 0 -213.5 -98.5t-77.5 -270.5z" />
<glyph unicode="e" horiz-adv-x="1192" d="M102 541q0 261 136 415t366 154q227 0 356.5 -146t129.5 -403v-75h-769v-12q5 -144 83 -228t207 -84q197 0 259 132h207q-37 -147 -161.5 -231t-310.5 -84q-234 0 -368.5 150.5t-134.5 411.5zM321 645h550q-4 129 -76.5 205.5t-191.5 76.5t-196 -77t-86 -205z" />
<glyph unicode="f" horiz-adv-x="775" d="M54 903v181h179v117q0 323 336 323q70 0 128 -11v-169q-30 6 -83 6q-89 0 -129 -40t-40 -122v-104h243v-181h-240v-903h-215v903h-179z" />
<glyph unicode="g" horiz-adv-x="1274" d="M101 557q0 250 122 400t330 150q112 0 204 -51.5t138 -140.5h17v174h206v-1098q0 -187 -136 -297t-367 -110q-202 0 -328 83.5t-143 223.5h220q14 -60 80.5 -95t173.5 -35q134 0 209.5 60.5t75.5 168.5v209h-16q-49 -88 -136 -135.5t-200 -47.5q-207 0 -328.5 147.5 t-121.5 393.5zM323 558q0 -165 76 -260.5t213 -95.5t216 96t79 260q0 163 -79 259.5t-216 96.5t-213 -95.5t-76 -260.5z" />
<glyph unicode="h" horiz-adv-x="1249" d="M166 0v1514h213v-600h17q40 93 125.5 144t206.5 51q175 0 275 -106.5t100 -299.5v-703h-215v650q0 130 -59 196t-174 66q-130 0 -202 -75t-72 -201v-636h-215z" />
<glyph unicode="i" horiz-adv-x="534" d="M128 1411q0 56 39.5 94t99.5 38t99.5 -38t39.5 -94t-39.5 -93.5t-99.5 -37.5t-99.5 37.5t-39.5 93.5zM160 0v1089h214v-1089h-214z" />
<glyph unicode="j" horiz-adv-x="534" d="M-25 -191h30q85 0 120 34t35 114v1132h214v-1134q0 -167 -86.5 -247t-264.5 -80q-43 0 -48 1v180zM128 1411q0 56 39.5 94t99.5 38t99.5 -38t39.5 -94t-39.5 -93.5t-99.5 -37.5t-99.5 37.5t-39.5 93.5z" />
<glyph unicode="k" horiz-adv-x="1155" d="M166 0v1514h215v-879h17l432 454h254l-448 -467l478 -622h-264l-374 480l-95 -90v-390h-215z" />
<glyph unicode="l" horiz-adv-x="547" d="M166 0v1514h215v-1514h-215z" />
<glyph unicode="m" horiz-adv-x="1824" d="M156 0v1089h207v-175h16q36 93 115.5 144.5t187.5 51.5q109 0 186 -52t114 -144h17q42 90 130.5 143t200.5 53q165 0 256.5 -95t91.5 -265v-750h-215v694q0 219 -211 219q-103 0 -166.5 -65t-63.5 -163v-685h-211v715q0 92 -57 145t-153 53q-98 0 -164 -71t-66 -176v-666 h-215z" />
<glyph unicode="n" horiz-adv-x="1227" d="M156 0v1089h207v-173h16q85 194 325 194q182 0 279.5 -105t97.5 -300v-705h-215v651q0 262 -235 262q-119 0 -189.5 -74.5t-70.5 -201.5v-637h-215z" />
<glyph unicode="o" horiz-adv-x="1231" d="M102 545q0 263 137.5 414t376.5 151q238 0 375.5 -151t137.5 -414q0 -264 -137 -415t-376 -151q-240 0 -377 151t-137 415zM324 545q0 -179 76 -277t216 -98q139 0 215.5 98.5t76.5 276.5q0 177 -76.5 275.5t-215.5 98.5q-140 0 -216 -98t-76 -276z" />
<glyph unicode="p" horiz-adv-x="1275" d="M156 -362v1451h207v-180h16q49 93 140 145.5t202 52.5q208 0 330 -151.5t122 -410.5t-121.5 -411t-328.5 -152q-116 0 -204 48.5t-131 134.5h-17v-527h-215zM367 544q0 -170 79 -269.5t214 -99.5q137 0 214.5 98.5t77.5 271.5t-77.5 271t-213.5 98t-215 -99.5t-79 -270.5 z" />
<glyph unicode="q" horiz-adv-x="1275" d="M102 545q0 257 122.5 409.5t328.5 152.5q111 0 202.5 -53.5t138.5 -144.5h17v180h208v-1451h-216v527h-17q-102 -183 -335 -183q-207 0 -328 151.5t-121 411.5zM324 545q0 -174 76 -272t212 -98q137 0 216 99t79 270q0 170 -79 270t-215 100t-212.5 -98t-76.5 -271z" />
<glyph unicode="r" horiz-adv-x="820" d="M156 0v1089h207v-167h16q23 81 105.5 133t188.5 52q61 0 96 -9v-212q-39 13 -120 13q-123 0 -200.5 -71t-77.5 -185v-643h-215z" />
<glyph unicode="s" horiz-adv-x="1104" d="M103 289h215q21 -64 81 -100t156 -36q101 0 165 41t64 106q0 95 -160 133l-190 44q-156 37 -229.5 110t-73.5 194q0 144 119 236.5t304 92.5q184 0 297 -81t129 -225h-206q-15 61 -72.5 96t-147.5 35q-91 0 -151 -39.5t-60 -102.5q0 -49 42 -81t131 -52l181 -42 q157 -36 230.5 -107t73.5 -190q0 -152 -127 -247t-324 -95q-194 0 -313.5 82.5t-133.5 227.5z" />
<glyph unicode="t" horiz-adv-x="780" d="M59 903v181h173v276h215v-276h236v-181h-236v-560q0 -85 37 -124.5t117 -39.5q32 0 82 5v-179q-64 -11 -117 -11q-179 0 -256.5 68t-77.5 226v615h-173z" />
<glyph unicode="u" horiz-adv-x="1230" d="M146 382v707h215v-651q0 -133 55.5 -196.5t173.5 -63.5q129 0 199 72.5t70 201.5v637h215v-1089h-207v173h-17q-83 -194 -329 -194q-180 0 -277.5 105t-97.5 298z" />
<glyph unicode="v" horiz-adv-x="1140" d="M62 1089h230l271 -859h17l270 859h228l-392 -1089h-231z" />
<glyph unicode="w" horiz-adv-x="1640" d="M65 1089h218l195 -831h16l224 831h206l224 -831h17l194 831h215l-299 -1089h-223l-225 802h-17l-224 -802h-221z" />
<glyph unicode="x" horiz-adv-x="1117" d="M70 1089h251l234 -384h17l232 384h239l-359 -538l363 -551h-247l-237 386h-16l-238 -386h-236l361 542z" />
<glyph unicode="y" horiz-adv-x="1152" d="M64 1089h234l273 -865h17l272 865h228l-406 -1134q-70 -198 -160.5 -274t-257.5 -76q-56 0 -89 5v185q23 -4 70 -4q77 0 123 35t74 117l16 53z" />
<glyph unicode="z" horiz-adv-x="1124" d="M131 0v146l599 744v17h-595v182h852v-157l-586 -733v-17h592v-182h-862z" />
<glyph unicode="{" horiz-adv-x="817" d="M77 488v232q126 1 176 47t50 162v227q0 185 90.5 271.5t283.5 86.5h62v-176h-41q-102 0 -146 -48.5t-44 -161.5v-269q0 -215 -234 -241v-28q234 -26 234 -241v-272q0 -113 44 -161.5t146 -48.5h41v-175h-62q-193 0 -283.5 87t-90.5 273v227q0 116 -50 162t-176 47z" />
<glyph unicode="|" horiz-adv-x="722" d="M265 -308v1822h192v-1822h-192z" />
<glyph unicode="}" horiz-adv-x="817" d="M77 -133h42q101 0 145 48.5t44 161.5v272q0 215 235 241v28q-235 26 -235 241v269q0 113 -43.5 161.5t-145.5 48.5h-42v176h62q193 0 283.5 -86.5t90.5 -271.5v-227q0 -115 50.5 -161.5t175.5 -47.5v-232q-125 -1 -175.5 -47.5t-50.5 -161.5v-227q0 -186 -90.5 -273 t-283.5 -87h-62v175z" />
<glyph unicode="~" horiz-adv-x="1210" d="M91 544q-1 183 78.5 282.5t232.5 99.5q65 0 124 -30t126 -98q50 -50 84 -70.5t66 -20.5q125 0 134 179h183q1 -186 -77 -284t-228 -98q-68 0 -127.5 29.5t-126.5 96.5q-52 52 -85 72t-67 20q-124 0 -133 -178h-184z" />
<glyph unicode="&#xa2;" horiz-adv-x="1359" d="M160 714q0 223 120.5 371t316.5 182v178h197v-175q163 -25 273.5 -124t130.5 -246h-209q-28 86 -104 135.5t-183 49.5q-139 0 -230.5 -101.5t-91.5 -269.5q0 -171 91.5 -273.5t230.5 -102.5q116 0 190 47t97 132h209q-20 -149 -129 -245.5t-275 -118.5v-176h-197v179 q-197 34 -317 182.5t-120 375.5z" />
<glyph unicode="&#xa3;" horiz-adv-x="1359" d="M133 0v190q133 26 219.5 121t86.5 217q0 53 -15 116h-290v174h231q-61 158 -61 254q0 191 140.5 298.5t391.5 107.5q89 0 174 -14.5t137 -36.5v-197q-42 22 -125 37.5t-167 15.5q-152 0 -238 -61t-86 -169q0 -87 54 -235h451v-174h-395q13 -55 13 -103q0 -109 -56 -196 t-141 -130v-16h760v-199h-1084z" />
<glyph unicode="&#xa5;" horiz-adv-x="1359" d="M59 1443h249l363 -625h17l363 625h249l-446 -749h212v-150h-274v-152h274v-150h-274v-242h-224v242h-275v150h275v152h-275v150h213z" />
<glyph unicode="&#xa8;" horiz-adv-x="1122" d="M214 1399q0 57 38.5 96t95.5 39q56 0 94.5 -39t38.5 -96t-38.5 -95.5t-94.5 -38.5q-57 0 -95.5 38.5t-38.5 95.5zM641 1399q0 57 39 96t95 39t94.5 -39t38.5 -96t-38.5 -95.5t-94.5 -38.5t-95 38.5t-39 95.5z" />
<glyph unicode="&#xa9;" horiz-adv-x="1742" d="M80 638q0 164 61.5 311t166.5 252t252 166.5t311 61.5q220 0 401.5 -104t285.5 -285.5t104 -401.5t-104 -401.5t-285.5 -286t-401.5 -104.5q-164 0 -311 61.5t-252 167t-166.5 252.5t-61.5 311zM229 638q0 -178 84.5 -325t232 -231.5t325.5 -84.5q134 0 253 49.5 t204.5 135t135 204.5t49.5 252t-49.5 252t-135 204t-204.5 134.5t-253 49.5q-179 0 -326.5 -84.5t-231.5 -231.5t-84 -324zM497 639q0 187 105.5 298t284.5 111q144 0 242 -77.5t116 -206.5h-157q-16 65 -70 104t-130 39q-105 0 -166 -72t-61 -196q0 -126 61 -198.5 t166 -72.5q80 0 132 36t68 101h157q-17 -128 -113.5 -203t-243.5 -75q-180 0 -285.5 111t-105.5 301z" />
<glyph unicode="&#xab;" horiz-adv-x="1411" d="M171 561v8l350 414h228l-350 -410v-14l350 -411h-230zM661 561v8l351 414h228l-350 -410v-14l350 -411h-231z" />
<glyph unicode="&#xad;" horiz-adv-x="975" d="M160 476v211h656v-211h-656z" />
<glyph unicode="&#xae;" horiz-adv-x="1260" d="M105 970q0 144 70 265t190.5 191t264.5 70t265 -70t190.5 -191t69.5 -265q0 -219 -153 -372.5t-372 -153.5q-144 0 -264.5 70t-190.5 191t-70 265zM220 970q0 -170 119.5 -289t290.5 -119q172 0 291 119t119 289q0 171 -119 289.5t-291 118.5q-171 0 -290.5 -118.5 t-119.5 -289.5zM426 733v494h251q77 0 127 -43.5t50 -111.5q0 -119 -112 -149l134 -190h-130l-123 175h-89v-175h-108zM534 998h115q87 0 87 68q0 65 -85 65h-117v-133z" />
<glyph unicode="&#xb4;" horiz-adv-x="1095" d="M276 1271l251 344h252l-281 -344h-222z" />
<glyph unicode="&#xb8;" horiz-adv-x="1095" d="M363 -349q46 -14 120 -14q116 0 116 67q0 32 -33 46.5t-109 14.5h-59v97l68 162h136v-24l-48 -122q99 -2 153.5 -46t54.5 -123q0 -89 -67 -142t-185 -53q-85 0 -147 17v120z" />
<glyph unicode="&#xbb;" horiz-adv-x="1411" d="M171 148l350 411v14l-350 410h228l351 -414v-8l-348 -413h-231zM662 148l350 411v14l-350 410h228l350 -414v-8l-348 -413h-230z" />
<glyph unicode="&#xc2;" horiz-adv-x="1423" d="M70 0l521 1443h241l521 -1443h-238l-132 383h-550l-133 -383h-230zM316 1582l295 314h202l295 -314h-225l-163 181h-16l-163 -181h-225zM490 571h436l-209 610h-17z" />
<glyph unicode="&#xc7;" horiz-adv-x="1485" d="M122 721q0 351 174.5 554t475.5 203q238 0 405.5 -139.5t194.5 -360.5h-223q-32 133 -133.5 212t-243.5 79q-194 0 -307.5 -147.5t-113.5 -400.5q0 -252 113.5 -399.5t308.5 -147.5q143 0 244.5 72t131.5 194h223q-28 -198 -172 -325.5t-359 -146.5l-35 -90 q99 -2 153.5 -46t54.5 -123q0 -89 -67 -142t-185 -53q-85 0 -147 17v120q46 -14 120 -14q116 0 116 67q0 32 -33 46.5t-109 14.5h-59v97l45 107q-267 26 -420 226t-153 526z" />
<glyph unicode="&#xce;" horiz-adv-x="585" d="M-103 1582l295 314h202l295 -314h-225l-163 181h-16l-163 -181h-225zM181 0v1443h224v-1443h-224z" />
<glyph unicode="&#xd6;" horiz-adv-x="1590" d="M122 722q0 349 181.5 552.5t492.5 203.5q312 0 492 -203.5t180 -552.5t-180 -553t-492 -204q-313 0 -493.5 203.5t-180.5 553.5zM351 722q0 -251 119 -399.5t326 -148.5q205 0 324 148.5t119 399.5q0 252 -119 399.5t-324 147.5q-204 0 -324.5 -148t-120.5 -399z M449 1711q0 57 38.5 96t95.5 39q56 0 94.5 -39t38.5 -96t-38.5 -95.5t-94.5 -38.5q-57 0 -95.5 38.5t-38.5 95.5zM876 1711q0 57 39 96t95 39t94.5 -39t38.5 -96t-38.5 -95.5t-94.5 -38.5t-95 38.5t-39 95.5z" />
<glyph unicode="&#xdb;" d="M185 497v946h224v-926q0 -154 95.5 -248t264.5 -94q170 0 265.5 94t95.5 248v926h224v-946q0 -238 -158.5 -385t-426.5 -147t-426 147t-158 385zM373 1582l295 314h202l295 -314h-225l-163 181h-16l-163 -181h-225z" />
<glyph unicode="&#xdc;" d="M185 497v946h224v-926q0 -154 95.5 -248t264.5 -94q170 0 265.5 94t95.5 248v926h224v-946q0 -238 -158.5 -385t-426.5 -147t-426 147t-158 385zM422 1711q0 57 38.5 96t95.5 39q56 0 94.5 -39t38.5 -96t-38.5 -95.5t-94.5 -38.5q-57 0 -95.5 38.5t-38.5 95.5zM849 1711 q0 57 39 96t95 39t94.5 -39t38.5 -96t-38.5 -95.5t-94.5 -38.5t-95 38.5t-39 95.5z" />
<glyph unicode="&#xe2;" horiz-adv-x="1158" d="M94 308q0 146 105 229.5t300 95.5l295 17v94q0 87 -57 133.5t-166 46.5q-90 0 -149.5 -31.5t-77.5 -89.5h-208q16 140 137.5 223.5t307.5 83.5q204 0 315.5 -96.5t111.5 -269.5v-744h-207v153h-17q-49 -82 -134.5 -126.5t-192.5 -44.5q-160 0 -261.5 89.5t-101.5 236.5z M184 1238l280 346h234l279 -346h-221l-167 219h-16l-167 -219h-222zM310 318q0 -72 56 -113.5t146 -41.5q121 0 201.5 68t80.5 170v91l-266 -17q-112 -7 -165 -46t-53 -111z" />
<glyph unicode="&#xe7;" horiz-adv-x="1167" d="M102 548q0 262 136 412t374 150q199 0 321.5 -104t144.5 -273h-209q-20 83 -86.5 134t-170.5 51q-135 0 -212.5 -98t-77.5 -272q0 -176 77.5 -276.5t212.5 -100.5q103 0 169.5 46t87.5 133h209q-19 -151 -121.5 -249.5t-268.5 -117.5l-41 -105q99 -2 153.5 -46t54.5 -123 q0 -89 -67 -142t-185 -53q-85 0 -147 17v120q46 -14 120 -14q116 0 116 67q0 32 -33 46.5t-109 14.5h-59v97l51 121q-207 23 -323.5 171.5t-116.5 393.5z" />
<glyph unicode="&#xee;" horiz-adv-x="534" d="M-130 1238l280 346h234l279 -346h-221l-167 219h-16l-167 -219h-222zM160 0v1089h214v-1089h-214z" />
<glyph unicode="&#xf6;" horiz-adv-x="1231" d="M102 545q0 263 137.5 414t376.5 151q238 0 375.5 -151t137.5 -414q0 -264 -137 -415t-376 -151q-240 0 -377 151t-137 415zM269 1372q0 57 38.5 96t95.5 39q56 0 94.5 -39t38.5 -96t-38.5 -95.5t-94.5 -38.5q-57 0 -95.5 38.5t-38.5 95.5zM324 545q0 -179 76 -277 t216 -98q139 0 215.5 98.5t76.5 276.5q0 177 -76.5 275.5t-215.5 98.5q-140 0 -216 -98t-76 -276zM696 1372q0 57 39 96t95 39t94.5 -39t38.5 -96t-38.5 -95.5t-94.5 -38.5t-95 38.5t-39 95.5z" />
<glyph unicode="&#xfb;" horiz-adv-x="1230" d="M146 382v707h215v-651q0 -133 55.5 -196.5t173.5 -63.5q129 0 199 72.5t70 201.5v637h215v-1089h-207v173h-17q-83 -194 -329 -194q-180 0 -277.5 105t-97.5 298zM213 1238l280 346h234l279 -346h-221l-167 219h-16l-167 -219h-222z" />
<glyph unicode="&#xfc;" horiz-adv-x="1230" d="M146 382v707h215v-651q0 -133 55.5 -196.5t173.5 -63.5q129 0 199 72.5t70 201.5v637h215v-1089h-207v173h-17q-83 -194 -329 -194q-180 0 -277.5 105t-97.5 298zM263 1372q0 57 38.5 96t95.5 39q56 0 94.5 -39t38.5 -96t-38.5 -95.5t-94.5 -38.5q-57 0 -95.5 38.5 t-38.5 95.5zM690 1372q0 57 39 96t95 39t94.5 -39t38.5 -96t-38.5 -95.5t-94.5 -38.5t-95 38.5t-39 95.5z" />
<glyph unicode="&#x100;" horiz-adv-x="1423" d="M70 0l521 1443h241l521 -1443h-238l-132 383h-550l-133 -383h-230zM362 1625v156h700v-156h-700zM490 571h436l-209 610h-17z" />
<glyph unicode="&#x101;" horiz-adv-x="1158" d="M94 308q0 146 105 229.5t300 95.5l295 17v94q0 87 -57 133.5t-166 46.5q-90 0 -149.5 -31.5t-77.5 -89.5h-208q16 140 137.5 223.5t307.5 83.5q204 0 315.5 -96.5t111.5 -269.5v-744h-207v153h-17q-49 -82 -134.5 -126.5t-192.5 -44.5q-160 0 -261.5 89.5t-101.5 236.5z M233 1299v155h696v-155h-696zM310 318q0 -72 56 -113.5t146 -41.5q121 0 201.5 68t80.5 170v91l-266 -17q-112 -7 -165 -46t-53 -111z" />
<glyph unicode="&#x102;" horiz-adv-x="1423" d="M70 0l521 1443h241l521 -1443h-238l-132 383h-550l-133 -383h-230zM335 1891h173q1 -78 56 -123.5t148 -45.5t148 45.5t56 123.5h173q0 -142 -101.5 -228t-275.5 -86t-275.5 86t-101.5 228zM490 571h436l-209 610h-17z" />
<glyph unicode="&#x103;" horiz-adv-x="1158" d="M94 308q0 146 105 229.5t300 95.5l295 17v94q0 87 -57 133.5t-166 46.5q-90 0 -149.5 -31.5t-77.5 -89.5h-208q16 140 137.5 223.5t307.5 83.5q204 0 315.5 -96.5t111.5 -269.5v-744h-207v153h-17q-49 -82 -134.5 -126.5t-192.5 -44.5q-160 0 -261.5 89.5t-101.5 236.5z M202 1576h173q1 -85 55 -137.5t149 -52.5t149 52.5t55 137.5h173q0 -150 -102 -244t-275 -94t-275 94t-102 244zM310 318q0 -72 56 -113.5t146 -41.5q121 0 201.5 68t80.5 170v91l-266 -17q-112 -7 -165 -46t-53 -111z" />
<glyph unicode="&#x104;" horiz-adv-x="1423" d="M70 0l521 1443h241l521 -1443l-25 -5q-81 -29 -136.5 -76.5t-55.5 -108.5q0 -45 32.5 -71t81.5 -26q48 0 67 7v-148q-49 -19 -116 -19q-114 0 -184 60.5t-70 152.5q0 70 46.5 133t120.5 102l-131 382h-550l-133 -383h-230zM490 571h436l-209 610h-17z" />
<glyph unicode="&#x105;" horiz-adv-x="1158" d="M94 308q0 146 104.5 229.5t300.5 95.5l295 17v94q0 87 -57 133.5t-166 46.5q-91 0 -150 -31.5t-77 -89.5h-208q17 140 138 223.5t307 83.5q203 0 315 -96t112 -270v-744l-21 -6q-81 -28 -130 -77.5t-49 -106.5q0 -43 31.5 -70t83.5 -27q47 0 67 7v-148q-52 -19 -117 -19 q-112 0 -183 59.5t-71 153.5q0 77 51.5 142t130.5 96v149h-17q-49 -82 -134.5 -126.5t-192.5 -44.5q-162 0 -262.5 90t-100.5 236zM310 318q0 -70 55.5 -112.5t146.5 -42.5q121 0 201.5 68t80.5 170v91l-266 -17q-111 -8 -164.5 -46t-53.5 -111z" />
<glyph unicode="&#x106;" horiz-adv-x="1485" d="M122 721q0 351 174.5 554t475.5 203q238 0 405.5 -139.5t194.5 -360.5h-223q-32 133 -133.5 212t-243.5 79q-194 0 -307.5 -147.5t-113.5 -400.5q0 -252 113.5 -399.5t308.5 -147.5q143 0 244.5 72t131.5 194h223q-30 -214 -194 -344.5t-405 -130.5q-301 0 -476 203 t-175 553zM654 1584l297 306h258l-325 -306h-230z" />
<glyph unicode="&#x107;" horiz-adv-x="1167" d="M102 548q0 262 136 412t374 150q199 0 321.5 -104t144.5 -273h-209q-20 83 -86.5 134t-170.5 51q-135 0 -212.5 -98t-77.5 -272q0 -176 77.5 -276.5t212.5 -100.5q103 0 169.5 46t87.5 133h209q-21 -168 -144 -269.5t-321 -101.5q-238 0 -374.5 151.5t-136.5 417.5z M482 1271l251 344h252l-281 -344h-222z" />
<glyph unicode="&#x108;" horiz-adv-x="1485" d="M122 721q0 351 174.5 554t475.5 203q238 0 405.5 -139.5t194.5 -360.5h-223q-32 133 -133.5 212t-243.5 79q-194 0 -307.5 -147.5t-113.5 -400.5q0 -252 113.5 -399.5t308.5 -147.5q143 0 244.5 72t131.5 194h223q-30 -214 -194 -344.5t-405 -130.5q-301 0 -476 203 t-175 553zM376 1584l295 314h202l295 -314h-225l-163 181h-16l-163 -181h-225z" />
<glyph unicode="&#x109;" horiz-adv-x="1167" d="M102 548q0 262 136 412t374 150q199 0 321.5 -104t144.5 -273h-209q-20 83 -86.5 134t-170.5 51q-135 0 -212.5 -98t-77.5 -272q0 -176 77.5 -276.5t212.5 -100.5q103 0 169.5 46t87.5 133h209q-21 -168 -144 -269.5t-321 -101.5q-238 0 -374.5 151.5t-136.5 417.5z M214 1238l280 346h234l279 -346h-221l-167 219h-16l-167 -219h-222z" />
<glyph unicode="&#x10a;" horiz-adv-x="1485" d="M122 721q0 351 174.5 554t475.5 203q238 0 405.5 -139.5t194.5 -360.5h-223q-32 133 -133.5 212t-243.5 79q-194 0 -307.5 -147.5t-113.5 -400.5q0 -252 113.5 -399.5t308.5 -147.5q143 0 244.5 72t131.5 194h223q-30 -214 -194 -344.5t-405 -130.5q-301 0 -476 203 t-175 553zM638 1716q0 58 38.5 97.5t95.5 39.5t95.5 -39.5t38.5 -97.5t-38.5 -97.5t-95.5 -39.5t-95.5 39.5t-38.5 97.5z" />
<glyph unicode="&#x10b;" horiz-adv-x="1167" d="M102 548q0 262 136 412t374 150q199 0 321.5 -104t144.5 -273h-209q-20 83 -86.5 134t-170.5 51q-135 0 -212.5 -98t-77.5 -272q0 -176 77.5 -276.5t212.5 -100.5q103 0 169.5 46t87.5 133h209q-21 -168 -144 -269.5t-321 -101.5q-238 0 -374.5 151.5t-136.5 417.5z M471 1425q0 59 40.5 100.5t99.5 41.5q58 0 99 -41.5t41 -100.5t-41 -100.5t-99 -41.5q-59 0 -99.5 41.5t-40.5 100.5z" />
<glyph unicode="&#x10c;" horiz-adv-x="1485" d="M122 721q0 351 174.5 554t475.5 203q238 0 405.5 -139.5t194.5 -360.5h-223q-32 133 -133.5 212t-243.5 79q-194 0 -307.5 -147.5t-113.5 -400.5q0 -252 113.5 -399.5t308.5 -147.5q143 0 244.5 72t131.5 194h223q-30 -214 -194 -344.5t-405 -130.5q-301 0 -476 203 t-175 553zM381 1890h220l162 -175h18l162 175h220l-293 -306h-196z" />
<glyph unicode="&#x10d;" horiz-adv-x="1167" d="M102 548q0 262 136 412t374 150q199 0 321.5 -104t144.5 -273h-209q-20 83 -86.5 134t-170.5 51q-135 0 -212.5 -98t-77.5 -272q0 -176 77.5 -276.5t212.5 -100.5q103 0 169.5 46t87.5 133h209q-21 -168 -144 -269.5t-321 -101.5q-238 0 -374.5 151.5t-136.5 417.5z M214 1584h222l167 -219h16l167 219h221l-279 -346h-234z" />
<glyph unicode="&#x10e;" horiz-adv-x="1502" d="M181 0v1443h521q321 0 500 -188.5t179 -528.5q0 -346 -178 -536t-501 -190h-521zM219 1888h220l162 -175h18l162 175h220l-293 -306h-196zM405 204h272q227 0 351.5 135.5t124.5 383.5q0 244 -125.5 380t-350.5 136h-272v-1035z" />
<glyph unicode="&#x10f;" horiz-adv-x="1440" d="M102 545q0 258 122.5 410t329.5 152q112 0 201 -50.5t133 -140.5h16v598h215v-1514h-206v172h-17q-49 -89 -139.5 -139.5t-202.5 -50.5q-208 0 -330 152t-122 411zM324 545q0 -173 77.5 -271.5t213.5 -98.5t214.5 99t78.5 270q0 170 -79 270t-214 100 q-136 0 -213.5 -98.5t-77.5 -270.5zM1265 1018v496h199l-50 -496h-149z" />
<glyph unicode="&#x110;" horiz-adv-x="1507" d="M35 643v191h150v609h521q321 0 500 -188.5t179 -528.5q0 -346 -178 -536t-501 -190h-521v643h-150zM409 204h272q227 0 351.5 135.5t124.5 383.5q0 244 -125.5 380t-350.5 136h-272v-405h236v-191h-236v-439z" />
<glyph unicode="&#x111;" horiz-adv-x="1290" d="M106 545q0 258 122.5 410t329.5 152q113 0 201.5 -50.5t133.5 -140.5h16v351h-251v137h251v110h214v-110h144v-137h-144v-1267h-206v172h-17q-49 -89 -139.5 -139.5t-202.5 -50.5q-208 0 -330 152t-122 411zM328 545q0 -173 77.5 -271.5t213.5 -98.5t214.5 99t78.5 270 t-78.5 270.5t-214.5 99.5t-213.5 -98.5t-77.5 -270.5z" />
<glyph unicode="&#x112;" horiz-adv-x="1239" d="M181 0v1443h916v-204h-692v-408h655v-194h-655v-433h692v-204h-916zM289 1625v156h700v-156h-700z" />
<glyph unicode="&#x113;" horiz-adv-x="1192" d="M102 541q0 261 136 415t366 154q227 0 356.5 -146t129.5 -403v-75h-769v-12q5 -144 83 -228t207 -84q197 0 259 132h207q-37 -147 -161.5 -231t-310.5 -84q-234 0 -368.5 150.5t-134.5 411.5zM256 1299v155h696v-155h-696zM321 645h550q-4 129 -76.5 205.5t-191.5 76.5 t-196 -77t-86 -205z" />
<glyph unicode="&#x114;" horiz-adv-x="1239" d="M181 0v1443h916v-204h-692v-408h655v-194h-655v-433h692v-204h-916zM262 1891h173q1 -78 56 -123.5t148 -45.5t148 45.5t56 123.5h173q0 -142 -101.5 -228t-275.5 -86t-275.5 86t-101.5 228z" />
<glyph unicode="&#x115;" horiz-adv-x="1192" d="M102 541q0 261 136 415t366 154q227 0 356.5 -146t129.5 -403v-75h-769v-12q5 -144 83 -228t207 -84q197 0 259 132h207q-37 -147 -161.5 -231t-310.5 -84q-234 0 -368.5 150.5t-134.5 411.5zM225 1576h173q1 -85 55 -137.5t149 -52.5t149 52.5t55 137.5h173 q0 -150 -102 -244t-275 -94t-275 94t-102 244zM321 645h550q-4 129 -76.5 205.5t-191.5 76.5t-196 -77t-86 -205z" />
<glyph unicode="&#x116;" horiz-adv-x="1239" d="M181 0v1443h916v-204h-692v-408h655v-194h-655v-433h692v-204h-916zM505 1714q0 58 38.5 97.5t95.5 39.5t95.5 -39.5t38.5 -97.5t-38.5 -97.5t-95.5 -39.5t-95.5 39.5t-38.5 97.5z" />
<glyph unicode="&#x117;" horiz-adv-x="1192" d="M102 541q0 261 136 415t366 154q227 0 356.5 -146t129.5 -403v-75h-769v-12q5 -144 83 -228t207 -84q197 0 259 132h207q-37 -147 -161.5 -231t-310.5 -84q-234 0 -368.5 150.5t-134.5 411.5zM321 645h550q-4 129 -76.5 205.5t-191.5 76.5t-196 -77t-86 -205zM464 1425 q0 59 40.5 100.5t99.5 41.5q58 0 99 -41.5t41 -100.5t-41 -100.5t-99 -41.5q-59 0 -99.5 41.5t-40.5 100.5z" />
<glyph unicode="&#x118;" horiz-adv-x="1239" d="M181 0v1443h916v-204h-692v-408h655v-194h-655v-433h692v-195l-43 -14q-78 -26 -132.5 -74.5t-54.5 -110.5q0 -45 32.5 -71t81.5 -26q48 0 67 7v-148q-49 -19 -116 -19q-114 0 -184.5 60.5t-70.5 152.5q0 67 39 124.5t103 92.5v17h-638z" />
<glyph unicode="&#x119;" horiz-adv-x="1192" d="M102 541q0 261 136 415t366 154q227 0 356.5 -146t129.5 -403v-75h-769v-12q5 -144 83 -228t207 -84q197 0 259 132h207q-12 -57 -58.5 -128.5t-110.5 -123.5q-85 -69 -125 -122.5t-40 -107.5q0 -47 32.5 -73t81.5 -26q48 0 67 7v-148q-49 -19 -116 -19q-114 0 -184 60.5 t-70 152.5q0 60 34 114.5t97 93.5v17q-26 -12 -80 -12q-234 0 -368.5 150.5t-134.5 411.5zM321 645h550q-4 129 -76.5 205.5t-191.5 76.5t-196 -77t-86 -205z" />
<glyph unicode="&#x11a;" horiz-adv-x="1239" d="M181 0v1443h916v-204h-692v-408h655v-194h-655v-433h692v-204h-916zM248 1888h220l162 -175h18l162 175h220l-293 -306h-196z" />
<glyph unicode="&#x11b;" horiz-adv-x="1192" d="M102 541q0 261 136 415t366 154q227 0 356.5 -146t129.5 -403v-75h-769v-12q5 -144 83 -228t207 -84q197 0 259 132h207q-37 -147 -161.5 -231t-310.5 -84q-234 0 -368.5 150.5t-134.5 411.5zM207 1584h222l167 -219h16l167 219h221l-279 -346h-234zM321 645h550 q-4 129 -76.5 205.5t-191.5 76.5t-196 -77t-86 -205z" />
<glyph unicode="&#x11c;" d="M122 722q0 345 181 550.5t484 205.5q246 0 412 -129.5t203 -348.5h-225q-42 131 -142 200t-248 69q-200 0 -318 -147.5t-118 -397.5q0 -255 118.5 -402.5t322.5 -147.5q177 0 288 99t112 259v31h-372v188h592v-180q0 -277 -169.5 -441.5t-453.5 -164.5q-307 0 -487 204 t-180 553zM391 1582l295 314h202l295 -314h-225l-163 181h-16l-163 -181h-225z" />
<glyph unicode="&#x11d;" horiz-adv-x="1274" d="M101 557q0 250 122 400t330 150q112 0 204 -51.5t138 -140.5h17v174h206v-1098q0 -187 -136 -297t-367 -110q-202 0 -328 83.5t-143 223.5h220q14 -60 80.5 -95t173.5 -35q134 0 209.5 60.5t75.5 168.5v209h-16q-49 -88 -136 -135.5t-200 -47.5q-207 0 -328.5 147.5 t-121.5 393.5zM215 1238l280 346h234l279 -346h-221l-167 219h-16l-167 -219h-222zM323 558q0 -165 76 -260.5t213 -95.5t216 96t79 260q0 163 -79 259.5t-216 96.5t-213 -95.5t-76 -260.5z" />
<glyph unicode="&#x11e;" d="M122 722q0 345 181 550.5t484 205.5q246 0 412 -129.5t203 -348.5h-225q-42 131 -142 200t-248 69q-200 0 -318 -147.5t-118 -397.5q0 -255 118.5 -402.5t322.5 -147.5q177 0 288 99t112 259v31h-372v188h592v-180q0 -277 -169.5 -441.5t-453.5 -164.5q-307 0 -487 204 t-180 553zM410 1891h173q1 -78 56 -123.5t148 -45.5t148 45.5t56 123.5h173q0 -142 -101.5 -228t-275.5 -86t-275.5 86t-101.5 228z" />
<glyph unicode="&#x11f;" horiz-adv-x="1274" d="M101 557q0 250 122 400t330 150q112 0 204 -51.5t138 -140.5h17v174h206v-1098q0 -187 -136 -297t-367 -110q-202 0 -328 83.5t-143 223.5h220q14 -60 80.5 -95t173.5 -35q134 0 209.5 60.5t75.5 168.5v209h-16q-49 -88 -136 -135.5t-200 -47.5q-207 0 -328.5 147.5 t-121.5 393.5zM233 1576h173q1 -85 55 -137.5t149 -52.5t149 52.5t55 137.5h173q0 -150 -102 -244t-275 -94t-275 94t-102 244zM323 558q0 -165 76 -260.5t213 -95.5t216 96t79 260q0 163 -79 259.5t-216 96.5t-213 -95.5t-76 -260.5z" />
<glyph unicode="&#x120;" d="M122 722q0 345 181 550.5t484 205.5q246 0 412 -129.5t203 -348.5h-225q-42 131 -142 200t-248 69q-200 0 -318 -147.5t-118 -397.5q0 -255 118.5 -402.5t322.5 -147.5q177 0 288 99t112 259v31h-372v188h592v-180q0 -277 -169.5 -441.5t-453.5 -164.5q-307 0 -487 204 t-180 553zM653 1714q0 58 38.5 97.5t95.5 39.5t95.5 -39.5t38.5 -97.5t-38.5 -97.5t-95.5 -39.5t-95.5 39.5t-38.5 97.5z" />
<glyph unicode="&#x121;" horiz-adv-x="1274" d="M101 557q0 250 122 400t330 150q112 0 204 -51.5t138 -140.5h17v174h206v-1098q0 -187 -136 -297t-367 -110q-202 0 -328 83.5t-143 223.5h220q14 -60 80.5 -95t173.5 -35q134 0 209.5 60.5t75.5 168.5v209h-16q-49 -88 -136 -135.5t-200 -47.5q-207 0 -328.5 147.5 t-121.5 393.5zM323 558q0 -165 76 -260.5t213 -95.5t216 96t79 260q0 163 -79 259.5t-216 96.5t-213 -95.5t-76 -260.5zM472 1425q0 59 40.5 100.5t99.5 41.5q58 0 99 -41.5t41 -100.5t-41 -100.5t-99 -41.5q-59 0 -99.5 41.5t-40.5 100.5z" />
<glyph unicode="&#x122;" d="M122 722q0 345 181 550.5t484 205.5q246 0 412 -129.5t203 -348.5h-225q-42 131 -142 200t-248 69q-200 0 -318 -147.5t-118 -397.5q0 -255 118.5 -402.5t322.5 -147.5q177 0 288 99t112 259v31h-372v188h592v-180q0 -277 -169.5 -441.5t-453.5 -164.5q-307 0 -487 204 t-180 553zM593 -514l113 368h222l-135 -368h-200z" />
<glyph unicode="&#x123;" horiz-adv-x="1274" d="M101 557q0 250 122 400t330 150q112 0 204 -51.5t138 -140.5h17v174h206v-1098q0 -187 -136 -297t-367 -110q-202 0 -328 83.5t-143 223.5h220q14 -60 80.5 -95t173.5 -35q134 0 209.5 60.5t75.5 168.5v209h-16q-49 -88 -136 -135.5t-200 -47.5q-207 0 -328.5 147.5 t-121.5 393.5zM323 558q0 -165 76 -260.5t213 -95.5t216 96t79 260q0 163 -79 259.5t-216 96.5t-213 -95.5t-76 -260.5zM492 1289l135 368h200l-113 -368h-222z" />
<glyph unicode="&#x124;" horiz-adv-x="1550" d="M181 0v1443h224v-606h741v606h223v-1443h-223v633h-741v-633h-224zM379 1582l295 314h202l295 -314h-225l-163 181h-16l-163 -181h-225z" />
<glyph unicode="&#x125;" horiz-adv-x="1249" d="M-123 1653l295 314h202l295 -314h-225l-163 181h-16l-163 -181h-225zM166 0v1514h213v-600h17q40 93 125.5 144t206.5 51q175 0 275 -106.5t100 -299.5v-703h-215v650q0 130 -59 196t-174 66q-130 0 -202 -75t-72 -201v-636h-215z" />
<glyph unicode="&#x126;" horiz-adv-x="1550" d="M48 1066v171h133v206h224v-206h741v206h223v-206h134v-171h-134v-1066h-223v633h-741v-633h-224v1066h-133zM405 837h741v229h-741v-229z" />
<glyph unicode="&#x127;" horiz-adv-x="1249" d="M22 1267v137h144v110h213v-110h251v-137h-251v-353h17q40 93 125.5 144t206.5 51q175 0 275 -106.5t100 -299.5v-703h-215v650q0 130 -59 196t-174 66q-130 0 -202 -75t-72 -201v-636h-215v1267h-144z" />
<glyph unicode="&#x128;" horiz-adv-x="585" d="M-95 1578q0 140 65 222t177 82q44 0 81.5 -15.5t63.5 -38t48 -44.5t45 -37.5t44 -15.5q49 0 71.5 35t22.5 113h158q0 -140 -65 -221t-177 -81q-44 0 -81.5 15.5t-63.5 37.5t-48 44.5t-45 38t-44 15.5q-49 0 -71.5 -36t-22.5 -114h-158zM181 0v1443h224v-1443h-224z" />
<glyph unicode="&#x129;" horiz-adv-x="534" d="M-119 1242q0 140 65 222t177 82q44 0 81.5 -15.5t63.5 -38t48 -44.5t45 -37.5t44 -15.5q49 0 71.5 35t22.5 113h158q0 -140 -65 -221t-177 -81q-44 0 -81.5 15.5t-63.5 37.5t-48 44.5t-45 38t-44 15.5q-49 0 -71.5 -36t-22.5 -114h-158zM160 0v1089h214v-1089h-214z" />
<glyph unicode="&#x12a;" horiz-adv-x="585" d="M-57 1625v156h700v-156h-700zM181 0v1443h224v-1443h-224z" />
<glyph unicode="&#x12b;" horiz-adv-x="534" d="M-29 1299v155h592v-155h-592zM160 0v1089h214v-1089h-214z" />
<glyph unicode="&#x12c;" horiz-adv-x="585" d="M-84 1891h173q1 -78 56 -123.5t148 -45.5t148 45.5t56 123.5h173q0 -142 -101.5 -228t-275.5 -86t-275.5 86t-101.5 228zM181 0v1443h224v-1443h-224z" />
<glyph unicode="&#x12d;" horiz-adv-x="534" d="M-112 1576h173q1 -85 55 -137.5t149 -52.5t149 52.5t55 137.5h173q0 -150 -102 -244t-275 -94t-275 94t-102 244zM160 0v1089h214v-1089h-214z" />
<glyph unicode="&#x12e;" horiz-adv-x="585" d="M49 -234q0 67 34.5 124t97.5 96v1457h224v-1443l-12 -4q-155 -78 -155 -184q0 -44 32 -71.5t84 -27.5q45 0 67 7v-148q-49 -19 -118 -19q-112 0 -183 59.5t-71 153.5z" />
<glyph unicode="&#x12f;" horiz-adv-x="534" d="M18 -232q0 67 36.5 125.5t105.5 99.5v1096h214v-1089l-15 -4q-151 -75 -151 -184q0 -46 33.5 -72.5t82.5 -26.5q37 0 67 6v-147q-49 -19 -116 -19q-116 0 -186.5 61t-70.5 154zM128 1411q0 56 39.5 94t99.5 38t99.5 -38t39.5 -94t-39.5 -93.5t-99.5 -37.5t-99.5 37.5 t-39.5 93.5z" />
<glyph unicode="&#x130;" horiz-adv-x="585" d="M159 1714q0 58 38.5 97.5t95.5 39.5t95.5 -39.5t38.5 -97.5t-38.5 -97.5t-95.5 -39.5t-95.5 39.5t-38.5 97.5zM181 0v1443h224v-1443h-224z" />
<glyph unicode="&#x131;" horiz-adv-x="534" d="M160 0v1089h214v-1089h-214z" />
<glyph unicode="&#x132;" horiz-adv-x="1734" d="M181 0v1443h224v-1443h-224zM667 375h220q2 -89 62 -144t156 -55q108 0 166 63.5t58 183.5v1020h224v-1021q0 -217 -118.5 -337t-327.5 -120q-197 0 -318.5 112.5t-121.5 297.5z" />
<glyph unicode="&#x133;" horiz-adv-x="1090" d="M128 1411q0 56 39.5 94t99.5 38t99.5 -38t39.5 -94t-39.5 -93.5t-99.5 -37.5t-99.5 37.5t-39.5 93.5zM160 0v1089h214v-1089h-214zM520 -191h30q85 0 120 34t35 114v1132h214v-1134q0 -167 -86.5 -247t-264.5 -80q-43 0 -48 1v180zM673 1411q0 56 39.5 94t99.5 38 t99.5 -38t39.5 -94t-39.5 -93.5t-99.5 -37.5t-99.5 37.5t-39.5 93.5z" />
<glyph unicode="&#x134;" horiz-adv-x="1148" d="M82 375h220q2 -89 62 -144t156 -55q108 0 166 63.5t58 183.5v1020h224v-1021q0 -217 -118.5 -337t-327.5 -120q-197 0 -318.5 112.5t-121.5 297.5zM460 1582l295 314h202l295 -314h-225l-163 181h-16l-163 -181h-225z" />
<glyph unicode="&#x135;" horiz-adv-x="534" d="M-128 1238l280 346h234l279 -346h-221l-167 219h-16l-167 -219h-222zM-30 -191h30q85 0 120 34t35 114v1132h214v-1134q0 -167 -86.5 -247t-264.5 -80q-43 0 -48 1v180z" />
<glyph unicode="&#x136;" horiz-adv-x="1386" d="M181 0v1443h224v-676h16l597 676h265l-558 -627l606 -816h-280l-484 655l-162 -181v-474h-224zM470 -514l113 368h222l-135 -368h-200z" />
<glyph unicode="&#x137;" horiz-adv-x="1155" d="M166 0v1514h215v-879h17l432 454h254l-448 -467l478 -622h-264l-374 480l-95 -90v-390h-215zM420 -514l113 368h222l-135 -368h-200z" />
<glyph unicode="&#x139;" horiz-adv-x="1183" d="M175 1582l297 306h258l-325 -306h-230zM181 0v1443h224v-1237h676v-206h-900z" />
<glyph unicode="&#x13a;" horiz-adv-x="547" d="M156 1653l297 306h258l-325 -306h-230zM166 0v1514h215v-1514h-215z" />
<glyph unicode="&#x13b;" horiz-adv-x="1183" d="M181 0v1443h224v-1237h676v-206h-900zM429 -514l113 368h222l-135 -368h-200z" />
<glyph unicode="&#x13c;" horiz-adv-x="547" d="M74 -514l113 368h222l-135 -368h-200zM166 0v1514h215v-1514h-215z" />
<glyph unicode="&#x13d;" horiz-adv-x="1183" d="M181 0v1443h224v-1237h676v-206h-900zM620 948v495h197l-50 -495h-147z" />
<glyph unicode="&#x13e;" horiz-adv-x="702" d="M166 0v1514h215v-1514h-215zM527 1018v496h199l-50 -496h-149z" />
<glyph unicode="&#x141;" horiz-adv-x="1183" d="M20 617v170l161 78v578h224v-469l272 132v-171l-272 -132v-597h676v-206h-900v695z" />
<glyph unicode="&#x142;" horiz-adv-x="547" d="M40 627v170l126 65v652h215v-541l127 65v-170l-127 -65v-803h-215v692z" />
<glyph unicode="&#x143;" d="M181 0v1443h202l741 -1025h16v1025h218v-1443h-202l-741 1025h-16v-1025h-218zM650 1582l297 306h258l-325 -306h-230z" />
<glyph unicode="&#x144;" horiz-adv-x="1227" d="M156 0v1089h207v-173h16q85 194 325 194q182 0 279.5 -105t97.5 -300v-705h-215v651q0 262 -235 262q-119 0 -189.5 -74.5t-70.5 -201.5v-637h-215zM493 1271l251 344h252l-281 -344h-222z" />
<glyph unicode="&#x145;" d="M181 0v1443h202l741 -1025h16v1025h218v-1443h-202l-741 1025h-16v-1025h-218zM568 -514l113 368h222l-135 -368h-200z" />
<glyph unicode="&#x146;" horiz-adv-x="1227" d="M156 0v1089h207v-173h16q85 194 325 194q182 0 279.5 -105t97.5 -300v-705h-215v651q0 262 -235 262q-119 0 -189.5 -74.5t-70.5 -201.5v-637h-215zM422 -514l113 368h222l-135 -368h-200z" />
<glyph unicode="&#x147;" d="M181 0v1443h202l741 -1025h16v1025h218v-1443h-202l-741 1025h-16v-1025h-218zM377 1888h220l162 -175h18l162 175h220l-293 -306h-196z" />
<glyph unicode="&#x148;" horiz-adv-x="1227" d="M156 0v1089h207v-173h16q85 194 325 194q182 0 279.5 -105t97.5 -300v-705h-215v651q0 262 -235 262q-119 0 -189.5 -74.5t-70.5 -201.5v-637h-215zM225 1584h222l167 -219h16l167 219h221l-279 -346h-234z" />
<glyph unicode="&#x14c;" horiz-adv-x="1590" d="M122 722q0 349 181.5 552.5t492.5 203.5q312 0 492 -203.5t180 -552.5t-180 -553t-492 -204q-313 0 -493.5 203.5t-180.5 553.5zM351 722q0 -251 119 -399.5t326 -148.5q205 0 324 148.5t119 399.5q0 252 -119 399.5t-324 147.5q-204 0 -324.5 -148t-120.5 -399z M446 1625v156h700v-156h-700z" />
<glyph unicode="&#x14d;" horiz-adv-x="1231" d="M102 545q0 263 137.5 414t376.5 151q238 0 375.5 -151t137.5 -414q0 -264 -137 -415t-376 -151q-240 0 -377 151t-137 415zM268 1299v155h696v-155h-696zM324 545q0 -179 76 -277t216 -98q139 0 215.5 98.5t76.5 276.5q0 177 -76.5 275.5t-215.5 98.5q-140 0 -216 -98 t-76 -276z" />
<glyph unicode="&#x14e;" horiz-adv-x="1590" d="M122 722q0 349 181.5 552.5t492.5 203.5q312 0 492 -203.5t180 -552.5t-180 -553t-492 -204q-313 0 -493.5 203.5t-180.5 553.5zM351 722q0 -251 119 -399.5t326 -148.5q205 0 324 148.5t119 399.5q0 252 -119 399.5t-324 147.5q-204 0 -324.5 -148t-120.5 -399z M419 1891h173q1 -78 56 -123.5t148 -45.5t148 45.5t56 123.5h173q0 -142 -101.5 -228t-275.5 -86t-275.5 86t-101.5 228z" />
<glyph unicode="&#x14f;" horiz-adv-x="1231" d="M102 545q0 263 137.5 414t376.5 151q238 0 375.5 -151t137.5 -414q0 -264 -137 -415t-376 -151q-240 0 -377 151t-137 415zM237 1576h173q1 -85 55 -137.5t149 -52.5t149 52.5t55 137.5h173q0 -150 -102 -244t-275 -94t-275 94t-102 244zM324 545q0 -179 76 -277t216 -98 q139 0 215.5 98.5t76.5 276.5q0 177 -76.5 275.5t-215.5 98.5q-140 0 -216 -98t-76 -276z" />
<glyph unicode="&#x150;" horiz-adv-x="1590" d="M122 722q0 349 181.5 552.5t492.5 203.5q312 0 492 -203.5t180 -552.5t-180 -553t-492 -204q-313 0 -493.5 203.5t-180.5 553.5zM351 722q0 -251 119 -399.5t326 -148.5q205 0 324 148.5t119 399.5q0 252 -119 399.5t-324 147.5q-204 0 -324.5 -148t-120.5 -399z M431 1582l288 306h242l-312 -306h-218zM853 1582l289 306h242l-313 -306h-218z" />
<glyph unicode="&#x151;" horiz-adv-x="1231" d="M102 545q0 263 137.5 414t376.5 151q238 0 375.5 -151t137.5 -414q0 -264 -137 -415t-376 -151q-240 0 -377 151t-137 415zM272 1271l238 344h228l-267 -344h-199zM324 545q0 -179 76 -277t216 -98q139 0 215.5 98.5t76.5 276.5q0 177 -76.5 275.5t-215.5 98.5 q-140 0 -216 -98t-76 -276zM685 1271l238 344h228l-267 -344h-199z" />
<glyph unicode="&#x152;" horiz-adv-x="2306" d="M125 722q0 351 175 553.5t477 202.5q152 0 287 -74.5t196 -192.5h16v232h902v-204h-707v-408h670v-194h-670v-433h707v-204h-902v241h-16q-62 -124 -195 -200t-288 -76q-303 0 -477.5 202.5t-174.5 554.5zM355 722q0 -254 121.5 -401t331.5 -147q202 0 319 147t117 401 t-117 400.5t-319 146.5q-209 0 -331 -147t-122 -400z" />
<glyph unicode="&#x153;" horiz-adv-x="1998" d="M104 544q0 263 136 414.5t373 151.5q133 0 237 -56t160 -158h17q55 101 157.5 157.5t231.5 56.5q221 0 350.5 -147.5t129.5 -400.5v-76h-768v-11q5 -144 83 -228t206 -84q198 0 259 131h207q-37 -147 -161.5 -231t-304.5 -84q-133 0 -239 57t-152 153h-17 q-47 -96 -154 -153t-242 -57q-236 0 -372.5 151.5t-136.5 413.5zM325 544q0 -178 76.5 -276t215.5 -98t215.5 98t76.5 276q0 179 -76.5 277t-215.5 98t-215.5 -98.5t-76.5 -276.5zM1128 646h549q-3 128 -76 205t-191 77q-119 0 -196 -77t-86 -205z" />
<glyph unicode="&#x154;" horiz-adv-x="1368" d="M181 0v1443h571q218 0 348 -120.5t130 -323.5q0 -146 -74.5 -256.5t-205.5 -155.5l324 -587h-259l-294 550h-316v-550h-224zM405 741h322q130 0 201.5 66t71.5 187q0 118 -74.5 185t-204.5 67h-316v-505zM506 1582l297 306h258l-325 -306h-230z" />
<glyph unicode="&#x155;" horiz-adv-x="820" d="M156 0v1089h207v-167h16q23 81 105.5 133t188.5 52q61 0 96 -9v-212q-39 13 -120 13q-123 0 -200.5 -71t-77.5 -185v-643h-215zM274 1271l251 344h252l-281 -344h-222z" />
<glyph unicode="&#x156;" horiz-adv-x="1368" d="M181 0v1443h571q218 0 348 -120.5t130 -323.5q0 -146 -74.5 -256.5t-205.5 -155.5l324 -587h-259l-294 550h-316v-550h-224zM405 741h322q130 0 201.5 66t71.5 187q0 118 -74.5 185t-204.5 67h-316v-505zM424 -514l113 368h222l-135 -368h-200z" />
<glyph unicode="&#x157;" horiz-adv-x="820" d="M63 -514l113 368h222l-135 -368h-200zM156 0v1089h207v-167h16q23 81 105.5 133t188.5 52q61 0 96 -9v-212q-39 13 -120 13q-123 0 -200.5 -71t-77.5 -185v-643h-215z" />
<glyph unicode="&#x158;" horiz-adv-x="1368" d="M181 0v1443h571q218 0 348 -120.5t130 -323.5q0 -146 -74.5 -256.5t-205.5 -155.5l324 -587h-259l-294 550h-316v-550h-224zM233 1888h220l162 -175h18l162 175h220l-293 -306h-196zM405 741h322q130 0 201.5 66t71.5 187q0 118 -74.5 185t-204.5 67h-316v-505z" />
<glyph unicode="&#x159;" horiz-adv-x="820" d="M6 1584h222l167 -219h16l167 219h221l-279 -346h-234zM156 0v1089h207v-167h16q23 81 105.5 133t188.5 52q61 0 96 -9v-212q-39 13 -120 13q-123 0 -200.5 -71t-77.5 -185v-643h-215z" />
<glyph unicode="&#x15a;" horiz-adv-x="1333" d="M113 388h222q14 -103 107.5 -163.5t238.5 -60.5q135 0 223.5 62.5t88.5 158.5q0 82 -65.5 134.5t-209.5 86.5l-186 45q-196 46 -288 143t-92 256q0 193 144.5 310.5t380.5 117.5q220 0 365 -116t155 -298h-218q-16 100 -97.5 158t-207.5 58q-133 0 -214 -59t-81 -156 q0 -77 61.5 -125t202.5 -81l159 -39q222 -52 320 -147.5t98 -258.5q0 -207 -150 -328t-406 -121q-240 0 -389.5 115t-161.5 308zM559 1582l297 306h258l-325 -306h-230z" />
<glyph unicode="&#x15b;" horiz-adv-x="1104" d="M103 289h215q21 -64 81 -100t156 -36q101 0 165 41t64 106q0 95 -160 133l-190 44q-156 37 -229.5 110t-73.5 194q0 144 119 236.5t304 92.5q184 0 297 -81t129 -225h-206q-15 61 -72.5 96t-147.5 35q-91 0 -151 -39.5t-60 -102.5q0 -49 42 -81t131 -52l181 -42 q157 -36 230.5 -107t73.5 -190q0 -152 -127 -247t-324 -95q-194 0 -313.5 82.5t-133.5 227.5zM425 1271l251 344h252l-281 -344h-222z" />
<glyph unicode="&#x15c;" horiz-adv-x="1333" d="M113 388h222q14 -103 107.5 -163.5t238.5 -60.5q135 0 223.5 62.5t88.5 158.5q0 82 -65.5 134.5t-209.5 86.5l-186 45q-196 46 -288 143t-92 256q0 193 144.5 310.5t380.5 117.5q220 0 365 -116t155 -298h-218q-16 100 -97.5 158t-207.5 58q-133 0 -214 -59t-81 -156 q0 -77 61.5 -125t202.5 -81l159 -39q222 -52 320 -147.5t98 -258.5q0 -207 -150 -328t-406 -121q-240 0 -389.5 115t-161.5 308zM281 1582l295 314h202l295 -314h-225l-163 181h-16l-163 -181h-225z" />
<glyph unicode="&#x15d;" horiz-adv-x="1104" d="M103 289h215q21 -64 81 -100t156 -36q101 0 165 41t64 106q0 95 -160 133l-190 44q-156 37 -229.5 110t-73.5 194q0 144 119 236.5t304 92.5q184 0 297 -81t129 -225h-206q-15 61 -72.5 96t-147.5 35q-91 0 -151 -39.5t-60 -102.5q0 -49 42 -81t131 -52l181 -42 q157 -36 230.5 -107t73.5 -190q0 -152 -127 -247t-324 -95q-194 0 -313.5 82.5t-133.5 227.5zM157 1238l280 346h234l279 -346h-221l-167 219h-16l-167 -219h-222z" />
<glyph unicode="&#x15e;" horiz-adv-x="1333" d="M113 388h222q14 -103 107.5 -163.5t238.5 -60.5q135 0 223.5 62.5t88.5 158.5q0 82 -65.5 134.5t-209.5 86.5l-186 45q-196 46 -288 143t-92 256q0 193 144.5 310.5t380.5 117.5q220 0 365 -116t155 -298h-218q-16 100 -97.5 158t-207.5 58q-133 0 -214 -59t-81 -156 q0 -77 61.5 -125t202.5 -81l159 -39q222 -52 320 -147.5t98 -258.5q0 -192 -130 -311t-357 -136l-35 -89q99 -2 153.5 -46t54.5 -123q0 -89 -67 -142t-185 -53q-85 0 -147 17v120q46 -14 120 -14q116 0 116 67q0 32 -33 46.5t-109 14.5h-59v97l45 106q-208 19 -335.5 131 t-138.5 289z" />
<glyph unicode="&#x15f;" horiz-adv-x="1104" d="M103 289h215q21 -64 81 -100t156 -36q101 0 165 41t64 106q0 95 -160 133l-190 44q-156 37 -229.5 110t-73.5 194q0 144 119 236.5t304 92.5q184 0 297 -81t129 -225h-206q-15 61 -72.5 96t-147.5 35q-91 0 -151 -39.5t-60 -102.5q0 -49 42 -81t131 -52l181 -42 q157 -36 230.5 -107t73.5 -190q0 -137 -104 -228.5t-272 -109.5l-41 -105q99 -2 153.5 -46t54.5 -123q0 -89 -67 -142t-185 -53q-85 0 -147 17v120q46 -14 120 -14q116 0 116 67q0 32 -33 46.5t-109 14.5h-59v97l50 120q-164 15 -263 95.5t-112 211.5z" />
<glyph unicode="&#x160;" horiz-adv-x="1333" d="M113 388h222q14 -103 107.5 -163.5t238.5 -60.5q135 0 223.5 62.5t88.5 158.5q0 82 -65.5 134.5t-209.5 86.5l-186 45q-196 46 -288 143t-92 256q0 193 144.5 310.5t380.5 117.5q220 0 365 -116t155 -298h-218q-16 100 -97.5 158t-207.5 58q-133 0 -214 -59t-81 -156 q0 -77 61.5 -125t202.5 -81l159 -39q222 -52 320 -147.5t98 -258.5q0 -207 -150 -328t-406 -121q-240 0 -389.5 115t-161.5 308zM286 1888h220l162 -175h18l162 175h220l-293 -306h-196z" />
<glyph unicode="&#x161;" horiz-adv-x="1104" d="M103 289h215q21 -64 81 -100t156 -36q101 0 165 41t64 106q0 95 -160 133l-190 44q-156 37 -229.5 110t-73.5 194q0 144 119 236.5t304 92.5q184 0 297 -81t129 -225h-206q-15 61 -72.5 96t-147.5 35q-91 0 -151 -39.5t-60 -102.5q0 -49 42 -81t131 -52l181 -42 q157 -36 230.5 -107t73.5 -190q0 -152 -127 -247t-324 -95q-194 0 -313.5 82.5t-133.5 227.5zM157 1584h222l167 -219h16l167 219h221l-279 -346h-234z" />
<glyph unicode="&#x162;" horiz-adv-x="1317" d="M93 1239v204h1131v-204h-453v-1239h-1l-48 -122q99 -2 153.5 -46t54.5 -123q0 -89 -67 -142t-185 -53q-85 0 -147 17v120q46 -14 120 -14q116 0 116 67q0 32 -33 46.5t-109 14.5h-59v97l58 138h-77v1239h-454z" />
<glyph unicode="&#x163;" horiz-adv-x="780" d="M59 903v181h173v276h215v-276h236v-181h-236v-560q0 -85 37 -124.5t117 -39.5q32 0 82 5v-179q-64 -11 -117 -11q-32 0 -47 1l-46 -117q99 -2 153.5 -46t54.5 -123q0 -89 -67 -142t-185 -53q-85 0 -147 17v120q46 -14 120 -14q116 0 116 67q0 32 -33 46.5t-109 14.5h-59 v97l66 158q-79 29 -115 93.5t-36 174.5v615h-173z" />
<glyph unicode="&#x164;" horiz-adv-x="1317" d="M93 1239v204h1131v-204h-453v-1239h-224v1239h-454zM267 1888h220l162 -175h18l162 175h220l-293 -306h-196z" />
<glyph unicode="&#x165;" horiz-adv-x="780" d="M59 903v181h173v276h215v-276h236v-181h-236v-560q0 -85 37 -124.5t117 -39.5q32 0 82 5v-179q-64 -11 -117 -11q-179 0 -256.5 68t-77.5 226v615h-173zM569 1232v495h199l-50 -495h-149z" />
<glyph unicode="&#x166;" horiz-adv-x="1317" d="M93 1239v204h1131v-204h-453v-443h296v-175h-296v-621h-224v621h-299v175h299v443h-454z" />
<glyph unicode="&#x167;" horiz-adv-x="776" d="M56 494v151h176v258h-173v181h173v276h215v-276h236v-181h-236v-258h247v-151h-247v-151q0 -85 37 -124.5t117 -39.5q32 0 82 5v-179q-64 -11 -117 -11q-179 0 -256.5 68t-77.5 226v206h-176z" />
<glyph unicode="&#x168;" d="M185 497v946h224v-926q0 -154 95.5 -248t264.5 -94q170 0 265.5 94t95.5 248v926h224v-946q0 -238 -158.5 -385t-426.5 -147t-426 147t-158 385zM381 1578q0 140 65 222t177 82q44 0 81.5 -15.5t63.5 -38t48 -44.5t45 -37.5t44 -15.5q49 0 71.5 35t22.5 113h158 q0 -140 -65 -221t-177 -81q-44 0 -81.5 15.5t-63.5 37.5t-48 44.5t-45 38t-44 15.5q-49 0 -71.5 -36t-22.5 -114h-158z" />
<glyph unicode="&#x169;" horiz-adv-x="1230" d="M146 382v707h215v-651q0 -133 55.5 -196.5t173.5 -63.5q129 0 199 72.5t70 201.5v637h215v-1089h-207v173h-17q-83 -194 -329 -194q-180 0 -277.5 105t-97.5 298zM224 1242q0 140 65 222t177 82q44 0 81.5 -15.5t63.5 -38t48 -44.5t45 -37.5t44 -15.5q49 0 71.5 35 t22.5 113h158q0 -140 -65 -221t-177 -81q-44 0 -81.5 15.5t-63.5 37.5t-48 44.5t-45 38t-44 15.5q-49 0 -71.5 -36t-22.5 -114h-158z" />
<glyph unicode="&#x16a;" d="M185 497v946h224v-926q0 -154 95.5 -248t264.5 -94q170 0 265.5 94t95.5 248v926h224v-946q0 -238 -158.5 -385t-426.5 -147t-426 147t-158 385zM419 1625v156h700v-156h-700z" />
<glyph unicode="&#x16b;" horiz-adv-x="1230" d="M146 382v707h215v-651q0 -133 55.5 -196.5t173.5 -63.5q129 0 199 72.5t70 201.5v637h215v-1089h-207v173h-17q-83 -194 -329 -194q-180 0 -277.5 105t-97.5 298zM262 1299v155h696v-155h-696z" />
<glyph unicode="&#x16c;" d="M185 497v946h224v-926q0 -154 95.5 -248t264.5 -94q170 0 265.5 94t95.5 248v926h224v-946q0 -238 -158.5 -385t-426.5 -147t-426 147t-158 385zM392 1891h173q1 -78 56 -123.5t148 -45.5t148 45.5t56 123.5h173q0 -142 -101.5 -228t-275.5 -86t-275.5 86t-101.5 228z " />
<glyph unicode="&#x16d;" horiz-adv-x="1230" d="M146 382v707h215v-651q0 -133 55.5 -196.5t173.5 -63.5q129 0 199 72.5t70 201.5v637h215v-1089h-207v173h-17q-83 -194 -329 -194q-180 0 -277.5 105t-97.5 298zM231 1576h173q1 -85 55 -137.5t149 -52.5t149 52.5t55 137.5h173q0 -150 -102 -244t-275 -94t-275 94 t-102 244z" />
<glyph unicode="&#x16e;" d="M185 497v946h224v-926q0 -154 95.5 -248t264.5 -94q170 0 265.5 94t95.5 248v926h224v-946q0 -238 -158.5 -385t-426.5 -147t-426 147t-158 385zM568 1747q0 84 58 141t143 57t143 -57t58 -141t-58 -141t-143 -57q-84 0 -142.5 57t-58.5 141zM668 1747q0 -43 28.5 -71.5 t72.5 -28.5t72.5 28.5t28.5 71.5q0 44 -28.5 72t-72.5 28t-72.5 -28t-28.5 -72z" />
<glyph unicode="&#x16f;" horiz-adv-x="1230" d="M146 382v707h215v-651q0 -133 55.5 -196.5t173.5 -63.5q129 0 199 72.5t70 201.5v637h215v-1089h-207v173h-17q-83 -194 -329 -194q-180 0 -277.5 105t-97.5 298zM373 1472q0 99 68.5 166t168.5 67t168.5 -67t68.5 -166t-69 -166.5t-168 -67.5t-168 67.5t-69 166.5z M494 1472q0 -50 33 -82.5t83 -32.5t83 32.5t33 82.5q0 49 -33 81.5t-83 32.5t-83 -32.5t-33 -81.5z" />
<glyph unicode="&#x170;" d="M185 497v946h224v-926q0 -154 95.5 -248t264.5 -94q170 0 265.5 94t95.5 248v926h224v-946q0 -238 -158.5 -385t-426.5 -147t-426 147t-158 385zM404 1582l288 306h242l-312 -306h-218zM826 1582l289 306h242l-313 -306h-218z" />
<glyph unicode="&#x171;" horiz-adv-x="1230" d="M146 382v707h215v-651q0 -133 55.5 -196.5t173.5 -63.5q129 0 199 72.5t70 201.5v637h215v-1089h-207v173h-17q-83 -194 -329 -194q-180 0 -277.5 105t-97.5 298zM266 1271l238 344h228l-267 -344h-199zM679 1271l238 344h228l-267 -344h-199z" />
<glyph unicode="&#x172;" horiz-adv-x="1538" d="M185 497v946h224v-926q0 -157 97.5 -249.5t262.5 -92.5q166 0 263.5 92.5t97.5 249.5v926h224v-946q0 -136 -59.5 -249t-189.5 -226q-135 -118 -135 -210q0 -46 33 -72.5t81 -26.5q46 0 67 7v-148q-49 -19 -116 -19q-114 0 -184.5 59.5t-70.5 150.5q0 68 37.5 122 t94.5 88v17q-48 -25 -143 -25q-264 0 -424 145.5t-160 386.5z" />
<glyph unicode="&#x173;" horiz-adv-x="1230" d="M146 382v707h215v-651q0 -133 55.5 -196.5t173.5 -63.5q129 0 199 72.5t70 201.5v637h215v-1089l-21 -6q-81 -28 -130 -77.5t-49 -106.5q0 -43 31.5 -70t82.5 -27q48 0 68 7v-148q-52 -19 -117 -19q-112 0 -183 59.5t-71 153.5q0 77 51.5 142t130.5 96v169h-17 q-83 -194 -329 -194q-180 0 -277.5 105t-97.5 298z" />
<glyph unicode="&#x174;" horiz-adv-x="2013" d="M89 1443h233l265 -1105h14l301 1105h208l303 -1105h14l264 1105h233l-390 -1443h-211l-310 1059h-14l-309 -1059h-212zM610 1582l295 314h202l295 -314h-225l-163 181h-16l-163 -181h-225z" />
<glyph unicode="&#x175;" horiz-adv-x="1640" d="M65 1089h218l195 -831h16l224 831h206l224 -831h17l194 831h215l-299 -1089h-223l-225 802h-17l-224 -802h-221zM424 1238l280 346h234l279 -346h-221l-167 219h-16l-167 -219h-222z" />
<glyph unicode="&#x176;" horiz-adv-x="1383" d="M71 1443h249l363 -625h17l363 625h249l-509 -861v-582h-224v582zM295 1582l295 314h202l295 -314h-225l-163 181h-16l-163 -181h-225z" />
<glyph unicode="&#x177;" horiz-adv-x="1152" d="M64 1089h234l273 -865h17l272 865h228l-406 -1134q-70 -198 -160.5 -274t-257.5 -76q-56 0 -89 5v185q23 -4 70 -4q77 0 123 35t74 117l16 53zM177 1238l280 346h234l279 -346h-221l-167 219h-16l-167 -219h-222z" />
<glyph unicode="&#x178;" horiz-adv-x="1383" d="M71 1443h249l363 -625h17l363 625h249l-509 -861v-582h-224v582zM344 1711q0 57 38.5 96t95.5 39q56 0 94.5 -39t38.5 -96t-38.5 -95.5t-94.5 -38.5q-57 0 -95.5 38.5t-38.5 95.5zM771 1711q0 57 39 96t95 39t94.5 -39t38.5 -96t-38.5 -95.5t-94.5 -38.5t-95 38.5 t-39 95.5z" />
<glyph unicode="&#x179;" horiz-adv-x="1365" d="M141 0v161l784 1061v17h-760v204h1041v-161l-780 -1061v-17h799v-204h-1084zM565 1582l297 306h258l-325 -306h-230z" />
<glyph unicode="&#x17a;" horiz-adv-x="1124" d="M131 0v146l599 744v17h-595v182h852v-157l-586 -733v-17h592v-182h-862zM427 1271l251 344h252l-281 -344h-222z" />
<glyph unicode="&#x17b;" horiz-adv-x="1365" d="M141 0v161l784 1061v17h-760v204h1041v-161l-780 -1061v-17h799v-204h-1084zM549 1714q0 58 38.5 97.5t95.5 39.5t95.5 -39.5t38.5 -97.5t-38.5 -97.5t-95.5 -39.5t-95.5 39.5t-38.5 97.5z" />
<glyph unicode="&#x17c;" horiz-adv-x="1124" d="M131 0v146l599 744v17h-595v182h852v-157l-586 -733v-17h592v-182h-862zM416 1425q0 59 40.5 100.5t99.5 41.5q58 0 99 -41.5t41 -100.5t-41 -100.5t-99 -41.5q-59 0 -99.5 41.5t-40.5 100.5z" />
<glyph unicode="&#x17d;" horiz-adv-x="1365" d="M141 0v161l784 1061v17h-760v204h1041v-161l-780 -1061v-17h799v-204h-1084zM292 1888h220l162 -175h18l162 175h220l-293 -306h-196z" />
<glyph unicode="&#x17e;" horiz-adv-x="1124" d="M131 0v146l599 744v17h-595v182h852v-157l-586 -733v-17h592v-182h-862zM159 1584h222l167 -219h16l167 219h221l-279 -346h-234z" />
<glyph unicode="&#x18f;" horiz-adv-x="1522" d="M115 683l1 92h1037v22q1 208 -118 341t-307 133q-267 0 -364 -216h-229q61 199 219 311t376 112q302 0 481 -205.5t179 -552.5q0 -340 -176.5 -547.5t-463.5 -207.5q-292 0 -461.5 193.5t-173.5 524.5zM357 587q15 -194 120.5 -304.5t275.5 -110.5q160 0 267.5 112.5 t128.5 302.5h-792z" />
<glyph unicode="&#x192;" horiz-adv-x="1359" d="M88 1v202q92 -31 193 -31q201 0 229 191l50 334h-328v176h354l31 210q28 186 139.5 283t298.5 97q133 0 209 -18v-195q-74 20 -182 20q-217 0 -247 -207l-28 -190h361v-176h-388l-52 -348q-28 -193 -132.5 -283t-290.5 -90q-116 0 -217 25z" />
<glyph unicode="&#x1a0;" horiz-adv-x="1625" d="M122 722q0 349 181.5 552.5t492.5 203.5q80 0 213 -22t209 -22q60 0 84.5 21t24.5 70v151h185v-211q0 -88 -53.5 -138t-137.5 -50h-60v-13q92 -66 149.5 -216t57.5 -326q0 -349 -180 -553t-492 -204q-313 0 -493.5 203.5t-180.5 553.5zM351 722q0 -251 119 -399.5 t326 -148.5q205 0 324 148.5t119 399.5q0 252 -119 399.5t-324 147.5q-204 0 -324.5 -148t-120.5 -399z" />
<glyph unicode="&#x1a1;" horiz-adv-x="1295" d="M102 545q0 262 137.5 413.5t376.5 151.5q69 0 149.5 -15t130.5 -15q62 0 85.5 20t23.5 69v141h185v-204q0 -82 -45 -128t-112 -46h-52v-10q66 -46 107 -147.5t41 -229.5q0 -264 -137 -415t-376 -151q-240 0 -377 151t-137 415zM324 545q0 -179 76.5 -277t215.5 -98 t215.5 98.5t76.5 276.5t-76.5 276t-215.5 98t-215.5 -98t-76.5 -276z" />
<glyph unicode="&#x1af;" horiz-adv-x="1692" d="M185 497v946h224v-926q0 -157 97.5 -249.5t262.5 -92.5q166 0 263.5 92.5t97.5 249.5v926h229q87 0 87 83v170h185v-213q0 -96 -57.5 -147.5t-153.5 -51.5h-66v-787q0 -241 -160.5 -386.5t-424.5 -145.5t-424 145.5t-160 386.5z" />
<glyph unicode="&#x1b0;" horiz-adv-x="1385" d="M146 382v707h215v-651q0 -132 55.5 -196t173.5 -64q129 0 199 72t70 202v637h197q86 0 86 83v155h185v-198q0 -96 -57.5 -147.5t-153.5 -51.5h-42v-930h-207v173h-17q-83 -194 -329 -194q-180 0 -277.5 105.5t-97.5 297.5z" />
<glyph unicode="&#x1c4;" horiz-adv-x="2871" d="M181 0v1443h521q321 0 500 -188.5t179 -528.5q0 -346 -178 -536t-501 -190h-521zM405 204h272q227 0 351.5 135.5t124.5 383.5q0 244 -125.5 380t-350.5 136h-272v-1035zM1647 0v161l784 1061v17h-760v204h1041v-161l-780 -1061v-17h799v-204h-1084zM1798 1888h220 l162 -175h18l162 175h220l-293 -306h-196z" />
<glyph unicode="&#x1c5;" horiz-adv-x="2630" d="M181 0v1443h521q321 0 500 -188.5t179 -528.5q0 -346 -178 -536t-501 -190h-521zM405 204h272q227 0 351.5 135.5t124.5 383.5q0 244 -125.5 380t-350.5 136h-272v-1035zM1637 0v146l599 744v17h-595v182h852v-157l-586 -733v-17h592v-182h-862zM1665 1584h222l167 -219 h16l167 219h221l-279 -346h-234z" />
<glyph unicode="&#x1c6;" horiz-adv-x="2413" d="M102 545q0 258 122.5 410t329.5 152q112 0 201 -50.5t133 -140.5h16v598h215v-1514h-206v172h-17q-49 -89 -139.5 -139.5t-202.5 -50.5q-208 0 -330 152t-122 411zM324 545q0 -173 77.5 -271.5t213.5 -98.5t214.5 99t78.5 270q0 170 -79 270t-214 100 q-136 0 -213.5 -98.5t-77.5 -270.5zM1420 0v146l599 744v17h-595v182h852v-157l-586 -733v-17h592v-182h-862zM1448 1584h222l167 -219h16l167 219h221l-279 -346h-234z" />
<glyph unicode="&#x1c7;" horiz-adv-x="2329" d="M181 0v1443h224v-1237h676v-206h-900zM1263 375h220q2 -89 62 -144t156 -55q108 0 166 63.5t58 183.5v1020h224v-1021q0 -217 -118.5 -337t-327.5 -120q-197 0 -318.5 112.5t-121.5 297.5z" />
<glyph unicode="&#x1c8;" horiz-adv-x="1726" d="M181 0v1443h224v-1237h676v-206h-900zM1156 -191h30q85 0 120 34t35 114v1132h214v-1134q0 -167 -86.5 -247t-264.5 -80q-43 0 -48 1v180zM1309 1411q0 56 39.5 94t99.5 38t99.5 -38t39.5 -94t-39.5 -93.5t-99.5 -37.5t-99.5 37.5t-39.5 93.5z" />
<glyph unicode="&#x1c9;" horiz-adv-x="1090" d="M166 0v1514h215v-1514h-215zM520 -191h30q85 0 120 34t35 114v1132h214v-1134q0 -167 -86.5 -247t-264.5 -80q-43 0 -48 1v180zM673 1411q0 56 39.5 94t99.5 38t99.5 -38t39.5 -94t-39.5 -93.5t-99.5 -37.5t-99.5 37.5t-39.5 93.5z" />
<glyph unicode="&#x1ca;" horiz-adv-x="2688" d="M181 0v1443h202l741 -1025h16v1025h218v-1443h-202l-741 1025h-16v-1025h-218zM1621 375h220q2 -89 62 -144t156 -55q108 0 166 63.5t58 183.5v1020h224v-1021q0 -217 -118.5 -337t-327.5 -120q-197 0 -318.5 112.5t-121.5 297.5z" />
<glyph unicode="&#x1cb;" horiz-adv-x="2084" d="M181 0v1443h202l741 -1025h16v1025h218v-1443h-202l-741 1025h-16v-1025h-218zM1514 -191h30q85 0 120 34t35 114v1132h214v-1134q0 -167 -86.5 -247t-264.5 -80q-43 0 -48 1v180zM1667 1411q0 56 39.5 94t99.5 38t99.5 -38t39.5 -94t-39.5 -93.5t-99.5 -37.5t-99.5 37.5 t-39.5 93.5z" />
<glyph unicode="&#x1cc;" horiz-adv-x="1761" d="M156 0v1089h207v-173h16q85 194 325 194q182 0 279.5 -105t97.5 -300v-705h-215v651q0 262 -235 262q-119 0 -189.5 -74.5t-70.5 -201.5v-637h-215zM1202 -191h30q85 0 120 34t35 114v1132h214v-1134q0 -167 -86.5 -247t-264.5 -80q-43 0 -48 1v180zM1355 1411 q0 56 39.5 94t99.5 38t99.5 -38t39.5 -94t-39.5 -93.5t-99.5 -37.5t-99.5 37.5t-39.5 93.5z" />
<glyph unicode="&#x1cd;" horiz-adv-x="1423" d="M70 0l521 1443h241l521 -1443h-238l-132 383h-550l-133 -383h-230zM321 1888h220l162 -175h18l162 175h220l-293 -306h-196zM490 571h436l-209 610h-17z" />
<glyph unicode="&#x1ce;" horiz-adv-x="1158" d="M94 308q0 146 105 229.5t300 95.5l295 17v94q0 87 -57 133.5t-166 46.5q-90 0 -149.5 -31.5t-77.5 -89.5h-208q16 140 137.5 223.5t307.5 83.5q204 0 315.5 -96.5t111.5 -269.5v-744h-207v153h-17q-49 -82 -134.5 -126.5t-192.5 -44.5q-160 0 -261.5 89.5t-101.5 236.5z M184 1584h222l167 -219h16l167 219h221l-279 -346h-234zM310 318q0 -72 56 -113.5t146 -41.5q121 0 201.5 68t80.5 170v91l-266 -17q-112 -7 -165 -46t-53 -111z" />
<glyph unicode="&#x1cf;" horiz-adv-x="585" d="M-98 1888h220l162 -175h18l162 175h220l-293 -306h-196zM181 0v1443h224v-1443h-224z" />
<glyph unicode="&#x1d0;" horiz-adv-x="534" d="M-130 1584h222l167 -219h16l167 219h221l-279 -346h-234zM160 0v1089h214v-1089h-214z" />
<glyph unicode="&#x1d1;" horiz-adv-x="1590" d="M122 722q0 349 181.5 552.5t492.5 203.5q312 0 492 -203.5t180 -552.5t-180 -553t-492 -204q-313 0 -493.5 203.5t-180.5 553.5zM351 722q0 -251 119 -399.5t326 -148.5q205 0 324 148.5t119 399.5q0 252 -119 399.5t-324 147.5q-204 0 -324.5 -148t-120.5 -399z M405 1888h220l162 -175h18l162 175h220l-293 -306h-196z" />
<glyph unicode="&#x1d2;" horiz-adv-x="1231" d="M102 545q0 263 137.5 414t376.5 151q238 0 375.5 -151t137.5 -414q0 -264 -137 -415t-376 -151q-240 0 -377 151t-137 415zM219 1584h222l167 -219h16l167 219h221l-279 -346h-234zM324 545q0 -179 76 -277t216 -98q139 0 215.5 98.5t76.5 276.5q0 177 -76.5 275.5 t-215.5 98.5q-140 0 -216 -98t-76 -276z" />
<glyph unicode="&#x1d3;" d="M185 497v946h224v-926q0 -154 95.5 -248t264.5 -94q170 0 265.5 94t95.5 248v926h224v-946q0 -238 -158.5 -385t-426.5 -147t-426 147t-158 385zM378 1888h220l162 -175h18l162 175h220l-293 -306h-196z" />
<glyph unicode="&#x1d4;" horiz-adv-x="1230" d="M146 382v707h215v-651q0 -133 55.5 -196.5t173.5 -63.5q129 0 199 72.5t70 201.5v637h215v-1089h-207v173h-17q-83 -194 -329 -194q-180 0 -277.5 105t-97.5 298zM213 1584h222l167 -219h16l167 219h221l-279 -346h-234z" />
<glyph unicode="&#x1d5;" d="M185 497v946h224v-926q0 -154 95.5 -248t264.5 -94q170 0 265.5 94t95.5 248v926h224v-946q0 -238 -158.5 -385t-426.5 -147t-426 147t-158 385zM419 1960v147h700v-147h-700zM425 1708q0 56 37.5 94t92.5 38t92.5 -38t37.5 -94t-37.5 -93.5t-92.5 -37.5t-92.5 38 t-37.5 93zM853 1708q0 56 37.5 94t92.5 38t92.5 -38t37.5 -94q0 -55 -37.5 -93t-92.5 -38t-92.5 37.5t-37.5 93.5z" />
<glyph unicode="&#x1d6;" horiz-adv-x="1230" d="M146 382v707h215v-651q0 -133 55.5 -196.5t173.5 -63.5q129 0 199 72.5t70 201.5v637h215v-1089h-207v173h-17q-83 -194 -329 -194q-180 0 -277.5 105t-97.5 298zM262 1645v155h696v-155h-696zM274 1367q0 55 36.5 92.5t90.5 37.5t90.5 -37.5t36.5 -92.5 q0 -54 -36.5 -91.5t-90.5 -37.5t-90.5 37.5t-36.5 91.5zM692 1367q0 55 36.5 92.5t90.5 37.5t90.5 -37.5t36.5 -92.5q0 -54 -36.5 -91.5t-90.5 -37.5t-90.5 37.5t-36.5 91.5z" />
<glyph unicode="&#x1d7;" d="M185 497v946h224v-926q0 -154 95.5 -248t264.5 -94q170 0 265.5 94t95.5 248v926h224v-946q0 -238 -158.5 -385t-426.5 -147t-426 147t-158 385zM422 1711q0 57 38.5 96t94.5 39q57 0 95.5 -39t38.5 -96t-38.5 -95.5t-95.5 -38.5q-56 0 -94.5 38.5t-38.5 95.5zM669 1901 l207 231h251l-258 -231h-200zM849 1711q0 57 38.5 96t95.5 39q56 0 94.5 -39t38.5 -96t-38.5 -95.5t-94.5 -38.5q-57 0 -95.5 38.5t-38.5 95.5z" />
<glyph unicode="&#x1d8;" horiz-adv-x="1230" d="M146 382v707h215v-651q0 -133 55.5 -196.5t173.5 -63.5q129 0 199 72.5t70 201.5v637h215v-1089h-207v173h-17q-83 -194 -329 -194q-180 0 -277.5 105t-97.5 298zM263 1373q0 57 38.5 96t95.5 39q56 0 94.5 -39t38.5 -96t-38.5 -95.5t-94.5 -38.5q-57 0 -95.5 38.5 t-38.5 95.5zM500 1604l196 306h228l-229 -306h-195zM690 1373q0 57 39 96t95 39t94.5 -39t38.5 -96t-38.5 -95.5t-94.5 -38.5t-95 38.5t-39 95.5z" />
<glyph unicode="&#x1d9;" d="M185 497v946h224v-926q0 -154 95.5 -248t264.5 -94q170 0 265.5 94t95.5 248v926h224v-946q0 -238 -158.5 -385t-426.5 -147t-426 147t-158 385zM369 2145h237l154 -148h18l154 148h237l-289 -262h-222zM426 1699q0 55 37 92t92 37t92.5 -37t37.5 -92q0 -54 -37.5 -91.5 t-92.5 -37.5t-92 37.5t-37 91.5zM853 1699q0 55 37.5 92t92.5 37t92 -37t37 -92q0 -54 -37 -91.5t-92 -37.5t-92.5 37.5t-37.5 91.5z" />
<glyph unicode="&#x1da;" horiz-adv-x="1230" d="M146 382v707h215v-651q0 -133 55.5 -196.5t173.5 -63.5q129 0 199 72.5t70 201.5v637h215v-1089h-207v173h-17q-83 -194 -329 -194q-180 0 -277.5 105t-97.5 298zM218 1927h219l165 -207h16l165 207h219l-278 -331h-228zM274 1367q0 55 36.5 92.5t90.5 37.5t90.5 -37.5 t36.5 -92.5q0 -54 -36.5 -91.5t-90.5 -37.5t-90.5 37.5t-36.5 91.5zM692 1367q0 55 36.5 92.5t90.5 37.5t90.5 -37.5t36.5 -92.5q0 -54 -36.5 -91.5t-90.5 -37.5t-90.5 37.5t-36.5 91.5z" />
<glyph unicode="&#x1db;" d="M185 497v946h224v-926q0 -154 95.5 -248t264.5 -94q170 0 265.5 94t95.5 248v926h224v-946q0 -238 -158.5 -385t-426.5 -147t-426 147t-158 385zM422 1711q0 57 38.5 96t94.5 39q57 0 95.5 -39t38.5 -96t-38.5 -95.5t-95.5 -38.5q-56 0 -94.5 38.5t-38.5 95.5zM426 2132 h250l207 -231h-199zM849 1711q0 57 38.5 96t95.5 39q56 0 94.5 -39t38.5 -96t-38.5 -95.5t-94.5 -38.5q-57 0 -95.5 38.5t-38.5 95.5z" />
<glyph unicode="&#x1dc;" horiz-adv-x="1230" d="M146 382v707h215v-651q0 -133 55.5 -196.5t173.5 -63.5q129 0 199 72.5t70 201.5v637h215v-1089h-207v173h-17q-83 -194 -329 -194q-180 0 -277.5 105t-97.5 298zM263 1375q0 57 38.5 96t95.5 39q56 0 94.5 -39t38.5 -96t-38.5 -95.5t-94.5 -38.5q-57 0 -95.5 38.5 t-38.5 95.5zM296 1910h228l196 -306h-195zM690 1375q0 57 39 96t95 39t94.5 -39t38.5 -96t-38.5 -95.5t-94.5 -38.5t-95 38.5t-39 95.5z" />
<glyph unicode="&#x1dd;" horiz-adv-x="1212" d="M111 540l3 66h767v9q0 142 -80 227t-210 85q-190 0 -259 -132h-207q39 144 163.5 229.5t305.5 85.5q234 0 370 -151t136 -410q0 -263 -135 -416.5t-367 -153.5q-229 0 -358 148.5t-129 412.5zM330 447q2 -130 75.5 -207.5t193.5 -77.5q119 0 196.5 78t84.5 207h-550z" />
<glyph unicode="&#x1de;" horiz-adv-x="1423" d="M70 0l521 1443h241l521 -1443h-238l-132 383h-550l-133 -383h-230zM362 1960v147h700v-147h-700zM368 1708q0 56 37.5 94t92.5 38t92.5 -38t37.5 -94t-37.5 -93.5t-92.5 -37.5t-92.5 38t-37.5 93zM490 571h436l-209 610h-17zM796 1708q0 56 37.5 94t92.5 38t92.5 -38 t37.5 -94q0 -55 -37.5 -93t-92.5 -38t-92.5 37.5t-37.5 93.5z" />
<glyph unicode="&#x1df;" horiz-adv-x="1158" d="M94 308q0 146 105 229.5t300 95.5l295 17v94q0 87 -57 133.5t-166 46.5q-90 0 -149.5 -31.5t-77.5 -89.5h-208q16 140 137.5 223.5t307.5 83.5q204 0 315.5 -96.5t111.5 -269.5v-744h-207v153h-17q-49 -82 -134.5 -126.5t-192.5 -44.5q-160 0 -261.5 89.5t-101.5 236.5z M233 1645v155h696v-155h-696zM245 1367q0 55 36.5 92.5t90.5 37.5t90.5 -37.5t36.5 -92.5q0 -54 -36.5 -91.5t-90.5 -37.5t-90.5 37.5t-36.5 91.5zM310 318q0 -72 56 -113.5t146 -41.5q121 0 201.5 68t80.5 170v91l-266 -17q-112 -7 -165 -46t-53 -111zM663 1367 q0 55 36.5 92.5t90.5 37.5t90.5 -37.5t36.5 -92.5q0 -54 -36.5 -91.5t-90.5 -37.5t-90.5 37.5t-36.5 91.5z" />
<glyph unicode="&#x1e0;" horiz-adv-x="1423" d="M70 0l521 1443h241l521 -1443h-238l-132 383h-550l-133 -383h-230zM362 1960v147h700v-147h-700zM490 571h436l-209 610h-17zM580 1708q0 56 38 94t94 38t94 -38t38 -94t-38 -94t-94 -38t-94 38t-38 94z" />
<glyph unicode="&#x1e1;" horiz-adv-x="1158" d="M94 308q0 146 105 229.5t300 95.5l295 17v94q0 87 -57 133.5t-166 46.5q-90 0 -149.5 -31.5t-77.5 -89.5h-208q16 140 137.5 223.5t307.5 83.5q204 0 315.5 -96.5t111.5 -269.5v-744h-207v153h-17q-49 -82 -134.5 -126.5t-192.5 -44.5q-160 0 -261.5 89.5t-101.5 236.5z M233 1645v155h696v-155h-696zM310 318q0 -72 56 -113.5t146 -41.5q121 0 201.5 68t80.5 170v91l-266 -17q-112 -7 -165 -46t-53 -111zM451 1370q0 57 37 95t93 38t93 -38t37 -95q0 -56 -37 -94t-93 -38t-93 38t-37 94z" />
<glyph unicode="&#x1e2;" horiz-adv-x="1999" d="M70 0l631 1443h1156v-204h-655v-415h618v-195h-618v-425h655v-204h-870v417h-504l-189 -417h-224zM559 606h428v647h-140zM1119 1625v156h700v-156h-700z" />
<glyph unicode="&#x1e3;" horiz-adv-x="1868" d="M94 308q0 146 105 229.5t300 95.5l295 17v87q0 91 -57.5 139t-165.5 48q-91 0 -150 -31.5t-77 -89.5h-208q16 137 136 222t298 85q126 0 215.5 -47t135.5 -126h17q52 77 147.5 125t208.5 48q219 0 344 -143.5t125 -394.5v-79h-760v-21q5 -141 85.5 -225t210.5 -84 q180 0 245 131h207q-38 -149 -157.5 -232t-296.5 -83q-129 0 -235.5 59.5t-152.5 156.5h-17q-56 -101 -161.5 -158.5t-244.5 -57.5q-177 0 -284.5 90t-107.5 239zM310 317q0 -73 57.5 -114.5t152.5 -41.5q119 0 196.5 71t77.5 172v88l-266 -17q-112 -7 -165 -46t-53 -112z M607 1299v155h696v-155h-696zM1003 652h542q-4 122 -77 199t-186 77q-120 0 -195.5 -75t-83.5 -201z" />
<glyph unicode="&#x1e6;" d="M122 722q0 345 181 550.5t484 205.5q246 0 412 -129.5t203 -348.5h-225q-42 131 -142 200t-248 69q-200 0 -318 -147.5t-118 -397.5q0 -255 118.5 -402.5t322.5 -147.5q177 0 288 99t112 259v31h-372v188h592v-180q0 -277 -169.5 -441.5t-453.5 -164.5q-307 0 -487 204 t-180 553zM396 1888h220l162 -175h18l162 175h220l-293 -306h-196z" />
<glyph unicode="&#x1e7;" horiz-adv-x="1274" d="M101 557q0 250 122 400t330 150q112 0 204 -51.5t138 -140.5h17v174h206v-1098q0 -187 -136 -297t-367 -110q-202 0 -328 83.5t-143 223.5h220q14 -60 80.5 -95t173.5 -35q134 0 209.5 60.5t75.5 168.5v209h-16q-49 -88 -136 -135.5t-200 -47.5q-207 0 -328.5 147.5 t-121.5 393.5zM215 1584h222l167 -219h16l167 219h221l-279 -346h-234zM323 558q0 -165 76 -260.5t213 -95.5t216 96t79 260q0 163 -79 259.5t-216 96.5t-213 -95.5t-76 -260.5z" />
<glyph unicode="&#x1e8;" horiz-adv-x="1386" d="M181 0v1443h224v-676h16l597 676h265l-558 -627l606 -816h-280l-484 655l-162 -181v-474h-224zM279 1888h220l162 -175h18l162 175h220l-293 -306h-196z" />
<glyph unicode="&#x1e9;" horiz-adv-x="1155" d="M-117 1959h220l162 -175h18l162 175h220l-293 -306h-196zM166 0v1514h215v-879h17l432 454h254l-448 -467l478 -622h-264l-374 480l-95 -90v-390h-215z" />
<glyph unicode="&#x1ea;" horiz-adv-x="1590" d="M122 722q0 348 182 552t492 204q311 0 491.5 -203.5t180.5 -552.5q0 -219 -80 -387t-256 -316q-137 -114 -137 -207q0 -43 31 -71t83 -28q47 0 67 7v-148q-52 -19 -116 -19q-112 0 -183.5 59t-71.5 151q0 63 35 118t97 92v17q-17 -10 -58.5 -17.5t-82.5 -7.5 q-312 0 -493 203.5t-181 553.5zM351 722q0 -253 120 -400.5t325 -147.5q204 0 323.5 148t119.5 400t-119 399.5t-324 147.5q-204 0 -324.5 -148t-120.5 -399z" />
<glyph unicode="&#x1eb;" horiz-adv-x="1231" d="M102 545q0 262 137.5 413.5t376.5 151.5t376 -151t137 -414q0 -319 -244 -528q-135 -118 -135 -205q0 -47 32.5 -73t81.5 -26q46 0 67 7v-148q-49 -19 -116 -19q-114 0 -184.5 60.5t-70.5 152.5q0 60 34 114.5t97 93.5v17q-22 -12 -75 -12q-240 0 -377 151t-137 415z M324 545q0 -179 76.5 -277t215.5 -98t215.5 98.5t76.5 276.5t-76.5 276t-215.5 98t-215.5 -98t-76.5 -276z" />
<glyph unicode="&#x1ec;" horiz-adv-x="1590" d="M122 722q0 348 182 552t492 204q311 0 491.5 -203.5t180.5 -552.5q0 -219 -80 -387t-256 -316q-137 -114 -137 -207q0 -43 31 -71t83 -28q47 0 67 7v-148q-52 -19 -116 -19q-112 0 -183.5 59t-71.5 151q0 63 35 118t97 92v17q-17 -10 -58.5 -17.5t-82.5 -7.5 q-312 0 -493 203.5t-181 553.5zM351 722q0 -253 120 -400.5t325 -147.5q204 0 323.5 148t119.5 400t-119 399.5t-324 147.5q-204 0 -324.5 -148t-120.5 -399zM446 1625v156h700v-156h-700z" />
<glyph unicode="&#x1ed;" horiz-adv-x="1231" d="M102 545q0 262 137.5 413.5t376.5 151.5t376 -151t137 -414q0 -319 -244 -528q-135 -118 -135 -205q0 -47 32.5 -73t81.5 -26q46 0 67 7v-148q-49 -19 -116 -19q-114 0 -184.5 60.5t-70.5 152.5q0 60 34 114.5t97 93.5v17q-22 -12 -75 -12q-240 0 -377 151t-137 415z M268 1299v155h696v-155h-696zM324 545q0 -179 76.5 -277t215.5 -98t215.5 98.5t76.5 276.5t-76.5 276t-215.5 98t-215.5 -98t-76.5 -276z" />
<glyph unicode="&#x1f1;" horiz-adv-x="2871" d="M181 0v1443h521q321 0 500 -188.5t179 -528.5q0 -346 -178 -536t-501 -190h-521zM405 204h272q227 0 351.5 135.5t124.5 383.5q0 244 -125.5 380t-350.5 136h-272v-1035zM1647 0v161l784 1061v17h-760v204h1041v-161l-780 -1061v-17h799v-204h-1084z" />
<glyph unicode="&#x1f2;" horiz-adv-x="2630" d="M181 0v1443h521q321 0 500 -188.5t179 -528.5q0 -346 -178 -536t-501 -190h-521zM405 204h272q227 0 351.5 135.5t124.5 383.5q0 244 -125.5 380t-350.5 136h-272v-1035zM1637 0v146l599 744v17h-595v182h852v-157l-586 -733v-17h592v-182h-862z" />
<glyph unicode="&#x1f3;" horiz-adv-x="2413" d="M102 545q0 258 122.5 410t329.5 152q112 0 201 -50.5t133 -140.5h16v598h215v-1514h-206v172h-17q-49 -89 -139.5 -139.5t-202.5 -50.5q-208 0 -330 152t-122 411zM324 545q0 -173 77.5 -271.5t213.5 -98.5t214.5 99t78.5 270q0 170 -79 270t-214 100 q-136 0 -213.5 -98.5t-77.5 -270.5zM1420 0v146l599 744v17h-595v182h852v-157l-586 -733v-17h592v-182h-862z" />
<glyph unicode="&#x1f4;" d="M122 722q0 345 181 550.5t484 205.5q246 0 412 -129.5t203 -348.5h-225q-42 131 -142 200t-248 69q-200 0 -318 -147.5t-118 -397.5q0 -255 118.5 -402.5t322.5 -147.5q177 0 288 99t112 259v31h-372v188h592v-180q0 -277 -169.5 -441.5t-453.5 -164.5q-307 0 -487 204 t-180 553zM669 1582l297 306h258l-325 -306h-230z" />
<glyph unicode="&#x1f5;" horiz-adv-x="1274" d="M101 557q0 250 122 400t330 150q112 0 204 -51.5t138 -140.5h17v174h206v-1098q0 -187 -136 -297t-367 -110q-202 0 -328 83.5t-143 223.5h220q14 -60 80.5 -95t173.5 -35q134 0 209.5 60.5t75.5 168.5v209h-16q-49 -88 -136 -135.5t-200 -47.5q-207 0 -328.5 147.5 t-121.5 393.5zM323 558q0 -165 76 -260.5t213 -95.5t216 96t79 260q0 163 -79 259.5t-216 96.5t-213 -95.5t-76 -260.5zM483 1271l251 344h252l-281 -344h-222z" />
<glyph unicode="&#x1f8;" d="M181 0v1443h202l741 -1025h16v1025h218v-1443h-202l-741 1025h-16v-1025h-218zM329 1888h258l298 -306h-230z" />
<glyph unicode="&#x1f9;" horiz-adv-x="1227" d="M156 0v1089h207v-173h16q85 194 325 194q182 0 279.5 -105t97.5 -300v-705h-215v651q0 262 -235 262q-119 0 -189.5 -74.5t-70.5 -201.5v-637h-215zM254 1615h252l251 -344h-221z" />
<glyph unicode="&#x1fa;" horiz-adv-x="1423" d="M70 0l521 1443h241l521 -1443h-238l-132 383h-550l-133 -383h-230zM490 571h436l-209 610h-17zM505 1736q0 86 60 144t147 58t147 -58t60 -144q0 -87 -60 -145.5t-147 -58.5t-147 58.5t-60 145.5zM617 1734q0 -40 27.5 -67t67.5 -27t67.5 27t27.5 67t-27.5 67.5 t-67.5 27.5t-67.5 -27.5t-27.5 -67.5zM620 2005l134 186h214l-160 -186h-188z" />
<glyph unicode="&#x1fb;" horiz-adv-x="1158" d="M94 308q0 146 105 229.5t300 95.5l295 17v94q0 87 -57 133.5t-166 46.5q-90 0 -149.5 -31.5t-77.5 -89.5h-208q16 140 137.5 223.5t307.5 83.5q204 0 315.5 -96.5t111.5 -269.5v-744h-207v153h-17q-49 -82 -134.5 -126.5t-192.5 -44.5q-160 0 -261.5 89.5t-101.5 236.5z M310 318q0 -72 56 -113.5t146 -41.5q121 0 201.5 68t80.5 170v91l-266 -17q-112 -7 -165 -46t-53 -111zM370 1415q0 88 61 148.5t150 60.5t150 -60.5t61 -148.5t-61 -148t-150 -60t-150 60t-61 148zM484 1415q0 -42 28 -70t69 -28t69 28t28 70q0 41 -28 69t-69 28t-69 -28 t-28 -69zM488 1707l164 231h218l-196 -231h-186z" />
<glyph unicode="&#x1fc;" horiz-adv-x="1999" d="M70 0l631 1443h1156v-204h-655v-415h618v-195h-618v-425h655v-204h-870v417h-504l-189 -417h-224zM559 606h428v647h-140zM1351 1582l297 306h258l-325 -306h-230z" />
<glyph unicode="&#x1fd;" horiz-adv-x="1868" d="M94 308q0 146 105 229.5t300 95.5l295 17v87q0 91 -57.5 139t-165.5 48q-91 0 -150 -31.5t-77 -89.5h-208q16 137 136 222t298 85q126 0 215.5 -47t135.5 -126h17q52 77 147.5 125t208.5 48q219 0 344 -143.5t125 -394.5v-79h-760v-21q5 -141 85.5 -225t210.5 -84 q180 0 245 131h207q-38 -149 -157.5 -232t-296.5 -83q-129 0 -235.5 59.5t-152.5 156.5h-17q-56 -101 -161.5 -158.5t-244.5 -57.5q-177 0 -284.5 90t-107.5 239zM310 317q0 -73 57.5 -114.5t152.5 -41.5q119 0 196.5 71t77.5 172v88l-266 -17q-112 -7 -165 -46t-53 -112z M826 1271l251 344h252l-281 -344h-222zM1003 652h542q-4 122 -77 199t-186 77q-120 0 -195.5 -75t-83.5 -201z" />
<glyph unicode="&#x1fe;" horiz-adv-x="1566" d="M122 722q0 349 181.5 552.5t492.5 203.5q223 0 382 -107l91 125l101 -64l-100 -138q198 -204 198 -572q0 -349 -180 -553t-492 -204q-236 0 -404 121l-103 -142l-101 71l113 155q-179 202 -179 552zM351 722q0 -217 91 -360l605 830q-105 77 -251 77q-204 0 -324.5 -148 t-120.5 -399zM524 267q110 -93 272 -93q205 0 324 148.5t119 399.5q0 236 -106 383zM673 1582l297 306h258l-325 -306h-230z" />
<glyph unicode="&#x1ff;" horiz-adv-x="1231" d="M102 545q0 263 137.5 414t376.5 151q147 0 257 -59l60 91l102 -62l-65 -99q159 -153 159 -436q0 -264 -137 -415t-376 -151q-147 0 -261 60l-60 -92l-104 67l65 99q-154 151 -154 432zM324 545q0 -152 55 -245l383 582q-63 37 -146 37q-140 0 -216 -98t-76 -276zM466 209 q63 -39 150 -39q139 0 215.5 98.5t76.5 276.5q0 156 -59 250zM467 1271l251 344h252l-281 -344h-222z" />
<glyph unicode="&#x200;" horiz-adv-x="1423" d="M70 0l521 1443h241l521 -1443h-238l-132 383h-550l-133 -383h-230zM92 1888h241l289 -306h-218zM490 571h436l-209 610h-17zM514 1888h242l289 -306h-219z" />
<glyph unicode="&#x201;" horiz-adv-x="1158" d="M33 1615h228l238 -344h-200zM94 308q0 146 105 229.5t300 95.5l295 17v94q0 87 -57 133.5t-166 46.5q-90 0 -149.5 -31.5t-77.5 -89.5h-208q16 140 137.5 223.5t307.5 83.5q204 0 315.5 -96.5t111.5 -269.5v-744h-207v153h-17q-49 -82 -134.5 -126.5t-192.5 -44.5 q-160 0 -261.5 89.5t-101.5 236.5zM310 318q0 -72 56 -113.5t146 -41.5q121 0 201.5 68t80.5 170v91l-266 -17q-112 -7 -165 -46t-53 -111zM446 1615h228l238 -344h-200z" />
<glyph unicode="&#x202;" horiz-adv-x="1423" d="M70 0l521 1443h241l521 -1443h-238l-132 383h-550l-133 -383h-230zM335 1577q0 142 101.5 228t275.5 86t275.5 -86t101.5 -228h-173q-1 78 -56 123.5t-148 45.5t-148 -45.5t-56 -123.5h-173zM490 571h436l-209 610h-17z" />
<glyph unicode="&#x203;" horiz-adv-x="1158" d="M94 308q0 146 105 229.5t300 95.5l295 17v94q0 87 -57 133.5t-166 46.5q-90 0 -149.5 -31.5t-77.5 -89.5h-208q16 140 137.5 223.5t307.5 83.5q204 0 315.5 -96.5t111.5 -269.5v-744h-207v153h-17q-49 -82 -134.5 -126.5t-192.5 -44.5q-160 0 -261.5 89.5t-101.5 236.5z M204 1238q0 150 102 244t275 94t275 -94t102 -244h-173q-1 85 -55 137.5t-149 52.5t-149 -52.5t-55 -137.5h-173zM310 318q0 -72 56 -113.5t146 -41.5q121 0 201.5 68t80.5 170v91l-266 -17q-112 -7 -165 -46t-53 -111z" />
<glyph unicode="&#x204;" horiz-adv-x="1239" d="M19 1888h241l289 -306h-218zM181 0v1443h916v-204h-692v-408h655v-194h-655v-433h692v-204h-916zM441 1888h242l289 -306h-219z" />
<glyph unicode="&#x205;" horiz-adv-x="1192" d="M56 1615h228l238 -344h-200zM102 541q0 261 136 415t366 154q227 0 356.5 -146t129.5 -403v-75h-769v-12q5 -144 83 -228t207 -84q197 0 259 132h207q-37 -147 -161.5 -231t-310.5 -84q-234 0 -368.5 150.5t-134.5 411.5zM321 645h550q-4 129 -76.5 205.5t-191.5 76.5 t-196 -77t-86 -205zM469 1615h228l238 -344h-200z" />
<glyph unicode="&#x206;" horiz-adv-x="1239" d="M181 0v1443h916v-204h-692v-408h655v-194h-655v-433h692v-204h-916zM262 1577q0 142 101.5 228t275.5 86t275.5 -86t101.5 -228h-173q-1 78 -56 123.5t-148 45.5t-148 -45.5t-56 -123.5h-173z" />
<glyph unicode="&#x207;" horiz-adv-x="1192" d="M102 541q0 261 136 415t366 154q227 0 356.5 -146t129.5 -403v-75h-769v-12q5 -144 83 -228t207 -84q197 0 259 132h207q-37 -147 -161.5 -231t-310.5 -84q-234 0 -368.5 150.5t-134.5 411.5zM227 1238q0 150 102 244t275 94t275 -94t102 -244h-173q-1 85 -55 137.5 t-149 52.5t-149 -52.5t-55 -137.5h-173zM321 645h550q-4 129 -76.5 205.5t-191.5 76.5t-196 -77t-86 -205z" />
<glyph unicode="&#x208;" horiz-adv-x="585" d="M-327 1888h241l289 -306h-218zM95 1888h242l289 -306h-219zM181 0v1443h224v-1443h-224z" />
<glyph unicode="&#x209;" horiz-adv-x="534" d="M-281 1615h228l238 -344h-200zM132 1615h228l238 -344h-200zM160 0v1089h214v-1089h-214z" />
<glyph unicode="&#x20a;" horiz-adv-x="585" d="M-84 1577q0 142 101.5 228t275.5 86t275.5 -86t101.5 -228h-173q-1 78 -56 123.5t-148 45.5t-148 -45.5t-56 -123.5h-173zM181 0v1443h224v-1443h-224z" />
<glyph unicode="&#x20b;" horiz-adv-x="534" d="M-110 1238q0 150 102 244t275 94t275 -94t102 -244h-173q-1 85 -55 137.5t-149 52.5t-149 -52.5t-55 -137.5h-173zM160 0v1089h214v-1089h-214z" />
<glyph unicode="&#x20c;" horiz-adv-x="1590" d="M122 722q0 349 181.5 552.5t492.5 203.5q312 0 492 -203.5t180 -552.5t-180 -553t-492 -204q-313 0 -493.5 203.5t-180.5 553.5zM176 1888h241l289 -306h-218zM351 722q0 -251 119 -399.5t326 -148.5q205 0 324 148.5t119 399.5q0 252 -119 399.5t-324 147.5 q-204 0 -324.5 -148t-120.5 -399zM598 1888h242l289 -306h-219z" />
<glyph unicode="&#x20d;" horiz-adv-x="1231" d="M68 1615h228l238 -344h-200zM102 545q0 263 137.5 414t376.5 151q238 0 375.5 -151t137.5 -414q0 -264 -137 -415t-376 -151q-240 0 -377 151t-137 415zM324 545q0 -179 76 -277t216 -98q139 0 215.5 98.5t76.5 276.5q0 177 -76.5 275.5t-215.5 98.5q-140 0 -216 -98 t-76 -276zM481 1615h228l238 -344h-200z" />
<glyph unicode="&#x20e;" horiz-adv-x="1590" d="M122 722q0 349 181.5 552.5t492.5 203.5q312 0 492 -203.5t180 -552.5t-180 -553t-492 -204q-313 0 -493.5 203.5t-180.5 553.5zM351 722q0 -251 119 -399.5t326 -148.5q205 0 324 148.5t119 399.5q0 252 -119 399.5t-324 147.5q-204 0 -324.5 -148t-120.5 -399z M419 1577q0 142 101.5 228t275.5 86t275.5 -86t101.5 -228h-173q-1 78 -56 123.5t-148 45.5t-148 -45.5t-56 -123.5h-173z" />
<glyph unicode="&#x20f;" horiz-adv-x="1231" d="M102 545q0 263 137.5 414t376.5 151q238 0 375.5 -151t137.5 -414q0 -264 -137 -415t-376 -151q-240 0 -377 151t-137 415zM239 1238q0 150 102 244t275 94t275 -94t102 -244h-173q-1 85 -55 137.5t-149 52.5t-149 -52.5t-55 -137.5h-173zM324 545q0 -179 76 -277 t216 -98q139 0 215.5 98.5t76.5 276.5q0 177 -76.5 275.5t-215.5 98.5q-140 0 -216 -98t-76 -276z" />
<glyph unicode="&#x210;" horiz-adv-x="1368" d="M4 1888h241l289 -306h-218zM181 0v1443h571q218 0 348 -120.5t130 -323.5q0 -146 -74.5 -256.5t-205.5 -155.5l324 -587h-259l-294 550h-316v-550h-224zM405 741h322q130 0 201.5 66t71.5 187q0 118 -74.5 185t-204.5 67h-316v-505zM426 1888h242l289 -306h-219z" />
<glyph unicode="&#x211;" horiz-adv-x="820" d="M-145 1615h228l238 -344h-200zM156 0v1089h207v-167h16q23 81 105.5 133t188.5 52q61 0 96 -9v-212q-39 13 -120 13q-123 0 -200.5 -71t-77.5 -185v-643h-215zM268 1615h228l238 -344h-200z" />
<glyph unicode="&#x212;" horiz-adv-x="1368" d="M181 0v1443h571q218 0 348 -120.5t130 -323.5q0 -146 -74.5 -256.5t-205.5 -155.5l324 -587h-259l-294 550h-316v-550h-224zM247 1577q0 142 101.5 228t275.5 86t275.5 -86t101.5 -228h-173q-1 78 -56 123.5t-148 45.5t-148 -45.5t-56 -123.5h-173zM405 741h322 q130 0 201.5 66t71.5 187q0 118 -74.5 185t-204.5 67h-316v-505z" />
<glyph unicode="&#x213;" horiz-adv-x="820" d="M26 1238q0 150 102 244t275 94t275 -94t102 -244h-173q-1 85 -55 137.5t-149 52.5t-149 -52.5t-55 -137.5h-173zM156 0v1089h207v-167h16q23 81 105.5 133t188.5 52q61 0 96 -9v-212q-39 13 -120 13q-123 0 -200.5 -71t-77.5 -185v-643h-215z" />
<glyph unicode="&#x214;" d="M149 1888h241l289 -306h-218zM185 497v946h224v-926q0 -154 95.5 -248t264.5 -94q170 0 265.5 94t95.5 248v926h224v-946q0 -238 -158.5 -385t-426.5 -147t-426 147t-158 385zM571 1888h242l289 -306h-219z" />
<glyph unicode="&#x215;" horiz-adv-x="1230" d="M62 1615h228l238 -344h-200zM146 382v707h215v-651q0 -133 55.5 -196.5t173.5 -63.5q129 0 199 72.5t70 201.5v637h215v-1089h-207v173h-17q-83 -194 -329 -194q-180 0 -277.5 105t-97.5 298zM475 1615h228l238 -344h-200z" />
<glyph unicode="&#x216;" d="M185 497v946h224v-926q0 -154 95.5 -248t264.5 -94q170 0 265.5 94t95.5 248v926h224v-946q0 -238 -158.5 -385t-426.5 -147t-426 147t-158 385zM392 1577q0 142 101.5 228t275.5 86t275.5 -86t101.5 -228h-173q-1 78 -56 123.5t-148 45.5t-148 -45.5t-56 -123.5h-173z " />
<glyph unicode="&#x217;" horiz-adv-x="1230" d="M146 382v707h215v-651q0 -133 55.5 -196.5t173.5 -63.5q129 0 199 72.5t70 201.5v637h215v-1089h-207v173h-17q-83 -194 -329 -194q-180 0 -277.5 105t-97.5 298zM233 1238q0 150 102 244t275 94t275 -94t102 -244h-173q-1 85 -55 137.5t-149 52.5t-149 -52.5t-55 -137.5 h-173z" />
<glyph unicode="&#x218;" horiz-adv-x="1333" d="M113 388h222q14 -103 107.5 -163.5t238.5 -60.5q135 0 223.5 62.5t88.5 158.5q0 82 -65.5 134.5t-209.5 86.5l-186 45q-196 46 -288 143t-92 256q0 193 144.5 310.5t380.5 117.5q220 0 365 -116t155 -298h-218q-16 100 -97.5 158t-207.5 58q-133 0 -214 -59t-81 -156 q0 -77 61.5 -125t202.5 -81l159 -39q222 -52 320 -147.5t98 -258.5q0 -207 -150 -328t-406 -121q-240 0 -389.5 115t-161.5 308zM464 -514l113 368h222l-135 -368h-200z" />
<glyph unicode="&#x219;" horiz-adv-x="1104" d="M103 289h215q21 -64 81 -100t156 -36q101 0 165 41t64 106q0 95 -160 133l-190 44q-156 37 -229.5 110t-73.5 194q0 144 119 236.5t304 92.5q184 0 297 -81t129 -225h-206q-15 61 -72.5 96t-147.5 35q-91 0 -151 -39.5t-60 -102.5q0 -49 42 -81t131 -52l181 -42 q157 -36 230.5 -107t73.5 -190q0 -152 -127 -247t-324 -95q-194 0 -313.5 82.5t-133.5 227.5zM350 -514l113 368h222l-135 -368h-200z" />
<glyph unicode="&#x21a;" horiz-adv-x="1317" d="M93 1239v204h1131v-204h-453v-1239h-224v1239h-454zM458 -514l113 368h222l-135 -368h-200z" />
<glyph unicode="&#x21b;" horiz-adv-x="780" d="M59 903v181h173v276h215v-276h236v-181h-236v-560q0 -85 37 -124.5t117 -39.5q32 0 82 5v-179q-64 -11 -117 -11q-179 0 -256.5 68t-77.5 226v615h-173zM240 -514l113 368h222l-135 -368h-200z" />
<glyph unicode="&#x21e;" horiz-adv-x="1550" d="M181 0v1443h224v-606h741v606h223v-1443h-223v633h-741v-633h-224zM384 1888h220l162 -175h18l162 175h220l-293 -306h-196z" />
<glyph unicode="&#x21f;" horiz-adv-x="1249" d="M-118 1959h220l162 -175h18l162 175h220l-293 -306h-196zM166 0v1514h213v-600h17q40 93 125.5 144t206.5 51q175 0 275 -106.5t100 -299.5v-703h-215v650q0 130 -59 196t-174 66q-130 0 -202 -75t-72 -201v-636h-215z" />
<glyph unicode="&#x226;" horiz-adv-x="1423" d="M70 0l521 1443h241l521 -1443h-238l-132 383h-550l-133 -383h-230zM490 571h436l-209 610h-17zM578 1714q0 58 38.5 97.5t95.5 39.5t95.5 -39.5t38.5 -97.5t-38.5 -97.5t-95.5 -39.5t-95.5 39.5t-38.5 97.5z" />
<glyph unicode="&#x227;" horiz-adv-x="1158" d="M94 308q0 146 105 229.5t300 95.5l295 17v94q0 87 -57 133.5t-166 46.5q-90 0 -149.5 -31.5t-77.5 -89.5h-208q16 140 137.5 223.5t307.5 83.5q204 0 315.5 -96.5t111.5 -269.5v-744h-207v153h-17q-49 -82 -134.5 -126.5t-192.5 -44.5q-160 0 -261.5 89.5t-101.5 236.5z M310 318q0 -72 56 -113.5t146 -41.5q121 0 201.5 68t80.5 170v91l-266 -17q-112 -7 -165 -46t-53 -111zM441 1425q0 59 40.5 100.5t99.5 41.5q58 0 99 -41.5t41 -100.5t-41 -100.5t-99 -41.5q-59 0 -99.5 41.5t-40.5 100.5z" />
<glyph unicode="&#x228;" horiz-adv-x="1239" d="M181 0v1443h916v-204h-692v-408h655v-194h-655v-433h692v-204h-376l-48 -122q99 -2 153.5 -46t54.5 -123q0 -89 -67 -142t-185 -53q-85 0 -147 17v120q46 -14 120 -14q116 0 116 67q0 32 -33 46.5t-109 14.5h-59v97l58 138h-394z" />
<glyph unicode="&#x229;" horiz-adv-x="1192" d="M102 541q0 261 136 415t366 154q227 0 356.5 -146t129.5 -403v-75h-769v-12q5 -144 83 -228t207 -84q197 0 259 132h207q-33 -131 -137 -213t-259 -98l-41 -105q99 -2 153.5 -46t54.5 -123q0 -89 -67 -142t-185 -53q-85 0 -147 17v120q46 -14 120 -14q116 0 116 67 q0 32 -33 46.5t-109 14.5h-59v97l51 121q-203 23 -318 170.5t-115 387.5zM321 645h550q-4 129 -76.5 205.5t-191.5 76.5t-196 -77t-86 -205z" />
<glyph unicode="&#x22a;" horiz-adv-x="1590" d="M122 722q0 349 181.5 552.5t492.5 203.5q312 0 492 -203.5t180 -552.5t-180 -553t-492 -204q-313 0 -493.5 203.5t-180.5 553.5zM351 722q0 -251 119 -399.5t326 -148.5q205 0 324 148.5t119 399.5q0 252 -119 399.5t-324 147.5q-204 0 -324.5 -148t-120.5 -399z M446 1960v147h700v-147h-700zM452 1708q0 56 37.5 94t92.5 38t92.5 -38t37.5 -94t-37.5 -93.5t-92.5 -37.5t-92.5 38t-37.5 93zM880 1708q0 56 37.5 94t92.5 38t92.5 -38t37.5 -94q0 -55 -37.5 -93t-92.5 -38t-92.5 37.5t-37.5 93.5z" />
<glyph unicode="&#x22b;" horiz-adv-x="1231" d="M102 545q0 263 137.5 414t376.5 151q238 0 375.5 -151t137.5 -414q0 -264 -137 -415t-376 -151q-240 0 -377 151t-137 415zM268 1645v155h696v-155h-696zM280 1367q0 55 36.5 92.5t90.5 37.5t90.5 -37.5t36.5 -92.5q0 -54 -36.5 -91.5t-90.5 -37.5t-90.5 37.5t-36.5 91.5 zM324 545q0 -179 76 -277t216 -98q139 0 215.5 98.5t76.5 276.5q0 177 -76.5 275.5t-215.5 98.5q-140 0 -216 -98t-76 -276zM698 1367q0 55 36.5 92.5t90.5 37.5t90.5 -37.5t36.5 -92.5q0 -54 -36.5 -91.5t-90.5 -37.5t-90.5 37.5t-36.5 91.5z" />
<glyph unicode="&#x22c;" horiz-adv-x="1590" d="M122 722q0 349 181.5 552.5t492.5 203.5q312 0 492 -203.5t180 -552.5t-180 -553t-492 -204q-313 0 -493.5 203.5t-180.5 553.5zM351 722q0 -251 119 -399.5t326 -148.5q205 0 324 148.5t119 399.5q0 252 -119 399.5t-324 147.5q-204 0 -324.5 -148t-120.5 -399z M418 1591q0 118 64.5 189t168.5 71q46 0 82.5 -13t59 -31.5t42 -36.5t43.5 -31t52 -13q38 0 63 27t29 82h152q0 -113 -65 -185.5t-168 -72.5q-46 0 -82.5 13t-59 31.5t-42 36.5t-43.5 31t-52 13q-86 0 -91 -111h-153zM446 1956v151h700v-151h-700z" />
<glyph unicode="&#x22d;" horiz-adv-x="1231" d="M102 545q0 263 137.5 414t376.5 151q238 0 375.5 -151t137.5 -414q0 -264 -137 -415t-376 -151q-240 0 -377 151t-137 415zM226 1242q0 140 65 222t177 82q44 0 81.5 -15.5t63.5 -38t48 -44.5t45 -37.5t44 -15.5q49 0 71.5 35t22.5 113h158q0 -140 -65 -221t-177 -81 q-44 0 -81.5 15.5t-63.5 37.5t-48 44.5t-45 38t-44 15.5q-49 0 -71.5 -36t-22.5 -114h-158zM268 1650v155h696v-155h-696zM324 545q0 -179 76 -277t216 -98q139 0 215.5 98.5t76.5 276.5q0 177 -76.5 275.5t-215.5 98.5q-140 0 -216 -98t-76 -276z" />
<glyph unicode="&#x22e;" horiz-adv-x="1590" d="M122 722q0 349 181.5 552.5t492.5 203.5q312 0 492 -203.5t180 -552.5t-180 -553t-492 -204q-313 0 -493.5 203.5t-180.5 553.5zM351 722q0 -251 119 -399.5t326 -148.5q205 0 324 148.5t119 399.5q0 252 -119 399.5t-324 147.5q-204 0 -324.5 -148t-120.5 -399z M662 1714q0 58 38.5 97.5t95.5 39.5t95.5 -39.5t38.5 -97.5t-38.5 -97.5t-95.5 -39.5t-95.5 39.5t-38.5 97.5z" />
<glyph unicode="&#x22f;" horiz-adv-x="1231" d="M102 545q0 263 137.5 414t376.5 151q238 0 375.5 -151t137.5 -414q0 -264 -137 -415t-376 -151q-240 0 -377 151t-137 415zM324 545q0 -179 76 -277t216 -98q139 0 215.5 98.5t76.5 276.5q0 177 -76.5 275.5t-215.5 98.5q-140 0 -216 -98t-76 -276zM476 1425 q0 59 40.5 100.5t99.5 41.5q58 0 99 -41.5t41 -100.5t-41 -100.5t-99 -41.5q-59 0 -99.5 41.5t-40.5 100.5z" />
<glyph unicode="&#x230;" horiz-adv-x="1590" d="M122 722q0 349 181.5 552.5t492.5 203.5q312 0 492 -203.5t180 -552.5t-180 -553t-492 -204q-313 0 -493.5 203.5t-180.5 553.5zM351 722q0 -251 119 -399.5t326 -148.5q205 0 324 148.5t119 399.5q0 252 -119 399.5t-324 147.5q-204 0 -324.5 -148t-120.5 -399z M446 1960v147h700v-147h-700zM664 1708q0 56 38 94t94 38t94 -38t38 -94t-38 -94t-94 -38t-94 38t-38 94z" />
<glyph unicode="&#x2c6;" horiz-adv-x="1096" d="M151 1238l280 346h234l279 -346h-221l-167 219h-16l-167 -219h-222z" />
<glyph unicode="&#x2da;" horiz-adv-x="1096" d="M311 1472q0 99 68.5 166t168.5 67t168.5 -67t68.5 -166t-69 -166.5t-168 -67.5t-168 67.5t-69 166.5zM432 1472q0 -50 33 -82.5t83 -32.5t83 32.5t33 82.5q0 49 -33 81.5t-83 32.5t-83 -32.5t-33 -81.5z" />
<glyph unicode="&#x2dc;" horiz-adv-x="1095" d="M159 1266q0 140 65 222t177 82q44 0 81.5 -15.5t63.5 -38t48 -44.5t45 -37.5t44 -15.5q49 0 71.5 35t22.5 113h158q0 -140 -65 -221t-177 -81q-44 0 -81.5 15.5t-63.5 37.5t-48 44.5t-45 38t-44 15.5q-49 0 -71.5 -36t-22.5 -114h-158z" />
<glyph unicode="&#x1e00;" horiz-adv-x="1423" d="M70 0l521 1443h241l521 -1443h-238l-132 383h-550l-133 -383h-230zM470 -338q0 99 68.5 166t168.5 67t168.5 -67t68.5 -166t-69 -166.5t-168 -67.5t-168 67.5t-69 166.5zM490 571h436l-209 610h-17zM591 -338q0 -50 33 -82.5t83 -32.5t83 32.5t33 82.5q0 49 -33 81.5 t-83 32.5t-83 -32.5t-33 -81.5z" />
<glyph unicode="&#x1e01;" horiz-adv-x="1158" d="M94 308q0 146 105 229.5t300 95.5l295 17v94q0 87 -57 133.5t-166 46.5q-90 0 -149.5 -31.5t-77.5 -89.5h-208q16 140 137.5 223.5t307.5 83.5q204 0 315.5 -96.5t111.5 -269.5v-744h-207v153h-17q-49 -82 -134.5 -126.5t-192.5 -44.5q-160 0 -261.5 89.5t-101.5 236.5z M310 318q0 -72 56 -113.5t146 -41.5q121 0 201.5 68t80.5 170v91l-266 -17q-112 -7 -165 -46t-53 -111zM321 -338q0 99 68.5 166t168.5 67t168.5 -67t68.5 -166t-69 -166.5t-168 -67.5t-168 67.5t-69 166.5zM442 -338q0 -50 33 -82.5t83 -32.5t83 32.5t33 82.5 q0 49 -33 81.5t-83 32.5t-83 -32.5t-33 -81.5z" />
<glyph unicode="&#x1e02;" horiz-adv-x="1373" d="M181 0v1443h580q203 0 318.5 -96.5t115.5 -263.5q0 -113 -73 -202.5t-180 -107.5v-17q146 -15 235.5 -110.5t89.5 -236.5q0 -191 -131 -300t-362 -109h-593zM405 190h324q151 0 230 60t79 175q0 113 -82 171.5t-240 58.5h-311v-465zM405 832h266q148 0 224.5 53.5 t76.5 156.5q0 100 -69.5 155.5t-193.5 55.5h-304v-421zM484 1714q0 58 38.5 97.5t95.5 39.5t95.5 -39.5t38.5 -97.5t-38.5 -97.5t-95.5 -39.5t-95.5 39.5t-38.5 97.5z" />
<glyph unicode="&#x1e03;" horiz-adv-x="1285" d="M140 1785q0 58 38.5 97.5t95.5 39.5t95.5 -39.5t38.5 -97.5t-38.5 -97.5t-95.5 -39.5t-95.5 39.5t-38.5 97.5zM166 0v1514h215v-598h17q43 89 133 140t202 51q207 0 328.5 -151.5t121.5 -410.5t-122 -411t-328 -152q-114 0 -204.5 50t-139.5 140h-16v-172h-207zM377 544 q1 -171 79.5 -270t214.5 -99t213.5 98.5t77.5 271.5q0 172 -77.5 270.5t-213.5 98.5q-135 0 -214 -99.5t-80 -270.5z" />
<glyph unicode="&#x1e04;" horiz-adv-x="1373" d="M181 0v1443h580q203 0 318.5 -96.5t115.5 -263.5q0 -113 -73 -202.5t-180 -107.5v-17q146 -15 235.5 -110.5t89.5 -236.5q0 -191 -131 -300t-362 -109h-593zM405 190h324q151 0 230 60t79 175q0 113 -82 171.5t-240 58.5h-311v-465zM405 832h266q148 0 224.5 53.5 t76.5 156.5q0 100 -69.5 155.5t-193.5 55.5h-304v-421zM485 -279q0 58 38.5 97.5t95.5 39.5t95.5 -39.5t38.5 -97.5t-38.5 -97.5t-95.5 -39.5t-95.5 39.5t-38.5 97.5z" />
<glyph unicode="&#x1e05;" horiz-adv-x="1285" d="M166 0v1514h215v-598h17q43 89 133 140t202 51q207 0 328.5 -151.5t121.5 -410.5t-122 -411t-328 -152q-114 0 -204.5 50t-139.5 140h-16v-172h-207zM377 544q1 -171 79.5 -270t214.5 -99t213.5 98.5t77.5 271.5q0 172 -77.5 270.5t-213.5 98.5q-135 0 -214 -99.5 t-80 -270.5zM525 -279q0 58 38.5 97.5t95.5 39.5t95.5 -39.5t38.5 -97.5t-38.5 -97.5t-95.5 -39.5t-95.5 39.5t-38.5 97.5z" />
<glyph unicode="&#x1e06;" horiz-adv-x="1373" d="M181 0v1443h580q203 0 318.5 -96.5t115.5 -263.5q0 -113 -73 -202.5t-180 -107.5v-17q146 -15 235.5 -110.5t89.5 -236.5q0 -191 -131 -300t-362 -109h-593zM269 -216h700v-156h-700v156zM405 190h324q151 0 230 60t79 175q0 113 -82 171.5t-240 58.5h-311v-465zM405 832 h266q148 0 224.5 53.5t76.5 156.5q0 100 -69.5 155.5t-193.5 55.5h-304v-421z" />
<glyph unicode="&#x1e07;" horiz-adv-x="1285" d="M166 0v1514h215v-598h17q43 89 133 140t202 51q207 0 328.5 -151.5t121.5 -410.5t-122 -411t-328 -152q-114 0 -204.5 50t-139.5 140h-16v-172h-207zM309 -216h700v-156h-700v156zM377 544q1 -171 79.5 -270t214.5 -99t213.5 98.5t77.5 271.5q0 172 -77.5 270.5 t-213.5 98.5q-135 0 -214 -99.5t-80 -270.5z" />
<glyph unicode="&#x1e08;" horiz-adv-x="1485" d="M122 721q0 351 174.5 554t475.5 203q238 0 405.5 -139.5t194.5 -360.5h-223q-32 133 -133.5 212t-243.5 79q-194 0 -307.5 -147.5t-113.5 -400.5q0 -252 113.5 -399.5t308.5 -147.5q143 0 244.5 72t131.5 194h223q-28 -198 -172 -325.5t-359 -146.5l-35 -90 q99 -2 153.5 -46t54.5 -123q0 -89 -67 -142t-185 -53q-85 0 -147 17v120q46 -14 120 -14q116 0 116 67q0 32 -33 46.5t-109 14.5h-59v97l45 107q-267 26 -420 226t-153 526zM654 1584l297 306h258l-325 -306h-230z" />
<glyph unicode="&#x1e09;" horiz-adv-x="1167" d="M102 548q0 262 136 412t374 150q199 0 321.5 -104t144.5 -273h-209q-20 83 -86.5 134t-170.5 51q-135 0 -212.5 -98t-77.5 -272q0 -176 77.5 -276.5t212.5 -100.5q103 0 169.5 46t87.5 133h209q-19 -151 -121.5 -249.5t-268.5 -117.5l-41 -105q99 -2 153.5 -46t54.5 -123 q0 -89 -67 -142t-185 -53q-85 0 -147 17v120q46 -14 120 -14q116 0 116 67q0 32 -33 46.5t-109 14.5h-59v97l51 121q-207 23 -323.5 171.5t-116.5 393.5zM482 1271l251 344h252l-281 -344h-222z" />
<glyph unicode="&#x1e0a;" horiz-adv-x="1502" d="M181 0v1443h521q321 0 500 -188.5t179 -528.5q0 -346 -178 -536t-501 -190h-521zM405 204h272q227 0 351.5 135.5t124.5 383.5q0 244 -125.5 380t-350.5 136h-272v-1035zM476 1714q0 58 38.5 97.5t95.5 39.5t95.5 -39.5t38.5 -97.5t-38.5 -97.5t-95.5 -39.5t-95.5 39.5 t-38.5 97.5z" />
<glyph unicode="&#x1e0b;" horiz-adv-x="1285" d="M102 545q0 258 122.5 410t329.5 152q112 0 201 -50.5t133 -140.5h16v598h215v-1514h-206v172h-17q-49 -89 -139.5 -139.5t-202.5 -50.5q-208 0 -330 152t-122 411zM324 545q0 -173 77.5 -271.5t213.5 -98.5t214.5 99t78.5 270q0 170 -79 270t-214 100 q-136 0 -213.5 -98.5t-77.5 -270.5zM878 1785q0 58 38.5 97.5t95.5 39.5t95.5 -39.5t38.5 -97.5t-38.5 -97.5t-95.5 -39.5t-95.5 39.5t-38.5 97.5z" />
<glyph unicode="&#x1e0c;" horiz-adv-x="1502" d="M181 0v1443h521q321 0 500 -188.5t179 -528.5q0 -346 -178 -536t-501 -190h-521zM405 204h272q227 0 351.5 135.5t124.5 383.5q0 244 -125.5 380t-350.5 136h-272v-1035zM476 -279q0 58 38.5 97.5t95.5 39.5t95.5 -39.5t38.5 -97.5t-38.5 -97.5t-95.5 -39.5t-95.5 39.5 t-38.5 97.5z" />
<glyph unicode="&#x1e0d;" horiz-adv-x="1285" d="M102 545q0 258 122.5 410t329.5 152q112 0 201 -50.5t133 -140.5h16v598h215v-1514h-206v172h-17q-49 -89 -139.5 -139.5t-202.5 -50.5q-208 0 -330 152t-122 411zM324 545q0 -173 77.5 -271.5t213.5 -98.5t214.5 99t78.5 270q0 170 -79 270t-214 100 q-136 0 -213.5 -98.5t-77.5 -270.5zM547 -279q0 58 38.5 97.5t95.5 39.5t95.5 -39.5t38.5 -97.5t-38.5 -97.5t-95.5 -39.5t-95.5 39.5t-38.5 97.5z" />
<glyph unicode="&#x1e0e;" horiz-adv-x="1502" d="M181 0v1443h521q321 0 500 -188.5t179 -528.5q0 -346 -178 -536t-501 -190h-521zM260 -216h700v-156h-700v156zM405 204h272q227 0 351.5 135.5t124.5 383.5q0 244 -125.5 380t-350.5 136h-272v-1035z" />
<glyph unicode="&#x1e0f;" horiz-adv-x="1285" d="M102 545q0 258 122.5 410t329.5 152q112 0 201 -50.5t133 -140.5h16v598h215v-1514h-206v172h-17q-49 -89 -139.5 -139.5t-202.5 -50.5q-208 0 -330 152t-122 411zM324 545q0 -173 77.5 -271.5t213.5 -98.5t214.5 99t78.5 270q0 170 -79 270t-214 100 q-136 0 -213.5 -98.5t-77.5 -270.5zM331 -216h700v-156h-700v156z" />
<glyph unicode="&#x1e10;" horiz-adv-x="1502" d="M181 0v1443h521q321 0 500 -188.5t179 -528.5q0 -346 -178 -536t-501 -190h-521zM405 204h272q227 0 351.5 135.5t124.5 383.5q0 244 -125.5 380t-350.5 136h-272v-1035zM410 -514l113 368h222l-135 -368h-200z" />
<glyph unicode="&#x1e11;" horiz-adv-x="1285" d="M102 545q0 258 122.5 410t329.5 152q112 0 201 -50.5t133 -140.5h16v598h215v-1514h-206v172h-17q-49 -89 -139.5 -139.5t-202.5 -50.5q-208 0 -330 152t-122 411zM324 545q0 -173 77.5 -271.5t213.5 -98.5t214.5 99t78.5 270q0 170 -79 270t-214 100 q-136 0 -213.5 -98.5t-77.5 -270.5zM481 -514l113 368h222l-135 -368h-200z" />
<glyph unicode="&#x1e12;" horiz-adv-x="1502" d="M181 0v1443h521q321 0 500 -188.5t179 -528.5q0 -346 -178 -536t-501 -190h-521zM214 -450l295 314h202l295 -314h-225l-163 181h-16l-163 -181h-225zM405 204h272q227 0 351.5 135.5t124.5 383.5q0 244 -125.5 380t-350.5 136h-272v-1035z" />
<glyph unicode="&#x1e13;" horiz-adv-x="1285" d="M102 545q0 258 122.5 410t329.5 152q112 0 201 -50.5t133 -140.5h16v598h215v-1514h-206v172h-17q-49 -89 -139.5 -139.5t-202.5 -50.5q-208 0 -330 152t-122 411zM285 -450l295 314h202l295 -314h-225l-163 181h-16l-163 -181h-225zM324 545q0 -173 77.5 -271.5 t213.5 -98.5t214.5 99t78.5 270q0 170 -79 270t-214 100q-136 0 -213.5 -98.5t-77.5 -270.5z" />
<glyph unicode="&#x1e14;" horiz-adv-x="1239" d="M181 0v1443h916v-204h-692v-408h655v-194h-655v-433h692v-204h-916zM289 1616v151h700v-151h-700zM311 2132h242l198 -241h-215z" />
<glyph unicode="&#x1e15;" horiz-adv-x="1192" d="M102 541q0 261 136 415t366 154q227 0 356.5 -146t129.5 -403v-75h-769v-12q5 -144 83 -228t207 -84q197 0 259 132h207q-37 -147 -161.5 -231t-310.5 -84q-234 0 -368.5 150.5t-134.5 411.5zM256 1282v155h696v-155h-696zM284 1888h244l204 -297h-213zM321 645h550 q-4 129 -76.5 205.5t-191.5 76.5t-196 -77t-86 -205z" />
<glyph unicode="&#x1e16;" horiz-adv-x="1239" d="M181 0v1443h916v-204h-692v-408h655v-194h-655v-433h692v-204h-916zM289 1615v151h700v-151h-700zM527 1890l198 241h242l-225 -241h-215z" />
<glyph unicode="&#x1e17;" horiz-adv-x="1192" d="M102 541q0 261 136 415t366 154q227 0 356.5 -146t129.5 -403v-75h-769v-12q5 -144 83 -228t207 -84q197 0 259 132h207q-37 -147 -161.5 -231t-310.5 -84q-234 0 -368.5 150.5t-134.5 411.5zM256 1282v155h696v-155h-696zM321 645h550q-4 129 -76.5 205.5t-191.5 76.5 t-196 -77t-86 -205zM476 1591l204 297h244l-235 -297h-213z" />
<glyph unicode="&#x1e18;" horiz-adv-x="1239" d="M181 0v1443h916v-204h-692v-408h655v-194h-655v-433h692v-204h-916zM243 -450l295 314h202l295 -314h-225l-163 181h-16l-163 -181h-225z" />
<glyph unicode="&#x1e19;" horiz-adv-x="1192" d="M102 541q0 261 136 415t366 154q227 0 356.5 -146t129.5 -403v-75h-769v-12q5 -144 83 -228t207 -84q197 0 259 132h207q-37 -147 -161.5 -231t-310.5 -84q-234 0 -368.5 150.5t-134.5 411.5zM210 -450l295 314h202l295 -314h-225l-163 181h-16l-163 -181h-225zM321 645 h550q-4 129 -76.5 205.5t-191.5 76.5t-196 -77t-86 -205z" />
<glyph unicode="&#x1e1a;" horiz-adv-x="1239" d="M181 0v1443h916v-204h-692v-408h655v-194h-655v-433h692v-204h-916zM251 -424q0 140 65 222t177 82q44 0 81.5 -15.5t63.5 -37.5t48 -44.5t45 -38t44 -15.5q49 0 71.5 35t22.5 113h158q0 -140 -65 -221t-177 -81q-44 0 -81.5 15.5t-63.5 37.5t-48 44.5t-45 38t-44 15.5 q-49 0 -71.5 -36t-22.5 -114h-158z" />
<glyph unicode="&#x1e1b;" horiz-adv-x="1192" d="M102 541q0 261 136 415t366 154q227 0 356.5 -146t129.5 -403v-75h-769v-12q5 -144 83 -228t207 -84q197 0 259 132h207q-37 -147 -161.5 -231t-310.5 -84q-234 0 -368.5 150.5t-134.5 411.5zM218 -424q0 140 65 222t177 82q44 0 81.5 -15.5t63.5 -37.5t48 -44.5t45 -38 t44 -15.5q49 0 71.5 35t22.5 113h158q0 -140 -65 -221t-177 -81q-44 0 -81.5 15.5t-63.5 37.5t-48 44.5t-45 38t-44 15.5q-49 0 -71.5 -36t-22.5 -114h-158zM321 645h550q-4 129 -76.5 205.5t-191.5 76.5t-196 -77t-86 -205z" />
<glyph unicode="&#x1e1c;" horiz-adv-x="1239" d="M181 0v1443h916v-204h-692v-408h655v-194h-655v-433h692v-204h-376l-48 -122q99 -2 153.5 -46t54.5 -123q0 -89 -67 -142t-185 -53q-85 0 -147 17v120q46 -14 120 -14q116 0 116 67q0 32 -33 46.5t-109 14.5h-59v97l58 138h-394zM262 1891h173q1 -78 56 -123.5t148 -45.5 t148 45.5t56 123.5h173q0 -142 -101.5 -228t-275.5 -86t-275.5 86t-101.5 228z" />
<glyph unicode="&#x1e1d;" horiz-adv-x="1192" d="M102 541q0 261 136 415t366 154q227 0 356.5 -146t129.5 -403v-75h-769v-12q5 -144 83 -228t207 -84q197 0 259 132h207q-33 -131 -137 -213t-259 -98l-41 -105q99 -2 153.5 -46t54.5 -123q0 -89 -67 -142t-185 -53q-85 0 -147 17v120q46 -14 120 -14q116 0 116 67 q0 32 -33 46.5t-109 14.5h-59v97l51 121q-203 23 -318 170.5t-115 387.5zM225 1576h173q1 -85 55 -137.5t149 -52.5t149 52.5t55 137.5h173q0 -150 -102 -244t-275 -94t-275 94t-102 244zM321 645h550q-4 129 -76.5 205.5t-191.5 76.5t-196 -77t-86 -205z" />
<glyph unicode="&#x1e1e;" horiz-adv-x="1191" d="M181 0v1443h901v-204h-677v-443h620v-198h-620v-598h-224zM497 1714q0 58 38.5 97.5t95.5 39.5t95.5 -39.5t38.5 -97.5t-38.5 -97.5t-95.5 -39.5t-95.5 39.5t-38.5 97.5z" />
<glyph unicode="&#x1e1f;" horiz-adv-x="763" d="M54 903v181h179v117q0 323 336 323q70 0 128 -11v-169q-30 6 -83 6q-89 0 -129 -40t-40 -122v-104h243v-181h-240v-903h-215v903h-179zM307 1764q0 58 38.5 97.5t95.5 39.5t95.5 -39.5t38.5 -97.5t-38.5 -97.5t-95.5 -39.5t-95.5 39.5t-38.5 97.5z" />
<glyph unicode="&#x1e20;" d="M122 722q0 345 181 550.5t484 205.5q246 0 412 -129.5t203 -348.5h-225q-42 131 -142 200t-248 69q-200 0 -318 -147.5t-118 -397.5q0 -255 118.5 -402.5t322.5 -147.5q177 0 288 99t112 259v31h-372v188h592v-180q0 -277 -169.5 -441.5t-453.5 -164.5q-307 0 -487 204 t-180 553zM437 1625v156h700v-156h-700z" />
<glyph unicode="&#x1e21;" horiz-adv-x="1274" d="M101 557q0 250 122 400t330 150q112 0 204 -51.5t138 -140.5h17v174h206v-1098q0 -187 -136 -297t-367 -110q-202 0 -328 83.5t-143 223.5h220q14 -60 80.5 -95t173.5 -35q134 0 209.5 60.5t75.5 168.5v209h-16q-49 -88 -136 -135.5t-200 -47.5q-207 0 -328.5 147.5 t-121.5 393.5zM264 1299v155h696v-155h-696zM323 558q0 -165 76 -260.5t213 -95.5t216 96t79 260q0 163 -79 259.5t-216 96.5t-213 -95.5t-76 -260.5z" />
<glyph unicode="&#x1e22;" horiz-adv-x="1550" d="M181 0v1443h224v-606h741v606h223v-1443h-223v633h-741v-633h-224zM641 1714q0 58 38.5 97.5t95.5 39.5t95.5 -39.5t38.5 -97.5t-38.5 -97.5t-95.5 -39.5t-95.5 39.5t-38.5 97.5z" />
<glyph unicode="&#x1e23;" horiz-adv-x="1249" d="M139 1785q0 58 38.5 97.5t95.5 39.5t95.5 -39.5t38.5 -97.5t-38.5 -97.5t-95.5 -39.5t-95.5 39.5t-38.5 97.5zM166 0v1514h213v-600h17q40 93 125.5 144t206.5 51q175 0 275 -106.5t100 -299.5v-703h-215v650q0 130 -59 196t-174 66q-130 0 -202 -75t-72 -201v-636h-215z " />
<glyph unicode="&#x1e24;" horiz-adv-x="1550" d="M181 0v1443h224v-606h741v606h223v-1443h-223v633h-741v-633h-224zM641 -279q0 58 38.5 97.5t95.5 39.5t95.5 -39.5t38.5 -97.5t-38.5 -97.5t-95.5 -39.5t-95.5 39.5t-38.5 97.5z" />
<glyph unicode="&#x1e25;" horiz-adv-x="1249" d="M166 0v1514h213v-600h17q40 93 125.5 144t206.5 51q175 0 275 -106.5t100 -299.5v-703h-215v650q0 130 -59 196t-174 66q-130 0 -202 -75t-72 -201v-636h-215zM503 -279q0 58 38.5 97.5t95.5 39.5t95.5 -39.5t38.5 -97.5t-38.5 -97.5t-95.5 -39.5t-95.5 39.5t-38.5 97.5z " />
<glyph unicode="&#x1e26;" horiz-adv-x="1550" d="M181 0v1443h224v-606h741v606h223v-1443h-223v633h-741v-633h-224zM428 1711q0 57 38.5 96t95.5 39q56 0 94.5 -39t38.5 -96t-38.5 -95.5t-94.5 -38.5q-57 0 -95.5 38.5t-38.5 95.5zM855 1711q0 57 39 96t95 39t94.5 -39t38.5 -96t-38.5 -95.5t-94.5 -38.5t-95 38.5 t-39 95.5z" />
<glyph unicode="&#x1e27;" horiz-adv-x="1249" d="M-74 1782q0 57 38.5 96t95.5 39q56 0 94.5 -39t38.5 -96t-38.5 -95.5t-94.5 -38.5q-57 0 -95.5 38.5t-38.5 95.5zM166 0v1514h213v-600h17q40 93 125.5 144t206.5 51q175 0 275 -106.5t100 -299.5v-703h-215v650q0 130 -59 196t-174 66q-130 0 -202 -75t-72 -201v-636 h-215zM353 1782q0 57 39 96t95 39t94.5 -39t38.5 -96t-38.5 -95.5t-94.5 -38.5t-95 38.5t-39 95.5z" />
<glyph unicode="&#x1e28;" horiz-adv-x="1550" d="M165 -349q46 -14 120 -14q116 0 116 67q0 32 -33 46.5t-109 14.5h-59v97l58 138h-77v1443h224v-606h741v606h223v-1443h-223v633h-741v-633h-1l-48 -122q99 -2 153.5 -46t54.5 -123q0 -89 -67 -142t-185 -53q-85 0 -147 17v120z" />
<glyph unicode="&#x1e29;" horiz-adv-x="1249" d="M142 -349q46 -14 120 -14q116 0 116 67q0 32 -33 46.5t-109 14.5h-59v97l58 138h-69v1514h213v-600h17q40 93 125.5 144t206.5 51q175 0 275 -106.5t100 -299.5v-703h-215v650q0 130 -59 196t-174 66q-130 0 -202 -75t-72 -201v-612v-24l-48 -122q99 -2 153.5 -46 t54.5 -123q0 -89 -67 -142t-185 -53q-85 0 -147 17v120z" />
<glyph unicode="&#x1e2a;" horiz-adv-x="1550" d="M181 0v1443h224v-606h741v606h223v-1443h-223v633h-741v-633h-224zM398 -113h173q1 -78 56 -123.5t148 -45.5t148 45.5t56 123.5h173q0 -142 -101.5 -228t-275.5 -86t-275.5 86t-101.5 228z" />
<glyph unicode="&#x1e2b;" horiz-adv-x="1249" d="M166 0v1514h213v-600h17q40 93 125.5 144t206.5 51q175 0 275 -106.5t100 -299.5v-703h-215v650q0 130 -59 196t-174 66q-130 0 -202 -75t-72 -201v-636h-215zM260 -113h173q1 -78 56 -123.5t148 -45.5t148 45.5t56 123.5h173q0 -142 -101.5 -228t-275.5 -86t-275.5 86 t-101.5 228z" />
<glyph unicode="&#x1e2c;" horiz-adv-x="585" d="M-95 -424q0 140 65 222t177 82q44 0 81.5 -15.5t63.5 -37.5t48 -44.5t45 -38t44 -15.5q49 0 71.5 35t22.5 113h158q0 -140 -65 -221t-177 -81q-44 0 -81.5 15.5t-63.5 37.5t-48 44.5t-45 38t-44 15.5q-49 0 -71.5 -36t-22.5 -114h-158zM181 0v1443h224v-1443h-224z" />
<glyph unicode="&#x1e2d;" horiz-adv-x="534" d="M-121 -424q0 140 65 222t177 82q44 0 81.5 -15.5t63.5 -37.5t48 -44.5t45 -38t44 -15.5q49 0 71.5 35t22.5 113h158q0 -140 -65 -221t-177 -81q-44 0 -81.5 15.5t-63.5 37.5t-48 44.5t-45 38t-44 15.5q-49 0 -71.5 -36t-22.5 -114h-158zM128 1411q0 56 39.5 94t99.5 38 t99.5 -38t39.5 -94t-39.5 -93.5t-99.5 -37.5t-99.5 37.5t-39.5 93.5zM160 0v1089h214v-1089h-214z" />
<glyph unicode="&#x1e2e;" horiz-adv-x="585" d="M-54 1711q0 57 38.5 96t94.5 39q57 0 95.5 -39t38.5 -96t-38.5 -95.5t-95.5 -38.5q-56 0 -94.5 38.5t-38.5 95.5zM181 0v1443h224v-1443h-224zM193 1901l207 231h251l-258 -231h-200zM373 1711q0 57 38.5 96t95.5 39q56 0 94.5 -39t38.5 -96t-38.5 -95.5t-94.5 -38.5 q-57 0 -95.5 38.5t-38.5 95.5z" />
<glyph unicode="&#x1e2f;" horiz-adv-x="534" d="M-80 1373q0 57 38.5 96t95.5 39q56 0 94.5 -39t38.5 -96t-38.5 -95.5t-94.5 -38.5q-57 0 -95.5 38.5t-38.5 95.5zM157 1604l196 306h228l-229 -306h-195zM160 0v1089h214v-1089h-214zM347 1373q0 57 39 96t95 39t94.5 -39t38.5 -96t-38.5 -95.5t-94.5 -38.5t-95 38.5 t-39 95.5z" />
<glyph unicode="&#x1e30;" horiz-adv-x="1386" d="M181 0v1443h224v-676h16l597 676h265l-558 -627l606 -816h-280l-484 655l-162 -181v-474h-224zM552 1582l297 306h258l-325 -306h-230z" />
<glyph unicode="&#x1e31;" horiz-adv-x="1155" d="M156 1653l297 306h258l-325 -306h-230zM166 0v1514h215v-879h17l432 454h254l-448 -467l478 -622h-264l-374 480l-95 -90v-390h-215z" />
<glyph unicode="&#x1e32;" horiz-adv-x="1386" d="M181 0v1443h224v-676h16l597 676h265l-558 -627l606 -816h-280l-484 655l-162 -181v-474h-224zM536 -279q0 58 38.5 97.5t95.5 39.5t95.5 -39.5t38.5 -97.5t-38.5 -97.5t-95.5 -39.5t-95.5 39.5t-38.5 97.5z" />
<glyph unicode="&#x1e33;" horiz-adv-x="1155" d="M166 0v1514h215v-879h17l432 454h254l-448 -467l478 -622h-264l-374 480l-95 -90v-390h-215zM486 -279q0 58 38.5 97.5t95.5 39.5t95.5 -39.5t38.5 -97.5t-38.5 -97.5t-95.5 -39.5t-95.5 39.5t-38.5 97.5z" />
<glyph unicode="&#x1e34;" horiz-adv-x="1386" d="M181 0v1443h224v-676h16l597 676h265l-558 -627l606 -816h-280l-484 655l-162 -181v-474h-224zM320 -216h700v-156h-700v156z" />
<glyph unicode="&#x1e35;" horiz-adv-x="1155" d="M166 0v1514h215v-879h17l432 454h254l-448 -467l478 -622h-264l-374 480l-95 -90v-390h-215zM270 -216h700v-156h-700v156z" />
<glyph unicode="&#x1e36;" horiz-adv-x="1183" d="M181 0v1443h224v-1237h676v-206h-900zM495 -279q0 58 38.5 97.5t95.5 39.5t95.5 -39.5t38.5 -97.5t-38.5 -97.5t-95.5 -39.5t-95.5 39.5t-38.5 97.5z" />
<glyph unicode="&#x1e37;" horiz-adv-x="547" d="M140 -279q0 58 38.5 97.5t95.5 39.5t95.5 -39.5t38.5 -97.5t-38.5 -97.5t-95.5 -39.5t-95.5 39.5t-38.5 97.5zM166 0v1514h215v-1514h-215z" />
<glyph unicode="&#x1e38;" horiz-adv-x="1183" d="M-57 1625v156h700v-156h-700zM181 0v1443h224v-1237h676v-206h-900zM495 -279q0 58 38.5 97.5t95.5 39.5t95.5 -39.5t38.5 -97.5t-38.5 -97.5t-95.5 -39.5t-95.5 39.5t-38.5 97.5z" />
<glyph unicode="&#x1e39;" horiz-adv-x="547" d="M-76 1696v156h700v-156h-700zM140 -279q0 58 38.5 97.5t95.5 39.5t95.5 -39.5t38.5 -97.5t-38.5 -97.5t-95.5 -39.5t-95.5 39.5t-38.5 97.5zM166 0v1514h215v-1514h-215z" />
<glyph unicode="&#x1e3a;" horiz-adv-x="1183" d="M181 0v1443h224v-1237h676v-206h-900zM279 -216h700v-156h-700v156z" />
<glyph unicode="&#x1e3b;" horiz-adv-x="547" d="M-76 -216h700v-156h-700v156zM166 0v1514h215v-1514h-215z" />
<glyph unicode="&#x1e3c;" horiz-adv-x="1183" d="M181 0v1443h224v-1237h676v-206h-900zM233 -450l295 314h202l295 -314h-225l-163 181h-16l-163 -181h-225z" />
<glyph unicode="&#x1e3d;" horiz-adv-x="547" d="M-122 -450l295 314h202l295 -314h-225l-163 181h-16l-163 -181h-225zM166 0v1514h215v-1514h-215z" />
<glyph unicode="&#x1e3e;" horiz-adv-x="1822" d="M181 0v1443h262l459 -1096h17l460 1096h262v-1443h-208v1042h-14l-423 -1000h-170l-423 1000h-14v-1042h-208zM793 1582l297 306h258l-325 -306h-230z" />
<glyph unicode="&#x1e3f;" horiz-adv-x="1829" d="M156 0v1089h207v-175h16q36 93 115.5 144.5t187.5 51.5q109 0 186 -52t114 -144h17q42 90 130.5 143t200.5 53q165 0 256.5 -95t91.5 -265v-750h-215v694q0 219 -211 219q-103 0 -166.5 -65t-63.5 -163v-685h-211v715q0 92 -57 145t-153 53q-98 0 -164 -71t-66 -176v-666 h-215zM788 1271l251 344h252l-281 -344h-222z" />
<glyph unicode="&#x1e40;" horiz-adv-x="1822" d="M181 0v1443h262l459 -1096h17l460 1096h262v-1443h-208v1042h-14l-423 -1000h-170l-423 1000h-14v-1042h-208zM777 1714q0 58 38.5 97.5t95.5 39.5t95.5 -39.5t38.5 -97.5t-38.5 -97.5t-95.5 -39.5t-95.5 39.5t-38.5 97.5z" />
<glyph unicode="&#x1e41;" horiz-adv-x="1829" d="M156 0v1089h207v-175h16q36 93 115.5 144.5t187.5 51.5q109 0 186 -52t114 -144h17q42 90 130.5 143t200.5 53q165 0 256.5 -95t91.5 -265v-750h-215v694q0 219 -211 219q-103 0 -166.5 -65t-63.5 -163v-685h-211v715q0 92 -57 145t-153 53q-98 0 -164 -71t-66 -176v-666 h-215zM777 1425q0 59 40.5 100.5t99.5 41.5q58 0 99 -41.5t41 -100.5t-41 -100.5t-99 -41.5q-59 0 -99.5 41.5t-40.5 100.5z" />
<glyph unicode="&#x1e42;" horiz-adv-x="1822" d="M181 0v1443h262l459 -1096h17l460 1096h262v-1443h-208v1042h-14l-423 -1000h-170l-423 1000h-14v-1042h-208zM777 -279q0 58 38.5 97.5t95.5 39.5t95.5 -39.5t38.5 -97.5t-38.5 -97.5t-95.5 -39.5t-95.5 39.5t-38.5 97.5z" />
<glyph unicode="&#x1e43;" horiz-adv-x="1829" d="M156 0v1089h207v-175h16q36 93 115.5 144.5t187.5 51.5q109 0 186 -52t114 -144h17q42 90 130.5 143t200.5 53q165 0 256.5 -95t91.5 -265v-750h-215v694q0 219 -211 219q-103 0 -166.5 -65t-63.5 -163v-685h-211v715q0 92 -57 145t-153 53q-98 0 -164 -71t-66 -176v-666 h-215zM783 -279q0 58 38.5 97.5t95.5 39.5t95.5 -39.5t38.5 -97.5t-38.5 -97.5t-95.5 -39.5t-95.5 39.5t-38.5 97.5z" />
<glyph unicode="&#x1e44;" d="M181 0v1443h202l741 -1025h16v1025h218v-1443h-202l-741 1025h-16v-1025h-218zM634 1714q0 58 38.5 97.5t95.5 39.5t95.5 -39.5t38.5 -97.5t-38.5 -97.5t-95.5 -39.5t-95.5 39.5t-38.5 97.5z" />
<glyph unicode="&#x1e45;" horiz-adv-x="1227" d="M156 0v1089h207v-173h16q85 194 325 194q182 0 279.5 -105t97.5 -300v-705h-215v651q0 262 -235 262q-119 0 -189.5 -74.5t-70.5 -201.5v-637h-215zM482 1425q0 59 40.5 100.5t99.5 41.5q58 0 99 -41.5t41 -100.5t-41 -100.5t-99 -41.5q-59 0 -99.5 41.5t-40.5 100.5z " />
<glyph unicode="&#x1e46;" d="M181 0v1443h202l741 -1025h16v1025h218v-1443h-202l-741 1025h-16v-1025h-218zM634 -279q0 58 38.5 97.5t95.5 39.5t95.5 -39.5t38.5 -97.5t-38.5 -97.5t-95.5 -39.5t-95.5 39.5t-38.5 97.5z" />
<glyph unicode="&#x1e47;" horiz-adv-x="1227" d="M156 0v1089h207v-173h16q85 194 325 194q182 0 279.5 -105t97.5 -300v-705h-215v651q0 262 -235 262q-119 0 -189.5 -74.5t-70.5 -201.5v-637h-215zM488 -279q0 58 38.5 97.5t95.5 39.5t95.5 -39.5t38.5 -97.5t-38.5 -97.5t-95.5 -39.5t-95.5 39.5t-38.5 97.5z" />
<glyph unicode="&#x1e48;" d="M181 0v1443h202l741 -1025h16v1025h218v-1443h-202l-741 1025h-16v-1025h-218zM418 -216h700v-156h-700v156z" />
<glyph unicode="&#x1e49;" horiz-adv-x="1227" d="M156 0v1089h207v-173h16q85 194 325 194q182 0 279.5 -105t97.5 -300v-705h-215v651q0 262 -235 262q-119 0 -189.5 -74.5t-70.5 -201.5v-637h-215zM272 -216h700v-156h-700v156z" />
<glyph unicode="&#x1e4a;" d="M181 0v1443h202l741 -1025h16v1025h218v-1443h-202l-741 1025h-16v-1025h-218zM372 -450l295 314h202l295 -314h-225l-163 181h-16l-163 -181h-225z" />
<glyph unicode="&#x1e4b;" horiz-adv-x="1227" d="M156 0v1089h207v-173h16q85 194 325 194q182 0 279.5 -105t97.5 -300v-705h-215v651q0 262 -235 262q-119 0 -189.5 -74.5t-70.5 -201.5v-637h-215zM226 -450l295 314h202l295 -314h-225l-163 181h-16l-163 -181h-225z" />
<glyph unicode="&#x1e4c;" horiz-adv-x="1590" d="M122 722q0 349 181.5 552.5t492.5 203.5q312 0 492 -203.5t180 -552.5t-180 -553t-492 -204q-313 0 -493.5 203.5t-180.5 553.5zM351 722q0 -251 119 -399.5t326 -148.5q205 0 324 148.5t119 399.5q0 252 -119 399.5t-324 147.5q-204 0 -324.5 -148t-120.5 -399z M418 1591q0 118 64.5 189t168.5 71q46 0 82.5 -13t59 -31.5t42 -36.5t43.5 -31t52 -13q38 0 63 27t29 82h152q0 -113 -65 -185.5t-168 -72.5q-46 0 -82.5 13t-59 31.5t-42 36.5t-43.5 31t-52 13q-86 0 -91 -111h-153zM745 1901l198 231h242l-227 -231h-213z" />
<glyph unicode="&#x1e4d;" horiz-adv-x="1231" d="M102 545q0 263 137.5 414t376.5 151q238 0 375.5 -151t137.5 -414q0 -264 -137 -415t-376 -151q-240 0 -377 151t-137 415zM226 1227q0 140 65 222t177 82q44 0 81.5 -15.5t63.5 -37.5t48 -44.5t45 -38t44 -15.5q49 0 71.5 35t22.5 113h158q0 -140 -65 -221t-177 -81 q-44 0 -81.5 15.5t-63.5 38t-48 44.5t-45 37.5t-44 15.5q-49 0 -71.5 -36t-22.5 -114h-158zM324 545q0 -179 76 -277t216 -98q139 0 215.5 98.5t76.5 276.5q0 177 -76.5 275.5t-215.5 98.5q-140 0 -216 -98t-76 -276zM514 1644l192 266h230l-225 -266h-197z" />
<glyph unicode="&#x1e4e;" horiz-adv-x="1590" d="M122 722q0 349 181.5 552.5t492.5 203.5q312 0 492 -203.5t180 -552.5t-180 -553t-492 -204q-313 0 -493.5 203.5t-180.5 553.5zM351 722q0 -251 119 -399.5t326 -148.5q205 0 324 148.5t119 399.5q0 252 -119 399.5t-324 147.5q-204 0 -324.5 -148t-120.5 -399z M418 1584q0 118 64.5 189t168.5 71q56 0 99 -19.5t64.5 -42.5t51.5 -42.5t64 -19.5q38 0 63 27t29 82h152q0 -114 -65 -186.5t-168 -72.5q-46 0 -82.5 13t-59 31t-42 36.5t-43.5 31.5t-52 13q-86 0 -91 -111h-153zM463 2023q0 49 35 80t90 31t89.5 -31t34.5 -80t-34.5 -80 t-89.5 -31t-90 31t-35 80zM880 2023q0 49 34.5 80t89.5 31t90 -31t35 -80t-35 -80t-90 -31t-89.5 31t-34.5 80z" />
<glyph unicode="&#x1e4f;" horiz-adv-x="1231" d="M102 545q0 263 137.5 414t376.5 151q238 0 375.5 -151t137.5 -414q0 -264 -137 -415t-376 -151q-240 0 -377 151t-137 415zM226 1242q0 140 65 222t177 82q44 0 81.5 -15.5t63.5 -38t48 -44.5t45 -37.5t44 -15.5q49 0 71.5 35t22.5 113h158q0 -140 -65 -221t-177 -81 q-44 0 -81.5 15.5t-63.5 37.5t-48 44.5t-45 38t-44 15.5q-49 0 -71.5 -36t-22.5 -114h-158zM280 1777q0 55 36.5 92t90.5 37q55 0 91 -37t36 -92q0 -54 -36.5 -91.5t-90.5 -37.5t-90.5 37.5t-36.5 91.5zM324 545q0 -179 76 -277t216 -98q139 0 215.5 98.5t76.5 276.5 q0 177 -76.5 275.5t-215.5 98.5q-140 0 -216 -98t-76 -276zM698 1777q0 55 36 92t91 37q54 0 90.5 -37t36.5 -92q0 -54 -36.5 -91.5t-90.5 -37.5t-90.5 37.5t-36.5 91.5z" />
<glyph unicode="&#x1e50;" horiz-adv-x="1590" d="M122 722q0 349 181.5 552.5t492.5 203.5q312 0 492 -203.5t180 -552.5t-180 -553t-492 -204q-313 0 -493.5 203.5t-180.5 553.5zM351 722q0 -251 119 -399.5t326 -148.5q205 0 324 148.5t119 399.5q0 252 -119 399.5t-324 147.5q-204 0 -324.5 -148t-120.5 -399z M446 1616v151h700v-151h-700zM468 2132h242l198 -241h-215z" />
<glyph unicode="&#x1e51;" horiz-adv-x="1231" d="M102 545q0 263 137.5 414t376.5 151q238 0 375.5 -151t137.5 -414q0 -264 -137 -415t-376 -151q-240 0 -377 151t-137 415zM268 1265v155h696v-155h-696zM296 1871h244l204 -297h-213zM324 545q0 -179 76 -277t216 -98q139 0 215.5 98.5t76.5 276.5q0 177 -76.5 275.5 t-215.5 98.5q-140 0 -216 -98t-76 -276z" />
<glyph unicode="&#x1e52;" horiz-adv-x="1590" d="M122 722q0 349 181.5 552.5t492.5 203.5q312 0 492 -203.5t180 -552.5t-180 -553t-492 -204q-313 0 -493.5 203.5t-180.5 553.5zM351 722q0 -251 119 -399.5t326 -148.5q205 0 324 148.5t119 399.5q0 252 -119 399.5t-324 147.5q-204 0 -324.5 -148t-120.5 -399z M446 1615v151h700v-151h-700zM684 1890l198 241h242l-225 -241h-215z" />
<glyph unicode="&#x1e53;" horiz-adv-x="1231" d="M102 545q0 263 137.5 414t376.5 151q238 0 375.5 -151t137.5 -414q0 -264 -137 -415t-376 -151q-240 0 -377 151t-137 415zM268 1265v155h696v-155h-696zM324 545q0 -179 76 -277t216 -98q139 0 215.5 98.5t76.5 276.5q0 177 -76.5 275.5t-215.5 98.5q-140 0 -216 -98 t-76 -276zM488 1574l204 297h244l-235 -297h-213z" />
<glyph unicode="&#x1e54;" horiz-adv-x="1329" d="M181 0v1443h565q212 0 344 -133.5t132 -347.5q0 -211 -135 -343.5t-348 -132.5h-334v-486h-224zM405 683h282q145 0 225.5 72.5t80.5 206.5q0 137 -79 210t-227 73h-282v-562zM469 1582l297 306h258l-325 -306h-230z" />
<glyph unicode="&#x1e55;" horiz-adv-x="1275" d="M156 -362v1451h207v-180h16q49 93 140 145.5t202 52.5q208 0 330 -151.5t122 -410.5t-121.5 -411t-328.5 -152q-116 0 -204 48.5t-131 134.5h-17v-527h-215zM367 544q0 -170 79 -269.5t214 -99.5q137 0 214.5 98.5t77.5 271.5t-77.5 271t-213.5 98t-215 -99.5t-79 -270.5 zM515 1271l251 344h252l-281 -344h-222z" />
<glyph unicode="&#x1e56;" horiz-adv-x="1329" d="M181 0v1443h565q212 0 344 -133.5t132 -347.5q0 -211 -135 -343.5t-348 -132.5h-334v-486h-224zM405 683h282q145 0 225.5 72.5t80.5 206.5q0 137 -79 210t-227 73h-282v-562zM453 1714q0 58 38.5 97.5t95.5 39.5t95.5 -39.5t38.5 -97.5t-38.5 -97.5t-95.5 -39.5 t-95.5 39.5t-38.5 97.5z" />
<glyph unicode="&#x1e57;" horiz-adv-x="1275" d="M156 -362v1451h207v-180h16q49 93 140 145.5t202 52.5q208 0 330 -151.5t122 -410.5t-121.5 -411t-328.5 -152q-116 0 -204 48.5t-131 134.5h-17v-527h-215zM367 544q0 -170 79 -269.5t214 -99.5q137 0 214.5 98.5t77.5 271.5t-77.5 271t-213.5 98t-215 -99.5t-79 -270.5 zM504 1425q0 59 40.5 100.5t99.5 41.5q58 0 99 -41.5t41 -100.5t-41 -100.5t-99 -41.5q-59 0 -99.5 41.5t-40.5 100.5z" />
<glyph unicode="&#x1e58;" horiz-adv-x="1368" d="M181 0v1443h571q218 0 348 -120.5t130 -323.5q0 -146 -74.5 -256.5t-205.5 -155.5l324 -587h-259l-294 550h-316v-550h-224zM405 741h322q130 0 201.5 66t71.5 187q0 118 -74.5 185t-204.5 67h-316v-505zM490 1714q0 58 38.5 97.5t95.5 39.5t95.5 -39.5t38.5 -97.5 t-38.5 -97.5t-95.5 -39.5t-95.5 39.5t-38.5 97.5z" />
<glyph unicode="&#x1e59;" horiz-adv-x="820" d="M156 0v1089h207v-167h16q23 81 105.5 133t188.5 52q61 0 96 -9v-212q-39 13 -120 13q-123 0 -200.5 -71t-77.5 -185v-643h-215zM263 1425q0 59 40.5 100.5t99.5 41.5q58 0 99 -41.5t41 -100.5t-41 -100.5t-99 -41.5q-59 0 -99.5 41.5t-40.5 100.5z" />
<glyph unicode="&#x1e5a;" horiz-adv-x="1368" d="M181 0v1443h571q218 0 348 -120.5t130 -323.5q0 -146 -74.5 -256.5t-205.5 -155.5l324 -587h-259l-294 550h-316v-550h-224zM405 741h322q130 0 201.5 66t71.5 187q0 118 -74.5 185t-204.5 67h-316v-505zM490 -279q0 58 38.5 97.5t95.5 39.5t95.5 -39.5t38.5 -97.5 t-38.5 -97.5t-95.5 -39.5t-95.5 39.5t-38.5 97.5z" />
<glyph unicode="&#x1e5b;" horiz-adv-x="820" d="M129 -279q0 58 38.5 97.5t95.5 39.5t95.5 -39.5t38.5 -97.5t-38.5 -97.5t-95.5 -39.5t-95.5 39.5t-38.5 97.5zM156 0v1089h207v-167h16q23 81 105.5 133t188.5 52q61 0 96 -9v-212q-39 13 -120 13q-123 0 -200.5 -71t-77.5 -185v-643h-215z" />
<glyph unicode="&#x1e5c;" horiz-adv-x="1368" d="M181 0v1443h571q218 0 348 -120.5t130 -323.5q0 -146 -74.5 -256.5t-205.5 -155.5l324 -587h-259l-294 550h-316v-550h-224zM274 1625v156h700v-156h-700zM405 741h322q130 0 201.5 66t71.5 187q0 118 -74.5 185t-204.5 67h-316v-505zM490 -279q0 58 38.5 97.5t95.5 39.5 t95.5 -39.5t38.5 -97.5t-38.5 -97.5t-95.5 -39.5t-95.5 39.5t-38.5 97.5z" />
<glyph unicode="&#x1e5d;" horiz-adv-x="820" d="M55 1299v155h696v-155h-696zM129 -279q0 58 38.5 97.5t95.5 39.5t95.5 -39.5t38.5 -97.5t-38.5 -97.5t-95.5 -39.5t-95.5 39.5t-38.5 97.5zM156 0v1089h207v-167h16q23 81 105.5 133t188.5 52q61 0 96 -9v-212q-39 13 -120 13q-123 0 -200.5 -71t-77.5 -185v-643h-215z " />
<glyph unicode="&#x1e5e;" horiz-adv-x="1368" d="M181 0v1443h571q218 0 348 -120.5t130 -323.5q0 -146 -74.5 -256.5t-205.5 -155.5l324 -587h-259l-294 550h-316v-550h-224zM274 -216h700v-156h-700v156zM405 741h322q130 0 201.5 66t71.5 187q0 118 -74.5 185t-204.5 67h-316v-505z" />
<glyph unicode="&#x1e5f;" horiz-adv-x="820" d="M-87 -216h700v-156h-700v156zM156 0v1089h207v-167h16q23 81 105.5 133t188.5 52q61 0 96 -9v-212q-39 13 -120 13q-123 0 -200.5 -71t-77.5 -185v-643h-215z" />
<glyph unicode="&#x1e60;" horiz-adv-x="1333" d="M113 388h222q14 -103 107.5 -163.5t238.5 -60.5q135 0 223.5 62.5t88.5 158.5q0 82 -65.5 134.5t-209.5 86.5l-186 45q-196 46 -288 143t-92 256q0 193 144.5 310.5t380.5 117.5q220 0 365 -116t155 -298h-218q-16 100 -97.5 158t-207.5 58q-133 0 -214 -59t-81 -156 q0 -77 61.5 -125t202.5 -81l159 -39q222 -52 320 -147.5t98 -258.5q0 -207 -150 -328t-406 -121q-240 0 -389.5 115t-161.5 308zM543 1714q0 58 38.5 97.5t95.5 39.5t95.5 -39.5t38.5 -97.5t-38.5 -97.5t-95.5 -39.5t-95.5 39.5t-38.5 97.5z" />
<glyph unicode="&#x1e61;" horiz-adv-x="1104" d="M103 289h215q21 -64 81 -100t156 -36q101 0 165 41t64 106q0 95 -160 133l-190 44q-156 37 -229.5 110t-73.5 194q0 144 119 236.5t304 92.5q184 0 297 -81t129 -225h-206q-15 61 -72.5 96t-147.5 35q-91 0 -151 -39.5t-60 -102.5q0 -49 42 -81t131 -52l181 -42 q157 -36 230.5 -107t73.5 -190q0 -152 -127 -247t-324 -95q-194 0 -313.5 82.5t-133.5 227.5zM414 1425q0 59 40.5 100.5t99.5 41.5q58 0 99 -41.5t41 -100.5t-41 -100.5t-99 -41.5q-59 0 -99.5 41.5t-40.5 100.5z" />
<glyph unicode="&#x1e62;" horiz-adv-x="1333" d="M113 388h222q14 -103 107.5 -163.5t238.5 -60.5q135 0 223.5 62.5t88.5 158.5q0 82 -65.5 134.5t-209.5 86.5l-186 45q-196 46 -288 143t-92 256q0 193 144.5 310.5t380.5 117.5q220 0 365 -116t155 -298h-218q-16 100 -97.5 158t-207.5 58q-133 0 -214 -59t-81 -156 q0 -77 61.5 -125t202.5 -81l159 -39q222 -52 320 -147.5t98 -258.5q0 -207 -150 -328t-406 -121q-240 0 -389.5 115t-161.5 308zM530 -279q0 58 38.5 97.5t95.5 39.5t95.5 -39.5t38.5 -97.5t-38.5 -97.5t-95.5 -39.5t-95.5 39.5t-38.5 97.5z" />
<glyph unicode="&#x1e63;" horiz-adv-x="1104" d="M103 289h215q21 -64 81 -100t156 -36q101 0 165 41t64 106q0 95 -160 133l-190 44q-156 37 -229.5 110t-73.5 194q0 144 119 236.5t304 92.5q184 0 297 -81t129 -225h-206q-15 61 -72.5 96t-147.5 35q-91 0 -151 -39.5t-60 -102.5q0 -49 42 -81t131 -52l181 -42 q157 -36 230.5 -107t73.5 -190q0 -152 -127 -247t-324 -95q-194 0 -313.5 82.5t-133.5 227.5zM416 -279q0 58 38.5 97.5t95.5 39.5t95.5 -39.5t38.5 -97.5t-38.5 -97.5t-95.5 -39.5t-95.5 39.5t-38.5 97.5z" />
<glyph unicode="&#x1e64;" horiz-adv-x="1333" d="M113 388h222q14 -103 107.5 -163.5t238.5 -60.5q135 0 223.5 62.5t88.5 158.5q0 82 -65.5 134.5t-209.5 86.5l-186 45q-196 46 -288 143t-92 256q0 193 144.5 310.5t380.5 117.5q220 0 365 -116t155 -298h-218q-16 100 -97.5 158t-207.5 58q-133 0 -214 -59t-81 -156 q0 -77 61.5 -125t202.5 -81l159 -39q222 -52 320 -147.5t98 -258.5q0 -207 -150 -328t-406 -121q-240 0 -389.5 115t-161.5 308zM348 1759q0 58 38.5 97.5t95.5 39.5t95.5 -39.5t38.5 -97.5t-38.5 -97.5t-95.5 -39.5t-95.5 39.5t-38.5 97.5zM668 1582l297 306h258l-325 -306 h-230z" />
<glyph unicode="&#x1e65;" horiz-adv-x="1104" d="M103 289h215q21 -64 81 -100t156 -36q101 0 165 41t64 106q0 95 -160 133l-190 44q-156 37 -229.5 110t-73.5 194q0 144 119 236.5t304 92.5q184 0 297 -81t129 -225h-206q-15 61 -72.5 96t-147.5 35q-91 0 -151 -39.5t-60 -102.5q0 -49 42 -81t131 -52l181 -42 q157 -36 230.5 -107t73.5 -190q0 -152 -127 -247t-324 -95q-194 0 -313.5 82.5t-133.5 227.5zM235 1400q0 59 40.5 100.5t99.5 41.5q58 0 99 -41.5t41 -100.5t-41 -100.5t-99 -41.5q-59 0 -99.5 41.5t-40.5 100.5zM560 1244l251 344h252l-281 -344h-222z" />
<glyph unicode="&#x1e66;" horiz-adv-x="1333" d="M113 388h222q14 -103 107.5 -163.5t238.5 -60.5q135 0 223.5 62.5t88.5 158.5q0 82 -65.5 134.5t-209.5 86.5l-186 45q-196 46 -288 143t-92 256q0 193 144.5 310.5t380.5 117.5q220 0 365 -116t155 -298h-218q-16 100 -97.5 158t-207.5 58q-133 0 -214 -59t-81 -156 q0 -77 61.5 -125t202.5 -81l159 -39q222 -52 320 -147.5t98 -258.5q0 -207 -150 -328t-406 -121q-240 0 -389.5 115t-161.5 308zM274 1826h240l154 -139h18l154 139h240l-288 -249h-230zM545 2013q0 56 38 94t94 38t94 -38t38 -94t-38 -94t-94 -38t-94 38t-38 94z" />
<glyph unicode="&#x1e67;" horiz-adv-x="1104" d="M103 289h215q21 -64 81 -100t156 -36q101 0 165 41t64 106q0 95 -160 133l-190 44q-156 37 -229.5 110t-73.5 194q0 144 119 236.5t304 92.5q184 0 297 -81t129 -225h-206q-15 61 -72.5 96t-147.5 35q-91 0 -151 -39.5t-60 -102.5q0 -49 42 -81t131 -52l181 -42 q157 -36 230.5 -107t73.5 -190q0 -152 -127 -247t-324 -95q-194 0 -313.5 82.5t-133.5 227.5zM157 1569h224l165 -204h16l165 204h224l-280 -331h-234zM424 1781q0 57 37 95t93 38t93 -38t37 -95q0 -56 -37 -94t-93 -38t-93 38t-37 94z" />
<glyph unicode="&#x1e68;" horiz-adv-x="1333" d="M113 388h222q14 -103 107.5 -163.5t238.5 -60.5q135 0 223.5 62.5t88.5 158.5q0 82 -65.5 134.5t-209.5 86.5l-186 45q-196 46 -288 143t-92 256q0 193 144.5 310.5t380.5 117.5q220 0 365 -116t155 -298h-218q-16 100 -97.5 158t-207.5 58q-133 0 -214 -59t-81 -156 q0 -77 61.5 -125t202.5 -81l159 -39q222 -52 320 -147.5t98 -258.5q0 -207 -150 -328t-406 -121q-240 0 -389.5 115t-161.5 308zM530 -279q0 58 38.5 97.5t95.5 39.5t95.5 -39.5t38.5 -97.5t-38.5 -97.5t-95.5 -39.5t-95.5 39.5t-38.5 97.5zM543 1714q0 58 38.5 97.5 t95.5 39.5t95.5 -39.5t38.5 -97.5t-38.5 -97.5t-95.5 -39.5t-95.5 39.5t-38.5 97.5z" />
<glyph unicode="&#x1e69;" horiz-adv-x="1104" d="M103 289h215q21 -64 81 -100t156 -36q101 0 165 41t64 106q0 95 -160 133l-190 44q-156 37 -229.5 110t-73.5 194q0 144 119 236.5t304 92.5q184 0 297 -81t129 -225h-206q-15 61 -72.5 96t-147.5 35q-91 0 -151 -39.5t-60 -102.5q0 -49 42 -81t131 -52l181 -42 q157 -36 230.5 -107t73.5 -190q0 -152 -127 -247t-324 -95q-194 0 -313.5 82.5t-133.5 227.5zM414 1425q0 59 40.5 100.5t99.5 41.5q58 0 99 -41.5t41 -100.5t-41 -100.5t-99 -41.5q-59 0 -99.5 41.5t-40.5 100.5zM416 -279q0 58 38.5 97.5t95.5 39.5t95.5 -39.5t38.5 -97.5 t-38.5 -97.5t-95.5 -39.5t-95.5 39.5t-38.5 97.5z" />
<glyph unicode="&#x1e6a;" horiz-adv-x="1317" d="M93 1239v204h1131v-204h-453v-1239h-224v1239h-454zM524 1714q0 58 38.5 97.5t95.5 39.5t95.5 -39.5t38.5 -97.5t-38.5 -97.5t-95.5 -39.5t-95.5 39.5t-38.5 97.5z" />
<glyph unicode="&#x1e6b;" horiz-adv-x="780" d="M59 903v181h173v276h215v-276h236v-181h-236v-560q0 -85 37 -124.5t117 -39.5q32 0 82 5v-179q-64 -11 -117 -11q-179 0 -256.5 68t-77.5 226v615h-173zM199 1642q0 59 40.5 100.5t99.5 41.5q58 0 99 -41.5t41 -100.5t-41 -100.5t-99 -41.5q-59 0 -99.5 41.5t-40.5 100.5 z" />
<glyph unicode="&#x1e6c;" horiz-adv-x="1317" d="M93 1239v204h1131v-204h-453v-1239h-224v1239h-454zM524 -279q0 58 38.5 97.5t95.5 39.5t95.5 -39.5t38.5 -97.5t-38.5 -97.5t-95.5 -39.5t-95.5 39.5t-38.5 97.5z" />
<glyph unicode="&#x1e6d;" horiz-adv-x="780" d="M59 903v181h173v276h215v-276h236v-181h-236v-560q0 -85 37 -124.5t117 -39.5q32 0 82 5v-179q-64 -11 -117 -11q-179 0 -256.5 68t-77.5 226v615h-173zM306 -279q0 58 38.5 97.5t95.5 39.5t95.5 -39.5t38.5 -97.5t-38.5 -97.5t-95.5 -39.5t-95.5 39.5t-38.5 97.5z" />
<glyph unicode="&#x1e6e;" horiz-adv-x="1317" d="M93 1239v204h1131v-204h-453v-1239h-224v1239h-454zM308 -216h700v-156h-700v156z" />
<glyph unicode="&#x1e6f;" horiz-adv-x="780" d="M59 903v181h173v276h215v-276h236v-181h-236v-560q0 -85 37 -124.5t117 -39.5q32 0 82 5v-179q-64 -11 -117 -11q-179 0 -256.5 68t-77.5 226v615h-173zM90 -216h700v-156h-700v156z" />
<glyph unicode="&#x1e70;" horiz-adv-x="1317" d="M93 1239v204h1131v-204h-453v-1239h-224v1239h-454zM262 -450l295 314h202l295 -314h-225l-163 181h-16l-163 -181h-225z" />
<glyph unicode="&#x1e71;" horiz-adv-x="780" d="M44 -450l295 314h202l295 -314h-225l-163 181h-16l-163 -181h-225zM59 903v181h173v276h215v-276h236v-181h-236v-560q0 -85 37 -124.5t117 -39.5q32 0 82 5v-179q-64 -11 -117 -11q-179 0 -256.5 68t-77.5 226v615h-173z" />
<glyph unicode="&#x1e72;" d="M185 497v946h224v-926q0 -154 95.5 -248t264.5 -94q170 0 265.5 94t95.5 248v926h224v-946q0 -238 -158.5 -385t-426.5 -147t-426 147t-158 385zM422 -304q0 57 38.5 96t95.5 39q56 0 94.5 -39t38.5 -96t-38.5 -95.5t-94.5 -38.5q-57 0 -95.5 38.5t-38.5 95.5zM849 -304 q0 57 39 96t95 39t94.5 -39t38.5 -96t-38.5 -95.5t-94.5 -38.5t-95 38.5t-39 95.5z" />
<glyph unicode="&#x1e73;" horiz-adv-x="1230" d="M146 382v707h215v-651q0 -133 55.5 -196.5t173.5 -63.5q129 0 199 72.5t70 201.5v637h215v-1089h-207v173h-17q-83 -194 -329 -194q-180 0 -277.5 105t-97.5 298zM261 -304q0 57 38.5 96t95.5 39q56 0 94.5 -39t38.5 -96t-38.5 -95.5t-94.5 -38.5q-57 0 -95.5 38.5 t-38.5 95.5zM688 -304q0 57 39 96t95 39t94.5 -39t38.5 -96t-38.5 -95.5t-94.5 -38.5t-95 38.5t-39 95.5z" />
<glyph unicode="&#x1e74;" d="M185 497v946h224v-926q0 -154 95.5 -248t264.5 -94q170 0 265.5 94t95.5 248v926h224v-946q0 -238 -158.5 -385t-426.5 -147t-426 147t-158 385zM381 -424q0 140 65 222t177 82q44 0 81.5 -15.5t63.5 -37.5t48 -44.5t45 -38t44 -15.5q49 0 71.5 35t22.5 113h158 q0 -140 -65 -221t-177 -81q-44 0 -81.5 15.5t-63.5 37.5t-48 44.5t-45 38t-44 15.5q-49 0 -71.5 -36t-22.5 -114h-158z" />
<glyph unicode="&#x1e75;" horiz-adv-x="1230" d="M146 382v707h215v-651q0 -133 55.5 -196.5t173.5 -63.5q129 0 199 72.5t70 201.5v637h215v-1089h-207v173h-17q-83 -194 -329 -194q-180 0 -277.5 105t-97.5 298zM220 -424q0 140 65 222t177 82q44 0 81.5 -15.5t63.5 -37.5t48 -44.5t45 -38t44 -15.5q49 0 71.5 35 t22.5 113h158q0 -140 -65 -221t-177 -81q-44 0 -81.5 15.5t-63.5 37.5t-48 44.5t-45 38t-44 15.5q-49 0 -71.5 -36t-22.5 -114h-158z" />
<glyph unicode="&#x1e76;" d="M185 497v946h224v-926q0 -154 95.5 -248t264.5 -94q170 0 265.5 94t95.5 248v926h224v-946q0 -238 -158.5 -385t-426.5 -147t-426 147t-158 385zM373 -450l295 314h202l295 -314h-225l-163 181h-16l-163 -181h-225z" />
<glyph unicode="&#x1e77;" horiz-adv-x="1230" d="M146 382v707h215v-651q0 -133 55.5 -196.5t173.5 -63.5q129 0 199 72.5t70 201.5v637h215v-1089h-207v173h-17q-83 -194 -329 -194q-180 0 -277.5 105t-97.5 298zM212 -450l295 314h202l295 -314h-225l-163 181h-16l-163 -181h-225z" />
<glyph unicode="&#x1e78;" d="M185 497v946h224v-926q0 -154 95.5 -248t264.5 -94q170 0 265.5 94t95.5 248v926h224v-946q0 -238 -158.5 -385t-426.5 -147t-426 147t-158 385zM391 1591q0 118 64.5 189t168.5 71q46 0 82.5 -13t59 -31.5t42 -36.5t43.5 -31t52 -13q38 0 63 27t29 82h152 q0 -113 -65 -185.5t-168 -72.5q-46 0 -82.5 13t-59 31.5t-42 36.5t-43.5 31t-52 13q-87 0 -91 -111h-153zM718 1901l198 231h242l-227 -231h-213z" />
<glyph unicode="&#x1e79;" horiz-adv-x="1230" d="M146 382v707h215v-651q0 -133 55.5 -196.5t173.5 -63.5q129 0 199 72.5t70 201.5v637h215v-1089h-207v173h-17q-83 -194 -329 -194q-180 0 -277.5 105t-97.5 298zM220 1227q0 140 65 222t177 82q44 0 81.5 -15.5t63.5 -37.5t48 -44.5t45 -38t44 -15.5q49 0 71.5 35 t22.5 113h158q0 -140 -65 -221t-177 -81q-44 0 -81.5 15.5t-63.5 38t-48 44.5t-45 37.5t-44 15.5q-49 0 -71.5 -36t-22.5 -114h-158zM508 1644l192 266h230l-225 -266h-197z" />
<glyph unicode="&#x1e7a;" d="M185 497v946h224v-926q0 -154 95.5 -248t264.5 -94q170 0 265.5 94t95.5 248v926h224v-946q0 -238 -158.5 -385t-426.5 -147t-426 147t-158 385zM419 1616v151h700v-151h-700zM433 2005q0 55 36.5 92t90.5 37q55 0 91 -37t36 -92q0 -54 -36.5 -91.5t-90.5 -37.5 t-90.5 37.5t-36.5 91.5zM851 2005q0 55 36 92t91 37q54 0 90.5 -37t36.5 -92q0 -54 -36.5 -91.5t-90.5 -37.5t-90.5 37.5t-36.5 91.5z" />
<glyph unicode="&#x1e7b;" horiz-adv-x="1230" d="M146 382v707h215v-651q0 -133 55.5 -196.5t173.5 -63.5q129 0 199 72.5t70 201.5v637h215v-1089h-207v173h-17q-83 -194 -329 -194q-180 0 -277.5 105t-97.5 298zM262 1282v155h696v-155h-696zM274 1728q0 55 36.5 92.5t90.5 37.5t90.5 -37.5t36.5 -92.5 q0 -54 -36.5 -91.5t-90.5 -37.5t-90.5 37.5t-36.5 91.5zM692 1728q0 55 36.5 92.5t90.5 37.5t90.5 -37.5t36.5 -92.5q0 -54 -36.5 -91.5t-90.5 -37.5t-90.5 37.5t-36.5 91.5z" />
<glyph unicode="&#x1e7c;" horiz-adv-x="1415" d="M70 1443h244l389 -1163h17l387 1163h238l-513 -1443h-246zM316 1578q0 140 65 222t177 82q44 0 81.5 -15.5t63.5 -38t48 -44.5t45 -37.5t44 -15.5q49 0 71.5 35t22.5 113h158q0 -140 -65 -221t-177 -81q-44 0 -81.5 15.5t-63.5 37.5t-48 44.5t-45 38t-44 15.5 q-49 0 -71.5 -36t-22.5 -114h-158z" />
<glyph unicode="&#x1e7d;" horiz-adv-x="1140" d="M62 1089h230l271 -859h17l270 859h228l-392 -1089h-231zM184 1242q0 140 65 222t177 82q44 0 81.5 -15.5t63.5 -38t48 -44.5t45 -37.5t44 -15.5q49 0 71.5 35t22.5 113h158q0 -140 -65 -221t-177 -81q-44 0 -81.5 15.5t-63.5 37.5t-48 44.5t-45 38t-44 15.5 q-49 0 -71.5 -36t-22.5 -114h-158z" />
<glyph unicode="&#x1e7e;" horiz-adv-x="1415" d="M70 1443h244l389 -1163h17l387 1163h238l-513 -1443h-246zM570 -279q0 58 38.5 97.5t95.5 39.5t95.5 -39.5t38.5 -97.5t-38.5 -97.5t-95.5 -39.5t-95.5 39.5t-38.5 97.5z" />
<glyph unicode="&#x1e7f;" horiz-adv-x="1140" d="M62 1089h230l271 -859h17l270 859h228l-392 -1089h-231zM436 -279q0 58 38.5 97.5t95.5 39.5t95.5 -39.5t38.5 -97.5t-38.5 -97.5t-95.5 -39.5t-95.5 39.5t-38.5 97.5z" />
<glyph unicode="&#x1e80;" horiz-adv-x="2013" d="M89 1443h233l265 -1105h14l301 1105h208l303 -1105h14l264 1105h233l-390 -1443h-211l-310 1059h-14l-309 -1059h-212zM567 1888h258l298 -306h-230z" />
<glyph unicode="&#x1e81;" horiz-adv-x="1640" d="M65 1089h218l195 -831h16l224 831h206l224 -831h17l194 831h215l-299 -1089h-223l-225 802h-17l-224 -802h-221zM453 1615h252l251 -344h-221z" />
<glyph unicode="&#x1e82;" horiz-adv-x="2013" d="M89 1443h233l265 -1105h14l301 1105h208l303 -1105h14l264 1105h233l-390 -1443h-211l-310 1059h-14l-309 -1059h-212zM888 1582l297 306h258l-325 -306h-230z" />
<glyph unicode="&#x1e83;" horiz-adv-x="1640" d="M65 1089h218l195 -831h16l224 831h206l224 -831h17l194 831h215l-299 -1089h-223l-225 802h-17l-224 -802h-221zM692 1271l251 344h252l-281 -344h-222z" />
<glyph unicode="&#x1e84;" horiz-adv-x="2013" d="M89 1443h233l265 -1105h14l301 1105h208l303 -1105h14l264 1105h233l-390 -1443h-211l-310 1059h-14l-309 -1059h-212zM659 1711q0 57 38.5 96t95.5 39q56 0 94.5 -39t38.5 -96t-38.5 -95.5t-94.5 -38.5q-57 0 -95.5 38.5t-38.5 95.5zM1086 1711q0 57 39 96t95 39 t94.5 -39t38.5 -96t-38.5 -95.5t-94.5 -38.5t-95 38.5t-39 95.5z" />
<glyph unicode="&#x1e85;" horiz-adv-x="1640" d="M65 1089h218l195 -831h16l224 831h206l224 -831h17l194 831h215l-299 -1089h-223l-225 802h-17l-224 -802h-221zM474 1372q0 57 38.5 96t95.5 39q56 0 94.5 -39t38.5 -96t-38.5 -95.5t-94.5 -38.5q-57 0 -95.5 38.5t-38.5 95.5zM901 1372q0 57 39 96t95 39t94.5 -39 t38.5 -96t-38.5 -95.5t-94.5 -38.5t-95 38.5t-39 95.5z" />
<glyph unicode="&#x1e86;" horiz-adv-x="2013" d="M89 1443h233l265 -1105h14l301 1105h208l303 -1105h14l264 1105h233l-390 -1443h-211l-310 1059h-14l-309 -1059h-212zM872 1714q0 58 38.5 97.5t95.5 39.5t95.5 -39.5t38.5 -97.5t-38.5 -97.5t-95.5 -39.5t-95.5 39.5t-38.5 97.5z" />
<glyph unicode="&#x1e87;" horiz-adv-x="1640" d="M65 1089h218l195 -831h16l224 831h206l224 -831h17l194 831h215l-299 -1089h-223l-225 802h-17l-224 -802h-221zM681 1425q0 59 40.5 100.5t99.5 41.5q58 0 99 -41.5t41 -100.5t-41 -100.5t-99 -41.5q-59 0 -99.5 41.5t-40.5 100.5z" />
<glyph unicode="&#x1e88;" horiz-adv-x="2013" d="M89 1443h233l265 -1105h14l301 1105h208l303 -1105h14l264 1105h233l-390 -1443h-211l-310 1059h-14l-309 -1059h-212zM872 -279q0 58 38.5 97.5t95.5 39.5t95.5 -39.5t38.5 -97.5t-38.5 -97.5t-95.5 -39.5t-95.5 39.5t-38.5 97.5z" />
<glyph unicode="&#x1e89;" horiz-adv-x="1640" d="M65 1089h218l195 -831h16l224 831h206l224 -831h17l194 831h215l-299 -1089h-223l-225 802h-17l-224 -802h-221zM685 -279q0 58 38.5 97.5t95.5 39.5t95.5 -39.5t38.5 -97.5t-38.5 -97.5t-95.5 -39.5t-95.5 39.5t-38.5 97.5z" />
<glyph unicode="&#x1e8a;" horiz-adv-x="1427" d="M89 0l482 726l-477 717h267l351 -544h17l357 544h252l-490 -723l481 -720h-262l-354 534h-17l-359 -534h-248zM582 1714q0 58 38.5 97.5t95.5 39.5t95.5 -39.5t38.5 -97.5t-38.5 -97.5t-95.5 -39.5t-95.5 39.5t-38.5 97.5z" />
<glyph unicode="&#x1e8b;" horiz-adv-x="1117" d="M70 1089h251l234 -384h17l232 384h239l-359 -538l363 -551h-247l-237 386h-16l-238 -386h-236l361 542zM421 1425q0 59 40.5 100.5t99.5 41.5q58 0 99 -41.5t41 -100.5t-41 -100.5t-99 -41.5q-59 0 -99.5 41.5t-40.5 100.5z" />
<glyph unicode="&#x1e8c;" horiz-adv-x="1427" d="M89 0l482 726l-477 717h267l351 -544h17l357 544h252l-490 -723l481 -720h-262l-354 534h-17l-359 -534h-248zM369 1711q0 57 38.5 96t95.5 39q56 0 94.5 -39t38.5 -96t-38.5 -95.5t-94.5 -38.5q-57 0 -95.5 38.5t-38.5 95.5zM796 1711q0 57 39 96t95 39t94.5 -39 t38.5 -96t-38.5 -95.5t-94.5 -38.5t-95 38.5t-39 95.5z" />
<glyph unicode="&#x1e8d;" horiz-adv-x="1117" d="M70 1089h251l234 -384h17l232 384h239l-359 -538l363 -551h-247l-237 386h-16l-238 -386h-236l361 542zM214 1372q0 57 38.5 96t95.5 39q56 0 94.5 -39t38.5 -96t-38.5 -95.5t-94.5 -38.5q-57 0 -95.5 38.5t-38.5 95.5zM641 1372q0 57 39 96t95 39t94.5 -39t38.5 -96 t-38.5 -95.5t-94.5 -38.5t-95 38.5t-39 95.5z" />
<glyph unicode="&#x1e8e;" horiz-adv-x="1383" d="M71 1443h249l363 -625h17l363 625h249l-509 -861v-582h-224v582zM557 1714q0 58 38.5 97.5t95.5 39.5t95.5 -39.5t38.5 -97.5t-38.5 -97.5t-95.5 -39.5t-95.5 39.5t-38.5 97.5z" />
<glyph unicode="&#x1e8f;" horiz-adv-x="1152" d="M64 1089h234l273 -865h17l272 865h228l-406 -1134q-70 -198 -160.5 -274t-257.5 -76q-56 0 -89 5v185q23 -4 70 -4q77 0 123 35t74 117l16 53zM434 1425q0 59 40.5 100.5t99.5 41.5q58 0 99 -41.5t41 -100.5t-41 -100.5t-99 -41.5q-59 0 -99.5 41.5t-40.5 100.5z" />
<glyph unicode="&#x1e90;" horiz-adv-x="1365" d="M141 0v161l784 1061v17h-760v204h1041v-161l-780 -1061v-17h799v-204h-1084zM287 1582l295 314h202l295 -314h-225l-163 181h-16l-163 -181h-225z" />
<glyph unicode="&#x1e91;" horiz-adv-x="1124" d="M131 0v146l599 744v17h-595v182h852v-157l-586 -733v-17h592v-182h-862zM159 1238l280 346h234l279 -346h-221l-167 219h-16l-167 -219h-222z" />
<glyph unicode="&#x1e92;" horiz-adv-x="1365" d="M141 0v161l784 1061v17h-760v204h1041v-161l-780 -1061v-17h799v-204h-1084zM549 -279q0 58 38.5 97.5t95.5 39.5t95.5 -39.5t38.5 -97.5t-38.5 -97.5t-95.5 -39.5t-95.5 39.5t-38.5 97.5z" />
<glyph unicode="&#x1e93;" horiz-adv-x="1124" d="M131 0v146l599 744v17h-595v182h852v-157l-586 -733v-17h592v-182h-862zM422 -279q0 58 38.5 97.5t95.5 39.5t95.5 -39.5t38.5 -97.5t-38.5 -97.5t-95.5 -39.5t-95.5 39.5t-38.5 97.5z" />
<glyph unicode="&#x1e94;" horiz-adv-x="1365" d="M141 0v161l784 1061v17h-760v204h1041v-161l-780 -1061v-17h799v-204h-1084zM333 -216h700v-156h-700v156z" />
<glyph unicode="&#x1e95;" horiz-adv-x="1124" d="M131 0v146l599 744v17h-595v182h852v-157l-586 -733v-17h592v-182h-862zM206 -216h700v-156h-700v156z" />
<glyph unicode="&#x1e96;" horiz-adv-x="1249" d="M166 0v1514h213v-600h17q40 93 125.5 144t206.5 51q175 0 275 -106.5t100 -299.5v-703h-215v650q0 130 -59 196t-174 66q-130 0 -202 -75t-72 -201v-636h-215zM287 -216h700v-156h-700v156z" />
<glyph unicode="&#x1e97;" horiz-adv-x="780" d="M-8 1589q0 57 38.5 96t95.5 39q56 0 94.5 -39t38.5 -96t-38.5 -95.5t-94.5 -38.5q-57 0 -95.5 38.5t-38.5 95.5zM59 903v181h173v276h215v-276h236v-181h-236v-560q0 -85 37 -124.5t117 -39.5q32 0 82 5v-179q-64 -11 -117 -11q-179 0 -256.5 68t-77.5 226v615h-173z M419 1589q0 57 39 96t95 39t94.5 -39t38.5 -96t-38.5 -95.5t-94.5 -38.5t-95 38.5t-39 95.5z" />
<glyph unicode="&#x1e98;" horiz-adv-x="1640" d="M65 1089h218l195 -831h16l224 831h206l224 -831h17l194 831h215l-299 -1089h-223l-225 802h-17l-224 -802h-221zM584 1472q0 99 68.5 166t168.5 67t168.5 -67t68.5 -166t-69 -166.5t-168 -67.5t-168 67.5t-69 166.5zM705 1472q0 -50 33 -82.5t83 -32.5t83 32.5t33 82.5 q0 49 -33 81.5t-83 32.5t-83 -32.5t-33 -81.5z" />
<glyph unicode="&#x1e99;" horiz-adv-x="1152" d="M64 1089h234l273 -865h17l272 865h228l-406 -1134q-70 -198 -160.5 -274t-257.5 -76q-56 0 -89 5v185q23 -4 70 -4q77 0 123 35t74 117l16 53zM337 1472q0 99 68.5 166t168.5 67t168.5 -67t68.5 -166t-69 -166.5t-168 -67.5t-168 67.5t-69 166.5zM458 1472 q0 -50 33 -82.5t83 -32.5t83 32.5t33 82.5q0 49 -33 81.5t-83 32.5t-83 -32.5t-33 -81.5z" />
<glyph unicode="&#x1e9e;" horiz-adv-x="2666" d="M113 388h222q14 -103 107.5 -163.5t238.5 -60.5q135 0 223.5 62.5t88.5 158.5q0 82 -65.5 134.5t-209.5 86.5l-186 45q-196 46 -288 143t-92 256q0 193 144.5 310.5t380.5 117.5q220 0 365 -116t155 -298h-218q-16 100 -97.5 158t-207.5 58q-133 0 -214 -59t-81 -156 q0 -77 61.5 -125t202.5 -81l159 -39q222 -52 320 -147.5t98 -258.5q0 -207 -150 -328t-406 -121q-240 0 -389.5 115t-161.5 308zM1446 388h222q14 -103 107.5 -163.5t238.5 -60.5q135 0 223.5 62.5t88.5 158.5q0 82 -65.5 134.5t-209.5 86.5l-186 45q-196 46 -288 143 t-92 256q0 193 144.5 310.5t380.5 117.5q220 0 365 -116t155 -298h-218q-16 100 -97.5 158t-207.5 58q-133 0 -214 -59t-81 -156q0 -77 61.5 -125t202.5 -81l159 -39q222 -52 320 -147.5t98 -258.5q0 -207 -150 -328t-406 -121q-240 0 -389.5 115t-161.5 308z" />
<glyph unicode="&#x1ea0;" horiz-adv-x="1423" d="M70 0l521 1443h241l521 -1443h-238l-132 383h-550l-133 -383h-230zM490 571h436l-209 610h-17zM573 -279q0 58 38.5 97.5t95.5 39.5t95.5 -39.5t38.5 -97.5t-38.5 -97.5t-95.5 -39.5t-95.5 39.5t-38.5 97.5z" />
<glyph unicode="&#x1ea1;" horiz-adv-x="1158" d="M94 308q0 146 105 229.5t300 95.5l295 17v94q0 87 -57 133.5t-166 46.5q-90 0 -149.5 -31.5t-77.5 -89.5h-208q16 140 137.5 223.5t307.5 83.5q204 0 315.5 -96.5t111.5 -269.5v-744h-207v153h-17q-49 -82 -134.5 -126.5t-192.5 -44.5q-160 0 -261.5 89.5t-101.5 236.5z M310 318q0 -72 56 -113.5t146 -41.5q121 0 201.5 68t80.5 170v91l-266 -17q-112 -7 -165 -46t-53 -111zM424 -279q0 58 38.5 97.5t95.5 39.5t95.5 -39.5t38.5 -97.5t-38.5 -97.5t-95.5 -39.5t-95.5 39.5t-38.5 97.5z" />
<glyph unicode="&#x1ea2;" horiz-adv-x="1423" d="M70 0l521 1443h241l521 -1443h-238l-132 383h-550l-133 -383h-230zM490 571h436l-209 610h-17zM526 1800v135q54 22 139 22q107 0 170 -52t63 -140q0 -74 -51.5 -136.5t-136.5 -92.5l-80 104q48 16 78 45t30 61t-28.5 53.5t-73.5 21.5q-70 0 -110 -21z" />
<glyph unicode="&#x1ea3;" horiz-adv-x="1158" d="M94 308q0 146 105 229.5t300 95.5l295 17v94q0 87 -57 133.5t-166 46.5q-90 0 -149.5 -31.5t-77.5 -89.5h-208q16 140 137.5 223.5t307.5 83.5q204 0 315.5 -96.5t111.5 -269.5v-744h-207v153h-17q-49 -82 -134.5 -126.5t-192.5 -44.5q-160 0 -261.5 89.5t-101.5 236.5z M310 318q0 -72 56 -113.5t146 -41.5q121 0 201.5 68t80.5 170v91l-266 -17q-112 -7 -165 -46t-53 -111zM426 1479v137q58 23 142 23q108 0 172 -53t64 -143q0 -75 -52.5 -138t-138.5 -94l-82 106q49 16 80 45.5t31 61.5q0 33 -29 54.5t-75 21.5q-70 0 -112 -21z" />
<glyph unicode="&#x1ea4;" horiz-adv-x="1423" d="M70 0l521 1443h241l521 -1443h-238l-132 383h-550l-133 -383h-230zM309 1577l288 249h230l288 -249h-240l-154 138h-18l-154 -138h-240zM490 571h436l-209 610h-17zM924 1867l207 265h236l-234 -265h-209z" />
<glyph unicode="&#x1ea5;" horiz-adv-x="1158" d="M94 308q0 146 105 229.5t300 95.5l295 17v94q0 87 -57 133.5t-166 46.5q-90 0 -149.5 -31.5t-77.5 -89.5h-208q16 140 137.5 223.5t307.5 83.5q204 0 315.5 -96.5t111.5 -269.5v-744h-207v153h-17q-49 -82 -134.5 -126.5t-192.5 -44.5q-160 0 -261.5 89.5t-101.5 236.5z M189 1244l278 331h228l278 -331h-219l-165 204h-16l-165 -204h-219zM310 318q0 -72 56 -113.5t146 -41.5q121 0 201.5 68t80.5 170v91l-266 -17q-112 -7 -165 -46t-53 -111zM784 1596l191 314h224l-223 -314h-192z" />
<glyph unicode="&#x1ea6;" horiz-adv-x="1423" d="M70 0l521 1443h241l521 -1443h-238l-132 383h-550l-133 -383h-230zM309 1577l288 249h230l288 -249h-240l-154 138h-18l-154 -138h-240zM490 571h436l-209 610h-17zM737 2132h236l206 -265h-209z" />
<glyph unicode="&#x1ea7;" horiz-adv-x="1158" d="M94 308q0 146 105 229.5t300 95.5l295 17v94q0 87 -57 133.5t-166 46.5q-90 0 -149.5 -31.5t-77.5 -89.5h-208q16 140 137.5 223.5t307.5 83.5q204 0 315.5 -96.5t111.5 -269.5v-744h-207v153h-17q-49 -82 -134.5 -126.5t-192.5 -44.5q-160 0 -261.5 89.5t-101.5 236.5z M184 1238l280 331h234l280 -331h-224l-165 204h-16l-165 -204h-224zM310 318q0 -72 56 -113.5t146 -41.5q121 0 201.5 68t80.5 170v91l-266 -17q-112 -7 -165 -46t-53 -111zM624 1910h224l191 -314h-192z" />
<glyph unicode="&#x1ea8;" horiz-adv-x="1423" d="M70 0l521 1443h241l521 -1443h-238l-132 383h-550l-133 -383h-230zM309 1577l288 249h230l288 -249h-240l-154 138h-18l-154 -138h-240zM490 571h436l-209 610h-17zM836 1999v122q45 17 135 17q91 0 146.5 -48.5t55.5 -127.5q0 -67 -39 -121t-104 -78l-101 85 q41 15 63.5 41.5t22.5 57.5q0 30 -24 49t-62 19q-56 0 -93 -16z" />
<glyph unicode="&#x1ea9;" horiz-adv-x="1158" d="M94 308q0 146 105 229.5t300 95.5l295 17v94q0 87 -57 133.5t-166 46.5q-90 0 -149.5 -31.5t-77.5 -89.5h-208q16 140 137.5 223.5t307.5 83.5q204 0 315.5 -96.5t111.5 -269.5v-744h-207v153h-17q-49 -82 -134.5 -126.5t-192.5 -44.5q-160 0 -261.5 89.5t-101.5 236.5z M184 1238l280 331h234l280 -331h-224l-165 204h-16l-165 -204h-224zM310 318q0 -72 56 -113.5t146 -41.5q121 0 201.5 68t80.5 170v91l-266 -17q-112 -7 -165 -46t-53 -111zM746 1754v138q53 21 135 21q111 0 175 -52t64 -143q0 -75 -52 -138t-138 -94l-82 106 q49 16 79 45.5t30 61.5q0 34 -28.5 55t-72.5 21q-66 0 -110 -21z" />
<glyph unicode="&#x1eaa;" horiz-adv-x="1423" d="M70 0l521 1443h241l521 -1443h-238l-132 383h-550l-133 -383h-230zM309 1577l288 246h230l288 -246h-240l-154 138h-18l-154 -138h-240zM337 1890q0 116 64.5 186.5t167.5 70.5q46 0 82 -13t58.5 -31.5t41.5 -37t43 -31.5t52 -13q38 0 63 27.5t29 83.5h149 q0 -114 -64.5 -186.5t-167.5 -72.5q-46 0 -82 13t-58.5 31.5t-41.5 37t-43 31.5t-52 13q-86 0 -91 -109h-150zM490 571h436l-209 610h-17z" />
<glyph unicode="&#x1eab;" horiz-adv-x="1158" d="M94 308q0 146 105 229.5t300 95.5l295 17v94q0 87 -57 133.5t-166 46.5q-90 0 -149.5 -31.5t-77.5 -89.5h-208q16 140 137.5 223.5t307.5 83.5q204 0 315.5 -96.5t111.5 -269.5v-744h-207v153h-17q-49 -82 -134.5 -126.5t-192.5 -44.5q-160 0 -261.5 89.5t-101.5 236.5z M184 1238l280 331h234l280 -331h-224l-165 204h-16l-165 -204h-224zM193 1654q0 140 63.5 220t174.5 80q44 0 82.5 -15t64.5 -37t48.5 -44t45.5 -37t45 -15q49 0 71.5 34t22.5 111h158q0 -139 -63.5 -218.5t-174.5 -79.5q-44 0 -82.5 15t-64.5 37t-48.5 44t-45.5 37t-45 15 q-49 0 -71.5 -34.5t-22.5 -112.5h-158zM310 318q0 -72 56 -113.5t146 -41.5q121 0 201.5 68t80.5 170v91l-266 -17q-112 -7 -165 -46t-53 -111z" />
<glyph unicode="&#x1eac;" horiz-adv-x="1423" d="M70 0l521 1443h241l521 -1443h-238l-132 383h-550l-133 -383h-230zM316 1582l295 314h202l295 -314h-225l-163 181h-16l-163 -181h-225zM490 571h436l-209 610h-17zM573 -279q0 58 38.5 97.5t95.5 39.5t95.5 -39.5t38.5 -97.5t-38.5 -97.5t-95.5 -39.5t-95.5 39.5 t-38.5 97.5z" />
<glyph unicode="&#x1ead;" horiz-adv-x="1158" d="M94 308q0 146 105 229.5t300 95.5l295 17v94q0 87 -57 133.5t-166 46.5q-90 0 -149.5 -31.5t-77.5 -89.5h-208q16 140 137.5 223.5t307.5 83.5q204 0 315.5 -96.5t111.5 -269.5v-744h-207v153h-17q-49 -82 -134.5 -126.5t-192.5 -44.5q-160 0 -261.5 89.5t-101.5 236.5z M184 1238l280 346h234l279 -346h-221l-167 219h-16l-167 -219h-222zM310 318q0 -72 56 -113.5t146 -41.5q121 0 201.5 68t80.5 170v91l-266 -17q-112 -7 -165 -46t-53 -111zM424 -279q0 58 38.5 97.5t95.5 39.5t95.5 -39.5t38.5 -97.5t-38.5 -97.5t-95.5 -39.5t-95.5 39.5 t-38.5 97.5z" />
<glyph unicode="&#x1eae;" horiz-adv-x="1423" d="M70 0l521 1443h241l521 -1443h-238l-132 383h-550l-133 -383h-230zM335 1889h173q1 -76 56 -121.5t148 -45.5t148 45.5t56 121.5h173q0 -140 -101.5 -226t-275.5 -86t-275.5 86t-101.5 226zM490 571h436l-209 610h-17zM585 1896l208 236h236l-240 -236h-204z" />
<glyph unicode="&#x1eaf;" horiz-adv-x="1158" d="M94 308q0 146 105 229.5t300 95.5l295 17v94q0 87 -57 133.5t-166 46.5q-90 0 -149.5 -31.5t-77.5 -89.5h-208q16 140 137.5 223.5t307.5 83.5q204 0 315.5 -96.5t111.5 -269.5v-744h-207v153h-17q-49 -82 -134.5 -126.5t-192.5 -44.5q-160 0 -261.5 89.5t-101.5 236.5z M204 1576h173q1 -85 55 -137.5t149 -52.5t149 52.5t55 137.5h173q0 -149 -102 -243.5t-275 -94.5t-275 94.5t-102 243.5zM310 318q0 -72 56 -113.5t146 -41.5q121 0 201.5 68t80.5 170v91l-266 -17q-112 -7 -165 -46t-53 -111zM467 1596l188 314h217l-224 -314h-181z" />
<glyph unicode="&#x1eb0;" horiz-adv-x="1423" d="M70 0l521 1443h241l521 -1443h-238l-132 383h-550l-133 -383h-230zM335 1889h173q1 -76 56 -121.5t148 -45.5t148 45.5t56 121.5h173q0 -140 -101.5 -226t-275.5 -86t-275.5 86t-101.5 226zM395 2132h236l208 -236h-204zM490 571h436l-209 610h-17z" />
<glyph unicode="&#x1eb1;" horiz-adv-x="1158" d="M94 308q0 146 105 229.5t300 95.5l295 17v94q0 87 -57 133.5t-166 46.5q-90 0 -149.5 -31.5t-77.5 -89.5h-208q16 140 137.5 223.5t307.5 83.5q204 0 315.5 -96.5t111.5 -269.5v-744h-207v153h-17q-49 -82 -134.5 -126.5t-192.5 -44.5q-160 0 -261.5 89.5t-101.5 236.5z M204 1576h173q1 -85 55 -137.5t149 -52.5t149 52.5t55 137.5h173q0 -149 -102 -243.5t-275 -94.5t-275 94.5t-102 243.5zM290 1910h217l187 -314h-181zM310 318q0 -72 56 -113.5t146 -41.5q121 0 201.5 68t80.5 170v91l-266 -17q-112 -7 -165 -46t-53 -111z" />
<glyph unicode="&#x1eb2;" horiz-adv-x="1423" d="M70 0l521 1443h241l521 -1443h-238l-132 383h-550l-133 -383h-230zM339 1862h166q2 -68 56.5 -108.5t150.5 -40.5t150.5 40.5t56.5 108.5h166q0 -128 -101 -210t-272 -82t-272 82t-101 210zM490 571h436l-209 610h-17zM533 2051v121q54 25 128 25q100 0 159.5 -51 t59.5 -136q0 -70 -46 -127.5t-127 -88.5l-71 95q44 15 69.5 44t25.5 63q0 32 -27 54t-68 22q-56 0 -103 -21z" />
<glyph unicode="&#x1eb3;" horiz-adv-x="1158" d="M94 308q0 146 105 229.5t300 95.5l295 17v94q0 87 -57 133.5t-166 46.5q-90 0 -149.5 -31.5t-77.5 -89.5h-208q16 140 137.5 223.5t307.5 83.5q204 0 315.5 -96.5t111.5 -269.5v-744h-207v153h-17q-49 -82 -134.5 -126.5t-192.5 -44.5q-160 0 -261.5 89.5t-101.5 236.5z M204 1569h173q1 -81 55 -132t149 -51t149 51t55 132h173q0 -144 -102 -237.5t-275 -93.5t-275 93.5t-102 237.5zM310 318q0 -72 56 -113.5t146 -41.5q121 0 201.5 68t80.5 170v91l-266 -17q-112 -7 -165 -46t-53 -111zM382 1781v134q52 21 133 21q109 0 172 -51.5t63 -139.5 q0 -73 -51 -133.5t-136 -90.5l-80 103q49 16 78 44t29 59q0 32 -28.5 53.5t-71.5 21.5q-64 0 -108 -21z" />
<glyph unicode="&#x1eb4;" horiz-adv-x="1423" d="M70 0l521 1443h241l521 -1443h-238l-132 383h-550l-133 -383h-230zM340 1911q0 104 60 170t159 66q54 0 98.5 -19.5t68.5 -42.5t56.5 -42.5t65.5 -19.5q35 0 60 25t27 69h149q0 -101 -60.5 -169.5t-158.5 -68.5q-54 0 -98.5 19.5t-68.5 42.5t-56.5 42.5t-65.5 19.5 q-39 0 -62 -25t-24 -67h-150zM342 1832h169q1 -43 56 -78.5t145 -35.5t145 35.5t56 78.5h169q0 -103 -102 -179t-268 -76t-268 76t-102 179zM490 571h436l-209 610h-17z" />
<glyph unicode="&#x1eb5;" horiz-adv-x="1158" d="M94 308q0 146 105 229.5t300 95.5l295 17v94q0 87 -57 133.5t-166 46.5q-90 0 -149.5 -31.5t-77.5 -89.5h-208q16 140 137.5 223.5t307.5 83.5q204 0 315.5 -96.5t111.5 -269.5v-744h-207v153h-17q-49 -82 -134.5 -126.5t-192.5 -44.5q-160 0 -261.5 89.5t-101.5 236.5z M193 1682q0 121 64.5 196.5t173.5 75.5q44 0 82.5 -15t64.5 -37t48.5 -44t45.5 -37t45 -15q49 0 71.5 34t22.5 111h158q0 -139 -63.5 -218.5t-174.5 -79.5q-44 0 -82.5 15t-64.5 37t-48.5 44t-45.5 37t-45 15q-94 0 -94 -119h-158zM204 1576h173q1 -85 55 -137.5t149 -52.5 t149 52.5t55 137.5h173q0 -149 -102 -243.5t-275 -94.5t-275 94.5t-102 243.5zM310 318q0 -72 56 -113.5t146 -41.5q121 0 201.5 68t80.5 170v91l-266 -17q-112 -7 -165 -46t-53 -111z" />
<glyph unicode="&#x1eb6;" horiz-adv-x="1423" d="M70 0l521 1443h241l521 -1443h-238l-132 383h-550l-133 -383h-230zM335 1891h173q1 -78 56 -123.5t148 -45.5t148 45.5t56 123.5h173q0 -142 -101.5 -228t-275.5 -86t-275.5 86t-101.5 228zM490 571h436l-209 610h-17zM573 -279q0 58 38.5 97.5t95.5 39.5t95.5 -39.5 t38.5 -97.5t-38.5 -97.5t-95.5 -39.5t-95.5 39.5t-38.5 97.5z" />
<glyph unicode="&#x1eb7;" horiz-adv-x="1158" d="M94 308q0 146 105 229.5t300 95.5l295 17v94q0 87 -57 133.5t-166 46.5q-90 0 -149.5 -31.5t-77.5 -89.5h-208q16 140 137.5 223.5t307.5 83.5q204 0 315.5 -96.5t111.5 -269.5v-744h-207v153h-17q-49 -82 -134.5 -126.5t-192.5 -44.5q-160 0 -261.5 89.5t-101.5 236.5z M202 1576h173q1 -85 55 -137.5t149 -52.5t149 52.5t55 137.5h173q0 -150 -102 -244t-275 -94t-275 94t-102 244zM310 318q0 -72 56 -113.5t146 -41.5q121 0 201.5 68t80.5 170v91l-266 -17q-112 -7 -165 -46t-53 -111zM424 -279q0 58 38.5 97.5t95.5 39.5t95.5 -39.5 t38.5 -97.5t-38.5 -97.5t-95.5 -39.5t-95.5 39.5t-38.5 97.5z" />
<glyph unicode="&#x1eb8;" horiz-adv-x="1239" d="M181 0v1443h916v-204h-692v-408h655v-194h-655v-433h692v-204h-916zM505 -279q0 58 38.5 97.5t95.5 39.5t95.5 -39.5t38.5 -97.5t-38.5 -97.5t-95.5 -39.5t-95.5 39.5t-38.5 97.5z" />
<glyph unicode="&#x1eb9;" horiz-adv-x="1192" d="M102 541q0 261 136 415t366 154q227 0 356.5 -146t129.5 -403v-75h-769v-12q5 -144 83 -228t207 -84q197 0 259 132h207q-37 -147 -161.5 -231t-310.5 -84q-234 0 -368.5 150.5t-134.5 411.5zM321 645h550q-4 129 -76.5 205.5t-191.5 76.5t-196 -77t-86 -205zM472 -279 q0 58 38.5 97.5t95.5 39.5t95.5 -39.5t38.5 -97.5t-38.5 -97.5t-95.5 -39.5t-95.5 39.5t-38.5 97.5z" />
<glyph unicode="&#x1eba;" horiz-adv-x="1239" d="M181 0v1443h916v-204h-692v-408h655v-194h-655v-433h692v-204h-916zM453 1800v135q54 22 139 22q107 0 170 -52t63 -140q0 -74 -51.5 -136.5t-136.5 -92.5l-80 104q48 16 78 45t30 61t-28.5 53.5t-73.5 21.5q-70 0 -110 -21z" />
<glyph unicode="&#x1ebb;" horiz-adv-x="1192" d="M102 541q0 261 136 415t366 154q227 0 356.5 -146t129.5 -403v-75h-769v-12q5 -144 83 -228t207 -84q197 0 259 132h207q-37 -147 -161.5 -231t-310.5 -84q-234 0 -368.5 150.5t-134.5 411.5zM321 645h550q-4 129 -76.5 205.5t-191.5 76.5t-196 -77t-86 -205zM448 1471 v137q58 23 142 23q108 0 172 -53t64 -143q0 -75 -52.5 -138t-138.5 -94l-82 106q49 16 80 45.5t31 61.5q0 33 -29 54.5t-75 21.5q-70 0 -112 -21z" />
<glyph unicode="&#x1ebc;" horiz-adv-x="1239" d="M181 0v1443h916v-204h-692v-408h655v-194h-655v-433h692v-204h-916zM251 1578q0 140 65 222t177 82q44 0 81.5 -15.5t63.5 -38t48 -44.5t45 -37.5t44 -15.5q49 0 71.5 35t22.5 113h158q0 -140 -65 -221t-177 -81q-44 0 -81.5 15.5t-63.5 37.5t-48 44.5t-45 38t-44 15.5 q-49 0 -71.5 -36t-22.5 -114h-158z" />
<glyph unicode="&#x1ebd;" horiz-adv-x="1192" d="M102 541q0 261 136 415t366 154q227 0 356.5 -146t129.5 -403v-75h-769v-12q5 -144 83 -228t207 -84q197 0 259 132h207q-37 -147 -161.5 -231t-310.5 -84q-234 0 -368.5 150.5t-134.5 411.5zM218 1242q0 140 65 222t177 82q44 0 81.5 -15.5t63.5 -38t48 -44.5t45 -37.5 t44 -15.5q49 0 71.5 35t22.5 113h158q0 -140 -65 -221t-177 -81q-44 0 -81.5 15.5t-63.5 37.5t-48 44.5t-45 38t-44 15.5q-49 0 -71.5 -36t-22.5 -114h-158zM321 645h550q-4 129 -76.5 205.5t-191.5 76.5t-196 -77t-86 -205z" />
<glyph unicode="&#x1ebe;" horiz-adv-x="1239" d="M181 0v1443h916v-204h-692v-408h655v-194h-655v-433h692v-204h-916zM236 1577l288 249h230l288 -249h-240l-154 138h-18l-154 -138h-240zM851 1867l207 265h236l-234 -265h-209z" />
<glyph unicode="&#x1ebf;" horiz-adv-x="1192" d="M102 541q0 261 136 415t366 154q227 0 356.5 -146t129.5 -403v-75h-769v-12q5 -144 83 -228t207 -84q197 0 259 132h207q-37 -147 -161.5 -231t-310.5 -84q-234 0 -368.5 150.5t-134.5 411.5zM212 1244l278 331h228l278 -331h-219l-165 204h-16l-165 -204h-219zM321 645 h550q-4 129 -76.5 205.5t-191.5 76.5t-196 -77t-86 -205zM807 1596l191 314h224l-223 -314h-192z" />
<glyph unicode="&#x1ec0;" horiz-adv-x="1239" d="M181 0v1443h916v-204h-692v-408h655v-194h-655v-433h692v-204h-916zM236 1577l288 249h230l288 -249h-240l-154 138h-18l-154 -138h-240zM664 2132h236l206 -265h-209z" />
<glyph unicode="&#x1ec1;" horiz-adv-x="1192" d="M102 541q0 261 136 415t366 154q227 0 356.5 -146t129.5 -403v-75h-769v-12q5 -144 83 -228t207 -84q197 0 259 132h207q-37 -147 -161.5 -231t-310.5 -84q-234 0 -368.5 150.5t-134.5 411.5zM207 1238l280 331h234l280 -331h-224l-165 204h-16l-165 -204h-224zM321 645 h550q-4 129 -76.5 205.5t-191.5 76.5t-196 -77t-86 -205zM647 1910h224l191 -314h-192z" />
<glyph unicode="&#x1ec2;" horiz-adv-x="1239" d="M181 0v1443h916v-204h-692v-408h655v-194h-655v-433h692v-204h-916zM236 1577l288 249h230l288 -249h-240l-154 138h-18l-154 -138h-240zM763 1999v122q45 17 135 17q91 0 146.5 -48.5t55.5 -127.5q0 -67 -39 -121t-104 -78l-101 85q41 15 63.5 41.5t22.5 57.5 q0 30 -24 49t-62 19q-56 0 -93 -16z" />
<glyph unicode="&#x1ec3;" horiz-adv-x="1192" d="M102 541q0 261 136 415t366 154q227 0 356.5 -146t129.5 -403v-75h-769v-12q5 -144 83 -228t207 -84q197 0 259 132h207q-37 -147 -161.5 -231t-310.5 -84q-234 0 -368.5 150.5t-134.5 411.5zM207 1238l280 331h234l280 -331h-224l-165 204h-16l-165 -204h-224zM321 645 h550q-4 129 -76.5 205.5t-191.5 76.5t-196 -77t-86 -205zM769 1754v138q53 21 135 21q111 0 175 -52t64 -143q0 -75 -52 -138t-138 -94l-82 106q49 16 79 45.5t30 61.5q0 34 -28.5 55t-72.5 21q-66 0 -110 -21z" />
<glyph unicode="&#x1ec4;" horiz-adv-x="1239" d="M181 0v1443h916v-204h-692v-408h655v-194h-655v-433h692v-204h-916zM236 1577l288 246h230l288 -246h-240l-154 138h-18l-154 -138h-240zM264 1890q0 116 64.5 186.5t167.5 70.5q46 0 82 -13t58.5 -31.5t41.5 -37t43 -31.5t52 -13q38 0 63 27.5t29 83.5h149 q0 -114 -64.5 -186.5t-167.5 -72.5q-46 0 -82 13t-58.5 31.5t-41.5 37t-43 31.5t-52 13q-86 0 -91 -109h-150z" />
<glyph unicode="&#x1ec5;" horiz-adv-x="1192" d="M102 541q0 261 136 415t366 154q227 0 356.5 -146t129.5 -403v-75h-769v-12q5 -144 83 -228t207 -84q197 0 259 132h207q-37 -147 -161.5 -231t-310.5 -84q-234 0 -368.5 150.5t-134.5 411.5zM207 1238l280 331h234l280 -331h-224l-165 204h-16l-165 -204h-224zM216 1654 q0 140 63.5 220t174.5 80q44 0 82.5 -15t64.5 -37t48.5 -44t45.5 -37t45 -15q49 0 71.5 34t22.5 111h158q0 -139 -63.5 -218.5t-174.5 -79.5q-44 0 -82.5 15t-64.5 37t-48.5 44t-45.5 37t-45 15q-49 0 -71.5 -34.5t-22.5 -112.5h-158zM321 645h550q-4 129 -76.5 205.5 t-191.5 76.5t-196 -77t-86 -205z" />
<glyph unicode="&#x1ec6;" horiz-adv-x="1239" d="M181 0v1443h916v-204h-692v-408h655v-194h-655v-433h692v-204h-916zM243 1582l295 314h202l295 -314h-225l-163 181h-16l-163 -181h-225zM505 -279q0 58 38.5 97.5t95.5 39.5t95.5 -39.5t38.5 -97.5t-38.5 -97.5t-95.5 -39.5t-95.5 39.5t-38.5 97.5z" />
<glyph unicode="&#x1ec7;" horiz-adv-x="1192" d="M102 541q0 261 136 415t366 154q227 0 356.5 -146t129.5 -403v-75h-769v-12q5 -144 83 -228t207 -84q197 0 259 132h207q-37 -147 -161.5 -231t-310.5 -84q-234 0 -368.5 150.5t-134.5 411.5zM207 1238l280 346h234l279 -346h-221l-167 219h-16l-167 -219h-222zM321 645 h550q-4 129 -76.5 205.5t-191.5 76.5t-196 -77t-86 -205zM472 -279q0 58 38.5 97.5t95.5 39.5t95.5 -39.5t38.5 -97.5t-38.5 -97.5t-95.5 -39.5t-95.5 39.5t-38.5 97.5z" />
<glyph unicode="&#x1ec8;" horiz-adv-x="585" d="M107 1800v135q54 22 139 22q107 0 170 -52t63 -140q0 -74 -51.5 -136.5t-136.5 -92.5l-80 104q48 16 78 45t30 61t-28.5 53.5t-73.5 21.5q-70 0 -110 -21zM181 0v1443h224v-1443h-224z" />
<glyph unicode="&#x1ec9;" horiz-adv-x="534" d="M112 1479v137q58 23 142 23q108 0 172 -53t64 -143q0 -75 -52.5 -138t-138.5 -94l-82 106q49 16 80 45.5t31 61.5q0 33 -29 54.5t-75 21.5q-70 0 -112 -21zM160 0v1089h214v-1089h-214z" />
<glyph unicode="&#x1eca;" horiz-adv-x="585" d="M159 -279q0 58 38.5 97.5t95.5 39.5t95.5 -39.5t38.5 -97.5t-38.5 -97.5t-95.5 -39.5t-95.5 39.5t-38.5 97.5zM181 0v1443h224v-1443h-224z" />
<glyph unicode="&#x1ecb;" horiz-adv-x="534" d="M128 1411q0 56 39.5 94t99.5 38t99.5 -38t39.5 -94t-39.5 -93.5t-99.5 -37.5t-99.5 37.5t-39.5 93.5zM133 -279q0 58 38.5 97.5t95.5 39.5t95.5 -39.5t38.5 -97.5t-38.5 -97.5t-95.5 -39.5t-95.5 39.5t-38.5 97.5zM160 0v1089h214v-1089h-214z" />
<glyph unicode="&#x1ecc;" horiz-adv-x="1590" d="M122 722q0 349 181.5 552.5t492.5 203.5q312 0 492 -203.5t180 -552.5t-180 -553t-492 -204q-313 0 -493.5 203.5t-180.5 553.5zM351 722q0 -251 119 -399.5t326 -148.5q205 0 324 148.5t119 399.5q0 252 -119 399.5t-324 147.5q-204 0 -324.5 -148t-120.5 -399z M662 -279q0 58 38.5 97.5t95.5 39.5t95.5 -39.5t38.5 -97.5t-38.5 -97.5t-95.5 -39.5t-95.5 39.5t-38.5 97.5z" />
<glyph unicode="&#x1ecd;" horiz-adv-x="1231" d="M102 545q0 263 137.5 414t376.5 151q238 0 375.5 -151t137.5 -414q0 -264 -137 -415t-376 -151q-240 0 -377 151t-137 415zM324 545q0 -179 76 -277t216 -98q139 0 215.5 98.5t76.5 276.5q0 177 -76.5 275.5t-215.5 98.5q-140 0 -216 -98t-76 -276zM482 -279 q0 58 38.5 97.5t95.5 39.5t95.5 -39.5t38.5 -97.5t-38.5 -97.5t-95.5 -39.5t-95.5 39.5t-38.5 97.5z" />
<glyph unicode="&#x1ece;" horiz-adv-x="1590" d="M122 722q0 349 181.5 552.5t492.5 203.5q312 0 492 -203.5t180 -552.5t-180 -553t-492 -204q-313 0 -493.5 203.5t-180.5 553.5zM351 722q0 -251 119 -399.5t326 -148.5q205 0 324 148.5t119 399.5q0 252 -119 399.5t-324 147.5q-204 0 -324.5 -148t-120.5 -399z M610 1800v135q54 22 139 22q107 0 170 -52t63 -140q0 -74 -51.5 -136.5t-136.5 -92.5l-80 104q48 16 78 45t30 61t-28.5 53.5t-73.5 21.5q-70 0 -110 -21z" />
<glyph unicode="&#x1ecf;" horiz-adv-x="1231" d="M102 545q0 263 137.5 414t376.5 151q238 0 375.5 -151t137.5 -414q0 -264 -137 -415t-376 -151q-240 0 -377 151t-137 415zM324 545q0 -179 76 -277t216 -98q139 0 215.5 98.5t76.5 276.5q0 177 -76.5 275.5t-215.5 98.5q-140 0 -216 -98t-76 -276zM460 1471v137 q58 23 142 23q108 0 172 -53t64 -143q0 -75 -52.5 -138t-138.5 -94l-82 106q49 16 80 45.5t31 61.5q0 33 -29 54.5t-75 21.5q-70 0 -112 -21z" />
<glyph unicode="&#x1ed0;" horiz-adv-x="1590" d="M122 722q0 349 181.5 552.5t492.5 203.5q312 0 492 -203.5t180 -552.5t-180 -553t-492 -204q-313 0 -493.5 203.5t-180.5 553.5zM351 722q0 -251 119 -399.5t326 -148.5q205 0 324 148.5t119 399.5q0 252 -119 399.5t-324 147.5q-204 0 -324.5 -148t-120.5 -399z M393 1577l288 249h230l288 -249h-240l-154 138h-18l-154 -138h-240zM1008 1867l207 265h236l-234 -265h-209z" />
<glyph unicode="&#x1ed1;" horiz-adv-x="1231" d="M102 545q0 263 137.5 414t376.5 151q238 0 375.5 -151t137.5 -414q0 -264 -137 -415t-376 -151q-240 0 -377 151t-137 415zM224 1244l278 331h228l278 -331h-219l-165 204h-16l-165 -204h-219zM324 545q0 -179 76 -277t216 -98q139 0 215.5 98.5t76.5 276.5 q0 177 -76.5 275.5t-215.5 98.5q-140 0 -216 -98t-76 -276zM819 1596l191 314h224l-223 -314h-192z" />
<glyph unicode="&#x1ed2;" horiz-adv-x="1590" d="M122 722q0 349 181.5 552.5t492.5 203.5q312 0 492 -203.5t180 -552.5t-180 -553t-492 -204q-313 0 -493.5 203.5t-180.5 553.5zM351 722q0 -251 119 -399.5t326 -148.5q205 0 324 148.5t119 399.5q0 252 -119 399.5t-324 147.5q-204 0 -324.5 -148t-120.5 -399z M393 1577l288 249h230l288 -249h-240l-154 138h-18l-154 -138h-240zM821 2132h236l206 -265h-209z" />
<glyph unicode="&#x1ed3;" horiz-adv-x="1231" d="M102 545q0 263 137.5 414t376.5 151q238 0 375.5 -151t137.5 -414q0 -264 -137 -415t-376 -151q-240 0 -377 151t-137 415zM219 1238l280 331h234l280 -331h-224l-165 204h-16l-165 -204h-224zM324 545q0 -179 76 -277t216 -98q139 0 215.5 98.5t76.5 276.5 q0 177 -76.5 275.5t-215.5 98.5q-140 0 -216 -98t-76 -276zM659 1910h224l191 -314h-192z" />
<glyph unicode="&#x1ed4;" horiz-adv-x="1590" d="M122 722q0 349 181.5 552.5t492.5 203.5q312 0 492 -203.5t180 -552.5t-180 -553t-492 -204q-313 0 -493.5 203.5t-180.5 553.5zM351 722q0 -251 119 -399.5t326 -148.5q205 0 324 148.5t119 399.5q0 252 -119 399.5t-324 147.5q-204 0 -324.5 -148t-120.5 -399z M393 1577l288 249h230l288 -249h-240l-154 138h-18l-154 -138h-240zM920 1999v122q45 17 135 17q91 0 146.5 -48.5t55.5 -127.5q0 -67 -39 -121t-104 -78l-101 85q41 15 63.5 41.5t22.5 57.5q0 30 -24 49t-62 19q-56 0 -93 -16z" />
<glyph unicode="&#x1ed5;" horiz-adv-x="1231" d="M102 545q0 263 137.5 414t376.5 151q238 0 375.5 -151t137.5 -414q0 -264 -137 -415t-376 -151q-240 0 -377 151t-137 415zM219 1238l280 331h234l280 -331h-224l-165 204h-16l-165 -204h-224zM324 545q0 -179 76 -277t216 -98q139 0 215.5 98.5t76.5 276.5 q0 177 -76.5 275.5t-215.5 98.5q-140 0 -216 -98t-76 -276zM781 1754v138q53 21 135 21q111 0 175 -52t64 -143q0 -75 -52 -138t-138 -94l-82 106q49 16 79 45.5t30 61.5q0 34 -28.5 55t-72.5 21q-66 0 -110 -21z" />
<glyph unicode="&#x1ed6;" horiz-adv-x="1590" d="M122 722q0 349 181.5 552.5t492.5 203.5q312 0 492 -203.5t180 -552.5t-180 -553t-492 -204q-313 0 -493.5 203.5t-180.5 553.5zM351 722q0 -251 119 -399.5t326 -148.5q205 0 324 148.5t119 399.5q0 252 -119 399.5t-324 147.5q-204 0 -324.5 -148t-120.5 -399z M393 1577l288 246h230l288 -246h-240l-154 138h-18l-154 -138h-240zM421 1890q0 116 64.5 186.5t167.5 70.5q46 0 82 -13t58.5 -31.5t41.5 -37t43 -31.5t52 -13q38 0 63 27.5t29 83.5h149q0 -114 -64.5 -186.5t-167.5 -72.5q-46 0 -82 13t-58.5 31.5t-41.5 37t-43 31.5 t-52 13q-86 0 -91 -109h-150z" />
<glyph unicode="&#x1ed7;" horiz-adv-x="1231" d="M102 545q0 263 137.5 414t376.5 151q238 0 375.5 -151t137.5 -414q0 -264 -137 -415t-376 -151q-240 0 -377 151t-137 415zM219 1238l280 331h234l280 -331h-224l-165 204h-16l-165 -204h-224zM228 1654q0 140 63.5 220t174.5 80q44 0 82.5 -15t64.5 -37t48.5 -44 t45.5 -37t45 -15q49 0 71.5 34t22.5 111h158q0 -139 -63.5 -218.5t-174.5 -79.5q-44 0 -82.5 15t-64.5 37t-48.5 44t-45.5 37t-45 15q-49 0 -71.5 -34.5t-22.5 -112.5h-158zM324 545q0 -179 76 -277t216 -98q139 0 215.5 98.5t76.5 276.5q0 177 -76.5 275.5t-215.5 98.5 q-140 0 -216 -98t-76 -276z" />
<glyph unicode="&#x1ed8;" horiz-adv-x="1590" d="M122 722q0 349 181.5 552.5t492.5 203.5q312 0 492 -203.5t180 -552.5t-180 -553t-492 -204q-313 0 -493.5 203.5t-180.5 553.5zM351 722q0 -251 119 -399.5t326 -148.5q205 0 324 148.5t119 399.5q0 252 -119 399.5t-324 147.5q-204 0 -324.5 -148t-120.5 -399z M400 1582l295 314h202l295 -314h-225l-163 181h-16l-163 -181h-225zM662 -279q0 58 38.5 97.5t95.5 39.5t95.5 -39.5t38.5 -97.5t-38.5 -97.5t-95.5 -39.5t-95.5 39.5t-38.5 97.5z" />
<glyph unicode="&#x1ed9;" horiz-adv-x="1231" d="M102 545q0 263 137.5 414t376.5 151q238 0 375.5 -151t137.5 -414q0 -264 -137 -415t-376 -151q-240 0 -377 151t-137 415zM219 1238l280 346h234l279 -346h-221l-167 219h-16l-167 -219h-222zM324 545q0 -179 76 -277t216 -98q139 0 215.5 98.5t76.5 276.5 q0 177 -76.5 275.5t-215.5 98.5q-140 0 -216 -98t-76 -276zM482 -279q0 58 38.5 97.5t95.5 39.5t95.5 -39.5t38.5 -97.5t-38.5 -97.5t-95.5 -39.5t-95.5 39.5t-38.5 97.5z" />
<glyph unicode="&#x1eda;" horiz-adv-x="1626" d="M122 722q0 349 181.5 552.5t492.5 203.5q80 0 213 -22t209 -22q60 0 84.5 21t24.5 70v151h185v-211q0 -88 -53.5 -138t-137.5 -50h-60v-13q92 -66 149.5 -216t57.5 -326q0 -349 -180 -553t-492 -204q-313 0 -493.5 203.5t-180.5 553.5zM351 722q0 -251 119 -399.5 t326 -148.5q205 0 324 148.5t119 399.5q0 252 -119 399.5t-324 147.5q-204 0 -324.5 -148t-120.5 -399zM676 1582l297 306h258l-325 -306h-230z" />
<glyph unicode="&#x1edb;" horiz-adv-x="1295" d="M102 545q0 262 137.5 413.5t376.5 151.5q69 0 149.5 -15t130.5 -15q62 0 85.5 20t23.5 69v141h185v-204q0 -82 -45 -128t-112 -46h-52v-10q66 -46 107 -147.5t41 -229.5q0 -264 -137 -415t-376 -151q-240 0 -377 151t-137 415zM324 545q0 -179 76.5 -277t215.5 -98 t215.5 98.5t76.5 276.5t-76.5 276t-215.5 98t-215.5 -98t-76.5 -276zM484 1271l251 344h252l-281 -344h-222z" />
<glyph unicode="&#x1edc;" horiz-adv-x="1626" d="M122 722q0 349 181.5 552.5t492.5 203.5q80 0 213 -22t209 -22q60 0 84.5 21t24.5 70v151h185v-211q0 -88 -53.5 -138t-137.5 -50h-60v-13q92 -66 149.5 -216t57.5 -326q0 -349 -180 -553t-492 -204q-313 0 -493.5 203.5t-180.5 553.5zM351 722q0 -251 119 -399.5 t326 -148.5q205 0 324 148.5t119 399.5q0 252 -119 399.5t-324 147.5q-204 0 -324.5 -148t-120.5 -399zM355 1888h258l298 -306h-230z" />
<glyph unicode="&#x1edd;" horiz-adv-x="1295" d="M102 545q0 262 137.5 413.5t376.5 151.5q69 0 149.5 -15t130.5 -15q62 0 85.5 20t23.5 69v141h185v-204q0 -82 -45 -128t-112 -46h-52v-10q66 -46 107 -147.5t41 -229.5q0 -264 -137 -415t-376 -151q-240 0 -377 151t-137 415zM245 1615h252l251 -344h-221zM324 545 q0 -179 76.5 -277t215.5 -98t215.5 98.5t76.5 276.5t-76.5 276t-215.5 98t-215.5 -98t-76.5 -276z" />
<glyph unicode="&#x1ede;" horiz-adv-x="1626" d="M122 722q0 349 181.5 552.5t492.5 203.5q80 0 213 -22t209 -22q60 0 84.5 21t24.5 70v151h185v-211q0 -88 -53.5 -138t-137.5 -50h-60v-13q92 -66 149.5 -216t57.5 -326q0 -349 -180 -553t-492 -204q-313 0 -493.5 203.5t-180.5 553.5zM351 722q0 -251 119 -399.5 t326 -148.5q205 0 324 148.5t119 399.5q0 252 -119 399.5t-324 147.5q-204 0 -324.5 -148t-120.5 -399zM608 1800v135q54 22 139 22q107 0 170 -52t63 -140q0 -74 -51.5 -136.5t-136.5 -92.5l-80 104q48 16 78 45t30 61t-28.5 53.5t-73.5 21.5q-70 0 -110 -21z" />
<glyph unicode="&#x1edf;" horiz-adv-x="1295" d="M102 545q0 262 137.5 413.5t376.5 151.5q69 0 149.5 -15t130.5 -15q62 0 85.5 20t23.5 69v141h185v-204q0 -82 -45 -128t-112 -46h-52v-10q66 -46 107 -147.5t41 -229.5q0 -264 -137 -415t-376 -151q-240 0 -377 151t-137 415zM324 545q0 -179 76.5 -277t215.5 -98 t215.5 98.5t76.5 276.5t-76.5 276t-215.5 98t-215.5 -98t-76.5 -276zM457 1471v137q58 23 142 23q108 0 172 -53t64 -143q0 -75 -52.5 -138t-138.5 -94l-82 106q49 16 80 45.5t31 61.5q0 33 -29 54.5t-75 21.5q-70 0 -112 -21z" />
<glyph unicode="&#x1ee0;" horiz-adv-x="1626" d="M122 722q0 349 181.5 552.5t492.5 203.5q80 0 213 -22t209 -22q60 0 84.5 21t24.5 70v151h185v-211q0 -88 -53.5 -138t-137.5 -50h-60v-13q92 -66 149.5 -216t57.5 -326q0 -349 -180 -553t-492 -204q-313 0 -493.5 203.5t-180.5 553.5zM351 722q0 -251 119 -399.5 t326 -148.5q205 0 324 148.5t119 399.5q0 252 -119 399.5t-324 147.5q-204 0 -324.5 -148t-120.5 -399zM406 1578q0 140 65 222t177 82q44 0 81.5 -15.5t63.5 -38t48 -44.5t45 -37.5t44 -15.5q49 0 71.5 35t22.5 113h158q0 -140 -65 -221t-177 -81q-44 0 -81.5 15.5 t-63.5 37.5t-48 44.5t-45 38t-44 15.5q-49 0 -71.5 -36t-22.5 -114h-158z" />
<glyph unicode="&#x1ee1;" horiz-adv-x="1295" d="M102 545q0 262 137.5 413.5t376.5 151.5q69 0 149.5 -15t130.5 -15q62 0 85.5 20t23.5 69v141h185v-204q0 -82 -45 -128t-112 -46h-52v-10q66 -46 107 -147.5t41 -229.5q0 -264 -137 -415t-376 -151q-240 0 -377 151t-137 415zM178 1242q0 140 65 222t177 82 q44 0 81.5 -15.5t63.5 -38t48 -44.5t45 -37.5t44 -15.5q49 0 71.5 35t22.5 113h158q0 -140 -65 -221t-177 -81q-44 0 -81.5 15.5t-63.5 37.5t-48 44.5t-45 38t-44 15.5q-49 0 -71.5 -36t-22.5 -114h-158zM324 545q0 -179 76.5 -277t215.5 -98t215.5 98.5t76.5 276.5 t-76.5 276t-215.5 98t-215.5 -98t-76.5 -276z" />
<glyph unicode="&#x1ee2;" horiz-adv-x="1626" d="M122 722q0 349 181.5 552.5t492.5 203.5q80 0 213 -22t209 -22q60 0 84.5 21t24.5 70v151h185v-211q0 -88 -53.5 -138t-137.5 -50h-60v-13q92 -66 149.5 -216t57.5 -326q0 -349 -180 -553t-492 -204q-313 0 -493.5 203.5t-180.5 553.5zM351 722q0 -251 119 -399.5 t326 -148.5q205 0 324 148.5t119 399.5q0 252 -119 399.5t-324 147.5q-204 0 -324.5 -148t-120.5 -399zM660 -279q0 58 38.5 97.5t95.5 39.5t95.5 -39.5t38.5 -97.5t-38.5 -97.5t-95.5 -39.5t-95.5 39.5t-38.5 97.5z" />
<glyph unicode="&#x1ee3;" horiz-adv-x="1295" d="M102 545q0 262 137.5 413.5t376.5 151.5q69 0 149.5 -15t130.5 -15q62 0 85.5 20t23.5 69v141h185v-204q0 -82 -45 -128t-112 -46h-52v-10q66 -46 107 -147.5t41 -229.5q0 -264 -137 -415t-376 -151q-240 0 -377 151t-137 415zM324 545q0 -179 76.5 -277t215.5 -98 t215.5 98.5t76.5 276.5t-76.5 276t-215.5 98t-215.5 -98t-76.5 -276zM479 -279q0 58 38.5 97.5t95.5 39.5t95.5 -39.5t38.5 -97.5t-38.5 -97.5t-95.5 -39.5t-95.5 39.5t-38.5 97.5z" />
<glyph unicode="&#x1ee4;" d="M185 497v946h224v-926q0 -154 95.5 -248t264.5 -94q170 0 265.5 94t95.5 248v926h224v-946q0 -238 -158.5 -385t-426.5 -147t-426 147t-158 385zM635 -279q0 58 38.5 97.5t95.5 39.5t95.5 -39.5t38.5 -97.5t-38.5 -97.5t-95.5 -39.5t-95.5 39.5t-38.5 97.5z" />
<glyph unicode="&#x1ee5;" horiz-adv-x="1230" d="M146 382v707h215v-651q0 -133 55.5 -196.5t173.5 -63.5q129 0 199 72.5t70 201.5v637h215v-1089h-207v173h-17q-83 -194 -329 -194q-180 0 -277.5 105t-97.5 298zM474 -279q0 58 38.5 97.5t95.5 39.5t95.5 -39.5t38.5 -97.5t-38.5 -97.5t-95.5 -39.5t-95.5 39.5 t-38.5 97.5z" />
<glyph unicode="&#x1ee6;" d="M185 497v946h224v-926q0 -154 95.5 -248t264.5 -94q170 0 265.5 94t95.5 248v926h224v-946q0 -238 -158.5 -385t-426.5 -147t-426 147t-158 385zM583 1800v135q54 22 139 22q107 0 170 -52t63 -140q0 -74 -51.5 -136.5t-136.5 -92.5l-80 104q48 16 78 45t30 61 t-28.5 53.5t-73.5 21.5q-70 0 -110 -21z" />
<glyph unicode="&#x1ee7;" horiz-adv-x="1230" d="M146 382v707h215v-651q0 -133 55.5 -196.5t173.5 -63.5q129 0 199 72.5t70 201.5v637h215v-1089h-207v173h-17q-83 -194 -329 -194q-180 0 -277.5 105t-97.5 298zM455 1479v137q58 23 142 23q108 0 172 -53t64 -143q0 -75 -52.5 -138t-138.5 -94l-82 106q49 16 80 45.5 t31 61.5q0 33 -29 54.5t-75 21.5q-70 0 -112 -21z" />
<glyph unicode="&#x1ee8;" horiz-adv-x="1692" d="M185 497v946h224v-926q0 -157 97.5 -249.5t262.5 -92.5q166 0 263.5 92.5t97.5 249.5v926h229q87 0 87 83v170h185v-213q0 -96 -57.5 -147.5t-153.5 -51.5h-66v-787q0 -241 -160.5 -386.5t-424.5 -145.5t-424 145.5t-160 386.5zM651 1582l297 306h258l-325 -306h-230z " />
<glyph unicode="&#x1ee9;" horiz-adv-x="1385" d="M146 382v707h215v-651q0 -132 55.5 -196t173.5 -64q129 0 199 72t70 202v637h197q86 0 86 83v155h185v-198q0 -96 -57.5 -147.5t-153.5 -51.5h-42v-930h-207v173h-17q-83 -194 -329 -194q-180 0 -277.5 105.5t-97.5 297.5zM492 1271l251 344h252l-281 -344h-222z" />
<glyph unicode="&#x1eea;" horiz-adv-x="1692" d="M185 497v946h224v-926q0 -157 97.5 -249.5t262.5 -92.5q166 0 263.5 92.5t97.5 249.5v926h229q87 0 87 83v170h185v-213q0 -96 -57.5 -147.5t-153.5 -51.5h-66v-787q0 -241 -160.5 -386.5t-424.5 -145.5t-424 145.5t-160 386.5zM330 1888h258l298 -306h-230z" />
<glyph unicode="&#x1eeb;" horiz-adv-x="1385" d="M146 382v707h215v-651q0 -132 55.5 -196t173.5 -64q129 0 199 72t70 202v637h197q86 0 86 83v155h185v-198q0 -96 -57.5 -147.5t-153.5 -51.5h-42v-930h-207v173h-17q-83 -194 -329 -194q-180 0 -277.5 105.5t-97.5 297.5zM253 1615h252l251 -344h-221z" />
<glyph unicode="&#x1eec;" horiz-adv-x="1692" d="M185 497v946h224v-926q0 -157 97.5 -249.5t262.5 -92.5q166 0 263.5 92.5t97.5 249.5v926h229q87 0 87 83v170h185v-213q0 -96 -57.5 -147.5t-153.5 -51.5h-66v-787q0 -241 -160.5 -386.5t-424.5 -145.5t-424 145.5t-160 386.5zM583 1800v135q54 22 139 22q107 0 170 -52 t63 -140q0 -74 -51.5 -136.5t-136.5 -92.5l-80 104q48 16 78 45t30 61t-28.5 53.5t-73.5 21.5q-70 0 -110 -21z" />
<glyph unicode="&#x1eed;" horiz-adv-x="1385" d="M146 382v707h215v-651q0 -132 55.5 -196t173.5 -64q129 0 199 72t70 202v637h197q86 0 86 83v155h185v-198q0 -96 -57.5 -147.5t-153.5 -51.5h-42v-930h-207v173h-17q-83 -194 -329 -194q-180 0 -277.5 105.5t-97.5 297.5zM465 1479v137q58 23 142 23q108 0 172 -53 t64 -143q0 -75 -52.5 -138t-138.5 -94l-82 106q49 16 80 45.5t31 61.5q0 33 -29 54.5t-75 21.5q-70 0 -112 -21z" />
<glyph unicode="&#x1eee;" horiz-adv-x="1692" d="M185 497v946h224v-926q0 -157 97.5 -249.5t262.5 -92.5q166 0 263.5 92.5t97.5 249.5v926h229q87 0 87 83v170h185v-213q0 -96 -57.5 -147.5t-153.5 -51.5h-66v-787q0 -241 -160.5 -386.5t-424.5 -145.5t-424 145.5t-160 386.5zM381 1578q0 140 65 222t177 82 q44 0 81.5 -15.5t63.5 -38t48 -44.5t45 -37.5t44 -15.5q49 0 71.5 35t22.5 113h158q0 -140 -65 -221t-177 -81q-44 0 -81.5 15.5t-63.5 37.5t-48 44.5t-45 38t-44 15.5q-49 0 -71.5 -36t-22.5 -114h-158z" />
<glyph unicode="&#x1eef;" horiz-adv-x="1385" d="M146 382v707h215v-651q0 -132 55.5 -196t173.5 -64q129 0 199 72t70 202v637h197q86 0 86 83v155h185v-198q0 -96 -57.5 -147.5t-153.5 -51.5h-42v-930h-207v173h-17q-83 -194 -329 -194q-180 0 -277.5 105.5t-97.5 297.5zM235 1242q0 140 65 222t177 82q44 0 81.5 -15.5 t63.5 -38t48 -44.5t45 -37.5t44 -15.5q49 0 71.5 35t22.5 113h158q0 -140 -65 -221t-177 -81q-44 0 -81.5 15.5t-63.5 37.5t-48 44.5t-45 38t-44 15.5q-49 0 -71.5 -36t-22.5 -114h-158z" />
<glyph unicode="&#x1ef0;" horiz-adv-x="1692" d="M185 497v946h224v-926q0 -157 97.5 -249.5t262.5 -92.5q166 0 263.5 92.5t97.5 249.5v926h229q87 0 87 83v170h185v-213q0 -96 -57.5 -147.5t-153.5 -51.5h-66v-787q0 -241 -160.5 -386.5t-424.5 -145.5t-424 145.5t-160 386.5zM635 -279q0 58 38.5 97.5t95.5 39.5 t95.5 -39.5t38.5 -97.5t-38.5 -97.5t-95.5 -39.5t-95.5 39.5t-38.5 97.5z" />
<glyph unicode="&#x1ef1;" horiz-adv-x="1385" d="M146 382v707h215v-651q0 -132 55.5 -196t173.5 -64q129 0 199 72t70 202v637h197q86 0 86 83v155h185v-198q0 -96 -57.5 -147.5t-153.5 -51.5h-42v-930h-207v173h-17q-83 -194 -329 -194q-180 0 -277.5 105.5t-97.5 297.5zM484 -279q0 58 38.5 97.5t95.5 39.5t95.5 -39.5 t38.5 -97.5t-38.5 -97.5t-95.5 -39.5t-95.5 39.5t-38.5 97.5z" />
<glyph unicode="&#x1ef2;" horiz-adv-x="1383" d="M71 1443h249l363 -625h17l363 625h249l-509 -861v-582h-224v582zM252 1888h258l298 -306h-230z" />
<glyph unicode="&#x1ef3;" horiz-adv-x="1152" d="M64 1089h234l273 -865h17l272 865h228l-406 -1134q-70 -198 -160.5 -274t-257.5 -76q-56 0 -89 5v185q23 -4 70 -4q77 0 123 35t74 117l16 53zM206 1615h252l251 -344h-221z" />
<glyph unicode="&#x1ef4;" horiz-adv-x="1383" d="M71 1443h249l363 -625h17l363 625h249l-509 -861v-582h-224v582zM557 -279q0 58 38.5 97.5t95.5 39.5t95.5 -39.5t38.5 -97.5t-38.5 -97.5t-95.5 -39.5t-95.5 39.5t-38.5 97.5z" />
<glyph unicode="&#x1ef5;" horiz-adv-x="1152" d="M64 1089h234l273 -865h17l272 865h228l-406 -1134q-70 -198 -160.5 -274t-257.5 -76q-56 0 -89 5v185q23 -4 70 -4q77 0 123 35t74 117l16 53zM758 -279q0 58 38.5 97.5t95.5 39.5t95.5 -39.5t38.5 -97.5t-38.5 -97.5t-95.5 -39.5t-95.5 39.5t-38.5 97.5z" />
<glyph unicode="&#x1ef6;" horiz-adv-x="1383" d="M71 1443h249l363 -625h17l363 625h249l-509 -861v-582h-224v582zM505 1800v135q54 22 139 22q107 0 170 -52t63 -140q0 -74 -51.5 -136.5t-136.5 -92.5l-80 104q48 16 78 45t30 61t-28.5 53.5t-73.5 21.5q-70 0 -110 -21z" />
<glyph unicode="&#x1ef7;" horiz-adv-x="1152" d="M64 1089h234l273 -865h17l272 865h228l-406 -1134q-70 -198 -160.5 -274t-257.5 -76q-56 0 -89 5v185q23 -4 70 -4q77 0 123 35t74 117l16 53zM418 1471v137q58 23 142 23q108 0 172 -53t64 -143q0 -75 -52.5 -138t-138.5 -94l-82 106q49 16 80 45.5t31 61.5 q0 33 -29 54.5t-75 21.5q-70 0 -112 -21z" />
<glyph unicode="&#x1ef8;" horiz-adv-x="1383" d="M71 1443h249l363 -625h17l363 625h249l-509 -861v-582h-224v582zM303 1578q0 140 65 222t177 82q44 0 81.5 -15.5t63.5 -38t48 -44.5t45 -37.5t44 -15.5q49 0 71.5 35t22.5 113h158q0 -140 -65 -221t-177 -81q-44 0 -81.5 15.5t-63.5 37.5t-48 44.5t-45 38t-44 15.5 q-49 0 -71.5 -36t-22.5 -114h-158z" />
<glyph unicode="&#x1ef9;" horiz-adv-x="1152" d="M64 1089h234l273 -865h17l272 865h228l-406 -1134q-70 -198 -160.5 -274t-257.5 -76q-56 0 -89 5v185q23 -4 70 -4q77 0 123 35t74 117l16 53zM188 1242q0 140 65 222t177 82q44 0 81.5 -15.5t63.5 -38t48 -44.5t45 -37.5t44 -15.5q49 0 71.5 35t22.5 113h158 q0 -140 -65 -221t-177 -81q-44 0 -81.5 15.5t-63.5 37.5t-48 44.5t-45 38t-44 15.5q-49 0 -71.5 -36t-22.5 -114h-158z" />
<glyph unicode="&#x2000;" horiz-adv-x="1098" />
<glyph unicode="&#x2001;" horiz-adv-x="2197" />
<glyph unicode="&#x2002;" horiz-adv-x="1098" />
<glyph unicode="&#x2003;" horiz-adv-x="2197" />
<glyph unicode="&#x2004;" horiz-adv-x="732" />
<glyph unicode="&#x2005;" horiz-adv-x="549" />
<glyph unicode="&#x2006;" horiz-adv-x="366" />
<glyph unicode="&#x2007;" horiz-adv-x="366" />
<glyph unicode="&#x2008;" horiz-adv-x="274" />
<glyph unicode="&#x2009;" horiz-adv-x="439" />
<glyph unicode="&#x200a;" horiz-adv-x="122" />
<glyph unicode="&#x2010;" horiz-adv-x="975" d="M160 476v211h656v-211h-656z" />
<glyph unicode="&#x2011;" horiz-adv-x="975" d="M160 476v211h656v-211h-656z" />
<glyph unicode="&#x2012;" horiz-adv-x="975" d="M160 476v211h656v-211h-656z" />
<glyph unicode="&#x2013;" horiz-adv-x="1024" d="M0 476v211h1024v-211h-1024z" />
<glyph unicode="&#x2014;" horiz-adv-x="2048" d="M0 476v211h2048v-211h-2048z" />
<glyph unicode="&#x2018;" horiz-adv-x="621" d="M136 873l186 570h152l-110 -570h-228z" />
<glyph unicode="&#x2019;" horiz-adv-x="621" d="M170 873l92 570h229l-168 -570h-153z" />
<glyph unicode="&#x201a;" horiz-adv-x="621" d="M163 -377l96 593h225l-164 -593h-157z" />
<glyph unicode="&#x201c;" horiz-adv-x="1055" d="M137 849l180 594h160l-115 -594h-225zM565 849l163 594h160l-98 -594h-225z" />
<glyph unicode="&#x201d;" horiz-adv-x="1055" d="M168 849l97 594h225l-163 -594h-159zM578 849l115 594h225l-180 -594h-160z" />
<glyph unicode="&#x201e;" horiz-adv-x="1055" d="M168 -377l95 593h225l-164 -593h-156zM578 -377l114 593h225l-183 -593h-156z" />
<glyph unicode="&#x2026;" horiz-adv-x="1715" d="M176 132q0 63 42 106t105 43t105 -43t42 -106t-42 -106t-105 -43t-105 43t-42 106zM711 132q0 63 42 106t105 43t105 -43t42 -106t-42 -106t-105 -43t-105 43t-42 106zM1237 132q0 63 42 106t105 43t105 -43t42 -106t-42 -106t-105 -43t-105 43t-42 106z" />
<glyph unicode="&#x202f;" horiz-adv-x="439" />
<glyph unicode="&#x2039;" horiz-adv-x="920" d="M171 561v8l350 414h228l-349 -410v-14l349 -411h-230z" />
<glyph unicode="&#x203a;" horiz-adv-x="920" d="M171 148l350 411v14l-350 410h229l349 -414v-8l-348 -413h-230z" />
<glyph unicode="&#x205f;" horiz-adv-x="549" />
<glyph unicode="&#x20ac;" horiz-adv-x="1359" d="M108 491v146h182q-3 41 -3 84t3 85h-182v147h206q63 248 254 381.5t456 133.5q131 0 202 -22v-204q-79 18 -200 18q-169 0 -293 -79t-180 -228h534v-147h-568q-4 -54 -4 -85q0 -48 4 -84h568v-146h-535q55 -149 179.5 -229t292.5 -80q141 0 203 17v-205q-70 -19 -203 -19 q-175 0 -319 58t-246.5 175t-144.5 283h-206z" />
<glyph unicode="&#x2122;" horiz-adv-x="2013" d="M45 1276v167h758v-167h-287v-733h-186v733h-285zM957 543v900h220l230 -589h11l230 589h220v-900h-173v592h-9l-212 -536h-122l-212 536h-10v-592h-173z" />
<glyph unicode="&#x25fc;" horiz-adv-x="1090" d="M0 0v1090h1090v-1090h-1090z" />
</font>
</defs>
</svg>
